<?xml version="1.0" encoding="utf-8"?>
<!-- Generator: Adobe Illustrator 19.0.0, SVG Export Plug-In . SVG Version: 6.00 Build 0)  -->
<svg version="1.1" xmlns="http://www.w3.org/2000/svg" xmlns:xlink="http://www.w3.org/1999/xlink" x="0px" y="0px"
	 viewBox="0 0 500 500" style="enable-background:new 0 0 500 500;" xml:space="preserve">
<style type="text/css">
	.st0{fill:#F0F0F0;}
	.st1{fill:url(#SVGID_1_);}
	.st2{fill:url(#SVGID_2_);}
	.st3{fill:url(#SVGID_3_);}
	.st4{fill:#A3A3A3;}
	.st5{fill:url(#SVGID_4_);}
	.st6{fill:url(#SVGID_5_);}
	.st7{fill:url(#SVGID_6_);}
	.st8{fill:url(#SVGID_7_);}
	.st9{fill:#B3B3B3;}
	.st10{fill:url(#SVGID_8_);}
	.st11{fill:#C7C7C7;}
	.st12{fill:url(#SVGID_9_);}
	.st13{fill:url(#SVGID_10_);}
	.st14{fill:url(#SVGID_11_);}
	.st15{fill:url(#SVGID_12_);}
	.st16{fill:#CCBAB3;}
	.st17{fill:url(#SVGID_13_);}
	.st18{fill:url(#SVGID_14_);}
	.st19{fill:url(#SVGID_15_);}
	.st20{fill:url(#SVGID_16_);}
	.st21{fill:url(#SVGID_17_);}
	.st22{fill:url(#SVGID_18_);}
	.st23{fill:url(#SVGID_19_);}
	.st24{fill:url(#SVGID_20_);}
	.st25{fill:url(#SVGID_21_);}
	.st26{fill:#6E192B;}
	.st27{fill:url(#SVGID_22_);}
	.st28{fill:url(#SVGID_23_);}
	.st29{fill:url(#SVGID_24_);}
	.st30{fill:url(#SVGID_25_);}
	.st31{fill:url(#SVGID_26_);}
	.st32{fill:url(#SVGID_27_);}
	.st33{fill:url(#SVGID_28_);}
	.st34{fill:url(#SVGID_29_);}
	.st35{fill:url(#SVGID_30_);}
	.st36{fill:url(#SVGID_31_);}
	.st37{fill:url(#SVGID_32_);}
	.st38{fill:url(#SVGID_33_);}
	.st39{fill:url(#SVGID_34_);}
	.st40{fill:url(#SVGID_35_);}
	.st41{fill:url(#SVGID_36_);}
	.st42{fill:url(#SVGID_37_);}
	.st43{fill:url(#SVGID_38_);}
	.st44{fill:url(#SVGID_39_);}
	.st45{fill:url(#SVGID_40_);}
	.st46{fill:url(#SVGID_41_);}
	.st47{fill:url(#SVGID_42_);}
	.st48{fill:url(#SVGID_43_);}
	.st49{fill:url(#SVGID_44_);}
	.st50{fill:url(#SVGID_45_);}
	.st51{fill:url(#SVGID_46_);}
	.st52{fill:url(#SVGID_47_);}
	.st53{fill:url(#SVGID_48_);}
	.st54{fill:url(#SVGID_49_);}
	.st55{fill:url(#SVGID_50_);}
	.st56{fill:url(#SVGID_51_);}
	.st57{fill:url(#SVGID_52_);}
	.st58{fill:url(#SVGID_53_);}
	.st59{fill:url(#SVGID_54_);}
	.st60{fill:url(#SVGID_55_);}
	.st61{fill:url(#SVGID_56_);}
	.st62{fill:url(#SVGID_57_);}
	.st63{fill:url(#SVGID_58_);}
	.st64{fill:url(#SVGID_59_);}
	.st65{fill:url(#SVGID_60_);}
	.st66{fill:url(#SVGID_61_);}
	.st67{fill:url(#SVGID_62_);}
	.st68{fill:url(#SVGID_63_);}
	.st69{fill:url(#SVGID_64_);}
	.st70{fill:url(#SVGID_65_);}
	.st71{fill:url(#SVGID_66_);}
	.st72{fill:url(#SVGID_67_);}
	.st73{fill:url(#SVGID_68_);}
	.st74{fill:url(#SVGID_69_);}
	.st75{fill:url(#SVGID_70_);}
	.st76{fill:url(#SVGID_71_);}
	.st77{fill:url(#SVGID_72_);}
	.st78{fill:url(#SVGID_73_);}
	.st79{fill:url(#SVGID_74_);}
	.st80{fill:url(#SVGID_75_);}
	.st81{fill:url(#SVGID_76_);}
	.st82{fill:url(#SVGID_77_);}
	.st83{fill:url(#SVGID_78_);}
	.st84{fill:url(#SVGID_79_);}
	.st85{fill:url(#SVGID_80_);}
	.st86{fill:url(#SVGID_81_);}
	.st87{fill:url(#SVGID_82_);}
	.st88{fill:url(#SVGID_83_);}
	.st89{fill:url(#SVGID_84_);}
	.st90{fill:url(#SVGID_85_);}
	.st91{fill:url(#SVGID_86_);}
	.st92{fill:url(#SVGID_87_);}
	.st93{fill:url(#SVGID_88_);}
	.st94{fill:url(#SVGID_89_);}
	.st95{fill:url(#SVGID_90_);}
	.st96{fill:url(#SVGID_91_);}
	.st97{fill:url(#SVGID_92_);}
	.st98{fill:url(#SVGID_93_);}
	.st99{fill:url(#SVGID_94_);}
	.st100{fill:url(#SVGID_95_);}
	.st101{fill:url(#SVGID_96_);}
	.st102{fill:url(#SVGID_97_);}
	.st103{fill:url(#SVGID_98_);}
	.st104{fill:url(#SVGID_99_);}
	.st105{fill:url(#SVGID_100_);}
	.st106{fill:url(#SVGID_101_);}
	.st107{fill:url(#SVGID_102_);}
	.st108{fill:url(#SVGID_103_);}
	.st109{fill:url(#SVGID_104_);}
	.st110{fill:url(#SVGID_105_);}
	.st111{fill:url(#SVGID_106_);}
	.st112{fill:url(#SVGID_107_);}
	.st113{fill:url(#SVGID_108_);}
	.st114{fill:url(#SVGID_109_);}
	.st115{fill:url(#SVGID_110_);}
	.st116{fill:url(#SVGID_111_);}
	.st117{fill:url(#SVGID_112_);}
	.st118{fill:url(#SVGID_113_);}
	.st119{fill:url(#SVGID_114_);}
	.st120{fill:url(#SVGID_115_);}
	.st121{fill:url(#SVGID_116_);}
	.st122{fill:url(#SVGID_117_);}
	.st123{fill:url(#SVGID_118_);}
	.st124{fill:url(#SVGID_119_);}
	.st125{fill:url(#SVGID_120_);}
	.st126{fill:url(#SVGID_121_);}
	.st127{fill:url(#SVGID_122_);}
	.st128{fill:#404040;}
</style>
<g id="BACKGROUND">
	<rect class="st0" width="500" height="500"/>
</g>
<g id="OBJECTS">
	<g>
		<g>
			<g>
				<linearGradient id="SVGID_1_" gradientUnits="userSpaceOnUse" x1="104.8579" y1="154.4131" x2="104.8579" y2="304.0539">
					<stop  offset="0" style="stop-color:#BD6542"/>
					<stop  offset="1" style="stop-color:#7D422C"/>
				</linearGradient>
				<path class="st1" d="M119.5,248.5v-39.9H146v39.9h24.5v25.3H146v41.4h-26.5v-41.4H39.2v-21.2l57.5-105.8h27.4L69.5,248.5H119.5z
					"/>
			</g>
			<g>
				<linearGradient id="SVGID_2_" gradientUnits="userSpaceOnUse" x1="395.1421" y1="154.4131" x2="395.1421" y2="304.0539">
					<stop  offset="0" style="stop-color:#BD6542"/>
					<stop  offset="1" style="stop-color:#7D422C"/>
				</linearGradient>
				<path class="st2" d="M409.8,248.5v-39.9h26.5v39.9h24.5v25.3h-24.5v41.4h-26.5v-41.4h-80.3v-21.2L387,146.8h27.4l-54.6,101.7
					H409.8z"/>
			</g>
		</g>
		<g>
			<g>
				<linearGradient id="SVGID_3_" gradientUnits="userSpaceOnUse" x1="177.8945" y1="295.6768" x2="252.3027" y2="295.6768">
					<stop  offset="0" style="stop-color:#B0B0B0"/>
					<stop  offset="1" style="stop-color:#696969"/>
				</linearGradient>
				<path class="st3" d="M252.3,295.7c0,15.3-13.3,27.7-33.8,27.7c-20.5,0-40.6-12.4-40.6-27.7c0-15.3,20-27.7,40.6-27.7
					C239,268,252.3,280.4,252.3,295.7z"/>
				<g>
					<path class="st4" d="M211.3,280.3c0,1.2-0.3,2.1-1.2,2.9c-0.8,0.7-1.8,1-3.1,1c-1.3,0-2.4,0-3.3-0.7c-0.9-0.8-1.7-1.9-1.7-3.2
						s0.6-2.6,1.5-3.4c0.8-0.7,2.2-0.7,3.5-0.7c1.3,0,2.6,0,3.5,0.7C211.3,277.8,211.3,279.1,211.3,280.3z"/>
					<path class="st4" d="M238.4,284.1c0,1.2-0.4,2.6-1.3,3.3c-0.8,0.7-2.2,1.1-3.4,1.1c-1.3,0-2.5-0.6-3.3-1.3
						c-0.9-0.8-1-1.9-1-3.2c0-1.2,0.3-2.1,1.2-2.9c0.8-0.7,1.8-1,3.1-1c1.3,0,2.4,0,3.3,0.7C237.8,281.8,238.4,282.9,238.4,284.1z"
						/>
					<path class="st4" d="M218,273.8c0,1.1-1.2,2.4-2.4,2.4c-1.2,0-2.1-1.3-2.1-2.4c0-1.1,0.8-2.5,2.1-2.5
						C216.8,271.3,218,272.6,218,273.8z"/>
					<path class="st4" d="M220.9,281.5c0,1.1-1.1,2.1-2.3,2.1c-1.2,0-2.7-1-2.7-2.1c0-1.1,1.4-2.1,2.7-2.1
						C219.8,279.3,220.9,280.4,220.9,281.5z"/>
					<path class="st4" d="M196.4,290.9c0,1.2-0.8,2.1-1.6,2.9c-0.8,0.7-1.8,1.2-3,1.2c-1.2,0-2.5-0.1-3.3-0.8
						c-0.8-0.7-1.2-2.1-1.2-3.3c0-1.2,0.6-2.2,1.5-3c0.8-0.7,1.9-1.5,3.1-1.5c1.2,0,2.3,0.8,3.1,1.5
						C195.7,288.6,196.4,289.8,196.4,290.9z"/>
					<path class="st4" d="M226.5,294.4c0,1.8-0.5,3.3-1.8,4.4c-1.2,1.1-2.8,2.2-4.6,2.2s-3.6-0.8-4.9-1.9c-1.3-1.1-1.8-2.9-1.8-4.7
						c0-1.8,0.6-3.5,1.9-4.6c1.2-1.1,3-1.5,4.8-1.5s3.3,0.8,4.5,1.8C225.8,291.2,226.5,292.6,226.5,294.4z"/>
					<path class="st4" d="M230.1,275.8c0,1.9-1.9,3.8-4,3.8c-2.1,0-3.5-1.9-3.5-3.8c0-1.9,1.4-3.9,3.5-3.9
						C228.2,271.9,230.1,273.9,230.1,275.8z"/>
				</g>
			</g>
			<g>
				
					<linearGradient id="SVGID_4_" gradientUnits="userSpaceOnUse" x1="221.8755" y1="328.87" x2="227.9071" y2="302.9641" gradientTransform="matrix(0.9483 -0.3175 0.3175 0.9483 -94.8996 71.238)">
					<stop  offset="0" style="stop-color:#4F8C66"/>
					<stop  offset="1" style="stop-color:#AAE07E"/>
				</linearGradient>
				<path class="st5" d="M218.9,314.7c-0.4,0.8-2.8-10-3.1-18.9c-0.4-8.9,1.4-10,3-7.5C220.3,290.9,223.8,303.6,218.9,314.7z"/>
				
					<linearGradient id="SVGID_5_" gradientUnits="userSpaceOnUse" x1="214.8603" y1="278.397" x2="220.8922" y2="252.4899" gradientTransform="matrix(0.6942 -0.7198 0.7198 0.6942 -132.467 271.8647)">
					<stop  offset="0" style="stop-color:#4F8C66"/>
					<stop  offset="1" style="stop-color:#AAE07E"/>
				</linearGradient>
				<path class="st6" d="M217.1,312.8c0.1,0.9-7.1-7.5-11.5-15.3c-4.4-7.7-3.4-9.5-0.8-8C207.3,291,216.4,300.6,217.1,312.8z"/>
				
					<linearGradient id="SVGID_6_" gradientUnits="userSpaceOnUse" x1="226.8487" y1="236.7848" x2="231.2421" y2="217.9151" gradientTransform="matrix(0.2628 -0.9649 0.9649 0.2628 -71.9229 469.6327)">
					<stop  offset="0" style="stop-color:#4F8C66"/>
					<stop  offset="1" style="stop-color:#AAE07E"/>
				</linearGradient>
				<path class="st7" d="M217,314.4c0.3,0.5-7.2-2.4-12.7-5.7c-5.5-3.4-5.5-4.9-3.3-4.8C203.1,303.9,212.3,306.9,217,314.4z"/>
			</g>
			<g>
				<linearGradient id="SVGID_7_" gradientUnits="userSpaceOnUse" x1="254.6172" y1="294.3545" x2="329.0254" y2="294.3545">
					<stop  offset="0" style="stop-color:#B0B0B0"/>
					<stop  offset="1" style="stop-color:#696969"/>
				</linearGradient>
				<path class="st8" d="M329,294.4c0,15.3-13.3,27.7-33.8,27.7c-20.5,0-40.6-12.4-40.6-27.7c0-15.3,20-27.7,40.6-27.7
					C315.7,266.7,329,279.1,329,294.4z"/>
				<g>
					<path class="st9" d="M298.1,280.4c0,1.2-0.3,2.1-1.2,2.9c-0.8,0.7-1.8,1-3.1,1c-1.3,0-2.4,0-3.3-0.7c-0.9-0.8-1.7-1.9-1.7-3.2
						c0-1.2,0.6-2.6,1.5-3.4c0.8-0.7,2.2-0.7,3.5-0.7c1.3,0,2.6,0,3.5,0.7C298.2,277.8,298.1,279.2,298.1,280.4z"/>
					<path class="st9" d="M325.2,284.2c0,1.2-0.4,2.6-1.3,3.3c-0.8,0.7-2.2,1.1-3.4,1.1c-1.3,0-2.5-0.6-3.3-1.3
						c-0.9-0.8-1-1.9-1-3.2c0-1.2,0.3-2.1,1.2-2.9c0.8-0.7,1.8-1,3.1-1c1.3,0,2.4,0,3.3,0.7C324.6,281.8,325.2,283,325.2,284.2z"/>
					<path class="st9" d="M304.8,273.8c0,1.1-1.2,2.5-2.4,2.5s-2.1-1.3-2.1-2.5c0-1.1,0.8-2.5,2.1-2.5S304.8,272.7,304.8,273.8z"/>
					<path class="st9" d="M307.7,281.6c0,1.1-1.1,2.1-2.3,2.1c-1.2,0-2.7-1-2.7-2.1c0-1.1,1.4-2.1,2.7-2.1
						C306.6,279.4,307.7,280.4,307.7,281.6z"/>
					<path class="st9" d="M283.2,291c0,1.2-0.8,2.1-1.6,2.9c-0.8,0.7-1.8,1.2-3,1.2c-1.2,0-2.5-0.1-3.3-0.8
						c-0.8-0.7-1.2-2.1-1.2-3.3c0-1.2,0.6-2.2,1.5-3c0.8-0.7,1.9-1.5,3.1-1.5c1.2,0,2.3,0.8,3.1,1.5
						C282.5,288.7,283.2,289.8,283.2,291z"/>
					<path class="st9" d="M313.3,294.4c0,1.8-0.5,3.3-1.8,4.4c-1.2,1.1-2.8,2.2-4.6,2.2c-1.8,0-3.6-0.8-4.9-1.9
						c-1.3-1.1-1.8-2.9-1.8-4.7c0-1.8,0.6-3.5,1.9-4.6c1.2-1.1,3-1.5,4.8-1.5c1.8,0,3.3,0.8,4.5,1.8
						C312.7,291.3,313.3,292.7,313.3,294.4z"/>
					<path class="st9" d="M317,275.9c0,1.9-1.9,3.8-4,3.8c-2.1,0-3.5-1.9-3.5-3.8c0-1.9,1.4-3.9,3.5-3.9
						C315.1,272,317,274,317,275.9z"/>
				</g>
			</g>
			<g>
				<linearGradient id="SVGID_8_" gradientUnits="userSpaceOnUse" x1="215.0986" y1="315.1206" x2="299.9922" y2="315.1206">
					<stop  offset="0" style="stop-color:#B0B0B0"/>
					<stop  offset="1" style="stop-color:#696969"/>
				</linearGradient>
				<path class="st10" d="M300,315.1c0,17.4-15.2,31.6-38.6,31.6c-23.4,0-46.3-14.1-46.3-31.6c0-17.4,22.8-31.6,46.3-31.6
					C284.8,283.5,300,297.7,300,315.1z"/>
				<g>
					<path class="st11" d="M261.3,295.8c0,1.2-0.3,2.1-1.2,2.9c-0.8,0.7-1.8,1-3.1,1c-1.3,0-2.4,0-3.3-0.7c-0.9-0.8-1.7-1.9-1.7-3.2
						c0-1.2,0.6-2.6,1.5-3.4c0.8-0.7,2.2-0.7,3.5-0.7c1.3,0,2.6,0,3.5,0.7C261.3,293.3,261.3,294.6,261.3,295.8z"/>
					<path class="st11" d="M288.4,299.7c0,1.2-0.4,2.6-1.3,3.3c-0.8,0.7-2.2,1.1-3.4,1.1c-1.3,0-2.5-0.6-3.3-1.3
						c-0.9-0.8-1-1.9-1-3.2c0-1.2,0.3-2.1,1.2-2.9c0.8-0.7,1.8-1,3.1-1c1.3,0,2.4,0,3.3,0.7C287.8,297.3,288.4,298.4,288.4,299.7z"
						/>
					<path class="st11" d="M268,289.3c0,1.1-1.2,2.5-2.4,2.5c-1.2,0-2.1-1.3-2.1-2.5c0-1.1,0.8-2.5,2.1-2.5
						C266.8,286.8,268,288.1,268,289.3z"/>
					<path class="st11" d="M270.9,297c0,1.1-1.1,2.1-2.3,2.1c-1.2,0-2.7-1-2.7-2.1s1.4-2.1,2.7-2.1
						C269.8,294.9,270.9,295.9,270.9,297z"/>
					<path class="st11" d="M246.4,306.4c0,1.2-0.8,2.1-1.6,2.9c-0.8,0.7-1.8,1.2-3,1.2c-1.2,0-2.5-0.1-3.3-0.8
						c-0.8-0.7-1.2-2.1-1.2-3.3c0-1.2,0.6-2.2,1.5-3c0.8-0.7,1.9-1.5,3.1-1.5c1.2,0,2.3,0.8,3.1,1.5
						C245.7,304.2,246.4,305.3,246.4,306.4z"/>
					<path class="st11" d="M276.5,309.9c0,1.8-0.5,3.3-1.8,4.4c-1.2,1.1-2.8,2.2-4.6,2.2c-1.8,0-3.6-0.8-4.9-1.9
						c-1.3-1.1-1.8-2.9-1.8-4.7c0-1.8,0.6-3.5,1.9-4.6c1.2-1.1,3-1.5,4.8-1.5c1.8,0,3.3,0.8,4.5,1.8
						C275.8,306.8,276.5,308.1,276.5,309.9z"/>
					<path class="st11" d="M280.1,291.3c0,1.9-1.9,3.8-4,3.8c-2.1,0-3.5-1.9-3.5-3.8c0-1.9,1.4-3.9,3.5-3.9
						C278.2,287.4,280.1,289.4,280.1,291.3z"/>
				</g>
			</g>
			<g>
				
					<linearGradient id="SVGID_9_" gradientUnits="userSpaceOnUse" x1="300.2839" y1="367.5286" x2="307.7892" y2="335.2938" gradientTransform="matrix(0.9483 -0.3175 0.3175 0.9483 -94.8996 71.238)">
					<stop  offset="0" style="stop-color:#4F8C66"/>
					<stop  offset="1" style="stop-color:#AAE07E"/>
				</linearGradient>
				<path class="st12" d="M305.3,327c-0.4,1-3.4-12.4-3.9-23.5c-0.5-11.1,1.7-12.5,3.7-9.3C307,297.3,311.4,313.2,305.3,327z"/>
				
					<linearGradient id="SVGID_10_" gradientUnits="userSpaceOnUse" x1="266.4324" y1="348.0457" x2="273.9377" y2="315.8105" gradientTransform="matrix(0.6942 -0.7198 0.7198 0.6942 -132.467 271.8647)">
					<stop  offset="0" style="stop-color:#4F8C66"/>
					<stop  offset="1" style="stop-color:#AAE07E"/>
				</linearGradient>
				<path class="st13" d="M303,324.6c0.1,1.1-8.8-9.4-14.3-19c-5.5-9.6-4.2-11.9-1-10C290.9,297.5,302.1,309.5,303,324.6z"/>
				
					<linearGradient id="SVGID_11_" gradientUnits="userSpaceOnUse" x1="237.9484" y1="322.5915" x2="243.4154" y2="299.111" gradientTransform="matrix(0.2628 -0.9649 0.9649 0.2628 -71.9229 469.6327)">
					<stop  offset="0" style="stop-color:#4F8C66"/>
					<stop  offset="1" style="stop-color:#AAE07E"/>
				</linearGradient>
				<path class="st14" d="M302.9,326.6c0.4,0.7-8.9-2.9-15.8-7.1c-6.9-4.2-6.8-6.1-4.1-6C285.7,313.6,297,317.3,302.9,326.6z"/>
			</g>
			<linearGradient id="SVGID_12_" gradientUnits="userSpaceOnUse" x1="254.9865" y1="265.164" x2="254.9865" y2="235.7126">
				<stop  offset="0" style="stop-color:#CF7A5D"/>
				<stop  offset="1" style="stop-color:#FFA685"/>
			</linearGradient>
			<path class="st15" d="M203.2,267.8c0,0,94,0,101.8,0c7.7,0-10.1-26.9-30.1-37.5C254.8,219.8,209.6,218.9,203.2,267.8z"/>
			<path class="st16" d="M241.8,241.4c1-5.5,0.7-11-0.8-16.3c-17.4,2.7-34.2,14.3-37.9,42.7c0,0,9.2,0,22.1,0
				C232.8,263.9,239.1,256.2,241.8,241.4z"/>
			<linearGradient id="SVGID_13_" gradientUnits="userSpaceOnUse" x1="345.1002" y1="312.0699" x2="362.2732" y2="280.7473">
				<stop  offset="0" style="stop-color:#FF641C"/>
				<stop  offset="1" style="stop-color:#FFA81C"/>
			</linearGradient>
			<path class="st17" d="M328.1,296.7c0,0,4.1-12.8,10.6-17.9c6.5-5.2,15.7-7.3,15.8-6.2c0.2,1-2.3,5.8-4.7,7.6c0,0,8-4.5,19.5-5.6
				c11.5-1.2,19.2,0.3,19.5,1.4c0.3,1.1-14.6,10.6-23.6,13.9c0,0,15.8-0.2,16.9,2.7c1,2.9-19.2,8.4-33.1,12.2
				c-13.9,3.8-20.6,7.9-21.4,5.5C326.9,307.8,326.2,301.3,328.1,296.7z"/>
			<linearGradient id="SVGID_14_" gradientUnits="userSpaceOnUse" x1="326.6477" y1="313.3544" x2="341.2924" y2="297.386">
				<stop  offset="0" style="stop-color:#FF641C"/>
				<stop  offset="1" style="stop-color:#FFA81C"/>
			</linearGradient>
			<path class="st18" d="M312.6,324.9c-0.5-0.5,2.8-8.5,5.5-16.4c2.8-7.8,9.1-22.1,12.9-22c3.9,0.1,2.5,8.5,0,12.2
				c0,0,11.2-12.1,17.7-10.7c6.5,1.4-3.1,10.6-7.9,14.1c0,0,16.3-3.1,16.5-0.2c0.3,2.9-5.6,5.6-16.3,9.6
				C330.3,315.6,314.8,327.4,312.6,324.9z"/>
			<linearGradient id="SVGID_15_" gradientUnits="userSpaceOnUse" x1="320.426" y1="325.5169" x2="328.8585" y2="310.1364">
				<stop  offset="0" style="stop-color:#FF641C"/>
				<stop  offset="1" style="stop-color:#FFA81C"/>
			</linearGradient>
			<path class="st19" d="M312.5,325.1c-0.3-0.3,1.6-5,3.3-9.6c1.6-4.6,5.3-13,7.6-12.9c2.3,0.1,1.4,5,0,7.2c0,0,6.6-7.1,10.4-6.3
				c3.9,0.8-1.8,6.2-4.6,8.3c0,0,9.6-1.8,9.7-0.1c0.2,1.7-3.3,3.3-9.6,5.6C323,319.5,313.9,326.5,312.5,325.1z"/>
			<linearGradient id="SVGID_16_" gradientUnits="userSpaceOnUse" x1="367.5338" y1="268.7375" x2="194.4992" y2="236.7105">
				<stop  offset="0" style="stop-color:#70192D"/>
				<stop  offset="1" style="stop-color:#D42F54"/>
			</linearGradient>
			<path class="st20" d="M352.1,212.4c-4.4-12.5-36.5-68.3-99.9-68.7c-63.4-0.4-99.9,37.1-109,80.9
				c-10.6,50.9,12.1,110.7,73.9,121.5c61.8,10.8,96-18.3,98.7-21c2.7-2.7,0.8-5.4-2.9-2.9c-3.7,2.5-12.4,14.4-45.6,13
				c-33.3-1.5-65.1-8.3-77.1-46c-13-40.8,47.3-74.6,87.6-45.3c11.3,8.2,58.5,21.6,68,5.1C355.3,232.5,355.3,221.6,352.1,212.4z"/>
			<linearGradient id="SVGID_17_" gradientUnits="userSpaceOnUse" x1="248.3224" y1="239.9498" x2="191.0643" y2="229.3519">
				<stop  offset="0" style="stop-color:#70192D"/>
				<stop  offset="1" style="stop-color:#D42F54"/>
			</linearGradient>
			<path class="st21" d="M190,265c2.4-23,25.8-31.7,52.6-32.1c0.4-19.3-16.5-38.3-40.6-35.7c-26.2,2.9-28,23.6-27.5,32.6
				C174.4,249.8,191.5,255.8,190,265z"/>
			<linearGradient id="SVGID_18_" gradientUnits="userSpaceOnUse" x1="294.9212" y1="256.7591" x2="197.8421" y2="238.7907">
				<stop  offset="0" style="stop-color:#70192D"/>
				<stop  offset="1" style="stop-color:#D42F54"/>
			</linearGradient>
			<path class="st22" d="M170.1,229.8c-0.4-8.9,4.7-29.7,30.9-32.6c26.2-2.9,41.2,19.8,37.4,40.6c-3.8,20.8-14.7,27.6-26.1,29.5
				c0,0,13.5,0,26.6,0c13.1,0,14.7,0,17.4,0c2.6,0,8.9-3.8,15,0c6.1,3.8,7.6,8.6,7.6,11.1c0,2.5-3.2,4.6-13,4.6c-9.7,0-55,0-62.8,0
				c-7.8,0-12.9-1.5-14.6-8.8C186.9,266.9,170.1,249.8,170.1,229.8z"/>
			<linearGradient id="SVGID_19_" gradientUnits="userSpaceOnUse" x1="274.1303" y1="244.8176" x2="357.3855" y2="244.8176">
				<stop  offset="0" style="stop-color:#70192D"/>
				<stop  offset="1" style="stop-color:#D42F54"/>
			</linearGradient>
			<path class="st23" d="M292.5,240.4c0,0,25.1,0.8,40.3-9.1c15.2-9.8,16.8-23.6,16.8-23.6s10,14,7.4,39.3
				c-2.6,25.3-16.9,34.7-38.4,34.8c-21.5,0.1-29.5-6.6-33.8-10.4c-8.6-7.5-12.9-20.3-9.4-25.3C278.9,241.2,285.3,240.6,292.5,240.4z
				"/>
			<linearGradient id="SVGID_20_" gradientUnits="userSpaceOnUse" x1="263.3174" y1="223.4345" x2="314.0384" y2="223.4345">
				<stop  offset="0" style="stop-color:#70192D"/>
				<stop  offset="1" style="stop-color:#D42F54"/>
			</linearGradient>
			<path class="st24" d="M263.3,239.1c0,0,12.1-8.9,25.6-17.7c13.7-8.9,24.2-14.4,25.1-13.4c0.9,1-21.9,27.3-23.7,29.2
				C288.4,239.1,263.3,239.1,263.3,239.1z"/>
			<linearGradient id="SVGID_21_" gradientUnits="userSpaceOnUse" x1="216.5722" y1="261.8349" x2="284.1262" y2="252.6732">
				<stop  offset="0" style="stop-color:#D6642F"/>
				<stop  offset="1" style="stop-color:#D42F54"/>
			</linearGradient>
			<path class="st25" d="M248,254.2c0,0-2.8-2.9,1.4-6.5c5.6-4.8,19.1-11.6,30.5-16.1c11.4-4.5,45.8-16.6,46.7-15.2
				c0.8,1.4-15.1,16.9-27.1,21.2c0,0,9.5,0.5,9.2,2.4c-0.3,1.9-6,8.7-11.1,12.2c0,0,6.2,0,6.5,0.9c0.3,0.9-2.4,8.8-9.9,13.6
				c0,0,4.6,6.2,3.5,6.8c-1.2,0.7-8.4-0.5-8.4-0.5s6.5,7.7,6.2,8.5c-0.4,0.8-11.8,2.2-22.4-1.5c0,0,2,3.7,1.2,4.2
				c-0.8,0.5-5.5-1.1-10.3-3.9c-1.2-0.4-7.3-0.6-13-0.6c-5.8,0-12.7,0-13.9,0c-1.2,0-7.7,3.3-8.4,3.1c-0.7-0.2-2.3-4.9-1.7-9.5
				c0.6-4.6,1.8-9.4,8.3-13.2C241.6,256.4,248,254.2,248,254.2z"/>
			<path class="st26" d="M236.2,266.5c-0.9-0.9-1.8-1-2.6-0.5c-0.8,0.5-0.9,2.7-0.7,2.8c0.2,0.1,0.9-1.3,1.6-1.5
				C235.2,267.1,236.7,267,236.2,266.5z"/>
			<path class="st26" d="M253.7,257c0,0,2-1.3,4.9-1.2c2.9,0.1,5.8,0.9,8.3-0.7c2.5-1.6,2-3.2,4.5-3.6c0,0-0.8,1-1.5,2.2
				c-0.6,1.2-1.4,3.4-5.6,3.9c-4.3,0.5-5.9-0.9-7.4-0.8C255.4,256.8,252.9,257.4,253.7,257z"/>
			
				<linearGradient id="SVGID_22_" gradientUnits="userSpaceOnUse" x1="-89.6207" y1="-234.2646" x2="-82.94" y2="-246.4498" gradientTransform="matrix(0.1535 0.9882 -0.9882 0.1535 90.4364 449.7773)">
				<stop  offset="0" style="stop-color:#FF641C"/>
				<stop  offset="1" style="stop-color:#FFA81C"/>
			</linearGradient>
			<path class="st27" d="M302,334.4c0,0,7.5-4.6,11.2-7.8c2.8-2.4,2.8-4.1,3.3-4.4c0.5-0.3,14.9-1.5,14.5,0.4
				C330.7,324.5,319.8,334.4,302,334.4z"/>
			
				<linearGradient id="SVGID_23_" gradientUnits="userSpaceOnUse" x1="-76.8843" y1="-213.6644" x2="-70.2039" y2="-225.8491" gradientTransform="matrix(-4.750000e-002 0.9989 -0.9989 -4.750000e-002 75.0239 401.2229)">
				<stop  offset="0" style="stop-color:#FF641C"/>
				<stop  offset="1" style="stop-color:#FFA81C"/>
			</linearGradient>
			<path class="st28" d="M284.2,342.3c0,0,8.3-3,12.5-5.4c3.3-1.8,6.2-3.3,6.7-3.5c0.6-0.2,12.2,1.4,11.5,3.2
				C314.3,338.4,301.7,345.9,284.2,342.3z"/>
			
				<linearGradient id="SVGID_24_" gradientUnits="userSpaceOnUse" x1="-65.5761" y1="-189.522" x2="-57.2195" y2="-204.7641" gradientTransform="matrix(-0.2467 0.9691 -0.9691 -0.2467 72.6506 356.4966)">
				<stop  offset="0" style="stop-color:#FF641C"/>
				<stop  offset="1" style="stop-color:#FFA81C"/>
			</linearGradient>
			<path class="st29" d="M260.9,347.2c0,0,10.9-1.6,16.7-3.5c4.4-1.4,8.4-2.5,9.1-2.6c0.7-0.1,14.7,4.8,13.3,6.8
				C298.7,349.9,281.4,355.9,260.9,347.2z"/>
			
				<linearGradient id="SVGID_25_" gradientUnits="userSpaceOnUse" x1="-49.4293" y1="-162.6211" x2="-39.9127" y2="-179.9788" gradientTransform="matrix(-0.4398 0.8981 -0.8981 -0.4398 80.1853 314.4697)">
				<stop  offset="0" style="stop-color:#FF641C"/>
				<stop  offset="1" style="stop-color:#FFA81C"/>
			</linearGradient>
			<path class="st30" d="M233.3,347.2c0,0,12.5,0.7,19.4,0c5.3-0.5,9.9-0.9,10.8-0.8c0.8,0.1,15.2,8.7,13.3,10.7
				C274.8,359.1,254.1,361.8,233.3,347.2z"/>
			
				<linearGradient id="SVGID_26_" gradientUnits="userSpaceOnUse" x1="-32.5921" y1="-131.5604" x2="-20.9539" y2="-152.7879" gradientTransform="matrix(-0.5684 0.8227 -0.8227 -0.5684 92.1265 290.1282)">
				<stop  offset="0" style="stop-color:#FF641C"/>
				<stop  offset="1" style="stop-color:#FFA81C"/>
			</linearGradient>
			<path class="st31" d="M200.1,342.2c0,0,15,3.1,23.5,3.5c6.5,0.3,12.2,0.7,13.2,1c1,0.3,16.8,13.3,14.1,15.3
				C248.2,364.1,222.6,363.6,200.1,342.2z"/>
			
				<linearGradient id="SVGID_27_" gradientUnits="userSpaceOnUse" x1="-6.1291" y1="-96.4287" x2="5.5092" y2="-117.6563" gradientTransform="matrix(-0.82 0.5723 -0.5723 -0.82 131.2516 252.028)">
				<stop  offset="0" style="stop-color:#FF641C"/>
				<stop  offset="1" style="stop-color:#FFA81C"/>
			</linearGradient>
			<path class="st32" d="M172.4,324.9c0,0,13,8.2,20.8,11.5c6,2.5,11.2,5,12,5.5c0.8,0.6,11.1,18.4,7.8,19.3
				C209.8,362.2,186.1,352.8,172.4,324.9z"/>
			
				<linearGradient id="SVGID_28_" gradientUnits="userSpaceOnUse" x1="27.7236" y1="-57.6959" x2="39.3615" y2="-78.9228" gradientTransform="matrix(-0.9842 0.1771 -0.1771 -0.9842 185.0386 244.0494)">
				<stop  offset="0" style="stop-color:#FF641C"/>
				<stop  offset="1" style="stop-color:#FFA81C"/>
			</linearGradient>
			<path class="st33" d="M151.8,295.4c0,0,8.4,12.9,14.1,19.2c4.4,4.8,8.1,9.2,8.6,10.1c0.5,0.9,2.4,21.3-0.9,20.8
				S152.5,326.4,151.8,295.4z"/>
			
				<linearGradient id="SVGID_29_" gradientUnits="userSpaceOnUse" x1="61.3467" y1="-20.5105" x2="72.9844" y2="-41.737" gradientTransform="matrix(-0.973 -0.2309 0.2309 -0.973 219.2847 270.5371)">
				<stop  offset="0" style="stop-color:#FF641C"/>
				<stop  offset="1" style="stop-color:#FFA81C"/>
			</linearGradient>
			<path class="st34" d="M144.2,260.3c0,0,2.5,15.1,5.2,23.2c2.1,6.2,3.7,11.6,3.8,12.7c0.1,1-6.3,20.5-9.2,18.7
				C141.2,313.1,132.5,289.1,144.2,260.3z"/>
			
				<linearGradient id="SVGID_30_" gradientUnits="userSpaceOnUse" x1="89.7458" y1="11.4566" x2="101.3831" y2="-9.7693" gradientTransform="matrix(-0.8821 -0.4711 0.4711 -0.8821 225.4131 296.0005)">
				<stop  offset="0" style="stop-color:#FF641C"/>
				<stop  offset="1" style="stop-color:#FFA81C"/>
			</linearGradient>
			<path class="st35" d="M145.4,225.4c0,0-1.4,15.3-0.8,23.8c0.4,6.5,0.7,12.2,0.5,13.2c-0.2,1-11.3,18.2-13.6,15.7
				C129.1,275.7,126.7,250.3,145.4,225.4z"/>
			
				<linearGradient id="SVGID_31_" gradientUnits="userSpaceOnUse" x1="123.6301" y1="43.464" x2="135.9012" y2="21.0823" gradientTransform="matrix(-0.6802 -0.733 0.733 -0.6802 211.5714 331.4761)">
				<stop  offset="0" style="stop-color:#FF641C"/>
				<stop  offset="1" style="stop-color:#FFA81C"/>
			</linearGradient>
			<path class="st36" d="M159.4,191c0,0-6.7,14.7-9,23.4c-1.8,6.6-3.5,12.4-4,13.3c-0.5,1-17.6,14.3-19,11
				C125.9,235.5,132.2,209.3,159.4,191z"/>
			
				<linearGradient id="SVGID_32_" gradientUnits="userSpaceOnUse" x1="165.7569" y1="71.2915" x2="178.0271" y2="48.9113" gradientTransform="matrix(-0.3699 -0.9291 0.9291 -0.3699 172.7298 362.4398)">
				<stop  offset="0" style="stop-color:#FF641C"/>
				<stop  offset="1" style="stop-color:#FFA81C"/>
			</linearGradient>
			<path class="st37" d="M185,163.2c0,0-11.5,11.4-16.8,18.6c-4.1,5.5-7.8,10.3-8.6,11c-0.8,0.7-21.5,7-21.7,3.4
				C137.7,192.5,153.1,170.5,185,163.2z"/>
			
				<linearGradient id="SVGID_33_" gradientUnits="userSpaceOnUse" x1="205.2149" y1="97.1402" x2="217.4858" y2="74.7587" gradientTransform="matrix(5.750000e-002 -0.9983 0.9983 5.750000e-002 96.6177 361.8611)">
				<stop  offset="0" style="stop-color:#FF641C"/>
				<stop  offset="1" style="stop-color:#FFA81C"/>
			</linearGradient>
			<path class="st38" d="M220,148.5c0,0-15.3,5.4-23.1,9.7c-6,3.3-11.4,6-12.4,6.3c-1,0.3-22.5-2.8-21.1-6.1
				C164.8,155.2,188,141.7,220,148.5z"/>
			
				<linearGradient id="SVGID_34_" gradientUnits="userSpaceOnUse" x1="236.3473" y1="124.2548" x2="248.6176" y2="101.8745" gradientTransform="matrix(0.3743 -0.9273 0.9273 0.3743 34.7908 327.0469)">
				<stop  offset="0" style="stop-color:#FF641C"/>
				<stop  offset="1" style="stop-color:#FFA81C"/>
			</linearGradient>
			<path class="st39" d="M256.8,145.8c0,0-16.2,0.2-25,1.8c-6.7,1.2-12.7,2.1-13.8,2c-1.1,0-20.4-9.8-18-12.5
				C202.3,134.4,228.7,129,256.8,145.8z"/>
			
				<linearGradient id="SVGID_35_" gradientUnits="userSpaceOnUse" x1="268.9449" y1="149.1473" x2="281.2153" y2="126.7667" gradientTransform="matrix(0.6424 -0.7664 0.7664 0.6424 -13.3222 267.5797)">
				<stop  offset="0" style="stop-color:#FF641C"/>
				<stop  offset="1" style="stop-color:#FFA81C"/>
			</linearGradient>
			<path class="st40" d="M293.9,154.8c0,0-15.5-4.8-24.3-6c-6.8-1-12.7-2-13.7-2.4c-1-0.4-16.4-15.6-13.3-17.5
				C245.6,127.1,272.3,130.1,293.9,154.8z"/>
			
				<linearGradient id="SVGID_36_" gradientUnits="userSpaceOnUse" x1="296.5128" y1="174.3726" x2="308.7832" y2="151.992" gradientTransform="matrix(0.8646 -0.5025 0.5025 0.8646 -38.9531 168.9571)">
				<stop  offset="0" style="stop-color:#FF641C"/>
				<stop  offset="1" style="stop-color:#FFA81C"/>
			</linearGradient>
			<path class="st41" d="M324.8,175.2c0,0-12.9-9.7-20.8-13.9c-6.1-3.2-11.3-6.2-12.1-6.9c-0.8-0.7-10.1-20.3-6.6-21
				C288.8,132.7,312.9,144.7,324.8,175.2z"/>
			<linearGradient id="SVGID_37_" gradientUnits="userSpaceOnUse" x1="326.6201" y1="195.1916" x2="338.8905" y2="172.8111">
				<stop  offset="0" style="stop-color:#FF641C"/>
				<stop  offset="1" style="stop-color:#FFA81C"/>
			</linearGradient>
			<path class="st42" d="M341.5,209c0,0-6.3-14.9-11-22.5c-3.6-5.8-6.7-11-7-12c-0.4-1,1.5-22.6,4.9-21.4
				C331.7,154.2,346.5,176.7,341.5,209z"/>
			<linearGradient id="SVGID_38_" gradientUnits="userSpaceOnUse" x1="342.1204" y1="225.8463" x2="349.2952" y2="201.0102">
				<stop  offset="0" style="stop-color:#FF641C"/>
				<stop  offset="1" style="stop-color:#FFA81C"/>
			</linearGradient>
			<path class="st43" d="M335.1,229.8c0,0,15.1-7.2,17.8-19.4c3.1-13.8-1.1-24.5-3.4-23.9c-2.3,0.6-7.8,17.3-8.1,20.2
				C341.2,209.5,343.5,219.7,335.1,229.8z"/>
			<linearGradient id="SVGID_39_" gradientUnits="userSpaceOnUse" x1="192.4746" y1="272.8455" x2="180.9384" y2="270.7102">
				<stop  offset="0" style="stop-color:#70192D"/>
				<stop  offset="1" style="stop-color:#D42F54"/>
			</linearGradient>
			<path class="st44" d="M179.7,258.3l9.3,26l-0.4-10.1C188.5,274.2,184.6,264.8,179.7,258.3z"/>
			<g>
				<linearGradient id="SVGID_40_" gradientUnits="userSpaceOnUse" x1="335.6751" y1="264.0233" x2="343.2514" y2="261.1317">
					<stop  offset="0" style="stop-color:#DE385D;stop-opacity:0"/>
					<stop  offset="1" style="stop-color:#CF254C"/>
				</linearGradient>
				<path class="st45" d="M340.8,262.4c0.4,1.4-1.3,3.2-3.8,4c-2.6,0.8-5,0.2-5.4-1.2c-0.4-1.4,1.3-3.2,3.8-4
					C338,260.4,340.4,261,340.8,262.4z"/>
				<linearGradient id="SVGID_41_" gradientUnits="userSpaceOnUse" x1="333.5288" y1="258.5094" x2="341.1045" y2="255.8675">
					<stop  offset="0" style="stop-color:#DE385D;stop-opacity:0"/>
					<stop  offset="1" style="stop-color:#CF254C"/>
				</linearGradient>
				<path class="st46" d="M339.1,256.8c0.4,1.4-1.3,3.2-3.8,4c-2.6,0.8-5,0.2-5.4-1.2c-0.4-1.4,1.3-3.2,3.8-4
					C336.2,254.8,338.7,255.3,339.1,256.8z"/>
				<linearGradient id="SVGID_42_" gradientUnits="userSpaceOnUse" x1="331.7683" y1="252.8606" x2="340.9451" y2="249.8186">
					<stop  offset="0" style="stop-color:#DE385D;stop-opacity:0"/>
					<stop  offset="1" style="stop-color:#CF254C"/>
				</linearGradient>
				<path class="st47" d="M337.4,251.1c0.4,1.4-1.3,3.2-3.8,4c-2.6,0.8-5,0.2-5.4-1.2c-0.4-1.4,1.3-3.2,3.8-4
					C334.5,249.2,336.9,249.7,337.4,251.1z"/>
				<linearGradient id="SVGID_43_" gradientUnits="userSpaceOnUse" x1="329.9545" y1="247.3332" x2="337.6805" y2="244.1431">
					<stop  offset="0" style="stop-color:#DE385D;stop-opacity:0"/>
					<stop  offset="1" style="stop-color:#CF254C"/>
				</linearGradient>
				<path class="st48" d="M335.6,245.5c0.4,1.4-1.3,3.2-3.8,4c-2.6,0.8-5,0.3-5.4-1.2c-0.4-1.4,1.3-3.2,3.8-4
					C332.8,243.5,335.2,244,335.6,245.5z"/>
			</g>
			<g>
				<linearGradient id="SVGID_44_" gradientUnits="userSpaceOnUse" x1="326.4336" y1="264.4515" x2="334.359" y2="261.9095">
					<stop  offset="0" style="stop-color:#DE385D;stop-opacity:0"/>
					<stop  offset="1" style="stop-color:#CF254C"/>
				</linearGradient>
				<path class="st49" d="M332,262.8c0.4,1.4-1.3,3.2-3.8,4c-2.6,0.8-5,0.2-5.4-1.2c-0.4-1.4,1.3-3.2,3.8-4
					C329.1,260.8,331.5,261.3,332,262.8z"/>
				<linearGradient id="SVGID_45_" gradientUnits="userSpaceOnUse" x1="324.3914" y1="258.9718" x2="331.0701" y2="256.4796">
					<stop  offset="0" style="stop-color:#DE385D;stop-opacity:0"/>
					<stop  offset="1" style="stop-color:#CF254C"/>
				</linearGradient>
				<path class="st50" d="M330.2,257.1c0.4,1.4-1.3,3.2-3.8,4c-2.6,0.8-5,0.3-5.4-1.2c-0.4-1.4,1.3-3.2,3.8-4
					C327.4,255.1,329.8,255.7,330.2,257.1z"/>
				<linearGradient id="SVGID_46_" gradientUnits="userSpaceOnUse" x1="323.074" y1="253.2228" x2="329.1051" y2="250.6311">
					<stop  offset="0" style="stop-color:#DE385D;stop-opacity:0"/>
					<stop  offset="1" style="stop-color:#CF254C"/>
				</linearGradient>
				<path class="st51" d="M328.5,251.5c0.4,1.4-1.3,3.2-3.8,4c-2.6,0.8-5,0.2-5.4-1.2c-0.4-1.4,1.3-3.2,3.8-4
					C325.6,249.5,328.1,250,328.5,251.5z"/>
			</g>
			<g>
				<linearGradient id="SVGID_47_" gradientUnits="userSpaceOnUse" x1="317.2296" y1="265.2469" x2="324.9553" y2="262.2564">
					<stop  offset="0" style="stop-color:#DE385D;stop-opacity:0"/>
					<stop  offset="1" style="stop-color:#CF254C"/>
				</linearGradient>
				<path class="st52" d="M323.6,263.2c0.4,1.4-1.3,3.2-3.8,4c-2.6,0.8-5,0.3-5.4-1.2c-0.4-1.4,1.3-3.2,3.8-4
					C320.7,261.2,323.1,261.7,323.6,263.2z"/>
				<linearGradient id="SVGID_48_" gradientUnits="userSpaceOnUse" x1="315.8812" y1="259.4681" x2="322.5609" y2="256.826">
					<stop  offset="0" style="stop-color:#DE385D;stop-opacity:0"/>
					<stop  offset="1" style="stop-color:#CF254C"/>
				</linearGradient>
				<path class="st53" d="M321.8,257.5c0.4,1.4-1.3,3.2-3.8,4c-2.6,0.8-5,0.3-5.4-1.2c-0.4-1.4,1.3-3.2,3.8-4
					C319,255.6,321.4,256.1,321.8,257.5z"/>
			</g>
			<g>
				<g>
					
						<linearGradient id="SVGID_49_" gradientUnits="userSpaceOnUse" x1="267.213" y1="175.7035" x2="274.7887" y2="172.8122" gradientTransform="matrix(-1 0 0 1 546 0)">
						<stop  offset="0" style="stop-color:#DE385D;stop-opacity:0"/>
						<stop  offset="1" style="stop-color:#CF254C"/>
					</linearGradient>
					<path class="st54" d="M273.6,174.1c-0.4,1.4,1.3,3.2,3.8,4c2.6,0.8,5,0.2,5.4-1.2c0.4-1.4-1.3-3.2-3.8-4
						C276.5,172.1,274.1,172.7,273.6,174.1z"/>
					
						<linearGradient id="SVGID_50_" gradientUnits="userSpaceOnUse" x1="265.067" y1="170.1896" x2="272.6429" y2="167.5476" gradientTransform="matrix(-1 0 0 1 546 0)">
						<stop  offset="0" style="stop-color:#DE385D;stop-opacity:0"/>
						<stop  offset="1" style="stop-color:#CF254C"/>
					</linearGradient>
					<path class="st55" d="M275.4,168.4c-0.4,1.4,1.3,3.2,3.8,4c2.6,0.8,5,0.2,5.4-1.2c0.4-1.4-1.3-3.2-3.8-4
						C278.2,166.5,275.8,167,275.4,168.4z"/>
					
						<linearGradient id="SVGID_51_" gradientUnits="userSpaceOnUse" x1="263.3062" y1="164.5405" x2="272.4833" y2="161.4984" gradientTransform="matrix(-1 0 0 1 546 0)">
						<stop  offset="0" style="stop-color:#DE385D;stop-opacity:0"/>
						<stop  offset="1" style="stop-color:#CF254C"/>
					</linearGradient>
					<path class="st56" d="M277.1,162.8c-0.4,1.4,1.3,3.2,3.8,4c2.6,0.8,5,0.2,5.4-1.2c0.4-1.4-1.3-3.2-3.8-4
						C280,160.8,277.5,161.4,277.1,162.8z"/>
					
						<linearGradient id="SVGID_52_" gradientUnits="userSpaceOnUse" x1="261.4928" y1="159.0133" x2="269.2183" y2="155.8234" gradientTransform="matrix(-1 0 0 1 546 0)">
						<stop  offset="0" style="stop-color:#DE385D;stop-opacity:0"/>
						<stop  offset="1" style="stop-color:#CF254C"/>
					</linearGradient>
					<path class="st57" d="M278.8,157.2c-0.4,1.4,1.3,3.2,3.8,4c2.6,0.8,5,0.3,5.4-1.2c0.4-1.4-1.3-3.2-3.8-4
						C281.7,155.2,279.3,155.7,278.8,157.2z"/>
				</g>
				<g>
					
						<linearGradient id="SVGID_53_" gradientUnits="userSpaceOnUse" x1="257.971" y1="176.1311" x2="265.8974" y2="173.5886" gradientTransform="matrix(-1 0 0 1 546 0)">
						<stop  offset="0" style="stop-color:#DE385D;stop-opacity:0"/>
						<stop  offset="1" style="stop-color:#CF254C"/>
					</linearGradient>
					<path class="st58" d="M282.5,174.4c-0.4,1.4,1.3,3.2,3.8,4c2.6,0.8,5,0.2,5.4-1.2c0.4-1.4-1.3-3.2-3.8-4
						C285.4,172.5,282.9,173,282.5,174.4z"/>
					
						<linearGradient id="SVGID_54_" gradientUnits="userSpaceOnUse" x1="255.9295" y1="170.6519" x2="262.6084" y2="168.1597" gradientTransform="matrix(-1 0 0 1 546 0)">
						<stop  offset="0" style="stop-color:#DE385D;stop-opacity:0"/>
						<stop  offset="1" style="stop-color:#CF254C"/>
					</linearGradient>
					<path class="st59" d="M284.2,168.8c-0.4,1.4,1.3,3.2,3.8,4c2.6,0.8,5,0.3,5.4-1.2c0.4-1.4-1.3-3.2-3.8-4
						C287.1,166.8,284.7,167.4,284.2,168.8z"/>
					
						<linearGradient id="SVGID_55_" gradientUnits="userSpaceOnUse" x1="254.6116" y1="164.9021" x2="260.6427" y2="162.3103" gradientTransform="matrix(-1 0 0 1 546 0)">
						<stop  offset="0" style="stop-color:#DE385D;stop-opacity:0"/>
						<stop  offset="1" style="stop-color:#CF254C"/>
					</linearGradient>
					<path class="st60" d="M286,163.1c-0.4,1.4,1.3,3.2,3.8,4c2.6,0.8,5,0.3,5.4-1.2c0.4-1.4-1.3-3.2-3.8-4
						C288.8,161.2,286.4,161.7,286,163.1z"/>
				</g>
				<g>
					
						<linearGradient id="SVGID_56_" gradientUnits="userSpaceOnUse" x1="248.768" y1="176.927" x2="256.4936" y2="173.9365" gradientTransform="matrix(-1 0 0 1 546 0)">
						<stop  offset="0" style="stop-color:#DE385D;stop-opacity:0"/>
						<stop  offset="1" style="stop-color:#CF254C"/>
					</linearGradient>
					<path class="st61" d="M290.9,174.9c-0.4,1.4,1.3,3.2,3.8,4c2.6,0.8,5,0.3,5.4-1.2c0.4-1.4-1.3-3.2-3.8-4
						C293.8,172.9,291.3,173.4,290.9,174.9z"/>
					
						<linearGradient id="SVGID_57_" gradientUnits="userSpaceOnUse" x1="247.4194" y1="171.1484" x2="254.099" y2="168.5063" gradientTransform="matrix(-1 0 0 1 546 0)">
						<stop  offset="0" style="stop-color:#DE385D;stop-opacity:0"/>
						<stop  offset="1" style="stop-color:#CF254C"/>
					</linearGradient>
					<path class="st62" d="M292.6,169.2c-0.4,1.4,1.3,3.2,3.8,4c2.6,0.8,5,0.3,5.4-1.2c0.4-1.4-1.3-3.2-3.8-4
						C295.5,167.2,293.1,167.8,292.6,169.2z"/>
				</g>
			</g>
			<g>
				<g>
					
						<linearGradient id="SVGID_58_" gradientUnits="userSpaceOnUse" x1="297.19" y1="213.8726" x2="304.7663" y2="210.9811" gradientTransform="matrix(-0.9794 0.2018 0.2018 0.9794 497.4036 -56.4394)">
						<stop  offset="0" style="stop-color:#DE385D;stop-opacity:0"/>
						<stop  offset="1" style="stop-color:#CF254C"/>
					</linearGradient>
					<path class="st63" d="M244.1,212.5c-0.1,1.5,1.9,2.9,4.6,3.2c2.7,0.2,4.9-0.8,5.1-2.3c0.1-1.5-1.9-2.9-4.6-3.2
						C246.5,210,244.3,211,244.1,212.5z"/>
					
						<linearGradient id="SVGID_59_" gradientUnits="userSpaceOnUse" x1="295.0439" y1="208.3582" x2="302.62" y2="205.7162" gradientTransform="matrix(-0.9794 0.2018 0.2018 0.9794 497.4036 -56.4394)">
						<stop  offset="0" style="stop-color:#DE385D;stop-opacity:0"/>
						<stop  offset="1" style="stop-color:#CF254C"/>
					</linearGradient>
					<path class="st64" d="M244.7,206.6c-0.1,1.5,1.9,2.9,4.6,3.2c2.7,0.2,4.9-0.8,5.1-2.3c0.1-1.5-1.9-2.9-4.6-3.2
						C247.1,204.1,244.8,205.1,244.7,206.6z"/>
					
						<linearGradient id="SVGID_60_" gradientUnits="userSpaceOnUse" x1="293.2837" y1="202.7091" x2="302.4614" y2="199.6668" gradientTransform="matrix(-0.9794 0.2018 0.2018 0.9794 497.4036 -56.4394)">
						<stop  offset="0" style="stop-color:#DE385D;stop-opacity:0"/>
						<stop  offset="1" style="stop-color:#CF254C"/>
					</linearGradient>
					<path class="st65" d="M245.2,200.7c-0.1,1.5,1.9,2.9,4.6,3.2c2.7,0.2,4.9-0.8,5.1-2.3c0.1-1.5-1.9-2.9-4.6-3.2
						C247.6,198.2,245.4,199.2,245.2,200.7z"/>
					
						<linearGradient id="SVGID_61_" gradientUnits="userSpaceOnUse" x1="291.4706" y1="197.1812" x2="299.1958" y2="193.9915" gradientTransform="matrix(-0.9794 0.2018 0.2018 0.9794 497.4036 -56.4394)">
						<stop  offset="0" style="stop-color:#DE385D;stop-opacity:0"/>
						<stop  offset="1" style="stop-color:#CF254C"/>
					</linearGradient>
					<path class="st66" d="M245.8,194.8c-0.1,1.5,1.9,2.9,4.6,3.2c2.7,0.2,4.9-0.8,5.1-2.3c0.1-1.5-1.9-2.9-4.6-3.2
						C248.2,192.3,245.9,193.3,245.8,194.8z"/>
				</g>
				<g>
					
						<linearGradient id="SVGID_62_" gradientUnits="userSpaceOnUse" x1="287.9483" y1="214.2997" x2="295.8748" y2="211.7573" gradientTransform="matrix(-0.9794 0.2018 0.2018 0.9794 497.4036 -56.4394)">
						<stop  offset="0" style="stop-color:#DE385D;stop-opacity:0"/>
						<stop  offset="1" style="stop-color:#CF254C"/>
					</linearGradient>
					<path class="st67" d="M252.9,211c-0.1,1.5,1.9,2.9,4.6,3.2c2.7,0.2,4.9-0.8,5.1-2.3c0.1-1.5-1.9-2.9-4.6-3.2
						C255.3,208.5,253,209.5,252.9,211z"/>
					
						<linearGradient id="SVGID_63_" gradientUnits="userSpaceOnUse" x1="285.9065" y1="208.8209" x2="292.5862" y2="206.3284" gradientTransform="matrix(-0.9794 0.2018 0.2018 0.9794 497.4036 -56.4394)">
						<stop  offset="0" style="stop-color:#DE385D;stop-opacity:0"/>
						<stop  offset="1" style="stop-color:#CF254C"/>
					</linearGradient>
					<path class="st68" d="M253.4,205.1c-0.1,1.5,1.9,2.9,4.6,3.2c2.7,0.2,4.9-0.8,5.1-2.3c0.1-1.5-1.9-2.9-4.6-3.2
						C255.8,202.6,253.6,203.6,253.4,205.1z"/>
					
						<linearGradient id="SVGID_64_" gradientUnits="userSpaceOnUse" x1="284.5884" y1="203.0711" x2="290.6201" y2="200.4791" gradientTransform="matrix(-0.9794 0.2018 0.2018 0.9794 497.4036 -56.4394)">
						<stop  offset="0" style="stop-color:#DE385D;stop-opacity:0"/>
						<stop  offset="1" style="stop-color:#CF254C"/>
					</linearGradient>
					<path class="st69" d="M254,199.3c-0.1,1.5,1.9,2.9,4.6,3.2c2.7,0.2,4.9-0.8,5.1-2.3c0.1-1.5-1.9-2.9-4.6-3.2
						C256.4,196.7,254.1,197.8,254,199.3z"/>
				</g>
				<g>
					
						<linearGradient id="SVGID_65_" gradientUnits="userSpaceOnUse" x1="278.7448" y1="215.0958" x2="286.4713" y2="212.105" gradientTransform="matrix(-0.9794 0.2018 0.2018 0.9794 497.4036 -56.4394)">
						<stop  offset="0" style="stop-color:#DE385D;stop-opacity:0"/>
						<stop  offset="1" style="stop-color:#CF254C"/>
					</linearGradient>
					<path class="st70" d="M261.2,209.7c-0.1,1.5,1.9,2.9,4.6,3.2c2.7,0.2,4.9-0.8,5.1-2.3c0.1-1.5-1.9-2.9-4.6-3.2
						C263.6,207.2,261.3,208.2,261.2,209.7z"/>
					
						<linearGradient id="SVGID_66_" gradientUnits="userSpaceOnUse" x1="277.3952" y1="209.3176" x2="284.0755" y2="206.6753" gradientTransform="matrix(-0.9794 0.2018 0.2018 0.9794 497.4036 -56.4394)">
						<stop  offset="0" style="stop-color:#DE385D;stop-opacity:0"/>
						<stop  offset="1" style="stop-color:#CF254C"/>
					</linearGradient>
					<path class="st71" d="M261.7,203.8c-0.1,1.5,1.9,2.9,4.6,3.2c2.7,0.2,4.9-0.8,5.1-2.3c0.1-1.5-1.9-2.9-4.6-3.2
						C264.1,201.3,261.9,202.4,261.7,203.8z"/>
				</g>
			</g>
			<g>
				<g>
					
						<linearGradient id="SVGID_67_" gradientUnits="userSpaceOnUse" x1="352.5858" y1="194.0688" x2="360.1621" y2="191.1774" gradientTransform="matrix(-0.636 0.7717 0.7717 0.636 269.3286 -207.7409)">
						<stop  offset="0" style="stop-color:#DE385D;stop-opacity:0"/>
						<stop  offset="1" style="stop-color:#ED426A"/>
					</linearGradient>
					<path class="st72" d="M190.3,190.7c0.8,1.3,3.3,1.1,5.5-0.4c2.2-1.5,3.4-3.7,2.5-4.9c-0.8-1.3-3.3-1.1-5.5,0.4
						C190.6,187.3,189.5,189.5,190.3,190.7z"/>
					
						<linearGradient id="SVGID_68_" gradientUnits="userSpaceOnUse" x1="350.4397" y1="188.5549" x2="358.0155" y2="185.913" gradientTransform="matrix(-0.636 0.7717 0.7717 0.636 269.3286 -207.7409)">
						<stop  offset="0" style="stop-color:#DE385D;stop-opacity:0"/>
						<stop  offset="1" style="stop-color:#ED426A"/>
					</linearGradient>
					<path class="st73" d="M187.1,185.8c0.8,1.2,3.3,1.1,5.5-0.4c2.2-1.5,3.4-3.7,2.5-4.9c-0.8-1.3-3.3-1.1-5.5,0.4
						C187.4,182.3,186.2,184.5,187.1,185.8z"/>
					
						<linearGradient id="SVGID_69_" gradientUnits="userSpaceOnUse" x1="348.6797" y1="182.9057" x2="357.8566" y2="179.8637" gradientTransform="matrix(-0.636 0.7717 0.7717 0.636 269.3286 -207.7409)">
						<stop  offset="0" style="stop-color:#DE385D;stop-opacity:0"/>
						<stop  offset="1" style="stop-color:#ED426A"/>
					</linearGradient>
					<path class="st74" d="M183.8,180.9c0.8,1.3,3.3,1.1,5.5-0.4c2.2-1.5,3.4-3.7,2.5-4.9c-0.8-1.3-3.3-1.1-5.5,0.4
						C184.1,177.4,183,179.6,183.8,180.9z"/>
					
						<linearGradient id="SVGID_70_" gradientUnits="userSpaceOnUse" x1="346.8663" y1="177.3785" x2="354.5919" y2="174.1886" gradientTransform="matrix(-0.636 0.7717 0.7717 0.636 269.3286 -207.7409)">
						<stop  offset="0" style="stop-color:#DE385D;stop-opacity:0"/>
						<stop  offset="1" style="stop-color:#ED426A"/>
					</linearGradient>
					<path class="st75" d="M180.6,176c0.8,1.3,3.3,1.1,5.5-0.4c2.2-1.5,3.4-3.7,2.5-4.9c-0.8-1.3-3.3-1.1-5.5,0.4
						C180.9,172.5,179.7,174.7,180.6,176z"/>
				</g>
				<g>
					
						<linearGradient id="SVGID_71_" gradientUnits="userSpaceOnUse" x1="343.344" y1="194.4964" x2="351.2703" y2="191.954" gradientTransform="matrix(-0.636 0.7717 0.7717 0.636 269.3286 -207.7409)">
						<stop  offset="0" style="stop-color:#DE385D;stop-opacity:0"/>
						<stop  offset="1" style="stop-color:#ED426A"/>
					</linearGradient>
					<path class="st76" d="M196.2,184.1c0.8,1.3,3.3,1.1,5.5-0.4c2.2-1.5,3.4-3.7,2.5-4.9c-0.8-1.3-3.3-1.1-5.5,0.4
						C196.5,180.6,195.4,182.8,196.2,184.1z"/>
					
						<linearGradient id="SVGID_72_" gradientUnits="userSpaceOnUse" x1="341.3027" y1="189.0171" x2="347.9819" y2="186.5248" gradientTransform="matrix(-0.636 0.7717 0.7717 0.636 269.3286 -207.7409)">
						<stop  offset="0" style="stop-color:#DE385D;stop-opacity:0"/>
						<stop  offset="1" style="stop-color:#ED426A"/>
					</linearGradient>
					<path class="st77" d="M193,179.2c0.8,1.3,3.3,1.1,5.5-0.4c2.2-1.5,3.4-3.7,2.5-4.9c-0.8-1.3-3.3-1.1-5.5,0.4
						C193.3,175.7,192.1,177.9,193,179.2z"/>
					
						<linearGradient id="SVGID_73_" gradientUnits="userSpaceOnUse" x1="339.985" y1="183.2676" x2="346.0162" y2="180.6758" gradientTransform="matrix(-0.636 0.7717 0.7717 0.636 269.3286 -207.7409)">
						<stop  offset="0" style="stop-color:#DE385D;stop-opacity:0"/>
						<stop  offset="1" style="stop-color:#ED426A"/>
					</linearGradient>
					<path class="st78" d="M189.7,174.3c0.8,1.3,3.3,1.1,5.5-0.4c2.2-1.5,3.4-3.7,2.5-4.9c-0.8-1.3-3.3-1.1-5.5,0.4
						C190,170.8,188.9,173,189.7,174.3z"/>
				</g>
				<g>
					
						<linearGradient id="SVGID_74_" gradientUnits="userSpaceOnUse" x1="334.1408" y1="195.2917" x2="341.8674" y2="192.3009" gradientTransform="matrix(-0.636 0.7717 0.7717 0.636 269.3286 -207.7409)">
						<stop  offset="0" style="stop-color:#DE385D;stop-opacity:0"/>
						<stop  offset="1" style="stop-color:#ED426A"/>
					</linearGradient>
					<path class="st79" d="M201.9,177.9c0.8,1.3,3.3,1.1,5.5-0.4c2.2-1.5,3.4-3.7,2.5-4.9c-0.8-1.3-3.3-1.1-5.5,0.4
						C202.2,174.4,201.1,176.6,201.9,177.9z"/>
					
						<linearGradient id="SVGID_75_" gradientUnits="userSpaceOnUse" x1="332.7922" y1="189.5133" x2="339.4724" y2="186.871" gradientTransform="matrix(-0.636 0.7717 0.7717 0.636 269.3286 -207.7409)">
						<stop  offset="0" style="stop-color:#DE385D;stop-opacity:0"/>
						<stop  offset="1" style="stop-color:#ED426A"/>
					</linearGradient>
					<path class="st80" d="M198.6,173c0.8,1.3,3.3,1.1,5.5-0.4c2.2-1.5,3.4-3.7,2.5-4.9c-0.8-1.3-3.3-1.1-5.5,0.4
						C198.9,169.5,197.8,171.7,198.6,173z"/>
				</g>
			</g>
			<g>
				<g>
					
						<linearGradient id="SVGID_76_" gradientUnits="userSpaceOnUse" x1="432.2093" y1="248.9744" x2="439.7852" y2="246.083" gradientTransform="matrix(0.2362 0.9717 0.9717 -0.2362 -163.9987 -117.5332)">
						<stop  offset="0" style="stop-color:#DE385D;stop-opacity:0"/>
						<stop  offset="1" style="stop-color:#ED426A"/>
					</linearGradient>
					<path class="st81" d="M179.7,249c1.5,0.1,2.8-2,3-4.7c0.2-2.7-0.9-4.9-2.4-5c-1.5-0.1-2.8,2-3,4.7
						C177.1,246.7,178.2,248.9,179.7,249z"/>
					
						<linearGradient id="SVGID_77_" gradientUnits="userSpaceOnUse" x1="430.0624" y1="243.4606" x2="437.6388" y2="240.8185" gradientTransform="matrix(0.2362 0.9717 0.9717 -0.2362 -163.9987 -117.5332)">
						<stop  offset="0" style="stop-color:#DE385D;stop-opacity:0"/>
						<stop  offset="1" style="stop-color:#ED426A"/>
					</linearGradient>
					<path class="st82" d="M173.8,248.7c1.5,0.1,2.8-2,3-4.7c0.2-2.7-0.9-4.9-2.4-5c-1.5-0.1-2.8,2-3,4.7
						C171.2,246.4,172.3,248.6,173.8,248.7z"/>
					
						<linearGradient id="SVGID_78_" gradientUnits="userSpaceOnUse" x1="428.3032" y1="237.8117" x2="437.4813" y2="234.7693" gradientTransform="matrix(0.2362 0.9717 0.9717 -0.2362 -163.9987 -117.5332)">
						<stop  offset="0" style="stop-color:#DE385D;stop-opacity:0"/>
						<stop  offset="1" style="stop-color:#ED426A"/>
					</linearGradient>
					<path class="st83" d="M167.9,248.3c1.5,0.1,2.8-2,3-4.7c0.2-2.7-0.9-4.9-2.4-5c-1.5-0.1-2.8,2-3,4.7
						C165.3,246,166.4,248.2,167.9,248.3z"/>
					
						<linearGradient id="SVGID_79_" gradientUnits="userSpaceOnUse" x1="426.4894" y1="232.2839" x2="434.2147" y2="229.0941" gradientTransform="matrix(0.2362 0.9717 0.9717 -0.2362 -163.9987 -117.5332)">
						<stop  offset="0" style="stop-color:#DE385D;stop-opacity:0"/>
						<stop  offset="1" style="stop-color:#ED426A"/>
					</linearGradient>
					<path class="st84" d="M162,248c1.5,0.1,2.8-2,3-4.7c0.2-2.7-0.9-4.9-2.4-5c-1.5-0.1-2.8,2-3,4.7
						C159.4,245.7,160.5,247.9,162,248z"/>
				</g>
				<g>
					
						<linearGradient id="SVGID_80_" gradientUnits="userSpaceOnUse" x1="422.967" y1="249.402" x2="430.8926" y2="246.8598" gradientTransform="matrix(0.2362 0.9717 0.9717 -0.2362 -163.9987 -117.5332)">
						<stop  offset="0" style="stop-color:#DE385D;stop-opacity:0"/>
						<stop  offset="1" style="stop-color:#ED426A"/>
					</linearGradient>
					<path class="st85" d="M177.9,240.3c1.5,0.1,2.8-2,3-4.7c0.2-2.7-0.9-4.9-2.4-5c-1.5-0.1-2.8,2-3,4.7
						C175.3,238,176.4,240.2,177.9,240.3z"/>
					
						<linearGradient id="SVGID_81_" gradientUnits="userSpaceOnUse" x1="420.9256" y1="243.9224" x2="427.6055" y2="241.4298" gradientTransform="matrix(0.2362 0.9717 0.9717 -0.2362 -163.9987 -117.5332)">
						<stop  offset="0" style="stop-color:#DE385D;stop-opacity:0"/>
						<stop  offset="1" style="stop-color:#ED426A"/>
					</linearGradient>
					<path class="st86" d="M172,240c1.5,0.1,2.8-2,3-4.7c0.2-2.7-0.9-4.9-2.4-5c-1.5-0.1-2.8,2-3,4.7
						C169.4,237.7,170.5,239.9,172,240z"/>
					
						<linearGradient id="SVGID_82_" gradientUnits="userSpaceOnUse" x1="419.6082" y1="238.173" x2="425.64" y2="235.5809" gradientTransform="matrix(0.2362 0.9717 0.9717 -0.2362 -163.9987 -117.5332)">
						<stop  offset="0" style="stop-color:#DE385D;stop-opacity:0"/>
						<stop  offset="1" style="stop-color:#ED426A"/>
					</linearGradient>
					<path class="st87" d="M166.1,239.6c1.5,0.1,2.8-2,3-4.7c0.2-2.7-0.9-4.9-2.4-5c-1.5-0.1-2.8,2-3,4.7
						C163.5,237.3,164.6,239.6,166.1,239.6z"/>
				</g>
				<g>
					
						<linearGradient id="SVGID_83_" gradientUnits="userSpaceOnUse" x1="413.7637" y1="250.1973" x2="421.4899" y2="247.2066" gradientTransform="matrix(0.2362 0.9717 0.9717 -0.2362 -163.9987 -117.5332)">
						<stop  offset="0" style="stop-color:#DE385D;stop-opacity:0"/>
						<stop  offset="1" style="stop-color:#ED426A"/>
					</linearGradient>
					<path class="st88" d="M176.3,232.1c1.5,0.1,2.8-2,3-4.7c0.2-2.7-0.9-4.9-2.4-5c-1.5-0.1-2.8,2-3,4.7
						C173.7,229.7,174.8,232,176.3,232.1z"/>
					
						<linearGradient id="SVGID_84_" gradientUnits="userSpaceOnUse" x1="412.4146" y1="244.4188" x2="419.0942" y2="241.7768" gradientTransform="matrix(0.2362 0.9717 0.9717 -0.2362 -163.9987 -117.5332)">
						<stop  offset="0" style="stop-color:#DE385D;stop-opacity:0"/>
						<stop  offset="1" style="stop-color:#ED426A"/>
					</linearGradient>
					<path class="st89" d="M170.4,231.7c1.5,0.1,2.8-2,3-4.7c0.2-2.7-0.9-4.9-2.4-5c-1.5-0.1-2.8,2-3,4.7
						C167.9,229.4,168.9,231.6,170.4,231.7z"/>
				</g>
			</g>
			<g>
				<g>
					
						<linearGradient id="SVGID_85_" gradientUnits="userSpaceOnUse" x1="546.0335" y1="255.4741" x2="551.9338" y2="253.2223" gradientTransform="matrix(0.9578 0.2874 0.2874 -0.9578 -393.5541 406.8868)">
						<stop  offset="0" style="stop-color:#DE385D;stop-opacity:0"/>
						<stop  offset="1" style="stop-color:#ED426A"/>
					</linearGradient>
					<path class="st90" d="M206.3,321.5c0.6-1-0.2-2.7-2-3.8c-1.7-1.2-3.7-1.3-4.3-0.3c-0.6,1,0.2,2.7,2,3.8
						C203.8,322.3,205.7,322.4,206.3,321.5z"/>
					
						<linearGradient id="SVGID_86_" gradientUnits="userSpaceOnUse" x1="544.3619" y1="251.1811" x2="550.2607" y2="249.124" gradientTransform="matrix(0.9578 0.2874 0.2874 -0.9578 -393.5541 406.8868)">
						<stop  offset="0" style="stop-color:#DE385D;stop-opacity:0"/>
						<stop  offset="1" style="stop-color:#ED426A"/>
					</linearGradient>
					<path class="st91" d="M203.8,325.3c0.6-1-0.2-2.7-2-3.8c-1.7-1.2-3.7-1.3-4.3-0.3c-0.6,1,0.2,2.7,2,3.8
						C201.2,326.1,203.1,326.3,203.8,325.3z"/>
					
						<linearGradient id="SVGID_87_" gradientUnits="userSpaceOnUse" x1="542.9924" y1="246.7814" x2="550.1397" y2="244.4122" gradientTransform="matrix(0.9578 0.2874 0.2874 -0.9578 -393.5541 406.8868)">
						<stop  offset="0" style="stop-color:#DE385D;stop-opacity:0"/>
						<stop  offset="1" style="stop-color:#ED426A"/>
					</linearGradient>
					<path class="st92" d="M201.2,329.1c0.6-1-0.2-2.7-2-3.8c-1.7-1.2-3.7-1.3-4.3-0.3c-0.6,1,0.2,2.7,2,3.8
						C198.7,329.9,200.6,330.1,201.2,329.1z"/>
					
						<linearGradient id="SVGID_88_" gradientUnits="userSpaceOnUse" x1="541.5798" y1="242.4765" x2="547.5971" y2="239.992" gradientTransform="matrix(0.9578 0.2874 0.2874 -0.9578 -393.5541 406.8868)">
						<stop  offset="0" style="stop-color:#DE385D;stop-opacity:0"/>
						<stop  offset="1" style="stop-color:#ED426A"/>
					</linearGradient>
					<path class="st93" d="M198.7,332.9c0.6-1-0.2-2.7-2-3.8c-1.7-1.2-3.7-1.3-4.3-0.3c-0.6,1,0.2,2.7,2,3.8
						C196.1,333.8,198,333.9,198.7,332.9z"/>
				</g>
				<g>
					
						<linearGradient id="SVGID_89_" gradientUnits="userSpaceOnUse" x1="538.8361" y1="255.8069" x2="545.0084" y2="253.8271" gradientTransform="matrix(0.9578 0.2874 0.2874 -0.9578 -393.5541 406.8868)">
						<stop  offset="0" style="stop-color:#DE385D;stop-opacity:0"/>
						<stop  offset="1" style="stop-color:#ED426A"/>
					</linearGradient>
					<path class="st94" d="M199.8,319.2c0.6-1-0.2-2.7-2-3.8c-1.7-1.2-3.7-1.3-4.3-0.3c-0.6,1,0.2,2.7,2,3.8
						C197.2,320.1,199.2,320.2,199.8,319.2z"/>
					
						<linearGradient id="SVGID_90_" gradientUnits="userSpaceOnUse" x1="537.2459" y1="251.541" x2="542.4484" y2="249.5997" gradientTransform="matrix(0.9578 0.2874 0.2874 -0.9578 -393.5541 406.8868)">
						<stop  offset="0" style="stop-color:#DE385D;stop-opacity:0"/>
						<stop  offset="1" style="stop-color:#ED426A"/>
					</linearGradient>
					<path class="st95" d="M197.3,323.1c0.6-1-0.2-2.7-2-3.8c-1.7-1.2-3.7-1.3-4.3-0.3c-0.6,1,0.2,2.7,2,3.8
						C194.7,323.9,196.6,324,197.3,323.1z"/>
					
						<linearGradient id="SVGID_91_" gradientUnits="userSpaceOnUse" x1="536.2201" y1="247.0629" x2="540.9171" y2="245.0444" gradientTransform="matrix(0.9578 0.2874 0.2874 -0.9578 -393.5541 406.8868)">
						<stop  offset="0" style="stop-color:#DE385D;stop-opacity:0"/>
						<stop  offset="1" style="stop-color:#ED426A"/>
					</linearGradient>
					<path class="st96" d="M194.7,326.9c0.6-1-0.2-2.7-2-3.8c-1.7-1.2-3.7-1.3-4.3-0.3c-0.6,1,0.2,2.7,2,3.8
						C192.1,327.7,194.1,327.9,194.7,326.9z"/>
				</g>
				<g>
					
						<linearGradient id="SVGID_92_" gradientUnits="userSpaceOnUse" x1="531.6688" y1="256.426" x2="537.6851" y2="254.0972" gradientTransform="matrix(0.9578 0.2874 0.2874 -0.9578 -393.5541 406.8868)">
						<stop  offset="0" style="stop-color:#DE385D;stop-opacity:0"/>
						<stop  offset="1" style="stop-color:#ED426A"/>
					</linearGradient>
					<path class="st97" d="M193.6,317c0.6-1-0.2-2.7-2-3.8c-1.7-1.2-3.7-1.3-4.3-0.3c-0.6,1,0.2,2.7,2,3.8
						C191.1,317.9,193,318,193.6,317z"/>
					
						<linearGradient id="SVGID_93_" gradientUnits="userSpaceOnUse" x1="530.6178" y1="251.9271" x2="535.8201" y2="249.8694" gradientTransform="matrix(0.9578 0.2874 0.2874 -0.9578 -393.5541 406.8868)">
						<stop  offset="0" style="stop-color:#DE385D;stop-opacity:0"/>
						<stop  offset="1" style="stop-color:#ED426A"/>
					</linearGradient>
					<path class="st98" d="M191.1,320.9c0.6-1-0.2-2.7-2-3.8c-1.7-1.2-3.7-1.3-4.3-0.3c-0.6,1,0.2,2.7,2,3.8
						C188.5,321.7,190.4,321.8,191.1,320.9z"/>
				</g>
			</g>
			
				<linearGradient id="SVGID_94_" gradientUnits="userSpaceOnUse" x1="333.2014" y1="283.387" x2="342.1792" y2="244.8278" gradientTransform="matrix(0.9967 8.140000e-002 -8.140000e-002 0.9967 25.1878 -25.6839)">
				<stop  offset="0" style="stop-color:#4F8C66"/>
				<stop  offset="1" style="stop-color:#AAE07E"/>
			</linearGradient>
			<path class="st99" d="M331.6,286.1c-1,0.9,2-15.2,6.8-27.6c4.7-12.4,7.8-12.9,8.4-8.5C347.5,254.3,344.9,273.8,331.6,286.1z"/>
			
				<linearGradient id="SVGID_95_" gradientUnits="userSpaceOnUse" x1="333.7465" y1="290.0359" x2="342.7245" y2="251.4757" gradientTransform="matrix(0.9215 -0.3884 0.3884 0.9215 -88.4542 144.516)">
				<stop  offset="0" style="stop-color:#4F8C66"/>
				<stop  offset="1" style="stop-color:#AAE07E"/>
			</linearGradient>
			<path class="st100" d="M330.4,285.3c-0.4,1.2-5.2-14.5-6.8-27.6c-1.5-13.2,0.9-15,3.6-11.5C329.8,249.8,336.5,268.3,330.4,285.3z
				"/>
			
				<linearGradient id="SVGID_96_" gradientUnits="userSpaceOnUse" x1="325.4295" y1="303.0603" x2="331.9691" y2="274.9731" gradientTransform="matrix(0.6214 -0.7835 0.7835 0.6214 -110.9166 350.2952)">
				<stop  offset="0" style="stop-color:#4F8C66"/>
				<stop  offset="1" style="stop-color:#AAE07E"/>
			</linearGradient>
			<path class="st101" d="M329,286.1c0.2,0.9-8.4-7.4-14-15.3c-5.6-7.9-4.7-9.9-1.7-8.6C316.2,263.6,326.9,273.1,329,286.1z"/>
		</g>
	</g>
	<g>
		
			<linearGradient id="SVGID_97_" gradientUnits="userSpaceOnUse" x1="120.0586" y1="334.7735" x2="129.024" y2="296.2676" gradientTransform="matrix(0.9935 -0.1135 0.1135 0.9935 -34.1407 -2.0349)">
			<stop  offset="0" style="stop-color:#4F8C66"/>
			<stop  offset="1" style="stop-color:#AAE07E"/>
		</linearGradient>
		<path class="st102" d="M121,319.6c-0.8,1.1-1-15.3,1.3-28.4c2.2-13.1,5.1-14.1,6.6-10C130.4,285.4,131.6,305,121,319.6z"/>
		
			<linearGradient id="SVGID_98_" gradientUnits="userSpaceOnUse" x1="121.6826" y1="234.039" x2="130.6477" y2="195.5339" gradientTransform="matrix(0.8286 -0.5598 0.5598 0.8286 -112.1626 187.0691)">
			<stop  offset="0" style="stop-color:#4F8C66"/>
			<stop  offset="1" style="stop-color:#AAE07E"/>
		</linearGradient>
		<path class="st103" d="M119,316.2c-0.2,1.3-7.9-13.2-12-25.8c-4.1-12.6-2-14.9,1.3-11.9C111.5,281.6,121.7,298.3,119,316.2z"/>
		
			<linearGradient id="SVGID_99_" gradientUnits="userSpaceOnUse" x1="164.8682" y1="153.3706" x2="171.3984" y2="125.3237" gradientTransform="matrix(0.4575 -0.8892 0.8892 0.4575 -94.224 392.6633)">
			<stop  offset="0" style="stop-color:#4F8C66"/>
			<stop  offset="1" style="stop-color:#AAE07E"/>
		</linearGradient>
		<path class="st104" d="M118.3,318.6c0.3,0.9-9.7-5.6-16.7-12.3c-7-6.6-6.5-8.8-3.4-8C101.4,299.1,113.8,306.3,118.3,318.6z"/>
	</g>
	<g>
		
			<linearGradient id="SVGID_100_" gradientUnits="userSpaceOnUse" x1="446.0532" y1="308.4914" x2="453.7615" y2="275.3845" gradientTransform="matrix(0.9967 8.140000e-002 -8.140000e-002 0.9967 25.1878 -25.6839)">
			<stop  offset="0" style="stop-color:#4F8C66"/>
			<stop  offset="1" style="stop-color:#AAE07E"/>
		</linearGradient>
		<path class="st105" d="M442.4,320c-0.8,0.8,1.8-13.1,5.8-23.7c4.1-10.6,6.7-11.1,7.3-7.3C456,292.7,453.8,309.4,442.4,320z"/>
		
			<linearGradient id="SVGID_101_" gradientUnits="userSpaceOnUse" x1="423.3282" y1="362.4544" x2="431.0365" y2="329.3477" gradientTransform="matrix(0.9215 -0.3884 0.3884 0.9215 -88.4542 144.516)">
			<stop  offset="0" style="stop-color:#4F8C66"/>
			<stop  offset="1" style="stop-color:#AAE07E"/>
		</linearGradient>
		<path class="st106" d="M441.3,316.8c-0.4,1.1-4.5-12.4-5.8-23.7c-1.3-11.3,0.8-12.9,3.1-9.8C440.8,286.3,446.5,302.2,441.3,316.8z
			"/>
		
			<linearGradient id="SVGID_102_" gradientUnits="userSpaceOnUse" x1="368.8102" y1="410.7564" x2="374.425" y2="386.6411" gradientTransform="matrix(0.6214 -0.7835 0.7835 0.6214 -110.9166 350.2952)">
			<stop  offset="0" style="stop-color:#4F8C66"/>
			<stop  offset="1" style="stop-color:#AAE07E"/>
		</linearGradient>
		<path class="st107" d="M440.3,318.7c0.1,0.8-7.2-6.4-12-13.1c-4.8-6.8-4-8.5-1.5-7.3C429.3,299.4,438.5,307.5,440.3,318.7z"/>
	</g>
	<g>
		
			<linearGradient id="SVGID_103_" gradientUnits="userSpaceOnUse" x1="371.0968" y1="332.5733" x2="376.3542" y2="309.9927" gradientTransform="matrix(0.9967 8.140000e-002 -8.140000e-002 0.9967 25.1878 -25.6839)">
			<stop  offset="0" style="stop-color:#4F8C66"/>
			<stop  offset="1" style="stop-color:#AAE07E"/>
		</linearGradient>
		<path class="st108" d="M366.5,337.3c-0.6,0.5,1.2-8.9,4-16.2c2.8-7.3,4.6-7.5,4.9-5C375.8,318.7,374.2,330.1,366.5,337.3z"/>
		
			<linearGradient id="SVGID_104_" gradientUnits="userSpaceOnUse" x1="345.8877" y1="350.6208" x2="351.1451" y2="328.0403" gradientTransform="matrix(0.9215 -0.3884 0.3884 0.9215 -88.4542 144.516)">
			<stop  offset="0" style="stop-color:#4F8C66"/>
			<stop  offset="1" style="stop-color:#AAE07E"/>
		</linearGradient>
		<path class="st109" d="M365.7,335.1c-0.3,0.7-3.1-8.5-4-16.2c-0.9-7.7,0.6-8.8,2.1-6.7C365.3,314.3,369.3,325.1,365.7,335.1z"/>
		
			<linearGradient id="SVGID_105_" gradientUnits="userSpaceOnUse" x1="307.6669" y1="363.2487" x2="311.4963" y2="346.8015" gradientTransform="matrix(0.6214 -0.7835 0.7835 0.6214 -110.9166 350.2952)">
			<stop  offset="0" style="stop-color:#4F8C66"/>
			<stop  offset="1" style="stop-color:#AAE07E"/>
		</linearGradient>
		<path class="st110" d="M365,336.4c0.1,0.6-4.9-4.3-8.2-8.9c-3.3-4.6-2.7-5.8-1-5C357.5,323.3,363.8,328.8,365,336.4z"/>
	</g>
	<g>
		
			<linearGradient id="SVGID_106_" gradientUnits="userSpaceOnUse" x1="421.8344" y1="361.3434" x2="428.7381" y2="331.6918" gradientTransform="matrix(0.9967 8.140000e-002 -8.140000e-002 0.9967 25.1878 -25.6839)">
			<stop  offset="0" style="stop-color:#4F8C66"/>
			<stop  offset="1" style="stop-color:#AAE07E"/>
		</linearGradient>
		<path class="st111" d="M414.2,370.5c-0.7,0.7,1.6-11.7,5.2-21.3c3.6-9.5,6-9.9,6.5-6.5C426.4,346.1,424.4,361,414.2,370.5z"/>
		
			<linearGradient id="SVGID_107_" gradientUnits="userSpaceOnUse" x1="377.4793" y1="398.6093" x2="384.3833" y2="368.9569" gradientTransform="matrix(0.9215 -0.3884 0.3884 0.9215 -88.4542 144.516)">
			<stop  offset="0" style="stop-color:#4F8C66"/>
			<stop  offset="1" style="stop-color:#AAE07E"/>
		</linearGradient>
		<path class="st112" d="M413.2,367.7c-0.3,1-4-11.1-5.2-21.3c-1.2-10.1,0.7-11.6,2.7-8.8C412.7,340.3,417.9,354.5,413.2,367.7z"/>
		
			<linearGradient id="SVGID_108_" gradientUnits="userSpaceOnUse" x1="311.5811" y1="420.4541" x2="316.6099" y2="398.856" gradientTransform="matrix(0.6214 -0.7835 0.7835 0.6214 -110.9166 350.2952)">
			<stop  offset="0" style="stop-color:#4F8C66"/>
			<stop  offset="1" style="stop-color:#AAE07E"/>
		</linearGradient>
		<path class="st113" d="M412.3,369.3c0.1,0.7-6.5-5.7-10.8-11.8c-4.3-6.1-3.6-7.6-1.3-6.6C402.5,352.1,410.7,359.3,412.3,369.3z"/>
	</g>
	<g>
		
			<linearGradient id="SVGID_109_" gradientUnits="userSpaceOnUse" x1="63.3316" y1="354.881" x2="69.8453" y2="326.9047" gradientTransform="matrix(0.9967 8.140000e-002 -8.140000e-002 0.9967 25.1878 -25.6839)">
			<stop  offset="0" style="stop-color:#4F8C66"/>
			<stop  offset="1" style="stop-color:#AAE07E"/>
		</linearGradient>
		<path class="st114" d="M57.5,334.8c-0.7,0.6,1.5-11.1,4.9-20.1c3.4-9,5.6-9.3,6.1-6.2C69,311.7,67.2,325.8,57.5,334.8z"/>
		
			<linearGradient id="SVGID_110_" gradientUnits="userSpaceOnUse" x1="62.5612" y1="227.4364" x2="69.0749" y2="199.4601" gradientTransform="matrix(0.9215 -0.3884 0.3884 0.9215 -88.4542 144.516)">
			<stop  offset="0" style="stop-color:#4F8C66"/>
			<stop  offset="1" style="stop-color:#AAE07E"/>
		</linearGradient>
		<path class="st115" d="M56.6,332.1c-0.3,0.9-3.8-10.5-4.9-20.1c-1.1-9.6,0.7-10.9,2.6-8.3C56.1,306.3,61,319.7,56.6,332.1z"/>
		
			<linearGradient id="SVGID_111_" gradientUnits="userSpaceOnUse" x1="117.866" y1="119.0017" x2="122.6106" y2="98.6241" gradientTransform="matrix(0.6214 -0.7835 0.7835 0.6214 -110.9166 350.2952)">
			<stop  offset="0" style="stop-color:#4F8C66"/>
			<stop  offset="1" style="stop-color:#AAE07E"/>
		</linearGradient>
		<path class="st116" d="M55.8,333.7c0.1,0.7-6.1-5.4-10.2-11.1c-4.1-5.7-3.4-7.2-1.3-6.2C46.5,317.4,54.3,324.2,55.8,333.7z"/>
	</g>
	<g>
		
			<linearGradient id="SVGID_112_" gradientUnits="userSpaceOnUse" x1="127.1341" y1="384.5105" x2="132.3916" y2="361.9299" gradientTransform="matrix(0.9967 8.140000e-002 -8.140000e-002 0.9967 25.1878 -25.6839)">
			<stop  offset="0" style="stop-color:#4F8C66"/>
			<stop  offset="1" style="stop-color:#AAE07E"/>
		</linearGradient>
		<path class="st117" d="M119.1,369.2c-0.6,0.5,1.2-8.9,4-16.2c2.8-7.3,4.6-7.5,4.9-5C128.4,350.6,126.8,362,119.1,369.2z"/>
		
			<linearGradient id="SVGID_113_" gradientUnits="userSpaceOnUse" x1="105.5335" y1="283.94" x2="110.7909" y2="261.3595" gradientTransform="matrix(0.9215 -0.3884 0.3884 0.9215 -88.4542 144.516)">
			<stop  offset="0" style="stop-color:#4F8C66"/>
			<stop  offset="1" style="stop-color:#AAE07E"/>
		</linearGradient>
		<path class="st118" d="M118.3,367c-0.3,0.7-3.1-8.5-4-16.2c-0.9-7.7,0.6-8.8,2.1-6.7C118,346.2,121.9,357,118.3,367z"/>
		
			<linearGradient id="SVGID_114_" gradientUnits="userSpaceOnUse" x1="128.9442" y1="189.2514" x2="132.7736" y2="172.8041" gradientTransform="matrix(0.6214 -0.7835 0.7835 0.6214 -110.9166 350.2952)">
			<stop  offset="0" style="stop-color:#4F8C66"/>
			<stop  offset="1" style="stop-color:#AAE07E"/>
		</linearGradient>
		<path class="st119" d="M117.6,368.3c0.1,0.6-4.9-4.3-8.2-8.9c-3.3-4.6-2.7-5.8-1-5C110.1,355.2,116.4,360.7,117.6,368.3z"/>
	</g>
	<g>
		<linearGradient id="SVGID_115_" gradientUnits="userSpaceOnUse" x1="62.4285" y1="329.2954" x2="62.4285" y2="335.8405">
			<stop  offset="0" style="stop-color:#B0B0B0"/>
			<stop  offset="1" style="stop-color:#696969"/>
		</linearGradient>
		<path class="st120" d="M69.2,333.4c0,1.9-3,2.2-6.8,2.2c-3.8,0-6.8-0.3-6.8-2.2c0-1.9,3-4.6,6.8-4.6
			C66.2,328.8,69.2,331.6,69.2,333.4z"/>
		<linearGradient id="SVGID_116_" gradientUnits="userSpaceOnUse" x1="51.7641" y1="330.1911" x2="51.7641" y2="338.922">
			<stop  offset="0" style="stop-color:#BD6542"/>
			<stop  offset="1" style="stop-color:#7D422C"/>
		</linearGradient>
		<path class="st121" d="M60.8,335.7c0,2.5-4.1,2.9-9.1,2.9c-5,0-9.1-0.4-9.1-2.9c0-2.5,4.1-6.2,9.1-6.2
			C56.8,329.5,60.8,333.2,60.8,335.7z"/>
	</g>
	<g>
		<linearGradient id="SVGID_117_" gradientUnits="userSpaceOnUse" x1="127.0695" y1="364.8794" x2="127.0695" y2="371.4246">
			<stop  offset="0" style="stop-color:#B0B0B0"/>
			<stop  offset="1" style="stop-color:#696969"/>
		</linearGradient>
		<path class="st122" d="M133.9,369c0,1.9-3,2.2-6.8,2.2c-3.8,0-6.8-0.3-6.8-2.2c0-1.9,3-4.6,6.8-4.6
			C130.8,364.4,133.9,367.1,133.9,369z"/>
		<linearGradient id="SVGID_118_" gradientUnits="userSpaceOnUse" x1="116.4053" y1="365.775" x2="116.4053" y2="374.506">
			<stop  offset="0" style="stop-color:#BD6542"/>
			<stop  offset="1" style="stop-color:#7D422C"/>
		</linearGradient>
		<path class="st123" d="M125.5,371.3c0,2.5-4.1,2.9-9.1,2.9s-9.1-0.4-9.1-2.9c0-2.5,4.1-6.2,9.1-6.2S125.5,368.8,125.5,371.3z"/>
	</g>
	<g>
		<linearGradient id="SVGID_119_" gradientUnits="userSpaceOnUse" x1="370.7676" y1="332.9038" x2="370.7676" y2="339.4489">
			<stop  offset="0" style="stop-color:#B0B0B0"/>
			<stop  offset="1" style="stop-color:#696969"/>
		</linearGradient>
		<path class="st124" d="M377.6,337c0,1.9-3,2.2-6.8,2.2c-3.8,0-6.8-0.3-6.8-2.2c0-1.9,3-4.6,6.8-4.6
			C374.5,332.4,377.6,335.2,377.6,337z"/>
		<linearGradient id="SVGID_120_" gradientUnits="userSpaceOnUse" x1="360.103" y1="333.7995" x2="360.103" y2="342.5304">
			<stop  offset="0" style="stop-color:#BD6542"/>
			<stop  offset="1" style="stop-color:#7D422C"/>
		</linearGradient>
		<path class="st125" d="M369.2,339.3c0,2.5-4.1,2.9-9.1,2.9c-5,0-9.1-0.4-9.1-2.9c0-2.5,4.1-6.2,9.1-6.2
			C365.1,333.1,369.2,336.8,369.2,339.3z"/>
	</g>
	<g>
		<linearGradient id="SVGID_121_" gradientUnits="userSpaceOnUse" x1="443.0908" y1="315.9885" x2="443.0908" y2="325.2493">
			<stop  offset="0" style="stop-color:#B0B0B0"/>
			<stop  offset="1" style="stop-color:#696969"/>
		</linearGradient>
		<path class="st126" d="M452.7,321.9c0,2.7-4.3,3-9.6,3c-5.3,0-9.6-0.4-9.6-3c0-2.7,4.3-6.6,9.6-6.6
			C448.4,315.3,452.7,319.2,452.7,321.9z"/>
		<linearGradient id="SVGID_122_" gradientUnits="userSpaceOnUse" x1="428.0024" y1="317.2555" x2="428.0024" y2="329.6086">
			<stop  offset="0" style="stop-color:#BD6542"/>
			<stop  offset="1" style="stop-color:#7D422C"/>
		</linearGradient>
		<path class="st127" d="M440.8,325.1c0,3.5-5.7,4.1-12.8,4.1c-7.1,0-12.8-0.5-12.8-4.1c0-3.5,5.7-8.7,12.8-8.7
			C435.1,316.3,440.8,321.5,440.8,325.1z"/>
	</g>
	<g>
		<path class="st128" d="M162.7,94.2c0-2.4,1.9-4.3,4.4-4.3c2.5,0,4.4,1.8,4.4,4.3s-1.9,4.3-4.4,4.3
			C164.6,98.4,162.7,96.6,162.7,94.2z M170.6,94.2c0-2-1.5-3.5-3.5-3.5c-2,0-3.5,1.5-3.5,3.5s1.5,3.5,3.5,3.5
			C169.1,97.6,170.6,96.2,170.6,94.2z"/>
		<path class="st128" d="M182.2,92v8.6h-0.9v-3.5c-0.5,0.8-1.4,1.2-2.4,1.2c-1.8,0-3.1-1.3-3.1-3.2c0-1.9,1.3-3.2,3.1-3.2
			c1,0,1.9,0.5,2.4,1.3V92H182.2z M181.4,95.2c0-1.5-1-2.5-2.3-2.5c-1.3,0-2.4,1-2.4,2.5c0,1.5,1,2.5,2.4,2.5
			C180.4,97.7,181.4,96.7,181.4,95.2z"/>
		<path class="st128" d="M190.3,92v6.3h-0.8v-1.2c-0.4,0.8-1.3,1.2-2.3,1.2c-1.6,0-2.7-0.9-2.7-2.7V92h0.9v3.6c0,1.3,0.7,2,1.9,2
			c1.3,0,2.1-0.9,2.1-2.3V92H190.3z"/>
		<path class="st128" d="M198.2,95.5h-5.3c0.1,1.3,1.1,2.2,2.5,2.2c0.8,0,1.5-0.3,1.9-0.8l0.5,0.6c-0.6,0.7-1.4,1-2.4,1
			c-2,0-3.3-1.3-3.3-3.2s1.3-3.2,3.1-3.2c1.8,0,3.1,1.3,3.1,3.2C198.2,95.3,198.2,95.4,198.2,95.5z M192.9,94.8h4.5
			c-0.1-1.2-1-2.1-2.2-2.1C193.9,92.7,193,93.6,192.9,94.8z"/>
		<path class="st128" d="M208.4,92l-2.8,6.3h-0.9l-2.8-6.3h0.9l2.4,5.4l2.4-5.4H208.4z"/>
		<path class="st128" d="M208.8,95.2c0-1.9,1.4-3.2,3.2-3.2c1.8,0,3.2,1.3,3.2,3.2s-1.4,3.2-3.2,3.2
			C210.1,98.4,208.8,97.1,208.8,95.2z M214.3,95.2c0-1.5-1-2.5-2.3-2.5s-2.4,1-2.4,2.5s1,2.5,2.4,2.5S214.3,96.7,214.3,95.2z"/>
		<path class="st128" d="M216.3,95.2c0-1.9,1.4-3.2,3.3-3.2c1.1,0,2,0.4,2.5,1.2l-0.6,0.4c-0.4-0.6-1.1-0.9-1.8-0.9
			c-1.4,0-2.4,1-2.4,2.5c0,1.5,1,2.5,2.4,2.5c0.7,0,1.4-0.3,1.8-0.9l0.6,0.4c-0.5,0.8-1.4,1.2-2.5,1.2
			C217.6,98.4,216.3,97.1,216.3,95.2z"/>
		<path class="st128" d="M229.1,95.5h-5.3c0.1,1.3,1.1,2.2,2.5,2.2c0.8,0,1.5-0.3,1.9-0.8l0.5,0.6c-0.6,0.7-1.4,1-2.4,1
			c-2,0-3.3-1.3-3.3-3.2s1.3-3.2,3.1-3.2c1.8,0,3.1,1.3,3.1,3.2C229.1,95.3,229.1,95.4,229.1,95.5z M223.8,94.8h4.5
			c-0.1-1.2-1-2.1-2.2-2.1C224.8,92.7,223.9,93.6,223.8,94.8z M224.8,91.1H224l1.5-1.5h0.9l1.5,1.5h-0.8l-1.2-1L224.8,91.1z"/>
		<path class="st128" d="M239.4,95.5h-5.3c0.1,1.3,1.1,2.2,2.5,2.2c0.8,0,1.5-0.3,1.9-0.8l0.5,0.6c-0.6,0.7-1.4,1-2.4,1
			c-2,0-3.3-1.3-3.3-3.2s1.3-3.2,3.1-3.2c1.8,0,3.1,1.3,3.1,3.2C239.5,95.3,239.4,95.4,239.4,95.5z M234.2,94.8h4.5
			c-0.1-1.2-1-2.1-2.2-2.1C235.2,92.7,234.3,93.6,234.2,94.8z"/>
		<path class="st128" d="M240.3,97.6l0.4-0.7c0.5,0.4,1.4,0.7,2.2,0.7c1.2,0,1.7-0.4,1.7-1c0-1.6-4.1-0.3-4.1-2.8
			c0-1,0.9-1.8,2.5-1.8c0.8,0,1.7,0.2,2.2,0.6l-0.4,0.7c-0.6-0.4-1.2-0.5-1.9-0.5c-1.1,0-1.6,0.4-1.6,1c0,1.7,4.1,0.4,4.1,2.8
			c0,1.1-1,1.8-2.6,1.8C241.8,98.4,240.8,98.1,240.3,97.6z"/>
		<path class="st128" d="M250.4,98c-0.3,0.3-0.8,0.4-1.3,0.4c-1.2,0-1.8-0.7-1.8-1.8v-3.8h-1.1V92h1.1v-1.4h0.9V92h1.9v0.7h-1.9v3.8
			c0,0.7,0.4,1.2,1.1,1.2c0.3,0,0.7-0.1,0.9-0.3L250.4,98z"/>
		<path class="st128" d="M256.7,94.4v3.9h-0.8v-1c-0.4,0.6-1.1,1-2.2,1c-1.4,0-2.3-0.7-2.3-1.8c0-1,0.6-1.8,2.4-1.8h2v-0.4
			c0-1.1-0.6-1.7-1.8-1.7c-0.8,0-1.6,0.3-2.1,0.7l-0.4-0.6c0.6-0.5,1.6-0.9,2.6-0.9C255.8,92,256.7,92.8,256.7,94.4z M255.8,96.5v-1
			h-2c-1.2,0-1.6,0.5-1.6,1.1c0,0.7,0.6,1.2,1.6,1.2C254.8,97.7,255.5,97.3,255.8,96.5z M254.2,91.1h-0.8l1.6-1.5h1.1L254.2,91.1z"
			/>
		<path class="st128" d="M268.6,95.2c0,1.9-1.3,3.2-3.1,3.2c-1,0-1.9-0.4-2.4-1.2v3.5h-0.9V92h0.8v1.2c0.5-0.8,1.4-1.3,2.4-1.3
			C267.2,92,268.6,93.3,268.6,95.2z M267.7,95.2c0-1.5-1-2.5-2.4-2.5c-1.3,0-2.4,1-2.4,2.5c0,1.5,1,2.5,2.4,2.5
			C266.7,97.7,267.7,96.7,267.7,95.2z"/>
		<path class="st128" d="M273.5,92v0.8c-0.1,0-0.1,0-0.2,0c-1.3,0-2.1,0.8-2.1,2.3v3.2h-0.9V92h0.8v1.2
			C271.5,92.4,272.3,92,273.5,92z"/>
		<path class="st128" d="M274.3,95.2c0-1.9,1.4-3.2,3.2-3.2c1.8,0,3.2,1.3,3.2,3.2s-1.4,3.2-3.2,3.2
			C275.7,98.4,274.3,97.1,274.3,95.2z M279.9,95.2c0-1.5-1-2.5-2.3-2.5c-1.3,0-2.4,1-2.4,2.5s1,2.5,2.4,2.5
			C278.9,97.7,279.9,96.7,279.9,95.2z"/>
		<path class="st128" d="M281.8,95.2c0-1.9,1.4-3.2,3.3-3.2c1.1,0,2,0.4,2.5,1.2l-0.6,0.4c-0.4-0.6-1.1-0.9-1.8-0.9
			c-1.4,0-2.4,1-2.4,2.5c0,1.5,1,2.5,2.4,2.5c0.7,0,1.4-0.3,1.8-0.9l0.6,0.4c-0.5,0.8-1.4,1.2-2.5,1.2
			C283.2,98.4,281.8,97.1,281.8,95.2z"/>
		<path class="st128" d="M294.9,92v6.3h-0.8v-1.2c-0.4,0.8-1.3,1.2-2.3,1.2c-1.6,0-2.7-0.9-2.7-2.7V92h0.9v3.6c0,1.3,0.7,2,1.9,2
			c1.3,0,2.1-0.9,2.1-2.3V92H294.9z"/>
		<path class="st128" d="M300.5,92v0.8c-0.1,0-0.1,0-0.2,0c-1.3,0-2.1,0.8-2.1,2.3v3.2h-0.9V92h0.8v1.2
			C298.5,92.4,299.3,92,300.5,92z"/>
		<path class="st128" d="M306.8,94.4v3.9H306v-1c-0.4,0.6-1.1,1-2.2,1c-1.4,0-2.3-0.7-2.3-1.8c0-1,0.6-1.8,2.4-1.8h2v-0.4
			c0-1.1-0.6-1.7-1.8-1.7c-0.8,0-1.6,0.3-2.1,0.7l-0.4-0.6c0.6-0.5,1.6-0.9,2.6-0.9C305.9,92,306.8,92.8,306.8,94.4z M305.9,96.5v-1
			h-2c-1.2,0-1.6,0.5-1.6,1.1c0,0.7,0.6,1.2,1.6,1.2C304.9,97.7,305.6,97.3,305.9,96.5z"/>
		<path class="st128" d="M314.9,94.7v3.7H314v-3.6c0-1.3-0.7-2-1.9-2c-1.4,0-2.2,0.8-2.2,2.3v3.3h-0.9V92h0.8v1.2
			c0.5-0.8,1.3-1.2,2.4-1.2C313.8,92,314.9,92.9,314.9,94.7z"/>
		<path class="st128" d="M323,89.5v8.9h-0.8v-1.2c-0.5,0.9-1.4,1.3-2.4,1.3c-1.8,0-3.1-1.3-3.1-3.2c0-1.9,1.3-3.2,3.1-3.2
			c1,0,1.9,0.4,2.4,1.2v-3.8H323z M322.2,95.2c0-1.5-1-2.5-2.3-2.5c-1.3,0-2.4,1-2.4,2.5s1,2.5,2.4,2.5
			C321.2,97.7,322.2,96.7,322.2,95.2z"/>
		<path class="st128" d="M324.7,95.2c0-1.9,1.4-3.2,3.2-3.2c1.8,0,3.2,1.3,3.2,3.2s-1.4,3.2-3.2,3.2
			C326.1,98.4,324.7,97.1,324.7,95.2z M330.3,95.2c0-1.5-1-2.5-2.3-2.5c-1.3,0-2.4,1-2.4,2.5s1,2.5,2.4,2.5
			C329.3,97.7,330.3,96.7,330.3,95.2z"/>
		<path class="st128" d="M336.2,92.1c0-0.9-0.7-1.5-1.9-1.5c-1,0-1.8,0.3-2.3,1l-0.6-0.5c0.6-0.8,1.6-1.2,3-1.2
			c1.7,0,2.8,0.8,2.8,2.1c0,2.1-2.2,2.1-2.2,3.9H334C334,93.9,336.2,93.7,336.2,92.1z M333.8,97.8c0-0.3,0.3-0.6,0.6-0.6
			c0.4,0,0.6,0.3,0.6,0.6c0,0.3-0.3,0.6-0.6,0.6C334.1,98.4,333.8,98.1,333.8,97.8z"/>
	</g>
	<g>
		<path class="st128" d="M119.4,391.2c0,1.9-1.3,3.2-3.1,3.2c-1,0-1.9-0.4-2.4-1.2v3.5H113V388h0.8v1.2c0.5-0.8,1.4-1.3,2.4-1.3
			C118.1,388,119.4,389.3,119.4,391.2z M118.6,391.2c0-1.5-1-2.5-2.4-2.5c-1.3,0-2.4,1-2.4,2.5c0,1.5,1,2.5,2.4,2.5
			C117.6,393.7,118.6,392.7,118.6,391.2z"/>
		<path class="st128" d="M125.9,390.4v3.9h-0.8v-1c-0.4,0.6-1.1,1-2.2,1c-1.4,0-2.3-0.7-2.3-1.8c0-1,0.6-1.8,2.4-1.8h2v-0.4
			c0-1.1-0.6-1.7-1.8-1.7c-0.8,0-1.6,0.3-2.1,0.7l-0.4-0.6c0.6-0.5,1.6-0.9,2.6-0.9C125,388,125.9,388.8,125.9,390.4z M125,392.5v-1
			h-2c-1.2,0-1.6,0.5-1.6,1.1c0,0.7,0.6,1.2,1.6,1.2C124,393.7,124.7,393.3,125,392.5z"/>
		<path class="st128" d="M131.4,388v0.8c-0.1,0-0.1,0-0.2,0c-1.3,0-2.1,0.8-2.1,2.3v3.2h-0.9V388h0.8v1.2
			C129.4,388.4,130.2,388,131.4,388z"/>
		<path class="st128" d="M137.7,390.4v3.9h-0.8v-1c-0.4,0.6-1.1,1-2.2,1c-1.4,0-2.3-0.7-2.3-1.8c0-1,0.6-1.8,2.4-1.8h2v-0.4
			c0-1.1-0.6-1.7-1.8-1.7c-0.8,0-1.6,0.3-2.1,0.7l-0.4-0.6c0.6-0.5,1.6-0.9,2.6-0.9C136.8,388,137.7,388.8,137.7,390.4z
			 M136.8,392.5v-1h-2c-1.2,0-1.6,0.5-1.6,1.1c0,0.7,0.6,1.2,1.6,1.2C135.8,393.7,136.5,393.3,136.8,392.5z"/>
		<path class="st128" d="M142.3,393.6l0.4-0.7c0.5,0.4,1.4,0.7,2.2,0.7c1.2,0,1.7-0.4,1.7-1c0-1.6-4.1-0.3-4.1-2.8
			c0-1,0.9-1.8,2.5-1.8c0.8,0,1.7,0.2,2.2,0.6l-0.4,0.7c-0.6-0.4-1.2-0.5-1.9-0.5c-1.1,0-1.6,0.4-1.6,1c0,1.7,4.1,0.4,4.1,2.8
			c0,1.1-1,1.8-2.6,1.8C143.8,394.4,142.8,394.1,142.3,393.6z"/>
		<path class="st128" d="M154.7,388v6.3h-0.8v-1.2c-0.4,0.8-1.3,1.2-2.3,1.2c-1.6,0-2.7-0.9-2.7-2.7V388h0.9v3.6c0,1.3,0.7,2,1.9,2
			c1.3,0,2.1-0.9,2.1-2.3V388H154.7z"/>
		<path class="st128" d="M161.9,390.4v3.9H161v-1c-0.4,0.6-1.1,1-2.2,1c-1.4,0-2.3-0.7-2.3-1.8c0-1,0.6-1.8,2.4-1.8h2v-0.4
			c0-1.1-0.6-1.7-1.8-1.7c-0.8,0-1.6,0.3-2.1,0.7l-0.4-0.6c0.6-0.5,1.6-0.9,2.6-0.9C160.9,388,161.9,388.8,161.9,390.4z M161,392.5
			v-1h-2c-1.2,0-1.6,0.5-1.6,1.1c0,0.7,0.6,1.2,1.6,1.2C160,393.7,160.7,393.3,161,392.5z"/>
		<path class="st128" d="M166.4,393.6l0.4-0.7c0.5,0.4,1.4,0.7,2.2,0.7c1.2,0,1.7-0.4,1.7-1c0-1.6-4.1-0.3-4.1-2.8
			c0-1,0.9-1.8,2.5-1.8c0.8,0,1.7,0.2,2.2,0.6l-0.4,0.7c-0.6-0.4-1.2-0.5-1.9-0.5c-1.1,0-1.6,0.4-1.6,1c0,1.7,4.1,0.4,4.1,2.8
			c0,1.1-1,1.8-2.6,1.8C168,394.4,167,394.1,166.4,393.6z"/>
		<path class="st128" d="M178.7,391.5h-5.3c0.1,1.3,1.1,2.2,2.5,2.2c0.8,0,1.5-0.3,1.9-0.8l0.5,0.6c-0.6,0.7-1.4,1-2.4,1
			c-2,0-3.3-1.3-3.3-3.2s1.3-3.2,3.1-3.2c1.8,0,3.1,1.3,3.1,3.2C178.7,391.3,178.7,391.4,178.7,391.5z M173.4,390.8h4.5
			c-0.1-1.2-1-2.1-2.2-2.1C174.4,388.7,173.5,389.6,173.4,390.8z"/>
		<path class="st128" d="M186.3,388v5.5c0,2.2-1.1,3.2-3.2,3.2c-1.2,0-2.3-0.3-2.9-1l0.4-0.6c0.6,0.5,1.5,0.9,2.5,0.9
			c1.6,0,2.3-0.7,2.3-2.3v-0.8c-0.5,0.8-1.4,1.2-2.5,1.2c-1.8,0-3.2-1.3-3.2-3.1c0-1.8,1.4-3,3.2-3c1.1,0,2,0.4,2.5,1.3V388H186.3z
			 M185.4,391c0-1.4-1-2.3-2.4-2.3c-1.4,0-2.4,0.9-2.4,2.3s1,2.3,2.4,2.3C184.4,393.4,185.4,392.4,185.4,391z"/>
		<path class="st128" d="M194.3,388v6.3h-0.8v-1.2c-0.4,0.8-1.3,1.2-2.3,1.2c-1.6,0-2.7-0.9-2.7-2.7V388h0.9v3.6c0,1.3,0.7,2,1.9,2
			c1.3,0,2.1-0.9,2.1-2.3V388H194.3z"/>
		<path class="st128" d="M199.9,388v0.8c-0.1,0-0.1,0-0.2,0c-1.3,0-2.1,0.8-2.1,2.3v3.2h-0.9V388h0.8v1.2
			C197.9,388.4,198.8,388,199.9,388z"/>
		<path class="st128" d="M206.2,390.4v3.9h-0.8v-1c-0.4,0.6-1.1,1-2.2,1c-1.4,0-2.3-0.7-2.3-1.8c0-1,0.6-1.8,2.4-1.8h2v-0.4
			c0-1.1-0.6-1.7-1.8-1.7c-0.8,0-1.6,0.3-2.1,0.7l-0.4-0.6c0.6-0.5,1.6-0.9,2.6-0.9C205.3,388,206.2,388.8,206.2,390.4z
			 M205.4,392.5v-1h-2c-1.2,0-1.6,0.5-1.6,1.1c0,0.7,0.6,1.2,1.6,1.2C204.3,393.7,205,393.3,205.4,392.5z"/>
		<path class="st128" d="M214.3,390.7v3.7h-0.9v-3.6c0-1.3-0.7-2-1.9-2c-1.4,0-2.2,0.8-2.2,2.3v3.3h-0.9V388h0.8v1.2
			c0.5-0.8,1.3-1.2,2.4-1.2C213.3,388,214.3,388.9,214.3,390.7z"/>
		<path class="st128" d="M221.1,392.7l0.6,0.4c-0.5,0.8-1.4,1.2-2.5,1.2h0l-0.1,0.6c0.7,0.1,1,0.4,1,1c0,0.6-0.6,1-1.4,1
			c-0.4,0-0.7-0.1-1-0.3l0.2-0.5c0.2,0.2,0.5,0.2,0.8,0.2c0.5,0,0.7-0.2,0.7-0.6c0-0.3-0.2-0.6-0.7-0.6h-0.3l0.3-1
			c-1.6-0.2-2.7-1.5-2.7-3.2c0-1.9,1.4-3.2,3.3-3.2c1.1,0,2,0.4,2.5,1.2l-0.6,0.4c-0.4-0.6-1.1-0.9-1.8-0.9c-1.4,0-2.4,1-2.4,2.5
			c0,1.5,1,2.5,2.4,2.5C220,393.7,220.7,393.4,221.1,392.7z"/>
		<path class="st128" d="M228.2,390.4v3.9h-0.8v-1c-0.4,0.6-1.1,1-2.2,1c-1.4,0-2.3-0.7-2.3-1.8c0-1,0.6-1.8,2.4-1.8h2v-0.4
			c0-1.1-0.6-1.7-1.8-1.7c-0.8,0-1.6,0.3-2.1,0.7l-0.4-0.6c0.6-0.5,1.6-0.9,2.6-0.9C227.3,388,228.2,388.8,228.2,390.4z
			 M227.3,392.5v-1h-2c-1.2,0-1.6,0.5-1.6,1.1c0,0.7,0.6,1.2,1.6,1.2C226.3,393.7,227,393.3,227.3,392.5z"/>
		<path class="st128" d="M231.2,393.8c0,0.2,0,0.4-0.2,0.7l-0.5,1.7H230l0.4-1.7c-0.3-0.1-0.4-0.3-0.4-0.6c0-0.4,0.3-0.6,0.6-0.6
			C231,393.1,231.2,393.4,231.2,393.8z"/>
		<path class="st128" d="M242.6,391.2c0,1.9-1.3,3.2-3.1,3.2c-1,0-1.9-0.4-2.4-1.2v3.5h-0.9V388h0.8v1.2c0.5-0.8,1.4-1.3,2.4-1.3
			C241.2,388,242.6,389.3,242.6,391.2z M241.7,391.2c0-1.5-1-2.5-2.4-2.5c-1.3,0-2.4,1-2.4,2.5c0,1.5,1,2.5,2.4,2.5
			C240.7,393.7,241.7,392.7,241.7,391.2z"/>
		<path class="st128" d="M243.7,391.2c0-1.9,1.4-3.2,3.2-3.2c1.8,0,3.2,1.3,3.2,3.2s-1.4,3.2-3.2,3.2
			C245.1,394.4,243.7,393.1,243.7,391.2z M249.2,391.2c0-1.5-1-2.5-2.3-2.5s-2.4,1-2.4,2.5s1,2.5,2.4,2.5S249.2,392.7,249.2,391.2z"
			/>
		<path class="st128" d="M255,388v0.8c-0.1,0-0.1,0-0.2,0c-1.3,0-2.1,0.8-2.1,2.3v3.2h-0.9V388h0.8v1.2
			C253.1,388.4,253.9,388,255,388z"/>
		<path class="st128" d="M260.8,387.3v0.7h1.9v0.7h-1.9v5.6H260v-5.6h-1.1V388h1.1v-0.8c0-1.1,0.7-1.9,1.9-1.9
			c0.5,0,0.9,0.1,1.3,0.4l-0.3,0.6c-0.2-0.2-0.6-0.3-0.9-0.3C261.2,386.1,260.8,386.5,260.8,387.3z"/>
		<path class="st128" d="M268.5,390.4v3.9h-0.8v-1c-0.4,0.6-1.1,1-2.2,1c-1.4,0-2.3-0.7-2.3-1.8c0-1,0.6-1.8,2.4-1.8h2v-0.4
			c0-1.1-0.6-1.7-1.8-1.7c-0.8,0-1.6,0.3-2.1,0.7l-0.4-0.6c0.6-0.5,1.6-0.9,2.6-0.9C267.6,388,268.5,388.8,268.5,390.4z
			 M267.7,392.5v-1h-2c-1.2,0-1.6,0.5-1.6,1.1c0,0.7,0.6,1.2,1.6,1.2C266.6,393.7,267.3,393.3,267.7,392.5z"/>
		<path class="st128" d="M276,388l-2.8,6.3h-0.9l-2.8-6.3h0.9l2.4,5.4l2.4-5.4H276z"/>
		<path class="st128" d="M276.4,391.2c0-1.9,1.4-3.2,3.2-3.2c1.8,0,3.2,1.3,3.2,3.2s-1.4,3.2-3.2,3.2
			C277.8,394.4,276.4,393.1,276.4,391.2z M282,391.2c0-1.5-1-2.5-2.3-2.5c-1.3,0-2.4,1-2.4,2.5s1,2.5,2.4,2.5
			C281,393.7,282,392.7,282,391.2z"/>
		<path class="st128" d="M287.7,388v0.8c-0.1,0-0.1,0-0.2,0c-1.3,0-2.1,0.8-2.1,2.3v3.2h-0.9V388h0.8v1.2
			C285.8,388.4,286.6,388,287.7,388z"/>
		<path class="st128" d="M290,393.8c0,0.2,0,0.4-0.2,0.7l-0.5,1.7h-0.6l0.4-1.7c-0.3-0.1-0.4-0.3-0.4-0.6c0-0.4,0.3-0.6,0.6-0.6
			C289.7,393.1,290,393.4,290,393.8z"/>
		<path class="st128" d="M300.2,388l-2.8,6.3h-0.9l-2.8-6.3h0.9l2.4,5.4l2.4-5.4H300.2z"/>
		<path class="st128" d="M300.6,391.2c0-1.9,1.4-3.2,3.2-3.2c1.8,0,3.2,1.3,3.2,3.2s-1.4,3.2-3.2,3.2
			C302,394.4,300.6,393.1,300.6,391.2z M306.2,391.2c0-1.5-1-2.5-2.3-2.5c-1.3,0-2.4,1-2.4,2.5s1,2.5,2.4,2.5
			C305.2,393.7,306.2,392.7,306.2,391.2z"/>
		<path class="st128" d="M308.8,385.5h0.9v8.9h-0.9V385.5z"/>
		<path class="st128" d="M315.4,394c-0.3,0.3-0.8,0.4-1.3,0.4c-1.2,0-1.8-0.7-1.8-1.8v-3.8h-1.1V388h1.1v-1.4h0.9v1.4h1.9v0.7H313
			v3.8c0,0.7,0.4,1.2,1.1,1.2c0.3,0,0.7-0.1,0.9-0.3L315.4,394z"/>
		<path class="st128" d="M322.2,391.5h-5.3c0.1,1.3,1.1,2.2,2.5,2.2c0.8,0,1.5-0.3,1.9-0.8l0.5,0.6c-0.6,0.7-1.4,1-2.4,1
			c-2,0-3.3-1.3-3.3-3.2s1.3-3.2,3.1-3.2c1.8,0,3.1,1.3,3.1,3.2C322.2,391.3,322.2,391.4,322.2,391.5z M316.9,390.8h4.5
			c-0.1-1.2-1-2.1-2.2-2.1C317.9,388.7,317,389.6,316.9,390.8z"/>
		<path class="st128" d="M333.5,391.2c0,1.9-1.3,3.2-3.1,3.2c-1,0-1.9-0.4-2.4-1.2v3.5h-0.9V388h0.8v1.2c0.5-0.8,1.4-1.3,2.4-1.3
			C332.1,388,333.5,389.3,333.5,391.2z M332.6,391.2c0-1.5-1-2.5-2.4-2.5c-1.3,0-2.4,1-2.4,2.5c0,1.5,1,2.5,2.4,2.5
			C331.6,393.7,332.6,392.7,332.6,391.2z"/>
		<path class="st128" d="M339.9,390.4v3.9h-0.8v-1c-0.4,0.6-1.1,1-2.2,1c-1.4,0-2.3-0.7-2.3-1.8c0-1,0.6-1.8,2.4-1.8h2v-0.4
			c0-1.1-0.6-1.7-1.8-1.7c-0.8,0-1.6,0.3-2.1,0.7l-0.4-0.6c0.6-0.5,1.6-0.9,2.6-0.9C339,388,339.9,388.8,339.9,390.4z M339.1,392.5
			v-1h-2c-1.2,0-1.6,0.5-1.6,1.1c0,0.7,0.6,1.2,1.6,1.2C338,393.7,338.8,393.3,339.1,392.5z"/>
		<path class="st128" d="M345.4,388v0.8c-0.1,0-0.1,0-0.2,0c-1.3,0-2.1,0.8-2.1,2.3v3.2h-0.9V388h0.8v1.2
			C343.5,388.4,344.3,388,345.4,388z"/>
		<path class="st128" d="M351.7,390.4v3.9h-0.8v-1c-0.4,0.6-1.1,1-2.2,1c-1.4,0-2.3-0.7-2.3-1.8c0-1,0.6-1.8,2.4-1.8h2v-0.4
			c0-1.1-0.6-1.7-1.8-1.7c-0.8,0-1.6,0.3-2.1,0.7l-0.4-0.6c0.6-0.5,1.6-0.9,2.6-0.9C350.8,388,351.7,388.8,351.7,390.4z
			 M350.9,392.5v-1h-2c-1.2,0-1.6,0.5-1.6,1.1c0,0.7,0.6,1.2,1.6,1.2C349.8,393.7,350.5,393.3,350.9,392.5z"/>
		<path class="st128" d="M362,390.4v3.9h-0.8v-1c-0.4,0.6-1.1,1-2.2,1c-1.4,0-2.3-0.7-2.3-1.8c0-1,0.6-1.8,2.4-1.8h2v-0.4
			c0-1.1-0.6-1.7-1.8-1.7c-0.8,0-1.6,0.3-2.1,0.7l-0.4-0.6c0.6-0.5,1.6-0.9,2.6-0.9C361,388,362,388.8,362,390.4z M361.1,392.5v-1
			h-2c-1.2,0-1.6,0.5-1.6,1.1c0,0.7,0.6,1.2,1.6,1.2C360.1,393.7,360.8,393.3,361.1,392.5z"/>
		<path class="st128" d="M367.6,394c-0.3,0.3-0.8,0.4-1.3,0.4c-1.2,0-1.8-0.7-1.8-1.8v-3.8h-1.1V388h1.1v-1.4h0.9v1.4h1.9v0.7h-1.9
			v3.8c0,0.7,0.4,1.2,1.1,1.2c0.3,0,0.7-0.1,0.9-0.3L367.6,394z"/>
		<path class="st128" d="M372.3,388v0.8c-0.1,0-0.1,0-0.2,0c-1.3,0-2.1,0.8-2.1,2.3v3.2h-0.9V388h0.8v1.2
			C370.4,388.4,371.2,388,372.3,388z"/>
		<path class="st128" d="M378.6,390.4v3.9h-0.8v-1c-0.4,0.6-1.1,1-2.2,1c-1.4,0-2.3-0.7-2.3-1.8c0-1,0.6-1.8,2.4-1.8h2v-0.4
			c0-1.1-0.6-1.7-1.8-1.7c-0.8,0-1.6,0.3-2.1,0.7l-0.4-0.6c0.6-0.5,1.6-0.9,2.6-0.9C377.7,388,378.6,388.8,378.6,390.4z
			 M377.8,392.5v-1h-2c-1.2,0-1.6,0.5-1.6,1.1c0,0.7,0.6,1.2,1.6,1.2C376.7,393.7,377.4,393.3,377.8,392.5z M376.1,387.1h-0.8
			l1.6-1.5h1.1L376.1,387.1z"/>
		<path class="st128" d="M380,393.6l0.4-0.7c0.5,0.4,1.4,0.7,2.2,0.7c1.2,0,1.7-0.4,1.7-1c0-1.6-4.1-0.3-4.1-2.8
			c0-1,0.9-1.8,2.5-1.8c0.8,0,1.7,0.2,2.2,0.6l-0.4,0.7c-0.6-0.4-1.2-0.5-1.9-0.5c-1.1,0-1.6,0.4-1.6,1c0,1.7,4.1,0.4,4.1,2.8
			c0,1.1-1,1.8-2.6,1.8C381.6,394.4,380.6,394.1,380,393.6z"/>
		<path class="st128" d="M386.2,393.8c0-0.4,0.3-0.6,0.6-0.6s0.6,0.3,0.6,0.6s-0.3,0.7-0.6,0.7S386.2,394.1,386.2,393.8z"/>
	</g>
</g>
<g id="DESIGNED_BY_FREEPIK">
</g>
</svg>
