<?xml version="1.0" encoding="utf-8"?>
<!-- Generator: Adobe Illustrator 19.0.0, SVG Export Plug-In . SVG Version: 6.00 Build 0)  -->
<svg version="1.1" id="Layer_1" xmlns="http://www.w3.org/2000/svg" xmlns:xlink="http://www.w3.org/1999/xlink" x="0px" y="0px"
	 viewBox="72 -47.5 743 395.5" style="enable-background:new 72 -47.5 743 395.5;" xml:space="preserve">
<style type="text/css">
	.st0{fill:none;stroke:#E7E3E4;stroke-width:3;stroke-linecap:round;stroke-linejoin:round;stroke-miterlimit:10;}
	.st1{fill:none;stroke:#E7E3E4;stroke-width:5;stroke-linecap:round;stroke-linejoin:round;stroke-miterlimit:10;}
	.st2{fill:#DADDEA;}
	.st3{fill:#CDD0E0;}
	.st4{enable-background:new    ;}
	.st5{fill:#EDEDEF;}
	.st6{fill:#BCBCBC;}
	.st7{fill:#EAEAEA;}
	.st8{fill:#FAFAFA;stroke:#87747E;stroke-width:3;stroke-linecap:round;stroke-linejoin:round;stroke-miterlimit:10;}
	.st9{fill:none;stroke:#87747E;stroke-width:3;stroke-linecap:round;stroke-linejoin:round;stroke-miterlimit:10;}
	.st10{fill:#A01503;}
	.st11{fill:#665760;stroke:#87747E;stroke-width:3;stroke-linecap:round;stroke-linejoin:round;stroke-miterlimit:10;}
	.st12{fill:#FFFFFF;}
	.st13{fill:#00064B;}
	.st14{fill:url(#SVGID_1_);}
	.st15{fill:url(#SVGID_2_);}
	.st16{fill:url(#SVGID_3_);}
	.st17{fill:#7D93FF;}
	.st18{fill:#00053E;}
	.st19{fill:#684D99;}
	.st20{fill:#866EAE;}
	.st21{fill:#A692C5;}
	.st22{fill:#1D1D1B;}
</style>
<g id="Camada_2">
	<g id="XMLID_11_">
		<line id="XMLID_92_" class="st0" x1="140.2" y1="119.9" x2="59.2" y2="119.9"/>
		<line id="XMLID_95_" class="st0" x1="40.1" y1="132.7" x2="19.2" y2="132.7"/>
		<line id="XMLID_99_" class="st0" x1="734.4" y1="-4.1" x2="700.7" y2="-4.1"/>
		<line id="XMLID_102_" class="st0" x1="631.8" y1="45" x2="598.1" y2="45"/>
		<line id="XMLID_107_" class="st0" x1="659.4" y1="55.8" x2="648.4" y2="55.8"/>
		<line id="XMLID_108_" class="st0" x1="693.9" y1="55.8" x2="682.9" y2="55.8"/>
		<line id="XMLID_111_" class="st0" x1="299.4" y1="4" x2="288.4" y2="4"/>
		<line id="XMLID_114_" class="st0" x1="332.9" y1="4" x2="321.9" y2="4"/>
		<g id="XMLID_55_">
			<line id="XMLID_75_" class="st0" x1="36.8" y1="93.7" x2="61.8" y2="93.7"/>
			<path id="XMLID_76_" class="st0" d="M61.8,93.7c0-5.1,5.1-9.2,11.3-9.2c1.8,0,3.5,0.4,5.1,1c1.6-6.8,9-12,17.9-12
				c1.1,0,2.2,0.1,3.3,0.3c-0.1-0.9-0.2-1.8-0.2-2.8c0-12.4,10.2-22.9,24.1-26.4c0-0.3,0-0.6,0-0.9c0-10.5,10.5-19,23.5-19
				c2.2,0,4.3,0.2,6.3,0.7c0-0.2,0-0.5,0-0.7c0-10.5,10.5-19,23.5-19s23.5,8.5,23.5,19c0,0.3,0,0.6,0,0.9c9.4,2.5,16.3,9.6,16.3,18
				c0,0.3,0,0.6,0,0.9c12.2,3,21.4,11.3,23.6,21.6c0.2,0,0.3,0,0.5,0c6.1,0,11.1,3.9,11.3,8.9c4.9,2,8.4,5.7,9.6,10.1l0.5,0.2
				c1.4-0.5,3-0.8,4.7-0.8c6.3,0,11.3,4.1,11.3,9.2h93.7"/>
		</g>
		<g id="XMLID_87_">
			<line id="XMLID_91_" class="st0" x1="645.7" y1="132.1" x2="670.8" y2="132.1"/>
			<path id="XMLID_90_" class="st0" d="M670.8,132.1c0-5.1,5.1-9.2,11.3-9.2c1.8,0,3.5,0.4,5.1,1c1.6-6.8,9-12,17.9-12
				c1.1,0,2.2,0.1,3.3,0.3c-0.1-0.9-0.2-1.8-0.2-2.8c0-12.4,10.2-22.9,24.1-26.4c0-0.3,0-0.6,0-0.9c0-10.5,10.5-19,23.5-19
				c2.2,0,4.3,0.2,6.3,0.7c0-0.2,0-0.5,0-0.7c0-10.5,10.5-19,23.5-19s23.5,8.5,23.5,19c0,0.3,0,0.6,0,0.9c9.4,2.5,16.3,9.6,16.3,18
				c0,0.3,0,0.6,0,0.9c12.2,3,21.4,11.3,23.6,21.6c0.2,0,0.3,0,0.5,0c6.1,0,11.1,3.9,11.3,8.9c4.9,2,8.4,5.7,9.6,10.1l0.5,0.2
				c1.4-0.5,3-0.8,4.7-0.8c6.3,0,11.3,4.1,11.3,9.2h93.7"/>
		</g>
		<path id="XMLID_96_" class="st0" d="M598.1,45c0-4.4-4.4-8-9.9-8c-3.3,0-6.2,1.3-8,3.3c-2-3.1-6-5.2-10.6-5.2
			c-0.8,0-1.6,0.1-2.4,0.2c-0.5-6.7-5.5-12.3-12.6-15.1c-0.2-4.3-4.6-7.7-9.9-7.7c-1.6,0-3,0.3-4.3,0.8c-1.9-1.9-4.8-3.2-8-3.2
			c-1.6,0-3.1,0.3-4.5,0.8c0.5-1,0.8-2.1,0.8-3.2c0-4.5-4.6-8.2-10.2-8.2c-1.2,0-2.3,0.2-3.3,0.4c-1.6-4.6-6.4-8.1-12.4-8.9
			c-0.8-3.8-4.9-6.7-9.8-6.7c-5.5,0-9.9,3.6-9.9,8c0,0.1,0,0.1,0,0.2c-3.5,1.6-6.1,4.3-7.2,7.4c-1-0.3-2.1-0.4-3.3-0.4
			c-5.6,0-10.2,3.7-10.2,8.2c0,1.1,0.3,2.2,0.8,3.2c-1.3-0.5-2.9-0.8-4.5-0.8c-5.6,0-10.2,3.7-10.2,8.2c0,0,0,0.1,0,0.1
			c-0.7-0.1-1.4-0.1-2.2-0.1c-11.9,0-21.7,7.5-22.5,17c-0.8-0.1-1.6-0.2-2.4-0.2c-6.6,0-11.9,4.3-11.9,9.6"/>
		<path id="XMLID_97_" class="st0" d="M69,16.3c0-3-3-5.4-6.7-5.4c-2.2,0-4.2,0.9-5.4,2.2c-1.3-2.1-4-3.5-7.1-3.5
			c-0.6,0-1.1,0-1.6,0.1c-0.4-4.5-3.7-8.3-8.5-10.2c-0.1-2.9-3.1-5.2-6.7-5.2c-1,0-2,0.2-2.9,0.5c-1.3-1.3-3.2-2.1-5.4-2.1
			c-1.1,0-2.1,0.2-3,0.6C22-7.3,22.2-8,22.2-8.8c0-3.1-3.1-5.5-6.9-5.5c-0.8,0-1.5,0.1-2.2,0.3c-1.1-3.1-4.3-5.5-8.4-6
			c-0.5-2.6-3.3-4.5-6.6-4.5c-3.7,0-6.7,2.4-6.7,5.4c0,0.1,0,0.1,0,0.2c-2.3,1.1-4.1,2.9-4.9,5c-0.7-0.2-1.4-0.3-2.2-0.3
			c-3.8,0-6.9,2.5-6.9,5.5c0,0.8,0.2,1.5,0.5,2.1c-0.9-0.4-1.9-0.6-3-0.6c-3.8,0-6.9,2.5-6.9,5.5c0,0,0,0,0,0.1
			c-0.5,0-1-0.1-1.5-0.1c-8,0-14.6,5.1-15.2,11.4c-0.5-0.1-1.1-0.1-1.6-0.1c-4.4,0-8,2.9-8,6.5"/>
		<path id="XMLID_98_" class="st0" d="M861.5-4.1c0-3-3-5.4-6.7-5.4c-2.2,0-4.2,0.9-5.4,2.2c-1.3-2.1-4-3.5-7.1-3.5
			c-0.6,0-1.1,0-1.6,0.1c-0.4-4.5-3.7-8.3-8.5-10.2c-0.1-2.9-3.1-5.2-6.7-5.2c-1,0-2,0.2-2.9,0.5c-1.3-1.3-3.2-2.1-5.4-2.1
			c-1.1,0-2.1,0.2-3,0.6c0.3-0.7,0.5-1.4,0.5-2.1c0-3.1-3.1-5.5-6.9-5.5c-0.8,0-1.5,0.1-2.2,0.3c-1.1-3.1-4.3-5.5-8.4-6
			c-0.5-2.6-3.3-4.5-6.6-4.5c-3.7,0-6.7,2.4-6.7,5.4c0,0.1,0,0.1,0,0.2c-2.3,1.1-4.1,2.9-4.9,5c-0.7-0.2-1.4-0.3-2.2-0.3
			c-3.8,0-6.9,2.5-6.9,5.5c0,0.8,0.2,1.5,0.5,2.1c-0.9-0.4-1.9-0.6-3-0.6c-3.8,0-6.9,2.5-6.9,5.5c0,0,0,0,0,0.1
			c-0.5,0-1-0.1-1.5-0.1c-8,0-14.6,5.1-15.2,11.4c-0.5-0.1-1.1-0.1-1.6-0.1c-4.4,0-8,2.9-8,6.5"/>
		<line id="XMLID_1_" class="st1" x1="325.1" y1="-20.3" x2="308.1" y2="-20.3"/>
	</g>
</g>
<g id="Workspace4">
	<g>
		<g>
			<g>
				<g>
					<rect x="254.1" y="17.5" class="st2" width="105.4" height="99.7"/>
					<path class="st3" d="M360.8,118.4h-108V16.3h107.9L360.8,118.4L360.8,118.4z M255.3,116h102.9V18.8H255.3V116z"/>
				</g>
				<g>
					<path class="st2" d="M360.4,118.4H253.2V16.3h107.1v102.1H360.4z M254.9,116h103.7V18.8H254.9V116z"/>
					<path class="st3" d="M361.6,119.7H252V15h109.6V119.7z M256.1,114.7h101.2V20H256.1V114.7z M254.5,17.5h104.7H254.5z"/>
				</g>
			</g>
			<g class="st4">
				<path class="st5" d="M294.6,69.6h-9.5v13.9c0,0.7-0.2,1.2-0.7,1.7s-1.1,0.7-1.7,0.7s-1.2-0.2-1.7-0.7s-0.7-1.1-0.7-1.7V50.8
					c0-0.7,0.2-1.2,0.7-1.7s1.1-0.7,1.7-0.7h12c3,0,5.5,1.1,7.6,3.2s3.2,4.6,3.2,7.6s-1.1,5.5-3.2,7.6
					C300.1,68.6,297.5,69.6,294.6,69.6z M294.6,53.2h-9.5v11.3h9.5c1.6,0,2.9-0.6,4-1.7s1.7-2.4,1.7-4s-0.6-2.9-1.7-4
					C297.5,53.8,296.1,53.2,294.6,53.2z"/>
				<path class="st5" d="M315.3,83.5c0,0.7-0.2,1.2-0.7,1.7s-1.1,0.7-1.7,0.7s-1.2-0.2-1.7-0.7s-0.7-1.1-0.7-1.7V50.8
					c0-0.7,0.2-1.2,0.7-1.7s1.1-0.7,1.7-0.7H333c0.7,0,1.2,0.2,1.7,0.7s0.7,1.1,0.7,1.7s-0.2,1.2-0.7,1.7s-1.1,0.7-1.7,0.7h-17.6
					v11.3h15.1c0.7,0,1.2,0.2,1.7,0.7s0.7,1.1,0.7,1.7c0,0.7-0.2,1.2-0.7,1.7s-1.1,0.7-1.7,0.7h-15.1L315.3,83.5L315.3,83.5z"/>
			</g>
		</g>
		<circle class="st3" cx="306.8" cy="-20.3" r="4.2"/>
		<g>
			
				<rect x="292.7" y="-24.5" transform="matrix(0.8118 0.5839 -0.5839 0.8118 53.8737 -172.126)" class="st3" width="2.5" height="44"/>
		</g>
		<g>
			
				<rect x="296.9" y="-3.8" transform="matrix(0.5837 0.812 -0.812 0.5837 130.6591 -259.9977)" class="st3" width="44" height="2.5"/>
		</g>
	</g>
	<g>
		<ellipse class="st6" cx="464.1" cy="301.5" rx="249" ry="19"/>
		<ellipse class="st7" cx="464.8" cy="299" rx="249" ry="19"/>
	</g>
	<g>
		<g id="XMLID_213_">
			<rect id="XMLID_152_" x="660.4" y="185.8" class="st8" width="84" height="50.2"/>
			<g id="XMLID_199_">
				<line id="XMLID_203_" class="st9" x1="669.1" y1="183.2" x2="669.1" y2="188.3"/>
				<line id="XMLID_204_" class="st9" x1="677.4" y1="183.2" x2="677.4" y2="188.3"/>
				<line id="XMLID_205_" class="st9" x1="685.8" y1="183.2" x2="685.8" y2="188.3"/>
				<line id="XMLID_206_" class="st9" x1="694.1" y1="183.2" x2="694.1" y2="188.3"/>
				<line id="XMLID_207_" class="st9" x1="702.5" y1="183.2" x2="702.5" y2="188.3"/>
				<line id="XMLID_208_" class="st9" x1="710.8" y1="183.2" x2="710.8" y2="188.3"/>
				<line id="XMLID_209_" class="st9" x1="719.2" y1="183.2" x2="719.2" y2="188.3"/>
				<line id="XMLID_210_" class="st9" x1="727.5" y1="183.2" x2="727.5" y2="188.3"/>
				<line id="XMLID_211_" class="st9" x1="735.8" y1="183.2" x2="735.8" y2="188.3"/>
			</g>
			<g>
				<path class="st10" d="M666.7,215.9l1.6-1.9c0.6,0.7,1.1,1.1,1.8,1.1c0.9,0,1.3-0.5,1.3-1.5V209h-3.6v-2.3h6.6v6.6
					c0,2.7-1.4,4.1-4,4.1C668.9,217.5,667.6,216.9,666.7,215.9z"/>
				<path class="st10" d="M683.3,215.2h-4.4l-0.8,2h-3l4.6-10.5h2.9l4.6,10.5h-3.1L683.3,215.2z M682.4,213l-1.3-3.4l-1.4,3.4H682.4
					z"/>
				<path class="st10" d="M698,206.7v10.5h-2.4l-4.6-5.6v5.6H688v-10.5h2.4l4.6,5.6v-5.6H698z"/>
				<path class="st10" d="M708.5,214.9v2.3h-8.4v-10.5h8.2v2.3H703v1.8h4.7v2.2H703v1.9H708.5z"/>
				<path class="st10" d="M710.2,206.7h3v10.5h-3V206.7z"/>
				<path class="st10" d="M719.9,214.5h-1.6v2.8h-3v-10.5h4.8c2.9,0,4.7,1.5,4.7,3.9c0,1.5-0.8,2.7-2.1,3.3l2.3,3.3h-3.2
					L719.9,214.5z M719.9,209.1h-1.7v3.1h1.7c1.2,0,1.8-0.6,1.8-1.5C721.7,209.7,721.1,209.1,719.9,209.1z"/>
				<path class="st10" d="M725.8,212c0-3.1,2.5-5.5,5.8-5.5c3.4,0,5.8,2.3,5.8,5.5c0,3.2-2.5,5.5-5.8,5.5
					C728.3,217.5,725.8,215.1,725.8,212z M734.5,212c0-1.8-1.2-3-2.8-3s-2.8,1.2-2.8,3c0,1.8,1.2,3,2.8,3S734.5,213.8,734.5,212z"/>
			</g>
			<polygon id="XMLID_214_" class="st11" points="744.5,191.5 756.3,236 744.5,236 			"/>
		</g>
	</g>
	<g>
		<g>
			<g>
				<polygon class="st12" points="255.7,302.8 240.8,302.8 238.3,247.9 258.2,247.9 				"/>
				<path class="st3" d="M257,304h-17.4l-2.6-57.3h22.5L257,304z M242,301.5h12.5l2.4-52.3h-17.4L242,301.5z"/>
			</g>
			<polygon class="st3" points="238.3,250.4 239.3,272 257.2,272 258.2,250.4 			"/>
		</g>
		<g>
			<g>
				<polygon class="st12" points="693.4,302.8 678.5,302.8 676,247.9 695.9,247.9 				"/>
				<path class="st3" d="M694.7,304h-17.4l-2.6-57.3h22.5L694.7,304z M679.7,301.5h12.5l2.4-52.3h-17.4L679.7,301.5z"/>
			</g>
			<polygon class="st3" points="676,250.4 677,272 694.9,272 695.9,250.4 			"/>
		</g>
		<g>
			<rect x="159.8" y="237.1" class="st12" width="614.6" height="21.6"/>
			<path class="st3" d="M775.7,260H158.5v-24.1h617.1V260H775.7z M161,257.5h612.1v-19.1H161V257.5z"/>
		</g>
	</g>
	<g>
		<path class="st13" d="M600.8,211.4c0,9.1-7.5,16.6-16.6,16.6H350c-9.1,0-16.6-7.5-16.6-16.6V71.8c0-9.1,7.5-16.6,16.6-16.6h234.2
			c9.1,0,16.6,7.5,16.6,16.6V211.4z"/>
		<path class="st3" d="M584.2,229.2H350c-9.9,0-17.9-8-17.9-17.9V71.8c0-9.9,8-17.9,17.9-17.9h234.2c9.9,0,17.9,8,17.9,17.9v139.5
			C602.1,221.3,594.1,229.2,584.2,229.2z M350,56.5c-8.5,0-15.4,6.9-15.4,15.4v139.5c0,8.5,6.9,15.4,15.4,15.4h234.2
			c8.5,0,15.4-6.9,15.4-15.4V71.8c0-8.5-6.9-15.4-15.4-15.4H350V56.5z"/>
	</g>
	
		<linearGradient id="SVGID_1_" gradientUnits="userSpaceOnUse" x1="372.05" y1="-267.65" x2="562.15" y2="-457.75" gradientTransform="matrix(1 0 0 1 0 502)">
		<stop  offset="0" style="stop-color:#69CEF4"/>
		<stop  offset="1" style="stop-color:#7379BA"/>
	</linearGradient>
	<rect x="345" y="71.3" class="st14" width="244.2" height="136"/>
	
		<linearGradient id="SVGID_2_" gradientUnits="userSpaceOnUse" x1="447.0446" y1="-461.8982" x2="487.1554" y2="-330.7018" gradientTransform="matrix(1 0 0 1 0 502)">
		<stop  offset="5.911330e-002" style="stop-color:#0041BF"/>
		<stop  offset="0.4448" style="stop-color:#2758D2"/>
		<stop  offset="1" style="stop-color:#657CF0"/>
	</linearGradient>
	<rect x="345" y="71.3" class="st15" width="244.2" height="68.8"/>
	
		<linearGradient id="SVGID_3_" gradientUnits="userSpaceOnUse" x1="332.175" y1="-307.525" x2="442.525" y2="-417.875" gradientTransform="matrix(1 0 0 1 0 502)">
		<stop  offset="0" style="stop-color:#CDD0E0"/>
		<stop  offset="1" style="stop-color:#65B5F0"/>
	</linearGradient>
	<rect x="345" y="71.3" class="st16" width="84.7" height="136"/>
	<g>
		<g>
			<polygon class="st12" points="635.6,232.2 619.8,236.3 314.1,236.3 298.3,232.2 298.3,222.2 635.6,222.2 			"/>
			<path class="st3" d="M619.9,237.6H313.7l-16.7-4.4V221h339.7v12.2L619.9,237.6z M314.2,235.1h305.3l14.7-3.9v-7.7H299.5v7.7
				L314.2,235.1z"/>
		</g>
		<polygon class="st3" points="299.2,231.3 314.1,236.3 619.8,236.3 636,231.3 		"/>
	</g>
	<path class="st3" d="M494.7,224c0,1.2-0.5,2.3-1.2,2.3h-52.8c-0.7,0-1.2-1-1.2-2.3l0,0c0-1.2,0.5-2.3,1.2-2.3h52.8
		C494.2,221.7,494.7,222.7,494.7,224L494.7,224z"/>
	<g>
		<path class="st17" d="M590.5,208.5H343.8V70h246.7V208.5z M346.3,206H588V72.5H346.3V206z"/>
	</g>
	<rect x="358.4" y="86.8" class="st12" width="58.1" height="5"/>
	<rect x="358.4" y="95.1" class="st3" width="29.1" height="5"/>
	<rect x="441" y="149.1" class="st3" width="136.6" height="5"/>
	<rect x="441" y="157.4" class="st3" width="109.2" height="5"/>
	<rect x="441" y="165.7" class="st3" width="72.7" height="5"/>
	<rect x="441" y="174" class="st3" width="109.2" height="5"/>
	<g>
		<path class="st12" d="M465.5,119.5c0.2,0.2-0.4-0.6-1.2-1.7c-1.1,0.2-2.2,0.4-3.2,0.4c-6.8,0-12.3-5.6-12.3-12.3
			c0-6.8,5.6-12.3,12.3-12.3c6.8,0,12.3,5.6,12.3,12.3c0,2.6-0.7,4.9-2.1,6.9c0.5,0.7,0.8,1.1,0.7,0.9c0.7,0.8,1.2,1.7,1.8,2.5
			c2.2-2.8,3.7-6.4,3.7-10.3c0-9.1-7.4-16.4-16.4-16.4s-16.4,7.4-16.4,16.4s7.4,16.4,16.4,16.4c2,0,4-0.4,5.7-1.1
			C466.4,120.7,466,120.1,465.5,119.5z"/>
	</g>
	<g>
		<path class="st3" d="M521.5,104.9c0,0.3,0.1,0.7,0.1,1c0,6.8-5.6,12.3-12.3,12.3c-6.7,0-12.3-5.6-12.3-12.3
			c0-6.6,5.3-12.1,12-12.3c0-1.2,0-2.7,0-4.2c-8.9,0.2-16.1,7.5-16.1,16.4c0,9.1,7.4,16.4,16.4,16.4c9.1,0,16.4-7.4,16.4-16.4
			c0-0.3,0-0.7,0-0.9C524.3,104.9,522.9,104.9,521.5,104.9z"/>
	</g>
	<g>
		<path class="st12" d="M557.5,89.5c-9.1,0-16.4,7.4-16.4,16.4c0,8.4,6.3,15.4,14.5,16.4c0-1.5,0-2.9,0.1-4.2
			c-5.9-0.9-10.4-6-10.4-12.1c0-6.8,5.6-12.3,12.3-12.3c6.8,0,12.3,5.6,12.3,12.3c0,5.7-4,10.6-9.4,12c0,1,0,2,0,3
			c0,0.4,0,0.8,0,1.2c7.6-1.4,13.5-8.1,13.5-16.2C573.9,96.8,566.5,89.5,557.5,89.5z"/>
	</g>
	<g>
		<g>
			<g>
				<rect x="175.1" y="108.1" class="st18" width="113.4" height="128.3"/>
				<path class="st3" d="M289.7,237.6H173.8V106.8h115.9V237.6L289.7,237.6z M176.3,235.1h110.9V109.3H176.3V235.1z"/>
			</g>
			<g>
				<rect x="190.2" y="120.9" class="st12" width="83.2" height="102.7"/>
				<path class="st3" d="M274.7,224.8H189V119.7h85.7V224.8L274.7,224.8z M191.4,222.3h80.7V122.2h-80.7V222.3z"/>
			</g>
			<rect x="198.5" y="131.2" class="st3" width="66.6" height="82.1"/>
		</g>
		<path class="st12" d="M231.8,196.3l0.3-0.6l20.8-27.2l-0.2-0.2l0.1-0.1h-0.2l-8.3-12.3l-12.8-1.8l-12.3,1.8l-8.3,12.3h-0.1v0.1
			l-0.2,0.2l20.8,27.2L231.8,196.3z M222.9,157.6l6-0.7l-7,8.1L222.9,157.6z M231.7,157.5l9.1,10.7h-18.3L231.7,157.5z M241.8,165.4
			l-7.2-8.5l6.2,0.7L241.8,165.4z M241.5,170.7l-9.6,19.9l-9.6-19.9H241.5z M237.8,184l6.5-13.3h3.6L237.8,184z M249.7,168.2h-4.2
			h-0.8l-1.2-9.1L249.7,168.2z M220.3,158.8l-1.2,9.4h-0.9H214L220.3,158.8z M215.9,170.7h3.6L226,184L215.9,170.7z"/>
	</g>
	<g>
		<g>
			<polygon class="st2" points="606.6,235.7 553,235.7 561,223.7 598.7,223.7 			"/>
			<path class="st3" d="M609,237h-58.3l9.6-14.5h39L609,237z M555.3,234.5h49L598,225h-36.3L555.3,234.5z"/>
		</g>
		<g>
			<path class="st3" d="M609,237h-58.3l9.6-14.5h39L609,237z M555.3,234.5h49L598,225h-36.3L555.3,234.5z"/>
		</g>
		<path class="st12" d="M617.9,190c0-3.2-0.4-6.5-1.2-9.5h-75.3c-0.7,3.1-1.2,6.2-1.2,9.5c0,14.4,7.8,26.9,19.4,33.6h38.7
			C610.1,217,617.9,204.5,617.9,190z"/>
		<g>
			<path class="st12" d="M617.8,193.4c0.1-1.1,0.2-2.2,0.2-3.3c0-3.2-0.4-6.5-1.2-9.5h-75.3c-0.7,3.1-1.2,6.2-1.2,9.5
				c0,1.2,0.1,2.3,0.2,3.5C561,193.4,592.4,193.3,617.8,193.4z"/>
			<path class="st3" d="M539.4,194.8l-0.1-1.2c-0.1-1.3-0.2-2.5-0.2-3.6c0-3.3,0.4-6.6,1.2-9.8l0.2-0.9h77.2l0.2,0.9
				c0.8,3.2,1.2,6.5,1.2,9.8c0,1.1-0.1,2.2-0.2,3.4l-0.1,1.2h-1.2c-8.9,0-18.7-0.1-28.6-0.1c-18.6,0-35.9,0.1-48.7,0.2L539.4,194.8z
				 M542.5,181.8c-0.6,2.7-0.9,5.5-0.9,8.2c0,0.7,0,1.4,0.1,2.2c12.7-0.1,29.5-0.2,47.6-0.2c9.4,0,18.9,0,27.4,0.1
				c0.1-0.7,0.1-1.4,0.1-2.1c0-2.7-0.3-5.6-0.9-8.2H542.5L542.5,181.8z"/>
		</g>
		<g>
			<path class="st3" d="M598.8,224.9h-39.4l-0.2-0.2c-12.4-7.1-20.1-20.4-20.1-34.7c0-3.3,0.4-6.6,1.2-9.8l0.2-0.9h77.2l0.2,0.9
				c0.8,3.2,1.2,6.5,1.2,9.8c0,14.3-7.7,27.6-20.1,34.7L598.8,224.9z M560.1,222.4h38c11.5-6.7,18.5-19.1,18.5-32.4
				c0-2.7-0.3-5.6-0.9-8.2h-73.3c-0.6,2.7-0.9,5.5-0.9,8.2C541.6,203.3,548.7,215.7,560.1,222.4z"/>
		</g>
		<g>
			<path class="st3" d="M611.5,224.6c-3.1-2.5-4.4-4.9-4.2-7.3c0.4-4.6,6.2-7.9,13-11.7c4.1-2.3,8.3-4.7,11.6-7.5
				c2.9-2.5,4.2-5.5,3.4-8.5c-0.7-2.9-3.1-5.1-6.1-5.8c-2.2-0.5-6.4-0.4-10.7,5l-2-1.6c3.7-4.7,8.6-6.9,13.2-5.9
				c3.9,0.8,7.1,3.8,8,7.6c1,3.9-0.6,7.9-4.2,11c-3.6,3-7.9,5.4-12,7.8c-5.9,3.3-11.5,6.5-11.8,9.8c-0.2,1.6,1,3.3,3.3,5.2
				L611.5,224.6z"/>
		</g>
	</g>
	<rect x="452" y="126.1" class="st12" width="22" height="5"/>
	<rect x="498.3" y="126.1" class="st3" width="22" height="5"/>
	<rect x="547.3" y="126.1" class="st12" width="22" height="5"/>
</g>
<g>
	<path class="st19" d="M349.2,283.8c-8.5,0.7-14.9-3.1-23.1-4.1c-8.2-1-18.1,2.6-23.4,9.1c-5.1,6.3-0.9,14.6,5.1,18.6
		c4,2.6,9,3.3,13.7,3.2c5.6-0.1,10.7-0.6,15.9-2.4c5.4-1.9,12.1-1.3,17.8-1.3L349.2,283.8z"/>
	<g>
		<path class="st19" d="M375.7,270.4c0.4-2.1,2.8-4.1,4.5-5.1c1.7-0.9,4.6-2.5,6.5-2.7c0.7,2,1.4,4.1,1.9,6.3
			c0.3,1.3,0.8,2.8,0.9,4.2c0.1,1.8-0.7,3-1.2,4.6L375.7,270.4z"/>
		<path class="st19" d="M356,270.1c-1.3-0.4-2.2-2-3.4-2.7c-2.3-1.4-5.5-3.3-8.2-3.6c-2.5-0.3-2.7,3.3-3.1,5.4
			c-0.6,3.2-1.7,7.3-0.1,10.3L356,270.1z"/>
		<path class="st20" d="M392.3,293.7c1.2,0.7,2.7,0.3,4,1.3c-1.3,2.7-3.6,5.3-5.9,7.2c-0.3,0.3-0.6,0.5-0.9,0.8
			c-10.5,8.4-24.6,6.4-37,4.6c-4.9-0.7-9-1.9-12.7-4.6c-1.5-1.1-2.9-2.4-4.2-4c-0.8-0.9-2-2.2-1.5-3.3c0.4-0.7,2.1-1.5,2.8-1.7
			c-0.8-0.5-1.7-0.9-2.5-1.6c0.7-1.3,2.1-2.9,3.2-3.9c-1.3,0.3-2.8,0.2-4.1,0.5c1.8-7.4,7-13.7,13.1-17.6c3-1.9,6.6-3.6,10.1-4
			c1.4-0.2,2.9-0.3,4.4-0.5c2.4-0.2,4.8-0.3,7.1-0.1c1.2,0.1,2.4,0.3,3.5,0.6c5.3,1.3,10.4,4.2,14.4,8c2.3,2.2,4.1,4.7,6.1,7.1
			c1.4,1.7,3.5,3.2,4.5,5.2c-1.3,0.7-2.8,1.3-4.1,1.9c1.2,0.4,3.8-0.4,4.4,1.2C395.5,291.5,393.3,292.3,392.3,293.7z"/>
		<path class="st21" d="M390.3,302.2c-0.3,0.3-0.6,0.5-0.9,0.8c-10.5,8.4-24.6,6.4-37,4.6c-4.9-0.7-9-1.9-12.7-4.6
			c1.6-1.6,5.5-3.4,6.4-4c6.6-4.3,12.3-8.5,14.6-16.8c1.2-4.1,1.4-8.1,0.9-12.4c-0.1-0.9-0.4-1.9-0.6-2.8c2.4-0.2,4.8-0.3,7.1-0.1
			c-0.2,1.4-0.2,2.9-0.3,4.1c-0.1,3,0.3,5.7,1.2,8.6c1.6,4.6,4.3,8.9,7.5,12.4c2.7,3.1,6,6.1,9.5,8.1
			C387.4,300.6,389,301.3,390.3,302.2z"/>
		<path class="st22" d="M366.6,283.1c-0.4-0.7-1.1-0.8-1.8-0.7c-0.5,0.1-1,0.6-1.3,1.1c-0.3,0.6-0.2,1.3,0.2,1.8
			c0.4,0.4,1.2,0.6,1.6,0.2c0.2-0.1,0.4-0.3,0.6-0.4c-0.1,0-0.2,0.1-0.3,0.1c0,0,0.1,0,0.1,0c0.3-0.1,0.4-0.2,0.6-0.4
			C366.9,284.4,366.9,283.6,366.6,283.1L366.6,283.1z"/>
		<path class="st22" d="M361.9,290.4c0.9,1,2.4-0.2,2.9-1.1c0.7-1.2,1-3.1,0.6-4.4c-0.2-0.5-1-0.5-0.9,0.1c0.1,1.1,0.1,2.1-0.2,3.1
			c-0.2,0.5-0.5,1.1-0.9,1.4c-0.4,0.3-1,0.2-1.4,0.5C361.8,290,361.8,290.3,361.9,290.4L361.9,290.4z"/>
		<path class="st22" d="M367.7,290.2c-0.7-0.6-1.3-1-1.6-1.9c-0.4-1-0.3-2-0.5-3c-0.1-0.8-1.1-0.5-1.2,0.2c-0.1,1.6,0.9,6.3,3.2,5.1
			C367.8,290.5,367.8,290.3,367.7,290.2L367.7,290.2z"/>
		<path class="st22" d="M382.3,282.6c0,0.1-0.1,0.3,0,0.4c0,0.1,0,0.3,0,0.4c0,0.4,0.1,0.8,0.4,1.1c0.2,0.3,0.8,0.3,1,0
			c0.3-0.4,0.4-0.8,0.3-1.3c0-0.1,0-0.3-0.1-0.4c-0.1-0.2-0.2-0.4-0.3-0.5C383.2,281.6,382.3,281.8,382.3,282.6L382.3,282.6z"/>
		<path class="st22" d="M348.6,280.3C348.5,280.3,348.5,280.3,348.6,280.3c0,0,0.1-0.1,0.2-0.3c-0.6,0.6-0.5,1.8-0.2,2.4
			c0.2,0.4,0.6,0.6,1,0.5c0.4-0.1,0.6-0.5,0.7-0.9c0,0.1,0,0.1,0-0.2c0-0.1,0-0.3,0-0.4c0-0.1,0-0.3-0.1-0.4
			c-0.1-0.3-0.2-0.7-0.4-0.9c0.1,0.1,0.1,0.2,0.2,0.3c0,0,0-0.1,0-0.1C349.7,279.6,348.8,279.6,348.6,280.3L348.6,280.3z"/>
		<path class="st22" d="M388.4,290.9c1,0,2,0.3,3,0.6c0.7,0.3,1.5,1,2.3,0.6c0.1,0,0.2-0.2,0.2-0.3c-0.1-0.9-1-1.2-1.7-1.5
			c-1.2-0.5-2.4-0.6-3.7-0.4C387.7,289.9,387.7,290.9,388.4,290.9L388.4,290.9z"/>
		<path class="st22" d="M388.9,293.3c0.8,0.3,1.6,0.5,2.5,0.7c0.8,0.2,1.6,0.8,2.4,0.6c0.3-0.1,0.3-0.4,0.2-0.6
			c-0.4-0.8-1.3-0.9-2-1.1c-0.9-0.3-1.9-0.4-2.8-0.7C388.5,291.9,388.2,293.1,388.9,293.3L388.9,293.3z"/>
		<path class="st22" d="M343.1,287.4c-1.7,0-4.1,0-5.6,1.2c-0.2,0.2-0.2,0.6,0.1,0.7c0.8,0.3,1.5,0.2,2.4,0c1-0.2,2.1-0.4,3.1-0.4
			C344,288.8,344,287.4,343.1,287.4L343.1,287.4z"/>
		<path class="st22" d="M342.4,290.9c-1.6,0.1-3.7,0-5,1.1c-0.4,0.3-0.3,0.9,0.2,1c1.6,0.1,3.3-0.8,4.9-1.2
			C342.9,291.6,342.8,290.9,342.4,290.9L342.4,290.9z"/>
	</g>
	<path class="st19" d="M363.3,307.6c-4-0.8-18.3-3.8-20.4,1.4c-0.8,2,1.2,3.5,2.8,4.2c4.3,1.8,10.5,1.3,15.1,1
		c1.9-0.1,10.2-1.6,8.1-4.9C368.1,308,364.7,307.9,363.3,307.6z"/>
	<path class="st20" d="M369.5,315.8c-2.3,0.2-9.4,1.4-10.8-1.2c-1.3-2.4,3.2-3.3,4.8-3.8c4-1.3,7.5-4,11.7-4.9
		c3.8-0.7,9.6,0.8,7.3,5.8C380.6,315.6,373.3,315.4,369.5,315.8z"/>
	<path class="st22" d="M301.7,291.1c-3.4,1.2-3.5,7.7-3.3,10.4c0.3,3.8,2.6,7.7,6.1,9.8c5.4,3.3,12.3,3.6,18.6,3.9
		c5.6,0.2,11.7,0.5,16.9-1c3.6-1,11.5-6,4.5-8.8c-3.7-1.5-9,2.2-12.7,2.6c-4.7,0.6-9.5,0.9-14.1-0.1c-8.1-1.8-16.6-6.2-15.8-14.5
		V291.1z"/>
</g>
</svg>
