<?xml version="1.0" encoding="utf-8"?>
<!-- Generator: Adobe Illustrator 19.0.0, SVG Export Plug-In . SVG Version: 6.00 Build 0)  -->
<svg version="1.1" id="Layer_1" xmlns="http://www.w3.org/2000/svg" xmlns:xlink="http://www.w3.org/1999/xlink" x="0px" y="0px"
	 viewBox="66 199.5 743 395.5" style="enable-background:new 66 199.5 743 395.5;" xml:space="preserve">
<style type="text/css">
	.st0{fill:#DADDEA;}
	.st1{fill:#CDD0E0;}
	.st2{enable-background:new    ;}
	.st3{fill:#EDEDEF;}
	.st4{fill:#BCBCBC;}
	.st5{fill:#EAEAEA;}
	.st6{fill:#271F3E;}
	.st7{fill:#FFFFFF;}
	.st8{fill:#5E4B8B;}
	.st9{fill:#7379BA;}
	.st10{fill:#F89E71;}
	.st11{fill:#F16B90;}
	.st12{fill:#BC79B3;}
	.st13{fill:url(#SVGID_1_);}
	.st14{fill:url(#SVGID_2_);}
	.st15{fill:url(#SVGID_3_);}
	.st16{fill:url(#SVGID_4_);}
	.st17{fill:url(#SVGID_5_);}
	.st18{fill:url(#SVGID_6_);}
</style>
<g id="Workspace4">
	<g>
		<g>
			<g>
				<g>
					<rect x="212.1" y="245" class="st0" width="105.4" height="99.7"/>
					<path class="st1" d="M318.8,345.9h-108V243.8h107.9L318.8,345.9L318.8,345.9z M213.3,343.5h102.9v-97.2H213.3V343.5z"/>
				</g>
				<g>
					<path class="st0" d="M318.4,345.9H211.2V243.8h107.1V345.9z M212.9,343.5h103.7v-97.2H212.9V343.5z"/>
					<path class="st1" d="M319.6,347.2H210V242.5h109.6V347.2z M214.1,342.2h101.2v-94.7H214.1V342.2z M212.5,245h104.7H212.5z"/>
				</g>
			</g>
			<g class="st2">
				<path class="st3" d="M252.6,297.1h-9.5V311c0,0.7-0.2,1.2-0.7,1.7c-0.5,0.5-1.1,0.7-1.7,0.7s-1.2-0.2-1.7-0.7
					c-0.5-0.5-0.7-1.1-0.7-1.7v-32.7c0-0.7,0.2-1.2,0.7-1.7c0.5-0.5,1.1-0.7,1.7-0.7h12c3,0,5.5,1.1,7.6,3.2
					c2.1,2.1,3.2,4.6,3.2,7.6s-1.1,5.5-3.2,7.6C258.1,296.1,255.5,297.1,252.6,297.1z M252.6,280.7h-9.5V292h9.5
					c1.6,0,2.9-0.6,4-1.7c1.1-1.1,1.7-2.4,1.7-4s-0.6-2.9-1.7-4C255.5,281.3,254.1,280.7,252.6,280.7z"/>
				<path class="st3" d="M273.3,311c0,0.7-0.2,1.2-0.7,1.7c-0.5,0.5-1.1,0.7-1.7,0.7s-1.2-0.2-1.7-0.7c-0.5-0.5-0.7-1.1-0.7-1.7
					v-32.7c0-0.7,0.2-1.2,0.7-1.7c0.5-0.5,1.1-0.7,1.7-0.7h20.1c0.7,0,1.2,0.2,1.7,0.7c0.5,0.5,0.7,1.1,0.7,1.7s-0.2,1.2-0.7,1.7
					s-1.1,0.7-1.7,0.7h-17.6V292h15.1c0.7,0,1.2,0.2,1.7,0.7c0.5,0.5,0.7,1.1,0.7,1.7c0,0.7-0.2,1.2-0.7,1.7
					c-0.5,0.5-1.1,0.7-1.7,0.7h-15.1V311z"/>
			</g>
		</g>
		<circle class="st1" cx="264.8" cy="207.2" r="4.2"/>
		<g>
			
				<rect x="250.8" y="203" transform="matrix(-0.8118 -0.5839 0.5839 -0.8118 325.2179 554.8461)" class="st1" width="2.5" height="44"/>
		</g>
		<g>
			
				<rect x="254.9" y="223.7" transform="matrix(-0.5837 -0.812 0.812 -0.5837 255.8465 581.066)" class="st1" width="44" height="2.5"/>
		</g>
	</g>
	<g>
		<ellipse class="st4" cx="422.1" cy="529" rx="249" ry="19"/>
		<ellipse class="st5" cx="422.8" cy="526.5" rx="249" ry="19"/>
	</g>
	<g>
		<g>
			<g>
				
					<rect x="622.9" y="245.2" transform="matrix(-0.9967 8.168957e-002 -8.168957e-002 -0.9967 1293.5181 466.1471)" class="st6" width="28.7" height="28.7"/>
				<path class="st1" d="M654,273.8l-31.1,2.6l-2.6-31.1l31.1-2.6L654,273.8z M625.3,273.6l26.1-2.2l-2.2-26.1l-26.1,2.2
					L625.3,273.6z"/>
			</g>
			<g>
				
					<rect x="623.6" y="263.5" transform="matrix(-0.9967 8.168957e-002 -8.168957e-002 -0.9967 1295.767 484.3281)" class="st7" width="28.7" height="10.4"/>
				<path class="st1" d="M654,273.8l-31.1,2.6l-1.1-12.8l31.1-2.6L654,273.8z M625.3,273.6l26.1-2.2l-0.7-7.9l-26.1,2.2L625.3,273.6
					z"/>
			</g>
		</g>
		<g>
			<g>
				<rect x="671.8" y="244.8" class="st8" width="28.7" height="28.7"/>
				<path class="st1" d="M701.7,274.7h-31.1v-31.1h31.1V274.7z M673,272.2h26.2V246H673V272.2z"/>
			</g>
			<g>
				<rect x="671.8" y="263.1" class="st7" width="28.7" height="10.4"/>
				<path class="st1" d="M701.7,274.7h-31.1v-12.9h31.1V274.7z M673,272.2h26.2v-7.9H673V272.2z"/>
			</g>
		</g>
		<g>
			<g>
				
					<rect x="622.9" y="290" transform="matrix(-0.9981 -6.169904e-002 6.169904e-002 -0.9981 1254.4233 647.3157)" class="st9" width="28.7" height="28.7"/>
				<path class="st1" d="M651.8,320.9l-31.1-1.9l1.9-31.1l31.1,1.9L651.8,320.9z M623.4,316.6l26.1,1.6l1.6-26.1l-26.1-1.6
					L623.4,316.6z"/>
			</g>
			<g>
				
					<rect x="622.4" y="308.2" transform="matrix(-0.9981 -6.169904e-002 6.169904e-002 -0.9981 1252.8595 665.5463)" class="st7" width="28.7" height="10.4"/>
				<path class="st1" d="M651.8,320.9l-31.1-1.9l0.8-12.9l31.1,1.9L651.8,320.9z M623.4,316.6l26.1,1.6l0.5-7.9l-26.1-1.6
					L623.4,316.6z"/>
			</g>
		</g>
		<g>
			<g>
				
					<rect x="671.9" y="337.1" transform="matrix(-0.9905 -0.1375 0.1375 -0.9905 1317.567 793.7886)" class="st10" width="28.7" height="28.7"/>
				<path class="st1" d="M699.5,368.9l-30.8-4.3l4.3-30.8l30.8,4.3L699.5,368.9z M671.4,362.5l25.9,3.6l3.6-25.9l-25.9-3.6
					L671.4,362.5z"/>
			</g>
			<g>
				
					<rect x="670.5" y="356" transform="matrix(-0.9905 -0.1375 0.1375 -0.9905 1313.4253 813.1051)" class="st7" width="28.7" height="10.4"/>
				<path class="st1" d="M699.4,369.7l-30.8-4.3l1.7-12.8l30.8,4.3L699.4,369.7z M671.3,363.3l25.9,3.6l1.1-7.8l-25.9-3.6
					L671.3,363.3z"/>
			</g>
		</g>
		<g>
			<g>
				<rect x="622.9" y="334.5" class="st11" width="28.7" height="28.7"/>
				<path class="st1" d="M652.8,364.4h-31.1v-31.1h31.1V364.4z M624.1,361.9h26.2v-26.2h-26.2V361.9z"/>
			</g>
			<g>
				<rect x="622.9" y="353.6" class="st7" width="28.7" height="10.4"/>
				<path class="st1" d="M652.8,365.2h-31.1v-12.9h31.1V365.2z M624.1,362.7h26.2v-7.9h-26.2V362.7z"/>
			</g>
		</g>
		<g>
			<g>
				
					<rect x="671.7" y="288.4" transform="matrix(-0.9948 0.1014 -0.1014 -0.9948 1399.1725 534.2869)" class="st12" width="28.7" height="28.7"/>
				<path class="st1" d="M703.1,316.6l-31,3.2l-3.2-31l31-3.2L703.1,316.6z M674.4,317l26-2.7l-2.7-26l-26,2.7L674.4,317z"/>
			</g>
			<g>
				
					<rect x="672.7" y="307.4" transform="matrix(-0.9948 0.1014 -0.1014 -0.9948 1402.1671 553.9061)" class="st7" width="28.7" height="10.4"/>
				<path class="st1" d="M703.2,317.5l-31,3.2l-1.3-12.8l31-3.2L703.2,317.5z M674.5,317.9l26-2.7l-0.8-7.8l-26,2.7L674.5,317.9z"/>
			</g>
		</g>
	</g>
	<g>
		<g>
			
				<linearGradient id="SVGID_1_" gradientUnits="userSpaceOnUse" x1="607.5068" y1="347.4962" x2="719.1387" y2="347.4962" gradientTransform="matrix(1 0 0 -1 0 802)">
				<stop  offset="0" style="stop-color:#F16B90"/>
				<stop  offset="1" style="stop-color:#F89E71"/>
			</linearGradient>
			<rect x="607.5" y="445.1" class="st13" width="111.6" height="18.8"/>
			<path class="st1" d="M720.4,465.1H606.3v-21.3h114.1V465.1L720.4,465.1z M608.8,462.6h109.1v-16.3H608.8V462.6z"/>
		</g>
		<g>
			
				<linearGradient id="SVGID_2_" gradientUnits="userSpaceOnUse" x1="617.8062" y1="363.0698" x2="708.9224" y2="363.0698" gradientTransform="matrix(1 0 0 -1 0 802)">
				<stop  offset="0" style="stop-color:#BC79B3"/>
				<stop  offset="1" style="stop-color:#7379BA"/>
			</linearGradient>
			<rect x="617.8" y="432.7" class="st14" width="91.1" height="12.5"/>
			<path class="st1" d="M710.1,446.4h-93.5v-15h93.6L710.1,446.4L710.1,446.4z M619.1,443.9h88.6v-10.1h-88.6V443.9z"/>
		</g>
		<g>
			<rect x="617.8" y="405" class="st6" width="91.1" height="12.5"/>
			<path class="st1" d="M710.1,418.7h-93.5v-15h93.6L710.1,418.7L710.1,418.7z M619.1,416.2h88.6v-10.1h-88.6V416.2z"/>
		</g>
		<g>
			
				<linearGradient id="SVGID_3_" gradientUnits="userSpaceOnUse" x1="612.4073" y1="376.9408" x2="714.2382" y2="376.9408" gradientTransform="matrix(1 0 0 -1 0 802)">
				<stop  offset="0" style="stop-color:#69CEF4"/>
				<stop  offset="1" style="stop-color:#7379BA"/>
			</linearGradient>
			<rect x="612.4" y="417.8" class="st15" width="101.8" height="14.5"/>
			<path class="st1" d="M715.5,433.6H611.2v-17h104.3V433.6z M613.7,431.1H713v-12h-99.3V431.1z"/>
		</g>
	</g>
	<g>
		<g>
			<g>
				<polygon class="st7" points="213.7,530.3 198.8,530.3 196.3,475.4 216.2,475.4 				"/>
				<path class="st1" d="M215,531.5h-17.4l-2.6-57.3h22.5L215,531.5z M200,529h12.5l2.4-52.3h-17.4L200,529z"/>
			</g>
			<polygon class="st1" points="196.3,477.9 197.3,499.5 215.2,499.5 216.2,477.9 			"/>
		</g>
		<g>
			<g>
				<polygon class="st7" points="651.4,530.3 636.5,530.3 634,475.4 653.9,475.4 				"/>
				<path class="st1" d="M652.7,531.5h-17.4l-2.6-57.3h22.5L652.7,531.5z M637.7,529h12.5l2.4-52.3h-17.4L637.7,529z"/>
			</g>
			<polygon class="st1" points="634,477.9 635,499.5 652.9,499.5 653.9,477.9 			"/>
		</g>
		<g>
			<rect x="117.8" y="464.6" class="st7" width="614.6" height="21.6"/>
			<path class="st1" d="M733.7,487.5H116.5v-24.1h617.1V487.5z M119,485h612.1v-19.1H119V485z"/>
		</g>
	</g>
	<g>
		<path class="st6" d="M558.8,438.9c0,9.1-7.5,16.6-16.6,16.6H308c-9.1,0-16.6-7.5-16.6-16.6V299.3c0-9.1,7.5-16.6,16.6-16.6h234.2
			c9.1,0,16.6,7.5,16.6,16.6V438.9z"/>
		<path class="st1" d="M542.2,456.7H308c-9.9,0-17.9-8-17.9-17.9V299.3c0-9.9,8-17.9,17.9-17.9h234.2c9.9,0,17.9,8,17.9,17.9v139.5
			C560.1,448.8,552.1,456.7,542.2,456.7z M308,284c-8.5,0-15.4,6.9-15.4,15.4v139.5c0,8.5,6.9,15.4,15.4,15.4h234.2
			c8.5,0,15.4-6.9,15.4-15.4V299.3c0-8.5-6.9-15.4-15.4-15.4H308z"/>
	</g>
	
		<linearGradient id="SVGID_4_" gradientUnits="userSpaceOnUse" x1="330.0676" y1="340.2077" x2="520.149" y2="530.2892" gradientTransform="matrix(1 0 0 -1 0 802)">
		<stop  offset="0" style="stop-color:#69CEF4"/>
		<stop  offset="1" style="stop-color:#7379BA"/>
	</linearGradient>
	<rect x="303" y="298.8" class="st16" width="244.2" height="136"/>
	
		<linearGradient id="SVGID_5_" gradientUnits="userSpaceOnUse" x1="346.8664" y1="390.6041" x2="503.3503" y2="547.088" gradientTransform="matrix(1 0 0 -1 0 802)">
		<stop  offset="0" style="stop-color:#BC79B3"/>
		<stop  offset="1" style="stop-color:#7379BA"/>
	</linearGradient>
	<rect x="303" y="298.8" class="st17" width="244.2" height="68.8"/>
	
		<linearGradient id="SVGID_6_" gradientUnits="userSpaceOnUse" x1="290.1991" y1="380.0762" x2="400.5435" y2="490.4207" gradientTransform="matrix(1 0 0 -1 0 802)">
		<stop  offset="0" style="stop-color:#F89E71"/>
		<stop  offset="1" style="stop-color:#F16B90"/>
	</linearGradient>
	<rect x="303" y="298.8" class="st18" width="84.7" height="136"/>
	<g>
		<g>
			<polygon class="st7" points="593.6,459.7 577.8,463.8 272.1,463.8 256.3,459.7 256.3,449.7 593.6,449.7 			"/>
			<path class="st1" d="M577.9,465.1H271.7l-16.7-4.4v-12.2h339.7v12.2L577.9,465.1z M272.2,462.6h305.3l14.7-3.9v-7.7H257.5v7.7
				L272.2,462.6z"/>
		</g>
		<polygon class="st1" points="257.2,458.8 272.1,463.8 577.8,463.8 594,458.8 		"/>
	</g>
	<path class="st1" d="M452.7,451.5c0,1.2-0.5,2.3-1.2,2.3h-52.8c-0.7,0-1.2-1-1.2-2.3l0,0c0-1.2,0.5-2.3,1.2-2.3h52.8
		C452.2,449.2,452.7,450.2,452.7,451.5L452.7,451.5z"/>
	<g>
		<path class="st1" d="M548.5,436H301.8V297.5h246.7V436z M304.3,433.5H546V300H304.3V433.5z"/>
	</g>
	<rect x="316.4" y="314.3" class="st7" width="58.1" height="5"/>
	<rect x="316.4" y="322.6" class="st1" width="29.1" height="5"/>
	<rect x="399" y="376.6" class="st1" width="136.6" height="5"/>
	<rect x="399" y="384.9" class="st1" width="109.2" height="5"/>
	<rect x="399" y="393.2" class="st1" width="72.7" height="5"/>
	<rect x="399" y="401.5" class="st1" width="109.2" height="5"/>
	<g>
		<path class="st1" d="M423.5,347c0.2,0.2-0.4-0.6-1.2-1.7c-1.1,0.2-2.2,0.4-3.2,0.4c-6.8,0-12.3-5.6-12.3-12.3
			c0-6.8,5.6-12.3,12.3-12.3c6.8,0,12.3,5.6,12.3,12.3c0,2.6-0.7,4.9-2.1,6.9c0.5,0.7,0.8,1.1,0.7,0.9c0.7,0.8,1.2,1.7,1.8,2.5
			c2.2-2.8,3.7-6.4,3.7-10.3c0-9.1-7.4-16.4-16.4-16.4s-16.4,7.4-16.4,16.4s7.4,16.4,16.4,16.4c2,0,4-0.4,5.7-1.1
			C424.4,348.2,424,347.6,423.5,347z"/>
	</g>
	<g>
		<path class="st1" d="M479.5,332.4c0,0.3,0.1,0.7,0.1,1c0,6.8-5.6,12.3-12.3,12.3c-6.7,0-12.3-5.6-12.3-12.3
			c0-6.6,5.3-12.1,12-12.3c0-1.2,0-2.7,0-4.2c-8.9,0.2-16.1,7.5-16.1,16.4c0,9.1,7.4,16.4,16.4,16.4c9.1,0,16.4-7.4,16.4-16.4
			c0-0.3,0-0.7,0-0.9C482.3,332.4,480.9,332.4,479.5,332.4z"/>
	</g>
	<g>
		<path class="st7" d="M515.5,317c-9.1,0-16.4,7.4-16.4,16.4c0,8.4,6.3,15.4,14.5,16.4c0-1.5,0-2.9,0.1-4.2
			c-5.9-0.9-10.4-6-10.4-12.1c0-6.8,5.6-12.3,12.3-12.3c6.8,0,12.3,5.6,12.3,12.3c0,5.7-4,10.6-9.4,12c0,1,0,2,0,3
			c0,0.4,0,0.8,0,1.2c7.6-1.4,13.5-8.1,13.5-16.2C531.9,324.3,524.5,317,515.5,317z"/>
	</g>
	<g>
		<g>
			<g>
				<rect x="133.1" y="335.6" class="st6" width="113.4" height="128.3"/>
				<path class="st1" d="M247.7,465.1H131.8V334.3h115.9V465.1z M134.3,462.6h110.9V336.8H134.3V462.6z"/>
			</g>
			<g>
				<rect x="148.2" y="348.4" class="st7" width="83.2" height="102.7"/>
				<path class="st1" d="M232.7,452.3h-85.7V347.2h85.7L232.7,452.3L232.7,452.3z M149.4,449.8h80.7V349.7h-80.7
					C149.4,349.7,149.4,449.8,149.4,449.8z"/>
			</g>
			<rect x="156.5" y="358.7" class="st1" width="66.6" height="82.1"/>
		</g>
		<path class="st7" d="M189.8,423.8l0.3-0.6l20.8-27.2l-0.2-0.2l0.1-0.1h-0.2l-8.3-12.3l-12.8-1.8l-12.3,1.8l-8.3,12.3h-0.1v0.1
			l-0.2,0.2l20.8,27.2L189.8,423.8z M180.9,385.1l6-0.7l-7,8.1L180.9,385.1z M189.7,385l9.1,10.7h-18.3L189.7,385z M199.8,392.9
			l-7.2-8.5l6.2,0.7L199.8,392.9z M199.5,398.2l-9.6,19.9l-9.6-19.9H199.5z M195.8,411.5l6.5-13.3h3.6L195.8,411.5z M207.7,395.7
			h-4.2h-0.8l-1.2-9.1L207.7,395.7z M178.3,386.3l-1.2,9.4h-0.9h-4.2L178.3,386.3z M173.9,398.2h3.6l6.5,13.3L173.9,398.2z"/>
	</g>
	<g>
		<g>
			<polygon class="st0" points="564.6,463.2 511,463.2 519,451.2 556.7,451.2 			"/>
			<path class="st1" d="M567,464.5h-58.3l9.6-14.5h39L567,464.5z M513.3,462h49l-6.3-9.5h-36.3L513.3,462z"/>
		</g>
		<g>
			<path class="st1" d="M567,464.5h-58.3l9.6-14.5h39L567,464.5z M513.3,462h49l-6.3-9.5h-36.3L513.3,462z"/>
		</g>
		<path class="st7" d="M575.9,417.5c0-3.2-0.4-6.5-1.2-9.5h-75.3c-0.7,3.1-1.2,6.2-1.2,9.5c0,14.4,7.8,26.9,19.4,33.6h38.7
			C568.1,444.5,575.9,432,575.9,417.5z"/>
		<g>
			<path class="st7" d="M575.8,420.9c0.1-1.1,0.2-2.2,0.2-3.3c0-3.2-0.4-6.5-1.2-9.5h-75.3c-0.7,3.1-1.2,6.2-1.2,9.5
				c0,1.2,0.1,2.3,0.2,3.5C519,420.9,550.4,420.8,575.8,420.9z"/>
			<path class="st1" d="M497.4,422.3l-0.1-1.2c-0.1-1.3-0.2-2.5-0.2-3.6c0-3.3,0.4-6.6,1.2-9.8l0.2-0.9h77.2l0.2,0.9
				c0.8,3.2,1.2,6.5,1.2,9.8c0,1.1-0.1,2.2-0.2,3.4l-0.1,1.2h-1.2c-8.9,0-18.7-0.1-28.6-0.1c-18.6,0-35.9,0.1-48.7,0.2L497.4,422.3z
				 M500.5,409.3c-0.6,2.7-0.9,5.5-0.9,8.2c0,0.7,0,1.4,0.1,2.2c12.7-0.1,29.5-0.2,47.6-0.2c9.4,0,18.9,0,27.4,0.1
				c0.1-0.7,0.1-1.4,0.1-2.1c0-2.7-0.3-5.6-0.9-8.2L500.5,409.3L500.5,409.3z"/>
		</g>
		<g>
			<path class="st1" d="M556.8,452.4h-39.4l-0.2-0.2c-12.4-7.1-20.1-20.4-20.1-34.7c0-3.3,0.4-6.6,1.2-9.8l0.2-0.9h77.2l0.2,0.9
				c0.8,3.2,1.2,6.5,1.2,9.8c0,14.3-7.7,27.6-20.1,34.7L556.8,452.4z M518.1,449.9h38c11.5-6.7,18.5-19.1,18.5-32.4
				c0-2.7-0.3-5.6-0.9-8.2h-73.3c-0.6,2.7-0.9,5.5-0.9,8.2C499.6,430.8,506.7,443.2,518.1,449.9z"/>
		</g>
		<g>
			<path class="st1" d="M569.5,452.1c-3.1-2.5-4.4-4.9-4.2-7.3c0.4-4.6,6.2-7.9,13-11.7c4.1-2.3,8.3-4.7,11.6-7.5
				c2.9-2.5,4.2-5.5,3.4-8.5c-0.7-2.9-3.1-5.1-6.1-5.8c-2.2-0.5-6.4-0.4-10.7,5l-2-1.6c3.7-4.7,8.6-6.9,13.2-5.9
				c3.9,0.8,7.1,3.8,8,7.6c1,3.9-0.6,7.9-4.2,11c-3.6,3-7.9,5.4-12,7.8c-5.9,3.3-11.5,6.5-11.8,9.8c-0.2,1.6,1,3.3,3.3,5.2
				L569.5,452.1z"/>
		</g>
	</g>
</g>
</svg>
