<?xml version="1.0" encoding="utf-8"?>
<!-- Generator: Adobe Illustrator 19.0.0, SVG Export Plug-In . SVG Version: 6.00 Build 0)  -->
<svg version="1.1" id="Camada_1" xmlns="http://www.w3.org/2000/svg" xmlns:xlink="http://www.w3.org/1999/xlink" x="0px" y="0px"
	 viewBox="0 0 100 100" style="enable-background:new 0 0 100 100;" xml:space="preserve">
<style type="text/css">
	.st0{fill:#88C0DC;}
	.st1{fill:#42A6CF;}
	.st2{fill:#1880B5;}
	.st3{fill:#FFFFFF;}
	.st4{fill:url(#XMLID_22_);}
	.st5{fill:url(#XMLID_23_);}
	.st6{fill:url(#XMLID_24_);}
	.st7{fill:url(#XMLID_25_);}
	.st8{fill:url(#XMLID_29_);}
	.st9{fill:url(#XMLID_30_);}
	.st10{fill:url(#XMLID_31_);}
	.st11{clip-path:url(#XMLID_32_);}
	.st12{fill:url(#XMLID_33_);}
	.st13{fill:url(#XMLID_34_);}
	.st14{fill:url(#XMLID_35_);}
	.st15{fill:url(#XMLID_36_);}
</style>
<g id="XMLID_1_">
	<g id="XMLID_11_">
		<circle id="XMLID_185_" class="st0" cx="50.9" cy="50.4" r="48.1"/>
		<circle id="XMLID_184_" class="st1" cx="47" cy="46.5" r="42.9"/>
	</g>
	<circle id="XMLID_182_" class="st2" cx="47" cy="46.5" r="32.3"/>
	<circle id="XMLID_10_" class="st3" cx="47.4" cy="50.9" r="25.5"/>
	<g id="XMLID_4_">
		<g id="XMLID_160_">
			<g id="XMLID_163_">
				
					<linearGradient id="XMLID_22_" gradientUnits="userSpaceOnUse" x1="41.5644" y1="68.7646" x2="41.5644" y2="68.7646" gradientTransform="matrix(1 0 0 -1 0 106)">
					<stop  offset="0" style="stop-color:#1880B5"/>
					<stop  offset="1" style="stop-color:#88C0DC"/>
				</linearGradient>
				<path id="XMLID_9_" class="st4" d="M41.6,37.3C41.6,37.3,41.6,37.1,41.6,37.3L41.6,37.3z"/>
				
					<linearGradient id="XMLID_23_" gradientUnits="userSpaceOnUse" x1="41.6704" y1="68.9695" x2="42.0032" y2="68.9695" gradientTransform="matrix(1 0 0 -1 0 106)">
					<stop  offset="0" style="stop-color:#1880B5"/>
					<stop  offset="1" style="stop-color:#88C0DC"/>
				</linearGradient>
				<path id="XMLID_168_" class="st5" d="M41.7,37.1c0.1-0.1,0.2-0.1,0.2-0.2C42,37,41.9,37,41.7,37.1z"/>
				
					<linearGradient id="XMLID_24_" gradientUnits="userSpaceOnUse" x1="54.1536" y1="54.0441" x2="60.6931" y2="54.0441" gradientTransform="matrix(1 0 0 -1 0 106)">
					<stop  offset="0" style="stop-color:#208FC4"/>
					<stop  offset="0.2016" style="stop-color:#2189BB"/>
					<stop  offset="0.5395" style="stop-color:#1A7BAC"/>
					<stop  offset="0.9699" style="stop-color:#126696"/>
					<stop  offset="1" style="stop-color:#126495"/>
				</linearGradient>
				<path id="XMLID_97_" class="st6" d="M58.6,52.5c0.1,0,0.1-0.1,0.2-0.1c0.5-0.1,0.8-0.5,1.2-0.5c0.2,0,0.2-0.1,0.2-0.2
					c0-0.2-0.1-0.2-0.2-0.5s-0.5-0.2-0.5-0.6c-0.1-1.3-0.9-2.1-2.1-2.1c-1.2,0-2.1,0.9-2.1,2.1c0,0.2-0.5,0.5-0.6,0.6
					c-0.1,0.1-0.2,0.2-0.2,0.5c0,0,0.1,0.2,0.2,0.2c0.5,0,0.8,0.2,1.4,0.5h0.1c-1.3,0.5-2.2,1.6-2.2,3h0.1h0.5h5.5h0.5h0.1
					C60.8,54.1,59.8,52.8,58.6,52.5z M55.4,51.6c0.2-0.1,0.5-0.5,0.5-0.8c0-0.8,0.7-1.5,1.5-1.5c0.8,0,1.4,0.7,1.5,1.5
					c0,0.2,0.2,0.6,0.5,0.7c-0.2,0.1-0.6,0.1-0.8,0.2c-0.5,0.1-0.9,0.5-1.3,0.5s-0.7-0.1-1.2-0.5C56.1,51.8,55.9,51.7,55.4,51.6z
					 M54.7,54.9c0.2-1.3,1.4-2.2,2.7-2.2c1.4,0,2.4,0.9,2.7,2.2H54.7z"/>
				
					<linearGradient id="XMLID_25_" gradientUnits="userSpaceOnUse" x1="41.6936" y1="55.9458" x2="48.233" y2="55.9458" gradientTransform="matrix(1 0 0 -1 0 106)">
					<stop  offset="0" style="stop-color:#208FC4"/>
					<stop  offset="0.2016" style="stop-color:#2189BB"/>
					<stop  offset="0.5395" style="stop-color:#1A7BAC"/>
					<stop  offset="0.9699" style="stop-color:#126696"/>
					<stop  offset="1" style="stop-color:#126495"/>
				</linearGradient>
				<path id="XMLID_170_" class="st7" d="M46.1,50.4c0.1,0,0.1-0.1,0.2-0.1c0.5-0.1,0.8-0.5,1.2-0.5s0.2-0.1,0.2-0.2
					c0-0.2-0.1-0.2-0.2-0.5S47,48.9,47,48.6c-0.1-1.2-0.9-2-2.1-2c-1.2,0-2,1-2,2.2c0,0.2-0.5,0.5-0.6,0.6c-0.2,0.1-0.5,0.1-0.2,0.5
					c0,0,0.1,0.2,0.2,0.2c0.5,0,0.8,0.2,1.4,0.5h0.1c-1.3,0.5-2.2,1.6-2.2,3h0.1h0.5h5.5h0.5h0.1C48.2,52,47.3,50.9,46.1,50.4z
					 M42.9,49.5c0.2-0.1,0.5-0.5,0.5-0.8c0-0.8,0.7-1.5,1.5-1.5c0.8,0,1.4,0.7,1.5,1.5c0,0.2,0.2,0.6,0.5,0.7
					c-0.2,0.1-0.6,0.1-0.8,0.2c-0.5,0.1-0.9,0.5-1.3,0.5c-0.3,0-0.7-0.1-1.2-0.5C43.6,49.7,43.4,49.6,42.9,49.5z M42.3,52.8
					c0.2-1.3,1.4-2.2,2.7-2.2c1.3,0,2.4,0.9,2.7,2.2H42.3z"/>
				<polygon id="XMLID_8_" class="st2" points="44.9,54.8 40.6,41.6 40.4,42.3 44.6,54.9 				"/>
				<polygon id="XMLID_7_" class="st2" points="59,57.4 54.7,44.3 54.5,44.9 58.7,57.5 				"/>
				
					<linearGradient id="XMLID_29_" gradientUnits="userSpaceOnUse" x1="28.5291" y1="52.8572" x2="67.5568" y2="52.8572" gradientTransform="matrix(1 0 0 -1 0 106)">
					<stop  offset="0" style="stop-color:#1880B5"/>
					<stop  offset="1" style="stop-color:#88C0DC"/>
				</linearGradient>
				<path id="XMLID_6_" class="st8" d="M59.8,53.9c0,0-23.5-0.2-31.3-8c0,0,3,6,14.9,8c0,0-6.6-0.5-10.4-2.7l1.3,2.7
					c0,0,3.6,1.7,3.9,5.1c0,0,5.1-1.2,12.1,0c7,1.2,10.3,2.1,12.1,0.9l2.8-3.9c0,0,2.1-0.9,2.4-2.8C67.6,53.2,63.9,53.9,59.8,53.9z
					 M38.8,58.4l-0.5-0.9c10-0.9,18.3,2.1,18.3,2.1C42.7,56.4,38.8,58.4,38.8,58.4z"/>
			</g>
			
				<linearGradient id="XMLID_30_" gradientUnits="userSpaceOnUse" x1="33.9978" y1="44.6765" x2="62.9921" y2="44.6765" gradientTransform="matrix(1 0 0 -1 0 106)">
				<stop  offset="0" style="stop-color:#1880B5"/>
				<stop  offset="1" style="stop-color:#88C0DC"/>
			</linearGradient>
			<path id="XMLID_5_" class="st9" d="M34.1,61.3c0,0,0.5-0.2,1.2-0.6c0.8-0.2,2-0.7,3.3-0.9c0.7-0.1,1.5-0.2,2.3-0.2
				c0.8,0,1.6-0.1,2.7,0c0.8,0,1.7,0.1,2.8,0.2c0.9,0.1,2,0.2,2.8,0.6c0.9,0.2,1.7,0.5,2.8,0.7c0.8,0.2,1.7,0.5,2.7,0.6
				c0.8,0.1,1.6,0.5,2.4,0.5c0.5,0,0.8,0.1,1.2,0.1c0.5,0,0.7,0.1,1.2,0.1c0.2,0,0.7,0,0.9,0s0.6,0,0.8,0c0.6-0.1,0.9-0.2,1.4-0.5
				s0.7-0.5,0.8-0.6s0.2-0.1,0.2-0.1s-0.1,0.1-0.2,0.2c-0.1,0.1-0.5,0.5-0.7,0.7c-0.2,0.2-0.8,0.6-1.4,0.7c-0.6,0.1-1.3,0.2-2,0.2
				c-0.5,0-0.7,0-1.2,0s-0.8,0-1.3-0.1c-0.8,0-1.6-0.1-2.7-0.2c-0.8-0.1-1.7-0.2-2.7-0.6c-0.9-0.1-1.7-0.5-2.8-0.7
				c-0.9-0.1-1.7-0.5-2.8-0.6c-0.9-0.1-1.7-0.2-2.7-0.2c-0.8,0-1.6-0.1-2.4-0.1s-1.5,0-2.2,0.1c-1.4,0.1-2.4,0.2-3.3,0.6
				c-0.5,0.1-0.7,0.1-0.9,0.2C34.1,61.3,34.1,61.3,34.1,61.3z"/>
			
				<linearGradient id="XMLID_31_" gradientUnits="userSpaceOnUse" x1="38.6075" y1="42.5186" x2="58.6659" y2="42.5186" gradientTransform="matrix(1 0 0 -1 0 106)">
				<stop  offset="0" style="stop-color:#1880B5"/>
				<stop  offset="1" style="stop-color:#88C0DC"/>
			</linearGradient>
			<path id="XMLID_161_" class="st10" d="M38.6,62.2c0,0,0.1,0,0.2,0s0.5-0.1,0.7-0.1s0.6-0.1,0.9-0.1c0.5,0,0.8-0.1,1.4-0.1
				s0.9,0,1.5,0c0.6,0,1.2,0,1.7,0.1c0.6,0,1.3,0.1,1.7,0.2c0.7,0.1,1.3,0.2,2,0.5c0.7,0.1,1.3,0.2,2,0.5c0.6,0.1,1.3,0.2,1.7,0.5
				c0.6,0.1,1.2,0.2,1.6,0.5c0.5,0.2,0.9,0.2,1.5,0.5c0.9,0.1,1.6,0.5,2.2,0.5c0.6,0.1,0.8,0.1,0.8,0.1s-0.2,0-0.8,0.1
				c-0.2,0-0.7,0-0.9,0c-0.5,0-0.8,0-1.4-0.1c-0.6,0-0.9-0.1-1.5-0.1c-0.6-0.1-1.2-0.1-1.6-0.2c-0.2,0-0.6-0.1-0.9-0.1
				c-0.2,0-0.6-0.1-0.9-0.1c-0.6-0.1-1.3-0.2-1.7-0.5c-0.6-0.1-1.3-0.2-1.7-0.5c-0.6-0.1-1.3-0.2-1.7-0.2c-0.2,0-0.6-0.1-0.8-0.1
				s-0.6,0-0.8-0.1c-0.6,0-1.2-0.1-1.5-0.1c-0.5,0-0.9,0-1.3,0c-0.5,0-0.7,0-0.9,0c-0.2,0-0.6,0-0.7,0
				C38.7,62.2,38.6,62.2,38.6,62.2z"/>
		</g>
	</g>
	<g id="XMLID_154_">
		<g id="XMLID_26_">
			<g id="XMLID_27_">
				<g id="XMLID_28_">
					<defs>
						<circle id="XMLID_12_" cx="47.6" cy="51.1" r="25.5"/>
					</defs>
					<clipPath id="XMLID_32_">
						<use xlink:href="#XMLID_12_"  style="overflow:visible;"/>
					</clipPath>
					<g id="XMLID_156_" class="st11">
						
							<linearGradient id="XMLID_33_" gradientUnits="userSpaceOnUse" x1="12.866" y1="37.6153" x2="76.5512" y2="37.6153" gradientTransform="matrix(1 0 0 -1 0 106)">
							<stop  offset="0" style="stop-color:#208FC4"/>
							<stop  offset="1" style="stop-color:#126495"/>
						</linearGradient>
						<path id="XMLID_158_" class="st12" d="M12.9,64.5c0,0,0.2-0.1,0.7-0.2c0.2-0.1,0.6-0.2,0.8-0.5c0.2-0.1,0.7-0.2,1.3-0.5
							c0.9-0.2,2.1-0.6,3.5-0.7c1.4-0.1,2.9-0.1,4.5,0.1c1.6,0.1,3.3,0.6,5.1,0.9c1.7,0.5,3.6,1.2,5.3,1.6c0.9,0.2,1.7,0.6,2.8,0.8
							c0.9,0.2,1.7,0.6,2.8,0.8c1.7,0.6,3.7,0.9,5.5,1.2c1.7,0.2,3.6,0.1,5.3,0c0.5-0.1,0.8-0.1,1.3-0.2c0.6-0.1,0.9-0.1,1.5-0.2
							c0.9-0.1,2-0.5,2.9-0.6c2-0.5,3.7-0.7,5.5-0.9c1.7-0.2,3.6-0.5,5.2-0.5c1.6,0,3.1,0.1,4.5,0.5c1.4,0.2,2.4,0.8,3.3,1.3
							c0.8,0.5,1.4,0.8,1.7,1.3c0.5,0.2,0.6,0.5,0.6,0.5s-0.2,0-0.7-0.1c-0.5-0.1-1.3-0.2-2.1-0.5c-0.8-0.2-2-0.1-3-0.1
							c-1.2,0.1-2.4,0.5-3.8,0.7c-1.4,0.5-3,0.8-4.6,1.4s-3.5,1.2-5.2,1.6c-0.9,0.2-2,0.6-2.9,0.8c-0.5,0.1-0.9,0.2-1.4,0.5
							c-0.6,0.1-1.2,0.2-1.6,0.5c-2.3,0.5-4.6,0.6-6.8,0.2c-2.3-0.2-4.5-0.8-6.5-1.5c-0.9-0.2-2.1-0.7-2.9-1.2
							c-0.9-0.5-2-0.8-2.8-1.3c-1.7-0.8-3.5-1.6-5-2.3c-1.5-0.7-3-1.4-4.4-2c-1.4-0.6-2.7-0.9-3.8-1.3c-1.3-0.2-2.2-0.5-3.1-0.5
							c-0.8,0-1.6-0.1-2.1,0C13.1,64.5,12.9,64.5,12.9,64.5z"/>
						
							<linearGradient id="XMLID_34_" gradientUnits="userSpaceOnUse" x1="15.4968" y1="56.4355" x2="65.8811" y2="56.4355" gradientTransform="matrix(0.9998 -1.820000e-002 -1.820000e-002 -0.9998 9.4294 120.3824)">
							<stop  offset="0" style="stop-color:#7DB9CE"/>
							<stop  offset="1" style="stop-color:#2CA1C6"/>
						</linearGradient>
						<path id="XMLID_3_" class="st13" d="M74.3,66.2c0,0-6.5-6.8-13.9-6.7c-7.7,0.1-8.5,2.4-16,2.7c-7.7,0.1-9.9-3.1-20.4-0.5
							c8.9,0.6,14.1,5,22.1,5.1C58.6,66.9,63.3,60.8,74.3,66.2z"/>
					</g>
				</g>
			</g>
		</g>
	</g>
	
		<linearGradient id="XMLID_35_" gradientUnits="userSpaceOnUse" x1="34.2597" y1="54.1593" x2="40.6466" y2="54.1593" gradientTransform="matrix(1 0 0 -1 0 106)">
		<stop  offset="0" style="stop-color:#208FC4"/>
		<stop  offset="1" style="stop-color:#126495"/>
	</linearGradient>
	<polygon id="XMLID_2_" class="st14" points="40.6,42.9 40.6,42.9 34.2,60.8 40.6,44.1 	"/>
	
		<linearGradient id="XMLID_36_" gradientUnits="userSpaceOnUse" x1="48.3791" y1="51.5661" x2="54.766" y2="51.5661" gradientTransform="matrix(1 0 0 -1 0 106)">
		<stop  offset="0" style="stop-color:#208FC4"/>
		<stop  offset="1" style="stop-color:#126495"/>
	</linearGradient>
	<polygon id="XMLID_238_" class="st15" points="54.7,45.4 54.7,45.4 48.5,63.4 54.7,46.7 	"/>
</g>
</svg>
