<?xml version="1.0" encoding="utf-8"?>
<!-- Generator: Adobe Illustrator 19.0.0, SVG Export Plug-In . SVG Version: 6.00 Build 0)  -->
<svg version="1.1" id="Camada_1" xmlns="http://www.w3.org/2000/svg" xmlns:xlink="http://www.w3.org/1999/xlink" x="0px" y="0px"
	 viewBox="0 0 100 100" style="enable-background:new 0 0 100 100;" xml:space="preserve">
<style type="text/css">
	.st0{fill:#AEADB3;}
	.st1{fill:#C2C3C9;}
</style>
<rect id="XMLID_1_" x="0.2" class="st0" width="100" height="100"/>
<g id="XMLID_3_">
	<path id="XMLID_4_" class="st1" d="M19.1,49.3v-5.1c1.2,0,1.8-0.4,1.8-1.3c0-0.8-0.4-1.2-1.3-1.2c-0.9,0-1.4,0.6-1.4,1.7V56h-5.8
		V43.9c0-1.3,0.1-2.3,0.4-3.1c0.3-0.8,0.7-1.6,1.3-2.2c0.7-0.8,1.5-1.4,2.6-1.8c1-0.4,2.1-0.7,3.2-0.7c2,0,3.6,0.7,5,2
		c1.3,1.3,2,3,2,4.9c0,1.9-0.6,3.5-1.8,4.6c-1.1,1.1-2.8,1.6-5,1.6L19.1,49.3z"/>
	<path id="XMLID_6_" class="st1" d="M36.5,45.7V51h-1.9V56h-5.8V44c0-2.3,0.7-4.1,2.1-5.6c1.4-1.5,3.2-2.2,5.3-2.2
		c2.3,0,4.3,1,5.9,3l-4.7,3.5c-0.3-0.7-0.7-1.1-1.4-1.1c-0.9,0-1.3,0.6-1.3,1.9v2.4H36.5z"/>
	<path id="XMLID_8_" class="st1" d="M50,36.6l-5.3,23.1h-2.6l5.3-23.1H50z"/>
	<path id="XMLID_10_" class="st1" d="M61.6,45.1h5.5c1.2,1.5,1.8,3,1.8,4.7c0,1.9-0.7,3.5-2.1,4.8c-1.4,1.3-3.1,1.9-5.1,1.9
		c-2.6,0-4.9-1-6.7-3c-1.8-2-2.8-4.4-2.8-7.3c0-2.9,0.9-5.3,2.8-7.2c1.9-1.9,4.2-2.9,7-2.9c1,0,2,0.2,3.2,0.6v5.8
		c-0.9-0.4-1.7-0.6-2.5-0.6c-1.4,0-2.5,0.4-3.3,1.3c-0.9,0.8-1.3,1.9-1.3,3.3c0,1.4,0.4,2.5,1.2,3.3c0.8,0.8,1.9,1.2,3.2,1.2
		c0.9,0,1.3-0.3,1.3-0.8c0-0.4-0.3-0.6-0.9-0.6h-1.4V45.1z"/>
	<path id="XMLID_12_" class="st1" d="M80.4,36.1c2.8,0,5.1,1,7.1,3s3,4.4,3,7.2c0,2.8-1,5.3-3,7.2c-2,2-4.4,3-7.2,3
		c-2.8,0-5.2-1-7.2-3c-2-2-3-4.4-3-7.2c0-2.9,1-5.3,3-7.2C75.1,37.1,77.5,36.1,80.4,36.1z M80.3,41.8c-1.2,0-2.2,0.4-3,1.3
		C76.4,44,76,45.1,76,46.3s0.4,2.3,1.3,3.2c0.8,0.9,1.9,1.3,3,1.3c1.2,0,2.2-0.4,3-1.3c0.8-0.9,1.2-1.9,1.2-3.2
		c0-1.2-0.4-2.3-1.2-3.2C82.5,42.2,81.5,41.8,80.3,41.8z"/>
</g>
</svg>
