<?xml version="1.0" encoding="utf-8"?>
<!-- Generator: Adobe Illustrator 19.0.0, SVG Export Plug-In . SVG Version: 6.00 Build 0)  -->
<svg version="1.1" id="Camada_1" xmlns="http://www.w3.org/2000/svg" xmlns:xlink="http://www.w3.org/1999/xlink" x="0px" y="0px"
	 viewBox="0 0 500 500" style="enable-background:new 0 0 500 500;" xml:space="preserve">
<style type="text/css">
	.st0{fill:#85A8A2;}
	.st1{clip-path:url(#XMLID_2_);}
	.st2{fill:#DDC0A7;}
	.st3{fill:#E7D0BA;}
	.st4{fill:#EEEDEC;}
	.st5{fill:#416866;}
	.st6{fill:#4D7A77;}
	.st7{fill:#CBCBCB;}
	.st8{fill:#FFFFFF;}
	.st9{fill:#CEB19D;}
	.st10{fill:#D3BDAB;}
	.st11{fill:#DDD9D3;}
	.st12{fill:#385A5A;}
	.st13{fill:#5A554B;}
	.st14{fill:#444039;}
	.st15{fill:#2F2C27;}
	.st16{fill:#443F39;}
</style>
<g id="XMLID_369_">
	<circle id="XMLID_364_" class="st0" cx="253.9" cy="252.8" r="233.1"/>
	<g id="XMLID_365_">
		<defs>
			<circle id="XMLID_362_" cx="253.9" cy="252.8" r="233.1"/>
		</defs>
		<clipPath id="XMLID_2_">
			<use xlink:href="#XMLID_362_"  style="overflow:visible;"/>
		</clipPath>
		<g id="XMLID_272_" class="st1">
			<g id="XMLID_305_">
				<path id="XMLID_316_" class="st2" d="M253.9,225.8H200v41.8v27.9c0,10.3,17.1,43.2,53.9,43.2V225.8z"/>
				<g id="XMLID_314_">
					<path id="XMLID_315_" class="st3" d="M253.9,87.8c-60.7,0-69.7,41.8-69.7,95.5c0,59.3,35.5,98.7,69.7,98.7V87.8z"/>
				</g>
				<path id="XMLID_313_" class="st3" d="M185,176.1c-4.3-16-10.1-16-12.6-11.9c-2.5,4-0.6,13.7,3.6,29.2
					c3.4,12.4,6.7,18.2,11.5,13.5C192.2,202.2,185,176.1,185,176.1z"/>
				<path id="XMLID_312_" class="st4" d="M176.6,307.8c-0.2,0-0.3,0.1-0.5,0.1l0,0h0c-6,0.9-95.3,9.5-104.3,45.8
					c-5.6,22.2-16.9,132.2-16.9,132.2h176.9h9.6h12.4v-145L176.6,307.8z"/>
				<g id="XMLID_309_">
					<polygon id="XMLID_311_" class="st5" points="253.9,380.8 237.4,380.8 233.9,485.8 253.9,485.8 					"/>
					<polygon id="XMLID_310_" class="st6" points="253.9,340.8 239.4,340.8 226.9,362.8 237.4,380.8 253.9,380.8 					"/>
				</g>
				<g id="XMLID_306_">
					<path id="XMLID_308_" class="st7" d="M218.9,308.6L200,290.3c-9.6,5.6-23.4,17.5-23.4,17.5l63.8,76.7l13.5-43.7l-1-1.1
						L218.9,308.6z"/>
					<path id="XMLID_307_" class="st8" d="M219.9,307.8L200,290.3c-9.6,5.4-23.4,17.5-23.4,17.5l63.8,71.6l13.5-38.6v-3.1
						L219.9,307.8z"/>
				</g>
			</g>
			<g id="XMLID_293_">
				<path id="XMLID_304_" class="st9" d="M253.9,225.8h53.9v41.8v27.9c0,10.3-17.1,43.2-53.9,43.2V225.8z"/>
				<g id="XMLID_302_">
					<path id="XMLID_303_" class="st10" d="M253.9,87.8c60.7,0,69.7,41.8,69.7,95.5c0,59.3-35.5,98.7-69.7,98.7V87.8z"/>
				</g>
				<path id="XMLID_301_" class="st10" d="M322.7,176.1c4.3-16,10.1-16,12.6-11.9s0.6,13.7-3.6,29.2c-3.4,12.4-6.7,18.2-11.5,13.5
					C315.5,202.2,322.7,176.1,322.7,176.1z"/>
				<path id="XMLID_300_" class="st11" d="M331.1,307.8c0.2,0,0.3,0.1,0.5,0.1l0,0h0c6,0.9,95.3,9.5,104.3,45.8
					c5.6,22.2,16.9,132.2,16.9,132.2H275.9h-9.6h-12.4v-145L331.1,307.8z"/>
				<g id="XMLID_297_">
					<polygon id="XMLID_299_" class="st12" points="253.9,380.8 270.3,380.8 273.8,485.8 253.9,485.8 					"/>
					<polygon id="XMLID_298_" class="st5" points="253.9,340.8 268.3,340.8 280.8,362.8 270.3,380.8 253.9,380.8 					"/>
				</g>
				<g id="XMLID_294_">
					<path id="XMLID_296_" class="st7" d="M288.8,308.6l18.9-18.3c9.6,5.6,23.4,17.5,23.4,17.5l-63.8,76.7l-13.5-43.7l1-1.1
						L288.8,308.6z"/>
					<path id="XMLID_295_" class="st8" d="M287.8,307.8l19.9-17.5c9.6,5.4,23.4,17.5,23.4,17.5l-63.8,71.6l-13.5-38.6v-3.1
						L287.8,307.8z"/>
				</g>
			</g>
			<path id="XMLID_70_" class="st13" d="M253.9,113.2c-27.4,0-43-7.2-43-7.2s-0.8,4.6-15.3,27.5c-14.5,22.9-10.1,67.6-10.1,67.6
				s-15.3-26.7-11.3-73.1c5.3-61.6,49.2-72.4,79.7-72.4L253.9,113.2z"/>
			<path id="XMLID_265_" class="st14" d="M253.9,113.2c27.4,0,43-7.2,43-7.2s0.8,4.6,15.3,27.5c14.5,22.9,10.1,67.6,10.1,67.6
				s15.3-26.7,11.3-73.1c-5.3-61.6-49.2-72.4-79.7-72.4V113.2z"/>
			<g id="XMLID_51_">
				<path id="XMLID_275_" class="st15" d="M164.5,309.4c-25.8,3.7-85.5,15-92.8,44.3c-5.6,22.2-16.9,132.2-16.9,132.2h168.7
					L164.5,309.4z"/>
				<polygon id="XMLID_266_" class="st16" points="155.7,310.8 148.2,389.6 176.6,397.6 157.7,453 195.6,485.8 223.6,485.8 
					164.5,309.4 				"/>
			</g>
			<g id="XMLID_289_">
				<path id="XMLID_291_" class="st15" d="M343.2,309.4c25.8,3.7,85.5,15,92.8,44.3c5.6,22.2,16.9,132.2,16.9,132.2H284.1
					L343.2,309.4z"/>
				<polygon id="XMLID_290_" class="st16" points="352,310.8 359.5,389.6 331.1,397.6 350,453 312.1,485.8 284.1,485.8 343.2,309.4 
									"/>
			</g>
		</g>
	</g>
</g>
</svg>
