<?xml version="1.0" encoding="utf-8"?>
<!-- Generator: Adobe Illustrator 19.0.0, SVG Export Plug-In . SVG Version: 6.00 Build 0)  -->
<svg version="1.1" id="Camada_1" xmlns="http://www.w3.org/2000/svg" xmlns:xlink="http://www.w3.org/1999/xlink" x="0px" y="0px"
	 viewBox="125 0 450 200" style="enable-background:new 125 0 450 200;" xml:space="preserve">
<style type="text/css">
	.st0{opacity:0.42;fill:#AEC2D1;enable-background:new    ;}
	.st1{fill:#653701;}
	.st2{fill:#FFFFFF;}
	.st3{fill:#59320E;}
	.st4{fill:#EFEFEF;}
	.st5{fill:#8D5200;}
	.st6{fill:#E46101;}
	.st7{fill:none;stroke:#FCFCFC;stroke-width:2;stroke-linecap:round;stroke-linejoin:round;stroke-miterlimit:10;}
	.st8{fill:#C46B00;}
	.st9{font-family:'Lato-Bold';}
	.st10{font-size:35px;}
	.st11{fill:#4A221A;}
</style>
<g id="XMLID_15_">
	<path id="XMLID_22_" class="st0" d="M542.3,85.8l-4.7-6l0,0l-8.8-11.2c-4.5-5.8-10.8-9.6-17.8-11v-0.4c0-10.8-8.8-19.6-19.6-19.6
		h-209h-18.8h-2.5c-5.8,0-10.5,4.7-10.5,10.5V57H245h-9.1l0,0c-0.1-10.7-8.8-19.4-19.5-19.4h-64.6c-10.8,0-19.5,8.8-19.5,19.6v51.3
		c0,23.4,19,42.4,42.4,42.4H213l0,0h65.4h9.1h213c7.5,9.2,18.9,15.1,31.7,15.1c22.5,0,40.8-18.2,40.8-40.8
		C572.9,106.2,559.9,90.3,542.3,85.8z"/>
	<g id="XMLID_23_">
		<path id="XMLID_21_" class="st1" d="M276.9,32h-23.8c-4.4,0-8,3.6-8,8v30.6h31.8V32z"/>
		<path id="XMLID_20_" class="st2" d="M543.2,107.3l-20,26.1c-5.7,7.5-14.6,11.8-24,11.8H207.4c-23.4,0-42.4-19-42.4-42.4V51.4
			h334.5c9.3,0,18,4.3,23.7,11.6l19.9,25.3C547.4,93.8,547.5,101.7,543.2,107.3z"/>
		<path id="XMLID_19_" class="st3" d="M230.3,102.9V51.6c0-10.8-8.8-19.6-19.6-19.6h-64.5c-10.8,0-19.5,8.8-19.5,19.6v51.3
			c0,23.4,19,42.4,42.4,42.4h103.7C249.3,145.2,230.3,126.3,230.3,102.9z"/>
		<path id="XMLID_18_" class="st4" d="M281.8,145.2h-9.1c-23.4,0-42.4-19-42.4-42.4V51.4h9.1v51.4
			C239.4,126.3,258.4,145.2,281.8,145.2z"/>
		<path id="XMLID_17_" class="st5" d="M275.1,74.9h216.3c7.8,0,14.1-6.3,14.1-14.1v-9.3c0-10.8-8.8-19.6-19.6-19.6H258.1
			c4,5.5,6.4,12.2,6.4,19.6v12.8C264.5,70.2,269.2,74.9,275.1,74.9z"/>
		<circle id="XMLID_10_" class="st6" cx="526.5" cy="119.6" r="40.8"/>
		<path id="XMLID_9_" class="st4" d="M483.6,114.2c0,12.4,5.6,23.6,14.4,31h1.2c9.4,0,18.3-4.4,24-11.8l20-26.1
			c4.3-5.6,4.3-13.5-0.1-19L532,74.2c-2.5-0.5-5-0.7-7.6-0.7C501.9,73.4,483.6,91.7,483.6,114.2z"/>
		<circle id="XMLID_7_" class="st5" cx="526.5" cy="119.6" r="40.8"/>
		<path id="XMLID_28_" class="st2" d="M526.5,85.9c-18.6,0-33.7,15.1-33.7,33.7s15.1,33.7,33.7,33.7c18.6,0,33.7-15.1,33.7-33.7
			S545.1,85.9,526.5,85.9z M526.5,149c-16.2,0-29.4-13.2-29.4-29.4s13.2-29.4,29.4-29.4c16.2,0,29.4,13.2,29.4,29.4
			C555.9,135.9,542.7,149,526.5,149z"/>
		<g>
			<polyline class="st7" points="542,124 539,140.2 512.5,140.2 509.6,124 			"/>
			<path class="st7" d="M542,123.8c2.8-1.1,5.9-3.8,5.9-7.3c0-4-3.3-7.2-7.4-7.2c-0.1,0-0.1,0-0.2,0c0.1-0.5,0.2-1,0.2-1.5
				c0-3.2-2.6-5.7-5.9-5.7c-1.4,0-2.7,0.5-3.8,1.3c-2.5-2.8-1.3-7.4-1.3-7.4c-5.5,2-8.1,5.4-9.1,7.3c-1-0.8-2.2-1.2-3.6-1.2
				c-3.3,0-5.9,2.5-5.9,5.7c0,0.5,0.1,1,0.2,1.5c-0.1,0-0.1,0-0.2,0c-4.1,0-7.4,3.2-7.4,7.2c0,3.5,2.3,5.8,5.9,7.2
				c8.1,3.3,16.5-1.6,22.6,0.4C536.5,125.6,539.2,124.9,542,123.8z"/>
			<line class="st7" x1="524.3" y1="108.9" x2="527.3" y2="110.5"/>
			<line class="st7" x1="515.1" y1="118.1" x2="518.2" y2="116.6"/>
			<line class="st7" x1="535.7" y1="115" x2="537.2" y2="118.1"/>
		</g>
		<g>
			<path class="st8" d="M257.4,101.8h-6V91.1h6v1.1h-4.7v3.4h4.4v1.1h-4.4v3.9h4.7V101.8z"/>
			<path class="st8" d="M265.1,101.8v-5.2c0-0.7-0.1-1.1-0.4-1.5s-0.8-0.5-1.4-0.5c-0.8,0-1.5,0.2-1.8,0.7s-0.6,1.2-0.6,2.2v4.2
				h-1.2v-8h1l0.2,1.1h0.1c0.2-0.4,0.6-0.7,1-0.9s0.9-0.3,1.5-0.3c1,0,1.7,0.2,2.2,0.7c0.5,0.5,0.7,1.2,0.7,2.2v5.2H265.1z"/>
			<path class="st8" d="M272,101.9c-1.2,0-2.1-0.4-2.7-1.1c-0.6-0.7-1-1.7-1-3c0-1.3,0.3-2.4,1-3.1s1.6-1.1,2.8-1.1
				c0.4,0,0.8,0,1.2,0.1s0.7,0.2,0.9,0.3l-0.4,1c-0.3-0.1-0.6-0.2-0.9-0.3c-0.3-0.1-0.6-0.1-0.8-0.1c-1.6,0-2.4,1-2.4,3.1
				c0,1,0.2,1.7,0.6,2.3c0.4,0.5,1,0.8,1.8,0.8c0.7,0,1.4-0.1,2.1-0.4v1.1C273.5,101.8,272.9,101.9,272,101.9z"/>
			<path class="st8" d="M282.9,97.8c0,1.3-0.3,2.3-1,3.1c-0.7,0.7-1.6,1.1-2.7,1.1c-0.7,0-1.4-0.2-1.9-0.5s-1-0.8-1.3-1.5
				s-0.5-1.4-0.5-2.2c0-1.3,0.3-2.3,1-3.1c0.7-0.7,1.6-1.1,2.7-1.1c1.1,0,2,0.4,2.7,1.1C282.6,95.5,282.9,96.5,282.9,97.8z
				 M276.8,97.8c0,1,0.2,1.8,0.6,2.3s1,0.8,1.8,0.8s1.4-0.3,1.8-0.8c0.4-0.5,0.6-1.3,0.6-2.3c0-1-0.2-1.8-0.6-2.3
				c-0.4-0.5-1-0.8-1.8-0.8c-0.8,0-1.4,0.3-1.8,0.8S276.8,96.7,276.8,97.8z"/>
			<path class="st8" d="M290.5,101.8v-5.2c0-0.7-0.1-1.1-0.4-1.5s-0.8-0.5-1.4-0.5c-0.8,0-1.5,0.2-1.8,0.7s-0.6,1.2-0.6,2.2v4.2H285
				v-8h1l0.2,1.1h0.1c0.2-0.4,0.6-0.7,1-0.9s0.9-0.3,1.5-0.3c1,0,1.7,0.2,2.2,0.7c0.5,0.5,0.7,1.2,0.7,2.2v5.2H290.5z"/>
			<path class="st8" d="M296.8,100.9c0.2,0,0.4,0,0.6,0c0.2,0,0.4-0.1,0.5-0.1v0.9c-0.1,0.1-0.3,0.1-0.6,0.2c-0.3,0-0.5,0.1-0.7,0.1
				c-1.6,0-2.3-0.8-2.3-2.5v-4.8h-1.1v-0.6l1.1-0.5l0.5-1.7h0.7v1.9h2.3v0.9h-2.3v4.7c0,0.5,0.1,0.9,0.3,1.1
				S296.4,100.9,296.8,100.9z"/>
			<path class="st8" d="M303.2,93.6c0.4,0,0.7,0,1,0.1l-0.2,1.1c-0.3-0.1-0.6-0.1-0.9-0.1c-0.6,0-1.2,0.3-1.7,0.8
				c-0.5,0.5-0.7,1.2-0.7,2v4.3h-1.2v-8h1l0.1,1.5h0.1c0.3-0.5,0.7-0.9,1.1-1.2S302.7,93.6,303.2,93.6z"/>
			<path class="st8" d="M309.1,101.9c-1.2,0-2.1-0.4-2.8-1.1s-1-1.7-1-3c0-1.3,0.3-2.3,1-3.1c0.6-0.8,1.5-1.1,2.6-1.1
				c1,0,1.8,0.3,2.4,1c0.6,0.7,0.9,1.5,0.9,2.6V98h-5.5c0,0.9,0.3,1.7,0.7,2.1c0.5,0.5,1.1,0.7,1.9,0.7c0.9,0,1.7-0.2,2.6-0.5v1.1
				c-0.4,0.2-0.8,0.3-1.2,0.4C310.1,101.9,309.6,101.9,309.1,101.9z M308.7,94.6c-0.6,0-1.2,0.2-1.5,0.6s-0.6,1-0.7,1.7h4.2
				c0-0.8-0.2-1.4-0.5-1.8S309.4,94.6,308.7,94.6z"/>
			<path class="st8" d="M322.9,101.8l-0.2-1.1h-0.1c-0.4,0.5-0.8,0.8-1.2,1c-0.4,0.2-0.9,0.3-1.5,0.3c-0.8,0-1.4-0.2-1.9-0.6
				c-0.5-0.4-0.7-1-0.7-1.8c0-1.6,1.3-2.5,3.9-2.5l1.4,0v-0.5c0-0.6-0.1-1.1-0.4-1.4c-0.3-0.3-0.7-0.5-1.3-0.5
				c-0.7,0-1.4,0.2-2.3,0.6l-0.4-0.9c0.4-0.2,0.8-0.4,1.3-0.5c0.5-0.1,0.9-0.2,1.4-0.2c1,0,1.7,0.2,2.1,0.6c0.5,0.4,0.7,1.1,0.7,2
				v5.5H322.9z M320.2,100.9c0.8,0,1.4-0.2,1.8-0.6c0.4-0.4,0.6-1,0.6-1.7v-0.7l-1.2,0.1c-1,0-1.7,0.2-2.1,0.5
				c-0.4,0.3-0.6,0.7-0.6,1.2c0,0.4,0.1,0.8,0.4,1C319.3,100.8,319.7,100.9,320.2,100.9z"/>
			<path class="st8" d="M331.5,99.6c0,0.7-0.3,1.3-0.8,1.7s-1.3,0.6-2.3,0.6c-1.1,0-1.9-0.2-2.5-0.5v-1.1c0.4,0.2,0.8,0.3,1.2,0.5
				c0.4,0.1,0.9,0.2,1.3,0.2c0.6,0,1.1-0.1,1.5-0.3c0.3-0.2,0.5-0.5,0.5-0.9c0-0.3-0.1-0.6-0.4-0.8c-0.3-0.2-0.8-0.5-1.6-0.8
				c-0.7-0.3-1.3-0.5-1.6-0.7c-0.3-0.2-0.5-0.4-0.7-0.7c-0.2-0.3-0.2-0.6-0.2-0.9c0-0.7,0.3-1.2,0.8-1.5c0.5-0.4,1.3-0.6,2.2-0.6
				c0.9,0,1.7,0.2,2.5,0.5l-0.4,1c-0.8-0.3-1.5-0.5-2.2-0.5c-0.6,0-1,0.1-1.3,0.3s-0.4,0.4-0.4,0.7c0,0.2,0.1,0.4,0.2,0.5
				c0.1,0.2,0.3,0.3,0.5,0.4s0.7,0.3,1.4,0.6c1,0.3,1.6,0.7,1.9,1C331.3,98.6,331.5,99.1,331.5,99.6z"/>
			<path class="st8" d="M347.6,101.8v-5.2c0-0.6-0.1-1.1-0.4-1.4s-0.7-0.5-1.3-0.5c-0.8,0-1.3,0.2-1.7,0.7s-0.5,1.1-0.5,2v4.5h-1.2
				v-5.2c0-0.6-0.1-1.1-0.4-1.4s-0.7-0.5-1.3-0.5c-0.8,0-1.3,0.2-1.7,0.7c-0.4,0.5-0.5,1.2-0.5,2.2v4.2h-1.2v-8h1l0.2,1.1h0.1
				c0.2-0.4,0.6-0.7,1-0.9c0.4-0.2,0.9-0.3,1.4-0.3c1.3,0,2.1,0.5,2.5,1.4h0.1c0.2-0.4,0.6-0.8,1-1s1-0.4,1.6-0.4
				c0.9,0,1.6,0.2,2,0.7c0.5,0.5,0.7,1.2,0.7,2.2v5.2H347.6z"/>
			<path class="st8" d="M354.7,101.9c-1.2,0-2.1-0.4-2.8-1.1c-0.7-0.7-1-1.7-1-3c0-1.3,0.3-2.3,1-3.1c0.6-0.8,1.5-1.1,2.6-1.1
				c1,0,1.8,0.3,2.4,1c0.6,0.7,0.9,1.5,0.9,2.6V98h-5.5c0,0.9,0.3,1.7,0.7,2.1c0.5,0.5,1.1,0.7,1.9,0.7c0.9,0,1.7-0.2,2.6-0.5v1.1
				c-0.4,0.2-0.8,0.3-1.2,0.4C355.7,101.9,355.3,101.9,354.7,101.9z M354.4,94.6c-0.6,0-1.2,0.2-1.5,0.6c-0.4,0.4-0.6,1-0.7,1.7h4.2
				c0-0.8-0.2-1.4-0.5-1.8S355,94.6,354.4,94.6z"/>
			<path class="st8" d="M361,101.8h-1.2V90.4h1.2V101.8z"/>
			<path class="st8" d="M369,101.8v-5.2c0-0.7-0.1-1.1-0.4-1.5c-0.3-0.3-0.8-0.5-1.4-0.5c-0.8,0-1.5,0.2-1.8,0.7
				c-0.4,0.5-0.6,1.2-0.6,2.3v4.2h-1.2V90.4h1.2v3.4c0,0.4,0,0.8-0.1,1h0.1c0.2-0.4,0.6-0.7,1-0.9c0.4-0.2,0.9-0.3,1.5-0.3
				c1,0,1.7,0.2,2.2,0.7c0.5,0.5,0.7,1.2,0.7,2.2v5.2H369z"/>
			<path class="st8" d="M379.7,97.8c0,1.3-0.3,2.3-1,3.1c-0.7,0.7-1.6,1.1-2.7,1.1c-0.7,0-1.4-0.2-1.9-0.5s-1-0.8-1.3-1.5
				c-0.3-0.6-0.5-1.4-0.5-2.2c0-1.3,0.3-2.3,1-3.1c0.7-0.7,1.6-1.1,2.7-1.1c1.1,0,2,0.4,2.7,1.1C379.3,95.5,379.7,96.5,379.7,97.8z
				 M373.6,97.8c0,1,0.2,1.8,0.6,2.3s1,0.8,1.8,0.8s1.4-0.3,1.8-0.8c0.4-0.5,0.6-1.3,0.6-2.3c0-1-0.2-1.8-0.6-2.3
				c-0.4-0.5-1-0.8-1.8-0.8c-0.8,0-1.4,0.3-1.8,0.8S373.6,96.7,373.6,97.8z"/>
			<path class="st8" d="M385.5,93.6c0.4,0,0.7,0,1,0.1l-0.2,1.1c-0.3-0.1-0.6-0.1-0.9-0.1c-0.6,0-1.2,0.3-1.7,0.8
				c-0.5,0.5-0.7,1.2-0.7,2v4.3h-1.2v-8h1l0.1,1.5h0.1c0.3-0.5,0.7-0.9,1.1-1.2S385,93.6,385.5,93.6z"/>
			<path class="st8" d="M391.3,101.9c-1.2,0-2.1-0.4-2.8-1.1c-0.7-0.7-1-1.7-1-3c0-1.3,0.3-2.3,1-3.1c0.6-0.8,1.5-1.1,2.6-1.1
				c1,0,1.8,0.3,2.4,1c0.6,0.7,0.9,1.5,0.9,2.6V98h-5.5c0,0.9,0.3,1.7,0.7,2.1c0.5,0.5,1.1,0.7,1.9,0.7c0.9,0,1.7-0.2,2.6-0.5v1.1
				c-0.4,0.2-0.8,0.3-1.2,0.4C392.3,101.9,391.9,101.9,391.3,101.9z M391,94.6c-0.6,0-1.2,0.2-1.5,0.6c-0.4,0.4-0.6,1-0.7,1.7h4.2
				c0-0.8-0.2-1.4-0.5-1.8S391.6,94.6,391,94.6z"/>
			<path class="st8" d="M401.5,99.6c0,0.7-0.3,1.3-0.8,1.7s-1.3,0.6-2.3,0.6c-1.1,0-1.9-0.2-2.5-0.5v-1.1c0.4,0.2,0.8,0.3,1.2,0.5
				c0.4,0.1,0.9,0.2,1.3,0.2c0.6,0,1.1-0.1,1.5-0.3c0.3-0.2,0.5-0.5,0.5-0.9c0-0.3-0.1-0.6-0.4-0.8c-0.3-0.2-0.8-0.5-1.6-0.8
				c-0.7-0.3-1.3-0.5-1.6-0.7c-0.3-0.2-0.5-0.4-0.7-0.7c-0.2-0.3-0.2-0.6-0.2-0.9c0-0.7,0.3-1.2,0.8-1.5c0.5-0.4,1.3-0.6,2.2-0.6
				c0.9,0,1.7,0.2,2.5,0.5l-0.4,1c-0.8-0.3-1.5-0.5-2.2-0.5c-0.6,0-1,0.1-1.3,0.3s-0.4,0.4-0.4,0.7c0,0.2,0.1,0.4,0.2,0.5
				c0.1,0.2,0.3,0.3,0.5,0.4s0.7,0.3,1.4,0.6c1,0.3,1.6,0.7,1.9,1C401.3,98.6,401.5,99.1,401.5,99.6z"/>
			<path class="st8" d="M411.1,101.9c-0.5,0-1-0.1-1.4-0.3c-0.4-0.2-0.8-0.5-1.1-0.9h-0.1c0.1,0.5,0.1,0.9,0.1,1.3v3.3h-1.2V93.8h1
				l0.2,1.1h0.1c0.3-0.4,0.7-0.8,1.1-1s0.9-0.3,1.4-0.3c1.1,0,1.9,0.4,2.5,1.1c0.6,0.7,0.9,1.7,0.9,3.1c0,1.3-0.3,2.3-0.9,3.1
				C413,101.6,412.2,101.9,411.1,101.9z M411,94.7c-0.8,0-1.4,0.2-1.8,0.7c-0.4,0.5-0.6,1.2-0.6,2.2v0.3c0,1.1,0.2,1.9,0.6,2.4
				c0.4,0.5,1,0.7,1.8,0.7c0.7,0,1.2-0.3,1.6-0.8c0.4-0.6,0.6-1.3,0.6-2.3c0-1-0.2-1.8-0.6-2.3C412.2,94.9,411.7,94.7,411,94.7z"/>
			<path class="st8" d="M421.5,101.8l-0.2-1.1h-0.1c-0.4,0.5-0.8,0.8-1.2,1c-0.4,0.2-0.9,0.3-1.5,0.3c-0.8,0-1.4-0.2-1.9-0.6
				c-0.5-0.4-0.7-1-0.7-1.8c0-1.6,1.3-2.5,3.9-2.5l1.4,0v-0.5c0-0.6-0.1-1.1-0.4-1.4c-0.3-0.3-0.7-0.5-1.3-0.5
				c-0.7,0-1.4,0.2-2.3,0.6l-0.4-0.9c0.4-0.2,0.8-0.4,1.3-0.5c0.5-0.1,0.9-0.2,1.4-0.2c1,0,1.7,0.2,2.1,0.6c0.5,0.4,0.7,1.1,0.7,2
				v5.5H421.5z M418.8,100.9c0.8,0,1.4-0.2,1.8-0.6c0.4-0.4,0.6-1,0.6-1.7v-0.7l-1.2,0.1c-1,0-1.7,0.2-2.1,0.5
				c-0.4,0.3-0.6,0.7-0.6,1.2c0,0.4,0.1,0.8,0.4,1C417.9,100.8,418.3,100.9,418.8,100.9z"/>
			<path class="st8" d="M430.4,100.7L430.4,100.7c-0.6,0.8-1.5,1.2-2.6,1.2c-1.1,0-1.9-0.4-2.5-1.1c-0.6-0.7-0.9-1.7-0.9-3.1
				c0-1.3,0.3-2.4,0.9-3.1s1.4-1.1,2.4-1.1c1.1,0,1.9,0.4,2.5,1.2h0.1l-0.1-0.6l0-0.6v-3.3h1.2v11.4h-1L430.4,100.7z M428,100.9
				c0.8,0,1.4-0.2,1.8-0.7c0.4-0.5,0.6-1.2,0.6-2.2v-0.3c0-1.1-0.2-1.9-0.6-2.4c-0.4-0.5-1-0.7-1.8-0.7c-0.7,0-1.3,0.3-1.6,0.8
				c-0.4,0.6-0.6,1.3-0.6,2.3c0,1,0.2,1.8,0.6,2.3S427.2,100.9,428,100.9z"/>
			<path class="st8" d="M439.1,101.8l-0.2-1.1h-0.1c-0.4,0.5-0.8,0.8-1.2,1c-0.4,0.2-0.9,0.3-1.5,0.3c-0.8,0-1.4-0.2-1.9-0.6
				c-0.5-0.4-0.7-1-0.7-1.8c0-1.6,1.3-2.5,3.9-2.5l1.4,0v-0.5c0-0.6-0.1-1.1-0.4-1.4c-0.3-0.3-0.7-0.5-1.3-0.5
				c-0.7,0-1.4,0.2-2.3,0.6l-0.4-0.9c0.4-0.2,0.8-0.4,1.3-0.5c0.5-0.1,0.9-0.2,1.4-0.2c1,0,1.7,0.2,2.1,0.6c0.5,0.4,0.7,1.1,0.7,2
				v5.5H439.1z M436.3,100.9c0.8,0,1.4-0.2,1.8-0.6c0.4-0.4,0.6-1,0.6-1.7v-0.7l-1.2,0.1c-1,0-1.7,0.2-2.1,0.5
				c-0.4,0.3-0.6,0.7-0.6,1.2c0,0.4,0.1,0.8,0.4,1C435.5,100.8,435.8,100.9,436.3,100.9z"/>
			<path class="st8" d="M446.1,93.6c0.4,0,0.7,0,1,0.1l-0.2,1.1c-0.3-0.1-0.6-0.1-0.9-0.1c-0.6,0-1.2,0.3-1.7,0.8
				c-0.5,0.5-0.7,1.2-0.7,2v4.3h-1.2v-8h1l0.1,1.5h0.1c0.3-0.5,0.7-0.9,1.1-1.2S445.6,93.6,446.1,93.6z"/>
			<path class="st8" d="M448.5,91.6c0-0.3,0.1-0.5,0.2-0.6c0.1-0.1,0.3-0.2,0.5-0.2c0.2,0,0.4,0.1,0.5,0.2c0.1,0.1,0.2,0.3,0.2,0.6
				s-0.1,0.5-0.2,0.6c-0.1,0.1-0.3,0.2-0.5,0.2c-0.2,0-0.4-0.1-0.5-0.2S448.5,91.9,448.5,91.6z M449.8,101.8h-1.2v-8h1.2V101.8z"/>
			<path class="st8" d="M457.3,101.8l-0.2-1.1H457c-0.4,0.5-0.8,0.8-1.2,1c-0.4,0.2-0.9,0.3-1.5,0.3c-0.8,0-1.4-0.2-1.9-0.6
				c-0.5-0.4-0.7-1-0.7-1.8c0-1.6,1.3-2.5,3.9-2.5l1.4,0v-0.5c0-0.6-0.1-1.1-0.4-1.4c-0.3-0.3-0.7-0.5-1.3-0.5
				c-0.7,0-1.4,0.2-2.3,0.6l-0.4-0.9c0.4-0.2,0.8-0.4,1.3-0.5c0.5-0.1,0.9-0.2,1.4-0.2c1,0,1.7,0.2,2.1,0.6c0.5,0.4,0.7,1.1,0.7,2
				v5.5H457.3z M454.6,100.9c0.8,0,1.4-0.2,1.8-0.6c0.4-0.4,0.6-1,0.6-1.7v-0.7l-1.2,0.1c-1,0-1.7,0.2-2.1,0.5
				c-0.4,0.3-0.6,0.7-0.6,1.2c0,0.4,0.1,0.8,0.4,1C453.7,100.8,454.1,100.9,454.6,100.9z"/>
			<path class="st8" d="M465.9,99.6c0,0.7-0.3,1.3-0.8,1.7s-1.3,0.6-2.3,0.6c-1.1,0-1.9-0.2-2.5-0.5v-1.1c0.4,0.2,0.8,0.3,1.2,0.5
				c0.4,0.1,0.9,0.2,1.3,0.2c0.6,0,1.1-0.1,1.5-0.3c0.3-0.2,0.5-0.5,0.5-0.9c0-0.3-0.1-0.6-0.4-0.8c-0.3-0.2-0.8-0.5-1.6-0.8
				c-0.7-0.3-1.3-0.5-1.6-0.7c-0.3-0.2-0.5-0.4-0.7-0.7c-0.2-0.3-0.2-0.6-0.2-0.9c0-0.7,0.3-1.2,0.8-1.5c0.5-0.4,1.3-0.6,2.2-0.6
				c0.9,0,1.7,0.2,2.5,0.5l-0.4,1c-0.8-0.3-1.5-0.5-2.2-0.5c-0.6,0-1,0.1-1.3,0.3s-0.4,0.4-0.4,0.7c0,0.2,0.1,0.4,0.2,0.5
				c0.1,0.2,0.3,0.3,0.5,0.4s0.7,0.3,1.4,0.6c1,0.3,1.6,0.7,1.9,1C465.7,98.6,465.9,99.1,465.9,99.6z"/>
			<path class="st8" d="M475.2,101.9c-1.2,0-2.1-0.4-2.8-1.1c-0.7-0.7-1-1.7-1-3c0-1.3,0.3-2.3,1-3.1c0.6-0.8,1.5-1.1,2.6-1.1
				c1,0,1.8,0.3,2.4,1c0.6,0.7,0.9,1.5,0.9,2.6V98h-5.5c0,0.9,0.3,1.7,0.7,2.1c0.5,0.5,1.1,0.7,1.9,0.7c0.9,0,1.7-0.2,2.6-0.5v1.1
				c-0.4,0.2-0.8,0.3-1.2,0.4C476.2,101.9,475.7,101.9,475.2,101.9z M474.8,94.6c-0.6,0-1.2,0.2-1.5,0.6c-0.4,0.4-0.6,1-0.7,1.7h4.2
				c0-0.8-0.2-1.4-0.5-1.8S475.5,94.6,474.8,94.6z"/>
			<path class="st8" d="M254.5,119.9c-1.2,0-2.1-0.4-2.7-1.1c-0.6-0.7-1-1.7-1-3c0-1.3,0.3-2.4,1-3.1s1.6-1.1,2.8-1.1
				c0.4,0,0.8,0,1.2,0.1s0.7,0.2,0.9,0.3l-0.4,1c-0.3-0.1-0.6-0.2-0.9-0.3c-0.3-0.1-0.6-0.1-0.8-0.1c-1.6,0-2.4,1-2.4,3.1
				c0,1,0.2,1.7,0.6,2.3c0.4,0.5,1,0.8,1.8,0.8c0.7,0,1.4-0.1,2.1-0.4v1.1C256,119.8,255.3,119.9,254.5,119.9z"/>
			<path class="st8" d="M265.4,115.8c0,1.3-0.3,2.3-1,3.1c-0.7,0.7-1.6,1.1-2.7,1.1c-0.7,0-1.4-0.2-1.9-0.5c-0.6-0.3-1-0.8-1.3-1.4
				c-0.3-0.6-0.5-1.4-0.5-2.2c0-1.3,0.3-2.3,1-3.1c0.7-0.7,1.6-1.1,2.7-1.1c1.1,0,2,0.4,2.7,1.1C265,113.5,265.4,114.5,265.4,115.8z
				 M259.2,115.8c0,1,0.2,1.8,0.6,2.3c0.4,0.5,1,0.8,1.8,0.8s1.4-0.3,1.8-0.8c0.4-0.5,0.6-1.3,0.6-2.3c0-1-0.2-1.8-0.6-2.3
				c-0.4-0.5-1-0.8-1.8-0.8c-0.8,0-1.4,0.3-1.8,0.8S259.2,114.7,259.2,115.8z"/>
			<path class="st8" d="M273,119.8v-5.2c0-0.7-0.1-1.1-0.4-1.5s-0.8-0.5-1.4-0.5c-0.8,0-1.5,0.2-1.8,0.7s-0.6,1.2-0.6,2.2v4.2h-1.2
				v-8h1l0.2,1.1h0.1c0.2-0.4,0.6-0.7,1-0.9c0.4-0.2,0.9-0.3,1.5-0.3c1,0,1.7,0.2,2.2,0.7c0.5,0.5,0.7,1.2,0.7,2.2v5.2H273z"/>
			<path class="st8" d="M280.3,112.7h-2v7.1h-1.2v-7.1h-1.4v-0.5l1.4-0.4v-0.4c0-2,0.9-3,2.6-3c0.4,0,0.9,0.1,1.5,0.3l-0.3,1
				c-0.5-0.2-0.9-0.2-1.2-0.2c-0.5,0-0.8,0.2-1,0.5c-0.2,0.3-0.3,0.8-0.3,1.5v0.5h2V112.7z"/>
			<path class="st8" d="M285.2,119.9c-1.2,0-2.1-0.4-2.8-1.1s-1-1.7-1-3c0-1.3,0.3-2.3,1-3.1c0.6-0.8,1.5-1.1,2.6-1.1
				c1,0,1.8,0.3,2.4,1c0.6,0.7,0.9,1.5,0.9,2.6v0.8h-5.5c0,0.9,0.3,1.7,0.7,2.1c0.5,0.5,1.1,0.7,1.9,0.7c0.9,0,1.7-0.2,2.6-0.5v1.1
				c-0.4,0.2-0.8,0.3-1.2,0.4C286.2,119.9,285.7,119.9,285.2,119.9z M284.8,112.6c-0.6,0-1.2,0.2-1.5,0.6s-0.6,1-0.7,1.7h4.2
				c0-0.8-0.2-1.4-0.5-1.8C286,112.8,285.5,112.6,284.8,112.6z"/>
			<path class="st8" d="M290.1,109.6c0-0.3,0.1-0.5,0.2-0.6c0.1-0.1,0.3-0.2,0.5-0.2c0.2,0,0.4,0.1,0.5,0.2s0.2,0.3,0.2,0.6
				c0,0.3-0.1,0.5-0.2,0.6c-0.1,0.1-0.3,0.2-0.5,0.2c-0.2,0-0.4-0.1-0.5-0.2C290.2,110.1,290.1,109.9,290.1,109.6z M291.4,119.8
				h-1.2v-8h1.2V119.8z"/>
			<path class="st8" d="M296.6,118.9c0.2,0,0.4,0,0.6,0c0.2,0,0.4-0.1,0.5-0.1v0.9c-0.1,0.1-0.3,0.1-0.6,0.2c-0.3,0-0.5,0.1-0.7,0.1
				c-1.6,0-2.3-0.8-2.3-2.5v-4.8h-1.1v-0.6l1.1-0.5l0.5-1.7h0.7v1.9h2.3v0.9h-2.3v4.7c0,0.5,0.1,0.9,0.3,1.1
				S296.2,118.9,296.6,118.9z"/>
			<path class="st8" d="M304.2,119.8l-0.2-1.1h-0.1c-0.4,0.5-0.8,0.8-1.2,1c-0.4,0.2-0.9,0.3-1.5,0.3c-0.8,0-1.4-0.2-1.9-0.6
				c-0.5-0.4-0.7-1-0.7-1.8c0-1.6,1.3-2.5,3.9-2.5l1.4,0v-0.5c0-0.6-0.1-1.1-0.4-1.4c-0.3-0.3-0.7-0.5-1.3-0.5
				c-0.7,0-1.4,0.2-2.3,0.6l-0.4-0.9c0.4-0.2,0.8-0.4,1.3-0.5c0.5-0.1,0.9-0.2,1.4-0.2c1,0,1.7,0.2,2.1,0.6c0.5,0.4,0.7,1.1,0.7,2
				v5.5H304.2z M301.5,118.9c0.8,0,1.4-0.2,1.8-0.6c0.4-0.4,0.6-1,0.6-1.7v-0.7l-1.2,0.1c-1,0-1.7,0.2-2.1,0.5
				c-0.4,0.3-0.6,0.7-0.6,1.2c0,0.4,0.1,0.8,0.4,1C300.6,118.8,301,118.9,301.5,118.9z"/>
			<path class="st8" d="M311.3,111.6c0.4,0,0.7,0,1,0.1l-0.2,1.1c-0.3-0.1-0.6-0.1-0.9-0.1c-0.6,0-1.2,0.3-1.7,0.8
				c-0.5,0.5-0.7,1.2-0.7,2v4.3h-1.2v-8h1l0.1,1.5h0.1c0.3-0.5,0.7-0.9,1.1-1.2S310.8,111.6,311.3,111.6z"/>
			<path class="st8" d="M313.6,109.6c0-0.3,0.1-0.5,0.2-0.6c0.1-0.1,0.3-0.2,0.5-0.2c0.2,0,0.4,0.1,0.5,0.2s0.2,0.3,0.2,0.6
				c0,0.3-0.1,0.5-0.2,0.6c-0.1,0.1-0.3,0.2-0.5,0.2c-0.2,0-0.4-0.1-0.5-0.2C313.7,110.1,313.6,109.9,313.6,109.6z M315,119.8h-1.2
				v-8h1.2V119.8z"/>
			<path class="st8" d="M322.5,119.8l-0.2-1.1h-0.1c-0.4,0.5-0.8,0.8-1.2,1c-0.4,0.2-0.9,0.3-1.5,0.3c-0.8,0-1.4-0.2-1.9-0.6
				c-0.5-0.4-0.7-1-0.7-1.8c0-1.6,1.3-2.5,3.9-2.5l1.4,0v-0.5c0-0.6-0.1-1.1-0.4-1.4c-0.3-0.3-0.7-0.5-1.3-0.5
				c-0.7,0-1.4,0.2-2.3,0.6l-0.4-0.9c0.4-0.2,0.8-0.4,1.3-0.5c0.5-0.1,0.9-0.2,1.4-0.2c1,0,1.7,0.2,2.1,0.6c0.5,0.4,0.7,1.1,0.7,2
				v5.5H322.5z M319.7,118.9c0.8,0,1.4-0.2,1.8-0.6c0.4-0.4,0.6-1,0.6-1.7v-0.7l-1.2,0.1c-1,0-1.7,0.2-2.1,0.5
				c-0.4,0.3-0.6,0.7-0.6,1.2c0,0.4,0.1,0.8,0.4,1C318.9,118.8,319.3,118.9,319.7,118.9z"/>
			<path class="st8" d="M331.1,117.6c0,0.7-0.3,1.3-0.8,1.7s-1.3,0.6-2.3,0.6c-1.1,0-1.9-0.2-2.5-0.5v-1.1c0.4,0.2,0.8,0.3,1.2,0.5
				c0.4,0.1,0.9,0.2,1.3,0.2c0.6,0,1.1-0.1,1.5-0.3c0.3-0.2,0.5-0.5,0.5-0.9c0-0.3-0.1-0.6-0.4-0.8c-0.3-0.2-0.8-0.5-1.6-0.8
				c-0.7-0.3-1.3-0.5-1.6-0.7c-0.3-0.2-0.5-0.4-0.7-0.7c-0.2-0.3-0.2-0.6-0.2-0.9c0-0.7,0.3-1.2,0.8-1.5c0.5-0.4,1.3-0.6,2.2-0.6
				c0.9,0,1.7,0.2,2.5,0.5l-0.4,1c-0.8-0.3-1.5-0.5-2.2-0.5c-0.6,0-1,0.1-1.3,0.3s-0.4,0.4-0.4,0.7c0,0.2,0.1,0.4,0.2,0.5
				c0.1,0.2,0.3,0.3,0.5,0.4s0.7,0.3,1.4,0.6c1,0.3,1.6,0.7,1.9,1C330.9,116.6,331.1,117.1,331.1,117.6z"/>
			<path class="st8" d="M342.4,119.8v-5.2c0-0.7-0.1-1.1-0.4-1.5s-0.8-0.5-1.4-0.5c-0.8,0-1.5,0.2-1.8,0.7s-0.6,1.2-0.6,2.2v4.2
				h-1.2v-8h1l0.2,1.1h0.1c0.2-0.4,0.6-0.7,1-0.9c0.4-0.2,0.9-0.3,1.5-0.3c1,0,1.7,0.2,2.2,0.7c0.5,0.5,0.7,1.2,0.7,2.2v5.2H342.4z"
				/>
			<path class="st8" d="M351.1,119.8l-0.2-1.1h-0.1c-0.4,0.5-0.8,0.8-1.2,1c-0.4,0.2-0.9,0.3-1.5,0.3c-0.8,0-1.4-0.2-1.9-0.6
				c-0.5-0.4-0.7-1-0.7-1.8c0-1.6,1.3-2.5,3.9-2.5l1.4,0v-0.5c0-0.6-0.1-1.1-0.4-1.4c-0.3-0.3-0.7-0.5-1.3-0.5
				c-0.7,0-1.4,0.2-2.3,0.6l-0.4-0.9c0.4-0.2,0.8-0.4,1.3-0.5c0.5-0.1,0.9-0.2,1.4-0.2c1,0,1.7,0.2,2.1,0.6c0.5,0.4,0.7,1.1,0.7,2
				v5.5H351.1z M348.3,118.9c0.8,0,1.4-0.2,1.8-0.6c0.4-0.4,0.6-1,0.6-1.7v-0.7l-1.2,0.1c-1,0-1.7,0.2-2.1,0.5
				c-0.4,0.3-0.6,0.7-0.6,1.2c0,0.4,0.1,0.8,0.4,1C347.5,118.8,347.9,118.9,348.3,118.9z"/>
			<path class="st8" d="M361.6,119.9c-1.2,0-2.1-0.4-2.7-1.1c-0.6-0.7-1-1.7-1-3c0-1.3,0.3-2.4,1-3.1c0.6-0.7,1.6-1.1,2.8-1.1
				c0.4,0,0.8,0,1.2,0.1s0.7,0.2,0.9,0.3l-0.4,1c-0.3-0.1-0.6-0.2-0.9-0.3c-0.3-0.1-0.6-0.1-0.8-0.1c-1.6,0-2.4,1-2.4,3.1
				c0,1,0.2,1.7,0.6,2.3c0.4,0.5,1,0.8,1.8,0.8c0.7,0,1.4-0.1,2.1-0.4v1.1C363.1,119.8,362.4,119.9,361.6,119.9z"/>
			<path class="st8" d="M365.4,109.6c0-0.3,0.1-0.5,0.2-0.6c0.1-0.1,0.3-0.2,0.5-0.2c0.2,0,0.4,0.1,0.5,0.2c0.1,0.1,0.2,0.3,0.2,0.6
				c0,0.3-0.1,0.5-0.2,0.6c-0.1,0.1-0.3,0.2-0.5,0.2c-0.2,0-0.4-0.1-0.5-0.2C365.5,110.1,365.4,109.9,365.4,109.6z M366.7,119.8
				h-1.2v-8h1.2V119.8z"/>
			<path class="st8" d="M374.8,118.7L374.8,118.7c-0.6,0.8-1.5,1.2-2.6,1.2c-1.1,0-1.9-0.4-2.5-1.1c-0.6-0.7-0.9-1.7-0.9-3.1
				c0-1.3,0.3-2.4,0.9-3.1s1.4-1.1,2.4-1.1c1.1,0,1.9,0.4,2.5,1.2h0.1l-0.1-0.6l0-0.6v-3.3h1.2v11.4h-1L374.8,118.7z M372.4,118.9
				c0.8,0,1.4-0.2,1.8-0.7c0.4-0.5,0.6-1.2,0.6-2.2v-0.3c0-1.1-0.2-1.9-0.6-2.4c-0.4-0.5-1-0.7-1.8-0.7c-0.7,0-1.3,0.3-1.6,0.8
				c-0.4,0.6-0.6,1.3-0.6,2.3c0,1,0.2,1.8,0.6,2.3S371.6,118.9,372.4,118.9z"/>
			<path class="st8" d="M383.4,119.8l-0.2-1.1h-0.1c-0.4,0.5-0.8,0.8-1.2,1c-0.4,0.2-0.9,0.3-1.5,0.3c-0.8,0-1.4-0.2-1.9-0.6
				c-0.5-0.4-0.7-1-0.7-1.8c0-1.6,1.3-2.5,3.9-2.5l1.4,0v-0.5c0-0.6-0.1-1.1-0.4-1.4c-0.3-0.3-0.7-0.5-1.3-0.5
				c-0.7,0-1.4,0.2-2.3,0.6l-0.4-0.9c0.4-0.2,0.8-0.4,1.3-0.5c0.5-0.1,0.9-0.2,1.4-0.2c1,0,1.7,0.2,2.1,0.6c0.5,0.4,0.7,1.1,0.7,2
				v5.5H383.4z M380.7,118.9c0.8,0,1.4-0.2,1.8-0.6c0.4-0.4,0.6-1,0.6-1.7v-0.7l-1.2,0.1c-1,0-1.7,0.2-2.1,0.5
				c-0.4,0.3-0.6,0.7-0.6,1.2c0,0.4,0.1,0.8,0.4,1C379.8,118.8,380.2,118.9,380.7,118.9z"/>
			<path class="st8" d="M392.3,118.7L392.3,118.7c-0.6,0.8-1.5,1.2-2.6,1.2c-1.1,0-1.9-0.4-2.5-1.1c-0.6-0.7-0.9-1.7-0.9-3.1
				c0-1.3,0.3-2.4,0.9-3.1s1.4-1.1,2.4-1.1c1.1,0,1.9,0.4,2.5,1.2h0.1l-0.1-0.6l0-0.6v-3.3h1.2v11.4h-1L392.3,118.7z M389.9,118.9
				c0.8,0,1.4-0.2,1.8-0.7c0.4-0.5,0.6-1.2,0.6-2.2v-0.3c0-1.1-0.2-1.9-0.6-2.4c-0.4-0.5-1-0.7-1.8-0.7c-0.7,0-1.3,0.3-1.6,0.8
				c-0.4,0.6-0.6,1.3-0.6,2.3c0,1,0.2,1.8,0.6,2.3S389.2,118.9,389.9,118.9z"/>
			<path class="st8" d="M399.4,119.9c-1.2,0-2.1-0.4-2.8-1.1c-0.7-0.7-1-1.7-1-3c0-1.3,0.3-2.3,1-3.1c0.6-0.8,1.5-1.1,2.6-1.1
				c1,0,1.8,0.3,2.4,1c0.6,0.7,0.9,1.5,0.9,2.6v0.8h-5.5c0,0.9,0.3,1.7,0.7,2.1c0.5,0.5,1.1,0.7,1.9,0.7c0.9,0,1.7-0.2,2.6-0.5v1.1
				c-0.4,0.2-0.8,0.3-1.2,0.4C400.4,119.9,400,119.9,399.4,119.9z M399.1,112.6c-0.6,0-1.2,0.2-1.5,0.6c-0.4,0.4-0.6,1-0.7,1.7h4.2
				c0-0.8-0.2-1.4-0.5-1.8C400.2,112.8,399.7,112.6,399.1,112.6z"/>
			<path class="st8" d="M404.3,119c0-0.3,0.1-0.6,0.2-0.7c0.1-0.2,0.4-0.3,0.6-0.3c0.3,0,0.5,0.1,0.7,0.3c0.2,0.2,0.2,0.4,0.2,0.7
				c0,0.3-0.1,0.6-0.2,0.7s-0.4,0.3-0.7,0.3c-0.2,0-0.5-0.1-0.6-0.2C404.4,119.6,404.3,119.4,404.3,119z"/>
		</g>
		<g>
			<g>
				<g>
					<path class="st7" d="M171.5,89.9c0,0-11.3-3.4-16.5-8.6c-6-6-7.6-17.7-4.9-20.4L175.3,86"/>
				</g>
				<path class="st7" d="M175.3,86l28.6,21.7c3.3,2.7,3.9,7,1.3,9.6c-2.6,2.6-6.9,2-9.6-1.3l-24.2-26.1"/>
			</g>
			<g>
				<g>
					<path class="st7" d="M197.2,60.9"/>
					<path class="st7" d="M185.9,88c2.3,0.1,8.3-0.3,12.9-5.2c4.3-4.6,8.1-12.2,8.1-12.2"/>
				</g>
				<g>
					<path class="st7" d="M176.9,95.9L160.1,116c-2.7,3.3-7,3.9-9.6,1.3c-2.6-2.6-2-6.9,1.3-9.6L172,90.8"/>
				</g>
				<g>
					<path class="st7" d="M179.9,82.9c0,0-1-7.3,5.2-13.9c4.3-4.6,12.1-8.1,12.1-8.1"/>
				</g>
				<line class="st7" x1="200.8" y1="63.1" x2="189.4" y2="74.5"/>
				<line class="st7" x1="204.7" y1="67" x2="193.3" y2="78.4"/>
				<path class="st7" d="M206.9,70.6c0,0-0.1-2.1-3.9-5.8c-3.7-3.7-5.9-3.9-5.9-3.9"/>
			</g>
		</g>
		<text transform="matrix(1 0 0 1 326.0645 66.1698)" class="st9 st10">Pizzaria</text>
	</g>
</g>
<g>
	<path class="st11" d="M477.1,53.1c-2.3,0.4-3.4,3-3.4,3s0.6,0.7,2.6,0.5c2.2-0.3,3.6-3.7,3.6-3.7S479.3,52.8,477.1,53.1z"/>
	<path class="st11" d="M473,55.7c0,0,1.9-2.3,0.9-4.3c-1-2-1.5-2.2-1.5-2.2s-1.8,2.5-1,4.4C472.1,55.4,473,55.7,473,55.7z"/>
	<path class="st11" d="M474.7,50.4c-0.5,1.1,0.1,3,0.1,3s2-0.5,2.6-1.6c0.6-1.1,0.5-4.8,0.5-4.8S475.3,49.4,474.7,50.4z"/>
	<path class="st11" d="M464.8,66.7c0,0,0.4,0.9,2.4,1.1c2.2,0.3,4.4-2.7,4.4-2.7s-0.4-0.2-2.7-0.4C466.5,64.4,464.8,66.7,464.8,66.7
		z"/>
	<path class="st11" d="M466.2,62.2c-0.5-2.2-0.9-2.5-0.9-2.5s-2.4,2-2.1,4c0.2,1.8,1,2.3,1,2.3S466.7,64.4,466.2,62.2z"/>
	<path class="st11" d="M467.9,63.5c0,0,0.5,0.8,2.4,0.9c2.2,0.1,4.2-3.1,4.2-3.1s-0.4-0.2-2.7-0.2C469.5,61.1,467.9,63.5,467.9,63.5
		z"/>
	<path class="st11" d="M467.4,63c0,0,2.3-1.9,1.6-4c-0.7-2.1-1.1-2.4-1.1-2.4s-2.2,2.1-1.8,4.2C466.5,62.5,467.4,63,467.4,63z"/>
	<path class="st11" d="M474.6,57.2c-2.3,0.2-3.6,2.7-3.6,2.7s0.6,0.8,2.5,0.7c2.2-0.1,3.9-3.4,3.9-3.4S476.9,57,474.6,57.2z"/>
	<path class="st11" d="M470.3,59.4c0,0,2.1-2.1,1.2-4.2c-0.9-2.1-1.3-2.3-1.3-2.3s-2,2.3-1.4,4.3C469.5,59.1,470.3,59.4,470.3,59.4z
		"/>
	<path class="st11" d="M463.4,66.9c-1.8,1.5-2.7,2.3-4.6,3.6c-0.2,0.1-0.2,0.4-0.1,0.5c0.1,0.2,0.4,0.2,0.5,0.1
		c2-1.4,2.9-2.1,4.7-3.7c0.2-0.1,0.2-0.4,0.1-0.5C463.8,66.7,463.6,66.7,463.4,66.9z"/>
	<path class="st11" d="M478.3,51.9c1.7-3.5,3.1-7.1,4-10.9c0-0.1,0-0.3-0.2-0.3c-0.1,0-0.3,0.1-0.3,0.2c-1,3.8-2.4,7.5-4.1,11.1
		C477.9,52,478.1,52,478.3,51.9z"/>
	<path class="st11" d="M483,42.5c-0.1,0-0.3,0.1-0.3,0.2c-0.9,3.1-2,6.2-3.5,9.1c0.2,0,0.4,0,0.6,0c1.4-2.9,2.5-5.9,3.4-8.9
		C483.2,42.7,483.1,42.6,483,42.5z"/>
	<path class="st11" d="M478.5,48.3c1.2-2.9,2.2-6,2.9-9c0-0.1-0.1-0.3-0.2-0.3s-0.3,0.1-0.3,0.2c-0.7,3.1-1.2,4.7-2.3,7.6
		C478.6,47.2,478.5,47.7,478.5,48.3z"/>
	<path class="st11" d="M476.6,41.1c0-0.1,0-0.3-0.2-0.3c-0.1,0-0.3,0-0.3,0.2c-0.9,3.2-1.5,4.8-2.9,7.8c0.1,0.1,0.2,0.3,0.3,0.4
		C475.1,46.1,475.7,44.4,476.6,41.1z"/>
	<path class="st11" d="M474.4,50.4c1.6-3.4,2.8-6.7,3.9-10.3c0-0.1,0-0.3-0.2-0.3c-0.1,0-0.3,0-0.3,0.2c-1,3.5-2.2,6.6-3.7,9.9
		C474.2,50.1,474.3,50.2,474.4,50.4z"/>
	<path class="st11" d="M477.6,46.4c1.1-2.9,1.6-4.4,2.3-7.5c0-0.1-0.1-0.3-0.2-0.3c-0.1,0-0.3,0.1-0.3,0.2c-0.7,3-1.6,5.9-2.8,8.7
		C477,47.1,477.3,46.7,477.6,46.4z"/>
</g>
<g>
	<path class="st11" d="M299.7,52.1c2.3,0.4,3.4,3,3.4,3s-0.6,0.7-2.6,0.5c-2.2-0.3-3.6-3.7-3.6-3.7S297.4,51.8,299.7,52.1z"/>
	<path class="st11" d="M303.8,54.7c0,0-1.9-2.3-0.9-4.3c1-2,1.5-2.2,1.5-2.2s1.8,2.5,1,4.4C304.7,54.4,303.8,54.7,303.8,54.7z"/>
	<path class="st11" d="M302,49.4c0.5,1.1-0.1,3-0.1,3s-2-0.5-2.6-1.6c-0.6-1.1-0.5-4.8-0.5-4.8S301.5,48.4,302,49.4z"/>
	<path class="st11" d="M312,65.7c0,0-0.4,0.9-2.4,1.1c-2.2,0.3-4.4-2.7-4.4-2.7s0.4-0.2,2.7-0.4C310.2,63.4,312,65.7,312,65.7z"/>
	<path class="st11" d="M310.6,61.2c0.5-2.2,0.9-2.5,0.9-2.5s2.4,2,2.1,4c-0.2,1.8-1,2.3-1,2.3S310.1,63.4,310.6,61.2z"/>
	<path class="st11" d="M308.8,62.5c0,0-0.5,0.8-2.4,0.9c-2.2,0.1-4.2-3.1-4.2-3.1s0.4-0.2,2.7-0.2C307.3,60.1,308.8,62.5,308.8,62.5
		z"/>
	<path class="st11" d="M309.4,62c0,0-2.3-1.9-1.6-4c0.7-2.1,1.1-2.4,1.1-2.4s2.2,2.1,1.8,4.2C310.2,61.5,309.4,62,309.4,62z"/>
	<path class="st11" d="M302.1,56.2c2.3,0.2,3.6,2.7,3.6,2.7s-0.6,0.8-2.5,0.7c-2.2-0.1-3.9-3.4-3.9-3.4S299.8,56,302.1,56.2z"/>
	<path class="st11" d="M306.4,58.4c0,0-2.1-2.1-1.2-4.2c0.9-2.1,1.3-2.3,1.3-2.3s2,2.3,1.4,4.3C307.3,58.1,306.4,58.4,306.4,58.4z"
		/>
	<path class="st11" d="M313.3,65.9c1.8,1.5,2.7,2.3,4.6,3.6c0.2,0.1,0.2,0.4,0.1,0.5c-0.1,0.2-0.4,0.2-0.5,0.1
		c-2-1.4-2.9-2.1-4.7-3.7c-0.2-0.1-0.2-0.4-0.1-0.5C312.9,65.7,313.2,65.7,313.3,65.9z"/>
	<path class="st11" d="M298.5,50.9c-1.7-3.5-3.1-7.1-4-10.9c0-0.1,0-0.3,0.2-0.3c0.1,0,0.3,0.1,0.3,0.2c1,3.8,2.4,7.5,4.1,11.1
		C298.9,51,298.7,51,298.5,50.9z"/>
	<path class="st11" d="M293.8,41.5c0.1,0,0.3,0.1,0.3,0.2c0.9,3.1,2,6.2,3.5,9.1c-0.2,0-0.4,0-0.6,0c-1.4-2.9-2.5-5.9-3.4-8.9
		C293.6,41.7,293.6,41.6,293.8,41.5z"/>
	<path class="st11" d="M298.3,47.3c-1.2-2.9-2.2-6-2.9-9c0-0.1,0.1-0.3,0.2-0.3s0.3,0.1,0.3,0.2c0.7,3.1,1.2,4.7,2.3,7.6
		C298.2,46.2,298.2,46.7,298.3,47.3z"/>
	<path class="st11" d="M300.1,40.1c0-0.1,0-0.3,0.2-0.3c0.1,0,0.3,0,0.3,0.2c0.9,3.2,1.5,4.8,2.9,7.8c-0.1,0.1-0.2,0.3-0.3,0.4
		C301.7,45.1,301.1,43.4,300.1,40.1z"/>
	<path class="st11" d="M302.4,49.4c-1.6-3.4-2.8-6.7-3.9-10.3c0-0.1,0-0.3,0.2-0.3c0.1,0,0.3,0,0.3,0.2c1,3.5,2.2,6.6,3.7,9.9
		C302.6,49.1,302.5,49.2,302.4,49.4z"/>
	<path class="st11" d="M299.2,45.4c-1.1-2.9-1.6-4.4-2.3-7.5c0-0.1,0.1-0.3,0.2-0.3c0.1,0,0.3,0.1,0.3,0.2c0.7,3,1.6,5.9,2.8,8.7
		C299.8,46.1,299.4,45.7,299.2,45.4z"/>
</g>
</svg>
