<?xml version="1.0" encoding="utf-8"?>
<!-- Generator: Adobe Illustrator 19.0.0, SVG Export Plug-In . SVG Version: 6.00 Build 0)  -->
<svg version="1.1" id="Camada_1" xmlns="http://www.w3.org/2000/svg" xmlns:xlink="http://www.w3.org/1999/xlink" x="0px" y="0px"
	 viewBox="125 0 450 200" style="enable-background:new 125 0 450 200;" xml:space="preserve">
<style type="text/css">
	.st0{opacity:0.42;fill:#AEC2D1;enable-background:new    ;}
	.st1{fill:#D8057E;}
	.st2{fill:#FFFFFF;}
	.st3{fill:#F90083;}
	.st4{fill:#EFEFEF;}
	.st5{fill:#E46101;}
	.st6{fill:none;stroke:#FCFCFC;stroke-width:2;stroke-linecap:round;stroke-linejoin:round;stroke-miterlimit:10;}
	.st7{fill:#C60694;}
</style>
<g id="XMLID_15_">
	<path id="XMLID_22_" class="st0" d="M542.3,86.8l-4.7-6l0,0l-8.8-11.2c-4.5-5.8-10.8-9.6-17.8-11v-0.4c0-10.8-8.8-19.6-19.6-19.6
		h-209h-18.8h-2.5c-5.8,0-10.5,4.7-10.5,10.5V58H245h-9.1l0,0c-0.1-10.7-8.8-19.4-19.5-19.4h-64.6c-10.8,0-19.5,8.8-19.5,19.6v51.3
		c0,23.4,19,42.4,42.4,42.4H213l0,0h65.4h9.1h213c7.5,9.2,18.9,15.1,31.7,15.1c22.5,0,40.8-18.2,40.8-40.8
		C572.9,107.2,559.9,91.3,542.3,86.8z"/>
	<g id="XMLID_23_">
		<path id="XMLID_21_" class="st1" d="M276.9,33h-23.8c-4.4,0-8,3.6-8,8v30.6h31.8V33z"/>
		<path id="XMLID_20_" class="st2" d="M543.2,108.3l-20,26.1c-5.7,7.5-14.6,11.8-24,11.8H207.4c-23.4,0-42.4-19-42.4-42.4V52.4
			h334.5c9.3,0,18,4.3,23.7,11.6l19.9,25.3C547.4,94.8,547.5,102.7,543.2,108.3z"/>
		<path id="XMLID_19_" class="st3" d="M230.3,103.9V52.6c0-10.8-8.8-19.6-19.6-19.6h-64.5c-10.8,0-19.5,8.8-19.5,19.6v51.3
			c0,23.4,19,42.4,42.4,42.4h103.7C249.3,146.2,230.3,127.3,230.3,103.9z"/>
		<path id="XMLID_18_" class="st4" d="M281.8,146.2h-9.1c-23.4,0-42.4-19-42.4-42.4V52.4h9.1v51.4
			C239.4,127.3,258.4,146.2,281.8,146.2z"/>
		<path id="XMLID_17_" class="st3" d="M275.1,75.9h216.3c7.8,0,14.1-6.3,14.1-14.1v-9.3c0-10.8-8.8-19.6-19.6-19.6H258.1
			c4,5.5,6.4,12.2,6.4,19.6v12.8C264.5,71.2,269.2,75.9,275.1,75.9z"/>
		<circle id="XMLID_10_" class="st5" cx="526.5" cy="120.6" r="40.8"/>
		<path id="XMLID_9_" class="st4" d="M483.6,115.2c0,12.4,5.6,23.6,14.4,31h1.2c9.4,0,18.3-4.4,24-11.8l20-26.1
			c4.3-5.6,4.3-13.5-0.1-19L532,75.2c-2.5-0.5-5-0.7-7.6-0.7C501.9,74.4,483.6,92.7,483.6,115.2z"/>
		<circle id="XMLID_7_" class="st3" cx="526.5" cy="120.6" r="40.8"/>
		<path id="XMLID_28_" class="st2" d="M526.5,86.9c-18.6,0-33.7,15.1-33.7,33.7s15.1,33.7,33.7,33.7c18.6,0,33.7-15.1,33.7-33.7
			S545.1,86.9,526.5,86.9z M526.5,150c-16.2,0-29.4-13.2-29.4-29.4s13.2-29.4,29.4-29.4c16.2,0,29.4,13.2,29.4,29.4
			C555.9,136.9,542.7,150,526.5,150z"/>
		<g>
			<polyline class="st6" points="542,125 539,141.2 512.5,141.2 509.6,125 			"/>
			<path class="st6" d="M542,124.8c2.8-1.1,5.9-3.8,5.9-7.3c0-4-3.3-7.2-7.4-7.2c-0.1,0-0.1,0-0.2,0c0.1-0.5,0.2-1,0.2-1.5
				c0-3.2-2.6-5.7-5.9-5.7c-1.4,0-2.7,0.5-3.8,1.3c-2.5-2.8-1.3-7.4-1.3-7.4c-5.5,2-8.1,5.4-9.1,7.3c-1-0.8-2.2-1.2-3.6-1.2
				c-3.3,0-5.9,2.5-5.9,5.7c0,0.5,0.1,1,0.2,1.5c-0.1,0-0.1,0-0.2,0c-4.1,0-7.4,3.2-7.4,7.2c0,3.5,2.3,5.8,5.9,7.2
				c8.1,3.3,16.5-1.6,22.6,0.4C536.5,126.6,539.2,125.9,542,124.8z"/>
			<line class="st6" x1="524.3" y1="109.9" x2="527.3" y2="111.5"/>
			<line class="st6" x1="515.1" y1="119.1" x2="518.2" y2="117.6"/>
			<line class="st6" x1="535.7" y1="116" x2="537.2" y2="119.1"/>
		</g>
		<g>
			<path class="st2" d="M326.2,59.5v8.1h-4.3V44.5h7.5c1.5,0,2.9,0.2,4,0.5c1.1,0.4,2.1,0.9,2.8,1.5c0.7,0.7,1.3,1.4,1.6,2.3
				s0.5,1.9,0.5,3c0,1.1-0.2,2.1-0.6,3.1c-0.4,0.9-0.9,1.7-1.7,2.4s-1.7,1.2-2.8,1.6c-1.1,0.4-2.4,0.6-3.9,0.6H326.2z M326.2,56.2
				h3.2c0.8,0,1.5-0.1,2.1-0.3c0.6-0.2,1.1-0.5,1.5-0.8c0.4-0.4,0.7-0.8,0.9-1.3c0.2-0.5,0.3-1.1,0.3-1.8c0-0.6-0.1-1.2-0.3-1.7
				s-0.5-0.9-0.9-1.3c-0.4-0.4-0.9-0.6-1.5-0.8c-0.6-0.2-1.3-0.3-2.1-0.3h-3.2V56.2z"/>
			<path class="st2" d="M356.9,67.7h-1.8c-0.4,0-0.7-0.1-0.9-0.2c-0.2-0.1-0.4-0.3-0.5-0.7l-0.4-1.2c-0.4,0.4-0.8,0.7-1.2,1
				c-0.4,0.3-0.8,0.5-1.2,0.7c-0.4,0.2-0.9,0.3-1.4,0.4c-0.5,0.1-1,0.1-1.6,0.1c-0.7,0-1.3-0.1-1.9-0.3c-0.6-0.2-1.1-0.5-1.5-0.8
				s-0.7-0.8-1-1.4c-0.2-0.6-0.4-1.2-0.4-1.9c0-0.6,0.2-1.2,0.5-1.8c0.3-0.6,0.9-1.2,1.6-1.6c0.8-0.5,1.8-0.9,3-1.2
				c1.3-0.3,2.8-0.5,4.7-0.5v-1c0-1.1-0.2-1.9-0.7-2.5c-0.5-0.5-1.1-0.8-2-0.8c-0.6,0-1.2,0.1-1.6,0.2s-0.8,0.3-1.1,0.5
				c-0.3,0.2-0.6,0.4-0.9,0.5c-0.3,0.1-0.6,0.2-0.9,0.2c-0.3,0-0.5-0.1-0.7-0.2s-0.3-0.3-0.5-0.5l-0.7-1.3c1.9-1.7,4.2-2.6,6.8-2.6
				c1,0,1.8,0.2,2.6,0.5c0.8,0.3,1.4,0.8,1.9,1.3s0.9,1.2,1.2,2c0.3,0.8,0.4,1.6,0.4,2.6V67.7z M349.2,65.2c0.4,0,0.8,0,1.1-0.1
				c0.3-0.1,0.7-0.2,1-0.3c0.3-0.1,0.6-0.3,0.9-0.5c0.3-0.2,0.6-0.5,0.9-0.8v-2.7c-1.2,0-2.1,0.1-2.9,0.2s-1.4,0.3-1.9,0.6
				c-0.5,0.2-0.8,0.5-1,0.8c-0.2,0.3-0.3,0.6-0.3,1c0,0.7,0.2,1.2,0.6,1.5S348.5,65.2,349.2,65.2z"/>
			<path class="st2" d="M375.5,67.7c-0.5,0-0.8-0.2-1-0.7l-0.3-1.6c-0.3,0.4-0.7,0.7-1.1,1c-0.4,0.3-0.8,0.6-1.2,0.8
				c-0.4,0.2-0.9,0.4-1.4,0.5s-1,0.2-1.6,0.2c-0.9,0-1.7-0.2-2.5-0.6c-0.7-0.4-1.4-0.9-1.9-1.6c-0.5-0.7-1-1.6-1.2-2.6
				c-0.3-1-0.4-2.2-0.4-3.6c0-1.2,0.2-2.3,0.5-3.4s0.8-2,1.4-2.7c0.6-0.8,1.4-1.4,2.2-1.8c0.9-0.4,1.8-0.6,2.9-0.6
				c0.9,0,1.7,0.1,2.4,0.4s1.2,0.7,1.7,1.2v-8.7h4v23.8H375.5z M370.3,64.8c0.8,0,1.5-0.2,2.1-0.5c0.6-0.3,1.1-0.8,1.6-1.5v-7.4
				c-0.4-0.5-0.9-0.9-1.5-1.2s-1.1-0.3-1.7-0.3c-0.6,0-1.1,0.1-1.6,0.3s-0.9,0.6-1.2,1c-0.3,0.5-0.6,1-0.8,1.7
				c-0.2,0.7-0.3,1.5-0.3,2.5c0,1,0.1,1.8,0.2,2.4c0.2,0.7,0.4,1.2,0.7,1.6s0.6,0.7,1.1,0.9S369.8,64.8,370.3,64.8z"/>
			<path class="st2" d="M398.3,67.7h-1.8c-0.4,0-0.7-0.1-0.9-0.2c-0.2-0.1-0.4-0.3-0.5-0.7l-0.4-1.2c-0.4,0.4-0.8,0.7-1.2,1
				c-0.4,0.3-0.8,0.5-1.2,0.7c-0.4,0.2-0.9,0.3-1.4,0.4c-0.5,0.1-1,0.1-1.6,0.1c-0.7,0-1.3-0.1-1.9-0.3c-0.6-0.2-1.1-0.5-1.5-0.8
				c-0.4-0.4-0.7-0.8-1-1.4c-0.2-0.6-0.4-1.2-0.4-1.9c0-0.6,0.2-1.2,0.5-1.8s0.9-1.2,1.6-1.6c0.8-0.5,1.8-0.9,3-1.2
				c1.3-0.3,2.8-0.5,4.7-0.5v-1c0-1.1-0.2-1.9-0.7-2.5c-0.5-0.5-1.1-0.8-2-0.8c-0.6,0-1.2,0.1-1.6,0.2s-0.8,0.3-1.1,0.5
				c-0.3,0.2-0.6,0.4-0.9,0.5c-0.3,0.1-0.6,0.2-0.9,0.2c-0.3,0-0.5-0.1-0.7-0.2s-0.3-0.3-0.5-0.5l-0.7-1.3c1.9-1.7,4.2-2.6,6.8-2.6
				c1,0,1.8,0.2,2.6,0.5c0.8,0.3,1.4,0.8,1.9,1.3s0.9,1.2,1.2,2c0.3,0.8,0.4,1.6,0.4,2.6V67.7z M390.6,65.2c0.4,0,0.8,0,1.1-0.1
				c0.3-0.1,0.7-0.2,1-0.3c0.3-0.1,0.6-0.3,0.9-0.5c0.3-0.2,0.6-0.5,0.9-0.8v-2.7c-1.2,0-2.1,0.1-2.9,0.2c-0.8,0.1-1.4,0.3-1.9,0.6
				c-0.5,0.2-0.8,0.5-1,0.8c-0.2,0.3-0.3,0.6-0.3,1c0,0.7,0.2,1.2,0.6,1.5C389.4,65,390,65.2,390.6,65.2z"/>
			<path class="st2" d="M405.4,67.7V51.2h2.3c0.4,0,0.7,0.1,0.8,0.2s0.3,0.4,0.3,0.8l0.2,2c0.6-1,1.3-1.8,2.1-2.4
				c0.8-0.6,1.7-0.9,2.7-0.9c0.8,0,1.5,0.2,2,0.6l-0.5,3c0,0.2-0.1,0.3-0.2,0.4c-0.1,0.1-0.3,0.1-0.4,0.1c-0.2,0-0.4,0-0.7-0.1
				c-0.3-0.1-0.6-0.1-1.1-0.1c-0.8,0-1.5,0.2-2.1,0.7c-0.6,0.5-1.1,1.1-1.5,2v10.2H405.4z"/>
			<path class="st2" d="M426.5,46.5c0,0.3-0.1,0.7-0.2,1c-0.1,0.3-0.3,0.6-0.6,0.8c-0.2,0.2-0.5,0.4-0.8,0.5s-0.6,0.2-1,0.2
				c-0.3,0-0.7-0.1-1-0.2c-0.3-0.1-0.6-0.3-0.8-0.5c-0.2-0.2-0.4-0.5-0.5-0.8c-0.1-0.3-0.2-0.6-0.2-1c0-0.4,0.1-0.7,0.2-1
				c0.1-0.3,0.3-0.6,0.5-0.8c0.2-0.2,0.5-0.4,0.8-0.5c0.3-0.1,0.6-0.2,1-0.2c0.4,0,0.7,0.1,1,0.2s0.6,0.3,0.8,0.5
				c0.2,0.2,0.4,0.5,0.6,0.8S426.5,46.1,426.5,46.5z M425.9,51.2v16.4h-4V51.2H425.9z"/>
			<path class="st2" d="M446.5,67.7h-1.8c-0.4,0-0.7-0.1-0.9-0.2c-0.2-0.1-0.4-0.3-0.5-0.7l-0.4-1.2c-0.4,0.4-0.8,0.7-1.2,1
				c-0.4,0.3-0.8,0.5-1.2,0.7c-0.4,0.2-0.9,0.3-1.4,0.4c-0.5,0.1-1,0.1-1.6,0.1c-0.7,0-1.3-0.1-1.9-0.3c-0.6-0.2-1.1-0.5-1.5-0.8
				c-0.4-0.4-0.7-0.8-1-1.4c-0.2-0.6-0.4-1.2-0.4-1.9c0-0.6,0.2-1.2,0.5-1.8s0.9-1.2,1.6-1.6c0.8-0.5,1.8-0.9,3-1.2
				c1.3-0.3,2.8-0.5,4.7-0.5v-1c0-1.1-0.2-1.9-0.7-2.5c-0.5-0.5-1.1-0.8-2-0.8c-0.6,0-1.2,0.1-1.6,0.2s-0.8,0.3-1.1,0.5
				c-0.3,0.2-0.6,0.4-0.9,0.5c-0.3,0.1-0.6,0.2-0.9,0.2c-0.3,0-0.5-0.1-0.7-0.2s-0.3-0.3-0.5-0.5l-0.7-1.3c1.9-1.7,4.2-2.6,6.8-2.6
				c1,0,1.8,0.2,2.6,0.5c0.8,0.3,1.4,0.8,1.9,1.3s0.9,1.2,1.2,2c0.3,0.8,0.4,1.6,0.4,2.6V67.7z M438.8,65.2c0.4,0,0.8,0,1.1-0.1
				c0.3-0.1,0.7-0.2,1-0.3c0.3-0.1,0.6-0.3,0.9-0.5c0.3-0.2,0.6-0.5,0.9-0.8v-2.7c-1.2,0-2.1,0.1-2.9,0.2c-0.8,0.1-1.4,0.3-1.9,0.6
				c-0.5,0.2-0.8,0.5-1,0.8c-0.2,0.3-0.3,0.6-0.3,1c0,0.7,0.2,1.2,0.6,1.5C437.6,65,438.2,65.2,438.8,65.2z"/>
			<path class="st2" d="M463.4,54.4c-0.1,0.2-0.2,0.3-0.3,0.4c-0.1,0.1-0.3,0.1-0.4,0.1c-0.2,0-0.4-0.1-0.6-0.2
				c-0.2-0.1-0.5-0.2-0.8-0.4s-0.6-0.3-1-0.4s-0.8-0.2-1.3-0.2c-0.8,0-1.4,0.2-1.8,0.5c-0.4,0.3-0.7,0.8-0.7,1.3
				c0,0.4,0.1,0.6,0.3,0.9c0.2,0.2,0.5,0.5,0.9,0.6c0.4,0.2,0.8,0.3,1.3,0.5c0.5,0.1,1,0.3,1.5,0.5c0.5,0.2,1,0.4,1.5,0.6
				c0.5,0.2,0.9,0.5,1.3,0.8s0.7,0.7,0.9,1.2c0.2,0.5,0.3,1,0.3,1.7c0,0.8-0.1,1.5-0.4,2.2c-0.3,0.7-0.7,1.2-1.3,1.7
				c-0.6,0.5-1.2,0.9-2.1,1.1c-0.8,0.3-1.8,0.4-2.8,0.4c-0.6,0-1.1-0.1-1.7-0.2c-0.5-0.1-1.1-0.2-1.6-0.4c-0.5-0.2-1-0.4-1.4-0.6
				c-0.4-0.2-0.8-0.5-1.1-0.8l0.9-1.5c0.1-0.2,0.3-0.3,0.4-0.4c0.2-0.1,0.4-0.1,0.6-0.1c0.2,0,0.5,0.1,0.7,0.2
				c0.2,0.1,0.5,0.3,0.8,0.4c0.3,0.2,0.6,0.3,1,0.4c0.4,0.1,0.9,0.2,1.5,0.2c0.5,0,0.9-0.1,1.2-0.2c0.3-0.1,0.6-0.3,0.8-0.4
				c0.2-0.2,0.4-0.4,0.5-0.6c0.1-0.2,0.2-0.5,0.2-0.7c0-0.4-0.1-0.7-0.3-0.9c-0.2-0.2-0.5-0.5-0.9-0.6c-0.4-0.2-0.8-0.3-1.3-0.5
				s-1-0.3-1.5-0.5c-0.5-0.2-1-0.4-1.5-0.6c-0.5-0.2-0.9-0.5-1.3-0.9c-0.4-0.4-0.7-0.8-0.9-1.3c-0.2-0.5-0.3-1.1-0.3-1.9
				c0-0.7,0.1-1.3,0.4-1.9s0.7-1.1,1.2-1.6c0.5-0.5,1.2-0.8,1.9-1.1s1.7-0.4,2.7-0.4c1.1,0,2.2,0.2,3.1,0.6c0.9,0.4,1.7,0.9,2.3,1.5
				L463.4,54.4z"/>
		</g>
		<g>
			<path class="st7" d="M257.4,102.8h-6V92.1h6v1.1h-4.7v3.4h4.4v1.1h-4.4v3.9h4.7V102.8z"/>
			<path class="st7" d="M265.1,102.8v-5.2c0-0.7-0.1-1.1-0.4-1.5s-0.8-0.5-1.4-0.5c-0.8,0-1.5,0.2-1.8,0.7s-0.6,1.2-0.6,2.2v4.2
				h-1.2v-8h1l0.2,1.1h0.1c0.2-0.4,0.6-0.7,1-0.9s0.9-0.3,1.5-0.3c1,0,1.7,0.2,2.2,0.7c0.5,0.5,0.7,1.2,0.7,2.2v5.2H265.1z"/>
			<path class="st7" d="M272,102.9c-1.2,0-2.1-0.4-2.7-1.1c-0.6-0.7-1-1.7-1-3c0-1.3,0.3-2.4,1-3.1s1.6-1.1,2.8-1.1
				c0.4,0,0.8,0,1.2,0.1s0.7,0.2,0.9,0.3l-0.4,1c-0.3-0.1-0.6-0.2-0.9-0.3c-0.3-0.1-0.6-0.1-0.8-0.1c-1.6,0-2.4,1-2.4,3.1
				c0,1,0.2,1.7,0.6,2.3c0.4,0.5,1,0.8,1.8,0.8c0.7,0,1.4-0.1,2.1-0.4v1.1C273.5,102.8,272.9,102.9,272,102.9z"/>
			<path class="st7" d="M282.9,98.8c0,1.3-0.3,2.3-1,3.1c-0.7,0.7-1.6,1.1-2.7,1.1c-0.7,0-1.4-0.2-1.9-0.5s-1-0.8-1.3-1.5
				s-0.5-1.4-0.5-2.2c0-1.3,0.3-2.3,1-3.1c0.7-0.7,1.6-1.1,2.7-1.1c1.1,0,2,0.4,2.7,1.1C282.6,96.5,282.9,97.5,282.9,98.8z
				 M276.8,98.8c0,1,0.2,1.8,0.6,2.3s1,0.8,1.8,0.8s1.4-0.3,1.8-0.8c0.4-0.5,0.6-1.3,0.6-2.3c0-1-0.2-1.8-0.6-2.3
				c-0.4-0.5-1-0.8-1.8-0.8c-0.8,0-1.4,0.3-1.8,0.8S276.8,97.7,276.8,98.8z"/>
			<path class="st7" d="M290.5,102.8v-5.2c0-0.7-0.1-1.1-0.4-1.5s-0.8-0.5-1.4-0.5c-0.8,0-1.5,0.2-1.8,0.7s-0.6,1.2-0.6,2.2v4.2H285
				v-8h1l0.2,1.1h0.1c0.2-0.4,0.6-0.7,1-0.9s0.9-0.3,1.5-0.3c1,0,1.7,0.2,2.2,0.7c0.5,0.5,0.7,1.2,0.7,2.2v5.2H290.5z"/>
			<path class="st7" d="M296.8,101.9c0.2,0,0.4,0,0.6,0c0.2,0,0.4-0.1,0.5-0.1v0.9c-0.1,0.1-0.3,0.1-0.6,0.2c-0.3,0-0.5,0.1-0.7,0.1
				c-1.6,0-2.3-0.8-2.3-2.5v-4.8h-1.1v-0.6l1.1-0.5l0.5-1.7h0.7v1.9h2.3v0.9h-2.3v4.7c0,0.5,0.1,0.9,0.3,1.1
				S296.4,101.9,296.8,101.9z"/>
			<path class="st7" d="M303.2,94.6c0.4,0,0.7,0,1,0.1l-0.2,1.1c-0.3-0.1-0.6-0.1-0.9-0.1c-0.6,0-1.2,0.3-1.7,0.8
				c-0.5,0.5-0.7,1.2-0.7,2v4.3h-1.2v-8h1l0.1,1.5h0.1c0.3-0.5,0.7-0.9,1.1-1.2S302.7,94.6,303.2,94.6z"/>
			<path class="st7" d="M309.1,102.9c-1.2,0-2.1-0.4-2.8-1.1s-1-1.7-1-3c0-1.3,0.3-2.3,1-3.1c0.6-0.8,1.5-1.1,2.6-1.1
				c1,0,1.8,0.3,2.4,1c0.6,0.7,0.9,1.5,0.9,2.6V99h-5.5c0,0.9,0.3,1.7,0.7,2.1c0.5,0.5,1.1,0.7,1.9,0.7c0.9,0,1.7-0.2,2.6-0.5v1.1
				c-0.4,0.2-0.8,0.3-1.2,0.4C310.1,102.9,309.6,102.9,309.1,102.9z M308.7,95.6c-0.6,0-1.2,0.2-1.5,0.6s-0.6,1-0.7,1.7h4.2
				c0-0.8-0.2-1.4-0.5-1.8S309.4,95.6,308.7,95.6z"/>
			<path class="st7" d="M322.9,102.8l-0.2-1.1h-0.1c-0.4,0.5-0.8,0.8-1.2,1c-0.4,0.2-0.9,0.3-1.5,0.3c-0.8,0-1.4-0.2-1.9-0.6
				c-0.5-0.4-0.7-1-0.7-1.8c0-1.6,1.3-2.5,3.9-2.5l1.4,0v-0.5c0-0.6-0.1-1.1-0.4-1.4c-0.3-0.3-0.7-0.5-1.3-0.5
				c-0.7,0-1.4,0.2-2.3,0.6l-0.4-0.9c0.4-0.2,0.8-0.4,1.3-0.5c0.5-0.1,0.9-0.2,1.4-0.2c1,0,1.7,0.2,2.1,0.6c0.5,0.4,0.7,1.1,0.7,2
				v5.5H322.9z M320.2,101.9c0.8,0,1.4-0.2,1.8-0.6c0.4-0.4,0.6-1,0.6-1.7v-0.7l-1.2,0.1c-1,0-1.7,0.2-2.1,0.5
				c-0.4,0.3-0.6,0.7-0.6,1.2c0,0.4,0.1,0.8,0.4,1C319.3,101.8,319.7,101.9,320.2,101.9z"/>
			<path class="st7" d="M331.5,100.6c0,0.7-0.3,1.3-0.8,1.7s-1.3,0.6-2.3,0.6c-1.1,0-1.9-0.2-2.5-0.5v-1.1c0.4,0.2,0.8,0.3,1.2,0.5
				c0.4,0.1,0.9,0.2,1.3,0.2c0.6,0,1.1-0.1,1.5-0.3c0.3-0.2,0.5-0.5,0.5-0.9c0-0.3-0.1-0.6-0.4-0.8c-0.3-0.2-0.8-0.5-1.6-0.8
				c-0.7-0.3-1.3-0.5-1.6-0.7c-0.3-0.2-0.5-0.4-0.7-0.7c-0.2-0.3-0.2-0.6-0.2-0.9c0-0.7,0.3-1.2,0.8-1.5c0.5-0.4,1.3-0.6,2.2-0.6
				c0.9,0,1.7,0.2,2.5,0.5l-0.4,1c-0.8-0.3-1.5-0.5-2.2-0.5c-0.6,0-1,0.1-1.3,0.3s-0.4,0.4-0.4,0.7c0,0.2,0.1,0.4,0.2,0.5
				c0.1,0.2,0.3,0.3,0.5,0.4s0.7,0.3,1.4,0.6c1,0.3,1.6,0.7,1.9,1C331.3,99.6,331.5,100.1,331.5,100.6z"/>
			<path class="st7" d="M347.6,102.8v-5.2c0-0.6-0.1-1.1-0.4-1.4s-0.7-0.5-1.3-0.5c-0.8,0-1.3,0.2-1.7,0.7s-0.5,1.1-0.5,2v4.5h-1.2
				v-5.2c0-0.6-0.1-1.1-0.4-1.4s-0.7-0.5-1.3-0.5c-0.8,0-1.3,0.2-1.7,0.7c-0.4,0.5-0.5,1.2-0.5,2.2v4.2h-1.2v-8h1l0.2,1.1h0.1
				c0.2-0.4,0.6-0.7,1-0.9c0.4-0.2,0.9-0.3,1.4-0.3c1.3,0,2.1,0.5,2.5,1.4h0.1c0.2-0.4,0.6-0.8,1-1s1-0.4,1.6-0.4
				c0.9,0,1.6,0.2,2,0.7c0.5,0.5,0.7,1.2,0.7,2.2v5.2H347.6z"/>
			<path class="st7" d="M354.7,102.9c-1.2,0-2.1-0.4-2.8-1.1c-0.7-0.7-1-1.7-1-3c0-1.3,0.3-2.3,1-3.1c0.6-0.8,1.5-1.1,2.6-1.1
				c1,0,1.8,0.3,2.4,1c0.6,0.7,0.9,1.5,0.9,2.6V99h-5.5c0,0.9,0.3,1.7,0.7,2.1c0.5,0.5,1.1,0.7,1.9,0.7c0.9,0,1.7-0.2,2.6-0.5v1.1
				c-0.4,0.2-0.8,0.3-1.2,0.4C355.7,102.9,355.3,102.9,354.7,102.9z M354.4,95.6c-0.6,0-1.2,0.2-1.5,0.6c-0.4,0.4-0.6,1-0.7,1.7h4.2
				c0-0.8-0.2-1.4-0.5-1.8S355,95.6,354.4,95.6z"/>
			<path class="st7" d="M361,102.8h-1.2V91.4h1.2V102.8z"/>
			<path class="st7" d="M369,102.8v-5.2c0-0.7-0.1-1.1-0.4-1.5c-0.3-0.3-0.8-0.5-1.4-0.5c-0.8,0-1.5,0.2-1.8,0.7
				c-0.4,0.5-0.6,1.2-0.6,2.3v4.2h-1.2V91.4h1.2v3.4c0,0.4,0,0.8-0.1,1h0.1c0.2-0.4,0.6-0.7,1-0.9c0.4-0.2,0.9-0.3,1.5-0.3
				c1,0,1.7,0.2,2.2,0.7c0.5,0.5,0.7,1.2,0.7,2.2v5.2H369z"/>
			<path class="st7" d="M379.7,98.8c0,1.3-0.3,2.3-1,3.1c-0.7,0.7-1.6,1.1-2.7,1.1c-0.7,0-1.4-0.2-1.9-0.5s-1-0.8-1.3-1.5
				c-0.3-0.6-0.5-1.4-0.5-2.2c0-1.3,0.3-2.3,1-3.1c0.7-0.7,1.6-1.1,2.7-1.1c1.1,0,2,0.4,2.7,1.1C379.3,96.5,379.7,97.5,379.7,98.8z
				 M373.6,98.8c0,1,0.2,1.8,0.6,2.3s1,0.8,1.8,0.8s1.4-0.3,1.8-0.8c0.4-0.5,0.6-1.3,0.6-2.3c0-1-0.2-1.8-0.6-2.3
				c-0.4-0.5-1-0.8-1.8-0.8c-0.8,0-1.4,0.3-1.8,0.8S373.6,97.7,373.6,98.8z"/>
			<path class="st7" d="M385.5,94.6c0.4,0,0.7,0,1,0.1l-0.2,1.1c-0.3-0.1-0.6-0.1-0.9-0.1c-0.6,0-1.2,0.3-1.7,0.8
				c-0.5,0.5-0.7,1.2-0.7,2v4.3h-1.2v-8h1l0.1,1.5h0.1c0.3-0.5,0.7-0.9,1.1-1.2S385,94.6,385.5,94.6z"/>
			<path class="st7" d="M391.3,102.9c-1.2,0-2.1-0.4-2.8-1.1c-0.7-0.7-1-1.7-1-3c0-1.3,0.3-2.3,1-3.1c0.6-0.8,1.5-1.1,2.6-1.1
				c1,0,1.8,0.3,2.4,1c0.6,0.7,0.9,1.5,0.9,2.6V99h-5.5c0,0.9,0.3,1.7,0.7,2.1c0.5,0.5,1.1,0.7,1.9,0.7c0.9,0,1.7-0.2,2.6-0.5v1.1
				c-0.4,0.2-0.8,0.3-1.2,0.4C392.3,102.9,391.9,102.9,391.3,102.9z M391,95.6c-0.6,0-1.2,0.2-1.5,0.6c-0.4,0.4-0.6,1-0.7,1.7h4.2
				c0-0.8-0.2-1.4-0.5-1.8S391.6,95.6,391,95.6z"/>
			<path class="st7" d="M401.5,100.6c0,0.7-0.3,1.3-0.8,1.7s-1.3,0.6-2.3,0.6c-1.1,0-1.9-0.2-2.5-0.5v-1.1c0.4,0.2,0.8,0.3,1.2,0.5
				c0.4,0.1,0.9,0.2,1.3,0.2c0.6,0,1.1-0.1,1.5-0.3c0.3-0.2,0.5-0.5,0.5-0.9c0-0.3-0.1-0.6-0.4-0.8c-0.3-0.2-0.8-0.5-1.6-0.8
				c-0.7-0.3-1.3-0.5-1.6-0.7c-0.3-0.2-0.5-0.4-0.7-0.7c-0.2-0.3-0.2-0.6-0.2-0.9c0-0.7,0.3-1.2,0.8-1.5c0.5-0.4,1.3-0.6,2.2-0.6
				c0.9,0,1.7,0.2,2.5,0.5l-0.4,1c-0.8-0.3-1.5-0.5-2.2-0.5c-0.6,0-1,0.1-1.3,0.3s-0.4,0.4-0.4,0.7c0,0.2,0.1,0.4,0.2,0.5
				c0.1,0.2,0.3,0.3,0.5,0.4s0.7,0.3,1.4,0.6c1,0.3,1.6,0.7,1.9,1C401.3,99.6,401.5,100.1,401.5,100.6z"/>
			<path class="st7" d="M411.1,102.9c-0.5,0-1-0.1-1.4-0.3c-0.4-0.2-0.8-0.5-1.1-0.9h-0.1c0.1,0.5,0.1,0.9,0.1,1.3v3.3h-1.2V94.8h1
				l0.2,1.1h0.1c0.3-0.4,0.7-0.8,1.1-1s0.9-0.3,1.4-0.3c1.1,0,1.9,0.4,2.5,1.1c0.6,0.7,0.9,1.7,0.9,3.1c0,1.3-0.3,2.3-0.9,3.1
				C413,102.6,412.2,102.9,411.1,102.9z M411,95.7c-0.8,0-1.4,0.2-1.8,0.7c-0.4,0.5-0.6,1.2-0.6,2.2v0.3c0,1.1,0.2,1.9,0.6,2.4
				c0.4,0.5,1,0.7,1.8,0.7c0.7,0,1.2-0.3,1.6-0.8c0.4-0.6,0.6-1.3,0.6-2.3c0-1-0.2-1.8-0.6-2.3C412.2,95.9,411.7,95.7,411,95.7z"/>
			<path class="st7" d="M421.5,102.8l-0.2-1.1h-0.1c-0.4,0.5-0.8,0.8-1.2,1c-0.4,0.2-0.9,0.3-1.5,0.3c-0.8,0-1.4-0.2-1.9-0.6
				c-0.5-0.4-0.7-1-0.7-1.8c0-1.6,1.3-2.5,3.9-2.5l1.4,0v-0.5c0-0.6-0.1-1.1-0.4-1.4c-0.3-0.3-0.7-0.5-1.3-0.5
				c-0.7,0-1.4,0.2-2.3,0.6l-0.4-0.9c0.4-0.2,0.8-0.4,1.3-0.5c0.5-0.1,0.9-0.2,1.4-0.2c1,0,1.7,0.2,2.1,0.6c0.5,0.4,0.7,1.1,0.7,2
				v5.5H421.5z M418.8,101.9c0.8,0,1.4-0.2,1.8-0.6c0.4-0.4,0.6-1,0.6-1.7v-0.7l-1.2,0.1c-1,0-1.7,0.2-2.1,0.5
				c-0.4,0.3-0.6,0.7-0.6,1.2c0,0.4,0.1,0.8,0.4,1C417.9,101.8,418.3,101.9,418.8,101.9z"/>
			<path class="st7" d="M430.4,101.7L430.4,101.7c-0.6,0.8-1.5,1.2-2.6,1.2c-1.1,0-1.9-0.4-2.5-1.1c-0.6-0.7-0.9-1.7-0.9-3.1
				c0-1.3,0.3-2.4,0.9-3.1s1.4-1.1,2.4-1.1c1.1,0,1.9,0.4,2.5,1.2h0.1l-0.1-0.6l0-0.6v-3.3h1.2v11.4h-1L430.4,101.7z M428,101.9
				c0.8,0,1.4-0.2,1.8-0.7c0.4-0.5,0.6-1.2,0.6-2.2v-0.3c0-1.1-0.2-1.9-0.6-2.4c-0.4-0.5-1-0.7-1.8-0.7c-0.7,0-1.3,0.3-1.6,0.8
				c-0.4,0.6-0.6,1.3-0.6,2.3c0,1,0.2,1.8,0.6,2.3S427.2,101.9,428,101.9z"/>
			<path class="st7" d="M439.1,102.8l-0.2-1.1h-0.1c-0.4,0.5-0.8,0.8-1.2,1c-0.4,0.2-0.9,0.3-1.5,0.3c-0.8,0-1.4-0.2-1.9-0.6
				c-0.5-0.4-0.7-1-0.7-1.8c0-1.6,1.3-2.5,3.9-2.5l1.4,0v-0.5c0-0.6-0.1-1.1-0.4-1.4c-0.3-0.3-0.7-0.5-1.3-0.5
				c-0.7,0-1.4,0.2-2.3,0.6l-0.4-0.9c0.4-0.2,0.8-0.4,1.3-0.5c0.5-0.1,0.9-0.2,1.4-0.2c1,0,1.7,0.2,2.1,0.6c0.5,0.4,0.7,1.1,0.7,2
				v5.5H439.1z M436.3,101.9c0.8,0,1.4-0.2,1.8-0.6c0.4-0.4,0.6-1,0.6-1.7v-0.7l-1.2,0.1c-1,0-1.7,0.2-2.1,0.5
				c-0.4,0.3-0.6,0.7-0.6,1.2c0,0.4,0.1,0.8,0.4,1C435.5,101.8,435.8,101.9,436.3,101.9z"/>
			<path class="st7" d="M446.1,94.6c0.4,0,0.7,0,1,0.1l-0.2,1.1c-0.3-0.1-0.6-0.1-0.9-0.1c-0.6,0-1.2,0.3-1.7,0.8
				c-0.5,0.5-0.7,1.2-0.7,2v4.3h-1.2v-8h1l0.1,1.5h0.1c0.3-0.5,0.7-0.9,1.1-1.2S445.6,94.6,446.1,94.6z"/>
			<path class="st7" d="M448.5,92.6c0-0.3,0.1-0.5,0.2-0.6c0.1-0.1,0.3-0.2,0.5-0.2c0.2,0,0.4,0.1,0.5,0.2c0.1,0.1,0.2,0.3,0.2,0.6
				s-0.1,0.5-0.2,0.6c-0.1,0.1-0.3,0.2-0.5,0.2c-0.2,0-0.4-0.1-0.5-0.2S448.5,92.9,448.5,92.6z M449.8,102.8h-1.2v-8h1.2V102.8z"/>
			<path class="st7" d="M457.3,102.8l-0.2-1.1H457c-0.4,0.5-0.8,0.8-1.2,1c-0.4,0.2-0.9,0.3-1.5,0.3c-0.8,0-1.4-0.2-1.9-0.6
				c-0.5-0.4-0.7-1-0.7-1.8c0-1.6,1.3-2.5,3.9-2.5l1.4,0v-0.5c0-0.6-0.1-1.1-0.4-1.4c-0.3-0.3-0.7-0.5-1.3-0.5
				c-0.7,0-1.4,0.2-2.3,0.6l-0.4-0.9c0.4-0.2,0.8-0.4,1.3-0.5c0.5-0.1,0.9-0.2,1.4-0.2c1,0,1.7,0.2,2.1,0.6c0.5,0.4,0.7,1.1,0.7,2
				v5.5H457.3z M454.6,101.9c0.8,0,1.4-0.2,1.8-0.6c0.4-0.4,0.6-1,0.6-1.7v-0.7l-1.2,0.1c-1,0-1.7,0.2-2.1,0.5
				c-0.4,0.3-0.6,0.7-0.6,1.2c0,0.4,0.1,0.8,0.4,1C453.7,101.8,454.1,101.9,454.6,101.9z"/>
			<path class="st7" d="M465.9,100.6c0,0.7-0.3,1.3-0.8,1.7s-1.3,0.6-2.3,0.6c-1.1,0-1.9-0.2-2.5-0.5v-1.1c0.4,0.2,0.8,0.3,1.2,0.5
				c0.4,0.1,0.9,0.2,1.3,0.2c0.6,0,1.1-0.1,1.5-0.3c0.3-0.2,0.5-0.5,0.5-0.9c0-0.3-0.1-0.6-0.4-0.8c-0.3-0.2-0.8-0.5-1.6-0.8
				c-0.7-0.3-1.3-0.5-1.6-0.7c-0.3-0.2-0.5-0.4-0.7-0.7c-0.2-0.3-0.2-0.6-0.2-0.9c0-0.7,0.3-1.2,0.8-1.5c0.5-0.4,1.3-0.6,2.2-0.6
				c0.9,0,1.7,0.2,2.5,0.5l-0.4,1c-0.8-0.3-1.5-0.5-2.2-0.5c-0.6,0-1,0.1-1.3,0.3s-0.4,0.4-0.4,0.7c0,0.2,0.1,0.4,0.2,0.5
				c0.1,0.2,0.3,0.3,0.5,0.4s0.7,0.3,1.4,0.6c1,0.3,1.6,0.7,1.9,1C465.7,99.6,465.9,100.1,465.9,100.6z"/>
			<path class="st7" d="M475.2,102.9c-1.2,0-2.1-0.4-2.8-1.1c-0.7-0.7-1-1.7-1-3c0-1.3,0.3-2.3,1-3.1c0.6-0.8,1.5-1.1,2.6-1.1
				c1,0,1.8,0.3,2.4,1c0.6,0.7,0.9,1.5,0.9,2.6V99h-5.5c0,0.9,0.3,1.7,0.7,2.1c0.5,0.5,1.1,0.7,1.9,0.7c0.9,0,1.7-0.2,2.6-0.5v1.1
				c-0.4,0.2-0.8,0.3-1.2,0.4C476.2,102.9,475.7,102.9,475.2,102.9z M474.8,95.6c-0.6,0-1.2,0.2-1.5,0.6c-0.4,0.4-0.6,1-0.7,1.7h4.2
				c0-0.8-0.2-1.4-0.5-1.8S475.5,95.6,474.8,95.6z"/>
			<path class="st7" d="M254.5,120.9c-1.2,0-2.1-0.4-2.7-1.1c-0.6-0.7-1-1.7-1-3c0-1.3,0.3-2.4,1-3.1s1.6-1.1,2.8-1.1
				c0.4,0,0.8,0,1.2,0.1s0.7,0.2,0.9,0.3l-0.4,1c-0.3-0.1-0.6-0.2-0.9-0.3c-0.3-0.1-0.6-0.1-0.8-0.1c-1.6,0-2.4,1-2.4,3.1
				c0,1,0.2,1.7,0.6,2.3c0.4,0.5,1,0.8,1.8,0.8c0.7,0,1.4-0.1,2.1-0.4v1.1C256,120.8,255.3,120.9,254.5,120.9z"/>
			<path class="st7" d="M265.4,116.8c0,1.3-0.3,2.3-1,3.1c-0.7,0.7-1.6,1.1-2.7,1.1c-0.7,0-1.4-0.2-1.9-0.5c-0.6-0.3-1-0.8-1.3-1.4
				c-0.3-0.6-0.5-1.4-0.5-2.2c0-1.3,0.3-2.3,1-3.1c0.7-0.7,1.6-1.1,2.7-1.1c1.1,0,2,0.4,2.7,1.1C265,114.5,265.4,115.5,265.4,116.8z
				 M259.2,116.8c0,1,0.2,1.8,0.6,2.3c0.4,0.5,1,0.8,1.8,0.8s1.4-0.3,1.8-0.8c0.4-0.5,0.6-1.3,0.6-2.3c0-1-0.2-1.8-0.6-2.3
				c-0.4-0.5-1-0.8-1.8-0.8c-0.8,0-1.4,0.3-1.8,0.8S259.2,115.7,259.2,116.8z"/>
			<path class="st7" d="M273,120.8v-5.2c0-0.7-0.1-1.1-0.4-1.5s-0.8-0.5-1.4-0.5c-0.8,0-1.5,0.2-1.8,0.7s-0.6,1.2-0.6,2.2v4.2h-1.2
				v-8h1l0.2,1.1h0.1c0.2-0.4,0.6-0.7,1-0.9c0.4-0.2,0.9-0.3,1.5-0.3c1,0,1.7,0.2,2.2,0.7c0.5,0.5,0.7,1.2,0.7,2.2v5.2H273z"/>
			<path class="st7" d="M280.3,113.7h-2v7.1h-1.2v-7.1h-1.4v-0.5l1.4-0.4v-0.4c0-2,0.9-3,2.6-3c0.4,0,0.9,0.1,1.5,0.3l-0.3,1
				c-0.5-0.2-0.9-0.2-1.2-0.2c-0.5,0-0.8,0.2-1,0.5c-0.2,0.3-0.3,0.8-0.3,1.5v0.5h2V113.7z"/>
			<path class="st7" d="M285.2,120.9c-1.2,0-2.1-0.4-2.8-1.1s-1-1.7-1-3c0-1.3,0.3-2.3,1-3.1c0.6-0.8,1.5-1.1,2.6-1.1
				c1,0,1.8,0.3,2.4,1c0.6,0.7,0.9,1.5,0.9,2.6v0.8h-5.5c0,0.9,0.3,1.7,0.7,2.1c0.5,0.5,1.1,0.7,1.9,0.7c0.9,0,1.7-0.2,2.6-0.5v1.1
				c-0.4,0.2-0.8,0.3-1.2,0.4C286.2,120.9,285.7,120.9,285.2,120.9z M284.8,113.6c-0.6,0-1.2,0.2-1.5,0.6s-0.6,1-0.7,1.7h4.2
				c0-0.8-0.2-1.4-0.5-1.8C286,113.8,285.5,113.6,284.8,113.6z"/>
			<path class="st7" d="M290.1,110.6c0-0.3,0.1-0.5,0.2-0.6c0.1-0.1,0.3-0.2,0.5-0.2c0.2,0,0.4,0.1,0.5,0.2s0.2,0.3,0.2,0.6
				c0,0.3-0.1,0.5-0.2,0.6c-0.1,0.1-0.3,0.2-0.5,0.2c-0.2,0-0.4-0.1-0.5-0.2C290.2,111.1,290.1,110.9,290.1,110.6z M291.4,120.8
				h-1.2v-8h1.2V120.8z"/>
			<path class="st7" d="M296.6,119.9c0.2,0,0.4,0,0.6,0c0.2,0,0.4-0.1,0.5-0.1v0.9c-0.1,0.1-0.3,0.1-0.6,0.2c-0.3,0-0.5,0.1-0.7,0.1
				c-1.6,0-2.3-0.8-2.3-2.5v-4.8h-1.1v-0.6l1.1-0.5l0.5-1.7h0.7v1.9h2.3v0.9h-2.3v4.7c0,0.5,0.1,0.9,0.3,1.1
				S296.2,119.9,296.6,119.9z"/>
			<path class="st7" d="M304.2,120.8l-0.2-1.1h-0.1c-0.4,0.5-0.8,0.8-1.2,1c-0.4,0.2-0.9,0.3-1.5,0.3c-0.8,0-1.4-0.2-1.9-0.6
				c-0.5-0.4-0.7-1-0.7-1.8c0-1.6,1.3-2.5,3.9-2.5l1.4,0v-0.5c0-0.6-0.1-1.1-0.4-1.4c-0.3-0.3-0.7-0.5-1.3-0.5
				c-0.7,0-1.4,0.2-2.3,0.6l-0.4-0.9c0.4-0.2,0.8-0.4,1.3-0.5c0.5-0.1,0.9-0.2,1.4-0.2c1,0,1.7,0.2,2.1,0.6c0.5,0.4,0.7,1.1,0.7,2
				v5.5H304.2z M301.5,119.9c0.8,0,1.4-0.2,1.8-0.6c0.4-0.4,0.6-1,0.6-1.7v-0.7l-1.2,0.1c-1,0-1.7,0.2-2.1,0.5
				c-0.4,0.3-0.6,0.7-0.6,1.2c0,0.4,0.1,0.8,0.4,1C300.6,119.8,301,119.9,301.5,119.9z"/>
			<path class="st7" d="M311.3,112.6c0.4,0,0.7,0,1,0.1l-0.2,1.1c-0.3-0.1-0.6-0.1-0.9-0.1c-0.6,0-1.2,0.3-1.7,0.8
				c-0.5,0.5-0.7,1.2-0.7,2v4.3h-1.2v-8h1l0.1,1.5h0.1c0.3-0.5,0.7-0.9,1.1-1.2S310.8,112.6,311.3,112.6z"/>
			<path class="st7" d="M313.6,110.6c0-0.3,0.1-0.5,0.2-0.6c0.1-0.1,0.3-0.2,0.5-0.2c0.2,0,0.4,0.1,0.5,0.2s0.2,0.3,0.2,0.6
				c0,0.3-0.1,0.5-0.2,0.6c-0.1,0.1-0.3,0.2-0.5,0.2c-0.2,0-0.4-0.1-0.5-0.2C313.7,111.1,313.6,110.9,313.6,110.6z M315,120.8h-1.2
				v-8h1.2V120.8z"/>
			<path class="st7" d="M322.5,120.8l-0.2-1.1h-0.1c-0.4,0.5-0.8,0.8-1.2,1c-0.4,0.2-0.9,0.3-1.5,0.3c-0.8,0-1.4-0.2-1.9-0.6
				c-0.5-0.4-0.7-1-0.7-1.8c0-1.6,1.3-2.5,3.9-2.5l1.4,0v-0.5c0-0.6-0.1-1.1-0.4-1.4c-0.3-0.3-0.7-0.5-1.3-0.5
				c-0.7,0-1.4,0.2-2.3,0.6l-0.4-0.9c0.4-0.2,0.8-0.4,1.3-0.5c0.5-0.1,0.9-0.2,1.4-0.2c1,0,1.7,0.2,2.1,0.6c0.5,0.4,0.7,1.1,0.7,2
				v5.5H322.5z M319.7,119.9c0.8,0,1.4-0.2,1.8-0.6c0.4-0.4,0.6-1,0.6-1.7v-0.7l-1.2,0.1c-1,0-1.7,0.2-2.1,0.5
				c-0.4,0.3-0.6,0.7-0.6,1.2c0,0.4,0.1,0.8,0.4,1C318.9,119.8,319.3,119.9,319.7,119.9z"/>
			<path class="st7" d="M331.1,118.6c0,0.7-0.3,1.3-0.8,1.7s-1.3,0.6-2.3,0.6c-1.1,0-1.9-0.2-2.5-0.5v-1.1c0.4,0.2,0.8,0.3,1.2,0.5
				c0.4,0.1,0.9,0.2,1.3,0.2c0.6,0,1.1-0.1,1.5-0.3c0.3-0.2,0.5-0.5,0.5-0.9c0-0.3-0.1-0.6-0.4-0.8c-0.3-0.2-0.8-0.5-1.6-0.8
				c-0.7-0.3-1.3-0.5-1.6-0.7c-0.3-0.2-0.5-0.4-0.7-0.7c-0.2-0.3-0.2-0.6-0.2-0.9c0-0.7,0.3-1.2,0.8-1.5c0.5-0.4,1.3-0.6,2.2-0.6
				c0.9,0,1.7,0.2,2.5,0.5l-0.4,1c-0.8-0.3-1.5-0.5-2.2-0.5c-0.6,0-1,0.1-1.3,0.3s-0.4,0.4-0.4,0.7c0,0.2,0.1,0.4,0.2,0.5
				c0.1,0.2,0.3,0.3,0.5,0.4s0.7,0.3,1.4,0.6c1,0.3,1.6,0.7,1.9,1C330.9,117.6,331.1,118.1,331.1,118.6z"/>
			<path class="st7" d="M342.4,120.8v-5.2c0-0.7-0.1-1.1-0.4-1.5s-0.8-0.5-1.4-0.5c-0.8,0-1.5,0.2-1.8,0.7s-0.6,1.2-0.6,2.2v4.2
				h-1.2v-8h1l0.2,1.1h0.1c0.2-0.4,0.6-0.7,1-0.9c0.4-0.2,0.9-0.3,1.5-0.3c1,0,1.7,0.2,2.2,0.7c0.5,0.5,0.7,1.2,0.7,2.2v5.2H342.4z"
				/>
			<path class="st7" d="M351.1,120.8l-0.2-1.1h-0.1c-0.4,0.5-0.8,0.8-1.2,1c-0.4,0.2-0.9,0.3-1.5,0.3c-0.8,0-1.4-0.2-1.9-0.6
				c-0.5-0.4-0.7-1-0.7-1.8c0-1.6,1.3-2.5,3.9-2.5l1.4,0v-0.5c0-0.6-0.1-1.1-0.4-1.4c-0.3-0.3-0.7-0.5-1.3-0.5
				c-0.7,0-1.4,0.2-2.3,0.6l-0.4-0.9c0.4-0.2,0.8-0.4,1.3-0.5c0.5-0.1,0.9-0.2,1.4-0.2c1,0,1.7,0.2,2.1,0.6c0.5,0.4,0.7,1.1,0.7,2
				v5.5H351.1z M348.3,119.9c0.8,0,1.4-0.2,1.8-0.6c0.4-0.4,0.6-1,0.6-1.7v-0.7l-1.2,0.1c-1,0-1.7,0.2-2.1,0.5
				c-0.4,0.3-0.6,0.7-0.6,1.2c0,0.4,0.1,0.8,0.4,1C347.5,119.8,347.9,119.9,348.3,119.9z"/>
			<path class="st7" d="M361.6,120.9c-1.2,0-2.1-0.4-2.7-1.1c-0.6-0.7-1-1.7-1-3c0-1.3,0.3-2.4,1-3.1c0.6-0.7,1.6-1.1,2.8-1.1
				c0.4,0,0.8,0,1.2,0.1s0.7,0.2,0.9,0.3l-0.4,1c-0.3-0.1-0.6-0.2-0.9-0.3c-0.3-0.1-0.6-0.1-0.8-0.1c-1.6,0-2.4,1-2.4,3.1
				c0,1,0.2,1.7,0.6,2.3c0.4,0.5,1,0.8,1.8,0.8c0.7,0,1.4-0.1,2.1-0.4v1.1C363.1,120.8,362.4,120.9,361.6,120.9z"/>
			<path class="st7" d="M365.4,110.6c0-0.3,0.1-0.5,0.2-0.6c0.1-0.1,0.3-0.2,0.5-0.2c0.2,0,0.4,0.1,0.5,0.2c0.1,0.1,0.2,0.3,0.2,0.6
				c0,0.3-0.1,0.5-0.2,0.6c-0.1,0.1-0.3,0.2-0.5,0.2c-0.2,0-0.4-0.1-0.5-0.2C365.5,111.1,365.4,110.9,365.4,110.6z M366.7,120.8
				h-1.2v-8h1.2V120.8z"/>
			<path class="st7" d="M374.8,119.7L374.8,119.7c-0.6,0.8-1.5,1.2-2.6,1.2c-1.1,0-1.9-0.4-2.5-1.1c-0.6-0.7-0.9-1.7-0.9-3.1
				c0-1.3,0.3-2.4,0.9-3.1s1.4-1.1,2.4-1.1c1.1,0,1.9,0.4,2.5,1.2h0.1l-0.1-0.6l0-0.6v-3.3h1.2v11.4h-1L374.8,119.7z M372.4,119.9
				c0.8,0,1.4-0.2,1.8-0.7c0.4-0.5,0.6-1.2,0.6-2.2v-0.3c0-1.1-0.2-1.9-0.6-2.4c-0.4-0.5-1-0.7-1.8-0.7c-0.7,0-1.3,0.3-1.6,0.8
				c-0.4,0.6-0.6,1.3-0.6,2.3c0,1,0.2,1.8,0.6,2.3S371.6,119.9,372.4,119.9z"/>
			<path class="st7" d="M383.4,120.8l-0.2-1.1h-0.1c-0.4,0.5-0.8,0.8-1.2,1c-0.4,0.2-0.9,0.3-1.5,0.3c-0.8,0-1.4-0.2-1.9-0.6
				c-0.5-0.4-0.7-1-0.7-1.8c0-1.6,1.3-2.5,3.9-2.5l1.4,0v-0.5c0-0.6-0.1-1.1-0.4-1.4c-0.3-0.3-0.7-0.5-1.3-0.5
				c-0.7,0-1.4,0.2-2.3,0.6l-0.4-0.9c0.4-0.2,0.8-0.4,1.3-0.5c0.5-0.1,0.9-0.2,1.4-0.2c1,0,1.7,0.2,2.1,0.6c0.5,0.4,0.7,1.1,0.7,2
				v5.5H383.4z M380.7,119.9c0.8,0,1.4-0.2,1.8-0.6c0.4-0.4,0.6-1,0.6-1.7v-0.7l-1.2,0.1c-1,0-1.7,0.2-2.1,0.5
				c-0.4,0.3-0.6,0.7-0.6,1.2c0,0.4,0.1,0.8,0.4,1C379.8,119.8,380.2,119.9,380.7,119.9z"/>
			<path class="st7" d="M392.3,119.7L392.3,119.7c-0.6,0.8-1.5,1.2-2.6,1.2c-1.1,0-1.9-0.4-2.5-1.1c-0.6-0.7-0.9-1.7-0.9-3.1
				c0-1.3,0.3-2.4,0.9-3.1s1.4-1.1,2.4-1.1c1.1,0,1.9,0.4,2.5,1.2h0.1l-0.1-0.6l0-0.6v-3.3h1.2v11.4h-1L392.3,119.7z M389.9,119.9
				c0.8,0,1.4-0.2,1.8-0.7c0.4-0.5,0.6-1.2,0.6-2.2v-0.3c0-1.1-0.2-1.9-0.6-2.4c-0.4-0.5-1-0.7-1.8-0.7c-0.7,0-1.3,0.3-1.6,0.8
				c-0.4,0.6-0.6,1.3-0.6,2.3c0,1,0.2,1.8,0.6,2.3S389.2,119.9,389.9,119.9z"/>
			<path class="st7" d="M399.4,120.9c-1.2,0-2.1-0.4-2.8-1.1c-0.7-0.7-1-1.7-1-3c0-1.3,0.3-2.3,1-3.1c0.6-0.8,1.5-1.1,2.6-1.1
				c1,0,1.8,0.3,2.4,1c0.6,0.7,0.9,1.5,0.9,2.6v0.8h-5.5c0,0.9,0.3,1.7,0.7,2.1c0.5,0.5,1.1,0.7,1.9,0.7c0.9,0,1.7-0.2,2.6-0.5v1.1
				c-0.4,0.2-0.8,0.3-1.2,0.4C400.4,120.9,400,120.9,399.4,120.9z M399.1,113.6c-0.6,0-1.2,0.2-1.5,0.6c-0.4,0.4-0.6,1-0.7,1.7h4.2
				c0-0.8-0.2-1.4-0.5-1.8C400.2,113.8,399.7,113.6,399.1,113.6z"/>
			<path class="st7" d="M404.3,120c0-0.3,0.1-0.6,0.2-0.7c0.1-0.2,0.4-0.3,0.6-0.3c0.3,0,0.5,0.1,0.7,0.3c0.2,0.2,0.2,0.4,0.2,0.7
				c0,0.3-0.1,0.6-0.2,0.7s-0.4,0.3-0.7,0.3c-0.2,0-0.5-0.1-0.6-0.2C404.4,120.6,404.3,120.4,404.3,120z"/>
		</g>
		<g>
			<g>
				<g>
					<path class="st6" d="M171.5,90.9c0,0-11.3-3.4-16.5-8.6c-6-6-7.6-17.7-4.9-20.4L175.3,87"/>
				</g>
				<path class="st6" d="M175.3,87l28.6,21.7c3.3,2.7,3.9,7,1.3,9.6c-2.6,2.6-6.9,2-9.6-1.3l-24.2-26.1"/>
			</g>
			<g>
				<g>
					<path class="st6" d="M197.2,61.9"/>
					<path class="st6" d="M185.9,89c2.3,0.1,8.3-0.3,12.9-5.2c4.3-4.6,8.1-12.2,8.1-12.2"/>
				</g>
				<g>
					<path class="st6" d="M176.9,96.9L160.1,117c-2.7,3.3-7,3.9-9.6,1.3c-2.6-2.6-2-6.9,1.3-9.6L172,91.8"/>
				</g>
				<g>
					<path class="st6" d="M179.9,83.9c0,0-1-7.3,5.2-13.9c4.3-4.6,12.1-8.1,12.1-8.1"/>
				</g>
				<line class="st6" x1="200.8" y1="64.1" x2="189.4" y2="75.5"/>
				<line class="st6" x1="204.7" y1="68" x2="193.3" y2="79.4"/>
				<path class="st6" d="M206.9,71.6c0,0-0.1-2.1-3.9-5.8c-3.7-3.7-5.9-3.9-5.9-3.9"/>
			</g>
		</g>
	</g>
</g>
</svg>
