<?xml version="1.0" encoding="utf-8"?>
<!-- Generator: Adobe Illustrator 19.0.0, SVG Export Plug-In . SVG Version: 6.00 Build 0)  -->
<svg version="1.1" id="Camada_1" xmlns="http://www.w3.org/2000/svg" xmlns:xlink="http://www.w3.org/1999/xlink" x="0px" y="0px"
	 viewBox="125 0 450 200" style="enable-background:new 125 0 450 200;" xml:space="preserve">
<style type="text/css">
	.st0{opacity:0.42;fill:#AEC2D1;enable-background:new    ;}
	.st1{fill:#A80804;}
	.st2{fill:#FFFFFF;}
	.st3{fill:url(#XMLID_2_);}
	.st4{fill:#EFEFEF;}
	.st5{fill:#EF0000;}
	.st6{fill:#E46101;}
	.st7{fill:url(#XMLID_3_);}
	.st8{enable-background:new    ;}
	.st9{fill:#F9F9F9;}
</style>
<g id="XMLID_15_">
	<path id="XMLID_22_" class="st0" d="M542.3,80.8l-4.7-6l0,0l-8.8-11.2c-4.5-5.8-10.8-9.6-17.8-11v-0.4c0-10.8-8.8-19.6-19.6-19.6
		h-209h-18.8h-2.5c-5.8,0-10.5,4.7-10.5,10.5V52H245h-9.1l0,0c-0.1-10.7-8.8-19.4-19.5-19.4h-64.6c-10.8,0-19.5,8.8-19.5,19.6v51.3
		c0,23.4,19,42.4,42.4,42.4H213l0,0h65.4h9.1h213c7.5,9.2,18.9,15.1,31.7,15.1c22.5,0,40.8-18.2,40.8-40.8
		C572.9,101.2,559.9,85.3,542.3,80.8z"/>
	<g id="XMLID_23_">
		<path id="XMLID_21_" class="st1" d="M276.9,27h-23.8c-4.4,0-8,3.6-8,8v30.6h31.8V27z"/>
		<path id="XMLID_20_" class="st2" d="M543.2,102.3l-20,26.1c-5.7,7.5-14.6,11.8-24,11.8H207.4c-23.4,0-42.4-19-42.4-42.4V46.4
			h334.5c9.3,0,18,4.3,23.7,11.6l19.9,25.3C547.4,88.8,547.5,96.7,543.2,102.3z"/>
		<linearGradient id="XMLID_2_" gradientUnits="userSpaceOnUse" x1="153.6562" y1="21.5092" x2="220.4355" y2="164.7179">
			<stop  offset="0" style="stop-color:#FF0D00"/>
			<stop  offset="0.1286" style="stop-color:#F80D00"/>
			<stop  offset="0.3226" style="stop-color:#E30E00"/>
			<stop  offset="0.5576" style="stop-color:#C10E00"/>
			<stop  offset="0.8226" style="stop-color:#920F00"/>
			<stop  offset="1" style="stop-color:#6F1000"/>
		</linearGradient>
		<path id="XMLID_19_" class="st3" d="M230.3,97.9V46.6c0-10.8-8.8-19.6-19.6-19.6h-64.5c-10.8,0-19.5,8.8-19.5,19.6v51.3
			c0,23.4,19,42.4,42.4,42.4h103.7C249.3,140.2,230.3,121.3,230.3,97.9z"/>
		<path id="XMLID_18_" class="st4" d="M281.8,140.2h-9.1c-23.4,0-42.4-19-42.4-42.4V46.4h9.1v51.4
			C239.4,121.3,258.4,140.2,281.8,140.2z"/>
		<path id="XMLID_17_" class="st5" d="M275.1,69.9h216.3c7.8,0,14.1-6.3,14.1-14.1v-9.3c0-10.8-8.8-19.6-19.6-19.6H258.1
			c4,5.5,6.4,12.2,6.4,19.6v12.8C264.5,65.2,269.2,69.9,275.1,69.9z"/>
		<circle id="XMLID_10_" class="st6" cx="526.5" cy="114.6" r="40.8"/>
		<path id="XMLID_9_" class="st4" d="M483.6,109.2c0,12.4,5.6,23.6,14.4,31h1.2c9.4,0,18.3-4.4,24-11.8l20-26.1
			c4.3-5.6,4.3-13.5-0.1-19L532,69.2c-2.5-0.5-5-0.7-7.6-0.7C501.9,68.4,483.6,86.7,483.6,109.2z"/>
		<radialGradient id="XMLID_3_" cx="526.5" cy="114.6" r="40.8" gradientUnits="userSpaceOnUse">
			<stop  offset="0" style="stop-color:#E90D00"/>
			<stop  offset="0.3715" style="stop-color:#E70D00"/>
			<stop  offset="0.5357" style="stop-color:#E00D00"/>
			<stop  offset="0.6591" style="stop-color:#D30E00"/>
			<stop  offset="0.7621" style="stop-color:#C10E00"/>
			<stop  offset="0.8524" style="stop-color:#AA0F00"/>
			<stop  offset="0.9325" style="stop-color:#8D0F00"/>
			<stop  offset="1" style="stop-color:#6F1000"/>
		</radialGradient>
		<circle id="XMLID_7_" class="st7" cx="526.5" cy="114.6" r="40.8"/>
		<path id="XMLID_28_" class="st2" d="M526.5,80.9c-18.6,0-33.7,15.1-33.7,33.7s15.1,33.7,33.7,33.7c18.6,0,33.7-15.1,33.7-33.7
			S545.1,80.9,526.5,80.9z M526.5,144c-16.2,0-29.4-13.2-29.4-29.4s13.2-29.4,29.4-29.4c16.2,0,29.4,13.2,29.4,29.4
			C555.9,130.9,542.7,144,526.5,144z"/>
		<g class="st8">
			<path class="st2" d="M318.4,61.2h-4.1v-25h14.1v3.5h-10v7.8h9.4v3.5h-9.4V61.2z"/>
			<path class="st2" d="M344.4,61.2l-0.8-2.6h-0.1c-0.9,1.2-1.8,1.9-2.8,2.3c-0.9,0.4-2.1,0.6-3.6,0.6c-1.9,0-3.3-0.5-4.3-1.5
				c-1-1-1.6-2.4-1.6-4.3c0-1.9,0.7-3.4,2.2-4.4c1.4-1,3.7-1.5,6.6-1.6l3.3-0.1v-1c0-1.2-0.3-2.1-0.8-2.7c-0.6-0.6-1.4-0.9-2.6-0.9
				c-1,0-1.9,0.1-2.8,0.4c-0.9,0.3-1.7,0.6-2.6,1l-1.3-2.9c1-0.5,2.1-0.9,3.4-1.2c1.2-0.3,2.4-0.4,3.5-0.4c2.4,0,4.2,0.5,5.4,1.6
				c1.2,1,1.8,2.7,1.8,4.9v12.7H344.4z M338.4,58.4c1.5,0,2.6-0.4,3.5-1.2s1.3-2,1.3-3.4v-1.6l-2.4,0.1c-1.9,0.1-3.3,0.4-4.1,0.9
				c-0.9,0.6-1.3,1.4-1.3,2.6c0,0.8,0.3,1.5,0.8,2C336.7,58.2,337.4,58.4,338.4,58.4z"/>
			<path class="st2" d="M362.5,41.9c0.8,0,1.5,0.1,2,0.2l-0.4,3.7c-0.6-0.1-1.2-0.2-1.8-0.2c-1.6,0-2.9,0.5-3.9,1.6
				c-1,1-1.5,2.4-1.5,4.1v9.9h-4V42.3h3.1l0.5,3.3h0.2c0.6-1.1,1.4-2,2.5-2.7C360.2,42.3,361.3,41.9,362.5,41.9z"/>
			<path class="st2" d="M383.9,61.2h-4V49.5c0-1.4-0.3-2.5-0.8-3.2s-1.4-1.1-2.6-1.1c-1.5,0-2.7,0.5-3.4,1.5c-0.7,1-1.1,2.7-1.1,5
				v9.4h-4V42.3h3.1l0.6,2.5h0.2c0.5-0.9,1.3-1.6,2.3-2.1c1-0.5,2.1-0.7,3.3-0.7c2.9,0,4.8,1,5.8,3h0.3c0.6-0.9,1.3-1.7,2.4-2.2
				c1-0.5,2.2-0.8,3.5-0.8c2.3,0,3.9,0.6,4.9,1.7c1,1.1,1.5,2.9,1.5,5.2v12.3h-4V49.5c0-1.4-0.3-2.5-0.8-3.2
				c-0.6-0.7-1.4-1.1-2.6-1.1c-1.6,0-2.7,0.5-3.4,1.5c-0.7,1-1.1,2.5-1.1,4.5V61.2z"/>
			<path class="st2" d="M413.2,61.2l-0.8-2.6h-0.1c-0.9,1.2-1.8,1.9-2.8,2.3c-0.9,0.4-2.1,0.6-3.6,0.6c-1.9,0-3.3-0.5-4.3-1.5
				c-1-1-1.6-2.4-1.6-4.3c0-1.9,0.7-3.4,2.2-4.4c1.4-1,3.7-1.5,6.6-1.6l3.3-0.1v-1c0-1.2-0.3-2.1-0.8-2.7c-0.6-0.6-1.4-0.9-2.6-0.9
				c-1,0-1.9,0.1-2.8,0.4c-0.9,0.3-1.7,0.6-2.6,1l-1.3-2.9c1-0.5,2.1-0.9,3.4-1.2c1.2-0.3,2.4-0.4,3.5-0.4c2.4,0,4.2,0.5,5.4,1.6
				c1.2,1,1.8,2.7,1.8,4.9v12.7H413.2z M407.3,58.4c1.5,0,2.6-0.4,3.5-1.2s1.3-2,1.3-3.4v-1.6l-2.4,0.1c-1.9,0.1-3.3,0.4-4.1,0.9
				c-0.9,0.6-1.3,1.4-1.3,2.6c0,0.8,0.3,1.5,0.8,2C405.5,58.2,406.3,58.4,407.3,58.4z"/>
			<path class="st2" d="M429.3,61.5c-2.9,0-5-0.8-6.5-2.5c-1.5-1.7-2.2-4.1-2.2-7.2c0-3.2,0.8-5.6,2.3-7.3c1.6-1.7,3.8-2.6,6.7-2.6
				c2,0,3.8,0.4,5.4,1.1l-1.2,3.2c-1.7-0.7-3.1-1-4.2-1c-3.3,0-4.9,2.2-4.9,6.5c0,2.1,0.4,3.7,1.2,4.8s2,1.6,3.6,1.6
				c1.8,0,3.5-0.4,5.1-1.3v3.5c-0.7,0.4-1.5,0.7-2.3,0.9S430.5,61.5,429.3,61.5z"/>
			<path class="st2" d="M438.8,37.3c0-0.7,0.2-1.3,0.6-1.7c0.4-0.4,1-0.6,1.7-0.6c0.7,0,1.3,0.2,1.6,0.6c0.4,0.4,0.6,0.9,0.6,1.7
				c0,0.7-0.2,1.2-0.6,1.6c-0.4,0.4-0.9,0.6-1.6,0.6c-0.7,0-1.3-0.2-1.7-0.6C439,38.5,438.8,37.9,438.8,37.3z M443.1,61.2h-4V42.3h4
				V61.2z"/>
			<path class="st2" d="M460.6,61.2l-0.8-2.6h-0.1c-0.9,1.2-1.8,1.9-2.8,2.3c-0.9,0.4-2.1,0.6-3.6,0.6c-1.9,0-3.3-0.5-4.3-1.5
				c-1-1-1.6-2.4-1.6-4.3c0-1.9,0.7-3.4,2.2-4.4c1.4-1,3.7-1.5,6.6-1.6l3.3-0.1v-1c0-1.2-0.3-2.1-0.8-2.7c-0.6-0.6-1.4-0.9-2.6-0.9
				c-1,0-1.9,0.1-2.8,0.4c-0.9,0.3-1.7,0.6-2.6,1l-1.3-2.9c1-0.5,2.1-0.9,3.4-1.2c1.2-0.3,2.4-0.4,3.5-0.4c2.4,0,4.2,0.5,5.4,1.6
				c1.2,1,1.8,2.7,1.8,4.9v12.7H460.6z M454.7,58.4c1.5,0,2.6-0.4,3.5-1.2s1.3-2,1.3-3.4v-1.6l-2.4,0.1c-1.9,0.1-3.3,0.4-4.1,0.9
				c-0.9,0.6-1.3,1.4-1.3,2.6c0,0.8,0.3,1.5,0.8,2C452.9,58.2,453.7,58.4,454.7,58.4z"/>
		</g>
		<g class="st8">
			<path d="M246,81.6h1v7.2h3.5v0.9H246V81.6z"/>
			<path d="M256.7,86.7c0,2.1-1.5,3.1-2.9,3.1c-1.6,0-2.8-1.2-2.8-3c0-1.9,1.3-3.1,2.9-3.1C255.6,83.7,256.7,84.9,256.7,86.7z
				 M252.1,86.8c0,1.3,0.7,2.2,1.8,2.2c1,0,1.8-0.9,1.8-2.3c0-1-0.5-2.2-1.7-2.2C252.7,84.5,252.1,85.7,252.1,86.8z"/>
			<path d="M258.1,85.7c0-0.7,0-1.3,0-1.8h0.9l0,1.1h0c0.3-0.8,0.9-1.3,1.6-1.3c0.1,0,0.2,0,0.3,0v1c-0.1,0-0.2,0-0.4,0
				c-0.7,0-1.3,0.6-1.4,1.4c0,0.1,0,0.3,0,0.5v3.1h-1V85.7z"/>
			<path d="M262.5,86.9c0,1.4,0.9,2,2,2c0.8,0,1.2-0.1,1.6-0.3l0.2,0.8c-0.4,0.2-1,0.4-1.9,0.4c-1.8,0-2.9-1.2-2.9-2.9
				s1-3.1,2.7-3.1c1.9,0,2.4,1.7,2.4,2.7c0,0.2,0,0.4,0,0.5H262.5z M265.5,86.2c0-0.7-0.3-1.7-1.5-1.7c-1.1,0-1.5,1-1.6,1.7H265.5z"
				/>
			<path d="M267.9,85.4c0-0.6,0-1.1,0-1.6h0.9l0,0.9h0c0.3-0.6,0.9-1.1,1.8-1.1c0.8,0,1.4,0.5,1.6,1.2h0c0.2-0.3,0.4-0.6,0.6-0.8
				c0.3-0.3,0.7-0.4,1.3-0.4c0.8,0,1.9,0.5,1.9,2.5v3.4h-1v-3.3c0-1.1-0.4-1.8-1.3-1.8c-0.6,0-1.1,0.4-1.2,1c0,0.1-0.1,0.3-0.1,0.5
				v3.6h-1v-3.5c0-0.9-0.4-1.6-1.2-1.6c-0.7,0-1.1,0.5-1.3,1.1c-0.1,0.2-0.1,0.3-0.1,0.5v3.5h-1V85.4z"/>
			<path d="M281.6,82.2c0,0.4-0.3,0.6-0.7,0.6c-0.4,0-0.6-0.3-0.6-0.6c0-0.4,0.3-0.7,0.7-0.7C281.4,81.6,281.6,81.8,281.6,82.2z
				 M280.4,89.7v-5.8h1.1v5.8H280.4z"/>
			<path d="M283.2,85.7c0-0.7,0-1.3,0-1.9h0.9l0,1h0c0.4-0.7,1.1-1.1,2.1-1.1c1.4,0,2.5,1.2,2.5,3c0,2.1-1.3,3.1-2.6,3.1
				c-0.8,0-1.4-0.3-1.8-0.9h0V92h-1V85.7z M284.3,87.3c0,0.2,0,0.3,0,0.4c0.2,0.7,0.8,1.2,1.6,1.2c1.1,0,1.8-0.9,1.8-2.2
				c0-1.2-0.6-2.2-1.7-2.2c-0.7,0-1.4,0.5-1.6,1.3c0,0.1-0.1,0.3-0.1,0.4V87.3z"/>
			<path d="M289.9,88.6c0.3,0.2,0.9,0.4,1.4,0.4c0.8,0,1.1-0.4,1.1-0.9c0-0.5-0.3-0.8-1.1-1.1c-1-0.4-1.5-0.9-1.5-1.6
				c0-0.9,0.8-1.7,2-1.7c0.6,0,1.1,0.2,1.4,0.4l-0.3,0.8c-0.2-0.1-0.6-0.3-1.2-0.3c-0.6,0-1,0.4-1,0.8c0,0.5,0.3,0.7,1.1,1
				c1,0.4,1.5,0.9,1.5,1.8c0,1-0.8,1.7-2.2,1.7c-0.6,0-1.2-0.2-1.6-0.4L289.9,88.6z"/>
			<path d="M299.7,88.1c0,0.6,0,1.1,0,1.6h-0.9l-0.1-0.9h0c-0.3,0.5-0.9,1.1-1.9,1.1c-0.9,0-2-0.5-2-2.5v-3.4h1.1v3.2
				c0,1.1,0.3,1.8,1.3,1.8c0.7,0,1.2-0.5,1.4-1c0.1-0.2,0.1-0.3,0.1-0.5v-3.6h1.1V88.1z"/>
			<path d="M301.4,85.4c0-0.6,0-1.1,0-1.6h0.9l0,0.9h0c0.3-0.6,0.9-1.1,1.8-1.1c0.8,0,1.4,0.5,1.6,1.2h0c0.2-0.3,0.4-0.6,0.6-0.8
				c0.3-0.3,0.7-0.4,1.3-0.4c0.8,0,1.9,0.5,1.9,2.5v3.4h-1v-3.3c0-1.1-0.4-1.8-1.3-1.8c-0.6,0-1.1,0.4-1.2,1c0,0.1-0.1,0.3-0.1,0.5
				v3.6h-1v-3.5c0-0.9-0.4-1.6-1.2-1.6c-0.7,0-1.1,0.5-1.3,1.1c-0.1,0.2-0.1,0.3-0.1,0.5v3.5h-1V85.4z"/>
			<path d="M319,81.1v7c0,0.5,0,1.1,0,1.5h-0.9l0-1h0c-0.3,0.6-1,1.1-2,1.1c-1.4,0-2.5-1.2-2.5-3c0-1.9,1.2-3.1,2.6-3.1
				c0.9,0,1.5,0.4,1.8,0.9h0v-3.5H319z M317.9,86.2c0-0.1,0-0.3,0-0.4c-0.2-0.7-0.7-1.2-1.5-1.2c-1.1,0-1.7,1-1.7,2.2
				c0,1.2,0.6,2.1,1.7,2.1c0.7,0,1.4-0.5,1.5-1.3c0-0.1,0-0.3,0-0.5V86.2z"/>
			<path d="M326,86.7c0,2.1-1.5,3.1-2.9,3.1c-1.6,0-2.8-1.2-2.8-3c0-1.9,1.3-3.1,2.9-3.1C324.9,83.7,326,84.9,326,86.7z M321.4,86.8
				c0,1.3,0.7,2.2,1.8,2.2c1,0,1.8-0.9,1.8-2.3c0-1-0.5-2.2-1.7-2.2C321.9,84.5,321.4,85.7,321.4,86.8z"/>
			<path d="M327.3,81.1h1.1v8.5h-1.1V81.1z"/>
			<path d="M335.4,86.7c0,2.1-1.5,3.1-2.9,3.1c-1.6,0-2.8-1.2-2.8-3c0-1.9,1.3-3.1,2.9-3.1C334.3,83.7,335.4,84.9,335.4,86.7z
				 M330.8,86.8c0,1.3,0.7,2.2,1.8,2.2c1,0,1.8-0.9,1.8-2.3c0-1-0.5-2.2-1.7-2.2C331.4,84.5,330.8,85.7,330.8,86.8z"/>
			<path d="M336.8,85.7c0-0.7,0-1.3,0-1.8h0.9l0,1.1h0c0.3-0.8,0.9-1.3,1.6-1.3c0.1,0,0.2,0,0.3,0v1c-0.1,0-0.2,0-0.4,0
				c-0.7,0-1.3,0.6-1.4,1.4c0,0.1,0,0.3,0,0.5v3.1h-1V85.7z"/>
			<path d="M343.1,88.6c0.3,0.2,0.9,0.4,1.4,0.4c0.8,0,1.1-0.4,1.1-0.9c0-0.5-0.3-0.8-1.1-1.1c-1-0.4-1.5-0.9-1.5-1.6
				c0-0.9,0.8-1.7,2-1.7c0.6,0,1.1,0.2,1.4,0.4l-0.3,0.8c-0.2-0.1-0.6-0.3-1.2-0.3c-0.6,0-1,0.4-1,0.8c0,0.5,0.3,0.7,1.1,1
				c1,0.4,1.5,0.9,1.5,1.8c0,1-0.8,1.7-2.2,1.7c-0.6,0-1.2-0.2-1.6-0.4L343.1,88.6z"/>
			<path d="M349.1,82.2c0,0.4-0.3,0.6-0.7,0.6c-0.4,0-0.6-0.3-0.6-0.6c0-0.4,0.3-0.7,0.7-0.7C348.9,81.6,349.1,81.8,349.1,82.2z
				 M348,89.7v-5.8h1.1v5.8H348z"/>
			<path d="M352.1,82.2v1.7h1.5v0.8h-1.5v3.1c0,0.7,0.2,1.1,0.8,1.1c0.3,0,0.5,0,0.6-0.1l0,0.8c-0.2,0.1-0.5,0.1-0.9,0.1
				c-0.5,0-0.9-0.2-1.1-0.4c-0.3-0.3-0.4-0.8-0.4-1.5v-3.2h-0.9v-0.8h0.9v-1.4L352.1,82.2z"/>
			<path d="M360.5,89.7l-0.1-0.7h0c-0.3,0.5-0.9,0.9-1.8,0.9c-1.2,0-1.8-0.8-1.8-1.7c0-1.4,1.2-2.2,3.5-2.2v-0.1
				c0-0.5-0.1-1.3-1.3-1.3c-0.5,0-1.1,0.2-1.5,0.4l-0.2-0.7c0.5-0.3,1.2-0.5,1.9-0.5c1.8,0,2.2,1.2,2.2,2.4v2.2c0,0.5,0,1,0.1,1.4
				H360.5z M360.4,86.7c-1.2,0-2.5,0.2-2.5,1.3c0,0.7,0.5,1,1,1c0.8,0,1.2-0.5,1.4-1c0-0.1,0.1-0.2,0.1-0.3V86.7z"/>
			<path d="M363.1,85.4c0-0.6,0-1.1,0-1.6h0.9l0,0.9h0c0.3-0.6,0.9-1.1,1.8-1.1c0.8,0,1.4,0.5,1.6,1.2h0c0.2-0.3,0.4-0.6,0.6-0.8
				c0.3-0.3,0.7-0.4,1.3-0.4c0.8,0,1.9,0.5,1.9,2.5v3.4h-1v-3.3c0-1.1-0.4-1.8-1.3-1.8c-0.6,0-1.1,0.4-1.2,1c0,0.1-0.1,0.3-0.1,0.5
				v3.6h-1v-3.5c0-0.9-0.4-1.6-1.2-1.6c-0.7,0-1.1,0.5-1.3,1.1c-0.1,0.2-0.1,0.3-0.1,0.5v3.5h-1V85.4z"/>
			<path d="M373.7,86.9c0,1.4,0.9,2,2,2c0.8,0,1.2-0.1,1.6-0.3l0.2,0.8c-0.4,0.2-1,0.4-1.9,0.4c-1.8,0-2.9-1.2-2.9-2.9
				s1-3.1,2.7-3.1c1.9,0,2.4,1.7,2.4,2.7c0,0.2,0,0.4,0,0.5H373.7z M376.8,86.2c0-0.7-0.3-1.7-1.5-1.7c-1.1,0-1.5,1-1.6,1.7H376.8z"
				/>
			<path d="M380.4,82.2v1.7h1.5v0.8h-1.5v3.1c0,0.7,0.2,1.1,0.8,1.1c0.3,0,0.5,0,0.6-0.1l0,0.8c-0.2,0.1-0.5,0.1-0.9,0.1
				c-0.5,0-0.9-0.2-1.1-0.4c-0.3-0.3-0.4-0.8-0.4-1.5v-3.2h-0.9v-0.8h0.9v-1.4L380.4,82.2z"/>
			<path d="M382.4,91.1c0.3-0.7,0.6-2,0.7-2.9l1.2-0.1c-0.3,1-0.8,2.4-1.1,2.9L382.4,91.1z"/>
			<path d="M392.2,89.4c-0.3,0.1-0.9,0.3-1.7,0.3c-1.8,0-2.9-1.2-2.9-3c0-1.8,1.2-3.1,3.1-3.1c0.6,0,1.2,0.2,1.5,0.3l-0.2,0.8
				c-0.3-0.1-0.6-0.3-1.2-0.3c-1.3,0-2.1,1-2.1,2.2c0,1.3,0.9,2.2,2,2.2c0.6,0,1-0.2,1.3-0.3L392.2,89.4z"/>
			<path d="M398.6,86.7c0,2.1-1.5,3.1-2.9,3.1c-1.6,0-2.8-1.2-2.8-3c0-1.9,1.3-3.1,2.9-3.1C397.5,83.7,398.6,84.9,398.6,86.7z
				 M394,86.8c0,1.3,0.7,2.2,1.8,2.2c1,0,1.8-0.9,1.8-2.3c0-1-0.5-2.2-1.7-2.2C394.6,84.5,394,85.7,394,86.8z"/>
			<path d="M400,85.4c0-0.6,0-1.1,0-1.6h0.9l0.1,1h0c0.3-0.6,1-1.1,1.9-1.1c0.8,0,2.1,0.5,2.1,2.5v3.5h-1.1v-3.3
				c0-0.9-0.3-1.7-1.3-1.7c-0.7,0-1.2,0.5-1.4,1.1c0,0.1-0.1,0.3-0.1,0.5v3.5H400V85.4z"/>
			<path d="M406.5,88.6c0.3,0.2,0.9,0.4,1.4,0.4c0.8,0,1.1-0.4,1.1-0.9c0-0.5-0.3-0.8-1.1-1.1c-1-0.4-1.5-0.9-1.5-1.6
				c0-0.9,0.8-1.7,2-1.7c0.6,0,1.1,0.2,1.4,0.4l-0.3,0.8c-0.2-0.1-0.6-0.3-1.2-0.3c-0.6,0-1,0.4-1,0.8c0,0.5,0.3,0.7,1.1,1
				c1,0.4,1.5,0.9,1.5,1.8c0,1-0.8,1.7-2.2,1.7c-0.6,0-1.2-0.2-1.6-0.4L406.5,88.6z"/>
			<path d="M412,86.9c0,1.4,0.9,2,2,2c0.8,0,1.2-0.1,1.6-0.3l0.2,0.8c-0.4,0.2-1,0.4-1.9,0.4c-1.8,0-2.9-1.2-2.9-2.9s1-3.1,2.7-3.1
				c1.9,0,2.4,1.7,2.4,2.7c0,0.2,0,0.4,0,0.5H412z M415.1,86.2c0-0.7-0.3-1.7-1.5-1.7c-1.1,0-1.5,1-1.6,1.7H415.1z"/>
			<path d="M421.5,89.4c-0.3,0.1-0.9,0.3-1.7,0.3c-1.8,0-2.9-1.2-2.9-3c0-1.8,1.2-3.1,3.1-3.1c0.6,0,1.2,0.2,1.5,0.3l-0.2,0.8
				c-0.3-0.1-0.6-0.3-1.2-0.3c-1.3,0-2.1,1-2.1,2.2c0,1.3,0.9,2.2,2,2.2c0.6,0,1-0.2,1.3-0.3L421.5,89.4z"/>
			<path d="M424.2,82.2v1.7h1.5v0.8h-1.5v3.1c0,0.7,0.2,1.1,0.8,1.1c0.3,0,0.5,0,0.6-0.1l0,0.8c-0.2,0.1-0.5,0.1-0.9,0.1
				c-0.5,0-0.9-0.2-1.1-0.4c-0.3-0.3-0.4-0.8-0.4-1.5v-3.2h-0.9v-0.8h0.9v-1.4L424.2,82.2z"/>
			<path d="M427.4,86.9c0,1.4,0.9,2,2,2c0.8,0,1.2-0.1,1.6-0.3l0.2,0.8c-0.4,0.2-1,0.4-1.9,0.4c-1.8,0-2.9-1.2-2.9-2.9
				s1-3.1,2.7-3.1c1.9,0,2.4,1.7,2.4,2.7c0,0.2,0,0.4,0,0.5H427.4z M430.5,86.2c0-0.7-0.3-1.7-1.5-1.7c-1.1,0-1.5,1-1.6,1.7H430.5z"
				/>
			<path d="M434.1,82.2v1.7h1.5v0.8h-1.5v3.1c0,0.7,0.2,1.1,0.8,1.1c0.3,0,0.5,0,0.6-0.1l0,0.8c-0.2,0.1-0.5,0.1-0.9,0.1
				c-0.5,0-0.9-0.2-1.1-0.4c-0.3-0.3-0.4-0.8-0.4-1.5v-3.2h-0.9v-0.8h0.9v-1.4L434.1,82.2z"/>
			<path d="M441.7,88.1c0,0.6,0,1.1,0,1.6h-0.9l-0.1-0.9h0c-0.3,0.5-0.9,1.1-1.9,1.1c-0.9,0-2-0.5-2-2.5v-3.4h1.1v3.2
				c0,1.1,0.3,1.8,1.3,1.8c0.7,0,1.2-0.5,1.4-1c0.1-0.2,0.1-0.3,0.1-0.5v-3.6h1.1V88.1z"/>
			<path d="M443.4,85.7c0-0.7,0-1.3,0-1.8h0.9l0,1.1h0c0.3-0.8,0.9-1.3,1.6-1.3c0.1,0,0.2,0,0.3,0v1c-0.1,0-0.2,0-0.4,0
				c-0.7,0-1.3,0.6-1.4,1.4c0,0.1,0,0.3,0,0.5v3.1h-1V85.7z"/>
			<path d="M450.5,86.9c0,1.4,0.9,2,2,2c0.8,0,1.2-0.1,1.6-0.3l0.2,0.8c-0.4,0.2-1,0.4-1.9,0.4c-1.8,0-2.9-1.2-2.9-2.9
				s1-3.1,2.7-3.1c1.9,0,2.4,1.7,2.4,2.7c0,0.2,0,0.4,0,0.5H450.5z M453.6,86.2c0-0.7-0.3-1.7-1.5-1.7c-1.1,0-1.5,1-1.6,1.7H453.6z"
				/>
			<path d="M455.9,81.1h1.1v8.5h-1.1V81.1z"/>
			<path d="M459.9,82.2c0,0.4-0.3,0.6-0.7,0.6c-0.4,0-0.6-0.3-0.6-0.6c0-0.4,0.3-0.7,0.7-0.7C459.6,81.6,459.9,81.8,459.9,82.2z
				 M458.7,89.7v-5.8h1.1v5.8H458.7z"/>
			<path d="M462.8,82.2v1.7h1.5v0.8h-1.5v3.1c0,0.7,0.2,1.1,0.8,1.1c0.3,0,0.5,0,0.6-0.1l0,0.8c-0.2,0.1-0.5,0.1-0.9,0.1
				c-0.5,0-0.9-0.2-1.1-0.4c-0.3-0.3-0.4-0.8-0.4-1.5v-3.2h-0.9v-0.8h0.9v-1.4L462.8,82.2z"/>
			<path d="M465.2,89c0-0.4,0.3-0.8,0.7-0.8c0.4,0,0.7,0.3,0.7,0.8c0,0.4-0.3,0.8-0.7,0.8C465.5,89.8,465.2,89.5,465.2,89z"/>
		</g>
		<g class="st8">
			<path d="M247.3,101.5l-0.8,2.5h-1.1l2.7-8.1h1.3l2.8,8.1H251l-0.9-2.5H247.3z M250,100.7l-0.8-2.3c-0.2-0.5-0.3-1-0.4-1.5h0
				c-0.1,0.5-0.3,1-0.4,1.5l-0.8,2.3H250z"/>
			<path d="M253.2,104.1c0-0.4,0-1,0-1.5v-7h1v3.6h0c0.4-0.6,1-1.1,2-1.1c1.4,0,2.5,1.2,2.4,3c0,2.1-1.3,3.1-2.6,3.1
				c-0.8,0-1.5-0.3-1.9-1.1h0l0,1H253.2z M254.3,101.7c0,0.1,0,0.3,0,0.4c0.2,0.7,0.8,1.2,1.6,1.2c1.1,0,1.8-0.9,1.8-2.2
				c0-1.2-0.6-2.2-1.7-2.2c-0.7,0-1.4,0.5-1.6,1.3c0,0.1-0.1,0.3-0.1,0.4V101.7z"/>
			<path d="M265.9,104.1l-0.1-0.7h0c-0.3,0.5-0.9,0.9-1.8,0.9c-1.2,0-1.8-0.8-1.8-1.7c0-1.4,1.2-2.2,3.5-2.2v-0.1
				c0-0.5-0.1-1.3-1.3-1.3c-0.5,0-1.1,0.2-1.5,0.4l-0.2-0.7c0.5-0.3,1.2-0.5,1.9-0.5c1.8,0,2.2,1.2,2.2,2.4v2.2c0,0.5,0,1,0.1,1.4
				H265.9z M265.7,101.1c-1.2,0-2.5,0.2-2.5,1.3c0,0.7,0.5,1,1,1c0.8,0,1.2-0.5,1.4-1c0-0.1,0.1-0.2,0.1-0.3V101.1z"/>
			<path d="M269.7,96.6v1.7h1.5v0.8h-1.5v3.1c0,0.7,0.2,1.1,0.8,1.1c0.3,0,0.5,0,0.6-0.1l0,0.8c-0.2,0.1-0.5,0.1-0.9,0.1
				c-0.5,0-0.9-0.2-1.1-0.4c-0.3-0.3-0.4-0.8-0.4-1.5v-3.2h-0.9v-0.8h0.9v-1.4L269.7,96.6z"/>
			<path d="M276.2,103.2L276.2,103.2c-0.3,0.6-1,1-1.9,1c-1.4,0-2.5-1.2-2.5-2.9c0-2.2,1.4-3.1,2.6-3.1c0.9,0,1.5,0.4,1.8,1h0l0-0.9
				h1c0,0.5,0,1,0,1.6v6.6h-1.1V103.2z M276.2,100.6c0-0.1,0-0.3,0-0.4c-0.2-0.6-0.7-1.2-1.5-1.2c-1.1,0-1.8,0.9-1.8,2.2
				c0,1.2,0.6,2.2,1.7,2.2c0.7,0,1.3-0.4,1.5-1.2c0-0.1,0.1-0.3,0.1-0.5V100.6z"/>
			<path d="M283.9,102.5c0,0.6,0,1.1,0,1.6H283l-0.1-0.9h0c-0.3,0.5-0.9,1.1-1.9,1.1c-0.9,0-2-0.5-2-2.5v-3.4h1.1v3.2
				c0,1.1,0.3,1.8,1.3,1.8c0.7,0,1.2-0.5,1.4-1c0.1-0.2,0.1-0.3,0.1-0.5v-3.6h1.1V102.5z"/>
			<path d="M286.2,101.3c0,1.4,0.9,2,2,2c0.8,0,1.2-0.1,1.6-0.3l0.2,0.8c-0.4,0.2-1,0.4-1.9,0.4c-1.8,0-2.9-1.2-2.9-2.9
				s1-3.1,2.7-3.1c1.9,0,2.4,1.7,2.4,2.7c0,0.2,0,0.4,0,0.5H286.2z M289.3,100.6c0-0.7-0.3-1.7-1.5-1.7c-1.1,0-1.5,1-1.6,1.7H289.3z
				"/>
			<path d="M297.4,104.1l-0.1-0.7h0c-0.3,0.5-0.9,0.9-1.8,0.9c-1.2,0-1.8-0.8-1.8-1.7c0-1.4,1.2-2.2,3.5-2.2v-0.1
				c0-0.5-0.1-1.3-1.3-1.3c-0.5,0-1.1,0.2-1.5,0.4l-0.2-0.7c0.5-0.3,1.2-0.5,1.9-0.5c1.8,0,2.2,1.2,2.2,2.4v2.2c0,0.5,0,1,0.1,1.4
				H297.4z M297.3,101.1c-1.2,0-2.5,0.2-2.5,1.3c0,0.7,0.5,1,1,1c0.8,0,1.2-0.5,1.4-1c0-0.1,0.1-0.2,0.1-0.3V101.1z"/>
			<path d="M304.9,102.5c0,0.6,0,1.1,0,1.6H304l-0.1-0.9h0c-0.3,0.5-0.9,1.1-1.9,1.1c-0.9,0-2-0.5-2-2.5v-3.4h1.1v3.2
				c0,1.1,0.3,1.8,1.3,1.8c0.7,0,1.2-0.5,1.4-1c0.1-0.2,0.1-0.3,0.1-0.5v-3.6h1.1V102.5z"/>
			<path d="M307.9,96.6v1.7h1.5v0.8h-1.5v3.1c0,0.7,0.2,1.1,0.8,1.1c0.3,0,0.5,0,0.6-0.1l0,0.8c-0.2,0.1-0.5,0.1-0.9,0.1
				c-0.5,0-0.9-0.2-1.1-0.4c-0.3-0.3-0.4-0.8-0.4-1.5v-3.2H306v-0.8h0.9v-1.4L307.9,96.6z"/>
			<path d="M311.1,101.3c0,1.4,0.9,2,2,2c0.8,0,1.2-0.1,1.6-0.3l0.2,0.8c-0.4,0.2-1,0.4-1.9,0.4c-1.8,0-2.9-1.2-2.9-2.9
				s1-3.1,2.7-3.1c1.9,0,2.4,1.7,2.4,2.7c0,0.2,0,0.4,0,0.5H311.1z M314.2,100.6c0-0.7-0.3-1.7-1.5-1.7c-1.1,0-1.5,1-1.6,1.7H314.2z
				"/>
			<path d="M316.5,99.8c0-0.6,0-1.1,0-1.6h0.9l0,0.9h0c0.3-0.6,0.9-1.1,1.8-1.1c0.8,0,1.4,0.5,1.6,1.2h0c0.2-0.3,0.4-0.6,0.6-0.8
				c0.3-0.3,0.7-0.4,1.3-0.4c0.8,0,1.9,0.5,1.9,2.5v3.4h-1v-3.3c0-1.1-0.4-1.8-1.3-1.8c-0.6,0-1.1,0.4-1.2,1c0,0.1-0.1,0.3-0.1,0.5
				v3.6h-1v-3.5c0-0.9-0.4-1.6-1.2-1.6c-0.7,0-1.1,0.5-1.3,1.1c-0.1,0.2-0.1,0.3-0.1,0.5v3.5h-1V99.8z"/>
			<path d="M333.2,103.8c-0.3,0.1-0.9,0.3-1.7,0.3c-1.8,0-2.9-1.2-2.9-3c0-1.8,1.2-3.1,3.1-3.1c0.6,0,1.2,0.2,1.5,0.3l-0.2,0.8
				c-0.3-0.1-0.6-0.3-1.2-0.3c-1.3,0-2.1,1-2.1,2.2c0,1.3,0.9,2.2,2,2.2c0.6,0,1-0.2,1.3-0.3L333.2,103.8z"/>
			<path d="M339.3,102.5c0,0.6,0,1.1,0,1.6h-0.9l-0.1-0.9h0c-0.3,0.5-0.9,1.1-1.9,1.1c-0.9,0-2-0.5-2-2.5v-3.4h1.1v3.2
				c0,1.1,0.3,1.8,1.3,1.8c0.7,0,1.2-0.5,1.4-1c0.1-0.2,0.1-0.3,0.1-0.5v-3.6h1.1V102.5z"/>
			<path d="M341.1,99.8c0-0.6,0-1.1,0-1.6h0.9l0,0.9h0c0.3-0.6,0.9-1.1,1.8-1.1c0.8,0,1.4,0.5,1.6,1.2h0c0.2-0.3,0.4-0.6,0.6-0.8
				c0.3-0.3,0.7-0.4,1.3-0.4c0.8,0,1.9,0.5,1.9,2.5v3.4h-1v-3.3c0-1.1-0.4-1.8-1.3-1.8c-0.6,0-1.1,0.4-1.2,1c0,0.1-0.1,0.3-0.1,0.5
				v3.6h-1v-3.5c0-0.9-0.4-1.6-1.2-1.6c-0.7,0-1.1,0.5-1.3,1.1c-0.1,0.2-0.1,0.3-0.1,0.5v3.5h-1V99.8z"/>
			<path d="M350.4,105.5c0.3-0.7,0.6-2,0.7-2.9l1.2-0.1c-0.3,1-0.8,2.4-1.1,2.9L350.4,105.5z"/>
			<path d="M361.1,95.5v7c0,0.5,0,1.1,0,1.5h-0.9l0-1h0c-0.3,0.6-1,1.1-2,1.1c-1.4,0-2.5-1.2-2.5-3c0-1.9,1.2-3.1,2.6-3.1
				c0.9,0,1.5,0.4,1.8,0.9h0v-3.5H361.1z M360.1,100.6c0-0.1,0-0.3,0-0.4c-0.2-0.7-0.7-1.2-1.5-1.2c-1.1,0-1.7,1-1.7,2.2
				c0,1.2,0.6,2.1,1.7,2.1c0.7,0,1.4-0.5,1.5-1.3c0-0.1,0-0.3,0-0.5V100.6z"/>
			<path d="M364,96.6c0,0.4-0.3,0.6-0.7,0.6c-0.4,0-0.6-0.3-0.6-0.6c0-0.4,0.3-0.7,0.7-0.7C363.8,96,364,96.3,364,96.6z
				 M362.9,104.1v-5.8h1.1v5.8H362.9z"/>
			<path d="M369.8,103.8c-0.3,0.1-0.9,0.3-1.7,0.3c-1.8,0-2.9-1.2-2.9-3c0-1.8,1.2-3.1,3.1-3.1c0.6,0,1.2,0.2,1.5,0.3l-0.2,0.8
				c-0.3-0.1-0.6-0.3-1.2-0.3c-1.3,0-2.1,1-2.1,2.2c0,1.3,0.9,2.2,2,2.2c0.6,0,1-0.2,1.3-0.3L369.8,103.8z"/>
			<path d="M372.5,96.6v1.7h1.5v0.8h-1.5v3.1c0,0.7,0.2,1.1,0.8,1.1c0.3,0,0.5,0,0.6-0.1l0,0.8c-0.2,0.1-0.5,0.1-0.9,0.1
				c-0.5,0-0.9-0.2-1.1-0.4c-0.3-0.3-0.4-0.8-0.4-1.5v-3.2h-0.9v-0.8h0.9v-1.4L372.5,96.6z"/>
			<path d="M378.4,104.1l-0.1-0.7h0c-0.3,0.5-0.9,0.9-1.8,0.9c-1.2,0-1.8-0.8-1.8-1.7c0-1.4,1.2-2.2,3.5-2.2v-0.1
				c0-0.5-0.1-1.3-1.3-1.3c-0.5,0-1.1,0.2-1.5,0.4l-0.2-0.7c0.5-0.3,1.2-0.5,1.9-0.5c1.8,0,2.2,1.2,2.2,2.4v2.2c0,0.5,0,1,0.1,1.4
				H378.4z M378.2,101.1c-1.2,0-2.5,0.2-2.5,1.3c0,0.7,0.5,1,1,1c0.8,0,1.2-0.5,1.4-1c0-0.1,0.1-0.2,0.1-0.3V101.1z"/>
			<path d="M384.1,101.3c0,1.4,0.9,2,2,2c0.8,0,1.2-0.1,1.6-0.3l0.2,0.8c-0.4,0.2-1,0.4-1.9,0.4c-1.8,0-2.9-1.2-2.9-2.9
				s1-3.1,2.7-3.1c1.9,0,2.4,1.7,2.4,2.7c0,0.2,0,0.4,0,0.5H384.1z M387.2,100.6c0-0.7-0.3-1.7-1.5-1.7c-1.1,0-1.5,1-1.6,1.7H387.2z
				"/>
			<path d="M390,98.3l0.8,1.2c0.2,0.3,0.4,0.6,0.6,0.9h0c0.2-0.3,0.4-0.6,0.6-1l0.8-1.2h1.1l-2,2.8l2,3h-1.2l-0.9-1.3
				c-0.2-0.3-0.4-0.7-0.6-1h0c-0.2,0.3-0.4,0.7-0.6,1l-0.8,1.3h-1.2l2.1-3l-2-2.8H390z"/>
			<path d="M395,100.1c0-0.7,0-1.3,0-1.9h0.9l0,1h0c0.4-0.7,1.1-1.1,2.1-1.1c1.4,0,2.5,1.2,2.5,3c0,2.1-1.3,3.1-2.6,3.1
				c-0.8,0-1.4-0.3-1.8-0.9h0v3.2h-1V100.1z M396.1,101.7c0,0.2,0,0.3,0,0.4c0.2,0.7,0.8,1.2,1.6,1.2c1.1,0,1.8-0.9,1.8-2.2
				c0-1.2-0.6-2.2-1.7-2.2c-0.7,0-1.4,0.5-1.6,1.3c0,0.1-0.1,0.3-0.1,0.4V101.7z"/>
			<path d="M401.9,95.5h1.1v8.5h-1.1V95.5z"/>
			<path d="M405.9,96.6c0,0.4-0.3,0.6-0.7,0.6c-0.4,0-0.6-0.3-0.6-0.6c0-0.4,0.3-0.7,0.7-0.7C405.6,96,405.9,96.3,405.9,96.6z
				 M404.7,104.1v-5.8h1.1v5.8H404.7z"/>
			<path d="M411.6,103.8c-0.3,0.1-0.9,0.3-1.7,0.3c-1.8,0-2.9-1.2-2.9-3c0-1.8,1.2-3.1,3.1-3.1c0.6,0,1.2,0.2,1.5,0.3l-0.2,0.8
				c-0.3-0.1-0.6-0.3-1.2-0.3c-1.3,0-2.1,1-2.1,2.2c0,1.3,0.9,2.2,2,2.2c0.6,0,1-0.2,1.3-0.3L411.6,103.8z"/>
			<path d="M416.1,104.1l-0.1-0.7h0c-0.3,0.5-0.9,0.9-1.8,0.9c-1.2,0-1.8-0.8-1.8-1.7c0-1.4,1.2-2.2,3.5-2.2v-0.1
				c0-0.5-0.1-1.3-1.3-1.3c-0.5,0-1.1,0.2-1.5,0.4l-0.2-0.7c0.5-0.3,1.2-0.5,1.9-0.5c1.8,0,2.2,1.2,2.2,2.4v2.2c0,0.5,0,1,0.1,1.4
				H416.1z M415.9,101.1c-1.2,0-2.5,0.2-2.5,1.3c0,0.7,0.5,1,1,1c0.8,0,1.2-0.5,1.4-1c0-0.1,0.1-0.2,0.1-0.3V101.1z"/>
			<path d="M418.6,104.1c0-0.4,0-1,0-1.5v-7h1v3.6h0c0.4-0.6,1-1.1,2-1.1c1.4,0,2.5,1.2,2.4,3c0,2.1-1.3,3.1-2.6,3.1
				c-0.8,0-1.5-0.3-1.9-1.1h0l0,1H418.6z M419.7,101.7c0,0.1,0,0.3,0,0.4c0.2,0.7,0.8,1.2,1.6,1.2c1.1,0,1.8-0.9,1.8-2.2
				c0-1.2-0.6-2.2-1.7-2.2c-0.7,0-1.4,0.5-1.6,1.3c0,0.1-0.1,0.3-0.1,0.4V101.7z"/>
			<path d="M430.7,101.1c0,2.1-1.5,3.1-2.9,3.1c-1.6,0-2.8-1.2-2.8-3c0-1.9,1.3-3.1,2.9-3.1C429.6,98.1,430.7,99.3,430.7,101.1z
				 M426.1,101.2c0,1.3,0.7,2.2,1.8,2.2c1,0,1.8-0.9,1.8-2.3c0-1-0.5-2.2-1.7-2.2C426.7,98.9,426.1,100.1,426.1,101.2z"/>
			<path d="M435.8,96.6c0,0.4-0.3,0.6-0.7,0.6c-0.4,0-0.6-0.3-0.6-0.6c0-0.4,0.3-0.7,0.7-0.7C435.5,96,435.8,96.3,435.8,96.6z
				 M434.6,104.1v-5.8h1.1v5.8H434.6z"/>
			<path d="M442.4,95.5v7c0,0.5,0,1.1,0,1.5h-0.9l0-1h0c-0.3,0.6-1,1.1-2,1.1c-1.4,0-2.5-1.2-2.5-3c0-1.9,1.2-3.1,2.6-3.1
				c0.9,0,1.5,0.4,1.8,0.9h0v-3.5H442.4z M441.4,100.6c0-0.1,0-0.3,0-0.4c-0.2-0.7-0.7-1.2-1.5-1.2c-1.1,0-1.7,1-1.7,2.2
				c0,1.2,0.6,2.1,1.7,2.1c0.7,0,1.4-0.5,1.5-1.3c0-0.1,0-0.3,0-0.5V100.6z"/>
			<path d="M443.4,105.5c0.3-0.7,0.6-2,0.7-2.9l1.2-0.1c-0.3,1-0.8,2.4-1.1,2.9L443.4,105.5z"/>
			<path d="M450.3,96.6c0,0.4-0.3,0.6-0.7,0.6c-0.4,0-0.6-0.3-0.6-0.6c0-0.4,0.3-0.7,0.7-0.7C450,96,450.3,96.3,450.3,96.6z
				 M449.1,104.1v-5.8h1.1v5.8H449.1z"/>
			<path d="M451.9,95.5h1.1v8.5h-1.1V95.5z"/>
			<path d="M454.7,95.5h1.1v8.5h-1.1V95.5z"/>
			<path d="M462.4,102.5c0,0.6,0,1.1,0,1.6h-0.9l-0.1-0.9h0c-0.3,0.5-0.9,1.1-1.9,1.1c-0.9,0-2-0.5-2-2.5v-3.4h1.1v3.2
				c0,1.1,0.3,1.8,1.3,1.8c0.7,0,1.2-0.5,1.4-1c0.1-0.2,0.1-0.3,0.1-0.5v-3.6h1.1V102.5z"/>
			<path d="M464.2,99.8c0-0.6,0-1.1,0-1.6h0.9l0,0.9h0c0.3-0.6,0.9-1.1,1.8-1.1c0.8,0,1.4,0.5,1.6,1.2h0c0.2-0.3,0.4-0.6,0.6-0.8
				c0.3-0.3,0.7-0.4,1.3-0.4c0.8,0,1.9,0.5,1.9,2.5v3.4h-1v-3.3c0-1.1-0.4-1.8-1.3-1.8c-0.6,0-1.1,0.4-1.2,1c0,0.1-0.1,0.3-0.1,0.5
				v3.6h-1v-3.5c0-0.9-0.4-1.6-1.2-1.6c-0.7,0-1.1,0.5-1.3,1.1c-0.1,0.2-0.1,0.3-0.1,0.5v3.5h-1V99.8z"/>
		</g>
		<g class="st8">
			<path d="M247.2,111c0,0.4-0.3,0.6-0.7,0.6c-0.4,0-0.6-0.3-0.6-0.6c0-0.4,0.3-0.7,0.7-0.7C246.9,110.4,247.2,110.6,247.2,111z
				 M246,118.5v-5.8h1.1v5.8H246z"/>
			<path d="M248.8,114.5c0-0.7,0-1.3,0-1.9h0.9l0,1h0c0.4-0.7,1.1-1.1,2.1-1.1c1.4,0,2.5,1.2,2.5,3c0,2.1-1.3,3.1-2.6,3.1
				c-0.8,0-1.4-0.3-1.8-0.9h0v3.2h-1V114.5z M249.8,116.1c0,0.2,0,0.3,0,0.4c0.2,0.7,0.8,1.2,1.6,1.2c1.1,0,1.8-0.9,1.8-2.2
				c0-1.2-0.6-2.2-1.7-2.2c-0.7,0-1.4,0.5-1.6,1.3c0,0.1-0.1,0.3-0.1,0.4V116.1z"/>
			<path d="M255.5,117.4c0.3,0.2,0.9,0.4,1.4,0.4c0.8,0,1.1-0.4,1.1-0.9c0-0.5-0.3-0.8-1.1-1.1c-1-0.4-1.5-0.9-1.5-1.6
				c0-0.9,0.8-1.7,2-1.7c0.6,0,1.1,0.2,1.4,0.4l-0.3,0.8c-0.2-0.1-0.6-0.3-1.2-0.3c-0.6,0-1,0.4-1,0.8c0,0.5,0.3,0.7,1.1,1
				c1,0.4,1.5,0.9,1.5,1.8c0,1-0.8,1.7-2.2,1.7c-0.6,0-1.2-0.2-1.6-0.4L255.5,117.4z"/>
			<path d="M263.6,118.5l-0.1-0.7h0c-0.3,0.5-0.9,0.9-1.8,0.9c-1.2,0-1.8-0.8-1.8-1.7c0-1.4,1.2-2.2,3.5-2.2v-0.1
				c0-0.5-0.1-1.3-1.3-1.3c-0.5,0-1.1,0.2-1.5,0.4l-0.2-0.7c0.5-0.3,1.2-0.5,1.9-0.5c1.8,0,2.2,1.2,2.2,2.4v2.2c0,0.5,0,1,0.1,1.4
				H263.6z M263.4,115.5c-1.2,0-2.5,0.2-2.5,1.3c0,0.7,0.5,1,1,1c0.8,0,1.2-0.5,1.4-1c0-0.1,0.1-0.2,0.1-0.3V115.5z"/>
			<path d="M266.1,114.2c0-0.6,0-1.1,0-1.6h0.9l0,0.9h0c0.3-0.6,0.9-1.1,1.8-1.1c0.8,0,1.4,0.5,1.6,1.2h0c0.2-0.3,0.4-0.6,0.6-0.8
				c0.3-0.3,0.7-0.4,1.3-0.4c0.8,0,1.9,0.5,1.9,2.5v3.4h-1v-3.3c0-1.1-0.4-1.8-1.3-1.8c-0.6,0-1.1,0.4-1.2,1c0,0.1-0.1,0.3-0.1,0.5
				v3.6h-1V115c0-0.9-0.4-1.6-1.2-1.6c-0.7,0-1.1,0.5-1.3,1.1c-0.1,0.2-0.1,0.3-0.1,0.5v3.5h-1V114.2z"/>
			<path d="M278.7,114.2c0-0.6,0-1.1,0-1.6h0.9l0,0.9h0c0.3-0.6,0.9-1.1,1.8-1.1c0.8,0,1.4,0.5,1.6,1.2h0c0.2-0.3,0.4-0.6,0.6-0.8
				c0.3-0.3,0.7-0.4,1.3-0.4c0.8,0,1.9,0.5,1.9,2.5v3.4h-1v-3.3c0-1.1-0.4-1.8-1.3-1.8c-0.6,0-1.1,0.4-1.2,1c0,0.1-0.1,0.3-0.1,0.5
				v3.6h-1V115c0-0.9-0.4-1.6-1.2-1.6c-0.7,0-1.1,0.5-1.3,1.1c-0.1,0.2-0.1,0.3-0.1,0.5v3.5h-1V114.2z"/>
			<path d="M294,115.5c0,2.1-1.5,3.1-2.9,3.1c-1.6,0-2.8-1.2-2.8-3c0-1.9,1.3-3.1,2.9-3.1C292.8,112.5,294,113.7,294,115.5z
				 M289.4,115.6c0,1.3,0.7,2.2,1.8,2.2c1,0,1.8-0.9,1.8-2.3c0-1-0.5-2.2-1.7-2.2C289.9,113.3,289.4,114.5,289.4,115.6z"/>
			<path d="M300.3,109.9v7c0,0.5,0,1.1,0,1.5h-0.9l0-1h0c-0.3,0.6-1,1.1-2,1.1c-1.4,0-2.5-1.2-2.5-3c0-1.9,1.2-3.1,2.6-3.1
				c0.9,0,1.5,0.4,1.8,0.9h0v-3.5H300.3z M299.3,115c0-0.1,0-0.3,0-0.4c-0.2-0.7-0.7-1.2-1.5-1.2c-1.1,0-1.7,1-1.7,2.2
				c0,1.2,0.6,2.1,1.7,2.1c0.7,0,1.4-0.5,1.5-1.3c0-0.1,0-0.3,0-0.5V115z"/>
			<path d="M303.2,111c0,0.4-0.3,0.6-0.7,0.6c-0.4,0-0.6-0.3-0.6-0.6c0-0.4,0.3-0.7,0.7-0.7C303,110.4,303.2,110.6,303.2,111z
				 M302.1,118.5v-5.8h1.1v5.8H302.1z"/>
			<path d="M307.4,114.2c0-0.6,0-1.1,0-1.6h0.9l0,0.9h0c0.3-0.6,0.9-1.1,1.8-1.1c0.8,0,1.4,0.5,1.6,1.2h0c0.2-0.3,0.4-0.6,0.6-0.8
				c0.3-0.3,0.7-0.4,1.3-0.4c0.8,0,1.9,0.5,1.9,2.5v3.4h-1v-3.3c0-1.1-0.4-1.8-1.3-1.8c-0.6,0-1.1,0.4-1.2,1c0,0.1-0.1,0.3-0.1,0.5
				v3.6h-1V115c0-0.9-0.4-1.6-1.2-1.6c-0.7,0-1.1,0.5-1.3,1.1c-0.1,0.2-0.1,0.3-0.1,0.5v3.5h-1V114.2z"/>
			<path d="M322.7,115.5c0,2.1-1.5,3.1-2.9,3.1c-1.6,0-2.8-1.2-2.8-3c0-1.9,1.3-3.1,2.9-3.1C321.5,112.5,322.7,113.7,322.7,115.5z
				 M318.1,115.6c0,1.3,0.7,2.2,1.8,2.2c1,0,1.8-0.9,1.8-2.3c0-1-0.5-2.2-1.7-2.2C318.6,113.3,318.1,114.5,318.1,115.6z"/>
			<path d="M324,109.9h1.1v8.5H324V109.9z"/>
			<path d="M326.8,109.9h1.1v8.5h-1.1V109.9z"/>
			<path d="M330.9,111c0,0.4-0.3,0.6-0.7,0.6c-0.4,0-0.6-0.3-0.6-0.6c0-0.4,0.3-0.7,0.7-0.7C330.6,110.4,330.9,110.6,330.9,111z
				 M329.7,118.5v-5.8h1.1v5.8H329.7z"/>
			<path d="M333.8,111v1.7h1.5v0.8h-1.5v3.1c0,0.7,0.2,1.1,0.8,1.1c0.3,0,0.5,0,0.6-0.1l0,0.8c-0.2,0.1-0.5,0.1-0.9,0.1
				c-0.5,0-0.9-0.2-1.1-0.4c-0.3-0.3-0.4-0.8-0.4-1.5v-3.2h-0.9v-0.8h0.9v-1.4L333.8,111z"/>
			<path d="M337.6,111c0,0.4-0.3,0.6-0.7,0.6c-0.4,0-0.6-0.3-0.6-0.6c0-0.4,0.3-0.7,0.7-0.7C337.4,110.4,337.6,110.6,337.6,111z
				 M336.5,118.5v-5.8h1.1v5.8H336.5z"/>
			<path d="M342.5,118.5l-0.1-0.7h0c-0.3,0.5-0.9,0.9-1.8,0.9c-1.2,0-1.8-0.8-1.8-1.7c0-1.4,1.2-2.2,3.5-2.2v-0.1
				c0-0.5-0.1-1.3-1.3-1.3c-0.5,0-1.1,0.2-1.5,0.4l-0.2-0.7c0.5-0.3,1.2-0.5,1.9-0.5c1.8,0,2.2,1.2,2.2,2.4v2.2c0,0.5,0,1,0.1,1.4
				H342.5z M342.3,115.5c-1.2,0-2.5,0.2-2.5,1.3c0,0.7,0.5,1,1,1c0.8,0,1.2-0.5,1.4-1c0-0.1,0.1-0.2,0.1-0.3V115.5z"/>
			<path d="M351.5,117.6L351.5,117.6c-0.3,0.6-1,1-1.9,1c-1.4,0-2.5-1.2-2.5-2.9c0-2.2,1.4-3.1,2.6-3.1c0.9,0,1.5,0.4,1.8,1h0l0-0.9
				h1c0,0.5,0,1,0,1.6v6.6h-1.1V117.6z M351.5,115c0-0.1,0-0.3,0-0.4c-0.2-0.6-0.7-1.2-1.5-1.2c-1.1,0-1.8,0.9-1.8,2.2
				c0,1.2,0.6,2.2,1.7,2.2c0.7,0,1.3-0.4,1.5-1.2c0-0.1,0.1-0.3,0.1-0.5V115z"/>
			<path d="M359.2,116.9c0,0.6,0,1.1,0,1.6h-0.9l-0.1-0.9h0c-0.3,0.5-0.9,1.1-1.9,1.1c-0.9,0-2-0.5-2-2.5v-3.4h1.1v3.2
				c0,1.1,0.3,1.8,1.3,1.8c0.7,0,1.2-0.5,1.4-1c0.1-0.2,0.1-0.3,0.1-0.5v-3.6h1.1V116.9z"/>
			<path d="M362.1,111c0,0.4-0.3,0.6-0.7,0.6c-0.4,0-0.6-0.3-0.6-0.6c0-0.4,0.3-0.7,0.7-0.7C361.9,110.4,362.1,110.6,362.1,111z
				 M361,118.5v-5.8h1.1v5.8H361z"/>
			<path d="M368.8,109.9v7c0,0.5,0,1.1,0,1.5h-0.9l0-1h0c-0.3,0.6-1,1.1-2,1.1c-1.4,0-2.5-1.2-2.5-3c0-1.9,1.2-3.1,2.6-3.1
				c0.9,0,1.5,0.4,1.8,0.9h0v-3.5H368.8z M367.7,115c0-0.1,0-0.3,0-0.4c-0.2-0.7-0.7-1.2-1.5-1.2c-1.1,0-1.7,1-1.7,2.2
				c0,1.2,0.6,2.1,1.7,2.1c0.7,0,1.4-0.5,1.5-1.3c0-0.1,0-0.3,0-0.5V115z"/>
			<path d="M371.1,115.7c0,1.4,0.9,2,2,2c0.8,0,1.2-0.1,1.6-0.3l0.2,0.8c-0.4,0.2-1,0.4-1.9,0.4c-1.8,0-2.9-1.2-2.9-2.9
				s1-3.1,2.7-3.1c1.9,0,2.4,1.7,2.4,2.7c0,0.2,0,0.4,0,0.5H371.1z M374.2,115c0-0.7-0.3-1.7-1.5-1.7c-1.1,0-1.5,1-1.6,1.7H374.2z"
				/>
			<path d="M376.5,114.2c0-0.6,0-1.1,0-1.6h0.9l0,0.9h0c0.3-0.6,0.9-1.1,1.8-1.1c0.8,0,1.4,0.5,1.6,1.2h0c0.2-0.3,0.4-0.6,0.6-0.8
				c0.3-0.3,0.7-0.4,1.3-0.4c0.8,0,1.9,0.5,1.9,2.5v3.4h-1v-3.3c0-1.1-0.4-1.8-1.3-1.8c-0.6,0-1.1,0.4-1.2,1c0,0.1-0.1,0.3-0.1,0.5
				v3.6h-1V115c0-0.9-0.4-1.6-1.2-1.6c-0.7,0-1.1,0.5-1.3,1.1c-0.1,0.2-0.1,0.3-0.1,0.5v3.5h-1V114.2z"/>
			<path d="M393.1,117.6L393.1,117.6c-0.3,0.6-1,1-1.9,1c-1.4,0-2.5-1.2-2.5-2.9c0-2.2,1.4-3.1,2.6-3.1c0.9,0,1.5,0.4,1.8,1h0l0-0.9
				h1c0,0.5,0,1,0,1.6v6.6h-1.1V117.6z M393.1,115c0-0.1,0-0.3,0-0.4c-0.2-0.6-0.7-1.2-1.5-1.2c-1.1,0-1.8,0.9-1.8,2.2
				c0,1.2,0.6,2.2,1.7,2.2c0.7,0,1.3-0.4,1.5-1.2c0-0.1,0.1-0.3,0.1-0.5V115z"/>
			<path d="M400.7,116.9c0,0.6,0,1.1,0,1.6h-0.9l-0.1-0.9h0c-0.3,0.5-0.9,1.1-1.9,1.1c-0.9,0-2-0.5-2-2.5v-3.4h1.1v3.2
				c0,1.1,0.3,1.8,1.3,1.8c0.7,0,1.2-0.5,1.4-1c0.1-0.2,0.1-0.3,0.1-0.5v-3.6h1.1V116.9z"/>
			<path d="M403.6,111c0,0.4-0.3,0.6-0.7,0.6c-0.4,0-0.6-0.3-0.6-0.6c0-0.4,0.3-0.7,0.7-0.7C403.4,110.4,403.6,110.6,403.6,111z
				 M402.5,118.5v-5.8h1.1v5.8H402.5z"/>
			<path d="M405.1,117.4c0.3,0.2,0.9,0.4,1.4,0.4c0.8,0,1.1-0.4,1.1-0.9c0-0.5-0.3-0.8-1.1-1.1c-1-0.4-1.5-0.9-1.5-1.6
				c0-0.9,0.8-1.7,2-1.7c0.6,0,1.1,0.2,1.4,0.4l-0.3,0.8c-0.2-0.1-0.6-0.3-1.2-0.3c-0.6,0-1,0.4-1,0.8c0,0.5,0.3,0.7,1.1,1
				c1,0.4,1.5,0.9,1.5,1.8c0,1-0.8,1.7-2.2,1.7c-0.6,0-1.2-0.2-1.6-0.4L405.1,117.4z"/>
			<path d="M412.6,114.5c0-0.7,0-1.3,0-1.8h0.9l0,1.1h0c0.3-0.8,0.9-1.3,1.6-1.3c0.1,0,0.2,0,0.3,0v1c-0.1,0-0.2,0-0.4,0
				c-0.7,0-1.3,0.6-1.4,1.4c0,0.1,0,0.3,0,0.5v3.1h-1V114.5z"/>
			<path d="M417,115.7c0,1.4,0.9,2,2,2c0.8,0,1.2-0.1,1.6-0.3l0.2,0.8c-0.4,0.2-1,0.4-1.9,0.4c-1.8,0-2.9-1.2-2.9-2.9s1-3.1,2.7-3.1
				c1.9,0,2.4,1.7,2.4,2.7c0,0.2,0,0.4,0,0.5H417z M420.1,115c0-0.7-0.3-1.7-1.5-1.7c-1.1,0-1.5,1-1.6,1.7H420.1z"/>
			<path d="M423.6,111c0,0.4-0.3,0.6-0.7,0.6c-0.4,0-0.6-0.3-0.6-0.6c0-0.4,0.3-0.7,0.7-0.7C423.3,110.4,423.6,110.6,423.6,111z
				 M422.4,118.5v-5.8h1.1v5.8H422.4z"/>
			<path d="M429.3,118.2c-0.3,0.1-0.9,0.3-1.7,0.3c-1.8,0-2.9-1.2-2.9-3c0-1.8,1.2-3.1,3.1-3.1c0.6,0,1.2,0.2,1.5,0.3l-0.2,0.8
				c-0.3-0.1-0.6-0.3-1.2-0.3c-1.3,0-2.1,1-2.1,2.2c0,1.3,0.9,2.2,2,2.2c0.6,0,1-0.2,1.3-0.3L429.3,118.2z"/>
			<path d="M431.7,111c0,0.4-0.3,0.6-0.7,0.6c-0.4,0-0.6-0.3-0.6-0.6c0-0.4,0.3-0.7,0.7-0.7C431.5,110.4,431.7,110.6,431.7,111z
				 M430.6,118.5v-5.8h1.1v5.8H430.6z"/>
			<path d="M434,115.7c0,1.4,0.9,2,2,2c0.8,0,1.2-0.1,1.6-0.3l0.2,0.8c-0.4,0.2-1,0.4-1.9,0.4c-1.8,0-2.9-1.2-2.9-2.9s1-3.1,2.7-3.1
				c1.9,0,2.4,1.7,2.4,2.7c0,0.2,0,0.4,0,0.5H434z M437.1,115c0-0.7-0.3-1.7-1.5-1.7c-1.1,0-1.5,1-1.6,1.7H437.1z"/>
			<path d="M439.4,114.2c0-0.6,0-1.1,0-1.6h0.9l0.1,1h0c0.3-0.6,1-1.1,1.9-1.1c0.8,0,2.1,0.5,2.1,2.5v3.5h-1.1v-3.3
				c0-0.9-0.3-1.7-1.3-1.7c-0.7,0-1.2,0.5-1.4,1.1c0,0.1-0.1,0.3-0.1,0.5v3.5h-1.1V114.2z"/>
			<path d="M451.1,109.9v7c0,0.5,0,1.1,0,1.5h-0.9l0-1h0c-0.3,0.6-1,1.1-2,1.1c-1.4,0-2.5-1.2-2.5-3c0-1.9,1.2-3.1,2.6-3.1
				c0.9,0,1.5,0.4,1.8,0.9h0v-3.5H451.1z M450,115c0-0.1,0-0.3,0-0.4c-0.2-0.7-0.7-1.2-1.5-1.2c-1.1,0-1.7,1-1.7,2.2
				c0,1.2,0.6,2.1,1.7,2.1c0.7,0,1.4-0.5,1.5-1.3c0-0.1,0-0.3,0-0.5V115z"/>
			<path d="M454,111c0,0.4-0.3,0.6-0.7,0.6c-0.4,0-0.6-0.3-0.6-0.6c0-0.4,0.3-0.7,0.7-0.7C453.7,110.4,454,110.6,454,111z
				 M452.8,118.5v-5.8h1.1v5.8H452.8z"/>
			<path d="M455.5,117.4c0.3,0.2,0.9,0.4,1.4,0.4c0.8,0,1.1-0.4,1.1-0.9c0-0.5-0.3-0.8-1.1-1.1c-1-0.4-1.5-0.9-1.5-1.6
				c0-0.9,0.8-1.7,2-1.7c0.6,0,1.1,0.2,1.4,0.4l-0.3,0.8c-0.2-0.1-0.6-0.3-1.2-0.3c-0.6,0-1,0.4-1,0.8c0,0.5,0.3,0.7,1.1,1
				c1,0.4,1.5,0.9,1.5,1.8c0,1-0.8,1.7-2.2,1.7c-0.6,0-1.2-0.2-1.6-0.4L455.5,117.4z"/>
			<path d="M462.9,114.5c0-0.7,0-1.3,0-1.8h0.9l0,1.1h0c0.3-0.8,0.9-1.3,1.6-1.3c0.1,0,0.2,0,0.3,0v1c-0.1,0-0.2,0-0.4,0
				c-0.7,0-1.3,0.6-1.4,1.4c0,0.1,0,0.3,0,0.5v3.1h-1V114.5z"/>
			<path d="M467.3,115.7c0,1.4,0.9,2,2,2c0.8,0,1.2-0.1,1.6-0.3l0.2,0.8c-0.4,0.2-1,0.4-1.9,0.4c-1.8,0-2.9-1.2-2.9-2.9
				s1-3.1,2.7-3.1c1.9,0,2.4,1.7,2.4,2.7c0,0.2,0,0.4,0,0.5H467.3z M470.4,115c0-0.7-0.3-1.7-1.5-1.7c-1.1,0-1.5,1-1.6,1.7H470.4z"
				/>
			<path d="M472.7,114.2c0-0.6,0-1.1,0-1.6h0.9l0,0.9h0c0.3-0.6,0.9-1.1,1.8-1.1c0.8,0,1.4,0.5,1.6,1.2h0c0.2-0.3,0.4-0.6,0.6-0.8
				c0.3-0.3,0.7-0.4,1.3-0.4c0.8,0,1.9,0.5,1.9,2.5v3.4h-1v-3.3c0-1.1-0.4-1.8-1.3-1.8c-0.6,0-1.1,0.4-1.2,1c0,0.1-0.1,0.3-0.1,0.5
				v3.6h-1V115c0-0.9-0.4-1.6-1.2-1.6c-0.7,0-1.1,0.5-1.3,1.1c-0.1,0.2-0.1,0.3-0.1,0.5v3.5h-1V114.2z"/>
			<path d="M482.5,117.8c0-0.4,0.3-0.8,0.7-0.8c0.4,0,0.7,0.3,0.7,0.8c0,0.4-0.3,0.8-0.7,0.8C482.8,118.6,482.5,118.3,482.5,117.8z"
				/>
		</g>
		<g>
			<g>
				<path class="st2" d="M538,94.7c-3.4-2-7.7-0.8-9.7,2.5l-8,13.7l0,0l-8,13.7c-2,3.4-0.8,7.7,2.5,9.7c3.4,2,7.7,0.8,9.7-2.5
					l8-13.7l-1-0.6l-10.1-5.9l-0.1,0l0.1,0l10.1,5.9l1,0.6l8-13.7C542.5,101,541.4,96.6,538,94.7z M539.8,103.9l-7.9,13.7l-10.7-6.2
					l7.9-13.7c0.8-1.4,2.2-2.5,3.8-2.9c1.6-0.4,3.3-0.2,4.7,0.6C540.5,97.1,541.6,100.9,539.8,103.9z"/>
			</g>
		</g>
		<g>
			<path class="st2" d="M194.1,96.2c-1,0.3-2.2,0.5-3.1,0.6c0.2,0.4,0.4,0.9,0.4,1.3c0.4,1.7,0.3,3.1-0.6,4.3
				c-1.3,1.8-4.7,3.1-7.5,4l-1.5,0.4c1,0.3,2.8,0.9,4.1,1.9c2.8-1,5.8-2.4,7.3-4.6c1.4-2,1.7-4.3,1-6.8
				C194.3,97,194.2,96.5,194.1,96.2z"/>
			<g>
				<g>
					<path class="st9" d="M182.9,58.4c0-0.1,0-0.3,0-0.4c0-1.8-1.5-3.3-3.3-3.3s-3.3,1.5-3.3,3.3c0,0.1,0,0.3,0,0.4l2.7,73.3
						c0,0.7,1.1,0.7,1.1,0L182.9,58.4z"/>
					<path class="st2" d="M190.9,78c-0.6-0.8-1.5-1.5-2.9-1.7c-3-0.4-5.1,1-6.1,1.4c-1.1,0.4,0,1.6,0.4,1.8c0.4,0.2,3.3,1.6,4.8,2.3
						c1.1,0.4,2.7,0.5,3.7-0.4c2.9,1.6,6.2,4.2,5.3,7.6c-0.3,1.3-1,2.2-2.2,2.8c-2.7,1.5-7.6,0.9-10.9,0.2l-2-0.5
						c-0.1,0-0.3-0.1-0.4-0.1l0,0l0,0c-2.4-0.6-7.6-1.6-11.5,0.5c-2.1,1.1-3.6,3-4.2,5.6c-0.7,2.5-0.3,4.8,1,6.8
						c1.7,2.4,5.6,4.1,8.6,5c-2.9,1.7-4.8,4.9-4.8,8.5c0,5.5,4.4,9.9,9.9,9.9s9.9-4.4,9.9-9.9c0-4.8-3.4-8.8-8-9.7
						c-0.7-0.3-1.5-0.5-2-0.6l0,0l0,0l-3.6-0.9c-2.7-0.8-6.2-2.2-7.5-4c-0.9-1.2-1-2.7-0.6-4.3c0.4-1.7,1.3-2.9,2.7-3.7
						c2.3-1.2,5.2-1,7.8-0.5c2.7,0.4,11.3,3.9,17,0.6c1.8-1.1,3.1-2.6,3.6-4.7C200.6,83.7,194.7,79.9,190.9,78z M179.6,111
						c0.1,0,0.3,0,0.4,0h0.1c0.1,0,0.1,0,0.2,0c0.1,0,0.2,0,0.3,0l0,0c0.2,0,0.4,0.1,0.5,0.1l0,0c2.1,0.5,3.8,2,4.5,4l0,0v0.1
						c0,0.1,0,0.1,0.1,0.2c0,0,0,0,0,0.1c0.2,0.7,0.3,1.4,0.3,2.1c0,3.6-2.9,6.6-6.6,6.6c-3.6,0-6.6-2.9-6.6-6.6
						C173,114,176,111,179.6,111z"/>
					<path class="st9" d="M178.4,113.5l0.7,18.2c0,0.7,1.1,0.7,1.1,0l0.7-18.2H178.4z"/>
					<g>
						<path class="st9" d="M179.7,53.4c-0.7,0-1.4-0.2-2-0.4c0.5,0.6,1.2,0.9,2,0.9s1.5-0.4,2-0.9C181.1,53.2,180.4,53.4,179.7,53.4
							z"/>
						<circle class="st9" cx="179.7" cy="48.8" r="4.2"/>
					</g>
					<g>
						<g>
							<g>
								<path class="st9" d="M175.7,68.1c-0.5,0.1-1.1,0.3-1.6,0.4c-3.3,0.8-6.8,1.3-10.4,1c-1.3-0.1-2.6-0.3-3.9-0.6
									c0.9,1.3,2.7,2.2,4.7,2.9c2.4,0.8,5,1.2,7.5,0.9c1.3-0.1,2.6-0.4,3.8-0.7L175.7,68.1z"/>
								<path class="st9" d="M175.5,63c-1.8,0.2-3.5,0.5-5.3,0.7c-3.8,0.5-7.7,0.8-11.7,0.4c-3.4-0.3-6.7-1.2-9.7-2.6
									c0.1,0.8,0.6,1.5,1.4,2.2c1,0.9,2.5,1.6,4,2.2c2.9,1.3,6.2,2.3,9.5,2.6c3.4,0.3,6.7-0.1,10-0.8c0.6-0.1,1.3-0.3,1.9-0.4
									L175.5,63z"/>
								<path class="st9" d="M175.3,58.7c-2.6,0-5.3,0.1-8,0.1c-4.3,0-8.6-0.2-12.8-1c-3.8-0.7-7.6-1.8-10.7-3.7
									c-0.1,1,0.1,1.9,0.8,2.8c0.8,1.2,2.2,2.1,3.8,2.9c3,1.8,6.6,2.9,10.3,3.3c3.8,0.4,7.6,0.2,11.3-0.2c1.8-0.2,3.6-0.4,5.4-0.6
									L175.3,58.7z"/>
								<path class="st9" d="M175.2,54.9c-3-0.4-6.1-0.6-9.2-1c-4.4-0.5-8.8-1.2-13.1-2.3s-8.6-2.6-11.9-5.2
									c-0.3-0.2-0.6-0.5-0.8-0.7c-0.5,1-0.4,2.2,0.2,3.2c0.9,1.4,2,2.6,3.5,3.7c2.9,2.2,6.9,3.5,10.9,4.3
									c4.1,0.8,8.3,1.1,12.5,1.2c2.7,0.1,5.3,0,8,0.1L175.2,54.9z"/>
							</g>
							<path class="st9" d="M171.4,51.4c-6.8-1.3-13.4-3-19.7-5.4c-4.2-1.7-8.5-3.7-11.4-6.9c-0.1-0.2-0.3-0.4-0.4-0.5
								c-1,0.9-1.4,1.9-0.8,3.1c0.6,1.5,1.6,2.9,3,4.1c2.9,2.4,6.9,3.9,11.1,5c4.2,1.1,8.5,1.8,12.9,2.4c2.5,0.4,6.4,0.9,9,1.2
								C173.1,53.4,172,52.4,171.4,51.4z"/>
						</g>
						<g>
							<g>
								<path class="st9" d="M183.6,68.1c0.5,0.1,1.1,0.3,1.6,0.4c3.3,0.8,6.8,1.3,10.4,1c1.3-0.1,2.6-0.3,3.9-0.6
									c-0.9,1.3-2.7,2.2-4.7,2.9c-2.4,0.8-5,1.2-7.5,0.9c-1.3-0.1-2.6-0.4-3.8-0.7L183.6,68.1z"/>
								<path class="st9" d="M183.8,63c1.8,0.2,3.5,0.5,5.3,0.7c3.8,0.5,7.7,0.8,11.7,0.4c3.4-0.3,6.7-1.2,9.7-2.6
									c-0.1,0.8-0.6,1.5-1.4,2.2c-1,0.9-2.5,1.6-4,2.2c-2.9,1.3-6.2,2.3-9.5,2.6c-3.4,0.3-6.7-0.1-10-0.8
									c-0.6-0.1-1.3-0.3-1.9-0.4L183.8,63z"/>
								<path class="st9" d="M184,58.7c2.6,0,5.3,0.1,8,0.1c4.3,0,8.6-0.2,12.8-1c3.8-0.7,7.6-1.8,10.7-3.7c0.1,1-0.1,1.9-0.8,2.8
									c-0.8,1.2-2.2,2.1-3.8,2.9c-3,1.8-6.6,2.9-10.3,3.3c-3.8,0.4-7.6,0.2-11.3-0.2c-1.8-0.2-3.6-0.4-5.4-0.6L184,58.7z"/>
								<path class="st9" d="M184.1,54.9c3-0.4,6.1-0.6,9.2-1c4.4-0.5,8.8-1.2,13.1-2.3s8.6-2.6,11.9-5.2c0.3-0.2,0.6-0.5,0.8-0.7
									c0.5,1,0.4,2.2-0.2,3.2c-0.9,1.4-2,2.6-3.5,3.7c-2.9,2.2-6.9,3.5-10.9,4.3c-4.1,0.8-8.3,1.1-12.5,1.2c-2.7,0.1-5.3,0-8,0.1
									L184.1,54.9z"/>
							</g>
							<path class="st9" d="M187.9,51.4c6.8-1.3,13.4-3,19.7-5.4c4.2-1.7,8.5-3.7,11.4-6.9c0.1-0.2,0.3-0.4,0.4-0.5
								c1,0.9,1.4,1.9,0.8,3.1c-0.6,1.5-1.6,2.9-3,4.1c-2.9,2.4-6.9,3.9-11.1,5c-4.2,1.1-8.5,1.8-12.9,2.4c-2.5,0.4-6.4,0.9-9,1.2
								C186.2,53.4,187.3,52.4,187.9,51.4z"/>
						</g>
					</g>
				</g>
				<path class="st2" d="M177.4,77.7c-1.1-0.4-3.2-1.8-6.1-1.4c-1.4,0.2-2.3,1-2.9,1.7c-3.8,1.8-9.7,5.7-8.1,11.6
					c0.5,2.1,1.8,3.6,3.6,4.7c0.3,0.2,0.5,0.3,0.8,0.4c0.6-1.3,1.4-2.1,2-2.5c-0.5-0.1-0.9-0.3-1.3-0.5c-1.1-0.6-1.8-1.5-2.2-2.8
					c-0.9-3.4,2.4-6,5.3-7.6c1,0.9,2.6,0.8,3.7,0.4c1.5-0.6,4.4-2.1,4.8-2.3C177.4,79.4,178.5,78.1,177.4,77.7z"/>
			</g>
		</g>
	</g>
</g>
</svg>
