<?xml version="1.0" encoding="utf-8"?>
<!-- Generator: Adobe Illustrator 19.0.0, SVG Export Plug-In . SVG Version: 6.00 Build 0)  -->
<svg version="1.1" id="Camada_1" xmlns="http://www.w3.org/2000/svg" xmlns:xlink="http://www.w3.org/1999/xlink" x="0px" y="0px"
	 viewBox="125 0 450 200" style="enable-background:new 125 0 450 200;" xml:space="preserve">
<style type="text/css">
	.st0{opacity:0.42;fill:#AEC2D1;enable-background:new    ;}
	.st1{fill:#004CBA;}
	.st2{fill:#FFFFFF;}
	.st3{fill:#023FC6;}
	.st4{fill:#EFEFEF;}
	.st5{fill:#0059F7;}
	.st6{fill:#E46101;}
	.st7{font-family:'OpenSans-SemiBold';}
	.st8{font-size:35px;}
	.st9{font-family:'MyriadPro-Regular';}
	.st10{font-size:12px;}
	.st11{fill:#F9F9F9;}
	.st12{fill:#6BEDAC;}
</style>
<g id="XMLID_15_">
	<path id="XMLID_22_" class="st0" d="M540.6,85.8l-4.7-6l0,0l-8.8-11.2c-4.5-5.8-10.8-9.6-17.8-11v-0.4c0-10.8-8.8-19.6-19.6-19.6
		h-209h-18.8h-2.5c-5.8,0-10.5,4.7-10.5,10.5V57h-5.6h-9.1l0,0c-0.1-10.7-8.8-19.4-19.5-19.4h-64.6c-10.8,0-19.5,8.8-19.5,19.6v51.3
		c0,23.4,19,42.4,42.4,42.4h38.3l0,0h65.4h9.1h213c7.5,9.2,18.9,15.1,31.7,15.1c22.5,0,40.8-18.2,40.8-40.8
		C571.2,106.2,558.2,90.3,540.6,85.8z"/>
	<g id="XMLID_23_">
		<path id="XMLID_21_" class="st1" d="M275.2,32h-23.8c-4.4,0-8,3.6-8,8v30.6h31.8V32z"/>
		<path id="XMLID_20_" class="st2" d="M541.5,107.3l-20,26.1c-5.7,7.5-14.6,11.8-24,11.8H205.7c-23.4,0-42.4-19-42.4-42.4V51.4
			h334.5c9.3,0,18,4.3,23.7,11.6l19.9,25.3C545.7,93.8,545.8,101.7,541.5,107.3z"/>
		<path id="XMLID_19_" class="st3" d="M228.6,102.9V51.6c0-10.8-8.8-19.6-19.6-19.6h-64.5c-10.8,0-19.5,8.8-19.5,19.6v51.3
			c0,23.4,19,42.4,42.4,42.4h103.7C247.6,145.2,228.6,126.3,228.6,102.9z"/>
		<path id="XMLID_18_" class="st4" d="M280.1,145.2H271c-23.4,0-42.4-19-42.4-42.4V51.4h9.1v51.4
			C237.7,126.3,256.7,145.2,280.1,145.2z"/>
		<path id="XMLID_17_" class="st5" d="M273.4,74.9h216.3c7.8,0,14.1-6.3,14.1-14.1v-9.3c0-10.8-8.8-19.6-19.6-19.6H256.4
			c4,5.5,6.4,12.2,6.4,19.6v12.8C262.8,70.2,267.5,74.9,273.4,74.9z"/>
		<circle id="XMLID_10_" class="st6" cx="524.8" cy="119.6" r="40.8"/>
		<path id="XMLID_9_" class="st4" d="M481.9,114.2c0,12.4,5.6,23.6,14.4,31h1.2c9.4,0,18.3-4.4,24-11.8l20-26.1
			c4.3-5.6,4.3-13.5-0.1-19l-11.1-14.1c-2.5-0.5-5-0.7-7.6-0.7C500.2,73.4,481.9,91.7,481.9,114.2z"/>
		<circle id="XMLID_7_" class="st1" cx="524.8" cy="119.6" r="40.8"/>
		<path id="XMLID_28_" class="st2" d="M524.8,85.9c-18.6,0-33.7,15.1-33.7,33.7s15.1,33.7,33.7,33.7s33.7-15.1,33.7-33.7
			S543.4,85.9,524.8,85.9z M524.8,149c-16.2,0-29.4-13.2-29.4-29.4s13.2-29.4,29.4-29.4c16.2,0,29.4,13.2,29.4,29.4
			C554.2,135.9,541,149,524.8,149z"/>
		<text transform="matrix(1 0 0 1 324.3645 66.1698)" class="st2 st7 st8">Tema</text>
		<text transform="matrix(1 0 0 1 243.4002 94.6574)" class="st9 st10">Lorem ipsum dolor sit amet, consectetur elit. </text>
		<text transform="matrix(1 0 0 1 243.4002 109.0574)" class="st9 st10">Ab atque autem cum, dicta explicabo id, illum </text>
		<text transform="matrix(1 0 0 1 243.4002 123.4574)" class="st9 st10">ipsam modi mollitia quidem quis reiciendis rem.</text>
		<g>
			<g>
				<path class="st11" d="M179.2,63.2c0-0.1,0-0.3,0-0.4c0-1.8-1.5-3.3-3.3-3.3s-3.3,1.5-3.3,3.3c0,0.1,0,0.3,0,0.4l2.7,73.3
					c0,0.7,1.1,0.7,1.1,0L179.2,63.2z"/>
				<path class="st12" d="M187.2,82.8c-0.6-0.8-1.5-1.5-2.9-1.7c-3-0.4-5.1,1-6.1,1.4c-1.1,0.4,0,1.6,0.4,1.8
					c0.4,0.2,3.3,1.6,4.8,2.3c1.1,0.4,2.7,0.5,3.7-0.4c2.9,1.6,6.2,4.2,5.3,7.6c-0.3,1.3-1,2.2-2.2,2.8c-2.7,1.5-7.6,0.9-10.9,0.2
					l-2-0.5c-0.1,0-0.3-0.1-0.4-0.1l0,0l0,0c-2.4-0.6-7.6-1.6-11.5,0.5c-2.1,1.1-3.6,3-4.2,5.6c-0.7,2.5-0.3,4.8,1,6.8
					c1.7,2.4,5.6,4.1,8.6,5c-2.9,1.7-4.8,4.9-4.8,8.5c0,5.5,4.4,9.9,9.9,9.9s9.9-4.4,9.9-9.9c0-4.8-3.4-8.8-8-9.7
					c-0.7-0.3-1.5-0.5-2-0.6l0,0l0,0l-3.6-0.9c-2.7-0.8-6.2-2.2-7.5-4c-0.9-1.2-1-2.7-0.6-4.3c0.4-1.7,1.3-2.9,2.7-3.7
					c2.3-1.2,5.2-1,7.8-0.5c2.7,0.4,11.3,3.9,17,0.6c1.8-1.1,3.1-2.6,3.6-4.7C196.9,88.5,191,84.7,187.2,82.8z M175.9,115.8
					c0.1,0,0.3,0,0.4,0h0.1c0.1,0,0.1,0,0.2,0c0.1,0,0.2,0,0.3,0l0,0c0.2,0,0.4,0.1,0.5,0.1l0,0c2.1,0.5,3.8,2,4.5,4l0,0v0.1
					c0,0.1,0,0.1,0.1,0.2c0,0,0,0,0,0.1c0.2,0.7,0.3,1.4,0.3,2.1c0,3.6-2.9,6.6-6.6,6.6c-3.6,0-6.6-2.9-6.6-6.6
					C169.3,118.8,172.3,115.8,175.9,115.8z"/>
				<path class="st11" d="M174.7,118.3l0.7,18.2c0,0.7,1.1,0.7,1.1,0l0.7-18.2H174.7z"/>
				<g>
					<path class="st11" d="M176,58.2c-0.7,0-1.4-0.2-2-0.4c0.5,0.6,1.2,0.9,2,0.9s1.5-0.4,2-0.9C177.4,58,176.7,58.2,176,58.2z"/>
					<circle class="st11" cx="176" cy="53.6" r="4.2"/>
				</g>
				<g>
					<g>
						<g>
							<path class="st11" d="M172,72.9c-0.5,0.1-1.1,0.3-1.6,0.4c-3.3,0.8-6.8,1.3-10.4,1c-1.3-0.1-2.6-0.3-3.9-0.6
								c0.9,1.3,2.7,2.2,4.7,2.9c2.4,0.8,5,1.2,7.5,0.9c1.3-0.1,2.6-0.4,3.8-0.7L172,72.9z"/>
							<path class="st11" d="M171.8,67.8c-1.8,0.2-3.5,0.5-5.3,0.7c-3.8,0.5-7.7,0.8-11.7,0.4c-3.4-0.3-6.7-1.2-9.7-2.6
								c0.1,0.8,0.6,1.5,1.4,2.2c1,0.9,2.5,1.6,4,2.2c2.9,1.3,6.2,2.3,9.5,2.6c3.4,0.3,6.7-0.1,10-0.8c0.6-0.1,1.3-0.3,1.9-0.4
								L171.8,67.8z"/>
							<path class="st11" d="M171.6,63.5c-2.6,0-5.3,0.1-8,0.1c-4.3,0-8.6-0.2-12.8-1c-3.8-0.7-7.6-1.8-10.7-3.7
								c-0.1,1,0.1,1.9,0.8,2.8c0.8,1.2,2.2,2.1,3.8,2.9c3,1.8,6.6,2.9,10.3,3.3c3.8,0.4,7.6,0.2,11.3-0.2c1.8-0.2,3.6-0.4,5.4-0.6
								L171.6,63.5z"/>
							<path class="st11" d="M171.5,59.7c-3-0.4-6.1-0.6-9.2-1c-4.4-0.5-8.8-1.2-13.1-2.3s-8.6-2.6-11.9-5.2
								c-0.3-0.2-0.6-0.5-0.8-0.7c-0.5,1-0.4,2.2,0.2,3.2c0.9,1.4,2,2.6,3.5,3.7c2.9,2.2,6.9,3.5,10.9,4.3c4.1,0.8,8.3,1.1,12.5,1.2
								c2.7,0.1,5.3,0,8,0.1L171.5,59.7z"/>
						</g>
						<path class="st11" d="M167.7,56.2c-6.8-1.3-13.4-3-19.7-5.4c-4.2-1.7-8.5-3.7-11.4-6.9c-0.1-0.2-0.3-0.4-0.4-0.5
							c-1,0.9-1.4,1.9-0.8,3.1c0.6,1.5,1.6,2.9,3,4.1c2.9,2.4,6.9,3.9,11.1,5c4.2,1.1,8.5,1.8,12.9,2.4c2.5,0.4,6.4,0.9,9,1.2
							C169.4,58.2,168.3,57.2,167.7,56.2z"/>
					</g>
					<g>
						<g>
							<path class="st11" d="M179.9,72.9c0.5,0.1,1.1,0.3,1.6,0.4c3.3,0.8,6.8,1.3,10.4,1c1.3-0.1,2.6-0.3,3.9-0.6
								c-0.9,1.3-2.7,2.2-4.7,2.9c-2.4,0.8-5,1.2-7.5,0.9c-1.3-0.1-2.6-0.4-3.8-0.7L179.9,72.9z"/>
							<path class="st11" d="M180.1,67.8c1.8,0.2,3.5,0.5,5.3,0.7c3.8,0.5,7.7,0.8,11.7,0.4c3.4-0.3,6.7-1.2,9.7-2.6
								c-0.1,0.8-0.6,1.5-1.4,2.2c-1,0.9-2.5,1.6-4,2.2c-2.9,1.3-6.2,2.3-9.5,2.6c-3.4,0.3-6.7-0.1-10-0.8c-0.6-0.1-1.3-0.3-1.9-0.4
								L180.1,67.8z"/>
							<path class="st11" d="M180.3,63.5c2.6,0,5.3,0.1,8,0.1c4.3,0,8.6-0.2,12.8-1c3.8-0.7,7.6-1.8,10.7-3.7c0.1,1-0.1,1.9-0.8,2.8
								c-0.8,1.2-2.2,2.1-3.8,2.9c-3,1.8-6.6,2.9-10.3,3.3c-3.8,0.4-7.6,0.2-11.3-0.2c-1.8-0.2-3.6-0.4-5.4-0.6L180.3,63.5z"/>
							<path class="st11" d="M180.4,59.7c3-0.4,6.1-0.6,9.2-1c4.4-0.5,8.8-1.2,13.1-2.3s8.6-2.6,11.9-5.2c0.3-0.2,0.6-0.5,0.8-0.7
								c0.5,1,0.4,2.2-0.2,3.2c-0.9,1.4-2,2.6-3.5,3.7c-2.9,2.2-6.9,3.5-10.9,4.3c-4.1,0.8-8.3,1.1-12.5,1.2c-2.7,0.1-5.3,0-8,0.1
								L180.4,59.7z"/>
						</g>
						<path class="st11" d="M184.2,56.2c6.8-1.3,13.4-3,19.7-5.4c4.2-1.7,8.5-3.7,11.4-6.9c0.1-0.2,0.3-0.4,0.4-0.5
							c1,0.9,1.4,1.9,0.8,3.1c-0.6,1.5-1.6,2.9-3,4.1c-2.9,2.4-6.9,3.9-11.1,5c-4.2,1.1-8.5,1.8-12.9,2.4c-2.5,0.4-6.4,0.9-9,1.2
							C182.5,58.2,183.6,57.2,184.2,56.2z"/>
					</g>
				</g>
			</g>
			<path class="st12" d="M173.7,82.5c-1.1-0.4-3.2-1.8-6.1-1.4c-1.4,0.2-2.3,1-2.9,1.7c-3.8,1.8-9.7,5.7-8.1,11.6
				c0.5,2.1,1.8,3.6,3.6,4.7c0.3,0.2,0.5,0.3,0.8,0.4c0.6-1.3,1.4-2.1,2-2.5c-0.5-0.1-0.9-0.3-1.3-0.5c-1.1-0.6-1.8-1.5-2.2-2.8
				c-0.9-3.4,2.4-6,5.3-7.6c1,0.9,2.6,0.8,3.7,0.4c1.5-0.6,4.4-2.1,4.8-2.3C173.7,84.2,174.8,82.9,173.7,82.5z"/>
		</g>
		<g>
			<g>
				<path class="st2" d="M536.3,99.7c-3.4-2-7.7-0.8-9.7,2.5l-8,13.7l0,0l-8,13.7c-2,3.4-0.8,7.7,2.5,9.7c3.4,2,7.7,0.8,9.7-2.5
					l8-13.7l-1-0.6l-10.1-5.9h-0.1h0.1l10.1,5.9l1,0.6l8-13.7C540.8,106,539.7,101.6,536.3,99.7z M538.1,108.9l-7.9,13.7l-10.7-6.2
					l7.9-13.7c0.8-1.4,2.2-2.5,3.8-2.9s3.3-0.2,4.7,0.6C538.8,102.1,539.9,105.9,538.1,108.9z"/>
			</g>
		</g>
	</g>
</g>
</svg>
