<?xml version="1.0" encoding="utf-8"?>
<!-- Generator: Adobe Illustrator 19.0.0, SVG Export Plug-In . SVG Version: 6.00 Build 0)  -->
<svg version="1.1" id="Camada_1" xmlns="http://www.w3.org/2000/svg" xmlns:xlink="http://www.w3.org/1999/xlink" x="0px" y="0px"
	 viewBox="125 0 450 200" style="enable-background:new 125 0 450 200;" xml:space="preserve">
<style type="text/css">
	.st0{opacity:0.42;fill:#AEC2D1;enable-background:new    ;}
	.st1{fill:#05914A;}
	.st2{fill:#FFFFFF;}
	.st3{fill:url(#XMLID_2_);}
	.st4{fill:#EFEFEF;}
	.st5{fill:#00C165;}
	.st6{fill:#E46101;}
	.st7{fill:url(#XMLID_3_);}
	.st8{fill:#6BEDAC;}
	.st9{fill:#F9F9F9;}
</style>
<g>
	<g id="XMLID_15_">
		<path id="XMLID_22_" class="st0" d="M542.3,85.8l-4.7-6l0,0l-8.8-11.2c-4.5-5.8-10.8-9.6-17.8-11v-0.4c0-10.8-8.8-19.6-19.6-19.6
			h-209h-18.8h-2.5c-5.8,0-10.5,4.7-10.5,10.5V57H245h-9.1l0,0c-0.1-10.7-8.8-19.4-19.5-19.4h-64.6c-10.8,0-19.5,8.8-19.5,19.6v51.3
			c0,23.4,19,42.4,42.4,42.4H213l0,0h65.4h9.1h213c7.5,9.2,18.9,15.1,31.7,15.1c22.5,0,40.8-18.2,40.8-40.8
			C572.9,106.2,559.9,90.3,542.3,85.8z"/>
		<g id="XMLID_23_">
			<path id="XMLID_21_" class="st1" d="M276.9,32h-23.8c-4.4,0-8,3.6-8,8v30.6h31.8V32z"/>
			<path id="XMLID_20_" class="st2" d="M543.2,107.3l-20,26.1c-5.7,7.5-14.6,11.8-24,11.8H207.4c-23.4,0-42.4-19-42.4-42.4V51.4
				h334.5c9.3,0,18,4.3,23.7,11.6l19.9,25.3C547.4,93.8,547.5,101.7,543.2,107.3z"/>
			<linearGradient id="XMLID_2_" gradientUnits="userSpaceOnUse" x1="126.7" y1="88.65" x2="272.8" y2="88.65">
				<stop  offset="0" style="stop-color:#00D490"/>
				<stop  offset="0.6262" style="stop-color:#00B693"/>
				<stop  offset="1" style="stop-color:#00AA94"/>
			</linearGradient>
			<path id="XMLID_19_" class="st3" d="M230.3,102.9V51.6c0-10.8-8.8-19.6-19.6-19.6h-64.5c-10.8,0-19.5,8.8-19.5,19.6v51.3
				c0,23.4,19,42.4,42.4,42.4h103.7C249.3,145.2,230.3,126.3,230.3,102.9z"/>
			<path id="XMLID_18_" class="st4" d="M281.8,145.2h-9.1c-23.4,0-42.4-19-42.4-42.4V51.4h9.1v51.4
				C239.4,126.3,258.4,145.2,281.8,145.2z"/>
			<path id="XMLID_17_" class="st5" d="M275.1,74.9h216.3c7.8,0,14.1-6.3,14.1-14.1v-9.3c0-10.8-8.8-19.6-19.6-19.6H258.1
				c4,5.5,6.4,12.2,6.4,19.6v12.8C264.5,70.2,269.2,74.9,275.1,74.9z"/>
			<circle id="XMLID_10_" class="st6" cx="526.5" cy="119.6" r="40.8"/>
			<path id="XMLID_9_" class="st4" d="M483.6,114.2c0,12.4,5.6,23.6,14.4,31h1.2c9.4,0,18.3-4.4,24-11.8l20-26.1
				c4.3-5.6,4.3-13.5-0.1-19L532,74.2c-2.5-0.5-5-0.7-7.6-0.7C501.9,73.4,483.6,91.7,483.6,114.2z"/>
			<radialGradient id="XMLID_3_" cx="526.5" cy="119.6" r="40.8" gradientUnits="userSpaceOnUse">
				<stop  offset="0" style="stop-color:#00D490"/>
				<stop  offset="0.1895" style="stop-color:#00CD8F"/>
				<stop  offset="0.4571" style="stop-color:#00BB8E"/>
				<stop  offset="0.7695" style="stop-color:#009D8B"/>
				<stop  offset="1" style="stop-color:#008288"/>
			</radialGradient>
			<circle id="XMLID_7_" class="st7" cx="526.5" cy="119.6" r="40.8"/>
			<path id="XMLID_28_" class="st2" d="M526.5,85.9c-18.6,0-33.7,15.1-33.7,33.7s15.1,33.7,33.7,33.7c18.6,0,33.7-15.1,33.7-33.7
				S545.1,85.9,526.5,85.9z M526.5,149c-16.2,0-29.4-13.2-29.4-29.4s13.2-29.4,29.4-29.4c16.2,0,29.4,13.2,29.4,29.4
				C555.9,135.9,542.7,149,526.5,149z"/>
			<g>
				<path d="M242.3,96.3v-9.6h1.6v8.3h4.1v1.4H242.3z"/>
				<path d="M255.9,92.6c0,1.2-0.3,2.1-0.9,2.8s-1.5,1-2.6,1c-0.7,0-1.3-0.2-1.8-0.5c-0.5-0.3-0.9-0.7-1.2-1.3s-0.4-1.2-0.4-2
					c0-1.2,0.3-2.1,0.9-2.8s1.5-1,2.6-1c1.1,0,1.9,0.3,2.5,1C255.6,90.6,255.9,91.5,255.9,92.6z M250.6,92.6c0,1.7,0.6,2.5,1.9,2.5
					c1.2,0,1.8-0.8,1.8-2.5c0-1.7-0.6-2.5-1.9-2.5c-0.7,0-1.1,0.2-1.4,0.6C250.7,91.2,250.6,91.8,250.6,92.6z"/>
				<path d="M260.6,96.4c-1.1,0-1.9-0.3-2.5-1c-0.6-0.6-0.9-1.6-0.9-2.8c0-1.2,0.3-2.2,0.9-2.8c0.6-0.7,1.5-1,2.6-1
					c0.8,0,1.5,0.1,2.1,0.4l-0.5,1.2c-0.7-0.3-1.2-0.4-1.6-0.4c-1.3,0-1.9,0.8-1.9,2.5c0,0.8,0.2,1.4,0.5,1.8
					c0.3,0.4,0.8,0.6,1.4,0.6c0.7,0,1.3-0.2,2-0.5V96c-0.3,0.2-0.6,0.3-0.9,0.3C261.4,96.4,261.1,96.4,260.6,96.4z"/>
				<path d="M268.9,96.3l-0.3-1h-0.1c-0.4,0.4-0.7,0.7-1.1,0.9c-0.4,0.2-0.8,0.2-1.4,0.2c-0.7,0-1.3-0.2-1.7-0.6
					c-0.4-0.4-0.6-0.9-0.6-1.6c0-0.8,0.3-1.3,0.8-1.7c0.6-0.4,1.4-0.6,2.6-0.6l1.3,0v-0.4c0-0.5-0.1-0.8-0.3-1
					c-0.2-0.2-0.6-0.3-1-0.3c-0.4,0-0.7,0.1-1.1,0.2c-0.3,0.1-0.7,0.2-1,0.4l-0.5-1.1c0.4-0.2,0.8-0.4,1.3-0.5
					c0.5-0.1,0.9-0.2,1.3-0.2c0.9,0,1.6,0.2,2.1,0.6c0.5,0.4,0.7,1,0.7,1.9v4.9H268.9z M266.6,95.2c0.6,0,1-0.2,1.4-0.5
					c0.3-0.3,0.5-0.8,0.5-1.3v-0.6l-0.9,0c-0.7,0-1.3,0.1-1.6,0.4c-0.3,0.2-0.5,0.6-0.5,1c0,0.3,0.1,0.6,0.3,0.8
					C265.9,95.2,266.2,95.2,266.6,95.2z"/>
				<path d="M273.7,96.3h-1.5V86h1.5V96.3z"/>
				<path d="M275.9,87.1c0-0.3,0.1-0.5,0.2-0.6c0.2-0.1,0.4-0.2,0.6-0.2c0.3,0,0.5,0.1,0.6,0.2c0.2,0.1,0.2,0.4,0.2,0.6
					c0,0.3-0.1,0.5-0.2,0.6c-0.2,0.2-0.4,0.2-0.6,0.2c-0.3,0-0.5-0.1-0.6-0.2C275.9,87.5,275.9,87.3,275.9,87.1z M277.5,96.3h-1.5
					V89h1.5V96.3z"/>
				<path d="M284.6,96.3h-5.5v-1l3.7-5.1h-3.5V89h5.2v1.1l-3.6,5h3.7V96.3z"/>
				<path d="M289.4,96.4c-1.1,0-2-0.3-2.7-1c-0.6-0.7-1-1.6-1-2.7c0-1.2,0.3-2.1,0.9-2.8c0.6-0.7,1.4-1,2.4-1c1,0,1.7,0.3,2.3,0.9
					c0.6,0.6,0.8,1.4,0.8,2.4V93h-4.9c0,0.7,0.2,1.3,0.6,1.6c0.4,0.4,0.9,0.6,1.5,0.6c0.4,0,0.8,0,1.2-0.1c0.4-0.1,0.8-0.2,1.2-0.4
					v1.3c-0.4,0.2-0.8,0.3-1.1,0.4C290.3,96.4,289.8,96.4,289.4,96.4z M289.1,90.1c-0.5,0-0.9,0.2-1.2,0.5c-0.3,0.3-0.5,0.8-0.5,1.4
					h3.3c0-0.6-0.2-1.1-0.4-1.4C289.9,90.2,289.6,90.1,289.1,90.1z"/>
				<path d="M303.9,92.6c0,1.2-0.3,2.1-0.9,2.8s-1.5,1-2.6,1c-0.7,0-1.3-0.2-1.8-0.5c-0.5-0.3-0.9-0.7-1.2-1.3s-0.4-1.2-0.4-2
					c0-1.2,0.3-2.1,0.9-2.8s1.5-1,2.6-1c1.1,0,1.9,0.3,2.5,1C303.6,90.6,303.9,91.5,303.9,92.6z M298.6,92.6c0,1.7,0.6,2.5,1.9,2.5
					c1.2,0,1.8-0.8,1.8-2.5c0-1.7-0.6-2.5-1.9-2.5c-0.7,0-1.1,0.2-1.4,0.6C298.8,91.2,298.6,91.8,298.6,92.6z"/>
				<path d="M310.6,94.2c0,0.7-0.3,1.3-0.8,1.6c-0.5,0.4-1.3,0.6-2.2,0.6c-1,0-1.8-0.1-2.3-0.4v-1.3c0.9,0.4,1.7,0.6,2.4,0.6
					c1,0,1.4-0.3,1.4-0.9c0-0.2-0.1-0.3-0.2-0.5c-0.1-0.1-0.3-0.3-0.5-0.4c-0.2-0.1-0.6-0.3-1-0.4c-0.8-0.3-1.4-0.7-1.7-1
					c-0.3-0.3-0.4-0.7-0.4-1.3c0-0.6,0.3-1.1,0.8-1.5c0.5-0.3,1.2-0.5,2.1-0.5c0.9,0,1.7,0.2,2.4,0.5l-0.5,1.2
					c-0.8-0.3-1.4-0.5-2-0.5c-0.8,0-1.2,0.2-1.2,0.7c0,0.2,0.1,0.4,0.3,0.6c0.2,0.2,0.7,0.4,1.4,0.7c0.6,0.2,1,0.4,1.3,0.6
					c0.3,0.2,0.5,0.4,0.6,0.7C310.5,93.6,310.6,93.9,310.6,94.2z"/>
				<path d="M321.9,96.3h-1.6v-4.5c0-0.6-0.1-1-0.3-1.2c-0.2-0.3-0.5-0.4-1-0.4c-0.6,0-1,0.2-1.3,0.6c-0.3,0.4-0.4,1-0.4,1.9v3.6
					h-1.5V89h1.2l0.2,1h0.1c0.2-0.3,0.5-0.6,0.9-0.8c0.4-0.2,0.8-0.3,1.3-0.3c1.1,0,1.9,0.4,2.2,1.1h0.1c0.2-0.4,0.5-0.6,0.9-0.8
					s0.8-0.3,1.3-0.3c0.9,0,1.5,0.2,1.9,0.7c0.4,0.4,0.6,1.1,0.6,2v4.8H325v-4.5c0-0.6-0.1-1-0.3-1.2c-0.2-0.3-0.5-0.4-1-0.4
					c-0.6,0-1,0.2-1.3,0.6c-0.3,0.4-0.4,1-0.4,1.7V96.3z"/>
				<path d="M333.2,96.3l-0.3-1h-0.1c-0.4,0.4-0.7,0.7-1.1,0.9c-0.4,0.2-0.8,0.2-1.4,0.2c-0.7,0-1.3-0.2-1.7-0.6
					c-0.4-0.4-0.6-0.9-0.6-1.6c0-0.8,0.3-1.3,0.8-1.7c0.6-0.4,1.4-0.6,2.6-0.6l1.3,0v-0.4c0-0.5-0.1-0.8-0.3-1
					c-0.2-0.2-0.6-0.3-1-0.3c-0.4,0-0.7,0.1-1.1,0.2c-0.3,0.1-0.7,0.2-1,0.4l-0.5-1.1c0.4-0.2,0.8-0.4,1.3-0.5
					c0.5-0.1,0.9-0.2,1.3-0.2c0.9,0,1.6,0.2,2.1,0.6c0.5,0.4,0.7,1,0.7,1.9v4.9H333.2z M330.9,95.2c0.6,0,1-0.2,1.4-0.5
					c0.3-0.3,0.5-0.8,0.5-1.3v-0.6l-0.9,0c-0.7,0-1.3,0.1-1.6,0.4c-0.3,0.2-0.5,0.6-0.5,1c0,0.3,0.1,0.6,0.3,0.8
					C330.3,95.2,330.6,95.2,330.9,95.2z"/>
				<path d="M336.4,87.1c0-0.3,0.1-0.5,0.2-0.6c0.2-0.1,0.4-0.2,0.6-0.2c0.3,0,0.5,0.1,0.6,0.2c0.2,0.1,0.2,0.4,0.2,0.6
					c0,0.3-0.1,0.5-0.2,0.6c-0.2,0.2-0.4,0.2-0.6,0.2c-0.3,0-0.5-0.1-0.6-0.2C336.5,87.5,336.4,87.3,336.4,87.1z M338.1,96.3h-1.5
					V89h1.5V96.3z"/>
				<path d="M345.2,94.2c0,0.7-0.3,1.3-0.8,1.6c-0.5,0.4-1.3,0.6-2.2,0.6c-1,0-1.8-0.1-2.3-0.4v-1.3c0.9,0.4,1.7,0.6,2.4,0.6
					c1,0,1.4-0.3,1.4-0.9c0-0.2-0.1-0.3-0.2-0.5c-0.1-0.1-0.3-0.3-0.5-0.4c-0.2-0.1-0.6-0.3-1-0.4c-0.8-0.3-1.4-0.7-1.7-1
					c-0.3-0.3-0.4-0.7-0.4-1.3c0-0.6,0.3-1.1,0.8-1.5c0.5-0.3,1.2-0.5,2.1-0.5c0.9,0,1.7,0.2,2.4,0.5l-0.5,1.2
					c-0.8-0.3-1.4-0.5-2-0.5c-0.8,0-1.2,0.2-1.2,0.7c0,0.2,0.1,0.4,0.3,0.6c0.2,0.2,0.7,0.4,1.4,0.7c0.6,0.2,1,0.4,1.3,0.6
					s0.5,0.4,0.6,0.7C345.1,93.6,345.2,93.9,345.2,94.2z"/>
				<path d="M352,96.3l-2.8-7.3h1.6l1.5,4.2c0.3,0.7,0.4,1.3,0.5,1.7h0.1c0-0.3,0.2-0.9,0.5-1.7l1.5-4.2h1.6l-2.8,7.3H352z"/>
				<path d="M362.1,96.3l-0.3-1h-0.1c-0.4,0.4-0.7,0.7-1.1,0.9c-0.4,0.2-0.8,0.2-1.4,0.2c-0.7,0-1.3-0.2-1.7-0.6s-0.6-0.9-0.6-1.6
					c0-0.8,0.3-1.3,0.8-1.7c0.6-0.4,1.4-0.6,2.6-0.6l1.3,0v-0.4c0-0.5-0.1-0.8-0.3-1c-0.2-0.2-0.6-0.3-1-0.3c-0.4,0-0.7,0.1-1.1,0.2
					c-0.3,0.1-0.7,0.2-1,0.4l-0.5-1.1c0.4-0.2,0.8-0.4,1.3-0.5c0.5-0.1,0.9-0.2,1.3-0.2c0.9,0,1.6,0.2,2.1,0.6
					c0.5,0.4,0.7,1,0.7,1.9v4.9H362.1z M359.8,95.2c0.6,0,1-0.2,1.4-0.5c0.3-0.3,0.5-0.8,0.5-1.3v-0.6l-0.9,0
					c-0.7,0-1.3,0.1-1.6,0.4c-0.3,0.2-0.5,0.6-0.5,1c0,0.3,0.1,0.6,0.3,0.8C359.2,95.2,359.4,95.2,359.8,95.2z"/>
				<path d="M369.1,88.9c0.3,0,0.6,0,0.8,0.1l-0.2,1.4c-0.2-0.1-0.4-0.1-0.7-0.1c-0.6,0-1.1,0.2-1.5,0.6c-0.4,0.4-0.6,0.9-0.6,1.6
					v3.8h-1.5V89h1.2l0.2,1.3h0.1c0.2-0.4,0.6-0.8,0.9-1S368.7,88.9,369.1,88.9z"/>
				<path d="M371.1,87.1c0-0.3,0.1-0.5,0.2-0.6c0.2-0.1,0.4-0.2,0.6-0.2c0.3,0,0.5,0.1,0.6,0.2c0.2,0.1,0.2,0.4,0.2,0.6
					c0,0.3-0.1,0.5-0.2,0.6c-0.2,0.2-0.4,0.2-0.6,0.2c-0.3,0-0.5-0.1-0.6-0.2C371.2,87.5,371.1,87.3,371.1,87.1z M372.8,96.3h-1.5
					V89h1.5V96.3z"/>
				<path d="M379.6,96.3l-0.3-1h-0.1c-0.4,0.4-0.7,0.7-1.1,0.9c-0.4,0.2-0.8,0.2-1.4,0.2c-0.7,0-1.3-0.2-1.7-0.6s-0.6-0.9-0.6-1.6
					c0-0.8,0.3-1.3,0.8-1.7c0.6-0.4,1.4-0.6,2.6-0.6l1.3,0v-0.4c0-0.5-0.1-0.8-0.3-1c-0.2-0.2-0.6-0.3-1-0.3c-0.4,0-0.7,0.1-1.1,0.2
					c-0.3,0.1-0.7,0.2-1,0.4l-0.5-1.1c0.4-0.2,0.8-0.4,1.3-0.5c0.5-0.1,0.9-0.2,1.3-0.2c0.9,0,1.6,0.2,2.1,0.6
					c0.5,0.4,0.7,1,0.7,1.9v4.9H379.6z M377.3,95.2c0.6,0,1-0.2,1.4-0.5c0.3-0.3,0.5-0.8,0.5-1.3v-0.6l-0.9,0
					c-0.7,0-1.3,0.1-1.6,0.4c-0.3,0.2-0.5,0.6-0.5,1c0,0.3,0.1,0.6,0.3,0.8C376.6,95.2,376.9,95.2,377.3,95.2z"/>
				<path d="M385.3,96.4c-0.9,0-1.6-0.3-2.1-1c-0.5-0.7-0.8-1.6-0.8-2.8c0-1.2,0.3-2.1,0.8-2.8c0.5-0.7,1.2-1,2.1-1
					c1,0,1.7,0.4,2.2,1.1h0.1c-0.1-0.5-0.1-0.9-0.1-1.2V86h1.6v10.3h-1.2l-0.3-1h-0.1C387,96.1,386.2,96.4,385.3,96.4z M385.7,95.2
					c0.6,0,1.1-0.2,1.4-0.5c0.3-0.4,0.4-0.9,0.4-1.7v-0.2c0-0.9-0.1-1.6-0.4-2s-0.8-0.6-1.4-0.6c-0.5,0-1,0.2-1.3,0.7
					c-0.3,0.4-0.4,1.1-0.4,1.9c0,0.8,0.1,1.4,0.4,1.8C384.7,95,385.1,95.2,385.7,95.2z"/>
				<path d="M397.7,92.6c0,1.2-0.3,2.1-0.9,2.8c-0.6,0.7-1.5,1-2.6,1c-0.7,0-1.3-0.2-1.8-0.5c-0.5-0.3-0.9-0.7-1.2-1.3
					s-0.4-1.2-0.4-2c0-1.2,0.3-2.1,0.9-2.8s1.5-1,2.6-1c1.1,0,1.9,0.3,2.5,1C397.4,90.6,397.7,91.5,397.7,92.6z M392.4,92.6
					c0,1.7,0.6,2.5,1.9,2.5c1.2,0,1.8-0.8,1.8-2.5c0-1.7-0.6-2.5-1.9-2.5c-0.7,0-1.1,0.2-1.4,0.6S392.4,91.8,392.4,92.6z"/>
				<path d="M404.4,94.2c0,0.7-0.3,1.3-0.8,1.6c-0.5,0.4-1.3,0.6-2.2,0.6c-1,0-1.8-0.1-2.3-0.4v-1.3c0.9,0.4,1.7,0.6,2.4,0.6
					c1,0,1.4-0.3,1.4-0.9c0-0.2-0.1-0.3-0.2-0.5c-0.1-0.1-0.3-0.3-0.5-0.4c-0.2-0.1-0.6-0.3-1-0.4c-0.8-0.3-1.4-0.7-1.7-1
					s-0.4-0.7-0.4-1.3c0-0.6,0.3-1.1,0.8-1.5c0.5-0.3,1.2-0.5,2.1-0.5c0.9,0,1.7,0.2,2.4,0.5l-0.5,1.2c-0.8-0.3-1.4-0.5-2-0.5
					c-0.8,0-1.2,0.2-1.2,0.7c0,0.2,0.1,0.4,0.3,0.6s0.7,0.4,1.4,0.7c0.6,0.2,1,0.4,1.3,0.6s0.5,0.4,0.6,0.7
					C404.3,93.6,404.4,93.9,404.4,94.2z"/>
				<path d="M412.5,96.4c-1.1,0-1.9-0.3-2.5-1c-0.6-0.6-0.9-1.6-0.9-2.8c0-1.2,0.3-2.2,0.9-2.8s1.5-1,2.6-1c0.8,0,1.5,0.1,2.1,0.4
					l-0.5,1.2c-0.7-0.3-1.2-0.4-1.6-0.4c-1.3,0-1.9,0.8-1.9,2.5c0,0.8,0.2,1.4,0.5,1.8c0.3,0.4,0.8,0.6,1.4,0.6c0.7,0,1.3-0.2,2-0.5
					V96c-0.3,0.2-0.6,0.3-0.9,0.3C413.3,96.4,413,96.4,412.5,96.4z"/>
				<path d="M422.7,92.6c0,1.2-0.3,2.1-0.9,2.8c-0.6,0.7-1.5,1-2.6,1c-0.7,0-1.3-0.2-1.8-0.5c-0.5-0.3-0.9-0.7-1.2-1.3
					s-0.4-1.2-0.4-2c0-1.2,0.3-2.1,0.9-2.8s1.5-1,2.6-1c1.1,0,1.9,0.3,2.5,1C422.4,90.6,422.7,91.5,422.7,92.6z M417.4,92.6
					c0,1.7,0.6,2.5,1.9,2.5c1.2,0,1.8-0.8,1.8-2.5c0-1.7-0.6-2.5-1.9-2.5c-0.7,0-1.1,0.2-1.4,0.6S417.4,91.8,417.4,92.6z"/>
				<path d="M430.9,96.3h-1.6v-4.5c0-0.6-0.1-1-0.3-1.3c-0.2-0.3-0.6-0.4-1.1-0.4c-0.7,0-1.1,0.2-1.4,0.6s-0.5,1-0.5,1.9v3.6h-1.5
					V89h1.2l0.2,1h0.1c0.2-0.3,0.5-0.6,0.9-0.8s0.9-0.3,1.3-0.3c1.7,0,2.6,0.9,2.6,2.7V96.3z"/>
				<path d="M438,94.2c0,0.7-0.3,1.3-0.8,1.6c-0.5,0.4-1.3,0.6-2.2,0.6c-1,0-1.8-0.1-2.3-0.4v-1.3c0.9,0.4,1.7,0.6,2.4,0.6
					c1,0,1.4-0.3,1.4-0.9c0-0.2-0.1-0.3-0.2-0.5c-0.1-0.1-0.3-0.3-0.5-0.4c-0.2-0.1-0.6-0.3-1-0.4c-0.8-0.3-1.4-0.7-1.7-1
					s-0.4-0.7-0.4-1.3c0-0.6,0.3-1.1,0.8-1.5c0.5-0.3,1.2-0.5,2.1-0.5c0.9,0,1.7,0.2,2.4,0.5l-0.5,1.2c-0.8-0.3-1.4-0.5-2-0.5
					c-0.8,0-1.2,0.2-1.2,0.7c0,0.2,0.1,0.4,0.3,0.6s0.7,0.4,1.4,0.7c0.6,0.2,1,0.4,1.3,0.6s0.5,0.4,0.6,0.7
					C437.9,93.6,438,93.9,438,94.2z"/>
				<path d="M444.8,96.3l-0.2-1h-0.1c-0.2,0.3-0.5,0.6-0.9,0.8c-0.4,0.2-0.9,0.3-1.4,0.3c-0.9,0-1.5-0.2-2-0.7
					c-0.4-0.4-0.7-1.1-0.7-2V89h1.6v4.5c0,0.6,0.1,1,0.3,1.3c0.2,0.3,0.6,0.4,1.1,0.4c0.6,0,1.1-0.2,1.4-0.6c0.3-0.4,0.5-1,0.5-2V89
					h1.6v7.3H444.8z"/>
				<path d="M449.8,96.3h-1.5V86h1.5V96.3z"/>
				<path d="M454.7,95.2c0.4,0,0.8-0.1,1.1-0.2v1.2c-0.2,0.1-0.4,0.1-0.7,0.2c-0.3,0.1-0.6,0.1-0.8,0.1c-1.5,0-2.2-0.8-2.2-2.3v-3.9
					h-1v-0.7l1.1-0.6l0.5-1.5h1V89h2.1v1.2h-2.1v3.9c0,0.4,0.1,0.6,0.3,0.8C454.1,95.1,454.4,95.2,454.7,95.2z"/>
				<path d="M463.7,92.6c0,1.2-0.3,2.1-0.9,2.8c-0.6,0.7-1.5,1-2.6,1c-0.7,0-1.3-0.2-1.8-0.5c-0.5-0.3-0.9-0.7-1.2-1.3
					s-0.4-1.2-0.4-2c0-1.2,0.3-2.1,0.9-2.8s1.5-1,2.6-1c1.1,0,1.9,0.3,2.5,1C463.4,90.6,463.7,91.5,463.7,92.6z M458.4,92.6
					c0,1.7,0.6,2.5,1.9,2.5c1.2,0,1.8-0.8,1.8-2.5c0-1.7-0.6-2.5-1.9-2.5c-0.7,0-1.1,0.2-1.4,0.6S458.4,91.8,458.4,92.6z
					 M459.3,88.1V88c0.3-0.3,0.5-0.7,0.8-1s0.5-0.7,0.6-1h1.8v0.1c-0.2,0.3-0.6,0.6-1,1c-0.5,0.4-0.8,0.8-1.2,1H459.3z"/>
				<path d="M469.2,88.9c0.3,0,0.6,0,0.8,0.1l-0.2,1.4c-0.2-0.1-0.4-0.1-0.7-0.1c-0.6,0-1.1,0.2-1.5,0.6c-0.4,0.4-0.6,0.9-0.6,1.6
					v3.8h-1.5V89h1.2l0.2,1.3h0.1c0.2-0.4,0.6-0.8,0.9-1S468.8,88.9,469.2,88.9z"/>
				<path d="M471.3,87.1c0-0.3,0.1-0.5,0.2-0.6c0.2-0.1,0.4-0.2,0.6-0.2c0.3,0,0.5,0.1,0.6,0.2c0.2,0.1,0.2,0.4,0.2,0.6
					c0,0.3-0.1,0.5-0.2,0.6c-0.2,0.2-0.4,0.2-0.6,0.2c-0.3,0-0.5-0.1-0.6-0.2C471.3,87.5,471.3,87.3,471.3,87.1z M472.9,96.3h-1.5
					V89h1.5V96.3z"/>
				<path d="M481.6,92.6c0,1.2-0.3,2.1-0.9,2.8c-0.6,0.7-1.5,1-2.6,1c-0.7,0-1.3-0.2-1.8-0.5c-0.5-0.3-0.9-0.7-1.2-1.3
					s-0.4-1.2-0.4-2c0-1.2,0.3-2.1,0.9-2.8s1.5-1,2.6-1c1.1,0,1.9,0.3,2.5,1C481.3,90.6,481.6,91.5,481.6,92.6z M476.3,92.6
					c0,1.7,0.6,2.5,1.9,2.5c1.2,0,1.8-0.8,1.8-2.5c0-1.7-0.6-2.5-1.9-2.5c-0.7,0-1.1,0.2-1.4,0.6S476.3,91.8,476.3,92.6z"/>
				<path d="M488.3,94.2c0,0.7-0.3,1.3-0.8,1.6c-0.5,0.4-1.3,0.6-2.2,0.6c-1,0-1.8-0.1-2.3-0.4v-1.3c0.9,0.4,1.7,0.6,2.4,0.6
					c1,0,1.4-0.3,1.4-0.9c0-0.2-0.1-0.3-0.2-0.5c-0.1-0.1-0.3-0.3-0.5-0.4c-0.2-0.1-0.6-0.3-1-0.4c-0.8-0.3-1.4-0.7-1.7-1
					s-0.4-0.7-0.4-1.3c0-0.6,0.3-1.1,0.8-1.5c0.5-0.3,1.2-0.5,2.1-0.5c0.9,0,1.7,0.2,2.4,0.5l-0.5,1.2c-0.8-0.3-1.4-0.5-2-0.5
					c-0.8,0-1.2,0.2-1.2,0.7c0,0.2,0.1,0.4,0.3,0.6s0.7,0.4,1.4,0.7c0.6,0.2,1,0.4,1.3,0.6s0.5,0.4,0.6,0.7
					C488.2,93.6,488.3,93.9,488.3,94.2z"/>
				<path d="M248.5,112.5H247V108c0-0.6-0.1-1-0.3-1.3c-0.2-0.3-0.6-0.4-1.1-0.4c-0.7,0-1.1,0.2-1.4,0.6s-0.5,1-0.5,1.9v3.6h-1.5
					v-7.3h1.2l0.2,1h0.1c0.2-0.3,0.5-0.6,0.9-0.8c0.4-0.2,0.9-0.3,1.3-0.3c1.7,0,2.6,0.9,2.6,2.7V112.5z"/>
				<path d="M255.2,112.5l-0.3-1h-0.1c-0.4,0.4-0.7,0.7-1.1,0.9c-0.4,0.2-0.8,0.2-1.4,0.2c-0.7,0-1.3-0.2-1.7-0.6
					c-0.4-0.4-0.6-0.9-0.6-1.6c0-0.8,0.3-1.3,0.8-1.7c0.6-0.4,1.4-0.6,2.6-0.6l1.3,0v-0.4c0-0.5-0.1-0.8-0.3-1
					c-0.2-0.2-0.6-0.3-1-0.3c-0.4,0-0.7,0.1-1.1,0.2c-0.3,0.1-0.7,0.2-1,0.4l-0.5-1.1c0.4-0.2,0.8-0.4,1.3-0.5s0.9-0.2,1.3-0.2
					c0.9,0,1.6,0.2,2.1,0.6c0.5,0.4,0.7,1,0.7,1.9v4.9H255.2z M252.9,111.4c0.6,0,1-0.2,1.4-0.5c0.3-0.3,0.5-0.8,0.5-1.3V109l-0.9,0
					c-0.7,0-1.3,0.1-1.6,0.4c-0.3,0.2-0.5,0.6-0.5,1c0,0.3,0.1,0.6,0.3,0.8C252.3,111.4,252.5,111.4,252.9,111.4z"/>
				<path d="M263.4,110.4c0,0.7-0.3,1.3-0.8,1.6c-0.5,0.4-1.3,0.6-2.2,0.6c-1,0-1.8-0.1-2.3-0.4v-1.3c0.9,0.4,1.7,0.6,2.4,0.6
					c1,0,1.4-0.3,1.4-0.9c0-0.2-0.1-0.3-0.2-0.5s-0.3-0.3-0.5-0.4c-0.2-0.1-0.6-0.3-1-0.4c-0.8-0.3-1.4-0.7-1.7-1
					c-0.3-0.3-0.4-0.7-0.4-1.3c0-0.6,0.3-1.1,0.8-1.5c0.5-0.3,1.2-0.5,2.1-0.5c0.9,0,1.7,0.2,2.4,0.5l-0.5,1.2
					c-0.8-0.3-1.4-0.5-2-0.5c-0.8,0-1.2,0.2-1.2,0.7c0,0.2,0.1,0.4,0.3,0.6c0.2,0.2,0.7,0.4,1.4,0.7c0.6,0.2,1,0.4,1.3,0.6
					c0.3,0.2,0.5,0.4,0.6,0.7C263.3,109.8,263.4,110.1,263.4,110.4z"/>
				<path d="M272.3,112.6c-0.9,0-1.6-0.3-2.1-1H270c0.1,0.6,0.1,1,0.1,1.1v3h-1.5v-10.5h1.3c0,0.1,0.1,0.5,0.2,1h0.1
					c0.5-0.7,1.2-1.1,2.2-1.1c0.9,0,1.6,0.3,2.1,1c0.5,0.7,0.8,1.6,0.8,2.8c0,1.2-0.3,2.1-0.8,2.8
					C273.9,112.3,273.2,112.6,272.3,112.6z M271.9,106.3c-0.6,0-1.1,0.2-1.3,0.5c-0.3,0.4-0.4,0.9-0.4,1.7v0.2
					c0,0.9,0.1,1.5,0.4,1.9s0.7,0.6,1.4,0.6c0.5,0,0.9-0.2,1.2-0.7s0.4-1.1,0.4-1.9c0-0.8-0.1-1.4-0.4-1.9
					C272.9,106.6,272.5,106.3,271.9,106.3z"/>
				<path d="M280.7,105.1c0.3,0,0.6,0,0.8,0.1l-0.2,1.4c-0.2-0.1-0.4-0.1-0.7-0.1c-0.6,0-1.1,0.2-1.5,0.6c-0.4,0.4-0.6,0.9-0.6,1.6
					v3.8H277v-7.3h1.2l0.2,1.3h0.1c0.2-0.4,0.6-0.8,0.9-1C279.8,105.2,280.2,105.1,280.7,105.1z"/>
				<path d="M289.3,108.8c0,1.2-0.3,2.1-0.9,2.8s-1.5,1-2.6,1c-0.7,0-1.3-0.2-1.8-0.5c-0.5-0.3-0.9-0.7-1.2-1.3
					c-0.3-0.6-0.4-1.2-0.4-2c0-1.2,0.3-2.1,0.9-2.8c0.6-0.7,1.5-1,2.6-1c1.1,0,1.9,0.3,2.5,1C289,106.8,289.3,107.7,289.3,108.8z
					 M284,108.8c0,1.7,0.6,2.5,1.9,2.5c1.2,0,1.8-0.8,1.8-2.5c0-1.7-0.6-2.5-1.9-2.5c-0.7,0-1.1,0.2-1.4,0.6
					C284.1,107.4,284,108,284,108.8z"/>
				<path d="M292.7,108.8l-2.4-3.6h1.8l1.7,2.6l1.7-2.6h1.8l-2.5,3.6l2.6,3.7h-1.8l-1.8-2.7l-1.8,2.7h-1.8L292.7,108.8z"/>
				<path d="M298.4,103.3c0-0.3,0.1-0.5,0.2-0.6c0.2-0.1,0.4-0.2,0.6-0.2c0.3,0,0.5,0.1,0.6,0.2c0.2,0.1,0.2,0.4,0.2,0.6
					c0,0.3-0.1,0.5-0.2,0.6c-0.2,0.2-0.4,0.2-0.6,0.2c-0.3,0-0.5-0.1-0.6-0.2C298.5,103.7,298.4,103.5,298.4,103.3z M300,112.5h-1.5
					v-7.3h1.5V112.5z"/>
				<path d="M308.4,112.5h-1.6V108c0-0.6-0.1-1-0.3-1.2c-0.2-0.3-0.5-0.4-1-0.4c-0.6,0-1,0.2-1.3,0.6c-0.3,0.4-0.4,1-0.4,1.9v3.6
					h-1.5v-7.3h1.2l0.2,1h0.1c0.2-0.3,0.5-0.6,0.9-0.8c0.4-0.2,0.8-0.3,1.3-0.3c1.1,0,1.9,0.4,2.2,1.1h0.1c0.2-0.4,0.5-0.6,0.9-0.8
					s0.8-0.3,1.3-0.3c0.9,0,1.5,0.2,1.9,0.7c0.4,0.4,0.6,1.1,0.6,2v4.8h-1.5V108c0-0.6-0.1-1-0.3-1.2c-0.2-0.3-0.5-0.4-1-0.4
					c-0.6,0-1,0.2-1.3,0.6c-0.3,0.4-0.4,1-0.4,1.7V112.5z"/>
				<path d="M315.1,103.3c0-0.3,0.1-0.5,0.2-0.6c0.2-0.1,0.4-0.2,0.6-0.2c0.3,0,0.5,0.1,0.6,0.2c0.2,0.1,0.2,0.4,0.2,0.6
					c0,0.3-0.1,0.5-0.2,0.6c-0.2,0.2-0.4,0.2-0.6,0.2c-0.3,0-0.5-0.1-0.6-0.2C315.2,103.7,315.1,103.5,315.1,103.3z M316.7,112.5
					h-1.5v-7.3h1.5V112.5z"/>
				<path d="M321.4,112.6c-0.9,0-1.6-0.3-2.1-1c-0.5-0.7-0.8-1.6-0.8-2.8c0-1.2,0.3-2.1,0.8-2.8c0.5-0.7,1.2-1,2.1-1
					c1,0,1.7,0.4,2.2,1.1h0.1c-0.1-0.5-0.1-0.9-0.1-1.2v-2.7h1.6v10.3h-1.2l-0.3-1h-0.1C323.1,112.3,322.4,112.6,321.4,112.6z
					 M321.8,111.4c0.6,0,1.1-0.2,1.4-0.5c0.3-0.4,0.4-0.9,0.4-1.7v-0.2c0-0.9-0.1-1.6-0.4-2s-0.8-0.6-1.4-0.6c-0.5,0-1,0.2-1.3,0.7
					s-0.4,1.1-0.4,1.9c0,0.8,0.1,1.4,0.4,1.8C320.8,111.2,321.2,111.4,321.8,111.4z"/>
				<path d="M331.9,112.5l-0.3-1h-0.1c-0.4,0.4-0.7,0.7-1.1,0.9c-0.4,0.2-0.8,0.2-1.4,0.2c-0.7,0-1.3-0.2-1.7-0.6
					c-0.4-0.4-0.6-0.9-0.6-1.6c0-0.8,0.3-1.3,0.8-1.7c0.6-0.4,1.4-0.6,2.6-0.6l1.3,0v-0.4c0-0.5-0.1-0.8-0.3-1
					c-0.2-0.2-0.6-0.3-1-0.3c-0.4,0-0.7,0.1-1.1,0.2c-0.3,0.1-0.7,0.2-1,0.4l-0.5-1.1c0.4-0.2,0.8-0.4,1.3-0.5s0.9-0.2,1.3-0.2
					c0.9,0,1.6,0.2,2.1,0.6c0.5,0.4,0.7,1,0.7,1.9v4.9H331.9z M329.6,111.4c0.6,0,1-0.2,1.4-0.5c0.3-0.3,0.5-0.8,0.5-1.3V109l-0.9,0
					c-0.7,0-1.3,0.1-1.6,0.4c-0.3,0.2-0.5,0.6-0.5,1c0,0.3,0.1,0.6,0.3,0.8C328.9,111.4,329.2,111.4,329.6,111.4z"/>
				<path d="M337.6,112.6c-0.9,0-1.6-0.3-2.1-1c-0.5-0.7-0.8-1.6-0.8-2.8c0-1.2,0.3-2.1,0.8-2.8c0.5-0.7,1.2-1,2.1-1
					c1,0,1.7,0.4,2.2,1.1h0.1c-0.1-0.5-0.1-0.9-0.1-1.2v-2.7h1.6v10.3h-1.2l-0.3-1h-0.1C339.3,112.3,338.6,112.6,337.6,112.6z
					 M338.1,111.4c0.6,0,1.1-0.2,1.4-0.5c0.3-0.4,0.4-0.9,0.4-1.7v-0.2c0-0.9-0.1-1.6-0.4-2s-0.8-0.6-1.4-0.6c-0.5,0-1,0.2-1.3,0.7
					s-0.4,1.1-0.4,1.9c0,0.8,0.1,1.4,0.4,1.8C337.1,111.2,337.5,111.4,338.1,111.4z"/>
				<path d="M346.8,112.6c-1.1,0-2-0.3-2.7-1c-0.6-0.7-1-1.6-1-2.7c0-1.2,0.3-2.1,0.9-2.8c0.6-0.7,1.4-1,2.4-1c1,0,1.7,0.3,2.3,0.9
					c0.6,0.6,0.8,1.4,0.8,2.4v0.8h-4.9c0,0.7,0.2,1.3,0.6,1.6c0.4,0.4,0.9,0.6,1.5,0.6c0.4,0,0.8,0,1.2-0.1c0.4-0.1,0.8-0.2,1.2-0.4
					v1.3c-0.4,0.2-0.8,0.3-1.1,0.4C347.7,112.6,347.3,112.6,346.8,112.6z M346.5,106.3c-0.5,0-0.9,0.2-1.2,0.5
					c-0.3,0.3-0.5,0.8-0.5,1.4h3.3c0-0.6-0.2-1.1-0.4-1.4S347,106.3,346.5,106.3z"/>
				<path d="M356.3,110.4c0,0.7-0.3,1.3-0.8,1.6s-1.3,0.6-2.2,0.6c-1,0-1.8-0.1-2.3-0.4v-1.3c0.9,0.4,1.7,0.6,2.4,0.6
					c1,0,1.4-0.3,1.4-0.9c0-0.2-0.1-0.3-0.2-0.5s-0.3-0.3-0.5-0.4c-0.2-0.1-0.6-0.3-1-0.4c-0.8-0.3-1.4-0.7-1.7-1s-0.4-0.7-0.4-1.3
					c0-0.6,0.3-1.1,0.8-1.5c0.5-0.3,1.2-0.5,2.1-0.5c0.9,0,1.7,0.2,2.4,0.5l-0.5,1.2c-0.8-0.3-1.4-0.5-2-0.5c-0.8,0-1.2,0.2-1.2,0.7
					c0,0.2,0.1,0.4,0.3,0.6s0.7,0.4,1.4,0.7c0.6,0.2,1,0.4,1.3,0.6c0.3,0.2,0.5,0.4,0.6,0.7C356.2,109.8,356.3,110.1,356.3,110.4z"
					/>
				<path d="M363.9,112.6c-0.9,0-1.6-0.3-2.1-1c-0.5-0.7-0.8-1.6-0.8-2.8c0-1.2,0.3-2.1,0.8-2.8c0.5-0.7,1.2-1,2.1-1
					c1,0,1.7,0.4,2.2,1.1h0.1c-0.1-0.5-0.1-0.9-0.1-1.2v-2.7h1.6v10.3h-1.2l-0.3-1h-0.1C365.6,112.3,364.9,112.6,363.9,112.6z
					 M364.3,111.4c0.6,0,1.1-0.2,1.4-0.5c0.3-0.4,0.4-0.9,0.4-1.7v-0.2c0-0.9-0.1-1.6-0.4-2s-0.8-0.6-1.4-0.6c-0.5,0-1,0.2-1.3,0.7
					c-0.3,0.4-0.4,1.1-0.4,1.9c0,0.8,0.1,1.4,0.4,1.8C363.3,111.2,363.7,111.4,364.3,111.4z"/>
				<path d="M374.4,112.5l-0.3-1h-0.1c-0.4,0.4-0.7,0.7-1.1,0.9c-0.4,0.2-0.8,0.2-1.4,0.2c-0.7,0-1.3-0.2-1.7-0.6s-0.6-0.9-0.6-1.6
					c0-0.8,0.3-1.3,0.8-1.7c0.6-0.4,1.4-0.6,2.6-0.6l1.3,0v-0.4c0-0.5-0.1-0.8-0.3-1s-0.6-0.3-1-0.3c-0.4,0-0.7,0.1-1.1,0.2
					c-0.3,0.1-0.7,0.2-1,0.4l-0.5-1.1c0.4-0.2,0.8-0.4,1.3-0.5c0.5-0.1,0.9-0.2,1.3-0.2c0.9,0,1.6,0.2,2.1,0.6
					c0.5,0.4,0.7,1,0.7,1.9v4.9H374.4z M372.1,111.4c0.6,0,1-0.2,1.4-0.5c0.3-0.3,0.5-0.8,0.5-1.3V109l-0.9,0
					c-0.7,0-1.3,0.1-1.6,0.4s-0.5,0.6-0.5,1c0,0.3,0.1,0.6,0.3,0.8C371.4,111.4,371.7,111.4,372.1,111.4z"/>
				<path d="M386.1,110.4c0,0.7-0.3,1.3-0.8,1.6s-1.3,0.6-2.2,0.6c-1,0-1.8-0.1-2.3-0.4v-1.3c0.9,0.4,1.7,0.6,2.4,0.6
					c1,0,1.4-0.3,1.4-0.9c0-0.2-0.1-0.3-0.2-0.5s-0.3-0.3-0.5-0.4c-0.2-0.1-0.6-0.3-1-0.4c-0.8-0.3-1.4-0.7-1.7-1s-0.4-0.7-0.4-1.3
					c0-0.6,0.3-1.1,0.8-1.5c0.5-0.3,1.2-0.5,2.1-0.5c0.9,0,1.7,0.2,2.4,0.5l-0.5,1.2c-0.8-0.3-1.4-0.5-2-0.5c-0.8,0-1.2,0.2-1.2,0.7
					c0,0.2,0.1,0.4,0.3,0.6s0.7,0.4,1.4,0.7c0.6,0.2,1,0.4,1.3,0.6c0.3,0.2,0.5,0.4,0.6,0.7C386,109.8,386.1,110.1,386.1,110.4z"/>
				<path d="M392.9,112.5l-0.2-1h-0.1c-0.2,0.3-0.5,0.6-0.9,0.8c-0.4,0.2-0.9,0.3-1.4,0.3c-0.9,0-1.5-0.2-2-0.7
					c-0.4-0.4-0.7-1.1-0.7-2v-4.8h1.6v4.5c0,0.6,0.1,1,0.3,1.3s0.6,0.4,1.1,0.4c0.6,0,1.1-0.2,1.4-0.6c0.3-0.4,0.5-1,0.5-2v-3.6h1.6
					v7.3H392.9z"/>
				<path d="M400.9,112.5l-0.3-1h-0.1c-0.4,0.4-0.7,0.7-1.1,0.9c-0.4,0.2-0.8,0.2-1.4,0.2c-0.7,0-1.3-0.2-1.7-0.6s-0.6-0.9-0.6-1.6
					c0-0.8,0.3-1.3,0.8-1.7c0.6-0.4,1.4-0.6,2.6-0.6l1.3,0v-0.4c0-0.5-0.1-0.8-0.3-1s-0.6-0.3-1-0.3c-0.4,0-0.7,0.1-1.1,0.2
					c-0.3,0.1-0.7,0.2-1,0.4l-0.5-1.1c0.4-0.2,0.8-0.4,1.3-0.5c0.5-0.1,0.9-0.2,1.3-0.2c0.9,0,1.6,0.2,2.1,0.6
					c0.5,0.4,0.7,1,0.7,1.9v4.9H400.9z M398.6,111.4c0.6,0,1-0.2,1.4-0.5c0.3-0.3,0.5-0.8,0.5-1.3V109l-0.9,0
					c-0.7,0-1.3,0.1-1.6,0.4s-0.5,0.6-0.5,1c0,0.3,0.1,0.6,0.3,0.8C397.9,111.4,398.2,111.4,398.6,111.4z"/>
				<path d="M410.6,112.6c-1.1,0-1.9-0.3-2.5-1c-0.6-0.6-0.9-1.6-0.9-2.8c0-1.2,0.3-2.2,0.9-2.8s1.5-1,2.6-1c0.8,0,1.5,0.1,2.1,0.4
					l-0.5,1.2c-0.7-0.3-1.2-0.4-1.6-0.4c-1.3,0-1.9,0.8-1.9,2.5c0,0.8,0.2,1.4,0.5,1.8c0.3,0.4,0.8,0.6,1.4,0.6c0.7,0,1.3-0.2,2-0.5
					v1.4c-0.3,0.2-0.6,0.3-0.9,0.3C411.4,112.6,411.1,112.6,410.6,112.6z"/>
				<path d="M418.9,112.5l-0.3-1h-0.1c-0.4,0.4-0.7,0.7-1.1,0.9c-0.4,0.2-0.8,0.2-1.4,0.2c-0.7,0-1.3-0.2-1.7-0.6s-0.6-0.9-0.6-1.6
					c0-0.8,0.3-1.3,0.8-1.7c0.6-0.4,1.4-0.6,2.6-0.6l1.3,0v-0.4c0-0.5-0.1-0.8-0.3-1s-0.6-0.3-1-0.3c-0.4,0-0.7,0.1-1.1,0.2
					c-0.3,0.1-0.7,0.2-1,0.4l-0.5-1.1c0.4-0.2,0.8-0.4,1.3-0.5c0.5-0.1,0.9-0.2,1.3-0.2c0.9,0,1.6,0.2,2.1,0.6
					c0.5,0.4,0.7,1,0.7,1.9v4.9H418.9z M416.6,111.4c0.6,0,1-0.2,1.4-0.5c0.3-0.3,0.5-0.8,0.5-1.3V109l-0.9,0
					c-0.7,0-1.3,0.1-1.6,0.4s-0.5,0.6-0.5,1c0,0.3,0.1,0.6,0.3,0.8C415.9,111.4,416.2,111.4,416.6,111.4z"/>
				<path d="M427.1,110.4c0,0.7-0.3,1.3-0.8,1.6s-1.3,0.6-2.2,0.6c-1,0-1.8-0.1-2.3-0.4v-1.3c0.9,0.4,1.7,0.6,2.4,0.6
					c1,0,1.4-0.3,1.4-0.9c0-0.2-0.1-0.3-0.2-0.5s-0.3-0.3-0.5-0.4c-0.2-0.1-0.6-0.3-1-0.4c-0.8-0.3-1.4-0.7-1.7-1s-0.4-0.7-0.4-1.3
					c0-0.6,0.3-1.1,0.8-1.5c0.5-0.3,1.2-0.5,2.1-0.5c0.9,0,1.7,0.2,2.4,0.5l-0.5,1.2c-0.8-0.3-1.4-0.5-2-0.5c-0.8,0-1.2,0.2-1.2,0.7
					c0,0.2,0.1,0.4,0.3,0.6s0.7,0.4,1.4,0.7c0.6,0.2,1,0.4,1.3,0.6c0.3,0.2,0.5,0.4,0.6,0.7C427,109.8,427.1,110.1,427.1,110.4z"/>
				<path d="M433.3,112.5l-0.3-1H433c-0.4,0.4-0.7,0.7-1.1,0.9c-0.4,0.2-0.8,0.2-1.4,0.2c-0.7,0-1.3-0.2-1.7-0.6s-0.6-0.9-0.6-1.6
					c0-0.8,0.3-1.3,0.8-1.7c0.6-0.4,1.4-0.6,2.6-0.6l1.3,0v-0.4c0-0.5-0.1-0.8-0.3-1s-0.6-0.3-1-0.3c-0.4,0-0.7,0.1-1.1,0.2
					c-0.3,0.1-0.7,0.2-1,0.4l-0.5-1.1c0.4-0.2,0.8-0.4,1.3-0.5c0.5-0.1,0.9-0.2,1.3-0.2c0.9,0,1.6,0.2,2.1,0.6
					c0.5,0.4,0.7,1,0.7,1.9v4.9H433.3z M431,111.4c0.6,0,1-0.2,1.4-0.5c0.3-0.3,0.5-0.8,0.5-1.3V109l-0.9,0c-0.7,0-1.3,0.1-1.6,0.4
					s-0.5,0.6-0.5,1c0,0.3,0.1,0.6,0.3,0.8C430.3,111.4,430.6,111.4,431,111.4z"/>
				<path d="M436.4,111.7c0-0.3,0.1-0.6,0.3-0.7c0.2-0.2,0.4-0.3,0.7-0.3c0.3,0,0.6,0.1,0.7,0.3c0.2,0.2,0.3,0.4,0.3,0.7
					c0,0.3-0.1,0.6-0.3,0.7c-0.2,0.2-0.4,0.3-0.7,0.3s-0.6-0.1-0.7-0.3S436.4,112,436.4,111.7z"/>
			</g>
			<g>
				<path class="st2" d="M330.6,63.3h-4.1V52H315v11.3h-4.1v-25h4.1v10.2h11.5V38.3h4.1V63.3z"/>
				<path class="st2" d="M353.6,53.8c0,3.1-0.8,5.5-2.4,7.2c-1.6,1.7-3.8,2.6-6.6,2.6c-1.8,0-3.3-0.4-4.7-1.2
					c-1.4-0.8-2.4-1.9-3.1-3.4c-0.7-1.5-1.1-3.2-1.1-5.2c0-3.1,0.8-5.5,2.4-7.2c1.6-1.7,3.8-2.6,6.6-2.6c2.7,0,4.9,0.9,6.5,2.6
					C352.8,48.4,353.6,50.8,353.6,53.8z M339.8,53.8c0,4.4,1.6,6.5,4.8,6.5c3.2,0,4.8-2.2,4.8-6.5c0-4.3-1.6-6.5-4.8-6.5
					c-1.7,0-2.9,0.6-3.7,1.7C340.2,50.1,339.8,51.7,339.8,53.8z"/>
				<path class="st2" d="M370.9,57.9c0,1.8-0.7,3.3-2,4.2c-1.3,1-3.3,1.5-5.8,1.5c-2.5,0-4.5-0.4-6.1-1.1V59c2.2,1,4.3,1.5,6.2,1.5
					c2.5,0,3.7-0.7,3.7-2.2c0-0.5-0.1-0.9-0.4-1.2c-0.3-0.3-0.7-0.6-1.3-1c-0.6-0.3-1.5-0.7-2.6-1.2c-2.2-0.8-3.6-1.7-4.4-2.5
					c-0.8-0.8-1.2-1.9-1.2-3.3c0-1.6,0.7-2.9,2-3.8s3.1-1.3,5.3-1.3c2.2,0,4.3,0.5,6.3,1.4l-1.3,3c-2-0.8-3.8-1.3-5.1-1.3
					c-2.1,0-3.2,0.6-3.2,1.8c0,0.6,0.3,1.1,0.8,1.5s1.8,1,3.6,1.7c1.6,0.6,2.7,1.2,3.4,1.7c0.7,0.5,1.2,1.1,1.6,1.7
					C370.7,56.2,370.9,57,370.9,57.9z"/>
				<path class="st2" d="M384.8,63.6c-2.4,0-4.3-0.9-5.6-2.6H379c0.2,1.6,0.2,2.6,0.2,2.9v7.7h-4V44.4h3.2c0.1,0.4,0.3,1.2,0.6,2.5
					h0.2c1.3-1.9,3.1-2.9,5.6-2.9c2.4,0,4.2,0.9,5.5,2.6c1.3,1.7,2,4.1,2,7.2c0,3.1-0.7,5.5-2,7.2C389,62.8,387.2,63.6,384.8,63.6z
					 M383.8,47.3c-1.6,0-2.8,0.5-3.5,1.4c-0.7,0.9-1.1,2.4-1.1,4.5v0.6c0,2.3,0.4,4,1.1,5c0.7,1,1.9,1.5,3.6,1.5
					c1.4,0,2.5-0.6,3.2-1.7c0.8-1.1,1.1-2.8,1.1-4.9c0-2.1-0.4-3.7-1.1-4.8C386.4,47.9,385.3,47.3,383.8,47.3z"/>
				<path class="st2" d="M396.8,39.4c0-0.7,0.2-1.3,0.6-1.7c0.4-0.4,1-0.6,1.7-0.6c0.7,0,1.3,0.2,1.6,0.6c0.4,0.4,0.6,0.9,0.6,1.7
					c0,0.7-0.2,1.2-0.6,1.6c-0.4,0.4-0.9,0.6-1.6,0.6c-0.7,0-1.3-0.2-1.7-0.6C397,40.6,396.8,40.1,396.8,39.4z M401,63.3h-4V44.4h4
					V63.3z"/>
				<path class="st2" d="M413.8,60.4c1,0,2-0.2,2.9-0.5v3c-0.4,0.2-1,0.4-1.7,0.5c-0.7,0.1-1.4,0.2-2.2,0.2c-3.8,0-5.7-2-5.7-6V47.4
					h-2.6v-1.8l2.8-1.5l1.4-4h2.5v4.2h5.4v3h-5.4v10.1c0,1,0.2,1.7,0.7,2.1C412.4,60.2,413,60.4,413.8,60.4z"/>
				<path class="st2" d="M432.4,63.3l-0.8-2.6h-0.1c-0.9,1.2-1.8,1.9-2.8,2.3c-0.9,0.4-2.1,0.6-3.6,0.6c-1.9,0-3.3-0.5-4.3-1.5
					c-1-1-1.6-2.4-1.6-4.3c0-1.9,0.7-3.4,2.2-4.4c1.4-1,3.7-1.5,6.6-1.6l3.3-0.1v-1c0-1.2-0.3-2.1-0.8-2.7c-0.6-0.6-1.4-0.9-2.6-0.9
					c-1,0-1.9,0.1-2.8,0.4c-0.9,0.3-1.7,0.6-2.6,1l-1.3-2.9c1-0.5,2.1-0.9,3.4-1.2c1.2-0.3,2.4-0.4,3.5-0.4c2.4,0,4.2,0.5,5.4,1.6
					c1.2,1,1.8,2.7,1.8,4.9v12.7H432.4z M426.4,60.6c1.5,0,2.6-0.4,3.5-1.2s1.3-2,1.3-3.4v-1.6l-2.4,0.1c-1.9,0.1-3.3,0.4-4.1,0.9
					c-0.9,0.6-1.3,1.4-1.3,2.6c0,0.8,0.3,1.5,0.8,2C424.6,60.3,425.4,60.6,426.4,60.6z"/>
				<path class="st2" d="M444.9,63.3h-4V36.7h4V63.3z"/>
			</g>
			<g>
				<path class="st2" d="M517.6,125.5c-3,0-5.4,2.4-5.4,5.5c0,3,2.4,5.4,5.4,5.4c3,0,5.5-2.4,5.5-5.4
					C523.1,127.9,520.6,125.5,517.6,125.5z M517.6,133.1c-1.2,0-2.2-1-2.2-2.2c0-1.2,1-2.2,2.2-2.2c1.2,0,2.2,1,2.2,2.2
					C519.8,132.1,518.8,133.1,517.6,133.1z"/>
				<path class="st2" d="M537.1,125.5c-3,0-5.5,2.4-5.5,5.5c0,3,2.4,5.4,5.5,5.4c3,0,5.5-2.4,5.5-5.4
					C542.5,127.9,540.1,125.5,537.1,125.5z M537.1,133.1c-1.2,0-2.2-1-2.2-2.2c0-1.2,1-2.2,2.2-2.2c1.2,0,2.2,1,2.2,2.2
					C539.3,132.1,538.3,133.1,537.1,133.1z"/>
				<path class="st2" d="M550.4,126.5h-0.7v-2.4c0.4-0.3,0.7-0.9,0.7-1.6c0-0.7-0.3-1.3-0.7-1.6c0,0,0,0,0,0c0-0.3-0.1-0.5-0.1-0.8
					c-0.1-0.5-0.3-0.9-0.5-1.3l-5.7-12c-0.2-0.5-0.6-0.9-1-1.2c-0.5-0.3-1-0.4-1.5-0.4h-2.2v-0.4c0-0.7-0.3-1.4-0.8-1.9
					c-0.5-0.5-1.2-0.8-1.9-0.8h-1.5c-0.7,0-1.4,0.3-1.9,0.8c-0.5,0.5-0.8,1.2-0.8,1.9v0.4h-27.3v21.3h-1c-0.6,0-1.1,0.5-1.1,1.1v2.3
					c0,0.6,0.5,1.1,1.1,1.1h1h3.9h3.1c0-3.4,2.8-6.2,6.2-6.2c3.4,0,6.2,2.8,6.2,6.2h7c0-3.4,2.8-6.2,6.2-6.2c3.4,0,6.2,2.8,6.2,6.2
					h2.3h4.1h0.7c0.6,0,1.1-0.5,1.1-1.1v-2.3C551.5,127,551,126.5,550.4,126.5z M523.5,117.8h-3.6v3.6h-4.6v-3.6h-3.6v-4.6h3.6v-3.6
					h4.6v3.6h3.6V117.8z M534.2,119.6c-0.3,0-0.6-0.1-0.8-0.3c-0.2-0.2-0.3-0.5-0.3-0.8v-8.9c0-0.2,0.1-0.5,0.3-0.7
					c0.2-0.2,0.4-0.3,0.7-0.3h5.5c0.4,0,0.8,0.1,1.2,0.3c0.4,0.2,0.6,0.6,0.8,0.9l3.3,7.7c0.2,0.4,0.2,0.9-0.1,1.3
					c-0.3,0.4-0.7,0.6-1.2,0.6H534.2z"/>
			</g>
		</g>
	</g>
</g>
<g>
	<path class="st8" d="M191.6,100.7c-1,0.3-2.2,0.5-3.1,0.6c0.2,0.4,0.4,0.9,0.4,1.3c0.4,1.7,0.3,3.1-0.6,4.3c-1.3,1.8-4.7,3.1-7.5,4
		l-1.5,0.4c1,0.3,2.8,0.9,4.1,1.9c2.8-1,5.8-2.4,7.3-4.6c1.4-2,1.7-4.3,1-6.8C191.8,101.5,191.7,101,191.6,100.7z"/>
	<g>
		<g>
			<path class="st9" d="M180.4,62.9c0-0.1,0-0.3,0-0.4c0-1.8-1.5-3.3-3.3-3.3c-1.8,0-3.3,1.5-3.3,3.3c0,0.1,0,0.3,0,0.4l2.7,73.3
				c0,0.7,1.1,0.7,1.1,0L180.4,62.9z"/>
			<path class="st8" d="M188.4,82.5c-0.6-0.8-1.5-1.5-2.9-1.7c-3-0.4-5.1,1-6.1,1.4c-1.1,0.4,0,1.6,0.4,1.8c0.4,0.2,3.3,1.6,4.8,2.3
				c1.1,0.4,2.7,0.5,3.7-0.4c2.9,1.6,6.2,4.2,5.3,7.6c-0.3,1.3-1,2.2-2.2,2.8c-2.7,1.5-7.6,0.9-10.9,0.2l-2-0.5
				c-0.1,0-0.3-0.1-0.4-0.1c0,0,0,0,0,0l0,0c-2.4-0.6-7.6-1.6-11.5,0.5c-2.1,1.1-3.6,3-4.2,5.6c-0.7,2.5-0.3,4.8,1,6.8
				c1.7,2.4,5.6,4.1,8.6,5c-2.9,1.7-4.8,4.9-4.8,8.5c0,5.5,4.4,9.9,9.9,9.9c5.5,0,9.9-4.4,9.9-9.9c0-4.8-3.4-8.8-8-9.7
				c-0.7-0.3-1.5-0.5-2-0.6l0,0c0,0,0,0,0,0l-3.6-0.9c-2.7-0.8-6.2-2.2-7.5-4c-0.9-1.2-1-2.7-0.6-4.3c0.4-1.7,1.3-2.9,2.7-3.7
				c2.3-1.2,5.2-1,7.8-0.5c2.7,0.4,11.3,3.9,17,0.6c1.8-1.1,3.1-2.6,3.6-4.7C198.1,88.2,192.2,84.4,188.4,82.5z M177.1,115.5
				c0.1,0,0.3,0,0.4,0c0,0,0.1,0,0.1,0c0.1,0,0.1,0,0.2,0c0.1,0,0.2,0,0.3,0c0,0,0,0,0,0c0.2,0,0.4,0.1,0.5,0.1c0,0,0,0,0,0
				c2.1,0.5,3.8,2,4.5,4c0,0,0,0,0,0c0,0,0,0.1,0,0.1c0,0.1,0,0.1,0.1,0.2c0,0,0,0,0,0.1c0.2,0.7,0.3,1.4,0.3,2.1
				c0,3.6-2.9,6.6-6.6,6.6c-3.6,0-6.6-2.9-6.6-6.6C170.5,118.5,173.5,115.5,177.1,115.5z"/>
			<path class="st9" d="M175.9,118l0.7,18.2c0,0.7,1.1,0.7,1.1,0l0.7-18.2H175.9z"/>
			<g>
				<path class="st9" d="M177.2,57.9c-0.7,0-1.4-0.2-2-0.4c0.5,0.6,1.2,0.9,2,0.9c0.8,0,1.5-0.4,2-0.9
					C178.6,57.7,177.9,57.9,177.2,57.9z"/>
				<circle class="st9" cx="177.2" cy="53.3" r="4.2"/>
			</g>
			<g>
				<g>
					<g>
						<path class="st9" d="M173.2,72.6c-0.5,0.1-1.1,0.3-1.6,0.4c-3.3,0.8-6.8,1.3-10.4,1c-1.3-0.1-2.6-0.3-3.9-0.6
							c0.9,1.3,2.7,2.2,4.7,2.9c2.4,0.8,5,1.2,7.5,0.9c1.3-0.1,2.6-0.4,3.8-0.7L173.2,72.6z"/>
						<path class="st9" d="M173,67.5c-1.8,0.2-3.5,0.5-5.3,0.7c-3.8,0.5-7.7,0.8-11.7,0.4c-3.4-0.3-6.7-1.2-9.7-2.6
							c0.1,0.8,0.6,1.5,1.4,2.2c1,0.9,2.5,1.6,4,2.2c2.9,1.3,6.2,2.3,9.5,2.6c3.4,0.3,6.7-0.1,10-0.8c0.6-0.1,1.3-0.3,1.9-0.4
							L173,67.5z"/>
						<path class="st9" d="M172.8,63.2c-2.6,0-5.3,0.1-8,0.1c-4.3,0-8.6-0.2-12.8-1c-3.8-0.7-7.6-1.8-10.7-3.7
							c-0.1,1,0.1,1.9,0.8,2.8c0.8,1.2,2.2,2.1,3.8,2.9c3,1.8,6.6,2.9,10.3,3.3c3.8,0.4,7.6,0.2,11.3-0.2c1.8-0.2,3.6-0.4,5.4-0.6
							L172.8,63.2z"/>
						<path class="st9" d="M172.7,59.4c-3-0.4-6.1-0.6-9.2-1c-4.4-0.5-8.8-1.2-13.1-2.3c-4.3-1.1-8.6-2.6-11.9-5.2
							c-0.3-0.2-0.6-0.5-0.8-0.7c-0.5,1-0.4,2.2,0.2,3.2c0.9,1.4,2,2.6,3.5,3.7c2.9,2.2,6.9,3.5,10.9,4.3c4.1,0.8,8.3,1.1,12.5,1.2
							c2.7,0.1,5.3,0,8,0.1L172.7,59.4z"/>
					</g>
					<path class="st9" d="M168.9,55.9c-6.8-1.3-13.4-3-19.7-5.4c-4.2-1.7-8.5-3.7-11.4-6.9c-0.1-0.2-0.3-0.4-0.4-0.5
						c-1,0.9-1.4,1.9-0.8,3.1c0.6,1.5,1.6,2.9,3,4.1c2.9,2.4,6.9,3.9,11.1,5c4.2,1.1,8.5,1.8,12.9,2.4c2.5,0.4,6.4,0.9,9,1.2
						C170.6,57.9,169.5,56.9,168.9,55.9z"/>
				</g>
				<g>
					<g>
						<path class="st9" d="M181.1,72.6c0.5,0.1,1.1,0.3,1.6,0.4c3.3,0.8,6.8,1.3,10.4,1c1.3-0.1,2.6-0.3,3.9-0.6
							c-0.9,1.3-2.7,2.2-4.7,2.9c-2.4,0.8-5,1.2-7.5,0.9c-1.3-0.1-2.6-0.4-3.8-0.7L181.1,72.6z"/>
						<path class="st9" d="M181.3,67.5c1.8,0.2,3.5,0.5,5.3,0.7c3.8,0.5,7.7,0.8,11.7,0.4c3.4-0.3,6.7-1.2,9.7-2.6
							c-0.1,0.8-0.6,1.5-1.4,2.2c-1,0.9-2.5,1.6-4,2.2c-2.9,1.3-6.2,2.3-9.5,2.6c-3.4,0.3-6.7-0.1-10-0.8c-0.6-0.1-1.3-0.3-1.9-0.4
							L181.3,67.5z"/>
						<path class="st9" d="M181.5,63.2c2.6,0,5.3,0.1,8,0.1c4.3,0,8.6-0.2,12.8-1c3.8-0.7,7.6-1.8,10.7-3.7c0.1,1-0.1,1.9-0.8,2.8
							c-0.8,1.2-2.2,2.1-3.8,2.9c-3,1.8-6.6,2.9-10.3,3.3c-3.8,0.4-7.6,0.2-11.3-0.2c-1.8-0.2-3.6-0.4-5.4-0.6L181.5,63.2z"/>
						<path class="st9" d="M181.6,59.4c3-0.4,6.1-0.6,9.2-1c4.4-0.5,8.8-1.2,13.1-2.3c4.3-1.1,8.6-2.6,11.9-5.2
							c0.3-0.2,0.6-0.5,0.8-0.7c0.5,1,0.4,2.2-0.2,3.2c-0.9,1.4-2,2.6-3.5,3.7c-2.9,2.2-6.9,3.5-10.9,4.3c-4.1,0.8-8.3,1.1-12.5,1.2
							c-2.7,0.1-5.3,0-8,0.1L181.6,59.4z"/>
					</g>
					<path class="st9" d="M185.4,55.9c6.8-1.3,13.4-3,19.7-5.4c4.2-1.7,8.5-3.7,11.4-6.9c0.1-0.2,0.3-0.4,0.4-0.5
						c1,0.9,1.4,1.9,0.8,3.1c-0.6,1.5-1.6,2.9-3,4.1c-2.9,2.4-6.9,3.9-11.1,5c-4.2,1.1-8.5,1.8-12.9,2.4c-2.5,0.4-6.4,0.9-9,1.2
						C183.7,57.9,184.8,56.9,185.4,55.9z"/>
				</g>
			</g>
		</g>
		<path class="st8" d="M174.9,82.2c-1.1-0.4-3.2-1.8-6.1-1.4c-1.4,0.2-2.3,1-2.9,1.7c-3.8,1.8-9.7,5.7-8.1,11.6
			c0.5,2.1,1.8,3.6,3.6,4.7c0.3,0.2,0.5,0.3,0.8,0.4c0.6-1.3,1.4-2.1,2-2.5c-0.5-0.1-0.9-0.3-1.3-0.5c-1.1-0.6-1.8-1.5-2.2-2.8
			c-0.9-3.4,2.4-6,5.3-7.6c1,0.9,2.6,0.8,3.7,0.4c1.5-0.6,4.4-2.1,4.8-2.3C174.9,83.9,176,82.6,174.9,82.2z"/>
	</g>
</g>
</svg>
