<?xml version="1.0" encoding="utf-8"?>
<!-- Generator: Adobe Illustrator 19.0.0, SVG Export Plug-In . SVG Version: 6.00 Build 0)  -->
<svg version="1.1" id="Camada_1" xmlns="http://www.w3.org/2000/svg" xmlns:xlink="http://www.w3.org/1999/xlink" x="0px" y="0px"
	 viewBox="175 -50 450 200" style="enable-background:new 175 -50 450 200;" xml:space="preserve">
<style type="text/css">
	.st0{opacity:0.42;fill:#AEC2D1;enable-background:new    ;}
	.st1{fill:#87059E;}
	.st2{fill:#FFFFFF;}
	.st3{fill:url(#XMLID_2_);}
	.st4{fill:#EFEFEF;}
	.st5{fill:#AD0DC2;}
	.st6{fill:#E46101;}
	.st7{fill:url(#XMLID_3_);}
	.st8{enable-background:new    ;}
	.st9{font-family:'MyriadPro-Regular';}
	.st10{font-size:12px;}
	.st11{font-family:'Exo-Regular';}
	.st12{font-size:16.0298px;}
	.st13{fill:#FFFFFF;stroke:#FF00DF;stroke-width:0.5;stroke-miterlimit:10;}
</style>
<g id="XMLID_15_">
	<path id="XMLID_22_" class="st0" d="M593.3,35.8l-4.7-6l0,0l-8.8-11.2C575.3,12.8,569,9,562,7.6V7.2c0-10.8-8.8-19.6-19.6-19.6
		h-209h-18.8h-2.5c-5.8,0-10.5,4.7-10.5,10.5V7H296h-9.1l0,0c-0.1-10.7-8.8-19.4-19.5-19.4h-64.6c-10.8,0-19.5,8.8-19.5,19.6v51.3
		c0,23.4,19,42.4,42.4,42.4H264l0,0h65.4h9.1h213c7.5,9.2,18.9,15.1,31.7,15.1c22.5,0,40.8-18.2,40.8-40.8
		C623.9,56.2,610.9,40.3,593.3,35.8z"/>
	<g id="XMLID_23_">
		<path id="XMLID_21_" class="st1" d="M327.9-18h-23.8c-4.4,0-8,3.6-8,8v30.6h31.8V-18z"/>
		<path id="XMLID_20_" class="st2" d="M594.2,57.3l-20,26.1c-5.7,7.5-14.6,11.8-24,11.8H258.4c-23.4,0-42.4-19-42.4-42.4V1.4h334.5
			c9.3,0,18,4.3,23.7,11.6l19.9,25.3C598.4,43.8,598.5,51.7,594.2,57.3z"/>
		<linearGradient id="XMLID_2_" gradientUnits="userSpaceOnUse" x1="186.1047" y1="-14.792" x2="305.0617" y2="112.7737">
			<stop  offset="0" style="stop-color:#CE24D1"/>
			<stop  offset="0.4121" style="stop-color:#A509D5"/>
			<stop  offset="0.4731" style="stop-color:#9E05D6"/>
			<stop  offset="0.6288" style="stop-color:#8804C0"/>
			<stop  offset="0.9527" style="stop-color:#510386"/>
			<stop  offset="1" style="stop-color:#48037D"/>
		</linearGradient>
		<path id="XMLID_19_" class="st3" d="M281.3,52.9V1.6c0-10.8-8.8-19.6-19.6-19.6h-64.5c-10.8,0-19.5,8.8-19.5,19.6v51.3
			c0,23.4,19,42.4,42.4,42.4h103.7C300.3,95.2,281.3,76.3,281.3,52.9z"/>
		<path id="XMLID_18_" class="st4" d="M332.8,95.2h-9.1c-23.4,0-42.4-19-42.4-42.4V1.4h9.1v51.4C290.4,76.3,309.4,95.2,332.8,95.2z"
			/>
		<path id="XMLID_17_" class="st5" d="M326.1,24.9h216.3c7.8,0,14.1-6.3,14.1-14.1V1.5c0-10.8-8.8-19.6-19.6-19.6H309.1
			c4,5.5,6.4,12.2,6.4,19.6v12.8C315.5,20.2,320.2,24.9,326.1,24.9z"/>
		<circle id="XMLID_10_" class="st6" cx="577.5" cy="69.6" r="40.8"/>
		<path id="XMLID_9_" class="st4" d="M534.6,64.2c0,12.4,5.6,23.6,14.4,31h1.2c9.4,0,18.3-4.4,24-11.8l20-26.1
			c4.3-5.6,4.3-13.5-0.1-19L583,24.2c-2.5-0.5-5-0.7-7.6-0.7C552.9,23.4,534.6,41.7,534.6,64.2z"/>
		
			<radialGradient id="XMLID_3_" cx="577.5" cy="30.4" r="40.8" gradientTransform="matrix(1 0 0 -1 0 100)" gradientUnits="userSpaceOnUse">
			<stop  offset="0" style="stop-color:#CE24D1"/>
			<stop  offset="0.2072" style="stop-color:#C61FD2"/>
			<stop  offset="0.521" style="stop-color:#B112D4"/>
			<stop  offset="0.749" style="stop-color:#9E05D6"/>
			<stop  offset="0.7961" style="stop-color:#9905D1"/>
			<stop  offset="0.8538" style="stop-color:#8A05C2"/>
			<stop  offset="0.9169" style="stop-color:#7304A9"/>
			<stop  offset="0.9836" style="stop-color:#510387"/>
			<stop  offset="1" style="stop-color:#48037D"/>
		</radialGradient>
		<circle id="XMLID_7_" class="st7" cx="577.5" cy="69.6" r="40.8"/>
		<path id="XMLID_28_" class="st2" d="M577.5,35.9c-18.6,0-33.7,15.1-33.7,33.7s15.1,33.7,33.7,33.7s33.7-15.1,33.7-33.7
			S596.1,35.9,577.5,35.9z M577.5,99c-16.2,0-29.4-13.2-29.4-29.4s13.2-29.4,29.4-29.4s29.4,13.2,29.4,29.4
			C606.9,85.9,593.7,99,577.5,99z"/>
		<g class="st8">
			<path class="st2" d="M362.6-3.8c-2.1,0-3.8,0.7-5,2.1c-1.2,1.4-1.8,3.4-1.8,5.8c0,2.5,0.6,4.5,1.8,5.9s2.9,2.1,5.1,2.1
				c1.4,0,2.9-0.2,4.6-0.7v2c-1.3,0.5-3,0.8-5,0.8c-2.9,0-5.1-0.9-6.6-2.6c-1.5-1.7-2.3-4.2-2.3-7.4c0-2,0.4-3.7,1.1-5.2
				c0.7-1.5,1.8-2.7,3.2-3.5c1.4-0.8,3.1-1.2,5-1.2c2,0,3.8,0.4,5.3,1.1l-1,1.9C365.5-3.4,364-3.8,362.6-3.8z"/>
			<path class="st2" d="M383.6,6.6c0,2.4-0.6,4.2-1.8,5.5c-1.2,1.3-2.8,2-4.9,2c-1.3,0-2.5-0.3-3.5-0.9c-1-0.6-1.8-1.5-2.3-2.6
				c-0.5-1.1-0.8-2.5-0.8-4c0-2.4,0.6-4.2,1.8-5.5c1.2-1.3,2.8-2,4.9-2c2,0,3.6,0.7,4.8,2C383,2.5,383.6,4.3,383.6,6.6z M372.5,6.6
				c0,1.9,0.4,3.3,1.1,4.2s1.8,1.5,3.3,1.5c1.4,0,2.5-0.5,3.3-1.5c0.7-1,1.1-2.4,1.1-4.2c0-1.8-0.4-3.2-1.1-4.2
				c-0.7-1-1.8-1.4-3.3-1.4c-1.4,0-2.5,0.5-3.3,1.4C372.9,3.3,372.5,4.7,372.5,6.6z"/>
			<path class="st2" d="M397.4,13.9V4.5c0-1.2-0.3-2.1-0.8-2.6s-1.4-0.9-2.5-0.9c-1.5,0-2.6,0.4-3.3,1.2s-1.1,2.2-1.1,4.1v7.6h-2.2
				V-0.7h1.8l0.4,2h0.1c0.5-0.7,1.1-1.3,1.9-1.7c0.8-0.4,1.7-0.6,2.7-0.6c1.7,0,3.1,0.4,3.9,1.3c0.9,0.8,1.3,2.2,1.3,4v9.5H397.4z"
				/>
			<path class="st2" d="M407.3,13.9l-5.5-14.5h2.4l3.1,8.6c0.7,2,1.1,3.3,1.2,3.9h0.1c0.1-0.5,0.4-1.4,0.9-2.9
				c0.5-1.5,1.7-4.7,3.5-9.6h2.4l-5.5,14.5H407.3z"/>
			<path class="st2" d="M423.8,14.1c-2.1,0-3.8-0.7-5.1-2c-1.2-1.3-1.9-3.1-1.9-5.4c0-2.3,0.6-4.2,1.7-5.6c1.2-1.4,2.7-2.1,4.6-2.1
				c1.8,0,3.3,0.6,4.3,1.8c1.1,1.2,1.6,2.8,1.6,4.7V7h-10c0,1.7,0.5,3,1.3,3.9c0.8,0.9,2,1.3,3.5,1.3c1.6,0,3.1-0.3,4.6-1v2
				c-0.8,0.3-1.5,0.6-2.2,0.7C425.6,14.1,424.8,14.1,423.8,14.1z M423.2,0.9c-1.2,0-2.1,0.4-2.8,1.1c-0.7,0.8-1.1,1.8-1.2,3.2h7.6
				c0-1.4-0.3-2.4-0.9-3.2S424.4,0.9,423.2,0.9z"/>
			<path class="st2" d="M442.8,13.9V4.5c0-1.2-0.3-2.1-0.8-2.6s-1.4-0.9-2.5-0.9c-1.5,0-2.6,0.4-3.3,1.2c-0.7,0.8-1.1,2.2-1.1,4.1
				v7.6h-2.2V-0.7h1.8l0.4,2h0.1c0.5-0.7,1.1-1.3,1.9-1.7c0.8-0.4,1.7-0.6,2.7-0.6c1.7,0,3.1,0.4,3.9,1.3c0.9,0.8,1.3,2.2,1.3,4v9.5
				H442.8z"/>
			<path class="st2" d="M449.4-4.6c0-0.5,0.1-0.9,0.4-1.1c0.2-0.2,0.6-0.4,0.9-0.4c0.4,0,0.7,0.1,0.9,0.4s0.4,0.6,0.4,1.1
				c0,0.5-0.1,0.9-0.4,1.1s-0.6,0.4-0.9,0.4c-0.4,0-0.7-0.1-0.9-0.4S449.4-4.1,449.4-4.6z M451.8,13.9h-2.2V-0.7h2.2V13.9z"/>
			<path class="st2" d="M462.5,14.1c-2.1,0-3.8-0.7-5.1-2c-1.2-1.3-1.9-3.1-1.9-5.4c0-2.3,0.6-4.2,1.7-5.6c1.2-1.4,2.7-2.1,4.6-2.1
				c1.8,0,3.3,0.6,4.3,1.8c1.1,1.2,1.6,2.8,1.6,4.7V7h-10c0,1.7,0.5,3,1.3,3.9c0.8,0.9,2,1.3,3.5,1.3c1.6,0,3.1-0.3,4.6-1v2
				c-0.8,0.3-1.5,0.6-2.2,0.7C464.4,14.1,463.5,14.1,462.5,14.1z M457.5-2.9c1.1-1.2,1.9-2.1,2.4-2.6c0.5-0.6,0.8-1,1-1.4h2.2
				c0.2,0.4,0.5,0.9,1,1.4s1.3,1.5,2.4,2.6v0.3h-1.6c-0.8-0.5-1.8-1.3-2.9-2.5c-1.2,1.2-2.2,2-2.9,2.5h-1.5V-2.9z M462,0.9
				c-1.2,0-2.1,0.4-2.8,1.1c-0.7,0.8-1.1,1.8-1.2,3.2h7.6c0-1.4-0.3-2.4-0.9-3.2S463.1,0.9,462,0.9z"/>
			<path class="st2" d="M481.6,13.9V4.5c0-1.2-0.3-2.1-0.8-2.6s-1.4-0.9-2.5-0.9c-1.5,0-2.6,0.4-3.3,1.2c-0.7,0.8-1.1,2.2-1.1,4.1
				v7.6h-2.2V-0.7h1.8l0.4,2h0.1c0.5-0.7,1.1-1.3,1.9-1.7c0.8-0.4,1.7-0.6,2.7-0.6c1.7,0,3.1,0.4,3.9,1.3c0.9,0.8,1.3,2.2,1.3,4v9.5
				H481.6z"/>
			<path class="st2" d="M494.1,14.1c-2.1,0-3.7-0.6-4.9-1.9c-1.2-1.3-1.7-3.1-1.7-5.5c0-2.4,0.6-4.3,1.8-5.6s2.8-2,5-2
				c0.7,0,1.4,0.1,2.1,0.2s1.2,0.3,1.6,0.5l-0.7,1.9c-0.5-0.2-1-0.4-1.6-0.5c-0.6-0.1-1.1-0.2-1.5-0.2c-2.9,0-4.4,1.9-4.4,5.6
				c0,1.8,0.4,3.2,1.1,4.1c0.7,1,1.8,1.4,3.2,1.4c1.2,0,2.5-0.3,3.7-0.8v1.9C496.8,13.9,495.6,14.1,494.1,14.1z"/>
			<path class="st2" d="M501-4.6c0-0.5,0.1-0.9,0.4-1.1c0.2-0.2,0.6-0.4,0.9-0.4c0.4,0,0.7,0.1,0.9,0.4s0.4,0.6,0.4,1.1
				c0,0.5-0.1,0.9-0.4,1.1s-0.6,0.4-0.9,0.4c-0.4,0-0.7-0.1-0.9-0.4S501-4.1,501-4.6z M503.4,13.9h-2.2V-0.7h2.2V13.9z"/>
			<path class="st2" d="M517,13.9l-0.4-2.1h-0.1c-0.7,0.9-1.4,1.5-2.2,1.8s-1.6,0.5-2.7,0.5c-1.4,0-2.6-0.4-3.4-1.1
				c-0.8-0.7-1.2-1.8-1.2-3.2c0-2.9,2.3-4.5,7-4.6l2.5-0.1V4.3c0-1.1-0.2-2-0.7-2.5s-1.3-0.8-2.4-0.8c-1.2,0-2.6,0.4-4.1,1.1
				l-0.7-1.7c0.7-0.4,1.5-0.7,2.4-0.9c0.9-0.2,1.7-0.3,2.6-0.3c1.7,0,3,0.4,3.8,1.2c0.8,0.8,1.3,2,1.3,3.7v9.9H517z M512,12.3
				c1.4,0,2.4-0.4,3.2-1.1c0.8-0.8,1.2-1.8,1.2-3.2V6.7l-2.2,0.1c-1.7,0.1-3,0.3-3.8,0.8c-0.8,0.5-1.2,1.2-1.2,2.2
				c0,0.8,0.2,1.4,0.7,1.8S511.2,12.3,512,12.3z"/>
		</g>
		<text transform="matrix(1 0 0 1 296.1002 44.6574)" class="st9 st10">Lorem ipsum dolor sit amet, consectetur elit. </text>
		<text transform="matrix(1 0 0 1 296.1002 59.0574)" class="st9 st10">Ab atque autem cum, dicta explicabo id, illum </text>
		<text transform="matrix(1 0 0 1 296.1002 73.4574)" class="st9 st10">ipsam modi mollitia quidem quis reiciendis rem.</text>
		<g>
			<g>
				<path class="st2" d="M593.1,81.5c-3.5,4.7-9,7.8-15.3,7.8c-10.5,0-19-8.5-19-19s8.5-19,19-19c6.3,0,11.8,3.1,15.3,7.8h5.4
					c-4-7.4-11.8-12.3-20.8-12.3c-13,0-23.6,10.6-23.6,23.6S564.7,94,577.7,94c9,0,16.8-5,20.8-12.3h-5.4V81.5z"/>
				<g>
					<g>
						<g>
							<path class="st2" d="M577.8,71.8c-0.5,0-1-0.2-1.3-0.7l-6.7-9.9c-0.5-0.7-0.3-1.7,0.4-2.2s1.7-0.3,2.2,0.4l6.7,9.9
								c0.5,0.7,0.3,1.7-0.4,2.2C578.4,71.7,578.1,71.8,577.8,71.8z"/>
						</g>
					</g>
				</g>
				<g>
					<g>
						<g>
							<path class="st2" d="M568.4,82.2c-0.2,0-0.3-0.1-0.5-0.2c-0.3-0.3-0.4-0.7-0.1-1.1l12.5-15.1c0.3-0.3,0.7-0.4,1.1-0.1
								c0.3,0.3,0.4,0.7,0.1,1.1L569,81.9C568.8,82.1,568.6,82.2,568.4,82.2z"/>
						</g>
					</g>
				</g>
				<g>
					<text transform="matrix(1 0 0 1 586.2459 75.7462)" class="st2 st11 st12">24</text>
				</g>
				<circle class="st2" cx="577.8" cy="70.2" r="3.2"/>
			</g>
		</g>
	</g>
</g>
<g>
	<g>
		<path class="st13" d="M202.5,33.9v34.9h9.8V42.6h13.6v26.2h37.5V33.9H202.5z M254.1,55.7h-15.5V42.6h15.5V55.7z"/>
		<polygon class="st13" points="253.4,12.9 253.4,3.7 246.6,3.7 246.6,8.2 233,-1.2 202.5,19.9 202.5,29.7 263.4,29.7 263.4,19.9 		
			"/>
	</g>
	<rect x="198.4" y="72.8" class="st13" width="69.2" height="5.7"/>
</g>
</svg>
