<?xml version="1.0" encoding="utf-8"?>
<!-- Generator: Adobe Illustrator 19.0.0, SVG Export Plug-In . SVG Version: 6.00 Build 0)  -->
<svg version="1.1" id="Camada_1" xmlns="http://www.w3.org/2000/svg" xmlns:xlink="http://www.w3.org/1999/xlink" x="0px" y="0px"
	 viewBox="125 0 450 200" style="enable-background:new 125 0 450 200;" xml:space="preserve">
<style type="text/css">
	.st0{opacity:0.42;fill:#AEC2D1;enable-background:new    ;}
	.st1{fill:#653701;}
	.st2{fill:#FFFFFF;}
	.st3{fill:url(#XMLID_2_);}
	.st4{fill:#EFEFEF;}
	.st5{fill:#8D5200;}
	.st6{fill:#E46101;}
	.st7{fill:url(#XMLID_3_);}
	.st8{fill:none;stroke:#FCFCFC;stroke-width:2;stroke-linecap:round;stroke-linejoin:round;stroke-miterlimit:10;}
	.st9{fill:#C46B00;}
	.st10{fill:#4A221A;}
</style>
<g>
	<g id="XMLID_15_">
		<path id="XMLID_22_" class="st0" d="M542.3,86.8l-4.7-6l0,0l-8.8-11.2c-4.5-5.8-10.8-9.6-17.8-11v-0.4c0-10.8-8.8-19.6-19.6-19.6
			h-209h-18.8h-2.5c-5.8,0-10.5,4.7-10.5,10.5V58H245h-9.1l0,0c-0.1-10.7-8.8-19.4-19.5-19.4h-64.6c-10.8,0-19.5,8.8-19.5,19.6v51.3
			c0,23.4,19,42.4,42.4,42.4H213l0,0h65.4h9.1h213c7.5,9.2,18.9,15.1,31.7,15.1c22.5,0,40.8-18.2,40.8-40.8
			C572.9,107.2,559.9,91.3,542.3,86.8z"/>
		<g id="XMLID_23_">
			<path id="XMLID_21_" class="st1" d="M276.9,33h-23.8c-4.4,0-8,3.6-8,8v30.6h31.8V33z"/>
			<path id="XMLID_20_" class="st2" d="M543.2,108.3l-20,26.1c-5.7,7.5-14.6,11.8-24,11.8H207.4c-23.4,0-42.4-19-42.4-42.4V52.4
				h334.5c9.3,0,18,4.3,23.7,11.6l19.9,25.3C547.4,94.8,547.5,102.7,543.2,108.3z"/>
			<linearGradient id="XMLID_2_" gradientUnits="userSpaceOnUse" x1="121.9446" y1="57.794" x2="278.6821" y2="134.24">
				<stop  offset="0" style="stop-color:#944600"/>
				<stop  offset="0.1648" style="stop-color:#8E4300"/>
				<stop  offset="0.3778" style="stop-color:#7E3A00"/>
				<stop  offset="0.6173" style="stop-color:#642B00"/>
				<stop  offset="0.8744" style="stop-color:#3F1600"/>
				<stop  offset="1" style="stop-color:#2A0A00"/>
			</linearGradient>
			<path id="XMLID_19_" class="st3" d="M230.3,103.9V52.6c0-10.8-8.8-19.6-19.6-19.6h-64.5c-10.8,0-19.5,8.8-19.5,19.6v51.3
				c0,23.4,19,42.4,42.4,42.4h103.7C249.3,146.2,230.3,127.3,230.3,103.9z"/>
			<path id="XMLID_18_" class="st4" d="M281.8,146.2h-9.1c-23.4,0-42.4-19-42.4-42.4V52.4h9.1v51.4
				C239.4,127.3,258.4,146.2,281.8,146.2z"/>
			<path id="XMLID_17_" class="st5" d="M275.1,75.9h216.3c7.8,0,14.1-6.3,14.1-14.1v-9.3c0-10.8-8.8-19.6-19.6-19.6H258.1
				c4,5.5,6.4,12.2,6.4,19.6v12.8C264.5,71.2,269.2,75.9,275.1,75.9z"/>
			<circle id="XMLID_10_" class="st6" cx="526.5" cy="120.6" r="40.8"/>
			<path id="XMLID_9_" class="st4" d="M483.6,115.2c0,12.4,5.6,23.6,14.4,31h1.2c9.4,0,18.3-4.4,24-11.8l20-26.1
				c4.3-5.6,4.3-13.5-0.1-19L532,75.2c-2.5-0.5-5-0.7-7.6-0.7C501.9,74.4,483.6,92.7,483.6,115.2z"/>
			<radialGradient id="XMLID_3_" cx="526.5" cy="120.6" r="40.8" gradientUnits="userSpaceOnUse">
				<stop  offset="0" style="stop-color:#944600"/>
				<stop  offset="0.4445" style="stop-color:#924500"/>
				<stop  offset="0.6046" style="stop-color:#8B4100"/>
				<stop  offset="0.7187" style="stop-color:#803A00"/>
				<stop  offset="0.8111" style="stop-color:#6F3100"/>
				<stop  offset="0.89" style="stop-color:#592400"/>
				<stop  offset="0.9588" style="stop-color:#3E1500"/>
				<stop  offset="1" style="stop-color:#2A0A00"/>
			</radialGradient>
			<circle id="XMLID_7_" class="st7" cx="526.5" cy="120.6" r="40.8"/>
			<path id="XMLID_28_" class="st2" d="M526.5,86.9c-18.6,0-33.7,15.1-33.7,33.7s15.1,33.7,33.7,33.7c18.6,0,33.7-15.1,33.7-33.7
				S545.1,86.9,526.5,86.9z M526.5,150c-16.2,0-29.4-13.2-29.4-29.4s13.2-29.4,29.4-29.4c16.2,0,29.4,13.2,29.4,29.4
				C555.9,136.9,542.7,150,526.5,150z"/>
			<g>
				<polyline class="st8" points="542,125 539,141.2 512.5,141.2 509.6,125 				"/>
				<path class="st8" d="M542,124.8c2.8-1.1,5.9-3.8,5.9-7.3c0-4-3.3-7.2-7.4-7.2c-0.1,0-0.1,0-0.2,0c0.1-0.5,0.2-1,0.2-1.5
					c0-3.2-2.6-5.7-5.9-5.7c-1.4,0-2.7,0.5-3.8,1.3c-2.5-2.8-1.3-7.4-1.3-7.4c-5.5,2-8.1,5.4-9.1,7.3c-1-0.8-2.2-1.2-3.6-1.2
					c-3.3,0-5.9,2.5-5.9,5.7c0,0.5,0.1,1,0.2,1.5c-0.1,0-0.1,0-0.2,0c-4.1,0-7.4,3.2-7.4,7.2c0,3.5,2.3,5.8,5.9,7.2
					c8.1,3.3,16.5-1.6,22.6,0.4C536.5,126.6,539.2,125.9,542,124.8z"/>
				<line class="st8" x1="524.3" y1="109.9" x2="527.3" y2="111.5"/>
				<line class="st8" x1="515.1" y1="119.1" x2="518.2" y2="117.6"/>
				<line class="st8" x1="535.7" y1="116" x2="537.2" y2="119.1"/>
			</g>
			<g>
				<path class="st9" d="M257.4,102.8h-6V92.1h6v1.1h-4.7v3.4h4.4v1.1h-4.4v3.9h4.7L257.4,102.8L257.4,102.8z"/>
				<path class="st9" d="M265.1,102.8v-5.2c0-0.7-0.1-1.1-0.4-1.5s-0.8-0.5-1.4-0.5c-0.8,0-1.5,0.2-1.8,0.7s-0.6,1.2-0.6,2.2v4.2
					h-1.2v-8h1l0.2,1.1h0.1c0.2-0.4,0.6-0.7,1-0.9s0.9-0.3,1.5-0.3c1,0,1.7,0.2,2.2,0.7s0.7,1.2,0.7,2.2v5.2h-1.3V102.8z"/>
				<path class="st9" d="M272,102.9c-1.2,0-2.1-0.4-2.7-1.1s-1-1.7-1-3s0.3-2.4,1-3.1s1.6-1.1,2.8-1.1c0.4,0,0.8,0,1.2,0.1
					s0.7,0.2,0.9,0.3l-0.4,1c-0.3-0.1-0.6-0.2-0.9-0.3c-0.3-0.1-0.6-0.1-0.8-0.1c-1.6,0-2.4,1-2.4,3.1c0,1,0.2,1.7,0.6,2.3
					c0.4,0.5,1,0.8,1.8,0.8c0.7,0,1.4-0.1,2.1-0.4v1.1C273.5,102.8,272.9,102.9,272,102.9z"/>
				<path class="st9" d="M282.9,98.8c0,1.3-0.3,2.3-1,3.1c-0.7,0.7-1.6,1.1-2.7,1.1c-0.7,0-1.4-0.2-1.9-0.5s-1-0.8-1.3-1.5
					s-0.5-1.4-0.5-2.2c0-1.3,0.3-2.3,1-3.1c0.7-0.7,1.6-1.1,2.7-1.1s2,0.4,2.7,1.1C282.6,96.5,282.9,97.5,282.9,98.8z M276.8,98.8
					c0,1,0.2,1.8,0.6,2.3s1,0.8,1.8,0.8s1.4-0.3,1.8-0.8s0.6-1.3,0.6-2.3s-0.2-1.8-0.6-2.3s-1-0.8-1.8-0.8s-1.4,0.3-1.8,0.8
					S276.8,97.7,276.8,98.8z"/>
				<path class="st9" d="M290.5,102.8v-5.2c0-0.7-0.1-1.1-0.4-1.5s-0.8-0.5-1.4-0.5c-0.8,0-1.5,0.2-1.8,0.7s-0.6,1.2-0.6,2.2v4.2
					H285v-8h1l0.2,1.1h0.1c0.2-0.4,0.6-0.7,1-0.9s0.9-0.3,1.5-0.3c1,0,1.7,0.2,2.2,0.7s0.7,1.2,0.7,2.2v5.2h-1.2V102.8z"/>
				<path class="st9" d="M296.8,101.9c0.2,0,0.4,0,0.6,0s0.4-0.1,0.5-0.1v0.9c-0.1,0.1-0.3,0.1-0.6,0.2c-0.3,0-0.5,0.1-0.7,0.1
					c-1.6,0-2.3-0.8-2.3-2.5v-4.8h-1.1v-0.6l1.1-0.5l0.5-1.7h0.7v1.9h2.3v0.9h-2.3v4.7c0,0.5,0.1,0.9,0.3,1.1
					S296.4,101.9,296.8,101.9z"/>
				<path class="st9" d="M303.2,94.6c0.4,0,0.7,0,1,0.1l-0.2,1.1c-0.3-0.1-0.6-0.1-0.9-0.1c-0.6,0-1.2,0.3-1.7,0.8s-0.7,1.2-0.7,2
					v4.3h-1.2v-8h1l0.1,1.5h0.1c0.3-0.5,0.7-0.9,1.1-1.2S302.7,94.6,303.2,94.6z"/>
				<path class="st9" d="M309.1,102.9c-1.2,0-2.1-0.4-2.8-1.1s-1-1.7-1-3s0.3-2.3,1-3.1c0.6-0.8,1.5-1.1,2.6-1.1c1,0,1.8,0.3,2.4,1
					s0.9,1.5,0.9,2.6V99h-5.5c0,0.9,0.3,1.7,0.7,2.1c0.5,0.5,1.1,0.7,1.9,0.7c0.9,0,1.7-0.2,2.6-0.5v1.1c-0.4,0.2-0.8,0.3-1.2,0.4
					C310.1,102.9,309.6,102.9,309.1,102.9z M308.7,95.6c-0.6,0-1.2,0.2-1.5,0.6s-0.6,1-0.7,1.7h4.2c0-0.8-0.2-1.4-0.5-1.8
					S309.4,95.6,308.7,95.6z"/>
				<path class="st9" d="M322.9,102.8l-0.2-1.1h-0.1c-0.4,0.5-0.8,0.8-1.2,1c-0.4,0.2-0.9,0.3-1.5,0.3c-0.8,0-1.4-0.2-1.9-0.6
					s-0.7-1-0.7-1.8c0-1.6,1.3-2.5,3.9-2.5h1.4v-0.5c0-0.6-0.1-1.1-0.4-1.4s-0.7-0.5-1.3-0.5c-0.7,0-1.4,0.2-2.3,0.6l-0.4-0.9
					c0.4-0.2,0.8-0.4,1.3-0.5s0.9-0.2,1.4-0.2c1,0,1.7,0.2,2.1,0.6c0.5,0.4,0.7,1.1,0.7,2v5.5H322.9z M320.2,101.9
					c0.8,0,1.4-0.2,1.8-0.6s0.6-1,0.6-1.7v-0.7l-1.2,0.1c-1,0-1.7,0.2-2.1,0.5s-0.6,0.7-0.6,1.2c0,0.4,0.1,0.8,0.4,1
					C319.3,101.8,319.7,101.9,320.2,101.9z"/>
				<path class="st9" d="M331.5,100.6c0,0.7-0.3,1.3-0.8,1.7s-1.3,0.6-2.3,0.6c-1.1,0-1.9-0.2-2.5-0.5v-1.1c0.4,0.2,0.8,0.3,1.2,0.5
					c0.4,0.1,0.9,0.2,1.3,0.2c0.6,0,1.1-0.1,1.5-0.3c0.3-0.2,0.5-0.5,0.5-0.9c0-0.3-0.1-0.6-0.4-0.8c-0.3-0.2-0.8-0.5-1.6-0.8
					c-0.7-0.3-1.3-0.5-1.6-0.7c-0.3-0.2-0.5-0.4-0.7-0.7c-0.2-0.3-0.2-0.6-0.2-0.9c0-0.7,0.3-1.2,0.8-1.5c0.5-0.4,1.3-0.6,2.2-0.6
					c0.9,0,1.7,0.2,2.5,0.5l-0.4,1c-0.8-0.3-1.5-0.5-2.2-0.5c-0.6,0-1,0.1-1.3,0.3s-0.4,0.4-0.4,0.7c0,0.2,0.1,0.4,0.2,0.5
					c0.1,0.2,0.3,0.3,0.5,0.4s0.7,0.3,1.4,0.6c1,0.3,1.6,0.7,1.9,1C331.3,99.6,331.5,100.1,331.5,100.6z"/>
				<path class="st9" d="M347.6,102.8v-5.2c0-0.6-0.1-1.1-0.4-1.4s-0.7-0.5-1.3-0.5c-0.8,0-1.3,0.2-1.7,0.7s-0.5,1.1-0.5,2v4.5h-1.2
					v-5.2c0-0.6-0.1-1.1-0.4-1.4s-0.7-0.5-1.3-0.5c-0.8,0-1.3,0.2-1.7,0.7c-0.4,0.5-0.5,1.2-0.5,2.2v4.2h-1.2v-8h1l0.2,1.1h0.1
					c0.2-0.4,0.6-0.7,1-0.9c0.4-0.2,0.9-0.3,1.4-0.3c1.3,0,2.1,0.5,2.5,1.4h0.1c0.2-0.4,0.6-0.8,1-1s1-0.4,1.6-0.4
					c0.9,0,1.6,0.2,2,0.7c0.5,0.5,0.7,1.2,0.7,2.2v5.2L347.6,102.8L347.6,102.8z"/>
				<path class="st9" d="M354.7,102.9c-1.2,0-2.1-0.4-2.8-1.1c-0.7-0.7-1-1.7-1-3s0.3-2.3,1-3.1c0.6-0.8,1.5-1.1,2.6-1.1
					c1,0,1.8,0.3,2.4,1s0.9,1.5,0.9,2.6V99h-5.5c0,0.9,0.3,1.7,0.7,2.1c0.5,0.5,1.1,0.7,1.9,0.7c0.9,0,1.7-0.2,2.6-0.5v1.1
					c-0.4,0.2-0.8,0.3-1.2,0.4C355.7,102.9,355.3,102.9,354.7,102.9z M354.4,95.6c-0.6,0-1.2,0.2-1.5,0.6c-0.4,0.4-0.6,1-0.7,1.7
					h4.2c0-0.8-0.2-1.4-0.5-1.8S355,95.6,354.4,95.6z"/>
				<path class="st9" d="M361,102.8h-1.2V91.4h1.2V102.8z"/>
				<path class="st9" d="M369,102.8v-5.2c0-0.7-0.1-1.1-0.4-1.5c-0.3-0.3-0.8-0.5-1.4-0.5c-0.8,0-1.5,0.2-1.8,0.7
					c-0.4,0.5-0.6,1.2-0.6,2.3v4.2h-1.2V91.4h1.2v3.4c0,0.4,0,0.8-0.1,1h0.1c0.2-0.4,0.6-0.7,1-0.9c0.4-0.2,0.9-0.3,1.5-0.3
					c1,0,1.7,0.2,2.2,0.7s0.7,1.2,0.7,2.2v5.2H369V102.8z"/>
				<path class="st9" d="M379.7,98.8c0,1.3-0.3,2.3-1,3.1c-0.7,0.7-1.6,1.1-2.7,1.1c-0.7,0-1.4-0.2-1.9-0.5s-1-0.8-1.3-1.5
					c-0.3-0.6-0.5-1.4-0.5-2.2c0-1.3,0.3-2.3,1-3.1c0.7-0.7,1.6-1.1,2.7-1.1s2,0.4,2.7,1.1C379.3,96.5,379.7,97.5,379.7,98.8z
					 M373.6,98.8c0,1,0.2,1.8,0.6,2.3s1,0.8,1.8,0.8s1.4-0.3,1.8-0.8s0.6-1.3,0.6-2.3s-0.2-1.8-0.6-2.3s-1-0.8-1.8-0.8
					s-1.4,0.3-1.8,0.8S373.6,97.7,373.6,98.8z"/>
				<path class="st9" d="M385.5,94.6c0.4,0,0.7,0,1,0.1l-0.2,1.1c-0.3-0.1-0.6-0.1-0.9-0.1c-0.6,0-1.2,0.3-1.7,0.8s-0.7,1.2-0.7,2
					v4.3h-1.2v-8h1l0.1,1.5h0.1c0.3-0.5,0.7-0.9,1.1-1.2S385,94.6,385.5,94.6z"/>
				<path class="st9" d="M391.3,102.9c-1.2,0-2.1-0.4-2.8-1.1c-0.7-0.7-1-1.7-1-3s0.3-2.3,1-3.1c0.6-0.8,1.5-1.1,2.6-1.1
					c1,0,1.8,0.3,2.4,1s0.9,1.5,0.9,2.6V99h-5.5c0,0.9,0.3,1.7,0.7,2.1c0.5,0.5,1.1,0.7,1.9,0.7c0.9,0,1.7-0.2,2.6-0.5v1.1
					c-0.4,0.2-0.8,0.3-1.2,0.4C392.3,102.9,391.9,102.9,391.3,102.9z M391,95.6c-0.6,0-1.2,0.2-1.5,0.6c-0.4,0.4-0.6,1-0.7,1.7h4.2
					c0-0.8-0.2-1.4-0.5-1.8S391.6,95.6,391,95.6z"/>
				<path class="st9" d="M401.5,100.6c0,0.7-0.3,1.3-0.8,1.7s-1.3,0.6-2.3,0.6c-1.1,0-1.9-0.2-2.5-0.5v-1.1c0.4,0.2,0.8,0.3,1.2,0.5
					c0.4,0.1,0.9,0.2,1.3,0.2c0.6,0,1.1-0.1,1.5-0.3c0.3-0.2,0.5-0.5,0.5-0.9c0-0.3-0.1-0.6-0.4-0.8c-0.3-0.2-0.8-0.5-1.6-0.8
					c-0.7-0.3-1.3-0.5-1.6-0.7c-0.3-0.2-0.5-0.4-0.7-0.7c-0.2-0.3-0.2-0.6-0.2-0.9c0-0.7,0.3-1.2,0.8-1.5c0.5-0.4,1.3-0.6,2.2-0.6
					c0.9,0,1.7,0.2,2.5,0.5l-0.4,1c-0.8-0.3-1.5-0.5-2.2-0.5c-0.6,0-1,0.1-1.3,0.3s-0.4,0.4-0.4,0.7c0,0.2,0.1,0.4,0.2,0.5
					c0.1,0.2,0.3,0.3,0.5,0.4s0.7,0.3,1.4,0.6c1,0.3,1.6,0.7,1.9,1C401.3,99.6,401.5,100.1,401.5,100.6z"/>
				<path class="st9" d="M411.1,102.9c-0.5,0-1-0.1-1.4-0.3c-0.4-0.2-0.8-0.5-1.1-0.9h-0.1c0.1,0.5,0.1,0.9,0.1,1.3v3.3h-1.2V94.8h1
					l0.2,1.1h0.1c0.3-0.4,0.7-0.8,1.1-1s0.9-0.3,1.4-0.3c1.1,0,1.9,0.4,2.5,1.1s0.9,1.7,0.9,3.1c0,1.3-0.3,2.3-0.9,3.1
					C413,102.6,412.2,102.9,411.1,102.9z M411,95.7c-0.8,0-1.4,0.2-1.8,0.7s-0.6,1.2-0.6,2.2v0.3c0,1.1,0.2,1.9,0.6,2.4
					s1,0.7,1.8,0.7c0.7,0,1.2-0.3,1.6-0.8c0.4-0.6,0.6-1.3,0.6-2.3s-0.2-1.8-0.6-2.3C412.2,95.9,411.7,95.7,411,95.7z"/>
				<path class="st9" d="M421.5,102.8l-0.2-1.1h-0.1c-0.4,0.5-0.8,0.8-1.2,1c-0.4,0.2-0.9,0.3-1.5,0.3c-0.8,0-1.4-0.2-1.9-0.6
					s-0.7-1-0.7-1.8c0-1.6,1.3-2.5,3.9-2.5h1.4v-0.5c0-0.6-0.1-1.1-0.4-1.4s-0.7-0.5-1.3-0.5c-0.7,0-1.4,0.2-2.3,0.6l-0.4-0.9
					c0.4-0.2,0.8-0.4,1.3-0.5s0.9-0.2,1.4-0.2c1,0,1.7,0.2,2.1,0.6c0.5,0.4,0.7,1.1,0.7,2v5.5H421.5z M418.8,101.9
					c0.8,0,1.4-0.2,1.8-0.6s0.6-1,0.6-1.7v-0.7L420,99c-1,0-1.7,0.2-2.1,0.5s-0.6,0.7-0.6,1.2c0,0.4,0.1,0.8,0.4,1
					C417.9,101.8,418.3,101.9,418.8,101.9z"/>
				<path class="st9" d="M430.4,101.7L430.4,101.7c-0.6,0.8-1.5,1.2-2.6,1.2s-1.9-0.4-2.5-1.1s-0.9-1.7-0.9-3.1
					c0-1.3,0.3-2.4,0.9-3.1s1.4-1.1,2.4-1.1c1.1,0,1.9,0.4,2.5,1.2h0.1l-0.1-0.6v-0.6v-3.3h1.2v11.4h-1V101.7z M428,101.9
					c0.8,0,1.4-0.2,1.8-0.7s0.6-1.2,0.6-2.2v-0.3c0-1.1-0.2-1.9-0.6-2.4s-1-0.7-1.8-0.7c-0.7,0-1.3,0.3-1.6,0.8
					c-0.4,0.6-0.6,1.3-0.6,2.3s0.2,1.8,0.6,2.3S427.2,101.9,428,101.9z"/>
				<path class="st9" d="M439.1,102.8l-0.2-1.1h-0.1c-0.4,0.5-0.8,0.8-1.2,1c-0.4,0.2-0.9,0.3-1.5,0.3c-0.8,0-1.4-0.2-1.9-0.6
					s-0.7-1-0.7-1.8c0-1.6,1.3-2.5,3.9-2.5h1.4v-0.5c0-0.6-0.1-1.1-0.4-1.4s-0.7-0.5-1.3-0.5c-0.7,0-1.4,0.2-2.3,0.6l-0.4-0.9
					c0.4-0.2,0.8-0.4,1.3-0.5s0.9-0.2,1.4-0.2c1,0,1.7,0.2,2.1,0.6c0.5,0.4,0.7,1.1,0.7,2v5.5H439.1z M436.3,101.9
					c0.8,0,1.4-0.2,1.8-0.6s0.6-1,0.6-1.7v-0.7l-1.2,0.1c-1,0-1.7,0.2-2.1,0.5s-0.6,0.7-0.6,1.2c0,0.4,0.1,0.8,0.4,1
					C435.5,101.8,435.8,101.9,436.3,101.9z"/>
				<path class="st9" d="M446.1,94.6c0.4,0,0.7,0,1,0.1l-0.2,1.1c-0.3-0.1-0.6-0.1-0.9-0.1c-0.6,0-1.2,0.3-1.7,0.8s-0.7,1.2-0.7,2
					v4.3h-1.2v-8h1l0.1,1.5h0.1c0.3-0.5,0.7-0.9,1.1-1.2S445.6,94.6,446.1,94.6z"/>
				<path class="st9" d="M448.5,92.6c0-0.3,0.1-0.5,0.2-0.6s0.3-0.2,0.5-0.2s0.4,0.1,0.5,0.2s0.2,0.3,0.2,0.6s-0.1,0.5-0.2,0.6
					s-0.3,0.2-0.5,0.2s-0.4-0.1-0.5-0.2S448.5,92.9,448.5,92.6z M449.8,102.8h-1.2v-8h1.2V102.8z"/>
				<path class="st9" d="M457.3,102.8l-0.2-1.1H457c-0.4,0.5-0.8,0.8-1.2,1c-0.4,0.2-0.9,0.3-1.5,0.3c-0.8,0-1.4-0.2-1.9-0.6
					s-0.7-1-0.7-1.8c0-1.6,1.3-2.5,3.9-2.5h1.4v-0.5c0-0.6-0.1-1.1-0.4-1.4s-0.7-0.5-1.3-0.5c-0.7,0-1.4,0.2-2.3,0.6l-0.4-0.9
					c0.4-0.2,0.8-0.4,1.3-0.5s0.9-0.2,1.4-0.2c1,0,1.7,0.2,2.1,0.6c0.5,0.4,0.7,1.1,0.7,2v5.5H457.3z M454.6,101.9
					c0.8,0,1.4-0.2,1.8-0.6s0.6-1,0.6-1.7v-0.7l-1.2,0.1c-1,0-1.7,0.2-2.1,0.5s-0.6,0.7-0.6,1.2c0,0.4,0.1,0.8,0.4,1
					C453.7,101.8,454.1,101.9,454.6,101.9z"/>
				<path class="st9" d="M465.9,100.6c0,0.7-0.3,1.3-0.8,1.7s-1.3,0.6-2.3,0.6c-1.1,0-1.9-0.2-2.5-0.5v-1.1c0.4,0.2,0.8,0.3,1.2,0.5
					c0.4,0.1,0.9,0.2,1.3,0.2c0.6,0,1.1-0.1,1.5-0.3c0.3-0.2,0.5-0.5,0.5-0.9c0-0.3-0.1-0.6-0.4-0.8c-0.3-0.2-0.8-0.5-1.6-0.8
					c-0.7-0.3-1.3-0.5-1.6-0.7c-0.3-0.2-0.5-0.4-0.7-0.7c-0.2-0.3-0.2-0.6-0.2-0.9c0-0.7,0.3-1.2,0.8-1.5c0.5-0.4,1.3-0.6,2.2-0.6
					c0.9,0,1.7,0.2,2.5,0.5l-0.4,1c-0.8-0.3-1.5-0.5-2.2-0.5c-0.6,0-1,0.1-1.3,0.3s-0.4,0.4-0.4,0.7c0,0.2,0.1,0.4,0.2,0.5
					c0.1,0.2,0.3,0.3,0.5,0.4s0.7,0.3,1.4,0.6c1,0.3,1.6,0.7,1.9,1C465.7,99.6,465.9,100.1,465.9,100.6z"/>
				<path class="st9" d="M475.2,102.9c-1.2,0-2.1-0.4-2.8-1.1c-0.7-0.7-1-1.7-1-3s0.3-2.3,1-3.1c0.6-0.8,1.5-1.1,2.6-1.1
					c1,0,1.8,0.3,2.4,1s0.9,1.5,0.9,2.6V99h-5.5c0,0.9,0.3,1.7,0.7,2.1c0.5,0.5,1.1,0.7,1.9,0.7c0.9,0,1.7-0.2,2.6-0.5v1.1
					c-0.4,0.2-0.8,0.3-1.2,0.4C476.2,102.9,475.7,102.9,475.2,102.9z M474.8,95.6c-0.6,0-1.2,0.2-1.5,0.6c-0.4,0.4-0.6,1-0.7,1.7
					h4.2c0-0.8-0.2-1.4-0.5-1.8S475.5,95.6,474.8,95.6z"/>
				<path class="st9" d="M254.5,120.9c-1.2,0-2.1-0.4-2.7-1.1c-0.6-0.7-1-1.7-1-3s0.3-2.4,1-3.1s1.6-1.1,2.8-1.1
					c0.4,0,0.8,0,1.2,0.1c0.4,0.1,0.7,0.2,0.9,0.3l-0.4,1c-0.3-0.1-0.6-0.2-0.9-0.3c-0.3-0.1-0.6-0.1-0.8-0.1c-1.6,0-2.4,1-2.4,3.1
					c0,1,0.2,1.7,0.6,2.3c0.4,0.5,1,0.8,1.8,0.8c0.7,0,1.4-0.1,2.1-0.4v1.1C256,120.8,255.3,120.9,254.5,120.9z"/>
				<path class="st9" d="M265.4,116.8c0,1.3-0.3,2.3-1,3.1c-0.7,0.7-1.6,1.1-2.7,1.1c-0.7,0-1.4-0.2-1.9-0.5c-0.6-0.3-1-0.8-1.3-1.4
					s-0.5-1.4-0.5-2.2c0-1.3,0.3-2.3,1-3.1c0.7-0.7,1.6-1.1,2.7-1.1s2,0.4,2.7,1.1C265,114.5,265.4,115.5,265.4,116.8z M259.2,116.8
					c0,1,0.2,1.8,0.6,2.3s1,0.8,1.8,0.8s1.4-0.3,1.8-0.8s0.6-1.3,0.6-2.3s-0.2-1.8-0.6-2.3s-1-0.8-1.8-0.8s-1.4,0.3-1.8,0.8
					S259.2,115.7,259.2,116.8z"/>
				<path class="st9" d="M273,120.8v-5.2c0-0.7-0.1-1.1-0.4-1.5s-0.8-0.5-1.4-0.5c-0.8,0-1.5,0.2-1.8,0.7s-0.6,1.2-0.6,2.2v4.2h-1.2
					v-8h1l0.2,1.1h0.1c0.2-0.4,0.6-0.7,1-0.9c0.4-0.2,0.9-0.3,1.5-0.3c1,0,1.7,0.2,2.2,0.7s0.7,1.2,0.7,2.2v5.2H273V120.8z"/>
				<path class="st9" d="M280.3,113.7h-2v7.1h-1.2v-7.1h-1.4v-0.5l1.4-0.4v-0.4c0-2,0.9-3,2.6-3c0.4,0,0.9,0.1,1.5,0.3l-0.3,1
					c-0.5-0.2-0.9-0.2-1.2-0.2c-0.5,0-0.8,0.2-1,0.5s-0.3,0.8-0.3,1.5v0.5h2v0.7H280.3z"/>
				<path class="st9" d="M285.2,120.9c-1.2,0-2.1-0.4-2.8-1.1s-1-1.7-1-3s0.3-2.3,1-3.1c0.6-0.8,1.5-1.1,2.6-1.1c1,0,1.8,0.3,2.4,1
					s0.9,1.5,0.9,2.6v0.8h-5.5c0,0.9,0.3,1.7,0.7,2.1c0.5,0.5,1.1,0.7,1.9,0.7c0.9,0,1.7-0.2,2.6-0.5v1.1c-0.4,0.2-0.8,0.3-1.2,0.4
					C286.2,120.9,285.7,120.9,285.2,120.9z M284.8,113.6c-0.6,0-1.2,0.2-1.5,0.6s-0.6,1-0.7,1.7h4.2c0-0.8-0.2-1.4-0.5-1.8
					C286,113.8,285.5,113.6,284.8,113.6z"/>
				<path class="st9" d="M290.1,110.6c0-0.3,0.1-0.5,0.2-0.6s0.3-0.2,0.5-0.2s0.4,0.1,0.5,0.2s0.2,0.3,0.2,0.6
					c0,0.3-0.1,0.5-0.2,0.6s-0.3,0.2-0.5,0.2s-0.4-0.1-0.5-0.2S290.1,110.9,290.1,110.6z M291.4,120.8h-1.2v-8h1.2V120.8z"/>
				<path class="st9" d="M296.6,119.9c0.2,0,0.4,0,0.6,0s0.4-0.1,0.5-0.1v0.9c-0.1,0.1-0.3,0.1-0.6,0.2c-0.3,0-0.5,0.1-0.7,0.1
					c-1.6,0-2.3-0.8-2.3-2.5v-4.8H293v-0.6l1.1-0.5l0.5-1.7h0.7v1.9h2.3v0.9h-2.3v4.7c0,0.5,0.1,0.9,0.3,1.1
					S296.2,119.9,296.6,119.9z"/>
				<path class="st9" d="M304.2,120.8l-0.2-1.1h-0.1c-0.4,0.5-0.8,0.8-1.2,1c-0.4,0.2-0.9,0.3-1.5,0.3c-0.8,0-1.4-0.2-1.9-0.6
					s-0.7-1-0.7-1.8c0-1.6,1.3-2.5,3.9-2.5h1.4v-0.5c0-0.6-0.1-1.1-0.4-1.4s-0.7-0.5-1.3-0.5c-0.7,0-1.4,0.2-2.3,0.6l-0.4-0.9
					c0.4-0.2,0.8-0.4,1.3-0.5s0.9-0.2,1.4-0.2c1,0,1.7,0.2,2.1,0.6c0.5,0.4,0.7,1.1,0.7,2v5.5H304.2z M301.5,119.9
					c0.8,0,1.4-0.2,1.8-0.6s0.6-1,0.6-1.7v-0.7l-1.2,0.1c-1,0-1.7,0.2-2.1,0.5s-0.6,0.7-0.6,1.2c0,0.4,0.1,0.8,0.4,1
					C300.6,119.8,301,119.9,301.5,119.9z"/>
				<path class="st9" d="M311.3,112.6c0.4,0,0.7,0,1,0.1l-0.2,1.1c-0.3-0.1-0.6-0.1-0.9-0.1c-0.6,0-1.2,0.3-1.7,0.8s-0.7,1.2-0.7,2
					v4.3h-1.2v-8h1l0.1,1.5h0.1c0.3-0.5,0.7-0.9,1.1-1.2S310.8,112.6,311.3,112.6z"/>
				<path class="st9" d="M313.6,110.6c0-0.3,0.1-0.5,0.2-0.6s0.3-0.2,0.5-0.2s0.4,0.1,0.5,0.2s0.2,0.3,0.2,0.6
					c0,0.3-0.1,0.5-0.2,0.6s-0.3,0.2-0.5,0.2s-0.4-0.1-0.5-0.2S313.6,110.9,313.6,110.6z M315,120.8h-1.2v-8h1.2V120.8z"/>
				<path class="st9" d="M322.5,120.8l-0.2-1.1h-0.1c-0.4,0.5-0.8,0.8-1.2,1c-0.4,0.2-0.9,0.3-1.5,0.3c-0.8,0-1.4-0.2-1.9-0.6
					s-0.7-1-0.7-1.8c0-1.6,1.3-2.5,3.9-2.5h1.4v-0.5c0-0.6-0.1-1.1-0.4-1.4s-0.7-0.5-1.3-0.5c-0.7,0-1.4,0.2-2.3,0.6l-0.4-0.9
					c0.4-0.2,0.8-0.4,1.3-0.5s0.9-0.2,1.4-0.2c1,0,1.7,0.2,2.1,0.6c0.5,0.4,0.7,1.1,0.7,2v5.5H322.5z M319.7,119.9
					c0.8,0,1.4-0.2,1.8-0.6s0.6-1,0.6-1.7v-0.7l-1.2,0.1c-1,0-1.7,0.2-2.1,0.5s-0.6,0.7-0.6,1.2c0,0.4,0.1,0.8,0.4,1
					C318.9,119.8,319.3,119.9,319.7,119.9z"/>
				<path class="st9" d="M331.1,118.6c0,0.7-0.3,1.3-0.8,1.7s-1.3,0.6-2.3,0.6c-1.1,0-1.9-0.2-2.5-0.5v-1.1c0.4,0.2,0.8,0.3,1.2,0.5
					c0.4,0.1,0.9,0.2,1.3,0.2c0.6,0,1.1-0.1,1.5-0.3c0.3-0.2,0.5-0.5,0.5-0.9c0-0.3-0.1-0.6-0.4-0.8c-0.3-0.2-0.8-0.5-1.6-0.8
					c-0.7-0.3-1.3-0.5-1.6-0.7c-0.3-0.2-0.5-0.4-0.7-0.7c-0.2-0.3-0.2-0.6-0.2-0.9c0-0.7,0.3-1.2,0.8-1.5c0.5-0.4,1.3-0.6,2.2-0.6
					c0.9,0,1.7,0.2,2.5,0.5l-0.4,1c-0.8-0.3-1.5-0.5-2.2-0.5c-0.6,0-1,0.1-1.3,0.3s-0.4,0.4-0.4,0.7c0,0.2,0.1,0.4,0.2,0.5
					c0.1,0.2,0.3,0.3,0.5,0.4s0.7,0.3,1.4,0.6c1,0.3,1.6,0.7,1.9,1C330.9,117.6,331.1,118.1,331.1,118.6z"/>
				<path class="st9" d="M342.4,120.8v-5.2c0-0.7-0.1-1.1-0.4-1.5s-0.8-0.5-1.4-0.5c-0.8,0-1.5,0.2-1.8,0.7s-0.6,1.2-0.6,2.2v4.2
					H337v-8h1l0.2,1.1h0.1c0.2-0.4,0.6-0.7,1-0.9c0.4-0.2,0.9-0.3,1.5-0.3c1,0,1.7,0.2,2.2,0.7s0.7,1.2,0.7,2.2v5.2h-1.3V120.8z"/>
				<path class="st9" d="M351.1,120.8l-0.2-1.1h-0.1c-0.4,0.5-0.8,0.8-1.2,1c-0.4,0.2-0.9,0.3-1.5,0.3c-0.8,0-1.4-0.2-1.9-0.6
					s-0.7-1-0.7-1.8c0-1.6,1.3-2.5,3.9-2.5h1.4v-0.5c0-0.6-0.1-1.1-0.4-1.4s-0.7-0.5-1.3-0.5c-0.7,0-1.4,0.2-2.3,0.6l-0.4-0.9
					c0.4-0.2,0.8-0.4,1.3-0.5s0.9-0.2,1.4-0.2c1,0,1.7,0.2,2.1,0.6c0.5,0.4,0.7,1.1,0.7,2v5.5H351.1z M348.3,119.9
					c0.8,0,1.4-0.2,1.8-0.6s0.6-1,0.6-1.7v-0.7l-1.2,0.1c-1,0-1.7,0.2-2.1,0.5s-0.6,0.7-0.6,1.2c0,0.4,0.1,0.8,0.4,1
					C347.5,119.8,347.9,119.9,348.3,119.9z"/>
				<path class="st9" d="M361.6,120.9c-1.2,0-2.1-0.4-2.7-1.1s-1-1.7-1-3s0.3-2.4,1-3.1c0.6-0.7,1.6-1.1,2.8-1.1
					c0.4,0,0.8,0,1.2,0.1s0.7,0.2,0.9,0.3l-0.4,1c-0.3-0.1-0.6-0.2-0.9-0.3c-0.3-0.1-0.6-0.1-0.8-0.1c-1.6,0-2.4,1-2.4,3.1
					c0,1,0.2,1.7,0.6,2.3c0.4,0.5,1,0.8,1.8,0.8c0.7,0,1.4-0.1,2.1-0.4v1.1C363.1,120.8,362.4,120.9,361.6,120.9z"/>
				<path class="st9" d="M365.4,110.6c0-0.3,0.1-0.5,0.2-0.6s0.3-0.2,0.5-0.2s0.4,0.1,0.5,0.2s0.2,0.3,0.2,0.6
					c0,0.3-0.1,0.5-0.2,0.6s-0.3,0.2-0.5,0.2s-0.4-0.1-0.5-0.2S365.4,110.9,365.4,110.6z M366.7,120.8h-1.2v-8h1.2V120.8z"/>
				<path class="st9" d="M374.8,119.7L374.8,119.7c-0.6,0.8-1.5,1.2-2.6,1.2s-1.9-0.4-2.5-1.1s-0.9-1.7-0.9-3.1
					c0-1.3,0.3-2.4,0.9-3.1s1.4-1.1,2.4-1.1c1.1,0,1.9,0.4,2.5,1.2h0.1l-0.1-0.6v-0.6v-3.3h1.2v11.4h-1V119.7z M372.4,119.9
					c0.8,0,1.4-0.2,1.8-0.7s0.6-1.2,0.6-2.2v-0.3c0-1.1-0.2-1.9-0.6-2.4s-1-0.7-1.8-0.7c-0.7,0-1.3,0.3-1.6,0.8
					c-0.4,0.6-0.6,1.3-0.6,2.3s0.2,1.8,0.6,2.3S371.6,119.9,372.4,119.9z"/>
				<path class="st9" d="M383.4,120.8l-0.2-1.1h-0.1c-0.4,0.5-0.8,0.8-1.2,1c-0.4,0.2-0.9,0.3-1.5,0.3c-0.8,0-1.4-0.2-1.9-0.6
					s-0.7-1-0.7-1.8c0-1.6,1.3-2.5,3.9-2.5h1.4v-0.5c0-0.6-0.1-1.1-0.4-1.4s-0.7-0.5-1.3-0.5c-0.7,0-1.4,0.2-2.3,0.6l-0.4-0.9
					c0.4-0.2,0.8-0.4,1.3-0.5s0.9-0.2,1.4-0.2c1,0,1.7,0.2,2.1,0.6c0.5,0.4,0.7,1.1,0.7,2v5.5H383.4z M380.7,119.9
					c0.8,0,1.4-0.2,1.8-0.6s0.6-1,0.6-1.7v-0.7l-1.2,0.1c-1,0-1.7,0.2-2.1,0.5s-0.6,0.7-0.6,1.2c0,0.4,0.1,0.8,0.4,1
					C379.8,119.8,380.2,119.9,380.7,119.9z"/>
				<path class="st9" d="M392.3,119.7L392.3,119.7c-0.6,0.8-1.5,1.2-2.6,1.2s-1.9-0.4-2.5-1.1s-0.9-1.7-0.9-3.1
					c0-1.3,0.3-2.4,0.9-3.1s1.4-1.1,2.4-1.1c1.1,0,1.9,0.4,2.5,1.2h0.1l-0.1-0.6v-0.6v-3.3h1.2v11.4h-1V119.7z M389.9,119.9
					c0.8,0,1.4-0.2,1.8-0.7s0.6-1.2,0.6-2.2v-0.3c0-1.1-0.2-1.9-0.6-2.4s-1-0.7-1.8-0.7c-0.7,0-1.3,0.3-1.6,0.8
					c-0.4,0.6-0.6,1.3-0.6,2.3s0.2,1.8,0.6,2.3S389.2,119.9,389.9,119.9z"/>
				<path class="st9" d="M399.4,120.9c-1.2,0-2.1-0.4-2.8-1.1c-0.7-0.7-1-1.7-1-3s0.3-2.3,1-3.1c0.6-0.8,1.5-1.1,2.6-1.1
					c1,0,1.8,0.3,2.4,1s0.9,1.5,0.9,2.6v0.8H397c0,0.9,0.3,1.7,0.7,2.1c0.5,0.5,1.1,0.7,1.9,0.7c0.9,0,1.7-0.2,2.6-0.5v1.1
					c-0.4,0.2-0.8,0.3-1.2,0.4C400.4,120.9,400,120.9,399.4,120.9z M399.1,113.6c-0.6,0-1.2,0.2-1.5,0.6c-0.4,0.4-0.6,1-0.7,1.7h4.2
					c0-0.8-0.2-1.4-0.5-1.8C400.2,113.8,399.7,113.6,399.1,113.6z"/>
				<path class="st9" d="M404.3,120c0-0.3,0.1-0.6,0.2-0.7c0.1-0.2,0.4-0.3,0.6-0.3c0.3,0,0.5,0.1,0.7,0.3c0.2,0.2,0.2,0.4,0.2,0.7
					c0,0.3-0.1,0.6-0.2,0.7s-0.4,0.3-0.7,0.3c-0.2,0-0.5-0.1-0.6-0.2C404.4,120.6,404.3,120.4,404.3,120z"/>
			</g>
			<g>
				<g>
					<g>
						<path class="st8" d="M171.5,90.9c0,0-11.3-3.4-16.5-8.6c-6-6-7.6-17.7-4.9-20.4L175.3,87"/>
					</g>
					<path class="st8" d="M175.3,87l28.6,21.7c3.3,2.7,3.9,7,1.3,9.6c-2.6,2.6-6.9,2-9.6-1.3l-24.2-26.1"/>
				</g>
				<g>
					<g>
						<path class="st8" d="M197.2,61.9"/>
						<path class="st8" d="M185.9,89c2.3,0.1,8.3-0.3,12.9-5.2c4.3-4.6,8.1-12.2,8.1-12.2"/>
					</g>
					<g>
						<path class="st8" d="M176.9,96.9L160.1,117c-2.7,3.3-7,3.9-9.6,1.3s-2-6.9,1.3-9.6L172,91.8"/>
					</g>
					<g>
						<path class="st8" d="M179.9,83.9c0,0-1-7.3,5.2-13.9c4.3-4.6,12.1-8.1,12.1-8.1"/>
					</g>
					<line class="st8" x1="200.8" y1="64.1" x2="189.4" y2="75.5"/>
					<line class="st8" x1="204.7" y1="68" x2="193.3" y2="79.4"/>
					<path class="st8" d="M206.9,71.6c0,0-0.1-2.1-3.9-5.8c-3.7-3.7-5.9-3.9-5.9-3.9"/>
				</g>
			</g>
			<g>
				<path class="st2" d="M339.3,51.2c0,2.7-0.8,4.7-2.5,6.2c-1.7,1.4-4.1,2.1-7.2,2.1h-2.3v8.9H322v-25h8c3,0,5.3,0.7,6.9,2
					S339.3,48.6,339.3,51.2z M327.4,55.2h1.7c1.6,0,2.8-0.3,3.7-1c0.8-0.6,1.2-1.6,1.2-2.8s-0.3-2.2-1-2.8s-1.7-0.9-3.2-0.9h-2.4
					L327.4,55.2L327.4,55.2z"/>
				<path class="st2" d="M355.8,68.4l-1-2.6h-0.1c-0.9,1.1-1.8,1.9-2.7,2.3c-0.9,0.4-2.1,0.6-3.6,0.6c-1.8,0-3.3-0.5-4.3-1.6
					c-1.1-1-1.6-2.5-1.6-4.5s0.7-3.5,2.1-4.5s3.6-1.5,6.4-1.6l3.3-0.1v-0.8c0-1.9-1-2.9-3-2.9c-1.5,0-3.3,0.5-5.4,1.4l-1.7-3.5
					c2.2-1.2,4.6-1.7,7.3-1.7c2.6,0,4.5,0.6,5.9,1.7c1.4,1.1,2,2.8,2,5.1v12.7C359.4,68.4,355.8,68.4,355.8,68.4z M354.2,59.5
					l-2,0.1c-1.5,0-2.6,0.3-3.4,0.8c-0.7,0.5-1.1,1.3-1.1,2.3c0,1.5,0.8,2.2,2.5,2.2c1.2,0,2.2-0.3,2.9-1c0.7-0.7,1.1-1.6,1.1-2.8
					V59.5z"/>
				<path class="st2" d="M370.8,68.7c-2.2,0-4-0.9-5.3-2.6s-1.9-4.2-1.9-7.2c0-3.1,0.7-5.6,2-7.3s3.1-2.6,5.4-2.6
					c2.4,0,4.2,0.9,5.5,2.8h0.2c-0.3-1.4-0.4-2.7-0.4-3.8v-6.1h5.2v26.6h-4l-1-2.5h-0.2C375.1,67.8,373.3,68.7,370.8,68.7z
					 M372.7,64.6c1.3,0,2.3-0.4,2.9-1.2s1-2.1,1-3.9v-0.6c0-2.1-0.3-3.5-0.9-4.4s-1.7-1.3-3.1-1.3c-1.2,0-2.1,0.5-2.7,1.5
					s-1,2.4-1,4.3s0.3,3.3,1,4.2C370.5,64.1,371.5,64.6,372.7,64.6z"/>
				<path class="st2" d="M399.1,68.4l-1-2.6H398c-0.9,1.1-1.8,1.9-2.7,2.3c-0.9,0.4-2.1,0.6-3.6,0.6c-1.8,0-3.3-0.5-4.3-1.6
					c-1.1-1-1.6-2.5-1.6-4.5s0.7-3.5,2.1-4.5s3.6-1.5,6.4-1.6l3.3-0.1v-0.8c0-1.9-1-2.9-3-2.9c-1.5,0-3.3,0.5-5.4,1.4l-1.7-3.5
					c2.2-1.2,4.6-1.7,7.3-1.7c2.6,0,4.5,0.6,5.9,1.7c1.4,1.1,2.1,2.8,2.1,5.1v12.7C402.8,68.4,399.1,68.4,399.1,68.4z M397.5,59.5
					l-2,0.1c-1.5,0-2.6,0.3-3.4,0.8c-0.7,0.5-1.1,1.3-1.1,2.3c0,1.5,0.8,2.2,2.5,2.2c1.2,0,2.2-0.3,2.9-1c0.7-0.7,1.1-1.6,1.1-2.8
					V59.5z"/>
				<path class="st2" d="M418.7,48.9c0.7,0,1.3,0.1,1.8,0.2l-0.4,4.9c-0.4-0.1-0.9-0.2-1.5-0.2c-1.7,0-3,0.4-3.9,1.3
					c-0.9,0.9-1.4,2.1-1.4,3.6v9.7h-5.2V49.3h3.9l0.8,3.2h0.3c0.6-1.1,1.4-1.9,2.4-2.6C416.5,49.2,417.6,48.9,418.7,48.9z"/>
				<path class="st2" d="M423.7,44.3c0-1.7,0.9-2.5,2.8-2.5s2.8,0.8,2.8,2.5c0,0.8-0.2,1.4-0.7,1.9s-1.2,0.7-2.1,0.7
					C424.7,46.9,423.7,46.1,423.7,44.3z M429.2,68.4H424V49.3h5.2V68.4z"/>
				<path class="st2" d="M446.8,68.4l-1-2.6h-0.1c-0.9,1.1-1.8,1.9-2.7,2.3c-0.9,0.4-2.1,0.6-3.6,0.6c-1.8,0-3.3-0.5-4.3-1.6
					c-1.1-1-1.6-2.5-1.6-4.5s0.7-3.5,2.1-4.5s3.6-1.5,6.4-1.6l3.3-0.1v-0.8c0-1.9-1-2.9-3-2.9c-1.5,0-3.3,0.5-5.4,1.4l-1.7-3.5
					c2.2-1.2,4.6-1.7,7.3-1.7c2.6,0,4.5,0.6,5.9,1.7c1.4,1.1,2.1,2.8,2.1,5.1v12.7C450.5,68.4,446.8,68.4,446.8,68.4z M445.2,59.5
					l-2,0.1c-1.5,0-2.6,0.3-3.4,0.8c-0.7,0.5-1.1,1.3-1.1,2.3c0,1.5,0.8,2.2,2.5,2.2c1.2,0,2.2-0.3,2.9-1c0.7-0.7,1.1-1.6,1.1-2.8
					V59.5z"/>
			</g>
		</g>
	</g>
	<g>
		<path class="st10" d="M470.9,53.8c-2.8,0.4-4.2,3.7-4.2,3.7s0.8,0.9,3.1,0.6c2.7-0.4,4.4-4.6,4.4-4.6S473.7,53.3,470.9,53.8z"/>
		<path class="st10" d="M465.9,56.9c0,0,2.4-2.8,1.1-5.2s-1.8-2.7-1.8-2.7s-2.2,3-1.2,5.4C464.8,56.6,465.9,56.9,465.9,56.9z"/>
		<path class="st10" d="M468.1,50.5c-0.6,1.3,0.2,3.6,0.2,3.6s2.5-0.6,3.2-2s0.6-5.8,0.6-5.8S468.7,49.2,468.1,50.5z"/>
		<path class="st10" d="M455.9,70.3c0,0,0.5,1.1,2.9,1.3c2.7,0.3,5.4-3.4,5.4-3.4s-0.5-0.3-3.3-0.5C458,67.5,455.9,70.3,455.9,70.3z
			"/>
		<path class="st10" d="M457.6,64.9c-0.6-2.7-1-3-1-3s-2.9,2.4-2.6,4.9c0.3,2.2,1.2,2.9,1.2,2.9S458.2,67.5,457.6,64.9z"/>
		<path class="st10" d="M459.8,66.5c0,0,0.6,1,3,1.1c2.7,0.1,5.1-3.8,5.1-3.8s-0.5-0.2-3.3-0.3C461.7,63.5,459.8,66.5,459.8,66.5z"
			/>
		<path class="st10" d="M459,65.8c0,0,2.8-2.4,2-5s-1.3-2.9-1.3-2.9s-2.7,2.6-2.2,5.1C458,65.3,459,65.8,459,65.8z"/>
		<path class="st10" d="M467.9,58.7c-2.8,0.2-4.5,3.3-4.5,3.3s0.7,1,3.1,0.8c2.7-0.1,4.7-4.2,4.7-4.2S470.7,58.5,467.9,58.7z"/>
		<path class="st10" d="M462.7,61.5c0,0,2.6-2.6,1.5-5.1s-1.6-2.8-1.6-2.8s-2.5,2.9-1.7,5.3C461.6,61,462.7,61.5,462.7,61.5z"/>
		<path class="st10" d="M454.2,70.6c-2.2,1.9-3.3,2.8-5.7,4.4c-0.2,0.2-0.3,0.4-0.2,0.6c0.1,0.2,0.4,0.2,0.7,0.1
			c2.4-1.7,3.6-2.6,5.8-4.5c0.2-0.2,0.2-0.5,0.1-0.6C454.7,70.4,454.4,70.4,454.2,70.6z"/>
		<path class="st10" d="M472.4,52.3c2.1-4.2,3.8-8.7,4.9-13.3c0-0.2-0.1-0.4-0.2-0.4c-0.2,0-0.3,0.1-0.4,0.2
			c-1.2,4.7-2.9,9.2-5.1,13.5C471.9,52.4,472.2,52.3,472.4,52.3z"/>
		<path class="st10" d="M478.2,40.8c-0.2,0-0.3,0.1-0.4,0.2c-1.1,3.8-2.5,7.6-4.3,11.2c0.3,0,0.5,0,0.7-0.1
			c1.7-3.5,3.1-7.2,4.1-10.9C478.4,41,478.3,40.8,478.2,40.8z"/>
		<path class="st10" d="M472.7,47.9c1.5-3.6,2.7-7.3,3.5-11.1c0-0.2-0.1-0.3-0.2-0.4s-0.3,0.1-0.4,0.2c-0.9,3.8-1.4,5.7-2.8,9.4
			C472.8,46.5,472.7,47.2,472.7,47.9z"/>
		<path class="st10" d="M470.4,39c0-0.2-0.1-0.3-0.2-0.4c-0.2,0-0.3,0-0.4,0.2c-1.1,3.9-1.8,5.9-3.6,9.5c0.1,0.1,0.3,0.3,0.4,0.5
			C468.5,45.1,469.2,43.1,470.4,39z"/>
		<path class="st10" d="M467.6,50.5c1.9-4.2,3.4-8.2,4.7-12.6c0-0.2-0.1-0.3-0.2-0.4c-0.2,0-0.3,0.1-0.4,0.2
			c-1.2,4.3-2.7,8.1-4.5,12.2C467.4,50,467.5,50.2,467.6,50.5z"/>
		<path class="st10" d="M471.6,45.6c1.4-3.6,1.9-5.4,2.8-9.2c0-0.2-0.1-0.3-0.2-0.4c-0.2,0-0.3,0.1-0.4,0.2
			c-0.8,3.6-1.9,7.2-3.4,10.6C470.8,46.4,471.2,45.9,471.6,45.6z"/>
	</g>
	<g>
		<path class="st10" d="M300.8,53.8c2.8,0.4,4.2,3.7,4.2,3.7s-0.8,0.9-3.1,0.6c-2.7-0.4-4.4-4.6-4.4-4.6S298,53.3,300.8,53.8z"/>
		<path class="st10" d="M305.8,56.9c0,0-2.4-2.8-1.1-5.2s1.8-2.7,1.8-2.7s2.2,3,1.2,5.4C306.9,56.6,305.8,56.9,305.8,56.9z"/>
		<path class="st10" d="M303.7,50.5c0.6,1.3-0.2,3.6-0.2,3.6s-2.5-0.6-3.2-2s-0.6-5.8-0.6-5.8S303,49.2,303.7,50.5z"/>
		<path class="st10" d="M315.8,70.3c0,0-0.5,1.1-2.9,1.3c-2.7,0.3-5.4-3.4-5.4-3.4s0.5-0.3,3.3-0.5
			C313.7,67.5,315.8,70.3,315.8,70.3z"/>
		<path class="st10" d="M314.1,64.9c0.6-2.7,1-3,1-3s2.9,2.4,2.6,4.9c-0.3,2.2-1.2,2.9-1.2,2.9S313.5,67.5,314.1,64.9z"/>
		<path class="st10" d="M311.9,66.5c0,0-0.6,1-3,1.1c-2.7,0.1-5.1-3.8-5.1-3.8s0.5-0.2,3.3-0.3C310,63.5,311.9,66.5,311.9,66.5z"/>
		<path class="st10" d="M312.7,65.8c0,0-2.8-2.4-2-5s1.3-2.9,1.3-2.9s2.7,2.6,2.2,5.1C313.7,65.3,312.7,65.8,312.7,65.8z"/>
		<path class="st10" d="M303.8,58.7c2.8,0.2,4.5,3.3,4.5,3.3s-0.7,1-3.1,0.8c-2.7-0.1-4.7-4.2-4.7-4.2S301,58.5,303.8,58.7z"/>
		<path class="st10" d="M309,61.5c0,0-2.6-2.6-1.5-5.1s1.6-2.8,1.6-2.8s2.5,2.9,1.7,5.3C310.1,61,309,61.5,309,61.5z"/>
		<path class="st10" d="M317.5,70.6c2.2,1.9,3.3,2.8,5.7,4.4c0.2,0.2,0.3,0.4,0.2,0.6c-0.1,0.2-0.4,0.2-0.7,0.1
			c-2.4-1.7-3.6-2.6-5.8-4.5c-0.2-0.2-0.2-0.5-0.1-0.6C317,70.4,317.3,70.4,317.5,70.6z"/>
		<path class="st10" d="M299.3,52.3c-2.1-4.2-3.8-8.7-4.9-13.3c0-0.2,0.1-0.4,0.2-0.4c0.2,0,0.3,0.1,0.4,0.2
			c1.2,4.7,2.9,9.2,5.1,13.5C299.8,52.4,299.6,52.3,299.3,52.3z"/>
		<path class="st10" d="M293.5,40.8c0.2,0,0.3,0.1,0.4,0.2c1.1,3.8,2.5,7.6,4.3,11.2c-0.3,0-0.5,0-0.7-0.1
			c-1.7-3.5-3.1-7.2-4.1-10.9C293.3,41,293.4,40.8,293.5,40.8z"/>
		<path class="st10" d="M299,47.9c-1.5-3.6-2.7-7.3-3.5-11.1c0-0.2,0.1-0.3,0.2-0.4s0.3,0.1,0.4,0.2c0.9,3.8,1.4,5.7,2.8,9.4
			C299,46.5,299,47.2,299,47.9z"/>
		<path class="st10" d="M301.3,39c0-0.2,0.1-0.3,0.2-0.4c0.2,0,0.3,0,0.4,0.2c1.1,3.9,1.8,5.9,3.6,9.5c-0.1,0.1-0.3,0.3-0.4,0.5
			C303.2,45.1,302.5,43.1,301.3,39z"/>
		<path class="st10" d="M304.1,50.5c-1.9-4.2-3.4-8.2-4.7-12.6c0-0.2,0.1-0.3,0.2-0.4c0.2,0,0.3,0.1,0.4,0.2
			c1.2,4.3,2.7,8.1,4.5,12.2C304.3,50,304.2,50.2,304.1,50.5z"/>
		<path class="st10" d="M300.1,45.6c-1.4-3.6-1.9-5.4-2.8-9.2c0-0.2,0.1-0.3,0.2-0.4c0.2,0,0.3,0.1,0.4,0.2
			c0.8,3.6,1.9,7.2,3.4,10.6C300.9,46.4,300.5,45.9,300.1,45.6z"/>
	</g>
</g>
</svg>
