<?xml version="1.0" encoding="utf-8"?>
<!-- Generator: Adobe Illustrator 19.0.0, SVG Export Plug-In . SVG Version: 6.00 Build 0)  -->
<svg version="1.1" id="Camada_1" xmlns="http://www.w3.org/2000/svg" xmlns:xlink="http://www.w3.org/1999/xlink" x="0px" y="0px"
	 viewBox="125 0 450 200" style="enable-background:new 125 0 450 200;" xml:space="preserve">
<style type="text/css">
	.st0{opacity:0.42;fill:#AEC2D1;enable-background:new    ;}
	.st1{fill:#D84005;}
	.st2{fill:#FFFFFF;}
	.st3{fill:url(#XMLID_2_);}
	.st4{fill:#EFEFEF;}
	.st5{fill:#F4530C;}
	.st6{fill:#E46101;}
	.st7{fill:url(#XMLID_3_);}
	.st8{fill:none;stroke:#FFFFFF;stroke-width:2;stroke-miterlimit:10;}
	.st9{fill:none;stroke:#FFFFFF;stroke-width:1.5;stroke-miterlimit:10;}
	.st10{fill:#CC0000;}
	.st11{fill:#F9C430;}
	.st12{fill:#FFD33C;}
	.st13{fill:#FF9501;}
</style>
<g id="XMLID_15_">
	<path id="XMLID_22_" class="st0" d="M542.6,86.8l-4.7-6l0,0l-8.8-11.1c-4.5-5.8-10.8-9.6-17.8-11v-0.4c0-10.8-8.8-19.6-19.6-19.6
		h-209h-18.8h-2.5c-5.8,0-10.5,4.7-10.5,10.5V58h-5.6h-9.2l0,0c-0.1-10.7-8.8-19.4-19.5-19.4H152c-10.8,0-19.5,8.8-19.5,19.6v51.3
		c0,23.4,19,42.4,42.4,42.4h38.3l0,0h65.4h9.1h213c7.5,9.2,18.9,15.1,31.7,15.1c22.5,0,40.8-18.2,40.8-40.8
		C573.2,107.2,560.2,91.3,542.6,86.8z"/>
	<g id="XMLID_23_">
		<path id="XMLID_21_" class="st1" d="M277.1,33h-23.8c-4.4,0-8,3.6-8,8v30.6h31.8V33z"/>
		<path id="XMLID_20_" class="st2" d="M543.5,108.3l-20,26.1c-5.7,7.5-14.6,11.8-24,11.8H207.6c-23.4,0-42.4-19-42.4-42.4V52.5
			h334.5c9.3,0,18,4.3,23.7,11.6l19.9,25.3C547.7,94.8,547.8,102.7,543.5,108.3z"/>
		
			<linearGradient id="XMLID_2_" gradientUnits="userSpaceOnUse" x1="135.4047" y1="163.792" x2="254.3617" y2="36.2263" gradientTransform="matrix(1 0 0 -1 0 200)">
			<stop  offset="0" style="stop-color:#FF362A"/>
			<stop  offset="1" style="stop-color:#FFDF15"/>
		</linearGradient>
		<path id="XMLID_19_" class="st3" d="M230.6,103.9V52.6c0-10.8-8.8-19.6-19.6-19.6h-64.5c-10.8,0-19.5,8.8-19.5,19.6v51.3
			c0,23.4,19,42.4,42.4,42.4h103.7C249.6,146.3,230.6,127.3,230.6,103.9z"/>
		<path id="XMLID_18_" class="st4" d="M282,146.3h-9.1c-23.4,0-42.4-19-42.4-42.4V52.5h9.1v51.4C239.6,127.3,258.6,146.3,282,146.3z
			"/>
		<path id="XMLID_17_" class="st5" d="M275.4,75.9h216.3c7.8,0,14.1-6.3,14.1-14.1v-9.3c0-10.8-8.8-19.6-19.6-19.6H258.4
			c4,5.5,6.4,12.2,6.4,19.6v12.8C264.7,71.2,269.5,75.9,275.4,75.9z"/>
		<circle id="XMLID_10_" class="st6" cx="526.8" cy="120.6" r="40.8"/>
		<path id="XMLID_9_" class="st4" d="M483.9,115.2c0,12.4,5.6,23.6,14.4,31h1.2c9.4,0,18.3-4.4,24-11.8l20-26.1
			c4.3-5.6,4.3-13.5-0.1-19l-11.1-14.1c-2.5-0.5-5-0.7-7.6-0.7C502.1,74.4,483.9,92.7,483.9,115.2z"/>
		
			<radialGradient id="XMLID_3_" cx="526.8" cy="79.4" r="40.8" gradientTransform="matrix(1 0 0 -1 0 200)" gradientUnits="userSpaceOnUse">
			<stop  offset="0" style="stop-color:#FFA915"/>
			<stop  offset="0.1983" style="stop-color:#FFA516"/>
			<stop  offset="0.3829" style="stop-color:#FF9A18"/>
			<stop  offset="0.5621" style="stop-color:#FF871B"/>
			<stop  offset="0.738" style="stop-color:#FF6D20"/>
			<stop  offset="0.9098" style="stop-color:#FF4B26"/>
			<stop  offset="1" style="stop-color:#FF362A"/>
		</radialGradient>
		<circle id="XMLID_7_" class="st7" cx="526.8" cy="120.6" r="40.8"/>
		<path id="XMLID_28_" class="st2" d="M526.8,86.9c-18.6,0-33.7,15.1-33.7,33.7s15.1,33.7,33.7,33.7c18.6,0,33.7-15.1,33.7-33.7
			S545.4,86.9,526.8,86.9z M526.8,150.1c-16.2,0-29.4-13.2-29.4-29.4s13.2-29.4,29.4-29.4c16.2,0,29.4,13.2,29.4,29.4
			S543,150.1,526.8,150.1z"/>
		<g>
			<g>
				<g>
					<path class="st8" d="M171.7,90.9c0,0-11.3-3.4-16.5-8.6c-6-6-7.6-17.7-4.9-20.4L175.6,87"/>
				</g>
				<path class="st8" d="M175.6,87l28.6,21.7c3.3,2.7,3.9,7,1.3,9.6s-6.9,2-9.6-1.3l-24.2-26.1"/>
			</g>
			<g>
				<g>
					<path class="st8" d="M197.5,62"/>
					<path class="st8" d="M186.1,89c2.3,0.1,8.3-0.3,12.9-5.2c4.3-4.6,8.1-12.2,8.1-12.2"/>
				</g>
				<g>
					<path class="st8" d="M177.1,96.9L160.4,117c-2.7,3.3-7,3.9-9.6,1.3s-2-6.9,1.3-9.6l20.2-16.9"/>
				</g>
				<g>
					<path class="st8" d="M180.1,83.9c0,0-1-7.3,5.2-13.9c4.3-4.6,12.1-8.1,12.1-8.1"/>
				</g>
				<line class="st8" x1="201.1" y1="64.1" x2="189.6" y2="75.5"/>
				<line class="st8" x1="205" y1="68" x2="193.6" y2="79.4"/>
				<path class="st8" d="M207.1,71.6c0,0-0.1-2.1-3.9-5.8c-3.7-3.7-5.9-3.9-5.9-3.9"/>
			</g>
		</g>
		<g>
			<path class="st2" d="M346.1,53.8c0,2.6-0.9,4.6-2.6,6s-4.1,2.1-7.3,2.1h-2.6v9.3h-4.1v-25h7.2c3.1,0,5.5,0.6,7,1.9
				C345.4,49.5,346.1,51.3,346.1,53.8z M333.6,58.5h2.2c2.1,0,3.6-0.4,4.6-1.1c1-0.7,1.5-1.9,1.5-3.4c0-1.4-0.4-2.5-1.3-3.2
				s-2.2-1.1-4.1-1.1h-2.8v8.8H333.6z"/>
			<path class="st2" d="M350.5,47.3c0-0.7,0.2-1.3,0.6-1.7s1-0.6,1.7-0.6s1.3,0.2,1.6,0.6c0.4,0.4,0.6,0.9,0.6,1.7
				c0,0.7-0.2,1.2-0.6,1.6c-0.4,0.4-0.9,0.6-1.6,0.6s-1.3-0.2-1.7-0.6S350.5,48,350.5,47.3z M354.7,71.2h-4V52.3h4V71.2z"/>
			<path class="st2" d="M373.1,71.2h-14.3v-2.5l9.6-13.3h-9v-3.1h13.5v2.8l-9.3,13h9.6v3.1H373.1z"/>
			<path class="st2" d="M389.9,71.2h-14.3v-2.5l9.6-13.3h-9v-3.1h13.5v2.8l-9.3,13h9.6v3.1H389.9z"/>
			<path class="st2" d="M405.7,71.2l-0.8-2.6h-0.1c-0.9,1.2-1.8,1.9-2.8,2.3c-0.9,0.4-2.1,0.6-3.6,0.6c-1.9,0-3.3-0.5-4.3-1.5
				s-1.6-2.4-1.6-4.3s0.7-3.4,2.2-4.4c1.4-1,3.7-1.5,6.6-1.6l3.3-0.1v-1c0-1.2-0.3-2.1-0.8-2.7c-0.6-0.6-1.4-0.9-2.6-0.9
				c-1,0-1.9,0.1-2.8,0.4c-0.9,0.3-1.7,0.6-2.6,1l-1.3-2.9c1-0.5,2.1-0.9,3.4-1.2c1.2-0.3,2.4-0.4,3.5-0.4c2.4,0,4.2,0.5,5.4,1.6
				c1.2,1,1.8,2.7,1.8,4.9v12.7L405.7,71.2L405.7,71.2z M399.7,68.4c1.5,0,2.6-0.4,3.5-1.2c0.9-0.8,1.3-2,1.3-3.4v-1.6l-2.4,0.1
				c-1.9,0.1-3.3,0.4-4.1,0.9c-0.9,0.6-1.3,1.4-1.3,2.6c0,0.8,0.3,1.5,0.8,2S398.7,68.4,399.7,68.4z"/>
			<path class="st2" d="M423.9,52c0.8,0,1.5,0.1,2,0.2l-0.4,3.7c-0.6-0.1-1.2-0.2-1.8-0.2c-1.6,0-2.9,0.5-3.9,1.6
				c-1,1-1.5,2.4-1.5,4.1v9.9h-4v-19h3.1l0.5,3.3h0.2c0.6-1.1,1.4-2,2.5-2.7C421.5,52.3,422.6,52,423.9,52z"/>
			<path class="st2" d="M429,47.3c0-0.7,0.2-1.3,0.6-1.7s1-0.6,1.7-0.6s1.3,0.2,1.6,0.6c0.4,0.4,0.6,0.9,0.6,1.7
				c0,0.7-0.2,1.2-0.6,1.6c-0.4,0.4-0.9,0.6-1.6,0.6s-1.3-0.2-1.7-0.6C429.2,48.5,429,48,429,47.3z M433.4,71.2h-4V52.3h4V71.2z"/>
			<path class="st2" d="M451,71.2l-0.8-2.6h-0.1c-0.9,1.2-1.8,1.9-2.8,2.3c-0.9,0.4-2.1,0.6-3.6,0.6c-1.9,0-3.3-0.5-4.3-1.5
				s-1.6-2.4-1.6-4.3s0.7-3.4,2.2-4.4s3.7-1.5,6.6-1.6l3.3-0.1v-1c0-1.2-0.3-2.1-0.8-2.7c-0.6-0.6-1.4-0.9-2.6-0.9
				c-1,0-1.9,0.1-2.8,0.4c-0.9,0.3-1.7,0.6-2.6,1l-1.3-2.9c1-0.5,2.1-0.9,3.4-1.2s2.4-0.4,3.5-0.4c2.4,0,4.2,0.5,5.4,1.6
				c1.2,1,1.8,2.7,1.8,4.9v12.7L451,71.2L451,71.2z M445,68.4c1.5,0,2.6-0.4,3.5-1.2c0.9-0.8,1.3-2,1.3-3.4v-1.6l-2.4,0.1
				c-1.9,0.1-3.3,0.4-4.1,0.9c-0.9,0.6-1.3,1.4-1.3,2.6c0,0.8,0.3,1.5,0.8,2C443.1,68.3,444,68.4,445,68.4z"/>
		</g>
		<g>
			<path class="st9" d="M524.5,98.7c11.4,0,26.1,14.7,26.1,26.1l-41.2,15.1L524.5,98.7z"/>
			<path class="st9" d="M522.7,103.6c10.6,3.3,20.4,13.3,22.9,23"/>
			<path class="st9" d="M518.3,116c2,1.1,4.5,0.3,5.6-1.7s0.3-4.5-1.7-5.6l-1.1-0.4"/>
			<circle class="st9" cx="532.1" cy="122.1" r="4.3"/>
			<path class="st9" d="M519.5,135.4c-0.7-2.2,0.5-4.5,2.7-5.2s4.5,0.5,5.2,2.7"/>
		</g>
		<g>
			<path class="st10" d="M254.6,95.9h-6.8v-12h6.8v1.7h-4.8v3.3h4.5v1.6h-4.5v3.8h4.8V95.9z"/>
			<path class="st10" d="M259.4,96c-1,0-1.8-0.3-2.3-0.9s-0.8-1.4-0.8-2.5s0.3-2,0.8-2.6c0.6-0.6,1.3-0.9,2.4-0.9
				c0.7,0,1.3,0.1,1.9,0.4l-0.4,1.1c-0.6-0.2-1.1-0.4-1.5-0.4c-1.2,0-1.7,0.8-1.7,2.3c0,0.7,0.1,1.3,0.4,1.7
				c0.3,0.4,0.7,0.6,1.3,0.6c0.6,0,1.2-0.2,1.8-0.5v1.2c-0.3,0.1-0.5,0.3-0.8,0.3C260.1,96,259.7,96,259.4,96z"/>
			<path class="st10" d="M268.7,92.5c0,1.1-0.3,1.9-0.8,2.6c-0.6,0.6-1.3,0.9-2.3,0.9c-0.6,0-1.2-0.1-1.7-0.4s-0.8-0.7-1.1-1.2
				c-0.3-0.5-0.4-1.1-0.4-1.8c0-1.1,0.3-1.9,0.8-2.5c0.6-0.6,1.3-0.9,2.3-0.9s1.7,0.3,2.3,0.9C268.5,90.6,268.7,91.5,268.7,92.5z
				 M263.9,92.5c0,1.5,0.6,2.3,1.7,2.3s1.7-0.8,1.7-2.3s-0.6-2.3-1.7-2.3c-0.6,0-1,0.2-1.3,0.6C264,91.2,263.9,91.8,263.9,92.5z"/>
			<path class="st10" d="M276.2,95.9h-1.4v-4.1c0-0.5-0.1-0.9-0.3-1.2c-0.2-0.3-0.5-0.4-1-0.4c-0.6,0-1,0.2-1.3,0.5
				c-0.3,0.4-0.4,0.9-0.4,1.8v3.3h-1.4v-6.7h1.1l0.2,0.9h0.1c0.2-0.3,0.5-0.6,0.9-0.7c0.4-0.2,0.8-0.3,1.2-0.3
				c1.6,0,2.4,0.8,2.4,2.4v4.5L276.2,95.9L276.2,95.9z"/>
			<path class="st10" d="M284.1,92.5c0,1.1-0.3,1.9-0.8,2.6c-0.6,0.6-1.3,0.9-2.3,0.9c-0.6,0-1.2-0.1-1.7-0.4s-0.8-0.7-1.1-1.2
				c-0.3-0.5-0.4-1.1-0.4-1.8c0-1.1,0.3-1.9,0.8-2.5c0.6-0.6,1.3-0.9,2.3-0.9s1.7,0.3,2.3,0.9C283.9,90.6,284.1,91.5,284.1,92.5z
				 M279.2,92.5c0,1.5,0.6,2.3,1.7,2.3s1.7-0.8,1.7-2.3s-0.6-2.3-1.7-2.3c-0.6,0-1,0.2-1.3,0.6S279.2,91.8,279.2,92.5z"/>
			<path class="st10" d="M291.4,95.9H290v-4.1c0-0.5-0.1-0.9-0.3-1.1c-0.2-0.3-0.5-0.4-0.9-0.4c-0.5,0-0.9,0.2-1.2,0.5
				c-0.3,0.4-0.4,0.9-0.4,1.8V96h-1.4v-6.7h1.1l0.2,0.9h0.1c0.2-0.3,0.5-0.6,0.8-0.7c0.4-0.2,0.7-0.3,1.2-0.3c1,0,1.7,0.4,2,1.1h0.1
				c0.2-0.3,0.5-0.6,0.8-0.8c0.4-0.2,0.8-0.3,1.2-0.3c0.8,0,1.4,0.2,1.7,0.6c0.4,0.4,0.5,1,0.5,1.8V96h-1.4v-4.1
				c0-0.5-0.1-0.9-0.3-1.1c-0.2-0.3-0.5-0.4-0.9-0.4c-0.6,0-1,0.2-1.2,0.5c-0.3,0.3-0.4,0.9-0.4,1.6L291.4,95.9L291.4,95.9z"/>
			<path class="st10" d="M297.5,87.4c0-0.3,0.1-0.4,0.2-0.6c0.1-0.1,0.3-0.2,0.6-0.2c0.2,0,0.4,0.1,0.6,0.2c0.1,0.1,0.2,0.3,0.2,0.6
				c0,0.2-0.1,0.4-0.2,0.6c-0.1,0.1-0.3,0.2-0.6,0.2c-0.3,0-0.5-0.1-0.6-0.2C297.5,87.9,297.5,87.7,297.5,87.4z M299,95.9h-1.4v-6.7
				h1.4V95.9z"/>
			<path class="st10" d="M305.5,95.9h-5.1V95l3.4-4.7h-3.2v-1.1h4.8v1l-3.3,4.6h3.4L305.5,95.9L305.5,95.9z"/>
			<path class="st10" d="M309.9,96c-1,0-1.9-0.3-2.4-0.9c-0.6-0.6-0.9-1.4-0.9-2.5s0.3-1.9,0.8-2.6c0.5-0.6,1.3-0.9,2.2-0.9
				c0.9,0,1.6,0.3,2.1,0.8s0.8,1.3,0.8,2.2v0.8H308c0,0.6,0.2,1.1,0.5,1.5c0.3,0.3,0.8,0.5,1.4,0.5c0.4,0,0.8,0,1.1-0.1
				c0.3-0.1,0.7-0.2,1.1-0.4v1.2c-0.3,0.2-0.7,0.3-1.1,0.4C310.7,96,310.4,96,309.9,96z M309.6,90.1c-0.5,0-0.8,0.1-1.1,0.4
				c-0.3,0.3-0.4,0.7-0.5,1.3h3c0-0.6-0.1-1-0.4-1.3C310.5,90.3,310,90.1,309.6,90.1z"/>
			<path class="st10" d="M319.5,96c-0.8,0-1.5-0.3-2-0.9s-0.7-1.5-0.7-2.5c0-1.1,0.2-1.9,0.7-2.6c0.5-0.6,1.1-0.9,2-0.9s1.5,0.3,2,1
				h0.1c-0.1-0.5-0.1-0.9-0.1-1.1v-2.4h1.4V96h-1.1l-0.2-0.9h-0.1C321,95.7,320.5,96,319.5,96z M320,94.8c0.6,0,1-0.2,1.3-0.5
				s0.4-0.9,0.4-1.6v-0.2c0-0.8-0.1-1.4-0.4-1.8s-0.7-0.5-1.3-0.5c-0.5,0-0.9,0.2-1.2,0.6c-0.3,0.4-0.4,1-0.4,1.7s0.1,1.3,0.4,1.7
				C319,94.7,319.5,94.8,320,94.8z"/>
			<path class="st10" d="M325,87.4c0-0.3,0.1-0.4,0.2-0.6c0.1-0.1,0.3-0.2,0.6-0.2c0.2,0,0.4,0.1,0.6,0.2c0.1,0.1,0.2,0.3,0.2,0.6
				c0,0.2-0.1,0.4-0.2,0.6c-0.1,0.1-0.3,0.2-0.6,0.2c-0.3,0-0.5-0.1-0.6-0.2C325,87.9,325,87.7,325,87.4z M326.5,95.9h-1.4v-6.7h1.4
				V95.9z"/>
			<path class="st10" d="M334.4,95.9H333v-4.1c0-0.5-0.1-0.9-0.3-1.2c-0.2-0.3-0.5-0.4-1-0.4c-0.6,0-1,0.2-1.3,0.5
				c-0.3,0.4-0.4,0.9-0.4,1.8v3.3h-1.4v-6.7h1.1l0.2,0.9h0.1c0.2-0.3,0.5-0.6,0.9-0.7c0.4-0.2,0.8-0.3,1.2-0.3
				c1.6,0,2.4,0.8,2.4,2.4v4.5L334.4,95.9L334.4,95.9z"/>
			<path class="st10" d="M342.1,95.9h-1.4v-4.1c0-0.5-0.1-0.9-0.3-1.2c-0.2-0.3-0.5-0.4-1-0.4c-0.6,0-1,0.2-1.3,0.5
				c-0.3,0.4-0.4,1-0.4,1.8v3.3h-1.4v-9.4h1.4v2.4c0,0.4,0,0.8-0.1,1.2h0.1c0.2-0.3,0.5-0.6,0.8-0.7s0.7-0.3,1.2-0.3
				c1.6,0,2.4,0.8,2.4,2.4L342.1,95.9L342.1,95.9z"/>
			<path class="st10" d="M347,96c-1,0-1.9-0.3-2.4-0.9c-0.6-0.6-0.9-1.4-0.9-2.5s0.3-1.9,0.8-2.6c0.5-0.6,1.3-0.9,2.2-0.9
				c0.9,0,1.6,0.3,2.1,0.8s0.8,1.3,0.8,2.2v0.8h-4.4c0,0.6,0.2,1.1,0.5,1.5c0.3,0.3,0.8,0.5,1.4,0.5c0.4,0,0.8,0,1.1-0.1
				c0.3-0.1,0.7-0.2,1.1-0.4v1.2c-0.3,0.2-0.7,0.3-1.1,0.4C348,96,347.5,96,347,96z M346.9,90.1c-0.5,0-0.8,0.1-1.1,0.4
				c-0.3,0.3-0.4,0.7-0.5,1.3h3c0-0.6-0.1-1-0.4-1.3C347.6,90.3,347.2,90.1,346.9,90.1z"/>
			<path class="st10" d="M351.2,87.4c0-0.3,0.1-0.4,0.2-0.6c0.1-0.1,0.3-0.2,0.6-0.2c0.2,0,0.4,0.1,0.6,0.2c0.1,0.1,0.2,0.3,0.2,0.6
				c0,0.2-0.1,0.4-0.2,0.6c-0.1,0.1-0.3,0.2-0.6,0.2c-0.3,0-0.5-0.1-0.6-0.2C351.2,87.9,351.2,87.7,351.2,87.4z M352.7,95.9h-1.5
				v-6.7h1.4v6.7H352.7z"/>
			<path class="st10" d="M358.1,89.1c0.3,0,0.5,0,0.7,0.1l-0.1,1.3c-0.2,0-0.4-0.1-0.6-0.1c-0.6,0-1,0.2-1.4,0.6s-0.5,0.9-0.5,1.4
				v3.5h-1.4v-6.7h1.1l0.2,1.2h0.1c0.2-0.4,0.5-0.7,0.9-0.9C357.4,89.2,357.7,89.1,358.1,89.1z"/>
			<path class="st10" d="M366,92.5c0,1.1-0.3,1.9-0.8,2.6c-0.6,0.6-1.3,0.9-2.3,0.9c-0.6,0-1.2-0.1-1.7-0.4s-0.8-0.7-1.1-1.2
				c-0.3-0.5-0.4-1.1-0.4-1.8c0-1.1,0.3-1.9,0.8-2.5c0.6-0.6,1.3-0.9,2.3-0.9s1.7,0.3,2.3,0.9C365.7,90.6,366,91.5,366,92.5z
				 M361.1,92.5c0,1.5,0.6,2.3,1.7,2.3s1.7-0.8,1.7-2.3s-0.6-2.3-1.7-2.3c-0.6,0-1,0.2-1.3,0.6C361.2,91.2,361.1,91.8,361.1,92.5z"
				/>
			<path class="st10" d="M369.1,94.6c-0.2,0.7-0.5,1.7-1.1,2.9h-1c0.3-1.1,0.5-2.1,0.6-3h1.4L369.1,94.6z"/>
			<path class="st10" d="M378.4,95.9l-0.3-0.9l0,0c-0.3,0.4-0.6,0.7-1,0.8s-0.8,0.2-1.3,0.2c-0.7,0-1.2-0.2-1.5-0.5
				c-0.4-0.4-0.6-0.9-0.6-1.5c0-0.7,0.3-1.2,0.8-1.6c0.5-0.3,1.3-0.5,2.3-0.6h1.2v-0.4c0-0.4-0.1-0.7-0.3-1
				c-0.2-0.2-0.5-0.3-0.9-0.3c-0.3,0-0.7,0.1-1,0.2s-0.6,0.2-0.9,0.4l-0.5-1c0.4-0.2,0.8-0.3,1.2-0.4c0.4-0.1,0.8-0.1,1.2-0.1
				c0.9,0,1.5,0.2,1.9,0.6s0.6,1,0.6,1.7V96L378.4,95.9L378.4,95.9z M376.2,94.9c0.5,0,0.9-0.1,1.2-0.4c0.3-0.3,0.5-0.7,0.5-1.2
				v-0.6h-0.8c-0.7,0-1.2,0.1-1.5,0.3c-0.3,0.2-0.5,0.5-0.5,0.9c0,0.3,0.1,0.5,0.3,0.7S375.9,94.9,376.2,94.9z"/>
			<path class="st10" d="M384,96c-1,0-1.8-0.3-2.3-0.9s-0.8-1.4-0.8-2.5s0.3-2,0.8-2.6s1.3-0.9,2.4-0.9c0.7,0,1.3,0.1,1.9,0.4
				l-0.4,1.1c-0.6-0.2-1.1-0.4-1.5-0.4c-1.2,0-1.7,0.8-1.7,2.3c0,0.7,0.1,1.3,0.4,1.7c0.3,0.4,0.7,0.6,1.3,0.6
				c0.6,0,1.2-0.2,1.8-0.5v1.2c-0.3,0.1-0.5,0.3-0.8,0.3S384.5,96,384,96z"/>
			<path class="st10" d="M390.4,96c-1,0-1.9-0.3-2.4-0.9c-0.6-0.6-0.9-1.4-0.9-2.5s0.3-1.9,0.8-2.6c0.5-0.6,1.3-0.9,2.2-0.9
				c0.9,0,1.6,0.3,2.1,0.8s0.8,1.3,0.8,2.2v0.8h-4.5c0,0.6,0.2,1.1,0.5,1.5c0.3,0.3,0.8,0.5,1.4,0.5c0.4,0,0.8,0,1.1-0.1
				c0.3-0.1,0.7-0.2,1.1-0.4v1.2c-0.3,0.2-0.7,0.3-1.1,0.4C391.2,96,390.9,96,390.4,96z M390.1,90.1c-0.5,0-0.8,0.1-1.1,0.4
				c-0.3,0.3-0.4,0.7-0.5,1.3h3c0-0.6-0.1-1-0.4-1.3C391,90.3,390.5,90.1,390.1,90.1z"/>
			<path class="st10" d="M399,94c0,0.7-0.2,1.2-0.7,1.5s-1.2,0.5-2,0.5c-0.9,0-1.6-0.1-2.1-0.4v-1.2c0.8,0.4,1.5,0.5,2.2,0.5
				c0.9,0,1.3-0.3,1.3-0.8c0-0.2,0-0.3-0.1-0.4s-0.3-0.2-0.5-0.4c-0.2-0.1-0.5-0.3-0.9-0.4c-0.8-0.3-1.3-0.6-1.6-0.9
				c-0.3-0.3-0.4-0.7-0.4-1.2c0-0.6,0.2-1,0.7-1.3s1.1-0.5,1.9-0.5s1.5,0.2,2.2,0.5l-0.5,1.1c-0.7-0.3-1.3-0.4-1.8-0.4
				c-0.7,0-1.1,0.2-1.1,0.6c0,0.2,0.1,0.4,0.3,0.5c0.2,0.1,0.6,0.3,1.3,0.6c0.6,0.2,1,0.4,1.2,0.6c0.3,0.2,0.4,0.4,0.6,0.6
				C399,93.4,399,93.7,399,94z"/>
			<path class="st10" d="M405,94c0,0.7-0.2,1.2-0.7,1.5s-1.2,0.5-2,0.5c-0.9,0-1.6-0.1-2.1-0.4v-1.2c0.8,0.4,1.5,0.5,2.2,0.5
				c0.9,0,1.3-0.3,1.3-0.8c0-0.2,0-0.3-0.1-0.4s-0.3-0.2-0.5-0.4c-0.2-0.1-0.5-0.3-0.9-0.4c-0.8-0.3-1.3-0.6-1.6-0.9
				c-0.3-0.3-0.4-0.7-0.4-1.2c0-0.6,0.2-1,0.7-1.3s1.1-0.5,1.9-0.5s1.5,0.2,2.2,0.5l-0.5,1.1c-0.7-0.3-1.3-0.4-1.8-0.4
				c-0.7,0-1.1,0.2-1.1,0.6c0,0.2,0.1,0.4,0.3,0.5c0.2,0.1,0.6,0.3,1.3,0.6c0.6,0.2,1,0.4,1.2,0.6c0.3,0.2,0.4,0.4,0.6,0.6
				C405,93.4,405,93.7,405,94z"/>
			<path class="st10" d="M409.5,96c-1,0-1.9-0.3-2.4-0.9c-0.6-0.6-0.9-1.4-0.9-2.5s0.3-1.9,0.8-2.6c0.5-0.6,1.3-0.9,2.2-0.9
				c0.9,0,1.6,0.3,2.1,0.8s0.8,1.3,0.8,2.2v0.8h-4.5c0,0.6,0.2,1.1,0.5,1.5c0.3,0.3,0.8,0.5,1.4,0.5c0.4,0,0.8,0,1.1-0.1
				c0.3-0.1,0.7-0.2,1.1-0.4v1.2c-0.3,0.2-0.7,0.3-1.1,0.4C410.5,96,410,96,409.5,96z M409.2,90.1c-0.5,0-0.8,0.1-1.1,0.4
				c-0.3,0.3-0.4,0.7-0.5,1.3h3c0-0.6-0.1-1-0.4-1.3C410,90.3,409.7,90.1,409.2,90.1z"/>
			<path class="st10" d="M421.1,95.9l-0.3-0.9l0,0c-0.3,0.4-0.6,0.7-1,0.8c-0.3,0.1-0.7,0.2-1.3,0.2c-0.7,0-1.2-0.2-1.5-0.5
				c-0.4-0.4-0.6-0.9-0.6-1.5c0-0.7,0.3-1.2,0.8-1.6c0.5-0.3,1.3-0.5,2.3-0.6h1.2v-0.4c0-0.4-0.1-0.7-0.3-1
				c-0.2-0.2-0.5-0.3-0.9-0.3c-0.3,0-0.7,0.1-1,0.2s-0.6,0.2-0.9,0.4l-0.5-1c0.4-0.2,0.8-0.3,1.2-0.4c0.4-0.1,0.8-0.1,1.2-0.1
				c0.9,0,1.5,0.2,1.9,0.6s0.6,1,0.6,1.7V96L421.1,95.9L421.1,95.9z M419,94.9c0.5,0,0.9-0.1,1.2-0.4s0.5-0.7,0.5-1.2v-0.6h-0.9
				c-0.7,0-1.2,0.1-1.5,0.3c-0.3,0.2-0.5,0.5-0.5,0.9c0,0.3,0.1,0.5,0.3,0.7C418.5,94.8,418.6,94.9,419,94.9z"/>
			<path class="st10" d="M428.6,94c0,0.7-0.2,1.2-0.7,1.5s-1.2,0.5-2,0.5c-0.9,0-1.6-0.1-2.1-0.4v-1.2c0.8,0.4,1.5,0.5,2.2,0.5
				c0.9,0,1.3-0.3,1.3-0.8c0-0.2,0-0.3-0.1-0.4s-0.3-0.2-0.5-0.4c-0.2-0.1-0.5-0.3-0.9-0.4c-0.8-0.3-1.3-0.6-1.6-0.9
				c-0.3-0.3-0.4-0.7-0.4-1.2c0-0.6,0.2-1,0.7-1.3s1.1-0.5,1.9-0.5s1.5,0.2,2.2,0.5l-0.5,1.1c-0.7-0.3-1.3-0.4-1.8-0.4
				c-0.7,0-1.1,0.2-1.1,0.6c0,0.2,0.1,0.4,0.3,0.5c0.2,0.1,0.6,0.3,1.3,0.6c0.6,0.2,1,0.4,1.2,0.6c0.3,0.2,0.4,0.4,0.6,0.6
				C428.5,93.4,428.6,93.7,428.6,94z"/>
			<path class="st10" d="M439,95.9h-1.4v-4.1c0-0.5-0.1-0.9-0.3-1.1c-0.2-0.3-0.5-0.4-0.9-0.4c-0.5,0-0.9,0.2-1.2,0.5
				c-0.3,0.4-0.4,0.9-0.4,1.8V96h-1.4v-6.7h1.1l0.2,0.9h0.1c0.2-0.3,0.5-0.6,0.8-0.7c0.4-0.2,0.7-0.3,1.2-0.3c1,0,1.7,0.4,2,1.1h0.1
				c0.2-0.3,0.5-0.6,0.8-0.8c0.4-0.2,0.8-0.3,1.2-0.3c0.8,0,1.4,0.2,1.7,0.6c0.4,0.4,0.5,1,0.5,1.8V96h-1.4v-4.1
				c0-0.5-0.1-0.9-0.3-1.1c-0.2-0.3-0.5-0.4-0.9-0.4c-0.6,0-1,0.2-1.2,0.5c-0.3,0.3-0.4,0.9-0.4,1.6L439,95.9L439,95.9z"/>
			<path class="st10" d="M448.1,96c-1,0-1.9-0.3-2.4-0.9c-0.6-0.6-0.9-1.4-0.9-2.5s0.3-1.9,0.8-2.6c0.5-0.6,1.3-0.9,2.2-0.9
				c0.9,0,1.6,0.3,2.1,0.8s0.8,1.3,0.8,2.2v0.8h-4.5c0,0.6,0.2,1.1,0.5,1.5c0.3,0.3,0.8,0.5,1.4,0.5c0.4,0,0.8,0,1.1-0.1
				s0.7-0.2,1.1-0.4v1.2c-0.3,0.2-0.7,0.3-1.1,0.4C449,96,448.5,96,448.1,96z M447.9,90.1c-0.5,0-0.8,0.1-1.1,0.4
				c-0.3,0.3-0.4,0.7-0.5,1.3h3c0-0.6-0.1-1-0.4-1.3C448.6,90.3,448.4,90.1,447.9,90.1z"/>
			<path class="st10" d="M453.7,95.9h-1.4v-9.4h1.4V95.9z"/>
			<path class="st10" d="M461.6,95.9h-1.4v-4.1c0-0.5-0.1-0.9-0.3-1.2c-0.2-0.3-0.5-0.4-1-0.4c-0.6,0-1,0.2-1.3,0.5
				c-0.3,0.4-0.4,1-0.4,1.8v3.3h-1.4v-9.4h1.4v2.4c0,0.4,0,0.8-0.1,1.2h0.1c0.2-0.3,0.5-0.6,0.8-0.7s0.7-0.3,1.2-0.3
				c1.6,0,2.4,0.8,2.4,2.4L461.6,95.9L461.6,95.9z"/>
			<path class="st10" d="M469.5,92.5c0,1.1-0.3,1.9-0.8,2.6c-0.6,0.6-1.3,0.9-2.3,0.9c-0.6,0-1.2-0.1-1.7-0.4s-0.8-0.7-1.1-1.2
				c-0.3-0.5-0.4-1.1-0.4-1.8c0-1.1,0.3-1.9,0.8-2.5c0.6-0.6,1.3-0.9,2.3-0.9s1.7,0.3,2.3,0.9C469.2,90.6,469.5,91.5,469.5,92.5z
				 M464.7,92.5c0,1.5,0.6,2.3,1.7,2.3s1.7-0.8,1.7-2.3s-0.6-2.3-1.7-2.3c-0.6,0-1,0.2-1.3,0.6C464.9,91.2,464.7,91.8,464.7,92.5z"
				/>
			<path class="st10" d="M474.5,89.1c0.3,0,0.5,0,0.7,0.1l-0.1,1.3c-0.2,0-0.4-0.1-0.6-0.1c-0.6,0-1,0.2-1.4,0.6s-0.5,0.9-0.5,1.4
				v3.5h-1.4v-6.7h1.1l0.2,1.2h0.1c0.2-0.4,0.5-0.7,0.9-0.9C473.7,89.2,474.1,89.1,474.5,89.1z"/>
			<path class="st10" d="M479.5,96c-1,0-1.9-0.3-2.4-0.9c-0.6-0.6-0.9-1.4-0.9-2.5s0.3-1.9,0.8-2.6c0.5-0.6,1.3-0.9,2.2-0.9
				c0.9,0,1.6,0.3,2.1,0.8s0.8,1.3,0.8,2.2v0.8h-4.5c0,0.6,0.2,1.1,0.5,1.5c0.3,0.3,0.8,0.5,1.4,0.5c0.4,0,0.8,0,1.1-0.1
				s0.7-0.2,1.1-0.4v1.2c-0.3,0.2-0.7,0.3-1.1,0.4C480.4,96,480,96,479.5,96z M479.1,90.1c-0.5,0-0.8,0.1-1.1,0.4
				c-0.3,0.3-0.4,0.7-0.5,1.3h3c0-0.6-0.1-1-0.4-1.3C480,90.3,479.6,90.1,479.1,90.1z"/>
			<path class="st10" d="M488.1,94c0,0.7-0.2,1.2-0.7,1.5s-1.2,0.5-2,0.5c-0.9,0-1.6-0.1-2.1-0.4v-1.2c0.8,0.4,1.5,0.5,2.2,0.5
				c0.9,0,1.3-0.3,1.3-0.8c0-0.2,0-0.3-0.1-0.4s-0.3-0.2-0.5-0.4c-0.2-0.1-0.5-0.3-0.9-0.4c-0.8-0.3-1.3-0.6-1.6-0.9
				c-0.3-0.3-0.4-0.7-0.4-1.2c0-0.6,0.2-1,0.7-1.3s1.1-0.5,1.9-0.5s1.5,0.2,2.2,0.5l-0.5,1.1c-0.7-0.3-1.3-0.4-1.8-0.4
				c-0.7,0-1.1,0.2-1.1,0.6c0,0.2,0.1,0.4,0.3,0.5c0.2,0.1,0.6,0.3,1.3,0.6c0.6,0.2,1,0.4,1.2,0.6c0.3,0.2,0.4,0.4,0.6,0.6
				C488,93.4,488.1,93.7,488.1,94z"/>
			<path class="st10" d="M250.6,110.8c-0.8,0-1.5-0.3-2-0.9h-0.1c0.1,0.6,0.1,0.9,0.1,1v2.7h-1.4V104h1.1c0,0.1,0.1,0.4,0.2,0.9h0.1
				c0.4-0.7,1.1-1,2-1c0.8,0,1.5,0.3,1.9,0.9c0.5,0.6,0.7,1.5,0.7,2.5s-0.2,1.9-0.7,2.6C252.1,110.5,251.5,110.8,250.6,110.8z
				 M250.4,105.1c-0.6,0-1,0.2-1.2,0.5c-0.3,0.3-0.4,0.9-0.4,1.6v0.2c0,0.8,0.1,1.4,0.4,1.8s0.7,0.5,1.3,0.5c0.5,0,0.9-0.2,1.1-0.6
				c0.3-0.4,0.4-1,0.4-1.7s-0.1-1.3-0.4-1.7C251.2,105.3,250.9,105.1,250.4,105.1z"/>
			<path class="st10" d="M254.9,102.3c0-0.3,0.1-0.4,0.2-0.6c0.1-0.1,0.3-0.2,0.6-0.2c0.2,0,0.4,0.1,0.6,0.2
				c0.1,0.1,0.2,0.3,0.2,0.6c0,0.2-0.1,0.4-0.2,0.6c-0.1,0.1-0.3,0.2-0.6,0.2c-0.3,0-0.5-0.1-0.6-0.2
				C255,102.7,254.9,102.5,254.9,102.3z M256.5,110.7h-1.4V104h1.4V110.7z"/>
			<path class="st10" d="M262.9,110.7h-5.1v-0.9l3.4-4.7H258V104h4.8v1l-3.3,4.6h3.4L262.9,110.7L262.9,110.7z"/>
			<path class="st10" d="M268.9,110.7h-5.1v-0.9l3.4-4.7H264V104h4.8v1l-3.3,4.6h3.4L268.9,110.7L268.9,110.7z"/>
			<path class="st10" d="M274.5,110.7l-0.3-0.9l0,0c-0.3,0.4-0.6,0.7-1,0.8s-0.7,0.2-1.3,0.2c-0.7,0-1.2-0.2-1.5-0.5
				c-0.4-0.4-0.6-0.9-0.6-1.5c0-0.7,0.3-1.2,0.8-1.6c0.5-0.3,1.3-0.5,2.3-0.6h1.2v-0.4c0-0.4-0.1-0.7-0.3-1
				c-0.2-0.2-0.5-0.3-0.9-0.3c-0.3,0-0.7,0.1-1,0.2s-0.6,0.2-0.9,0.4l-0.5-1c0.4-0.2,0.8-0.3,1.2-0.4c0.4-0.1,0.8-0.1,1.2-0.1
				c0.8,0,1.5,0.2,1.9,0.6s0.6,1,0.6,1.7v4.5L274.5,110.7L274.5,110.7z M272.4,109.8c0.5,0,0.9-0.1,1.2-0.4c0.3-0.3,0.5-0.7,0.5-1.2
				v-0.6h-0.9c-0.7,0-1.2,0.1-1.5,0.3c-0.3,0.2-0.5,0.5-0.5,0.9c0,0.3,0.1,0.5,0.3,0.7C271.7,109.7,272,109.8,272.4,109.8z"/>
			<path class="st10" d="M280.9,103.9c0.3,0,0.5,0,0.7,0.1l-0.1,1.3c-0.2,0-0.4-0.1-0.6-0.1c-0.6,0-1,0.2-1.4,0.6s-0.5,0.9-0.5,1.4
				v3.5h-1.4V104h1.1l0.2,1.2h0.1c0.2-0.4,0.5-0.7,0.9-0.9C280,104,280.5,103.9,280.9,103.9z"/>
			<path class="st10" d="M282.6,102.3c0-0.3,0.1-0.4,0.2-0.6c0.1-0.1,0.3-0.2,0.6-0.2c0.2,0,0.4,0.1,0.6,0.2
				c0.1,0.1,0.2,0.3,0.2,0.6c0,0.2-0.1,0.4-0.2,0.6c-0.1,0.1-0.3,0.2-0.6,0.2c-0.3,0-0.5-0.1-0.6-0.2
				C282.7,102.7,282.6,102.5,282.6,102.3z M284.1,110.7h-1.4V104h1.4V110.7z"/>
			<path class="st10" d="M290.5,110.7l-0.3-0.9l0,0c-0.3,0.4-0.6,0.7-1,0.8s-0.7,0.2-1.3,0.2c-0.7,0-1.2-0.2-1.5-0.5
				c-0.4-0.4-0.6-0.9-0.6-1.5c0-0.7,0.3-1.2,0.8-1.6c0.5-0.3,1.3-0.5,2.3-0.6h1.2v-0.4c0-0.4-0.1-0.7-0.3-1
				c-0.2-0.2-0.5-0.3-0.9-0.3c-0.3,0-0.7,0.1-1,0.2s-0.6,0.2-0.9,0.4l-0.5-1c0.4-0.2,0.8-0.3,1.2-0.4c0.4-0.1,0.8-0.1,1.2-0.1
				c0.8,0,1.5,0.2,1.9,0.6s0.6,1,0.6,1.7v4.5L290.5,110.7L290.5,110.7z M288.2,109.8c0.5,0,0.9-0.1,1.2-0.4c0.3-0.3,0.5-0.7,0.5-1.2
				v-0.6h-0.8c-0.7,0-1.2,0.1-1.5,0.3c-0.3,0.2-0.5,0.5-0.5,0.9c0,0.3,0.1,0.5,0.3,0.7C287.6,109.7,288,109.8,288.2,109.8z"/>
			<path class="st10" d="M297.9,108.8c0,0.7-0.2,1.2-0.7,1.5s-1.2,0.5-2,0.5c-0.9,0-1.6-0.1-2.1-0.4v-1.2c0.8,0.4,1.5,0.5,2.2,0.5
				c0.9,0,1.3-0.3,1.3-0.8c0-0.2,0-0.3-0.1-0.4s-0.3-0.2-0.5-0.4c-0.2-0.1-0.5-0.3-0.9-0.4c-0.8-0.3-1.3-0.6-1.6-0.9
				c-0.3-0.3-0.4-0.7-0.4-1.2c0-0.6,0.2-1,0.7-1.3s1.1-0.5,1.9-0.5s1.5,0.2,2.2,0.5l-0.5,1.1c-0.7-0.3-1.3-0.4-1.8-0.4
				c-0.7,0-1.1,0.2-1.1,0.6c0,0.2,0.1,0.4,0.3,0.5c0.2,0.1,0.6,0.3,1.3,0.6c0.6,0.2,1,0.4,1.2,0.6s0.4,0.4,0.6,0.6
				C297.9,108.2,297.9,108.5,297.9,108.8z"/>
			<path class="st10" d="M304.9,110.8c-0.8,0-1.5-0.3-2-0.9s-0.7-1.5-0.7-2.5c0-1.1,0.2-1.9,0.7-2.6c0.5-0.6,1.1-0.9,2-0.9
				s1.5,0.3,2,1h0.1c-0.1-0.5-0.1-0.9-0.1-1.1v-2.4h1.4v9.4h-1l-0.2-0.9H307C306.5,110.5,305.7,110.8,304.9,110.8z M305.2,109.7
				c0.6,0,1-0.2,1.3-0.5s0.4-0.9,0.4-1.6v-0.2c0-0.8-0.1-1.4-0.4-1.8s-0.7-0.5-1.3-0.5c-0.5,0-0.9,0.2-1.2,0.6
				c-0.3,0.4-0.4,1-0.4,1.7s0.1,1.3,0.4,1.7C304.4,109.5,304.7,109.7,305.2,109.7z"/>
			<path class="st10" d="M313.2,110.8c-1,0-1.9-0.3-2.4-0.9c-0.6-0.6-0.9-1.4-0.9-2.5s0.3-1.9,0.8-2.6c0.5-0.6,1.3-0.9,2.2-0.9
				c0.9,0,1.6,0.3,2.1,0.8s0.8,1.3,0.8,2.2v0.8h-4.5c0,0.6,0.2,1.1,0.5,1.5c0.3,0.3,0.8,0.5,1.4,0.5c0.4,0,0.8,0,1.1-0.1
				c0.3-0.1,0.7-0.2,1.1-0.4v1.2c-0.3,0.2-0.7,0.3-1.1,0.4C314.1,110.8,313.7,110.8,313.2,110.8z M313,105c-0.5,0-0.8,0.1-1.1,0.4
				c-0.3,0.3-0.4,0.7-0.5,1.2h3c0-0.6-0.1-1-0.4-1.3C313.9,105.1,313.5,105,313,105z"/>
			<path class="st10" d="M322.2,110.7h-1.4v-8.8h5v1.2h-3.6v2.8h3.3v1.2h-3.3V110.7z"/>
			<path class="st10" d="M333.1,107.4c0,1.1-0.3,1.9-0.8,2.6c-0.6,0.6-1.3,0.9-2.3,0.9c-0.6,0-1.2-0.1-1.7-0.4s-0.8-0.7-1.1-1.2
				c-0.3-0.5-0.4-1.1-0.4-1.8c0-1.1,0.3-1.9,0.8-2.5c0.6-0.6,1.3-0.9,2.3-0.9s1.7,0.3,2.3,0.9C333,105.5,333.1,106.3,333.1,107.4z
				 M328.4,107.4c0,1.5,0.6,2.3,1.7,2.3s1.7-0.8,1.7-2.3s-0.6-2.3-1.7-2.3c-0.6,0-1,0.2-1.3,0.6
				C328.5,106.1,328.4,106.6,328.4,107.4z"/>
			<path class="st10" d="M338.2,103.9c0.3,0,0.5,0,0.7,0.1l-0.1,1.3c-0.2,0-0.4-0.1-0.6-0.1c-0.6,0-1,0.2-1.4,0.6s-0.5,0.9-0.5,1.4
				v3.5h-1.4V104h1.1l0.2,1.2h0.1c0.2-0.4,0.5-0.7,0.9-0.9C337.5,104,337.9,103.9,338.2,103.9z"/>
			<path class="st10" d="M345.7,110.7h-1.4v-4.1c0-0.5-0.1-0.9-0.3-1.1c-0.2-0.3-0.5-0.4-0.9-0.4c-0.5,0-0.9,0.2-1.2,0.5
				c-0.3,0.4-0.4,0.9-0.4,1.8v3.3h-1.4V104h1.1l0.2,0.9h0.1c0.2-0.3,0.5-0.6,0.8-0.7c0.4-0.2,0.7-0.3,1.2-0.3c1,0,1.7,0.4,2,1.1h0.1
				c0.2-0.3,0.5-0.6,0.8-0.8c0.4-0.2,0.8-0.3,1.2-0.3c0.8,0,1.4,0.2,1.7,0.6c0.4,0.4,0.5,1,0.5,1.8v4.4h-1.4v-4.1
				c0-0.5-0.1-0.9-0.3-1.1c-0.2-0.3-0.5-0.4-0.9-0.4c-0.6,0-1,0.2-1.2,0.5c-0.3,0.3-0.4,0.9-0.4,1.6L345.7,110.7L345.7,110.7z"/>
			<path class="st10" d="M358,107.4c0,1.1-0.3,1.9-0.8,2.6c-0.6,0.6-1.3,0.9-2.3,0.9c-0.6,0-1.2-0.1-1.7-0.4s-0.8-0.7-1.1-1.2
				c-0.3-0.5-0.4-1.1-0.4-1.8c0-1.1,0.3-1.9,0.8-2.5c0.6-0.6,1.3-0.9,2.3-0.9s1.7,0.3,2.3,0.9C357.6,105.5,358,106.3,358,107.4z
				 M353,107.4c0,1.5,0.6,2.3,1.7,2.3s1.7-0.8,1.7-2.3s-0.6-2.3-1.7-2.3c-0.6,0-1,0.2-1.3,0.6C353.1,106.1,353,106.6,353,107.4z"/>
			<path class="st10" d="M364,108.8c0,0.7-0.2,1.2-0.7,1.5s-1.2,0.5-2,0.5c-0.9,0-1.6-0.1-2.1-0.4v-1.2c0.8,0.4,1.5,0.5,2.2,0.5
				c0.9,0,1.3-0.3,1.3-0.8c0-0.2,0-0.3-0.1-0.4s-0.3-0.2-0.5-0.4c-0.2-0.1-0.5-0.3-0.9-0.4c-0.8-0.3-1.3-0.6-1.6-0.9
				c-0.3-0.3-0.4-0.7-0.4-1.2c0-0.6,0.2-1,0.7-1.3s1.1-0.5,1.9-0.5s1.5,0.2,2.2,0.5l-0.5,1.1c-0.7-0.3-1.3-0.4-1.8-0.4
				c-0.7,0-1.1,0.2-1.1,0.6c0,0.2,0.1,0.4,0.3,0.5c0.2,0.1,0.6,0.3,1.3,0.6c0.6,0.2,1,0.4,1.2,0.6c0.3,0.2,0.4,0.4,0.6,0.6
				C364,108.2,364,108.5,364,108.8z"/>
			<path class="st10" d="M369.7,110.7l-0.3-0.9l0,0c-0.3,0.4-0.6,0.7-1,0.8s-0.7,0.2-1.3,0.2c-0.7,0-1.2-0.2-1.5-0.5
				c-0.4-0.4-0.6-0.9-0.6-1.5c0-0.7,0.3-1.2,0.8-1.6c0.5-0.3,1.3-0.5,2.3-0.6h1.2v-0.4c0-0.4-0.1-0.7-0.3-1
				c-0.2-0.2-0.5-0.3-0.9-0.3c-0.3,0-0.7,0.1-1,0.2s-0.6,0.2-0.9,0.4l-0.5-1c0.4-0.2,0.8-0.3,1.2-0.4c0.4-0.1,0.8-0.1,1.2-0.1
				c0.9,0,1.5,0.2,1.9,0.6s0.6,1,0.6,1.7v4.5L369.7,110.7L369.7,110.7z M367.6,109.8c0.5,0,0.9-0.1,1.2-0.4s0.5-0.7,0.5-1.2v-0.6
				h-0.9c-0.7,0-1.2,0.1-1.5,0.3c-0.3,0.2-0.5,0.5-0.5,0.9c0,0.3,0.1,0.5,0.3,0.7C367,109.7,367.2,109.8,367.6,109.8z"/>
			<path class="st10" d="M378.9,110.8c-1,0-1.9-0.3-2.4-0.9c-0.6-0.6-0.9-1.4-0.9-2.5s0.3-1.9,0.8-2.6c0.5-0.6,1.3-0.9,2.2-0.9
				c0.9,0,1.6,0.3,2.1,0.8s0.8,1.3,0.8,2.2v0.8H377c0,0.6,0.2,1.1,0.5,1.5c0.3,0.3,0.8,0.5,1.4,0.5c0.4,0,0.8,0,1.1-0.1
				c0.3-0.1,0.7-0.2,1.1-0.4v1.2c-0.3,0.2-0.7,0.3-1.1,0.4C379.7,110.8,379.4,110.8,378.9,110.8z M378.6,105c-0.5,0-0.8,0.1-1.1,0.4
				c-0.3,0.3-0.4,0.7-0.5,1.2h3c0-0.6-0.1-1-0.4-1.3C379.5,105.1,379,105,378.6,105z"/>
			<path class="st10" d="M390.5,110.7l-0.3-0.9l0,0c-0.3,0.4-0.6,0.7-1,0.8c-0.3,0.1-0.7,0.2-1.3,0.2c-0.7,0-1.2-0.2-1.5-0.5
				c-0.4-0.4-0.6-0.9-0.6-1.5c0-0.7,0.3-1.2,0.8-1.6c0.5-0.3,1.3-0.5,2.3-0.6h1.2v-0.4c0-0.4-0.1-0.7-0.3-1
				c-0.2-0.2-0.5-0.3-0.9-0.3c-0.3,0-0.7,0.1-1,0.2s-0.6,0.2-0.9,0.4l-0.5-1c0.4-0.2,0.8-0.3,1.2-0.4c0.4-0.1,0.8-0.1,1.2-0.1
				c0.9,0,1.5,0.2,1.9,0.6s0.6,1,0.6,1.7v4.5L390.5,110.7L390.5,110.7z M388.4,109.8c0.5,0,0.9-0.1,1.2-0.4s0.5-0.7,0.5-1.2v-0.6
				h-0.9c-0.7,0-1.2,0.1-1.5,0.3c-0.3,0.2-0.5,0.5-0.5,0.9c0,0.3,0.1,0.5,0.3,0.7C387.7,109.7,388,109.8,388.4,109.8z"/>
			<path class="st10" d="M396.9,110.8c-0.8,0-1.5-0.3-2-0.9h-0.1c0.1,0.6,0.1,0.9,0.1,1v2.7h-1.4V104h1.1c0,0.1,0.1,0.4,0.2,0.9h0.1
				c0.4-0.7,1.1-1,2-1c0.8,0,1.5,0.3,1.9,0.9c0.5,0.6,0.7,1.5,0.7,2.5s-0.2,1.9-0.7,2.6C398.4,110.5,397.7,110.8,396.9,110.8z
				 M396.5,105.1c-0.6,0-1,0.2-1.2,0.5c-0.3,0.3-0.4,0.9-0.4,1.6v0.2c0,0.8,0.1,1.4,0.4,1.8s0.7,0.5,1.3,0.5c0.5,0,0.9-0.2,1.1-0.6
				c0.3-0.4,0.4-1,0.4-1.7s-0.1-1.3-0.4-1.7C397.5,105.3,397,105.1,396.5,105.1z"/>
			<path class="st10" d="M404.5,103.9c0.3,0,0.5,0,0.7,0.1l-0.1,1.3c-0.2,0-0.4-0.1-0.6-0.1c-0.6,0-1,0.2-1.4,0.6s-0.5,0.9-0.5,1.4
				v3.5h-1.4V104h1.1l0.2,1.2h0.1c0.2-0.4,0.5-0.7,0.9-0.9C403.7,104,404.1,103.9,404.5,103.9z"/>
			<path class="st10" d="M412.5,107.4c0,1.1-0.3,1.9-0.8,2.6c-0.6,0.6-1.3,0.9-2.3,0.9c-0.6,0-1.2-0.1-1.7-0.4s-0.8-0.7-1.1-1.2
				c-0.3-0.5-0.4-1.1-0.4-1.8c0-1.1,0.3-1.9,0.8-2.5c0.6-0.6,1.3-0.9,2.3-0.9s1.7,0.3,2.3,0.9C412.1,105.5,412.5,106.3,412.5,107.4z
				 M407.5,107.4c0,1.5,0.6,2.3,1.7,2.3s1.7-0.8,1.7-2.3s-0.6-2.3-1.7-2.3c-0.6,0-1,0.2-1.3,0.6
				C407.7,106.1,407.5,106.6,407.5,107.4z"/>
			<path class="st10" d="M415.6,110.7l-2.5-6.7h1.5l1.4,3.9c0.2,0.7,0.4,1.2,0.4,1.6l0,0c0-0.3,0.2-0.8,0.4-1.6l1.4-3.9h1.5
				l-2.5,6.7H415.6z"/>
			<path class="st10" d="M423.6,110.8c-1,0-1.9-0.3-2.4-0.9c-0.6-0.6-0.9-1.4-0.9-2.5s0.3-1.9,0.8-2.6c0.5-0.6,1.3-0.9,2.2-0.9
				c0.9,0,1.6,0.3,2.1,0.8s0.8,1.3,0.8,2.2v0.8h-4.5c0,0.6,0.2,1.1,0.5,1.5c0.3,0.3,0.8,0.5,1.4,0.5c0.4,0,0.8,0,1.1-0.1
				s0.7-0.2,1.1-0.4v1.2c-0.3,0.2-0.7,0.3-1.1,0.4C424.5,110.8,424,110.8,423.6,110.8z M423.4,105c-0.5,0-0.8,0.1-1.1,0.4
				c-0.3,0.3-0.4,0.7-0.5,1.2h3c0-0.6-0.1-1-0.4-1.3C424.1,105.1,423.9,105,423.4,105z"/>
			<path class="st10" d="M427.7,102.3c0-0.3,0.1-0.4,0.2-0.6s0.3-0.2,0.6-0.2c0.2,0,0.4,0.1,0.6,0.2s0.2,0.3,0.2,0.6
				c0,0.2-0.1,0.4-0.2,0.6s-0.3,0.2-0.6,0.2c-0.3,0-0.5-0.1-0.6-0.2S427.7,102.5,427.7,102.3z M429.2,110.7h-1.4V104h1.4V110.7z"/>
			<path class="st10" d="M433.7,109.7c0.3,0,0.7-0.1,1-0.2v1.1c-0.2,0.1-0.4,0.1-0.6,0.2c-0.2,0-0.5,0.1-0.8,0.1c-1.3,0-2-0.7-2-2.1
				v-3.6h-0.9v-0.6l1-0.5l0.5-1.4h0.9v1.5h1.9v1.1h-1.9v3.6c0,0.3,0.1,0.6,0.3,0.8C433.2,109.6,433.5,109.7,433.7,109.7z"/>
			<path class="st10" d="M439,110.8c-1,0-1.9-0.3-2.4-0.9c-0.6-0.6-0.9-1.4-0.9-2.5s0.3-1.9,0.8-2.6c0.5-0.6,1.3-0.9,2.2-0.9
				c0.9,0,1.6,0.3,2.1,0.8s0.8,1.3,0.8,2.2v0.8h-4.4c0,0.6,0.2,1.1,0.5,1.5c0.3,0.3,0.8,0.5,1.4,0.5c0.4,0,0.8,0,1.1-0.1
				s0.7-0.2,1.1-0.4v1.2c-0.3,0.2-0.7,0.3-1.1,0.4C440,110.8,439.5,110.8,439,110.8z M438.9,105c-0.5,0-0.8,0.1-1.1,0.4
				c-0.3,0.3-0.4,0.7-0.5,1.2h3c0-0.6-0.1-1-0.4-1.3C439.6,105.1,439.2,105,438.9,105z"/>
			<path class="st10" d="M452.5,107.4c0,1.1-0.3,1.9-0.8,2.6c-0.6,0.6-1.3,0.9-2.3,0.9c-0.6,0-1.2-0.1-1.7-0.4s-0.8-0.7-1.1-1.2
				c-0.3-0.5-0.4-1.1-0.4-1.8c0-1.1,0.3-1.9,0.8-2.5c0.6-0.6,1.3-0.9,2.3-0.9s1.7,0.3,2.3,0.9C452.1,105.5,452.5,106.3,452.5,107.4z
				 M447.5,107.4c0,1.5,0.6,2.3,1.7,2.3s1.7-0.8,1.7-2.3s-0.6-2.3-1.7-2.3c-0.6,0-1,0.2-1.3,0.6
				C447.6,106.1,447.5,106.6,447.5,107.4z"/>
			<path class="st10" d="M458.5,108.8c0,0.7-0.2,1.2-0.7,1.5s-1.2,0.5-2,0.5c-0.9,0-1.6-0.1-2.1-0.4v-1.2c0.8,0.4,1.5,0.5,2.2,0.5
				c0.9,0,1.3-0.3,1.3-0.8c0-0.2,0-0.3-0.1-0.4s-0.3-0.2-0.5-0.4c-0.2-0.1-0.5-0.3-0.9-0.4c-0.8-0.3-1.3-0.6-1.6-0.9
				c-0.3-0.3-0.4-0.7-0.4-1.2c0-0.6,0.2-1,0.7-1.3s1.1-0.5,1.9-0.5s1.5,0.2,2.2,0.5l-0.5,1.1c-0.7-0.3-1.3-0.4-1.8-0.4
				c-0.7,0-1.1,0.2-1.1,0.6c0,0.2,0.1,0.4,0.3,0.5c0.2,0.1,0.6,0.3,1.3,0.6c0.6,0.2,1,0.4,1.2,0.6c0.3,0.2,0.4,0.4,0.6,0.6
				C458.5,108.2,458.5,108.5,458.5,108.8z"/>
			<path class="st10" d="M249.6,125.7c-0.8,0-1.5-0.3-2-0.9s-0.7-1.5-0.7-2.5c0-1.1,0.2-1.9,0.7-2.6c0.5-0.6,1.1-0.9,2-0.9
				s1.5,0.3,2,1h0.1c-0.1-0.5-0.1-0.9-0.1-1.1v-2.4h1.4v9.4h-1.1l-0.2-0.9h-0.1C251.1,125.4,250.5,125.7,249.6,125.7z M250,124.5
				c0.6,0,1-0.2,1.3-0.5s0.4-0.9,0.4-1.6v-0.2c0-0.8-0.1-1.4-0.4-1.8s-0.7-0.5-1.3-0.5c-0.5,0-0.9,0.2-1.2,0.6s-0.4,1-0.4,1.7
				s0.1,1.3,0.4,1.7C249,124.4,249.4,124.5,250,124.5z"/>
			<path class="st10" d="M257.9,125.7c-1,0-1.9-0.3-2.4-0.9c-0.6-0.6-0.9-1.4-0.9-2.5s0.3-1.9,0.8-2.6c0.5-0.6,1.3-0.9,2.2-0.9
				s1.6,0.3,2.1,0.8s0.8,1.3,0.8,2.2v0.8H256c0,0.6,0.2,1.1,0.5,1.5c0.3,0.3,0.8,0.5,1.4,0.5c0.4,0,0.8,0,1.1-0.1
				c0.3-0.1,0.7-0.2,1.1-0.4v1.2c-0.3,0.2-0.7,0.3-1.1,0.4C258.7,125.7,258.4,125.7,257.9,125.7z M257.6,119.8
				c-0.5,0-0.8,0.1-1.1,0.4c-0.3,0.3-0.4,0.7-0.5,1.2h3c0-0.6-0.1-1-0.4-1.3C258.5,120,258,119.8,257.6,119.8z"/>
			<path class="st10" d="M266.5,123.7c0,0.7-0.2,1.2-0.7,1.5s-1.2,0.5-2,0.5c-0.9,0-1.6-0.1-2.1-0.4v-1.2c0.8,0.4,1.5,0.5,2.2,0.5
				c0.9,0,1.3-0.3,1.3-0.8c0-0.2,0-0.3-0.1-0.4s-0.3-0.2-0.5-0.4c-0.2-0.1-0.5-0.3-0.9-0.4c-0.8-0.3-1.3-0.6-1.6-0.9
				c-0.3-0.3-0.4-0.7-0.4-1.2c0-0.6,0.2-1,0.7-1.3s1.1-0.5,1.9-0.5s1.5,0.2,2.2,0.5l-0.5,1.1c-0.7-0.3-1.3-0.4-1.8-0.4
				c-0.7,0-1.1,0.2-1.1,0.6c0,0.2,0.1,0.4,0.3,0.5c0.2,0.1,0.6,0.3,1.3,0.6c0.6,0.2,1,0.4,1.2,0.6s0.4,0.4,0.6,0.6
				C266.5,123.1,266.5,123.3,266.5,123.7z"/>
			<path class="st10" d="M270.9,125.7c-1,0-1.8-0.3-2.3-0.9s-0.8-1.4-0.8-2.5s0.3-2,0.8-2.6c0.6-0.6,1.3-0.9,2.4-0.9
				c0.7,0,1.3,0.1,1.9,0.4l-0.4,1.1c-0.6-0.2-1.1-0.3-1.5-0.3c-1.2,0-1.7,0.8-1.7,2.3c0,0.7,0.1,1.3,0.4,1.7
				c0.3,0.4,0.7,0.6,1.3,0.6c0.6,0,1.2-0.2,1.8-0.5v1.2c-0.3,0.1-0.5,0.3-0.8,0.3C271.5,125.7,271.2,125.7,270.9,125.7z"/>
			<path class="st10" d="M280.1,122.2c0,1.1-0.3,1.9-0.8,2.6c-0.6,0.6-1.3,0.9-2.3,0.9c-0.6,0-1.2-0.1-1.7-0.4s-0.8-0.7-1.1-1.2
				s-0.4-1.1-0.4-1.8c0-1.1,0.3-1.9,0.8-2.5c0.6-0.6,1.3-0.9,2.3-0.9s1.7,0.3,2.3,0.9C280,120.3,280.1,121.2,280.1,122.2z
				 M275.4,122.2c0,1.5,0.6,2.3,1.7,2.3s1.7-0.8,1.7-2.3s-0.6-2.3-1.7-2.3c-0.6,0-1,0.2-1.3,0.6
				C275.5,120.9,275.4,121.5,275.4,122.2z"/>
			<path class="st10" d="M287.6,125.6h-1.4v-4.1c0-0.5-0.1-0.9-0.3-1.2c-0.2-0.3-0.5-0.4-1-0.4c-0.6,0-1,0.2-1.3,0.5
				c-0.3,0.4-0.4,0.9-0.4,1.8v3.3h-1.4v-6.7h1.1l0.2,0.9h0.1c0.2-0.3,0.5-0.6,0.9-0.7c0.4-0.2,0.8-0.3,1.2-0.3
				c1.6,0,2.4,0.8,2.4,2.4v4.5L287.6,125.6L287.6,125.6z"/>
			<path class="st10" d="M292.1,124.5c0.3,0,0.7-0.1,1-0.2v1.1c-0.2,0.1-0.4,0.1-0.6,0.2c-0.2,0-0.5,0.1-0.8,0.1c-1.3,0-2-0.7-2-2.1
				V120h-0.9v-0.6l1-0.5l0.5-1.4h0.9v1.5h1.9v1.1h-1.9v3.6c0,0.3,0.1,0.6,0.3,0.8C291.6,124.5,291.9,124.5,292.1,124.5z"/>
			<path class="st10" d="M300.5,122.2c0,1.1-0.3,1.9-0.8,2.6c-0.6,0.6-1.3,0.9-2.3,0.9c-0.6,0-1.2-0.1-1.7-0.4s-0.8-0.7-1.1-1.2
				c-0.3-0.5-0.4-1.1-0.4-1.8c0-1.1,0.3-1.9,0.8-2.5c0.6-0.6,1.3-0.9,2.3-0.9s1.7,0.3,2.3,0.9C300.1,120.3,300.5,121.2,300.5,122.2z
				 M295.5,122.2c0,1.5,0.6,2.3,1.7,2.3s1.7-0.8,1.7-2.3s-0.6-2.3-1.7-2.3c-0.6,0-1,0.2-1.3,0.6
				C295.7,120.9,295.5,121.5,295.5,122.2z"/>
			<path class="st10" d="M306.5,123.7c0,0.7-0.2,1.2-0.7,1.5s-1.2,0.5-2,0.5c-0.9,0-1.6-0.1-2.1-0.4v-1.2c0.8,0.4,1.5,0.5,2.2,0.5
				c0.9,0,1.3-0.3,1.3-0.8c0-0.2,0-0.3-0.1-0.4s-0.3-0.2-0.5-0.4c-0.2-0.1-0.5-0.3-0.9-0.4c-0.8-0.3-1.3-0.6-1.6-0.9
				c-0.3-0.3-0.4-0.7-0.4-1.2c0-0.6,0.2-1,0.7-1.3s1.1-0.5,1.9-0.5s1.5,0.2,2.2,0.5l-0.5,1.1c-0.7-0.3-1.3-0.4-1.8-0.4
				c-0.7,0-1.1,0.2-1.1,0.6c0,0.2,0.1,0.4,0.3,0.5c0.2,0.1,0.6,0.3,1.3,0.6c0.6,0.2,1,0.4,1.2,0.6s0.4,0.4,0.6,0.6
				C306.5,123.1,306.5,123.3,306.5,123.7z"/>
			<path class="st10" d="M308,124.8c0-0.3,0.1-0.5,0.2-0.7c0.2-0.2,0.4-0.2,0.7-0.2c0.3,0,0.5,0.1,0.7,0.2c0.2,0.2,0.2,0.4,0.2,0.7
				c0,0.3-0.1,0.5-0.2,0.7c-0.2,0.2-0.4,0.3-0.7,0.3c-0.3,0-0.5-0.1-0.7-0.2C308,125.3,308,125.1,308,124.8z M309.4,122.9h-1.1
				l-0.3-6.2h1.7L309.4,122.9z"/>
		</g>
		<g>
			<g>
				<path class="st11" d="M321.2,42.9c-0.4,0.2-0.9,0.4-1.2,0.7c-2,1.6-2.4,4.6-0.8,6.6c1.5,1.9,4,2.3,6,1.2l3.7,4.7l5.8-4.5
					l-11.4-14.5C321.6,38.6,320.8,40.8,321.2,42.9z"/>
				<path class="st12" d="M337.2,41.9c1.6-1.7,1.7-4.3,0.3-6.1c-1.6-2-4.6-2.4-6.6-0.8c-0.4,0.3-0.7,0.7-1,1
					c-2.1-0.9-4.5-0.6-6.4,0.9c-0.1,0.1-0.2,0.1-0.3,0.2l11.4,14.5l6.3-5L337.2,41.9z"/>
			</g>
			
				<rect x="326.4" y="49.1" transform="matrix(0.7861 -0.6181 0.6181 0.7861 40.3421 217.3031)" class="st13" width="15.4" height="2.6"/>
		</g>
	</g>
</g>
</svg>
