<?xml version="1.0" encoding="utf-8"?>
<!-- Generator: Adobe Illustrator 19.0.0, SVG Export Plug-In . SVG Version: 6.00 Build 0)  -->
<svg version="1.1" id="Camada_1" xmlns="http://www.w3.org/2000/svg" xmlns:xlink="http://www.w3.org/1999/xlink" x="0px" y="0px"
	 viewBox="125 0 450 200" style="enable-background:new 125 0 450 200;" xml:space="preserve">
<style type="text/css">
	.st0{opacity:0.42;fill:#AEC2D1;enable-background:new    ;}
	.st1{fill:#004CBA;}
	.st2{fill:#FFFFFF;}
	.st3{fill:url(#XMLID_2_);}
	.st4{fill:#EFEFEF;}
	.st5{fill:#0059F7;}
	.st6{fill:#E46101;}
	.st7{fill:url(#XMLID_3_);}
	.st8{fill:url(#SVGID_1_);}
	.st9{fill:#F9F9F9;}
	.st10{fill:url(#SVGID_2_);}
	.st11{fill:url(#SVGID_3_);}
</style>
<g>
	<g>
		<g id="XMLID_15_">
			<path id="XMLID_22_" class="st0" d="M543.3,85.8l-4.7-6l0,0l-8.8-11.2c-4.5-5.8-10.8-9.6-17.8-11v-0.4c0-10.8-8.8-19.6-19.6-19.6
				h-209h-18.8h-2.5c-5.8,0-10.5,4.7-10.5,10.5V57H246h-9.1l0,0c-0.1-10.7-8.8-19.4-19.5-19.4h-64.6c-10.8,0-19.5,8.8-19.5,19.6
				v51.3c0,23.4,19,42.4,42.4,42.4H214l0,0h65.4h9.1h213c7.5,9.2,18.9,15.1,31.7,15.1c22.5,0,40.8-18.2,40.8-40.8
				C573.9,106.2,560.9,90.3,543.3,85.8z"/>
			<g id="XMLID_23_">
				<path id="XMLID_21_" class="st1" d="M277.9,32h-23.8c-4.4,0-8,3.6-8,8v30.6h31.8V32z"/>
				<path id="XMLID_20_" class="st2" d="M544.2,107.3l-20,26.1c-5.7,7.5-14.6,11.8-24,11.8H208.4c-23.4,0-42.4-19-42.4-42.4V51.4
					h334.5c9.3,0,18,4.3,23.7,11.6l19.9,25.3C548.4,93.8,548.5,101.7,544.2,107.3z"/>
				<linearGradient id="XMLID_2_" gradientUnits="userSpaceOnUse" x1="273.8" y1="88.65" x2="127.7" y2="88.65">
					<stop  offset="0" style="stop-color:#005494"/>
					<stop  offset="0.4089" style="stop-color:#008BE9"/>
					<stop  offset="1" style="stop-color:#007ED4"/>
				</linearGradient>
				<path id="XMLID_19_" class="st3" d="M231.3,102.9V51.6c0-10.8-8.8-19.6-19.6-19.6h-64.5c-10.8,0-19.5,8.8-19.5,19.6v51.3
					c0,23.4,19,42.4,42.4,42.4h103.7C250.3,145.2,231.3,126.3,231.3,102.9z"/>
				<path id="XMLID_18_" class="st4" d="M282.8,145.2h-9.1c-23.4,0-42.4-19-42.4-42.4V51.4h9.1v51.4
					C240.4,126.3,259.4,145.2,282.8,145.2z"/>
				<path id="XMLID_17_" class="st5" d="M276.1,74.9h216.3c7.8,0,14.1-6.3,14.1-14.1v-9.3c0-10.8-8.8-19.6-19.6-19.6H259.1
					c4,5.5,6.4,12.2,6.4,19.6v12.8C265.5,70.2,270.2,74.9,276.1,74.9z"/>
				<circle id="XMLID_10_" class="st6" cx="527.5" cy="119.6" r="40.8"/>
				<path id="XMLID_9_" class="st4" d="M484.6,114.2c0,12.4,5.6,23.6,14.4,31h1.2c9.4,0,18.3-4.4,24-11.8l20-26.1
					c4.3-5.6,4.3-13.5-0.1-19L533,74.2c-2.5-0.5-5-0.7-7.6-0.7C502.9,73.4,484.6,91.7,484.6,114.2z"/>
				
					<radialGradient id="XMLID_3_" cx="527.5" cy="80.4" r="40.8" gradientTransform="matrix(1 0 0 -1 0 200)" gradientUnits="userSpaceOnUse">
					<stop  offset="2.463054e-002" style="stop-color:#007ED4"/>
					<stop  offset="0.3245" style="stop-color:#007BD2"/>
					<stop  offset="0.5247" style="stop-color:#0072CA"/>
					<stop  offset="0.6957" style="stop-color:#0063BE"/>
					<stop  offset="0.8493" style="stop-color:#004EAC"/>
					<stop  offset="0.9918" style="stop-color:#003396"/>
					<stop  offset="1" style="stop-color:#003194"/>
				</radialGradient>
				<circle id="XMLID_7_" class="st7" cx="527.5" cy="119.6" r="40.8"/>
				<path id="XMLID_28_" class="st2" d="M527.5,85.9c-18.6,0-33.7,15.1-33.7,33.7s15.1,33.7,33.7,33.7c18.6,0,33.7-15.1,33.7-33.7
					S546.1,85.9,527.5,85.9z M527.5,149c-16.2,0-29.4-13.2-29.4-29.4s13.2-29.4,29.4-29.4c16.2,0,29.4,13.2,29.4,29.4
					C556.9,135.9,543.7,149,527.5,149z"/>
				<g>
					<path class="st2" d="M340.7,53.4c0,4.1-1.1,7.3-3.4,9.5c-2.3,2.2-5.6,3.3-9.9,3.3h-7v-25h7.7c4,0,7.1,1.1,9.3,3.2
						C339.6,46.5,340.7,49.6,340.7,53.4z M336.4,53.6c0-6-2.8-9-8.4-9h-3.5v18.1h2.9C333.4,62.7,336.4,59.7,336.4,53.6z"/>
					<path class="st2" d="M353.9,66.5c-2.9,0-5.2-0.9-6.9-2.6c-1.7-1.7-2.5-4.1-2.5-7.1c0-3.1,0.8-5.5,2.3-7.3s3.7-2.6,6.3-2.6
						c2.5,0,4.5,0.8,5.9,2.3s2.2,3.6,2.2,6.3v2.2h-12.6c0.1,1.8,0.6,3.2,1.5,4.2s2.3,1.5,3.9,1.5c1.1,0,2.2-0.1,3.1-0.3
						c1-0.2,2-0.6,3.1-1.1v3.3c-1,0.5-2,0.8-3,1C356.3,66.4,355.2,66.5,353.9,66.5z M353.1,50c-1.3,0-2.3,0.4-3.1,1.2
						c-0.8,0.8-1.2,2-1.4,3.5h8.6c0-1.6-0.4-2.7-1.1-3.5S354.4,50,353.1,50z"/>
					<path class="st2" d="M382.4,66.2h-4V54.5c0-1.5-0.3-2.5-0.9-3.3c-0.6-0.7-1.5-1.1-2.8-1.1c-1.7,0-2.9,0.5-3.7,1.5
						c-0.8,1-1.2,2.7-1.2,5V66h-4V47.3h3.1l0.6,2.5h0.2c0.6-0.9,1.4-1.6,2.4-2.1s2.2-0.7,3.5-0.7c4.5,0,6.8,2.3,6.8,6.9V66.2z"/>
					<path class="st2" d="M395,63.3c1,0,2-0.2,2.9-0.5v3c-0.4,0.2-1,0.4-1.7,0.5s-1.4,0.2-2.2,0.2c-3.8,0-5.7-2-5.7-6V50.3h-2.6
						v-1.8l2.8-1.5l1.4-4h2.5v4.2h5.4v3h-5.4v10.1c0,1,0.2,1.7,0.7,2.1C393.6,63,394.3,63.3,395,63.3z"/>
					<path class="st2" d="M401.5,42.3c0-0.7,0.2-1.3,0.6-1.7s1-0.6,1.7-0.6s1.3,0.2,1.6,0.6c0.4,0.4,0.6,0.9,0.6,1.7
						c0,0.7-0.2,1.2-0.6,1.6c-0.4,0.4-0.9,0.6-1.6,0.6s-1.3-0.2-1.7-0.6C401.7,43.5,401.5,42.9,401.5,42.3z M405.8,66.2h-4V47.3h4
						V66.2z"/>
					<path class="st2" d="M424.2,60.8c0,1.8-0.7,3.3-2,4.2c-1.3,1-3.3,1.5-5.8,1.5s-4.5-0.4-6.1-1.1v-3.5c2.2,1,4.3,1.5,6.2,1.5
						c2.5,0,3.7-0.7,3.7-2.2c0-0.5-0.1-0.9-0.4-1.2s-0.7-0.6-1.3-1s-1.5-0.7-2.6-1.2c-2.2-0.8-3.6-1.7-4.4-2.5s-1.2-1.9-1.2-3.3
						c0-1.6,0.7-2.9,2-3.8c1.3-0.9,3.1-1.3,5.3-1.3c2.2,0,4.3,0.5,6.3,1.4l-1.3,3c-2-0.8-3.8-1.3-5.1-1.3c-2.1,0-3.2,0.6-3.2,1.8
						c0,0.6,0.3,1.1,0.8,1.5s1.8,1,3.6,1.7c1.6,0.6,2.7,1.2,3.4,1.7c0.7,0.5,1.2,1.1,1.6,1.7C424,59.1,424.2,59.9,424.2,60.8z"/>
					<path class="st2" d="M435.6,63.3c1,0,2-0.2,2.9-0.5v3c-0.4,0.2-1,0.4-1.7,0.5s-1.4,0.2-2.2,0.2c-3.8,0-5.7-2-5.7-6V50.3h-2.6
						v-1.8l2.8-1.5l1.4-4h2.5v4.2h5.4v3H433v10.1c0,1,0.2,1.7,0.7,2.1C434.2,63,434.8,63.3,435.6,63.3z"/>
					<path class="st2" d="M454.1,66.2l-0.8-2.6h-0.1c-0.9,1.2-1.8,1.9-2.8,2.3c-0.9,0.4-2.1,0.6-3.6,0.6c-1.9,0-3.3-0.5-4.3-1.5
						s-1.6-2.4-1.6-4.3c0-1.9,0.7-3.4,2.2-4.4c1.4-1,3.7-1.5,6.6-1.6l3.3-0.1v-1c0-1.2-0.3-2.1-0.8-2.7c-0.6-0.6-1.4-0.9-2.6-0.9
						c-1,0-1.9,0.1-2.8,0.4c-0.9,0.3-1.7,0.6-2.6,1l-1.3-2.9c1-0.5,2.1-0.9,3.4-1.2c1.2-0.3,2.4-0.4,3.5-0.4c2.4,0,4.2,0.5,5.4,1.6
						c1.2,1,1.8,2.7,1.8,4.9v12.7L454.1,66.2L454.1,66.2z M448.2,63.4c1.5,0,2.6-0.4,3.5-1.2s1.3-2,1.3-3.4v-1.6l-2.4,0.1
						c-1.9,0.1-3.3,0.4-4.1,0.9c-0.9,0.6-1.3,1.4-1.3,2.6c0,0.8,0.3,1.5,0.8,2C446.4,63.2,447.2,63.4,448.2,63.4z"/>
				</g>
				<path class="st2" d="M545.1,105.8c-0.2-0.9-0.5-1.8-0.9-2.6c-0.7-1.6-2-2.6-3.7-3c-2.9-0.6-6.6,0.3-9.3,1.3
					c-3.9,1.4-8.3-0.4-12.2-1.1c-3.2-0.6-6.8-0.6-8.4,2.8c-0.4,0.9-0.7,1.8-0.9,2.6c-0.9,5,1.5,10.1,3.4,14.6
					c0.7,1.6,1.5,3.1,2.1,4.7c1.4,3.7,2.1,7.6,2.3,11.6c0.2,3,0.3,7.4,4.6,7.4c1.7,0-1.6-11.3,1.8-15c1.2-1.3,2.3-1.8,3.3-1.8
					s2.1,0.6,3.3,1.8c3.5,3.7,0.2,15,1.8,15c4.3,0,4.4-4.3,4.6-7.4c0.1-2.2,0.2-4.8,1-6.9c0.7-1.9,1.3-3.9,2-5.8
					C542.3,118.2,546.3,112.3,545.1,105.8z M540,116.1c0.8-2.5,1.2-5.1,0.6-7.7c-0.2-0.9-0.5-1.8-0.9-2.7c-0.8-1.6-2.1-2.7-3.8-3.1
					c-0.3-0.1-0.6-0.1-0.9-0.1c1-0.1,1.9-0.1,2.8,0.1c1.4,0.3,2.4,1.2,3,2.4c0.3,0.7,0.6,1.4,0.7,2.1
					C542.1,110.2,541.2,113.2,540,116.1z"/>
				<g>
					<path d="M243.3,96.3v-9.6h1.6V95h4.1v1.4L243.3,96.3L243.3,96.3L243.3,96.3z"/>
					<path d="M256.9,92.6c0,1.2-0.3,2.1-0.9,2.8c-0.6,0.7-1.5,1-2.6,1c-0.7,0-1.3-0.2-1.8-0.5s-0.9-0.7-1.2-1.3s-0.4-1.2-0.4-2
						c0-1.2,0.3-2.1,0.9-2.8s1.5-1,2.6-1s1.9,0.3,2.5,1C256.6,90.6,256.9,91.5,256.9,92.6z M251.6,92.6c0,1.7,0.6,2.5,1.9,2.5
						c1.2,0,1.8-0.8,1.8-2.5s-0.6-2.5-1.9-2.5c-0.7,0-1.1,0.2-1.4,0.6C251.7,91.2,251.6,91.8,251.6,92.6z"/>
					<path d="M261.6,96.4c-1.1,0-1.9-0.3-2.5-1c-0.6-0.6-0.9-1.6-0.9-2.8c0-1.2,0.3-2.2,0.9-2.8c0.6-0.7,1.5-1,2.6-1
						c0.8,0,1.5,0.1,2.1,0.4l-0.5,1.2c-0.7-0.3-1.2-0.4-1.6-0.4c-1.3,0-1.9,0.8-1.9,2.5c0,0.8,0.2,1.4,0.5,1.8s0.8,0.6,1.4,0.6
						c0.7,0,1.3-0.2,2-0.5V96c-0.3,0.2-0.6,0.3-0.9,0.3C262.4,96.4,262.1,96.4,261.6,96.4z"/>
					<path d="M269.9,96.3l-0.3-1h-0.1c-0.4,0.4-0.7,0.7-1.1,0.9c-0.4,0.2-0.8,0.2-1.4,0.2c-0.7,0-1.3-0.2-1.7-0.6
						c-0.4-0.4-0.6-0.9-0.6-1.6c0-0.8,0.3-1.3,0.8-1.7c0.6-0.4,1.4-0.6,2.6-0.6h1.3v-0.4c0-0.5-0.1-0.8-0.3-1
						c-0.2-0.2-0.6-0.3-1-0.3s-0.7,0.1-1.1,0.2c-0.3,0.1-0.7,0.2-1,0.4l-0.5-1.1c0.4-0.2,0.8-0.4,1.3-0.5s0.9-0.2,1.3-0.2
						c0.9,0,1.6,0.2,2.1,0.6s0.7,1,0.7,1.9v4.9h-1L269.9,96.3L269.9,96.3z M267.6,95.2c0.6,0,1-0.2,1.4-0.5c0.3-0.3,0.5-0.8,0.5-1.3
						v-0.6h-0.9c-0.7,0-1.3,0.1-1.6,0.4c-0.3,0.2-0.5,0.6-0.5,1c0,0.3,0.1,0.6,0.3,0.8C266.9,95.2,267.2,95.2,267.6,95.2z"/>
					<path d="M274.7,96.3h-1.5V86h1.5V96.3z"/>
					<path d="M276.9,87.1c0-0.3,0.1-0.5,0.2-0.6c0.2-0.1,0.4-0.2,0.6-0.2c0.3,0,0.5,0.1,0.6,0.2c0.2,0.1,0.2,0.4,0.2,0.6
						c0,0.3-0.1,0.5-0.2,0.6c-0.2,0.2-0.4,0.2-0.6,0.2c-0.3,0-0.5-0.1-0.6-0.2C276.9,87.5,276.9,87.3,276.9,87.1z M278.5,96.3H277
						V89h1.5V96.3z"/>
					<path d="M285.6,96.3h-5.5v-1l3.7-5.1h-3.5V89h5.2v1.1l-3.6,5h3.7L285.6,96.3L285.6,96.3z"/>
					<path d="M290.4,96.4c-1.1,0-2-0.3-2.7-1c-0.6-0.7-1-1.6-1-2.7c0-1.2,0.3-2.1,0.9-2.8c0.6-0.7,1.4-1,2.4-1s1.7,0.3,2.3,0.9
						c0.6,0.6,0.8,1.4,0.8,2.4V93h-4.9c0,0.7,0.2,1.3,0.6,1.6c0.4,0.4,0.9,0.6,1.5,0.6c0.4,0,0.8,0,1.2-0.1c0.4-0.1,0.8-0.2,1.2-0.4
						V96c-0.4,0.2-0.8,0.3-1.1,0.4C291.3,96.4,290.8,96.4,290.4,96.4z M290.1,90.1c-0.5,0-0.9,0.2-1.2,0.5c-0.3,0.3-0.5,0.8-0.5,1.4
						h3.3c0-0.6-0.2-1.1-0.4-1.4C290.9,90.2,290.6,90.1,290.1,90.1z"/>
					<path d="M304.9,92.6c0,1.2-0.3,2.1-0.9,2.8s-1.5,1-2.6,1c-0.7,0-1.3-0.2-1.8-0.5s-0.9-0.7-1.2-1.3s-0.4-1.2-0.4-2
						c0-1.2,0.3-2.1,0.9-2.8s1.5-1,2.6-1s1.9,0.3,2.5,1C304.6,90.6,304.9,91.5,304.9,92.6z M299.6,92.6c0,1.7,0.6,2.5,1.9,2.5
						c1.2,0,1.8-0.8,1.8-2.5s-0.6-2.5-1.9-2.5c-0.7,0-1.1,0.2-1.4,0.6C299.8,91.2,299.6,91.8,299.6,92.6z"/>
					<path d="M311.6,94.2c0,0.7-0.3,1.3-0.8,1.6c-0.5,0.4-1.3,0.6-2.2,0.6c-1,0-1.8-0.1-2.3-0.4v-1.3c0.9,0.4,1.7,0.6,2.4,0.6
						c1,0,1.4-0.3,1.4-0.9c0-0.2-0.1-0.3-0.2-0.5c-0.1-0.1-0.3-0.3-0.5-0.4s-0.6-0.3-1-0.4c-0.8-0.3-1.4-0.7-1.7-1
						c-0.3-0.3-0.4-0.7-0.4-1.3c0-0.6,0.3-1.1,0.8-1.5c0.5-0.3,1.2-0.5,2.1-0.5s1.7,0.2,2.4,0.5l-0.5,1.2c-0.8-0.3-1.4-0.5-2-0.5
						c-0.8,0-1.2,0.2-1.2,0.7c0,0.2,0.1,0.4,0.3,0.6c0.2,0.2,0.7,0.4,1.4,0.7c0.6,0.2,1,0.4,1.3,0.6s0.5,0.4,0.6,0.7
						C311.5,93.6,311.6,93.9,311.6,94.2z"/>
					<path d="M322.9,96.3h-1.6v-4.5c0-0.6-0.1-1-0.3-1.2c-0.2-0.3-0.5-0.4-1-0.4c-0.6,0-1,0.2-1.3,0.6s-0.4,1-0.4,1.9v3.6h-1.5V89
						h1.2l0.2,1h0.1c0.2-0.3,0.5-0.6,0.9-0.8c0.4-0.2,0.8-0.3,1.3-0.3c1.1,0,1.9,0.4,2.2,1.1h0.1c0.2-0.4,0.5-0.6,0.9-0.8
						s0.8-0.3,1.3-0.3c0.9,0,1.5,0.2,1.9,0.7c0.4,0.4,0.6,1.1,0.6,2v4.8H326v-4.5c0-0.6-0.1-1-0.3-1.2c-0.2-0.3-0.5-0.4-1-0.4
						c-0.6,0-1,0.2-1.3,0.6s-0.4,1-0.4,1.7v3.7L322.9,96.3L322.9,96.3z"/>
					<path d="M334.2,96.3l-0.3-1h-0.1c-0.4,0.4-0.7,0.7-1.1,0.9c-0.4,0.2-0.8,0.2-1.4,0.2c-0.7,0-1.3-0.2-1.7-0.6
						c-0.4-0.4-0.6-0.9-0.6-1.6c0-0.8,0.3-1.3,0.8-1.7c0.6-0.4,1.4-0.6,2.6-0.6h1.3v-0.4c0-0.5-0.1-0.8-0.3-1
						c-0.2-0.2-0.6-0.3-1-0.3s-0.7,0.1-1.1,0.2c-0.3,0.1-0.7,0.2-1,0.4l-0.5-1.1c0.4-0.2,0.8-0.4,1.3-0.5s0.9-0.2,1.3-0.2
						c0.9,0,1.6,0.2,2.1,0.6s0.7,1,0.7,1.9v4.9h-1L334.2,96.3L334.2,96.3z M331.9,95.2c0.6,0,1-0.2,1.4-0.5c0.3-0.3,0.5-0.8,0.5-1.3
						v-0.6h-0.9c-0.7,0-1.3,0.1-1.6,0.4c-0.3,0.2-0.5,0.6-0.5,1c0,0.3,0.1,0.6,0.3,0.8C331.3,95.2,331.6,95.2,331.9,95.2z"/>
					<path d="M337.4,87.1c0-0.3,0.1-0.5,0.2-0.6c0.2-0.1,0.4-0.2,0.6-0.2c0.3,0,0.5,0.1,0.6,0.2c0.2,0.1,0.2,0.4,0.2,0.6
						c0,0.3-0.1,0.5-0.2,0.6c-0.2,0.2-0.4,0.2-0.6,0.2c-0.3,0-0.5-0.1-0.6-0.2C337.5,87.5,337.4,87.3,337.4,87.1z M339.1,96.3h-1.5
						V89h1.5V96.3z"/>
					<path d="M346.2,94.2c0,0.7-0.3,1.3-0.8,1.6c-0.5,0.4-1.3,0.6-2.2,0.6c-1,0-1.8-0.1-2.3-0.4v-1.3c0.9,0.4,1.7,0.6,2.4,0.6
						c1,0,1.4-0.3,1.4-0.9c0-0.2-0.1-0.3-0.2-0.5c-0.1-0.1-0.3-0.3-0.5-0.4s-0.6-0.3-1-0.4c-0.8-0.3-1.4-0.7-1.7-1
						c-0.3-0.3-0.4-0.7-0.4-1.3c0-0.6,0.3-1.1,0.8-1.5c0.5-0.3,1.2-0.5,2.1-0.5s1.7,0.2,2.4,0.5l-0.5,1.2c-0.8-0.3-1.4-0.5-2-0.5
						c-0.8,0-1.2,0.2-1.2,0.7c0,0.2,0.1,0.4,0.3,0.6c0.2,0.2,0.7,0.4,1.4,0.7c0.6,0.2,1,0.4,1.3,0.6s0.5,0.4,0.6,0.7
						C346.1,93.6,346.2,93.9,346.2,94.2z"/>
					<path d="M353,96.3l-2.8-7.3h1.6l1.5,4.2c0.3,0.7,0.4,1.3,0.5,1.7h0.1c0-0.3,0.2-0.9,0.5-1.7l1.5-4.2h1.6l-2.8,7.3H353z"/>
					<path d="M363.1,96.3l-0.3-1h-0.1c-0.4,0.4-0.7,0.7-1.1,0.9c-0.4,0.2-0.8,0.2-1.4,0.2c-0.7,0-1.3-0.2-1.7-0.6s-0.6-0.9-0.6-1.6
						c0-0.8,0.3-1.3,0.8-1.7c0.6-0.4,1.4-0.6,2.6-0.6h1.3v-0.4c0-0.5-0.1-0.8-0.3-1c-0.2-0.2-0.6-0.3-1-0.3s-0.7,0.1-1.1,0.2
						c-0.3,0.1-0.7,0.2-1,0.4l-0.5-1.1c0.4-0.2,0.8-0.4,1.3-0.5s0.9-0.2,1.3-0.2c0.9,0,1.6,0.2,2.1,0.6s0.7,1,0.7,1.9v4.9h-1
						L363.1,96.3L363.1,96.3z M360.8,95.2c0.6,0,1-0.2,1.4-0.5c0.3-0.3,0.5-0.8,0.5-1.3v-0.6h-0.9c-0.7,0-1.3,0.1-1.6,0.4
						c-0.3,0.2-0.5,0.6-0.5,1c0,0.3,0.1,0.6,0.3,0.8C360.2,95.2,360.4,95.2,360.8,95.2z"/>
					<path d="M370.1,88.9c0.3,0,0.6,0,0.8,0.1l-0.2,1.4c-0.2-0.1-0.4-0.1-0.7-0.1c-0.6,0-1.1,0.2-1.5,0.6s-0.6,0.9-0.6,1.6v3.8h-1.5
						V89h1.2l0.2,1.3h0.1c0.2-0.4,0.6-0.8,0.9-1S369.7,88.9,370.1,88.9z"/>
					<path d="M372.1,87.1c0-0.3,0.1-0.5,0.2-0.6c0.2-0.1,0.4-0.2,0.6-0.2c0.3,0,0.5,0.1,0.6,0.2c0.2,0.1,0.2,0.4,0.2,0.6
						c0,0.3-0.1,0.5-0.2,0.6c-0.2,0.2-0.4,0.2-0.6,0.2c-0.3,0-0.5-0.1-0.6-0.2C372.2,87.5,372.1,87.3,372.1,87.1z M373.8,96.3h-1.5
						V89h1.5V96.3z"/>
					<path d="M380.6,96.3l-0.3-1h-0.1c-0.4,0.4-0.7,0.7-1.1,0.9c-0.4,0.2-0.8,0.2-1.4,0.2c-0.7,0-1.3-0.2-1.7-0.6s-0.6-0.9-0.6-1.6
						c0-0.8,0.3-1.3,0.8-1.7c0.6-0.4,1.4-0.6,2.6-0.6h1.3v-0.4c0-0.5-0.1-0.8-0.3-1c-0.2-0.2-0.6-0.3-1-0.3s-0.7,0.1-1.1,0.2
						c-0.3,0.1-0.7,0.2-1,0.4l-0.5-1.1c0.4-0.2,0.8-0.4,1.3-0.5s0.9-0.2,1.3-0.2c0.9,0,1.6,0.2,2.1,0.6s0.7,1,0.7,1.9v4.9h-1
						L380.6,96.3L380.6,96.3z M378.3,95.2c0.6,0,1-0.2,1.4-0.5c0.3-0.3,0.5-0.8,0.5-1.3v-0.6h-0.9c-0.7,0-1.3,0.1-1.6,0.4
						c-0.3,0.2-0.5,0.6-0.5,1c0,0.3,0.1,0.6,0.3,0.8C377.6,95.2,377.9,95.2,378.3,95.2z"/>
					<path d="M386.3,96.4c-0.9,0-1.6-0.3-2.1-1s-0.8-1.6-0.8-2.8c0-1.2,0.3-2.1,0.8-2.8c0.5-0.7,1.2-1,2.1-1c1,0,1.7,0.4,2.2,1.1
						h0.1c-0.1-0.5-0.1-0.9-0.1-1.2V86h1.6v10.3h-1.2l-0.3-1h-0.1C388,96.1,387.2,96.4,386.3,96.4z M386.7,95.2
						c0.6,0,1.1-0.2,1.4-0.5c0.3-0.4,0.4-0.9,0.4-1.7v-0.2c0-0.9-0.1-1.6-0.4-2s-0.8-0.6-1.4-0.6c-0.5,0-1,0.2-1.3,0.7
						c-0.3,0.4-0.4,1.1-0.4,1.9s0.1,1.4,0.4,1.8C385.7,95,386.1,95.2,386.7,95.2z"/>
					<path d="M398.7,92.6c0,1.2-0.3,2.1-0.9,2.8c-0.6,0.7-1.5,1-2.6,1c-0.7,0-1.3-0.2-1.8-0.5s-0.9-0.7-1.2-1.3s-0.4-1.2-0.4-2
						c0-1.2,0.3-2.1,0.9-2.8s1.5-1,2.6-1s1.9,0.3,2.5,1C398.4,90.6,398.7,91.5,398.7,92.6z M393.4,92.6c0,1.7,0.6,2.5,1.9,2.5
						c1.2,0,1.8-0.8,1.8-2.5s-0.6-2.5-1.9-2.5c-0.7,0-1.1,0.2-1.4,0.6S393.4,91.8,393.4,92.6z"/>
					<path d="M405.4,94.2c0,0.7-0.3,1.3-0.8,1.6c-0.5,0.4-1.3,0.6-2.2,0.6c-1,0-1.8-0.1-2.3-0.4v-1.3c0.9,0.4,1.7,0.6,2.4,0.6
						c1,0,1.4-0.3,1.4-0.9c0-0.2-0.1-0.3-0.2-0.5c-0.1-0.1-0.3-0.3-0.5-0.4s-0.6-0.3-1-0.4c-0.8-0.3-1.4-0.7-1.7-1s-0.4-0.7-0.4-1.3
						c0-0.6,0.3-1.1,0.8-1.5c0.5-0.3,1.2-0.5,2.1-0.5s1.7,0.2,2.4,0.5l-0.5,1.2c-0.8-0.3-1.4-0.5-2-0.5c-0.8,0-1.2,0.2-1.2,0.7
						c0,0.2,0.1,0.4,0.3,0.6s0.7,0.4,1.4,0.7c0.6,0.2,1,0.4,1.3,0.6s0.5,0.4,0.6,0.7C405.3,93.6,405.4,93.9,405.4,94.2z"/>
					<path d="M413.5,96.4c-1.1,0-1.9-0.3-2.5-1c-0.6-0.6-0.9-1.6-0.9-2.8c0-1.2,0.3-2.2,0.9-2.8s1.5-1,2.6-1c0.8,0,1.5,0.1,2.1,0.4
						l-0.5,1.2c-0.7-0.3-1.2-0.4-1.6-0.4c-1.3,0-1.9,0.8-1.9,2.5c0,0.8,0.2,1.4,0.5,1.8s0.8,0.6,1.4,0.6c0.7,0,1.3-0.2,2-0.5V96
						c-0.3,0.2-0.6,0.3-0.9,0.3C414.3,96.4,414,96.4,413.5,96.4z"/>
					<path d="M423.7,92.6c0,1.2-0.3,2.1-0.9,2.8c-0.6,0.7-1.5,1-2.6,1c-0.7,0-1.3-0.2-1.8-0.5s-0.9-0.7-1.2-1.3s-0.4-1.2-0.4-2
						c0-1.2,0.3-2.1,0.9-2.8s1.5-1,2.6-1s1.9,0.3,2.5,1C423.4,90.6,423.7,91.5,423.7,92.6z M418.4,92.6c0,1.7,0.6,2.5,1.9,2.5
						c1.2,0,1.8-0.8,1.8-2.5s-0.6-2.5-1.9-2.5c-0.7,0-1.1,0.2-1.4,0.6S418.4,91.8,418.4,92.6z"/>
					<path d="M431.9,96.3h-1.6v-4.5c0-0.6-0.1-1-0.3-1.3c-0.2-0.3-0.6-0.4-1.1-0.4c-0.7,0-1.1,0.2-1.4,0.6s-0.5,1-0.5,1.9v3.6h-1.5
						V89h1.2l0.2,1h0.1c0.2-0.3,0.5-0.6,0.9-0.8s0.9-0.3,1.3-0.3c1.7,0,2.6,0.9,2.6,2.7L431.9,96.3L431.9,96.3z"/>
					<path d="M439,94.2c0,0.7-0.3,1.3-0.8,1.6c-0.5,0.4-1.3,0.6-2.2,0.6c-1,0-1.8-0.1-2.3-0.4v-1.3c0.9,0.4,1.7,0.6,2.4,0.6
						c1,0,1.4-0.3,1.4-0.9c0-0.2-0.1-0.3-0.2-0.5c-0.1-0.1-0.3-0.3-0.5-0.4s-0.6-0.3-1-0.4c-0.8-0.3-1.4-0.7-1.7-1s-0.4-0.7-0.4-1.3
						c0-0.6,0.3-1.1,0.8-1.5c0.5-0.3,1.2-0.5,2.1-0.5s1.7,0.2,2.4,0.5l-0.5,1.2c-0.8-0.3-1.4-0.5-2-0.5c-0.8,0-1.2,0.2-1.2,0.7
						c0,0.2,0.1,0.4,0.3,0.6s0.7,0.4,1.4,0.7c0.6,0.2,1,0.4,1.3,0.6s0.5,0.4,0.6,0.7C438.9,93.6,439,93.9,439,94.2z"/>
					<path d="M445.8,96.3l-0.2-1h-0.1c-0.2,0.3-0.5,0.6-0.9,0.8c-0.4,0.2-0.9,0.3-1.4,0.3c-0.9,0-1.5-0.2-2-0.7
						c-0.4-0.4-0.7-1.1-0.7-2V89h1.6v4.5c0,0.6,0.1,1,0.3,1.3c0.2,0.3,0.6,0.4,1.1,0.4c0.6,0,1.1-0.2,1.4-0.6s0.5-1,0.5-2V89h1.6
						v7.3H445.8z"/>
					<path d="M450.8,96.3h-1.5V86h1.5V96.3z"/>
					<path d="M455.7,95.2c0.4,0,0.8-0.1,1.1-0.2v1.2c-0.2,0.1-0.4,0.1-0.7,0.2c-0.3,0.1-0.6,0.1-0.8,0.1c-1.5,0-2.2-0.8-2.2-2.3
						v-3.9h-1v-0.7l1.1-0.6l0.5-1.5h1V89h2.1v1.2h-2.1v3.9c0,0.4,0.1,0.6,0.3,0.8C455.1,95.1,455.4,95.2,455.7,95.2z"/>
					<path d="M464.7,92.6c0,1.2-0.3,2.1-0.9,2.8c-0.6,0.7-1.5,1-2.6,1c-0.7,0-1.3-0.2-1.8-0.5s-0.9-0.7-1.2-1.3s-0.4-1.2-0.4-2
						c0-1.2,0.3-2.1,0.9-2.8s1.5-1,2.6-1s1.9,0.3,2.5,1C464.4,90.6,464.7,91.5,464.7,92.6z M459.4,92.6c0,1.7,0.6,2.5,1.9,2.5
						c1.2,0,1.8-0.8,1.8-2.5s-0.6-2.5-1.9-2.5c-0.7,0-1.1,0.2-1.4,0.6S459.4,91.8,459.4,92.6z M460.3,88.1L460.3,88.1
						c0.3-0.4,0.5-0.8,0.8-1.1s0.5-0.7,0.6-1h1.8v0.1c-0.2,0.3-0.6,0.6-1,1c-0.5,0.4-0.8,0.8-1.2,1H460.3z"/>
					<path d="M470.2,88.9c0.3,0,0.6,0,0.8,0.1l-0.2,1.4c-0.2-0.1-0.4-0.1-0.7-0.1c-0.6,0-1.1,0.2-1.5,0.6s-0.6,0.9-0.6,1.6v3.8h-1.5
						V89h1.2l0.2,1.3h0.1c0.2-0.4,0.6-0.8,0.9-1S469.8,88.9,470.2,88.9z"/>
					<path d="M472.3,87.1c0-0.3,0.1-0.5,0.2-0.6c0.2-0.1,0.4-0.2,0.6-0.2c0.3,0,0.5,0.1,0.6,0.2c0.2,0.1,0.2,0.4,0.2,0.6
						c0,0.3-0.1,0.5-0.2,0.6c-0.2,0.2-0.4,0.2-0.6,0.2c-0.3,0-0.5-0.1-0.6-0.2C472.3,87.5,472.3,87.3,472.3,87.1z M473.9,96.3h-1.5
						V89h1.5V96.3z"/>
					<path d="M482.6,92.6c0,1.2-0.3,2.1-0.9,2.8c-0.6,0.7-1.5,1-2.6,1c-0.7,0-1.3-0.2-1.8-0.5s-0.9-0.7-1.2-1.3s-0.4-1.2-0.4-2
						c0-1.2,0.3-2.1,0.9-2.8s1.5-1,2.6-1s1.9,0.3,2.5,1C482.3,90.6,482.6,91.5,482.6,92.6z M477.3,92.6c0,1.7,0.6,2.5,1.9,2.5
						c1.2,0,1.8-0.8,1.8-2.5s-0.6-2.5-1.9-2.5c-0.7,0-1.1,0.2-1.4,0.6S477.3,91.8,477.3,92.6z"/>
					<path d="M489.3,94.2c0,0.7-0.3,1.3-0.8,1.6c-0.5,0.4-1.3,0.6-2.2,0.6c-1,0-1.8-0.1-2.3-0.4v-1.3c0.9,0.4,1.7,0.6,2.4,0.6
						c1,0,1.4-0.3,1.4-0.9c0-0.2-0.1-0.3-0.2-0.5c-0.1-0.1-0.3-0.3-0.5-0.4s-0.6-0.3-1-0.4c-0.8-0.3-1.4-0.7-1.7-1s-0.4-0.7-0.4-1.3
						c0-0.6,0.3-1.1,0.8-1.5c0.5-0.3,1.2-0.5,2.1-0.5s1.7,0.2,2.4,0.5l-0.5,1.2c-0.8-0.3-1.4-0.5-2-0.5c-0.8,0-1.2,0.2-1.2,0.7
						c0,0.2,0.1,0.4,0.3,0.6s0.7,0.4,1.4,0.7c0.6,0.2,1,0.4,1.3,0.6s0.5,0.4,0.6,0.7C489.2,93.6,489.3,93.9,489.3,94.2z"/>
					<path d="M249.5,112.5H248V108c0-0.6-0.1-1-0.3-1.3s-0.6-0.4-1.1-0.4c-0.7,0-1.1,0.2-1.4,0.6s-0.5,1-0.5,1.9v3.6h-1.5v-7.3h1.2
						l0.2,1h0.1c0.2-0.3,0.5-0.6,0.9-0.8c0.4-0.2,0.9-0.3,1.3-0.3c1.7,0,2.6,0.9,2.6,2.7V112.5z"/>
					<path d="M256.2,112.5l-0.3-1h-0.1c-0.4,0.4-0.7,0.7-1.1,0.9c-0.4,0.2-0.8,0.2-1.4,0.2c-0.7,0-1.3-0.2-1.7-0.6s-0.6-0.9-0.6-1.6
						c0-0.8,0.3-1.3,0.8-1.7c0.6-0.4,1.4-0.6,2.6-0.6h1.3v-0.4c0-0.5-0.1-0.8-0.3-1s-0.6-0.3-1-0.3s-0.7,0.1-1.1,0.2
						c-0.3,0.1-0.7,0.2-1,0.4l-0.5-1.1c0.4-0.2,0.8-0.4,1.3-0.5s0.9-0.2,1.3-0.2c0.9,0,1.6,0.2,2.1,0.6s0.7,1,0.7,1.9v4.9h-1V112.5z
						 M253.9,111.4c0.6,0,1-0.2,1.4-0.5c0.3-0.3,0.5-0.8,0.5-1.3V109h-0.9c-0.7,0-1.3,0.1-1.6,0.4c-0.3,0.2-0.5,0.6-0.5,1
						c0,0.3,0.1,0.6,0.3,0.8C253.3,111.4,253.5,111.4,253.9,111.4z"/>
					<path d="M264.4,110.4c0,0.7-0.3,1.3-0.8,1.6c-0.5,0.4-1.3,0.6-2.2,0.6c-1,0-1.8-0.1-2.3-0.4v-1.3c0.9,0.4,1.7,0.6,2.4,0.6
						c1,0,1.4-0.3,1.4-0.9c0-0.2-0.1-0.3-0.2-0.5s-0.3-0.3-0.5-0.4s-0.6-0.3-1-0.4c-0.8-0.3-1.4-0.7-1.7-1c-0.3-0.3-0.4-0.7-0.4-1.3
						c0-0.6,0.3-1.1,0.8-1.5c0.5-0.3,1.2-0.5,2.1-0.5s1.7,0.2,2.4,0.5l-0.5,1.2c-0.8-0.3-1.4-0.5-2-0.5c-0.8,0-1.2,0.2-1.2,0.7
						c0,0.2,0.1,0.4,0.3,0.6c0.2,0.2,0.7,0.4,1.4,0.7c0.6,0.2,1,0.4,1.3,0.6s0.5,0.4,0.6,0.7C264.3,109.8,264.4,110.1,264.4,110.4z"
						/>
					<path d="M273.3,112.6c-0.9,0-1.6-0.3-2.1-1H271c0.1,0.6,0.1,1,0.1,1.1v3h-1.5v-10.5h1.3c0,0.1,0.1,0.5,0.2,1h0.1
						c0.5-0.7,1.2-1.1,2.2-1.1c0.9,0,1.6,0.3,2.1,1s0.8,1.6,0.8,2.8c0,1.2-0.3,2.1-0.8,2.8C274.9,112.3,274.2,112.6,273.3,112.6z
						 M272.9,106.3c-0.6,0-1.1,0.2-1.3,0.5c-0.3,0.4-0.4,0.9-0.4,1.7v0.2c0,0.9,0.1,1.5,0.4,1.9s0.7,0.6,1.4,0.6
						c0.5,0,0.9-0.2,1.2-0.7s0.4-1.1,0.4-1.9s-0.1-1.4-0.4-1.9C273.9,106.6,273.5,106.3,272.9,106.3z"/>
					<path d="M281.7,105.1c0.3,0,0.6,0,0.8,0.1l-0.2,1.4c-0.2-0.1-0.4-0.1-0.7-0.1c-0.6,0-1.1,0.2-1.5,0.6s-0.6,0.9-0.6,1.6v3.8H278
						v-7.3h1.2l0.2,1.3h0.1c0.2-0.4,0.6-0.8,0.9-1C280.8,105.2,281.2,105.1,281.7,105.1z"/>
					<path d="M290.3,108.8c0,1.2-0.3,2.1-0.9,2.8s-1.5,1-2.6,1c-0.7,0-1.3-0.2-1.8-0.5s-0.9-0.7-1.2-1.3c-0.3-0.6-0.4-1.2-0.4-2
						c0-1.2,0.3-2.1,0.9-2.8c0.6-0.7,1.5-1,2.6-1s1.9,0.3,2.5,1C290,106.8,290.3,107.7,290.3,108.8z M285,108.8
						c0,1.7,0.6,2.5,1.9,2.5c1.2,0,1.8-0.8,1.8-2.5s-0.6-2.5-1.9-2.5c-0.7,0-1.1,0.2-1.4,0.6C285.1,107.4,285,108,285,108.8z"/>
					<path d="M293.7,108.8l-2.4-3.6h1.8l1.7,2.6l1.7-2.6h1.8l-2.5,3.6l2.6,3.7h-1.8l-1.8-2.7l-1.8,2.7h-1.8L293.7,108.8z"/>
					<path d="M299.4,103.3c0-0.3,0.1-0.5,0.2-0.6c0.2-0.1,0.4-0.2,0.6-0.2c0.3,0,0.5,0.1,0.6,0.2c0.2,0.1,0.2,0.4,0.2,0.6
						c0,0.3-0.1,0.5-0.2,0.6c-0.2,0.2-0.4,0.2-0.6,0.2c-0.3,0-0.5-0.1-0.6-0.2C299.5,103.7,299.4,103.5,299.4,103.3z M301,112.5
						h-1.5v-7.3h1.5V112.5z"/>
					<path d="M309.4,112.5h-1.6V108c0-0.6-0.1-1-0.3-1.2c-0.2-0.3-0.5-0.4-1-0.4c-0.6,0-1,0.2-1.3,0.6s-0.4,1-0.4,1.9v3.6h-1.5v-7.3
						h1.2l0.2,1h0.1c0.2-0.3,0.5-0.6,0.9-0.8c0.4-0.2,0.8-0.3,1.3-0.3c1.1,0,1.9,0.4,2.2,1.1h0.1c0.2-0.4,0.5-0.6,0.9-0.8
						s0.8-0.3,1.3-0.3c0.9,0,1.5,0.2,1.9,0.7c0.4,0.4,0.6,1.1,0.6,2v4.8h-1.5V108c0-0.6-0.1-1-0.3-1.2c-0.2-0.3-0.5-0.4-1-0.4
						c-0.6,0-1,0.2-1.3,0.6s-0.4,1-0.4,1.7v3.8H309.4z"/>
					<path d="M316.1,103.3c0-0.3,0.1-0.5,0.2-0.6c0.2-0.1,0.4-0.2,0.6-0.2c0.3,0,0.5,0.1,0.6,0.2c0.2,0.1,0.2,0.4,0.2,0.6
						c0,0.3-0.1,0.5-0.2,0.6c-0.2,0.2-0.4,0.2-0.6,0.2c-0.3,0-0.5-0.1-0.6-0.2C316.2,103.7,316.1,103.5,316.1,103.3z M317.7,112.5
						h-1.5v-7.3h1.5V112.5z"/>
					<path d="M322.4,112.6c-0.9,0-1.6-0.3-2.1-1s-0.8-1.6-0.8-2.8c0-1.2,0.3-2.1,0.8-2.8c0.5-0.7,1.2-1,2.1-1c1,0,1.7,0.4,2.2,1.1
						h0.1c-0.1-0.5-0.1-0.9-0.1-1.2v-2.7h1.6v10.3H325l-0.3-1h-0.1C324.1,112.3,323.4,112.6,322.4,112.6z M322.8,111.4
						c0.6,0,1.1-0.2,1.4-0.5c0.3-0.4,0.4-0.9,0.4-1.7V109c0-0.9-0.1-1.6-0.4-2s-0.8-0.6-1.4-0.6c-0.5,0-1,0.2-1.3,0.7
						s-0.4,1.1-0.4,1.9s0.1,1.4,0.4,1.8C321.8,111.2,322.2,111.4,322.8,111.4z"/>
					<path d="M332.9,112.5l-0.3-1h-0.1c-0.4,0.4-0.7,0.7-1.1,0.9c-0.4,0.2-0.8,0.2-1.4,0.2c-0.7,0-1.3-0.2-1.7-0.6
						c-0.4-0.4-0.6-0.9-0.6-1.6c0-0.8,0.3-1.3,0.8-1.7c0.6-0.4,1.4-0.6,2.6-0.6h1.3v-0.4c0-0.5-0.1-0.8-0.3-1
						c-0.2-0.2-0.6-0.3-1-0.3s-0.7,0.1-1.1,0.2c-0.3,0.1-0.7,0.2-1,0.4l-0.5-1.1c0.4-0.2,0.8-0.4,1.3-0.5s0.9-0.2,1.3-0.2
						c0.9,0,1.6,0.2,2.1,0.6s0.7,1,0.7,1.9v4.9h-1L332.9,112.5L332.9,112.5z M330.6,111.4c0.6,0,1-0.2,1.4-0.5
						c0.3-0.3,0.5-0.8,0.5-1.3V109h-0.9c-0.7,0-1.3,0.1-1.6,0.4c-0.3,0.2-0.5,0.6-0.5,1c0,0.3,0.1,0.6,0.3,0.8
						C329.9,111.4,330.2,111.4,330.6,111.4z"/>
					<path d="M338.6,112.6c-0.9,0-1.6-0.3-2.1-1s-0.8-1.6-0.8-2.8c0-1.2,0.3-2.1,0.8-2.8c0.5-0.7,1.2-1,2.1-1c1,0,1.7,0.4,2.2,1.1
						h0.1c-0.1-0.5-0.1-0.9-0.1-1.2v-2.7h1.6v10.3h-1.2l-0.3-1h-0.1C340.3,112.3,339.6,112.6,338.6,112.6z M339.1,111.4
						c0.6,0,1.1-0.2,1.4-0.5c0.3-0.4,0.4-0.9,0.4-1.7V109c0-0.9-0.1-1.6-0.4-2s-0.8-0.6-1.4-0.6c-0.5,0-1,0.2-1.3,0.7
						s-0.4,1.1-0.4,1.9s0.1,1.4,0.4,1.8C338.1,111.2,338.5,111.4,339.1,111.4z"/>
					<path d="M347.8,112.6c-1.1,0-2-0.3-2.7-1c-0.6-0.7-1-1.6-1-2.7c0-1.2,0.3-2.1,0.9-2.8c0.6-0.7,1.4-1,2.4-1s1.7,0.3,2.3,0.9
						c0.6,0.6,0.8,1.4,0.8,2.4v0.8h-4.9c0,0.7,0.2,1.3,0.6,1.6c0.4,0.4,0.9,0.6,1.5,0.6c0.4,0,0.8,0,1.2-0.1
						c0.4-0.1,0.8-0.2,1.2-0.4v1.3c-0.4,0.2-0.8,0.3-1.1,0.4C348.7,112.6,348.3,112.6,347.8,112.6z M347.5,106.3
						c-0.5,0-0.9,0.2-1.2,0.5c-0.3,0.3-0.5,0.8-0.5,1.4h3.3c0-0.6-0.2-1.1-0.4-1.4S348,106.3,347.5,106.3z"/>
					<path d="M357.3,110.4c0,0.7-0.3,1.3-0.8,1.6s-1.3,0.6-2.2,0.6c-1,0-1.8-0.1-2.3-0.4v-1.3c0.9,0.4,1.7,0.6,2.4,0.6
						c1,0,1.4-0.3,1.4-0.9c0-0.2-0.1-0.3-0.2-0.5s-0.3-0.3-0.5-0.4s-0.6-0.3-1-0.4c-0.8-0.3-1.4-0.7-1.7-1s-0.4-0.7-0.4-1.3
						c0-0.6,0.3-1.1,0.8-1.5c0.5-0.3,1.2-0.5,2.1-0.5s1.7,0.2,2.4,0.5l-0.5,1.2c-0.8-0.3-1.4-0.5-2-0.5c-0.8,0-1.2,0.2-1.2,0.7
						c0,0.2,0.1,0.4,0.3,0.6s0.7,0.4,1.4,0.7c0.6,0.2,1,0.4,1.3,0.6s0.5,0.4,0.6,0.7C357.2,109.8,357.3,110.1,357.3,110.4z"/>
					<path d="M364.9,112.6c-0.9,0-1.6-0.3-2.1-1s-0.8-1.6-0.8-2.8c0-1.2,0.3-2.1,0.8-2.8c0.5-0.7,1.2-1,2.1-1c1,0,1.7,0.4,2.2,1.1
						h0.1c-0.1-0.5-0.1-0.9-0.1-1.2v-2.7h1.6v10.3h-1.2l-0.3-1h-0.1C366.6,112.3,365.9,112.6,364.9,112.6z M365.3,111.4
						c0.6,0,1.1-0.2,1.4-0.5c0.3-0.4,0.4-0.9,0.4-1.7V109c0-0.9-0.1-1.6-0.4-2s-0.8-0.6-1.4-0.6c-0.5,0-1,0.2-1.3,0.7
						c-0.3,0.4-0.4,1.1-0.4,1.9s0.1,1.4,0.4,1.8C364.3,111.2,364.7,111.4,365.3,111.4z"/>
					<path d="M375.4,112.5l-0.3-1H375c-0.4,0.4-0.7,0.7-1.1,0.9c-0.4,0.2-0.8,0.2-1.4,0.2c-0.7,0-1.3-0.2-1.7-0.6s-0.6-0.9-0.6-1.6
						c0-0.8,0.3-1.3,0.8-1.7c0.6-0.4,1.4-0.6,2.6-0.6h1.3v-0.4c0-0.5-0.1-0.8-0.3-1s-0.6-0.3-1-0.3s-0.7,0.1-1.1,0.2
						c-0.3,0.1-0.7,0.2-1,0.4l-0.5-1.1c0.4-0.2,0.8-0.4,1.3-0.5s0.9-0.2,1.3-0.2c0.9,0,1.6,0.2,2.1,0.6s0.7,1,0.7,1.9v4.9h-1
						L375.4,112.5L375.4,112.5z M373.1,111.4c0.6,0,1-0.2,1.4-0.5c0.3-0.3,0.5-0.8,0.5-1.3V109h-0.9c-0.7,0-1.3,0.1-1.6,0.4
						s-0.5,0.6-0.5,1c0,0.3,0.1,0.6,0.3,0.8C372.4,111.4,372.7,111.4,373.1,111.4z"/>
					<path d="M387.1,110.4c0,0.7-0.3,1.3-0.8,1.6s-1.3,0.6-2.2,0.6c-1,0-1.8-0.1-2.3-0.4v-1.3c0.9,0.4,1.7,0.6,2.4,0.6
						c1,0,1.4-0.3,1.4-0.9c0-0.2-0.1-0.3-0.2-0.5s-0.3-0.3-0.5-0.4s-0.6-0.3-1-0.4c-0.8-0.3-1.4-0.7-1.7-1s-0.4-0.7-0.4-1.3
						c0-0.6,0.3-1.1,0.8-1.5c0.5-0.3,1.2-0.5,2.1-0.5s1.7,0.2,2.4,0.5l-0.5,1.2c-0.8-0.3-1.4-0.5-2-0.5c-0.8,0-1.2,0.2-1.2,0.7
						c0,0.2,0.1,0.4,0.3,0.6s0.7,0.4,1.4,0.7c0.6,0.2,1,0.4,1.3,0.6s0.5,0.4,0.6,0.7C387,109.8,387.1,110.1,387.1,110.4z"/>
					<path d="M393.9,112.5l-0.2-1h-0.1c-0.2,0.3-0.5,0.6-0.9,0.8c-0.4,0.2-0.9,0.3-1.4,0.3c-0.9,0-1.5-0.2-2-0.7
						c-0.4-0.4-0.7-1.1-0.7-2v-4.8h1.6v4.5c0,0.6,0.1,1,0.3,1.3s0.6,0.4,1.1,0.4c0.6,0,1.1-0.2,1.4-0.6s0.5-1,0.5-2v-3.6h1.6v7.3
						L393.9,112.5L393.9,112.5z"/>
					<path d="M401.9,112.5l-0.3-1h-0.1c-0.4,0.4-0.7,0.7-1.1,0.9c-0.4,0.2-0.8,0.2-1.4,0.2c-0.7,0-1.3-0.2-1.7-0.6s-0.6-0.9-0.6-1.6
						c0-0.8,0.3-1.3,0.8-1.7c0.6-0.4,1.4-0.6,2.6-0.6h1.3v-0.4c0-0.5-0.1-0.8-0.3-1s-0.6-0.3-1-0.3s-0.7,0.1-1.1,0.2
						c-0.3,0.1-0.7,0.2-1,0.4l-0.5-1.1c0.4-0.2,0.8-0.4,1.3-0.5s0.9-0.2,1.3-0.2c0.9,0,1.6,0.2,2.1,0.6s0.7,1,0.7,1.9v4.9h-1
						L401.9,112.5L401.9,112.5z M399.6,111.4c0.6,0,1-0.2,1.4-0.5c0.3-0.3,0.5-0.8,0.5-1.3V109h-0.9c-0.7,0-1.3,0.1-1.6,0.4
						s-0.5,0.6-0.5,1c0,0.3,0.1,0.6,0.3,0.8C398.9,111.4,399.2,111.4,399.6,111.4z"/>
					<path d="M411.6,112.6c-1.1,0-1.9-0.3-2.5-1c-0.6-0.6-0.9-1.6-0.9-2.8c0-1.2,0.3-2.2,0.9-2.8s1.5-1,2.6-1c0.8,0,1.5,0.1,2.1,0.4
						l-0.5,1.2c-0.7-0.3-1.2-0.4-1.6-0.4c-1.3,0-1.9,0.8-1.9,2.5c0,0.8,0.2,1.4,0.5,1.8s0.8,0.6,1.4,0.6c0.7,0,1.3-0.2,2-0.5v1.4
						c-0.3,0.2-0.6,0.3-0.9,0.3C412.4,112.6,412.1,112.6,411.6,112.6z"/>
					<path d="M419.9,112.5l-0.3-1h-0.1c-0.4,0.4-0.7,0.7-1.1,0.9c-0.4,0.2-0.8,0.2-1.4,0.2c-0.7,0-1.3-0.2-1.7-0.6s-0.6-0.9-0.6-1.6
						c0-0.8,0.3-1.3,0.8-1.7c0.6-0.4,1.4-0.6,2.6-0.6h1.3v-0.4c0-0.5-0.1-0.8-0.3-1s-0.6-0.3-1-0.3s-0.7,0.1-1.1,0.2
						c-0.3,0.1-0.7,0.2-1,0.4l-0.5-1.1c0.4-0.2,0.8-0.4,1.3-0.5s0.9-0.2,1.3-0.2c0.9,0,1.6,0.2,2.1,0.6s0.7,1,0.7,1.9v4.9h-1
						L419.9,112.5L419.9,112.5z M417.6,111.4c0.6,0,1-0.2,1.4-0.5c0.3-0.3,0.5-0.8,0.5-1.3V109h-0.9c-0.7,0-1.3,0.1-1.6,0.4
						s-0.5,0.6-0.5,1c0,0.3,0.1,0.6,0.3,0.8C416.9,111.4,417.2,111.4,417.6,111.4z"/>
					<path d="M428.1,110.4c0,0.7-0.3,1.3-0.8,1.6s-1.3,0.6-2.2,0.6c-1,0-1.8-0.1-2.3-0.4v-1.3c0.9,0.4,1.7,0.6,2.4,0.6
						c1,0,1.4-0.3,1.4-0.9c0-0.2-0.1-0.3-0.2-0.5s-0.3-0.3-0.5-0.4s-0.6-0.3-1-0.4c-0.8-0.3-1.4-0.7-1.7-1s-0.4-0.7-0.4-1.3
						c0-0.6,0.3-1.1,0.8-1.5c0.5-0.3,1.2-0.5,2.1-0.5s1.7,0.2,2.4,0.5l-0.5,1.2c-0.8-0.3-1.4-0.5-2-0.5c-0.8,0-1.2,0.2-1.2,0.7
						c0,0.2,0.1,0.4,0.3,0.6s0.7,0.4,1.4,0.7c0.6,0.2,1,0.4,1.3,0.6s0.5,0.4,0.6,0.7C428,109.8,428.1,110.1,428.1,110.4z"/>
					<path d="M434.3,112.5l-0.3-1l0,0c-0.4,0.4-0.7,0.7-1.1,0.9c-0.4,0.2-0.8,0.2-1.4,0.2c-0.7,0-1.3-0.2-1.7-0.6s-0.6-0.9-0.6-1.6
						c0-0.8,0.3-1.3,0.8-1.7c0.6-0.4,1.4-0.6,2.6-0.6h1.3v-0.4c0-0.5-0.1-0.8-0.3-1s-0.6-0.3-1-0.3s-0.7,0.1-1.1,0.2
						c-0.3,0.1-0.7,0.2-1,0.4l-0.5-1.1c0.4-0.2,0.8-0.4,1.3-0.5s0.9-0.2,1.3-0.2c0.9,0,1.6,0.2,2.1,0.6s0.7,1,0.7,1.9v4.9h-1.1
						L434.3,112.5L434.3,112.5z M432,111.4c0.6,0,1-0.2,1.4-0.5c0.3-0.3,0.5-0.8,0.5-1.3V109H433c-0.7,0-1.3,0.1-1.6,0.4
						s-0.5,0.6-0.5,1c0,0.3,0.1,0.6,0.3,0.8C431.3,111.4,431.6,111.4,432,111.4z"/>
					<path d="M437.4,111.7c0-0.3,0.1-0.6,0.3-0.7c0.2-0.2,0.4-0.3,0.7-0.3c0.3,0,0.6,0.1,0.7,0.3c0.2,0.2,0.3,0.4,0.3,0.7
						c0,0.3-0.1,0.6-0.3,0.7c-0.2,0.2-0.4,0.3-0.7,0.3s-0.6-0.1-0.7-0.3S437.4,112,437.4,111.7z"/>
				</g>
			</g>
		</g>
	</g>
	<g>
		<linearGradient id="SVGID_1_" gradientUnits="userSpaceOnUse" x1="190.2993" y1="110.9351" x2="186.1721" y2="103.7867">
			<stop  offset="0" style="stop-color:#4A97E8"/>
			<stop  offset="1" style="stop-color:#6692FF"/>
		</linearGradient>
		<path class="st8" d="M193.6,100.7c-1,0.3-2.2,0.5-3.1,0.6c0.2,0.4,0.4,0.9,0.4,1.3c0.4,1.7,0.3,3.1-0.6,4.3
			c-1.3,1.8-4.7,3.1-7.5,4l-1.5,0.4c1,0.3,2.8,0.9,4.1,1.9c2.8-1,5.8-2.4,7.3-4.6c1.4-2,1.7-4.3,1-6.8
			C193.8,101.5,193.7,101,193.6,100.7z"/>
		<g>
			<g>
				<path class="st9" d="M182.4,62.9c0-0.1,0-0.3,0-0.4c0-1.8-1.5-3.3-3.3-3.3s-3.3,1.5-3.3,3.3c0,0.1,0,0.3,0,0.4l2.7,73.3
					c0,0.7,1.1,0.7,1.1,0L182.4,62.9z"/>
				<linearGradient id="SVGID_2_" gradientUnits="userSpaceOnUse" x1="193.9297" y1="124.9316" x2="172.2837" y2="87.4397">
					<stop  offset="0" style="stop-color:#4A97E8"/>
					<stop  offset="1" style="stop-color:#6692FF"/>
				</linearGradient>
				<path class="st10" d="M190.4,82.5c-0.6-0.8-1.5-1.5-2.9-1.7c-3-0.4-5.1,1-6.1,1.4c-1.1,0.4,0,1.6,0.4,1.8
					c0.4,0.2,3.3,1.6,4.8,2.3c1.1,0.4,2.7,0.5,3.7-0.4c2.9,1.6,6.2,4.2,5.3,7.6c-0.3,1.3-1,2.2-2.2,2.8c-2.7,1.5-7.6,0.9-10.9,0.2
					l-2-0.5c-0.1,0-0.3-0.1-0.4-0.1l0,0l0,0c-2.4-0.6-7.6-1.6-11.5,0.5c-2.1,1.1-3.6,3-4.2,5.6c-0.7,2.5-0.3,4.8,1,6.8
					c1.7,2.4,5.6,4.1,8.6,5c-2.9,1.7-4.8,4.9-4.8,8.5c0,5.5,4.4,9.9,9.9,9.9s9.9-4.4,9.9-9.9c0-4.8-3.4-8.8-8-9.7
					c-0.7-0.3-1.5-0.5-2-0.6l0,0l0,0l-3.6-0.9c-2.7-0.8-6.2-2.2-7.5-4c-0.9-1.2-1-2.7-0.6-4.3c0.4-1.7,1.3-2.9,2.7-3.7
					c2.3-1.2,5.2-1,7.8-0.5c2.7,0.4,11.3,3.9,17,0.6c1.8-1.1,3.1-2.6,3.6-4.7C200.1,88.2,194.2,84.4,190.4,82.5z M179.1,115.5
					c0.1,0,0.3,0,0.4,0h0.1c0.1,0,0.1,0,0.2,0c0.1,0,0.2,0,0.3,0l0,0c0.2,0,0.4,0.1,0.5,0.1l0,0c2.1,0.5,3.8,2,4.5,4l0,0v0.1
					c0,0.1,0,0.1,0.1,0.2c0,0,0,0,0,0.1c0.2,0.7,0.3,1.4,0.3,2.1c0,3.6-2.9,6.6-6.6,6.6c-3.6,0-6.6-2.9-6.6-6.6
					C172.5,118.5,175.5,115.5,179.1,115.5z"/>
				<path class="st9" d="M177.9,118l0.7,18.2c0,0.7,1.1,0.7,1.1,0l0.7-18.2H177.9z"/>
				<g>
					<path class="st9" d="M179.2,57.9c-0.7,0-1.4-0.2-2-0.4c0.5,0.6,1.2,0.9,2,0.9s1.5-0.4,2-0.9C180.6,57.7,179.9,57.9,179.2,57.9z
						"/>
					<circle class="st9" cx="179.2" cy="53.3" r="4.2"/>
				</g>
				<g>
					<g>
						<g>
							<path class="st9" d="M175.2,72.6c-0.5,0.1-1.1,0.3-1.6,0.4c-3.3,0.8-6.8,1.3-10.4,1c-1.3-0.1-2.6-0.3-3.9-0.6
								c0.9,1.3,2.7,2.2,4.7,2.9c2.4,0.8,5,1.2,7.5,0.9c1.3-0.1,2.6-0.4,3.8-0.7L175.2,72.6z"/>
							<path class="st9" d="M175,67.5c-1.8,0.2-3.5,0.5-5.3,0.7c-3.8,0.5-7.7,0.8-11.7,0.4c-3.4-0.3-6.7-1.2-9.7-2.6
								c0.1,0.8,0.6,1.5,1.4,2.2c1,0.9,2.5,1.6,4,2.2c2.9,1.3,6.2,2.3,9.5,2.6c3.4,0.3,6.7-0.1,10-0.8c0.6-0.1,1.3-0.3,1.9-0.4
								L175,67.5z"/>
							<path class="st9" d="M174.8,63.2c-2.6,0-5.3,0.1-8,0.1c-4.3,0-8.6-0.2-12.8-1c-3.8-0.7-7.6-1.8-10.7-3.7
								c-0.1,1,0.1,1.9,0.8,2.8c0.8,1.2,2.2,2.1,3.8,2.9c3,1.8,6.6,2.9,10.3,3.3c3.8,0.4,7.6,0.2,11.3-0.2c1.8-0.2,3.6-0.4,5.4-0.6
								L174.8,63.2z"/>
							<path class="st9" d="M174.7,59.4c-3-0.4-6.1-0.6-9.2-1c-4.4-0.5-8.8-1.2-13.1-2.3s-8.6-2.6-11.9-5.2
								c-0.3-0.2-0.6-0.5-0.8-0.7c-0.5,1-0.4,2.2,0.2,3.2c0.9,1.4,2,2.6,3.5,3.7c2.9,2.2,6.9,3.5,10.9,4.3c4.1,0.8,8.3,1.1,12.5,1.2
								c2.7,0.1,5.3,0,8,0.1L174.7,59.4z"/>
						</g>
						<path class="st9" d="M170.9,55.9c-6.8-1.3-13.4-3-19.7-5.4c-4.2-1.7-8.5-3.7-11.4-6.9c-0.1-0.2-0.3-0.4-0.4-0.5
							c-1,0.9-1.4,1.9-0.8,3.1c0.6,1.5,1.6,2.9,3,4.1c2.9,2.4,6.9,3.9,11.1,5c4.2,1.1,8.5,1.8,12.9,2.4c2.5,0.4,6.4,0.9,9,1.2
							C172.6,57.9,171.5,56.9,170.9,55.9z"/>
					</g>
					<g>
						<g>
							<path class="st9" d="M183.1,72.6c0.5,0.1,1.1,0.3,1.6,0.4c3.3,0.8,6.8,1.3,10.4,1c1.3-0.1,2.6-0.3,3.9-0.6
								c-0.9,1.3-2.7,2.2-4.7,2.9c-2.4,0.8-5,1.2-7.5,0.9c-1.3-0.1-2.6-0.4-3.8-0.7L183.1,72.6z"/>
							<path class="st9" d="M183.3,67.5c1.8,0.2,3.5,0.5,5.3,0.7c3.8,0.5,7.7,0.8,11.7,0.4c3.4-0.3,6.7-1.2,9.7-2.6
								c-0.1,0.8-0.6,1.5-1.4,2.2c-1,0.9-2.5,1.6-4,2.2c-2.9,1.3-6.2,2.3-9.5,2.6c-3.4,0.3-6.7-0.1-10-0.8c-0.6-0.1-1.3-0.3-1.9-0.4
								L183.3,67.5z"/>
							<path class="st9" d="M183.5,63.2c2.6,0,5.3,0.1,8,0.1c4.3,0,8.6-0.2,12.8-1c3.8-0.7,7.6-1.8,10.7-3.7c0.1,1-0.1,1.9-0.8,2.8
								c-0.8,1.2-2.2,2.1-3.8,2.9c-3,1.8-6.6,2.9-10.3,3.3c-3.8,0.4-7.6,0.2-11.3-0.2c-1.8-0.2-3.6-0.4-5.4-0.6L183.5,63.2z"/>
							<path class="st9" d="M183.6,59.4c3-0.4,6.1-0.6,9.2-1c4.4-0.5,8.8-1.2,13.1-2.3s8.6-2.6,11.9-5.2c0.3-0.2,0.6-0.5,0.8-0.7
								c0.5,1,0.4,2.2-0.2,3.2c-0.9,1.4-2,2.6-3.5,3.7c-2.9,2.2-6.9,3.5-10.9,4.3c-4.1,0.8-8.3,1.1-12.5,1.2c-2.7,0.1-5.3,0-8,0.1
								L183.6,59.4z"/>
						</g>
						<path class="st9" d="M187.4,55.9c6.8-1.3,13.4-3,19.7-5.4c4.2-1.7,8.5-3.7,11.4-6.9c0.1-0.2,0.3-0.4,0.4-0.5
							c1,0.9,1.4,1.9,0.8,3.1c-0.6,1.5-1.6,2.9-3,4.1c-2.9,2.4-6.9,3.9-11.1,5c-4.2,1.1-8.5,1.8-12.9,2.4c-2.5,0.4-6.4,0.9-9,1.2
							C185.7,57.9,186.8,56.9,187.4,55.9z"/>
					</g>
				</g>
			</g>
			<linearGradient id="SVGID_3_" gradientUnits="userSpaceOnUse" x1="172.0805" y1="94.7122" x2="165.5914" y2="83.4726">
				<stop  offset="0" style="stop-color:#4A97E8"/>
				<stop  offset="1" style="stop-color:#6692FF"/>
			</linearGradient>
			<path class="st11" d="M176.9,82.2c-1.1-0.4-3.2-1.8-6.1-1.4c-1.4,0.2-2.3,1-2.9,1.7c-3.8,1.8-9.7,5.7-8.1,11.6
				c0.5,2.1,1.8,3.6,3.6,4.7c0.3,0.2,0.5,0.3,0.8,0.4c0.6-1.3,1.4-2.1,2-2.5c-0.5-0.1-0.9-0.3-1.3-0.5c-1.1-0.6-1.8-1.5-2.2-2.8
				c-0.9-3.4,2.4-6,5.3-7.6c1,0.9,2.6,0.8,3.7,0.4c1.5-0.6,4.4-2.1,4.8-2.3C176.9,83.9,178,82.6,176.9,82.2z"/>
		</g>
	</g>
</g>
</svg>
