<?xml version="1.0" encoding="utf-8"?>
<!-- Generator: Adobe Illustrator 19.0.0, SVG Export Plug-In . SVG Version: 6.00 Build 0)  -->
<svg version="1.1" id="fundo" xmlns="http://www.w3.org/2000/svg" xmlns:xlink="http://www.w3.org/1999/xlink" x="0px" y="0px"
	 viewBox="400 -100 1000 400" style="enable-background:new 400 -100 1000 400;" xml:space="preserve">
<style type="text/css">
	.st0{fill:#FFFFFF;stroke:#000000;stroke-miterlimit:10;}
	.st1{fill:#062D49;}
	.st2{opacity:0.5;fill:url(#XMLID_11_);enable-background:new    ;}
	.st3{opacity:0.5;fill:url(#XMLID_12_);enable-background:new    ;}
	.st4{fill:#FFFFFF;}
	.st5{fill:#E4E4E4;}
	.st6{fill:#CACACA;}
	.st7{fill:#EA2327;}
	.st8{fill:#F9EB20;}
	.st9{fill:#8BC440;}
	.st10{fill:#2D688D;}
	.st11{fill:url(#XMLID_21_);}
	.st12{fill:url(#XMLID_27_);}
	.st13{fill:#597C9D;}
	.st14{fill:#676767;}
	.st15{fill:#7D94B0;}
	.st16{fill:#F0D6BB;}
	.st17{fill:#E3E3E3;}
	.st18{fill:#C3996D;}
	.st19{fill:#6498B9;}
	.st20{fill:#C2DC83;}
	.st21{fill:#BF282D;}
	.st22{fill:#FEF7E2;}
	.st23{fill:#A42227;}
	.st24{fill:none;stroke:#A47D52;stroke-width:0.9492;stroke-miterlimit:10;}
	.st25{fill:#A45C5F;stroke:#A47D52;stroke-width:1.0841;stroke-miterlimit:10;}
	.st26{fill:none;stroke:#A47D52;stroke-width:1.0841;stroke-miterlimit:10;}
	.st27{fill:#8B1D20;}
	.st28{fill:#2CBDBD;}
	.st29{fill:#00ABA8;}
	.st30{fill:#029290;}
	.st31{fill:#F8D4B8;}
	.st32{fill:#4E4E4E;}
	.st33{fill:#E0D423;}
	.st34{fill:#C4BB30;}
	.st35{fill:#F1F0F0;}
	.st36{fill:#2B3B47;}
	.st37{fill:#3B5062;}
	.st38{fill:#F05B26;}
	.st39{fill:#F59221;}
	.st40{fill:#F8AE3C;}
	.st41{fill:#AADDDE;}
	.st42{fill:#D3EDF0;}
	.st43{opacity:0.7;fill:url(#XMLID_28_);enable-background:new    ;}
	.st44{opacity:0.7;fill:url(#XMLID_29_);enable-background:new    ;}
	.st45{fill:#818181;}
	.st46{font-family:'Roboto-Medium';}
	.st47{font-size:3.0294px;}
	.st48{opacity:0.8;fill:url(#XMLID_35_);enable-background:new    ;}
	.st49{fill:#B2B2B2;}
	.st50{fill:#8CD5F3;}
	.st51{fill:#38C4F3;}
	.st52{fill:#1189C5;}
	.st53{fill:url(#XMLID_37_);}
	.st54{fill:url(#XMLID_41_);}
	.st55{fill:url(#XMLID_42_);}
	.st56{fill:url(#XMLID_46_);}
	.st57{fill:url(#XMLID_48_);}
	.st58{fill:url(#XMLID_51_);}
	.st59{fill:url(#XMLID_52_);}
	.st60{clip-path:url(#SVGID_2_);}
	.st61{fill:url(#XMLID_53_);}
	.st62{fill:url(#XMLID_54_);}
	.st63{fill:url(#XMLID_55_);}
	.st64{fill:url(#XMLID_58_);}
	.st65{fill:url(#XMLID_59_);}
	.st66{fill:#DADBDA;}
	.st67{fill:#D7D9D7;}
	.st68{fill:#CFD0D0;}
	.st69{fill:#E3A34A;}
	.st70{fill:#DA8C27;}
	.st71{fill:#EA7676;}
	.st72{fill:#E24A49;}
	.st73{fill:#DA1F26;}
	.st74{opacity:0.5;fill:#FFFFFF;enable-background:new    ;}
</style>
<rect x="400" y="-100" class="st0" width="1000" height="400"/>
<rect id="XMLID_16_" x="397.9" y="-101.4" class="st1" width="1002.2" height="68.3"/>
<polygon id="XMLID_17_" class="st1" points="1399.6,66.9 1344.9,66.9 1087.4,234.7 1220.4,234.7 1399.6,299 1274.4,299 1192.1,264 
	1075.1,264 1013.8,299 862.3,299 1065.1,173.8 397.9,175.2 397.9,300 1048.3,301.3 1241.9,305.3 1402.1,300 "/>
<g id="XMLID_14_">
	
		<radialGradient id="XMLID_11_" cx="1084.1" cy="800.2964" r="127.6968" gradientTransform="matrix(1 0 0 -0.1252 0 237.8971)" gradientUnits="userSpaceOnUse">
		<stop  offset="0" style="stop-color:#010101"/>
		<stop  offset="1" style="stop-color:#010101;stop-opacity:0"/>
	</radialGradient>
	<ellipse id="XMLID_276_" class="st2" cx="1084.1" cy="137.7" rx="130.7" ry="17.6"/>
	
		<radialGradient id="XMLID_12_" cx="-3490.3755" cy="2077.7346" r="127.7516" gradientTransform="matrix(0.2998 0 0 -5.657702e-002 2230.3147 261.6001)" gradientUnits="userSpaceOnUse">
		<stop  offset="0" style="stop-color:#010101"/>
		<stop  offset="1" style="stop-color:#010101;stop-opacity:0"/>
	</radialGradient>
	<ellipse id="XMLID_275_" class="st3" cx="1183.9" cy="144.1" rx="39.2" ry="8"/>
	<g id="XMLID_534_">
		<g id="XMLID_562_">
			<polygon id="XMLID_274_" class="st4" points="976,56.4 954.1,68.7 979,112.8 1011.3,94.6 992.3,60.9 			"/>
			<polygon id="XMLID_273_" class="st5" points="976,56.4 981.8,66.8 992.3,60.9 			"/>
		</g>
		<g id="XMLID_535_">
			<g id="XMLID_539_">
				<g id="XMLID_559_">
					<polygon id="XMLID_272_" class="st4" points="970.6,69.8 948.8,82.1 973.8,126.2 1006,108 987,74.3 					"/>
					<polygon id="XMLID_271_" class="st5" points="970.6,69.8 976.5,80.2 987,74.3 					"/>
				</g>
				<g id="XMLID_540_">
					<g id="XMLID_554_">
						
							<rect id="XMLID_270_" x="957.1" y="87.4" transform="matrix(-0.8707 0.4918 -0.4918 -0.8707 1845.8689 -310.0616)" class="st6" width="13.2" height="0.4"/>
						
							<rect id="XMLID_269_" x="957.8" y="88.7" transform="matrix(-0.8707 0.4918 -0.4918 -0.8707 1847.8588 -307.9999)" class="st6" width="13.2" height="0.4"/>
						
							<rect id="XMLID_268_" x="958.4" y="89.7" transform="matrix(-0.8707 0.4918 -0.4918 -0.8707 1849.4358 -306.3577)" class="st6" width="13.2" height="0.4"/>
						
							<rect id="XMLID_267_" x="959" y="90.9" transform="matrix(-0.8707 0.4918 -0.4918 -0.8707 1851.182 -304.4387)" class="st6" width="13.2" height="0.4"/>
					</g>
					<g id="XMLID_549_">
						
							<rect id="XMLID_266_" x="983.7" y="100.9" transform="matrix(-0.8707 0.4918 -0.4918 -0.8707 1902.2452 -297.8444)" class="st6" width="13.2" height="0.4"/>
						
							<rect id="XMLID_265_" x="984.5" y="102.1" transform="matrix(-0.8707 0.4918 -0.4918 -0.8707 1904.3672 -296.0964)" class="st6" width="13.2" height="0.4"/>
						
							<rect id="XMLID_264_" x="985.1" y="103.2" transform="matrix(-0.8707 0.4919 -0.4919 -0.8707 1905.9198 -294.3556)" class="st6" width="13.2" height="0.4"/>
						
							<rect id="XMLID_263_" x="985.6" y="104.3" transform="matrix(-0.8707 0.4919 -0.4919 -0.8707 1907.532 -292.5749)" class="st6" width="13.2" height="0.4"/>
					</g>
					
						<rect id="XMLID_262_" x="960.2" y="90.7" transform="matrix(-0.8707 0.4918 -0.4918 -0.8707 1868.7722 -309.4954)" class="st6" width="29.8" height="0.4"/>
					
						<rect id="XMLID_261_" x="960.8" y="91.8" transform="matrix(-0.8707 0.4918 -0.4918 -0.8707 1870.4705 -307.6944)" class="st6" width="29.8" height="0.4"/>
					
						<rect id="XMLID_260_" x="961.5" y="93" transform="matrix(-0.8707 0.4918 -0.4918 -0.8707 1872.3666 -305.8319)" class="st6" width="29.8" height="0.4"/>
					
						<rect id="XMLID_259_" x="962.1" y="94.1" transform="matrix(-0.8707 0.4918 -0.4918 -0.8707 1874.079 -304.0511)" class="st6" width="29.8" height="0.4"/>
					
						<rect id="XMLID_258_" x="964.2" y="97.7" transform="matrix(-0.8707 0.4918 -0.4918 -0.8707 1879.7213 -298.4054)" class="st6" width="29.8" height="0.4"/>
					
						<rect id="XMLID_257_" x="964.7" y="98.9" transform="matrix(-0.8707 0.4918 -0.4918 -0.8707 1881.3298 -296.3528)" class="st6" width="29.8" height="0.4"/>
					
						<rect id="XMLID_256_" x="965.5" y="100" transform="matrix(-0.8707 0.4918 -0.4918 -0.8707 1883.3014 -294.7219)" class="st6" width="29.8" height="0.4"/>
					
						<rect id="XMLID_255_" x="966.1" y="101.1" transform="matrix(-0.8707 0.4919 -0.4919 -0.8707 1884.8802 -293.019)" class="st6" width="29.8" height="0.4"/>
				</g>
			</g>
			<circle id="XMLID_254_" class="st7" cx="973" cy="113.2" r="2.2"/>
			<circle id="XMLID_253_" class="st8" cx="978" cy="110.4" r="2.2"/>
			<circle id="XMLID_252_" class="st9" cx="982.8" cy="107.7" r="2.2"/>
		</g>
	</g>
	<g id="XMLID_525_">
		<path id="XMLID_251_" class="st10" d="M959,89.5c0,0,40.7,26.4,44.1,30.3c3.4,4,8,16.3,7,17.5c-0.9,1.2-4.3,0.7-4.7-0.2
			s0.3-12.4-4-16.1c-4.3-3.8-45.2-27.5-45.2-27.5L959,89.5z"/>
		<path id="XMLID_250_" class="st10" d="M1018.5,117.7c0,0-46.1-14.9-51.4-15c-5.2-0.1-17.7,4.1-18,5.6c-0.4,1.5,2.2,3.8,3.2,3.5
			c0.9-0.3,9.4-8.1,15-7.1c5.7,1,49.9,17.7,49.9,17.7L1018.5,117.7z"/>
		
			<linearGradient id="XMLID_21_" gradientUnits="userSpaceOnUse" x1="1072.3505" y1="-800.162" x2="1102.0338" y2="-800.162" gradientTransform="matrix(0.9031 0.4294 0.4294 -0.9031 329.6463 -1084.1666)">
			<stop  offset="0" style="stop-color:#FFFFFF"/>
			<stop  offset="1" style="stop-color:#FFFFFF;stop-opacity:0"/>
		</linearGradient>
		<path id="XMLID_249_" class="st11" d="M978.6,117.3c-1,2-3.3,2.9-5.3,1.9l-19.6-9.3c-2-1-2.9-3.3-1.9-5.3l5.4-11.3
			c1-2,3.3-2.9,5.3-1.9l19.6,9.3c2,1,2.9,3.3,1.9,5.3L978.6,117.3z"/>
		
			<linearGradient id="XMLID_27_" gradientUnits="userSpaceOnUse" x1="1109.2484" y1="-800.1797" x2="1138.9318" y2="-800.1797" gradientTransform="matrix(0.9031 0.4294 0.4294 -0.9031 329.6463 -1084.1671)">
			<stop  offset="0" style="stop-color:#FFFFFF"/>
			<stop  offset="1" style="stop-color:#FFFFFF;stop-opacity:0"/>
		</linearGradient>
		<path id="XMLID_248_" class="st12" d="M1012,133.2c-1,2-3.3,2.9-5.3,1.9l-19.6-9.3c-2-1-2.9-3.3-1.9-5.3l5.4-11.3
			c1-2,3.3-2.9,5.3-1.9l19.6,9.3c2,1,2.9,3.3,1.9,5.3L1012,133.2z"/>
		<path id="XMLID_526_" class="st13" d="M1020.3,119.5c0.5-1,0.4-2.1-0.2-2.4l-61-29c-0.6-0.3-1.5,0.3-2,1.3c-0.4,0.8-0.4,1.7,0,2.1
			c-0.1,0.1-0.2,0.3-0.2,0.4l-6,12.7c-1,2-0.1,4.4,1.9,5.3l21.1,10c2,1,4.4,0.1,5.3-1.9l6-12.7c0.1-0.1,0.1-0.2,0.1-0.4l5.1,2.4
			c-0.1,0.1-0.1,0.2-0.2,0.3l-6,12.7c-1,2-0.1,4.4,1.9,5.3l21.1,10c2,1,4.4,0.1,5.3-1.9l6-12.7c0.1-0.1,0.1-0.3,0.2-0.4
			C1019.3,120.9,1020,120.3,1020.3,119.5z M983.3,104.6l-6,12.7c-0.5,1-1.7,1.4-2.7,0.9l-21.1-10c-1-0.5-1.4-1.7-0.9-2.7l6-12.7
			c0.1-0.1,0.1-0.2,0.2-0.3l24.6,11.7C983.3,104.3,983.3,104.5,983.3,104.6z M1010.6,133.1c-0.5,1-1.7,1.4-2.7,0.9l-21.1-10
			c-1-0.5-1.4-1.7-0.9-2.7l6-12.7c0.1-0.1,0.1-0.2,0.2-0.3l24.6,11.7c0,0.1-0.1,0.2-0.1,0.4L1010.6,133.1z"/>
	</g>
	<g id="XMLID_491_">
		<circle id="XMLID_244_" class="st4" cx="1163.8" cy="35" r="29"/>
		<path id="XMLID_243_" class="st5" d="M1175.3,13c-12.7-6.5-28.2-2.8-36.9,8c7.5-13.7,24.7-19.1,38.7-11.9
			c13.6,7,19.3,23.3,13.4,37.1C1193.4,33.4,1187.4,19.3,1175.3,13z"/>
		<path id="XMLID_520_" class="st13" d="M1176.9,9.5c14.1,7.3,19.7,24.6,12.4,38.7c-7.3,14.1-24.6,19.7-38.7,12.4
			s-19.7-24.6-12.4-38.7C1145.6,7.8,1162.9,2.2,1176.9,9.5 M1178.6,6.1c-15.9-8.2-35.5-1.9-43.7,14s-1.9,35.5,14,43.7
			s35.5,1.9,43.7-14S1194.6,14.3,1178.6,6.1L1178.6,6.1z"/>
		<g id="XMLID_507_">
			<path id="XMLID_240_" class="st14" d="M1152.4,56.2l0.5-1l0.7,0.3l-0.5,1c0.4,0.4,0.5,0.9,0.2,1.4s-0.8,0.7-1.3,0.6l-0.5,1
				l-0.7-0.3l0.5-1c-0.4-0.4-0.5-0.9-0.2-1.4C1151.4,56.4,1151.9,56.1,1152.4,56.2z"/>
			<path id="XMLID_239_" class="st14" d="M1175.6,11.2l0.6-1.1l0.7,0.3l-0.6,1.1c0.4,0.4,0.5,0.9,0.2,1.4c-0.3,0.5-0.8,0.7-1.3,0.6
				l-0.5,0.9l-0.7-0.3l0.5-0.9c-0.4-0.4-0.5-0.9-0.2-1.4C1174.6,11.4,1175.1,11.2,1175.6,11.2z"/>
			
				<rect id="XMLID_238_" x="1140.3" y="48.3" transform="matrix(-0.8407 0.5416 -0.5416 -0.8407 2129.3523 -529.2443)" class="st14" width="4.5" height="0.7"/>
			
				<rect id="XMLID_237_" x="1136.2" y="35.8" transform="matrix(-0.9988 4.875447e-002 -4.875447e-002 -0.9988 2277.2861 16.7569)" class="st14" width="4.5" height="0.7"/>
			<path id="XMLID_236_" class="st14" d="M1139.4,21.9l1,0.5c0.4-0.3,0.9-0.4,1.4-0.2c0.5,0.2,0.7,0.7,0.7,1.2l0.9,0.5l-0.3,0.7
				l-0.9-0.5c-0.4,0.4-1,0.5-1.5,0.3c-0.5-0.3-0.7-0.8-0.6-1.3l-1-0.5L1139.4,21.9z"/>
			
				<rect id="XMLID_235_" x="1149.8" y="11.2" transform="matrix(0.8407 -0.5415 0.5415 0.8407 175.9306 624.9642)" class="st14" width="0.7" height="4.5"/>
			
				<rect id="XMLID_234_" x="1162.2" y="7.3" transform="matrix(-0.9988 4.837467e-002 -4.837467e-002 -0.9988 2324.1355 -37.1448)" class="st14" width="0.7" height="4.5"/>
			
				<rect id="XMLID_233_" x="1182.9" y="20.8" transform="matrix(-0.8407 0.5415 -0.5415 -0.8407 2192.9551 -602.8733)" class="st14" width="4.5" height="0.7"/>
			
				<rect id="XMLID_232_" x="1186.8" y="33.3" transform="matrix(-0.9988 4.828958e-002 -4.828958e-002 -0.9988 2378.2607 9.845)" class="st14" width="4.5" height="0.7"/>
			<path id="XMLID_231_" class="st14" d="M1184.3,45.7l0.3-0.7l1,0.5c0.4-0.3,0.9-0.4,1.4-0.2s0.7,0.7,0.7,1.2l1,0.5l-0.3,0.7
				l-1-0.5c-0.4,0.4-1,0.5-1.5,0.3c-0.5-0.3-0.7-0.8-0.6-1.4L1184.3,45.7z"/>
			
				<rect id="XMLID_230_" x="1177.2" y="53.9" transform="matrix(-0.8407 0.5415 -0.5415 -0.8407 2197.9421 -534.2393)" class="st14" width="0.7" height="4.5"/>
			
				<rect id="XMLID_229_" x="1164.8" y="57.9" transform="matrix(-0.9988 4.929162e-002 -4.929162e-002 -0.9988 2331.8867 62.7911)" class="st14" width="0.7" height="4.5"/>
		</g>
		<g id="XMLID_492_">
			<g id="XMLID_501_">
				<path id="XMLID_504_" class="st15" d="M1163.4,33.9l-14.4,4.6c-0.6,0.2-0.9,0.8-0.7,1.4c0.1,0.3,0.3,0.5,0.6,0.7
					c0.3,0.1,0.6,0.2,0.9,0.1l14.4-4.6c0.6-0.2,0.9-0.8,0.7-1.4C1164.8,34,1164.1,33.7,1163.4,33.9z M1149.3,38.9
					c0.4-0.1,0.8,0.1,1,0.5c0.1,0.4-0.1,0.8-0.5,1c-0.4,0.1-0.8-0.1-1-0.5C1148.6,39.4,1148.9,39,1149.3,38.9z"/>
				<path id="XMLID_226_" class="st13" d="M1148.9,40.6c-0.3-0.1-0.5-0.4-0.6-0.7c0-0.1-0.1-0.3-0.1-0.4l0.5-0.1
					c-0.1,0.2-0.1,0.3,0,0.5c0.1,0.4,0.6,0.6,1,0.5s0.6-0.6,0.5-1c-0.1-0.2-0.2-0.3-0.3-0.4l14.7-4.7c0.1,0.1,0.2,0.2,0.2,0.4
					c0.2,0.6-0.1,1.2-0.7,1.4l-14.4,4.6C1149.4,40.8,1149.1,40.7,1148.9,40.6z"/>
				<path id="XMLID_225_" class="st10" d="M1148.9,40.6c-0.1-0.1-0.3-0.2-0.4-0.3l0.4-0.1c0.2,0.2,0.5,0.2,0.7,0.2
					c0.3-0.1,0.4-0.3,0.5-0.6l14.7-4.7c0,0.5-0.3,0.9-0.8,1l-14.4,4.6C1149.4,40.8,1149.1,40.7,1148.9,40.6z"/>
			</g>
			<g id="XMLID_495_">
				<path id="XMLID_498_" class="st15" d="M1164.9,35.5l12.4-24.1c0.3-0.6,0.1-1.2-0.5-1.5s-1.2-0.1-1.5,0.5l-12.4,24.1
					c-0.3,0.6-0.1,1.2,0.5,1.5C1163.9,36.3,1164.6,36.1,1164.9,35.5z M1176.9,11.3c-0.2,0.4-0.7,0.5-1,0.3c-0.4-0.2-0.5-0.7-0.3-1
					c0.2-0.4,0.7-0.5,1-0.3S1177.1,10.9,1176.9,11.3z"/>
				<path id="XMLID_222_" class="st13" d="M1176.8,9.9c0.1,0.1,0.2,0.2,0.3,0.3l-0.2,0.5c-0.1-0.1-0.2-0.2-0.3-0.3
					c-0.4-0.2-0.8,0-1,0.3c-0.2,0.4,0,0.8,0.3,1c0.1,0.1,0.3,0.1,0.4,0.1l-12.5,24.4c-0.1,0-0.3-0.1-0.4-0.1c-0.6-0.3-0.8-1-0.5-1.5
					l12.4-24.1C1175.4,9.8,1176.1,9.6,1176.8,9.9z"/>
				<path id="XMLID_221_" class="st10" d="M1176.1,9.7l-0.3,0.5c-0.2,0.1-0.4,0.2-0.5,0.4s-0.1,0.4,0,0.6l-12.6,24.4
					c-0.2-0.3-0.3-0.8-0.1-1.2l12.4-24.1C1175.4,10,1175.8,9.7,1176.1,9.7z"/>
			</g>
			<circle id="XMLID_220_" class="st10" cx="1163.9" cy="34.9" r="1.2"/>
			<circle id="XMLID_219_" class="st13" cx="1163.9" cy="34.8" r="1.2"/>
		</g>
	</g>
	<g id="XMLID_472_">
		<polygon id="XMLID_218_" class="st4" points="1033.4,8.4 1029.4,27.3 998.5,-10.5 1002.5,-29.4 		"/>
		<polygon id="XMLID_217_" class="st16" points="1031.8,6.3 1027.6,25.3 1000,-8.5 1004,-27.4 		"/>
		
			<rect id="XMLID_216_" x="992.3" y="-8.4" transform="matrix(-0.7737 0.6335 -0.6335 -0.7737 1791.7828 -607.7825)" class="st17" width="24.3" height="48.9"/>
		
			<rect id="XMLID_215_" x="992.4" y="-5.7" transform="matrix(-0.7737 0.6335 -0.6335 -0.7737 1791.9905 -607.8394)" class="st18" width="24.3" height="43.6"/>
		<polygon id="XMLID_214_" class="st4" points="1010.5,42.7 1001.1,63.1 970.1,25.3 979.6,4.8 		"/>
		<polygon id="XMLID_213_" class="st16" points="1009,40.6 999.5,61.1 971.8,27.3 981.3,6.9 		"/>
		<polygon id="XMLID_212_" class="st19" points="1025.4,22.4 1029.6,3.7 1007,-23.8 1021,17.2 		"/>
		
			<rect id="XMLID_211_" x="983.3" y="3.3" transform="matrix(-0.7737 0.6335 -0.6335 -0.7737 1768.7999 -621.7365)" class="st10" width="24.3" height="3.4"/>
		<polygon id="XMLID_210_" class="st19" points="977.6,34.5 987.1,14 985,11.3 975.5,31.8 		"/>
		<polygon id="XMLID_209_" class="st19" points="1005.8,-1.4 1009.3,-21.1 1007,-23.8 1003.8,-4 		"/>
		
			<rect id="XMLID_208_" x="1003.7" y="26.1" transform="matrix(0.7737 -0.6335 0.6335 0.7737 210.8241 650.3307)" class="st9" width="24.3" height="7.8"/>
		
			<rect id="XMLID_207_" x="1001.8" y="24" transform="matrix(0.7737 -0.6335 0.6335 0.7737 212.0965 648.5183)" class="st10" width="24.3" height="6.7"/>
		<polygon id="XMLID_206_" class="st20" points="982.1,24.9 1002.3,32.5 1009,40.6 1004,51.5 		"/>
		<polygon id="XMLID_205_" class="st19" points="1006.5,37.7 997.3,58.4 993,53.3 1002.3,32.5 		"/>
		<polygon id="XMLID_204_" class="st19" points="1004,51.5 1001.8,56 974.3,22.2 976.3,17.8 		"/>
		<path id="XMLID_473_" class="st21" d="M999,4.2c-2.7,2.2-3.2,6.1-1.1,8.6c2.1,2.5,9.2,6.7,11.9,4.5s0-10-2.1-12.5
			C1005.6,2.2,1001.8,2,999,4.2z M1005,11.4c-1.5,1.3-3.7,1.1-4.9-0.3s-0.9-3.6,0.6-4.9s3.7-1.1,4.9,0.3S1006.5,10.1,1005,11.4z"/>
	</g>
	<g id="XMLID_404_">
		<path id="XMLID_201_" class="st22" d="M1071.6,23.8c0.3,1.5-0.7,2.9-2.2,3.1l-38,6.8c-1.5,0.3-2.9-0.7-3.1-2.2L1022-3
			c-0.3-1.5,0.7-2.9,2.2-3.1l38-6.8c1.5-0.3,2.9,0.7,3.1,2.2L1071.6,23.8z"/>
		<path id="XMLID_200_" class="st23" d="M1066.1-7l-0.7-3.7c-0.3-1.5-1.7-2.4-3.1-2.2l-38,6.8c-1.5,0.3-2.4,1.7-2.2,3.1l0.7,3.7
			L1066.1-7z"/>
		<g id="XMLID_433_">
			
				<rect id="XMLID_199_" x="1028.3" y="-1.3" transform="matrix(-0.9844 0.176 -0.176 -0.9844 2080.4673 -158.6072)" class="st24" width="37.9" height="28.5"/>
			
				<rect id="XMLID_198_" x="1026.8" y="3.2" transform="matrix(-0.9844 0.176 -0.176 -0.9844 2043.9927 -169.5)" class="st25" width="5.4" height="5.4"/>
			
				<rect id="XMLID_197_" x="1032.1" y="2.2" transform="matrix(-0.9844 0.176 -0.176 -0.9844 2054.3369 -172.3884)" class="st26" width="5.4" height="5.4"/>
			
				<rect id="XMLID_196_" x="1037.5" y="1.2" transform="matrix(-0.9844 0.176 -0.176 -0.9844 2064.8501 -175.3489)" class="st26" width="5.4" height="5.4"/>
			
				<rect id="XMLID_195_" x="1042.8" y="0.3" transform="matrix(-0.9844 0.176 -0.176 -0.9844 2075.2234 -178.0739)" class="st26" width="5.4" height="5.4"/>
			
				<rect id="XMLID_194_" x="1048" y="-0.7" transform="matrix(-0.9844 0.176 -0.176 -0.9844 2085.3748 -180.9454)" class="st26" width="5.4" height="5.4"/>
			
				<rect id="XMLID_193_" x="1053.4" y="-1.6" transform="matrix(-0.9844 0.176 -0.176 -0.9844 2095.9456 -183.6796)" class="st26" width="5.4" height="5.4"/>
			
				<rect id="XMLID_192_" x="1058.7" y="-2.6" transform="matrix(-0.9844 0.176 -0.176 -0.9844 2106.2722 -186.5983)" class="st26" width="5.4" height="5.4"/>
			
				<rect id="XMLID_191_" x="1027.8" y="8.5" transform="matrix(-0.9844 0.176 -0.176 -0.9844 2046.9066 -159.1614)" class="st25" width="5.4" height="5.4"/>
			
				<rect id="XMLID_190_" x="1033" y="7.5" transform="matrix(-0.9844 0.176 -0.176 -0.9844 2057.0532 -162.0318)" class="st26" width="5.4" height="5.4"/>
			
				<rect id="XMLID_189_" x="1038.4" y="6.6" transform="matrix(-0.9844 0.176 -0.176 -0.9844 2067.614 -164.7983)" class="st26" width="5.4" height="5.4"/>
			
				<rect id="XMLID_188_" x="1043.7" y="5.6" transform="matrix(-0.9844 0.176 -0.176 -0.9844 2077.9526 -167.6853)" class="st26" width="5.4" height="5.4"/>
			
				<rect id="XMLID_187_" x="1049.1" y="4.7" transform="matrix(-0.9844 0.176 -0.176 -0.9844 2088.5134 -170.452)" class="st26" width="5.4" height="5.4"/>
			
				<rect id="XMLID_186_" x="1054.3" y="3.7" transform="matrix(-0.9844 0.176 -0.176 -0.9844 2098.6526 -173.3201)" class="st26" width="5.4" height="5.4"/>
			
				<rect id="XMLID_185_" x="1059.7" y="2.8" transform="matrix(-0.9844 0.176 -0.176 -0.9844 2109.1997 -176.0829)" class="st26" width="5.4" height="5.4"/>
			
				<rect id="XMLID_184_" x="1028.7" y="13.8" transform="matrix(-0.9844 0.176 -0.176 -0.9844 2049.6208 -148.8039)" class="st25" width="5.4" height="5.4"/>
			
				<rect id="XMLID_183_" x="1034.1" y="12.9" transform="matrix(-0.9844 0.176 -0.176 -0.9844 2060.1841 -151.5361)" class="st26" width="5.4" height="5.4"/>
			
				<rect id="XMLID_182_" x="1039.3" y="11.9" transform="matrix(-0.9844 0.176 -0.176 -0.9844 2070.3435 -154.4098)" class="st26" width="5.4" height="5.4"/>
			
				<rect id="XMLID_181_" x="1044.7" y="11" transform="matrix(-0.9844 0.176 -0.176 -0.9844 2080.8784 -157.1692)" class="st26" width="5.4" height="5.4"/>
			
				<rect id="XMLID_180_" x="1050" y="10" transform="matrix(-0.9844 0.176 -0.176 -0.9844 2091.2222 -160.093)" class="st26" width="5.4" height="5.4"/>
			
				<rect id="XMLID_179_" x="1055.3" y="9" transform="matrix(-0.9844 0.176 -0.176 -0.9844 2101.5793 -162.9852)" class="st26" width="5.4" height="5.4"/>
			
				<rect id="XMLID_178_" x="1060.7" y="8.1" transform="matrix(-0.9844 0.176 -0.176 -0.9844 2112.1191 -165.7459)" class="st26" width="5.4" height="5.4"/>
			
				<rect id="XMLID_177_" x="1029.6" y="19.1" transform="matrix(-0.9844 0.1759 -0.1759 -0.9844 2052.321 -138.3055)" class="st25" width="5.4" height="5.4"/>
			
				<rect id="XMLID_176_" x="1035" y="18.2" transform="matrix(-0.9844 0.176 -0.176 -0.9844 2062.8958 -141.178)" class="st26" width="5.4" height="5.4"/>
			
				<rect id="XMLID_175_" x="1040.2" y="17.3" transform="matrix(-0.9844 0.176 -0.176 -0.9844 2073.0784 -143.8516)" class="st26" width="5.4" height="5.4"/>
			
				<rect id="XMLID_174_" x="1045.7" y="16.2" transform="matrix(-0.9844 0.176 -0.176 -0.9844 2083.7766 -147.0331)" class="st26" width="5.4" height="5.4"/>
			
				<rect id="XMLID_173_" x="1050.9" y="15.3" transform="matrix(-0.9844 0.176 -0.176 -0.9844 2093.9517 -149.7045)" class="st26" width="5.4" height="5.4"/>
			
				<rect id="XMLID_172_" x="1056.3" y="14.3" transform="matrix(-0.9844 0.1761 -0.1761 -0.9844 2104.4875 -152.7757)" class="st26" width="5.4" height="5.4"/>
			
				<rect id="XMLID_171_" x="1061.5" y="13.3" transform="matrix(-0.9844 0.176 -0.176 -0.9844 2114.6157 -155.536)" class="st26" width="5.4" height="5.4"/>
			
				<rect id="XMLID_170_" x="1030.6" y="24.5" transform="matrix(-0.9844 0.176 -0.176 -0.9844 2055.2729 -127.8987)" class="st25" width="5.4" height="5.4"/>
			
				<rect id="XMLID_169_" x="1035.9" y="23.5" transform="matrix(-0.9844 0.176 -0.176 -0.9844 2065.6301 -130.7906)" class="st26" width="5.4" height="5.4"/>
			
				<rect id="XMLID_168_" x="1041.3" y="22.6" transform="matrix(-0.9844 0.176 -0.176 -0.9844 2076.1904 -133.557)" class="st26" width="5.4" height="5.4"/>
			
				<rect id="XMLID_167_" x="1046.6" y="21.6" transform="matrix(-0.9844 0.176 -0.176 -0.9844 2086.512 -136.475)" class="st26" width="5.4" height="5.4"/>
			
				<rect id="XMLID_166_" x="1051.9" y="20.7" transform="matrix(-0.9844 0.176 -0.176 -0.9844 2096.8799 -139.1891)" class="st26" width="5.4" height="5.4"/>
			
				<rect id="XMLID_165_" x="1057.3" y="19.7" transform="matrix(-0.9844 0.176 -0.176 -0.9844 2107.4214 -142.1314)" class="st26" width="5.4" height="5.4"/>
			
				<rect id="XMLID_164_" x="1062.5" y="18.7" transform="matrix(-0.9844 0.176 -0.176 -0.9844 2117.5625 -144.9998)" class="st26" width="5.4" height="5.4"/>
		</g>
		<g id="XMLID_405_">
			<path id="XMLID_163_" class="st10" d="M1027.1-3.2c0.1,0.5-0.2,1-0.7,1.1l0,0c-0.5,0.1-1-0.2-1.1-0.7l-1-5.7
				c-0.1-0.5,0.2-1,0.7-1.1l0,0c0.5-0.1,1,0.2,1.1,0.7L1027.1-3.2z"/>
			<path id="XMLID_162_" class="st13" d="M1025.4-9.6c-0.1,0-0.2,0-0.3,0c-0.5,0.1-0.8,0.6-0.7,1.1l1,5.7c0.1,0.5,0.6,0.8,1.1,0.7
				c0.1,0,0.2-0.1,0.3-0.1L1025.4-9.6z"/>
			<path id="XMLID_161_" class="st15" d="M1024.6-9.4c-0.2,0.2-0.4,0.5-0.3,0.9l1,5.7c0.1,0.3,0.3,0.6,0.6,0.7L1024.6-9.4z"/>
			<path id="XMLID_160_" class="st10" d="M1031.4-4c0.1,0.5-0.2,1-0.7,1.1l0,0c-0.5,0.1-1-0.2-1.1-0.7l-1-5.7
				c-0.1-0.5,0.2-1,0.7-1.1l0,0c0.5-0.1,1,0.2,1.1,0.7L1031.4-4z"/>
			<path id="XMLID_159_" class="st10" d="M1035.9-4.8c0.1,0.5-0.2,1-0.7,1.1l0,0c-0.5,0.1-1-0.2-1.1-0.7l-1-5.7
				c-0.1-0.5,0.2-1,0.7-1.1l0,0c0.5-0.1,1,0.2,1.1,0.7L1035.9-4.8z"/>
			<path id="XMLID_158_" class="st10" d="M1040.4-5.6c0.1,0.5-0.2,1-0.7,1.1l0,0c-0.5,0.1-1-0.2-1.1-0.7l-1-5.7
				c-0.1-0.5,0.2-1,0.7-1.1l0,0c0.5-0.1,1,0.2,1.1,0.7L1040.4-5.6z"/>
			<path id="XMLID_157_" class="st10" d="M1044.8-6.3c0.1,0.5-0.2,1-0.7,1.1l0,0c-0.5,0.1-1-0.2-1.1-0.7l-1-5.7
				c-0.1-0.5,0.2-1,0.7-1.1l0,0c0.5-0.1,1,0.2,1.1,0.7L1044.8-6.3z"/>
			<path id="XMLID_156_" class="st10" d="M1049.1-7.1c0.1,0.5-0.2,1-0.7,1.1l0,0c-0.5,0.1-1-0.2-1.1-0.7l-1-5.7
				c-0.1-0.5,0.2-1,0.7-1.1l0,0c0.5-0.1,1,0.2,1.1,0.7L1049.1-7.1z"/>
			<path id="XMLID_155_" class="st10" d="M1053.6-7.9c0.1,0.5-0.2,1-0.7,1.1l0,0c-0.5,0.1-1-0.2-1.1-0.7l-1-5.7
				c-0.1-0.5,0.2-1,0.7-1.1l0,0c0.5-0.1,1,0.2,1.1,0.7L1053.6-7.9z"/>
			<path id="XMLID_154_" class="st10" d="M1057.9-8.7c0.1,0.5-0.2,1-0.7,1.1l0,0c-0.5,0.1-1-0.2-1.1-0.7l-1-5.7
				c-0.1-0.5,0.2-1,0.7-1.1l0,0c0.5-0.1,1,0.2,1.1,0.7L1057.9-8.7z"/>
			<path id="XMLID_153_" class="st10" d="M1062.4-9.5c0.1,0.5-0.2,1-0.7,1.1l0,0c-0.5,0.1-1-0.2-1.1-0.7l-1-5.7
				c-0.1-0.5,0.2-1,0.7-1.1l0,0c0.5-0.1,1,0.2,1.1,0.7L1062.4-9.5z"/>
			<path id="XMLID_152_" class="st13" d="M1029.8-10.4c-0.1,0-0.2,0-0.3,0c-0.5,0.1-0.8,0.6-0.7,1.1l1,5.7c0.1,0.5,0.6,0.8,1.1,0.7
				c0.1,0,0.2-0.1,0.3-0.1L1029.8-10.4z"/>
			<path id="XMLID_151_" class="st15" d="M1028.9-10.2c-0.2,0.2-0.4,0.5-0.3,0.9l1,5.7c0.1,0.3,0.3,0.6,0.6,0.7L1028.9-10.2z"/>
			<path id="XMLID_150_" class="st13" d="M1034.1-11.2c-0.1,0-0.2,0-0.3,0c-0.5,0.1-0.8,0.6-0.7,1.1l1,5.7c0.1,0.5,0.6,0.8,1.1,0.7
				c0.1,0,0.2-0.1,0.3-0.1L1034.1-11.2z"/>
			<path id="XMLID_149_" class="st15" d="M1033.4-11c-0.2,0.2-0.4,0.5-0.3,0.9l1,5.7c0.1,0.3,0.3,0.6,0.6,0.7L1033.4-11z"/>
			<path id="XMLID_148_" class="st13" d="M1038.6-12c-0.1,0-0.2,0-0.3,0c-0.5,0.1-0.8,0.6-0.7,1.1l1,5.7c0.1,0.5,0.6,0.8,1.1,0.7
				c0.1,0,0.2-0.1,0.3-0.1L1038.6-12z"/>
			<path id="XMLID_147_" class="st15" d="M1037.8-11.8c-0.2,0.2-0.4,0.5-0.3,0.9l1,5.7c0.1,0.3,0.3,0.6,0.6,0.7L1037.8-11.8z"/>
			<path id="XMLID_146_" class="st13" d="M1042.9-12.8c-0.1,0-0.2,0-0.3,0c-0.5,0.1-0.8,0.6-0.7,1.1l1,5.7c0.1,0.5,0.6,0.8,1.1,0.7
				c0.1,0,0.2-0.1,0.3-0.1L1042.9-12.8z"/>
			<path id="XMLID_145_" class="st15" d="M1042.3-12.6c-0.2,0.2-0.4,0.5-0.3,0.9l1,5.7c0.1,0.3,0.3,0.6,0.6,0.7L1042.3-12.6z"/>
			<path id="XMLID_144_" class="st13" d="M1047.4-13.6c-0.1,0-0.2,0-0.3,0c-0.5,0.1-0.8,0.6-0.7,1.1l1,5.7c0.1,0.5,0.6,0.8,1.1,0.7
				c0.1,0,0.2-0.1,0.3-0.1L1047.4-13.6z"/>
			<path id="XMLID_143_" class="st15" d="M1046.6-13.4c-0.2,0.2-0.4,0.5-0.3,0.9l1,5.7c0.1,0.3,0.3,0.6,0.6,0.7L1046.6-13.4z"/>
			<path id="XMLID_142_" class="st13" d="M1051.9-14.4c-0.1,0-0.2,0-0.3,0c-0.5,0.1-0.8,0.6-0.7,1.1l1,5.7c0.1,0.5,0.6,0.8,1.1,0.7
				c0.1,0,0.2-0.1,0.3-0.1L1051.9-14.4z"/>
			<path id="XMLID_141_" class="st15" d="M1051.1-14.2c-0.2,0.2-0.4,0.5-0.3,0.9l1,5.7c0.1,0.3,0.3,0.6,0.6,0.7L1051.1-14.2z"/>
			<path id="XMLID_140_" class="st13" d="M1056.3-15.2c-0.1,0-0.2,0-0.3,0c-0.5,0.1-0.8,0.6-0.7,1.1l1,5.7c0.1,0.5,0.6,0.8,1.1,0.7
				c0.1,0,0.2-0.1,0.3-0.1L1056.3-15.2z"/>
			<path id="XMLID_139_" class="st15" d="M1055.4-15c-0.2,0.2-0.4,0.5-0.3,0.9l1,5.7c0.1,0.3,0.3,0.6,0.6,0.7L1055.4-15z"/>
			<path id="XMLID_138_" class="st13" d="M1060.6-16c-0.1,0-0.2,0-0.3,0c-0.5,0.1-0.8,0.6-0.7,1.1l1,5.7c0.1,0.5,0.6,0.8,1.1,0.7
				c0.1,0,0.2-0.1,0.3-0.1L1060.6-16z"/>
			<path id="XMLID_137_" class="st15" d="M1059.9-15.7c-0.2,0.2-0.4,0.5-0.3,0.9l1,5.7c0.1,0.3,0.3,0.6,0.6,0.7L1059.9-15.7z"/>
		</g>
	</g>
	<g id="XMLID_366_">
		<path id="XMLID_136_" class="st4" d="M1112.4-12.7l0.4,1.7l1.2-0.3c0-0.5,0.4-0.9,0.9-1c0.6-0.1,1.2,0.2,1.4,0.8
			c0.1,0.6-0.2,1.2-0.8,1.4c-0.5,0.1-1-0.1-1.2-0.5l-1.2,0.3l1,4.2l1.2-0.3c0-0.5,0.4-0.9,0.9-1c0.6-0.1,1.2,0.2,1.4,0.8
			c0.1,0.6-0.2,1.2-0.8,1.4c-0.5,0.1-1-0.1-1.2-0.5l-1.2,0.3l1,4.2l1.2-0.3c0-0.5,0.4-0.9,0.9-1c0.6-0.1,1.2,0.2,1.4,0.8
			c0.1,0.6-0.2,1.2-0.8,1.4c-0.5,0.1-1-0.1-1.2-0.5l-1.2,0.3l1,4.2l1.2-0.3c0-0.5,0.4-0.9,0.9-1c0.6-0.1,1.2,0.2,1.4,0.8
			c0.1,0.6-0.2,1.2-0.8,1.4c-0.5,0.1-1-0.1-1.2-0.5l-1.2,0.3l1,4.2l1.2-0.3c0.1-0.5,0.4-0.9,0.9-1c0.6-0.1,1.2,0.2,1.4,0.8
			c0.1,0.6-0.2,1.2-0.8,1.4c-0.5,0.1-1-0.1-1.2-0.5l-1.2,0.3l1,4.2l1.2-0.3c0-0.5,0.4-0.9,0.9-1c0.6-0.1,1.2,0.2,1.4,0.8
			c0.1,0.6-0.2,1.2-0.8,1.4c-0.5,0.1-1-0.1-1.2-0.5l-1.2,0.3l1,4.2l1.2-0.3c0-0.5,0.4-0.9,0.9-1c0.6-0.1,1.2,0.2,1.4,0.8
			c0.1,0.6-0.2,1.2-0.8,1.4c-0.5,0.1-1-0.1-1.2-0.5l-1.2,0.3l1,4.2l1.2-0.3c0-0.5,0.4-0.9,0.9-1c0.6-0.1,1.2,0.2,1.4,0.8
			c0.1,0.6-0.2,1.2-0.8,1.4c-0.5,0.1-1-0.1-1.2-0.5l-1.2,0.3l1,4.2l1.2-0.3c0.1-0.5,0.4-0.9,0.9-1c0.6-0.1,1.2,0.2,1.4,0.8
			c0.1,0.6-0.2,1.2-0.8,1.4c-0.5,0.1-1-0.1-1.2-0.5l-1.2,0.3l1,4.2l1.2-0.3c0-0.5,0.4-0.9,0.9-1c0.6-0.1,1.2,0.2,1.4,0.8
			c0.1,0.6-0.2,1.2-0.8,1.4c-0.5,0.1-1-0.1-1.2-0.5l-1.2,0.3l0.4,1.7l35.5-8.5L1149-21.7L1112.4-12.7z"/>
		<g id="XMLID_380_">
			<path id="XMLID_135_" class="st4" d="M1102.8,0.3l0.4,1.7l1.2-0.3c0-0.5,0.4-0.9,0.9-1c0.6-0.1,1.2,0.2,1.4,0.8
				c0.1,0.6-0.2,1.2-0.8,1.4c-0.5,0.1-1-0.1-1.2-0.5l-1.2,0.3l1,4.2l1.2-0.3c0-0.5,0.4-0.9,0.9-1c0.6-0.1,1.2,0.2,1.4,0.8
				c0.1,0.6-0.2,1.2-0.8,1.4c-0.5,0.1-1-0.1-1.2-0.5l-1.2,0.3l1,4.2l1.2-0.3c0-0.5,0.4-0.9,0.9-1c0.6-0.1,1.2,0.2,1.4,0.8
				c0.1,0.6-0.2,1.2-0.8,1.4c-0.5,0.1-1-0.1-1.2-0.5l-1.2,0.3l1,4.2l1.2-0.3c0-0.5,0.4-0.9,0.9-1c0.6-0.1,1.2,0.2,1.4,0.8
				c0.1,0.6-0.2,1.2-0.8,1.4c-0.5,0.1-1-0.1-1.2-0.5l-1.2,0.3l1,4.2l1.2-0.3c0-0.5,0.4-0.9,0.9-1c0.6-0.1,1.2,0.2,1.4,0.8
				c0.1,0.6-0.2,1.2-0.8,1.4c-0.5,0.1-1-0.1-1.2-0.5l-1.2,0.3l1,4.2l1.2-0.3c0-0.5,0.4-0.9,0.9-1c0.6-0.1,1.2,0.2,1.4,0.8
				c0.1,0.6-0.2,1.2-0.8,1.4c-0.5,0.1-1-0.1-1.2-0.5l-1.2,0.3l1,4.2l1.2-0.3c0-0.5,0.4-0.9,0.9-1c0.6-0.1,1.2,0.2,1.4,0.8
				c0.1,0.6-0.2,1.2-0.8,1.4c-0.5,0.1-1-0.1-1.2-0.5l-1.2,0.3l1,4.2l1.2-0.3c0-0.5,0.4-0.9,0.9-1c0.6-0.1,1.2,0.2,1.4,0.8
				c0.1,0.6-0.2,1.2-0.8,1.4c-0.5,0.1-1-0.1-1.2-0.5l-1.2,0.3l1,4.2l1.2-0.3c0-0.5,0.4-0.9,0.9-1c0.6-0.1,1.2,0.2,1.4,0.8
				c0.1,0.6-0.2,1.2-0.8,1.4c-0.5,0.1-1-0.1-1.2-0.5l-1.2,0.3l1,4.2l1.2-0.3c0-0.5,0.4-0.9,0.9-1c0.6-0.1,1.2,0.2,1.4,0.8
				c0.1,0.6-0.2,1.2-0.8,1.4c-0.5,0.1-1-0.1-1.2-0.5l-1.2,0.3l0.4,1.7l35.5-8.5l-11.7-48.7L1102.8,0.3z"/>
			<g id="XMLID_382_">
				
					<rect id="XMLID_134_" x="1119.1" y="42.6" transform="matrix(0.9725 -0.233 0.233 0.9725 21.2862 265.5244)" class="st6" width="30.9" height="0.2"/>
				
					<rect id="XMLID_133_" x="1118.5" y="39.9" transform="matrix(0.9725 -0.233 0.233 0.9725 21.879 265.3115)" class="st6" width="30.9" height="0.2"/>
				
					<rect id="XMLID_132_" x="1117.9" y="37.4" transform="matrix(0.9725 -0.233 0.233 0.9725 22.4466 265.1035)" class="st6" width="30.9" height="0.2"/>
				
					<rect id="XMLID_131_" x="1117.2" y="34.9" transform="matrix(0.9725 -0.233 0.233 0.9725 23.0261 264.8708)" class="st6" width="30.9" height="0.2"/>
				
					<rect id="XMLID_130_" x="1116.6" y="32.4" transform="matrix(0.9725 -0.233 0.233 0.9725 23.5932 264.6616)" class="st6" width="30.9" height="0.2"/>
				
					<rect id="XMLID_129_" x="1116" y="29.7" transform="matrix(0.9725 -0.233 0.233 0.9725 24.1863 264.4496)" class="st6" width="30.9" height="0.2"/>
				
					<rect id="XMLID_128_" x="1115.4" y="27.2" transform="matrix(0.9725 -0.233 0.233 0.9725 24.7531 264.24)" class="st6" width="30.9" height="0.2"/>
				
					<rect id="XMLID_127_" x="1114.7" y="24.7" transform="matrix(0.9725 -0.233 0.233 0.9725 25.3325 264.0068)" class="st6" width="30.9" height="0.2"/>
				
					<rect id="XMLID_126_" x="1114.1" y="22.2" transform="matrix(0.9725 -0.233 0.233 0.9725 25.9004 263.7997)" class="st6" width="30.9" height="0.2"/>
				
					<rect id="XMLID_125_" x="1113.6" y="19.5" transform="matrix(0.9725 -0.233 0.233 0.9725 26.4971 263.6125)" class="st6" width="30.9" height="0.2"/>
				
					<rect id="XMLID_124_" x="1113" y="17" transform="matrix(0.9725 -0.233 0.233 0.9725 27.0636 263.402)" class="st6" width="30.9" height="0.2"/>
				
					<rect id="XMLID_123_" x="1112.3" y="14.5" transform="matrix(0.9725 -0.233 0.233 0.9725 27.644 263.1714)" class="st6" width="30.9" height="0.2"/>
				
					<rect id="XMLID_122_" x="1111.7" y="12" transform="matrix(0.9725 -0.233 0.233 0.9725 28.2112 262.9625)" class="st6" width="30.9" height="0.2"/>
				
					<rect id="XMLID_121_" x="1111.1" y="9.4" transform="matrix(0.9725 -0.233 0.233 0.9725 28.8038 262.7495)" class="st6" width="30.9" height="0.2"/>
				
					<rect id="XMLID_120_" x="1110.5" y="6.8" transform="matrix(0.9725 -0.233 0.233 0.9725 29.3713 262.541)" class="st6" width="30.9" height="0.2"/>
				
					<rect id="XMLID_119_" x="1109.9" y="4.2" transform="matrix(0.9725 -0.233 0.233 0.9725 29.9636 262.3274)" class="st6" width="30.9" height="0.2"/>
				
					<rect id="XMLID_118_" x="1109.2" y="1.8" transform="matrix(0.9725 -0.233 0.233 0.9725 30.5178 262.099)" class="st6" width="30.9" height="0.2"/>
				
					<rect id="XMLID_117_" x="1108.6" y="-0.8" transform="matrix(0.9725 -0.233 0.233 0.9725 31.111 261.887)" class="st6" width="30.9" height="0.2"/>
				
					<rect id="XMLID_116_" x="1108.1" y="-3.4" transform="matrix(0.9725 -0.233 0.233 0.9725 31.7013 261.69)" class="st6" width="30.9" height="0.2"/>
			</g>
			
				<rect id="XMLID_115_" x="1113.7" y="-1.7" transform="matrix(0.9724 -0.2334 0.2334 0.9724 25.3302 260.6001)" class="st10" width="0.2" height="50"/>
		</g>
		<g id="XMLID_367_">
			<path id="XMLID_114_" class="st21" d="M1151.1,5.9c-0.4,1.4-1.9,2.2-3.3,1.7l0,0c-1.4-0.4-2.2-1.9-1.7-3.3l1.9-6.1
				c0.4-1.4,1.9-2.2,3.3-1.7l0,0c1.4,0.4,2.2,1.9,1.7,3.3L1151.1,5.9z"/>
			<path id="XMLID_113_" class="st23" d="M1151.1-3.5c-0.2-0.1-0.4-0.1-0.6-0.1l-3.4,11c0.2,0.1,0.3,0.2,0.5,0.2
				c1.4,0.4,2.9-0.4,3.3-1.7l1.9-6.1C1153.4-1.6,1152.6-3.1,1151.1-3.5z"/>
			<path id="XMLID_112_" class="st27" d="M1152.4-2.6l-3.2,10.3c0.8-0.2,1.5-0.9,1.7-1.7l1.9-6.1C1153.3-1.1,1153.1-2,1152.4-2.6z"
				/>
			
				<rect id="XMLID_111_" x="1140.6" y="2.6" transform="matrix(-0.9558 -0.294 0.294 -0.9558 2229.335 380.3473)" class="st28" width="5.3" height="40"/>
			
				<rect id="XMLID_110_" x="1124.1" y="21.3" transform="matrix(-0.294 0.9558 -0.9558 -0.294 1502.431 -1063.8837)" class="st29" width="40" height="3.2"/>
			
				<rect id="XMLID_109_" x="1125.1" y="22.7" transform="matrix(-0.294 0.9558 -0.9558 -0.294 1503.9531 -1064.4493)" class="st30" width="40" height="1.1"/>
			<polygon id="XMLID_108_" class="st31" points="1139.8,42.5 1135.4,48.1 1134.8,41 			"/>
			<polygon id="XMLID_107_" class="st32" points="1135.1,46.3 1135.4,48.1 1136.4,46.7 			"/>
			<path id="XMLID_106_" class="st8" d="M1151.6,4.8c0,0.2-0.2,0.2-0.4,0.2l-4.9-1.5c-0.2,0-0.2-0.2-0.2-0.4l0.2-0.8
				c0-0.2,0.2-0.2,0.4-0.2l4.9,1.5c0.2,0,0.2,0.2,0.2,0.4L1151.6,4.8z"/>
			<path id="XMLID_105_" class="st33" d="M1151.6,3.6l-3-0.9l-0.4,1.4l3,0.9c0.2,0,0.3,0,0.4-0.2l0.2-0.8
				C1151.9,3.8,1151.9,3.7,1151.6,3.6z"/>
			<path id="XMLID_104_" class="st33" d="M1147.1,2.2l-0.4-0.1c-0.2,0-0.3,0-0.4,0.2l-0.2,0.8c0,0.2,0,0.3,0.2,0.4l0.4,0.1
				L1147.1,2.2z"/>
			<path id="XMLID_103_" class="st34" d="M1151.6,3.6l-1.1-0.3l-0.4,1.4l1.1,0.3c0.2,0,0.3,0,0.4-0.2l0.2-0.8
				C1151.9,3.8,1151.9,3.7,1151.6,3.6z"/>
		</g>
	</g>
	<g id="XMLID_357_">
		<g id="XMLID_362_">
			<polygon id="XMLID_102_" class="st5" points="1117.1,38.1 1093.4,-4.8 1065.9,12.1 1089.6,55 			"/>
			<polygon id="XMLID_101_" class="st35" points="1065.9,12.1 1105.1,16.7 1089.6,55 			"/>
			<polygon id="XMLID_100_" class="st4" points="1117.1,38.1 1083.1,30.3 1093.4,-4.8 			"/>
		</g>
		<g id="XMLID_358_">
			
				<rect id="XMLID_99_" x="1060.1" y="-8.5" transform="matrix(-0.8503 -0.5263 0.5263 -0.8503 2002.261 585.1761)" class="st5" width="48.5" height="32.7"/>
			<polygon id="XMLID_98_" class="st35" points="1055.1,9 1092.9,-5.9 1096.4,34.5 			"/>
			<polygon id="XMLID_97_" class="st4" points="1113.6,6.7 1079.1,16.3 1072.4,-18.8 			"/>
		</g>
	</g>
	<g id="XMLID_348_">
		<path id="XMLID_96_" class="st36" d="M970.3,26.1l-11.6,31.4c-0.8,2.1,0.3,4.5,2.4,5.3l47.4,17.5c2.1,0.8,4.5-0.3,5.3-2.4
			l11.6-31.4L970.3,26.1z"/>
		
			<rect id="XMLID_95_" x="984.1" y="31" transform="matrix(-0.9381 -0.3464 0.3464 -0.9381 1900.2593 406.4467)" class="st28" width="4.7" height="4.8"/>
		<path id="XMLID_94_" class="st5" d="M971.5,27.5l-11.6,31.4c-0.8,2.1,0.2,4.5,2.2,5.2l44.9,16.6c2,0.7,4.3-0.4,5.1-2.5l11.6-31.4
			L971.5,27.5z"/>
		
			<rect id="XMLID_93_" x="978.4" y="29" transform="matrix(-0.9381 -0.3465 0.3465 -0.9381 1889.957 400.7164)" class="st9" width="4.7" height="4.8"/>
		<path id="XMLID_92_" class="st35" d="M971.1,28.4l-11.6,31.5c-0.8,2.1,0.2,4.5,2.2,5.2l44.9,16.6c2,0.7,4.3-0.4,5.1-2.5l11.6-31.4
			L971.1,28.4z"/>
		
			<rect id="XMLID_91_" x="973.1" y="27" transform="matrix(-0.9381 -0.3465 0.3465 -0.9381 1880.3336 395.027)" class="st7" width="4.7" height="4.8"/>
		<path id="XMLID_90_" class="st4" d="M970.8,29.4l-11.6,31.4c-0.8,2.1,0.2,4.5,2.2,5.2l44.9,16.6c2,0.7,4.3-0.4,5.1-2.5l11.6-31.4
			L970.8,29.4z"/>
		<path id="XMLID_89_" class="st37" d="M968.8,30.2l-11.6,31.4c-0.8,2.1,0.3,4.5,2.4,5.3l47.4,17.5c2.1,0.8,4.5-0.3,5.3-2.4
			l11.6-31.4L968.8,30.2z"/>
	</g>
	<g id="XMLID_339_">
		<g id="XMLID_341_">
			<path id="XMLID_88_" class="st38" d="M1174.9,53.3l-37.1,15c-2.5,1-3.7,3.9-2.7,6.4l22.6,55.9c1,2.5,3.9,3.7,6.4,2.7l37.1-15
				L1174.9,53.3z"/>
			<path id="XMLID_87_" class="st5" d="M1174.6,55.5l-37.1,15c-2.5,1-3.8,3.8-2.8,6.2l21.4,53c1,2.4,3.8,3.5,6.3,2.5l37.1-15
				L1174.6,55.5z"/>
			<path id="XMLID_86_" class="st35" d="M1173.4,55.9l-37.1,15c-2.5,1-3.8,3.8-2.8,6.2l21.4,53c1,2.4,3.8,3.5,6.3,2.5l37.1-15
				L1173.4,55.9z"/>
			<path id="XMLID_85_" class="st4" d="M1172.3,56.4l-37.1,15c-2.5,1-3.8,3.8-2.8,6.2l21.4,53c1,2.4,3.8,3.5,6.3,2.5l37.1-15
				L1172.3,56.4z"/>
			<path id="XMLID_84_" class="st39" d="M1170.1,55.3l-37.1,15c-2.5,1-3.7,3.9-2.7,6.4l22.6,55.9c1,2.5,3.9,3.7,6.4,2.7l37.1-15
				L1170.1,55.3z"/>
			<path id="XMLID_83_" class="st21" d="M1137.1,68.6l-4.2,1.7c-2.5,1-3.7,3.9-2.7,6.4l22.6,55.9c1,2.5,3.9,3.7,6.4,2.7l4.2-1.7
				L1137.1,68.6z"/>
		</g>
		<circle id="XMLID_82_" class="st40" cx="1160.9" cy="81.7" r="10.7"/>
	</g>
	<g id="XMLID_314_">
		<path id="XMLID_81_" class="st14" d="M1155.9,130.4c0,4.2-3.4,7.6-7.6,7.6h-142.1c-4.2,0-7.6-3.4-7.6-7.6V28.6
			c0-4.2,3.4-7.6,7.6-7.6h142.1c4.2,0,7.6,3.4,7.6,7.6V130.4z"/>
		<path id="XMLID_80_" class="st32" d="M1154.8,129.6c0,4.2-3.4,7.5-7.5,7.5h-139.9c-4.2,0-7.5-3.4-7.5-7.5V29.4
			c0-4.2,3.4-7.5,7.5-7.5h139.9c4.2,0,7.5,3.4,7.5,7.5V129.6L1154.8,129.6z"/>
		<path id="XMLID_79_" class="st35" d="M974,123.7v6.8c0,4.2,4.5,7.6,10,7.6h186.6c5.5,0,10-3.4,10-7.6v-6.8
			C1180.6,123.7,974,123.7,974,123.7z"/>
		<path id="XMLID_78_" class="st6" d="M974.1,132.1c1,3.4,5,6,9.8,6h186.6c4.8,0,8.8-2.6,9.8-6H974.1z"/>
		<rect id="XMLID_77_" x="1006.8" y="29.6" class="st41" width="141.1" height="88.3"/>
		<polygon id="XMLID_76_" class="st42" points="1147.9,117.9 1006.8,117.9 1008.6,32 1145.9,32 		"/>
		
			<linearGradient id="XMLID_28_" gradientUnits="userSpaceOnUse" x1="1138.25" y1="170.4" x2="1138.25" y2="82.1" gradientTransform="matrix(1 0 0 -1 0 200)">
			<stop  offset="0" style="stop-color:#FFFFFF"/>
			<stop  offset="1" style="stop-color:#FFFFFF;stop-opacity:0"/>
		</linearGradient>
		<rect id="XMLID_75_" x="1134.1" y="29.6" class="st43" width="8.3" height="88.3"/>
		
			<linearGradient id="XMLID_29_" gradientUnits="userSpaceOnUse" x1="1128.05" y1="170.4" x2="1128.05" y2="82.1" gradientTransform="matrix(1 0 0 -1 0 200)">
			<stop  offset="0" style="stop-color:#FFFFFF"/>
			<stop  offset="1" style="stop-color:#FFFFFF;stop-opacity:0"/>
		</linearGradient>
		<rect id="XMLID_74_" x="1125.8" y="29.6" class="st44" width="4.5" height="88.3"/>
		<circle id="XMLID_73_" class="st6" cx="1077.3" cy="25.5" r="2"/>
		<circle id="XMLID_72_" class="st45" cx="1077.3" cy="25.5" r="1.7"/>
		<g id="XMLID_71_">
			<path id="XMLID_290_" class="st6" d="M1112.3,124.9v2h-69.9v-2H1112.3 M1113.6,123.6h-72.5v4.6h72.5V123.6L1113.6,123.6z"/>
		</g>
		<g id="XMLID_321_">
			<circle id="XMLID_70_" class="st6" cx="980.1" cy="127.8" r="1.5"/>
			<circle id="XMLID_69_" class="st14" cx="980.1" cy="127.8" r="1.1"/>
		</g>
		<g id="XMLID_318_">
			<circle id="XMLID_68_" class="st6" cx="985" cy="127.8" r="1.5"/>
			<circle id="XMLID_67_" class="st14" cx="985" cy="127.8" r="1.1"/>
		</g>
		<g id="XMLID_315_">
			<circle id="XMLID_66_" class="st6" cx="989.8" cy="127.8" r="1.5"/>
			<circle id="XMLID_65_" class="st14" cx="989.8" cy="127.8" r="1.1"/>
		</g>
	</g>
	<g id="XMLID_284_">
		<path id="XMLID_31_" class="st35" d="M1106.1,101.9c0,1.6-1.3,2.9-2.9,2.9h-47.7c-1.6,0-2.9-1.3-2.9-2.9l0,0
			c0-1.6,1.3-2.9,2.9-2.9h47.7C1104.8,99,1106.1,100.3,1106.1,101.9L1106.1,101.9z"/>
		<path id="XMLID_24_" class="st10" d="M1103.1,99h-6.6v5.8h6.6c1.6,0,2.9-1.3,2.9-2.9S1104.8,99,1103.1,99z"/>
		<path id="XMLID_23_" class="st4" d="M1106.1,102.6c0,1.6-1.3,2.9-2.9,2.9h-47.7c-1.6,0-2.9-1.3-2.9-2.9l0,0c0-1.6,1.3-2.9,2.9-2.9
			h47.7C1104.8,99.7,1106.1,101,1106.1,102.6L1106.1,102.6z"/>
		<path id="XMLID_13_" class="st13" d="M1103.1,99.7h-6.6v5.8h6.6c1.6,0,2.9-1.3,2.9-2.9S1104.8,99.7,1103.1,99.7z"/>
		<path id="XMLID_289_" class="st35" d="M1100.9,100.6c-0.7-0.7-1.7-0.7-2.4,0c-0.7,0.7-0.7,1.7,0,2.4c0.6,0.6,1.5,0.6,2.1,0.2
			l1.8,1.8l0.4-0.4l-1.8-1.8C1101.6,102.1,1101.4,101.2,1100.9,100.6z M1100.6,102.7c-0.5,0.5-1.3,0.5-1.7,0c-0.5-0.5-0.5-1.3,0-1.7
			c0.5-0.5,1.3-0.5,1.7,0C1101.1,101.4,1101.1,102.2,1100.6,102.7z"/>
		<text id="XMLID_9_" transform="matrix(1 0 0 1 1056.8086 103.4409)" class="st14 st46 st47">Digite o que você procura...</text>
	</g>
	<g id="XMLID_15_">
		
			<linearGradient id="XMLID_35_" gradientUnits="userSpaceOnUse" x1="1187.7504" y1="83.6409" x2="1187.7504" y2="141.4505" gradientTransform="matrix(1 0 0 -1 0 200)">
			<stop  offset="0" style="stop-color:#FFFFFF"/>
			<stop  offset="1" style="stop-color:#FFFFFF;stop-opacity:0"/>
		</linearGradient>
		<path id="XMLID_8_" class="st48" d="M1207.1,106.6c0-11.1,9.2-7.1,9.1-19s-10.1-13.2-10.1-29.7h-46.8c0,16.5,10,17.8,10.1,29.7
			s-9.1,8-9.1,19H1207.1z"/>
		<path id="XMLID_7_" class="st6" d="M1183.9,130c-38.2,0-38,2.8-38,2.8c2.3,3.6,38,6.5,38,6.5s35.7-2.9,38-6.5
			C1221.9,132.8,1222.1,130,1183.9,130z"/>
		<g id="XMLID_279_">
			<path id="XMLID_6_" class="st5" d="M1199.6,131.9l-1.3-2.4c5.4-2.9,9.9-6.4,12.6-10c2.3-3.1,3.1-6,2.3-7.9
				c-0.6-1.5-1.7-2.2-3.3-2.2c-1.3,0-2.5,0.4-2.6,0.4l-1-2.5c0.1,0,1.7-0.7,3.6-0.7c2.7,0,4.8,1.4,5.8,3.9c1.3,2.9,0.4,6.7-2.6,10.6
				C1210.1,125.1,1205.4,128.8,1199.6,131.9z"/>
		</g>
		<path id="XMLID_5_" class="st49" d="M1208.9,139.3c-6.1-1.9-25,3.3-25,3.3s-18.9-5.2-25-3.3c0,0,4.8,1.3,5.5,3.3
			c0,0-0.2,2.5,19.5,2.5s19.5-2.5,19.5-2.5C1204.1,140.6,1208.9,139.3,1208.9,139.3z"/>
		<path id="XMLID_4_" class="st35" d="M1208.3,105.5c-0.5-1.8-48.4-1.8-48.9,0s-0.7,32.9,24.4,32.9
			C1208.9,138.3,1208.8,107.3,1208.3,105.5z"/>
		<path id="XMLID_1_" class="st5" d="M1183.9,135.7c-30.2,0-38-2.9-38-2.9c4.4,9.8,38,9.9,38,9.9s33.6-0.1,38-9.9
			C1221.9,132.8,1213.9,135.7,1183.9,135.7z"/>
	</g>
	<g id="XMLID_2_">
		<g id="XMLID_288_">
			<circle id="XMLID_294_" class="st50" cx="1067.9" cy="71.1" r="19.6"/>
			<circle id="XMLID_293_" class="st51" cx="1066.3" cy="69.5" r="17.4"/>
		</g>
		<circle id="XMLID_281_" class="st52" cx="1066.3" cy="69.5" r="13.1"/>
		<circle id="XMLID_280_" class="st4" cx="1066.4" cy="71.3" r="10.4"/>
		<g id="XMLID_30_">
			<g id="XMLID_34_">
				<g id="XMLID_39_">
					
						<linearGradient id="XMLID_37_" gradientUnits="userSpaceOnUse" x1="1064.1" y1="-136.2222" x2="1064.1" y2="-136.2222" gradientTransform="matrix(1 0 0 1 0 202)">
						<stop  offset="0" style="stop-color:#1189C5"/>
						<stop  offset="1" style="stop-color:#8CD5F3"/>
					</linearGradient>
					<path id="XMLID_278_" class="st53" d="M1064.1,65.8C1064.1,65.8,1064.1,65.7,1064.1,65.8L1064.1,65.8z"/>
					
						<linearGradient id="XMLID_41_" gradientUnits="userSpaceOnUse" x1="1064.1218" y1="-136.35" x2="1064.2571" y2="-136.35" gradientTransform="matrix(1 0 0 1 0 202)">
						<stop  offset="0" style="stop-color:#1189C5"/>
						<stop  offset="1" style="stop-color:#8CD5F3"/>
					</linearGradient>
					<path id="XMLID_277_" class="st54" d="M1064.1,65.7C1064.2,65.6,1064.2,65.6,1064.1,65.7C1064.3,65.7,1064.1,65.7,1064.1,65.7z
						"/>
					
						<linearGradient id="XMLID_42_" gradientUnits="userSpaceOnUse" x1="1069.2" y1="-130.25" x2="1071.8604" y2="-130.25" gradientTransform="matrix(1 0 0 1 0 202)">
						<stop  offset="0" style="stop-color:#109AD7"/>
						<stop  offset="0.2016" style="stop-color:#1594CD"/>
						<stop  offset="0.5395" style="stop-color:#1584BB"/>
						<stop  offset="0.9699" style="stop-color:#086DA1"/>
						<stop  offset="1" style="stop-color:#056BA0"/>
					</linearGradient>
					<path id="XMLID_57_" class="st55" d="M1070.9,72C1071,72,1071,71.9,1070.9,72c0.3-0.2,0.4-0.3,0.5-0.3s0.1-0.1,0.1-0.1
						c0-0.1-0.1-0.1-0.1-0.2c-0.1-0.1-0.2-0.1-0.2-0.2c-0.1-0.5-0.4-0.8-0.8-0.8s-0.8,0.4-0.8,0.8c0,0.1-0.2,0.2-0.2,0.2
						c-0.1,0.1-0.1,0.1-0.1,0.2l0.1,0.1c0.2,0,0.3,0.1,0.6,0.2h0.1c-0.5,0.2-0.9,0.7-0.9,1.2h0.1h0.2h2.2h0.2h0.1
						C1071.9,72.6,1071.4,72.1,1070.9,72z M1069.8,71.6c0.1-0.1,0.2-0.2,0.2-0.3c0-0.3,0.3-0.6,0.6-0.6c0.3,0,0.6,0.3,0.6,0.6
						c0,0.1,0.1,0.2,0.2,0.3c-0.1,0.1-0.2,0.1-0.3,0.1c-0.2,0.1-0.4,0.2-0.5,0.2s-0.3-0.1-0.4-0.2
						C1069.9,71.7,1069.9,71.6,1069.8,71.6z M1069.4,73c0.1-0.5,0.6-0.9,1.1-0.9c0.6,0,1,0.4,1.1,0.9H1069.4z"/>
					
						<linearGradient id="XMLID_46_" gradientUnits="userSpaceOnUse" x1="1064.1311" y1="-131.15" x2="1066.7913" y2="-131.15" gradientTransform="matrix(1 0 0 1 0 202)">
						<stop  offset="0" style="stop-color:#109AD7"/>
						<stop  offset="0.2016" style="stop-color:#1594CD"/>
						<stop  offset="0.5395" style="stop-color:#1584BB"/>
						<stop  offset="0.9699" style="stop-color:#086DA1"/>
						<stop  offset="1" style="stop-color:#056BA0"/>
					</linearGradient>
					<path id="XMLID_45_" class="st56" d="M1065.9,71.1C1066,71.1,1066,71,1065.9,71.1c0.3-0.2,0.4-0.3,0.5-0.3s0.1-0.1,0.1-0.1
						c0-0.1-0.1-0.1-0.1-0.2c-0.1-0.1-0.2-0.1-0.2-0.2c-0.1-0.4-0.4-0.8-0.8-0.8s-0.8,0.4-0.8,0.8c0,0.1-0.2,0.2-0.2,0.2
						c-0.1,0.1-0.2,0.1-0.1,0.2l0.1,0.1c0.2,0,0.3,0.1,0.6,0.2h0.1c-0.5,0.2-0.9,0.7-0.9,1.2h0.1h0.2h2.2h0.2h0.1
						C1066.9,71.8,1066.4,71.3,1065.9,71.1z M1064.6,70.8c0.1-0.1,0.2-0.2,0.2-0.3c0-0.3,0.3-0.6,0.6-0.6s0.6,0.3,0.6,0.6
						c0,0.1,0.1,0.2,0.2,0.3c-0.1,0.1-0.2,0.1-0.3,0.1c-0.2,0.1-0.4,0.2-0.5,0.2s-0.3-0.1-0.4-0.2
						C1064.9,70.9,1064.9,70.8,1064.6,70.8z M1064.4,72.1c0.1-0.5,0.6-0.9,1.1-0.9s1,0.4,1.1,0.9H1064.4z"/>
					<polygon id="XMLID_44_" class="st52" points="1065.4,72.9 1063.6,67.6 1063.6,67.9 1065.4,73 					"/>
					<polygon id="XMLID_43_" class="st52" points="1071.1,74 1069.4,68.6 1069.4,68.9 					"/>
					
						<linearGradient id="XMLID_48_" gradientUnits="userSpaceOnUse" x1="1058.7761" y1="-129.7672" x2="1074.6521" y2="-129.7672" gradientTransform="matrix(1 0 0 1 0 202)">
						<stop  offset="0" style="stop-color:#1189C5"/>
						<stop  offset="1" style="stop-color:#8CD5F3"/>
					</linearGradient>
					<path id="XMLID_40_" class="st57" d="M1071.4,72.5c0,0-9.6-0.1-12.8-3.2c0,0,1.2,2.5,6.1,3.2c0,0-2.7-0.2-4.2-1.1l0.5,1.1
						c0,0,1.4,0.7,1.6,2.1c0,0,2.1-0.4,4.9,0s4.2,0.8,4.9,0.4l1.1-1.6c0,0,0.8-0.4,1-1.1C1074.6,72.3,1073.1,72.5,1071.4,72.5z
						 M1062.9,74.4l-0.2-0.4c4.1-0.4,7.5,0.8,7.5,0.8C1064.6,73.6,1062.9,74.4,1062.9,74.4z"/>
				</g>
				
					<linearGradient id="XMLID_51_" gradientUnits="userSpaceOnUse" x1="1061.0007" y1="-126.3722" x2="1072.8008" y2="-126.3722" gradientTransform="matrix(1 0 0 1 0 202)">
					<stop  offset="0" style="stop-color:#1189C5"/>
					<stop  offset="1" style="stop-color:#8CD5F3"/>
				</linearGradient>
				<path id="XMLID_38_" class="st58" d="M1061.1,75.6c0,0,0.2-0.1,0.4-0.2c0.3-0.1,0.8-0.3,1.3-0.4c0.3-0.1,0.6-0.1,0.9-0.1
					s0.7-0.1,1.1,0c0.3,0,0.7,0.1,1.1,0.1c0.4,0.1,0.8,0.1,1.1,0.2c0.4,0.1,0.7,0.2,1.1,0.3c0.3,0.1,0.7,0.2,1.1,0.2
					c0.3,0.1,0.7,0.2,1,0.2c0.2,0,0.3,0.1,0.4,0.1c0.2,0,0.3,0.1,0.4,0.1s0.3,0,0.4,0s0.2,0,0.3,0c0.2-0.1,0.4-0.1,0.6-0.2
					s0.3-0.2,0.3-0.2c0.1-0.1,0.1-0.1,0.1-0.1l-0.1,0.1c-0.1,0.1-0.2,0.2-0.3,0.3s-0.3,0.2-0.6,0.3c-0.2,0.1-0.5,0.1-0.8,0.1
					c-0.2,0-0.3,0-0.4,0c-0.2,0-0.3,0-0.5-0.1c-0.3,0-0.7-0.1-1.1-0.1c-0.3-0.1-0.7-0.1-1.1-0.2s-0.7-0.2-1.1-0.3
					c-0.4-0.1-0.7-0.2-1.1-0.2s-0.7-0.1-1.1-0.1c-0.3,0-0.7-0.1-1-0.1s-0.6,0-0.9,0.1c-0.6,0.1-1,0.1-1.3,0.2
					c-0.2,0.1-0.3,0.1-0.4,0.1C1061.1,75.6,1061.1,75.6,1061.1,75.6z"/>
				
					<linearGradient id="XMLID_52_" gradientUnits="userSpaceOnUse" x1="1062.8757" y1="-125.6" x2="1071.0354" y2="-125.6" gradientTransform="matrix(1 0 0 1 0 202)">
					<stop  offset="0" style="stop-color:#1189C5"/>
					<stop  offset="1" style="stop-color:#8CD5F3"/>
				</linearGradient>
				<path id="XMLID_36_" class="st59" d="M1062.9,75.9L1062.9,75.9c0.2,0,0.3-0.1,0.4-0.1s0.2-0.1,0.4-0.1c0.2,0,0.3-0.1,0.6-0.1
					c0.2,0,0.4,0,0.6,0s0.4,0,0.7,0.1c0.2,0,0.5,0.1,0.7,0.1c0.3,0.1,0.5,0.1,0.8,0.2s0.5,0.1,0.8,0.2c0.2,0.1,0.5,0.1,0.7,0.2
					s0.4,0.1,0.7,0.2c0.2,0.1,0.4,0.1,0.6,0.2c0.4,0.1,0.7,0.2,0.9,0.2c0.2,0.1,0.3,0.1,0.3,0.1s-0.1,0-0.3,0.1c-0.1,0-0.3,0-0.4,0
					c-0.2,0-0.3,0-0.6-0.1c-0.2,0-0.4-0.1-0.6-0.1c-0.2-0.1-0.4-0.1-0.7-0.1c-0.1,0-0.2-0.1-0.4-0.1c-0.1,0-0.2-0.1-0.4-0.1
					c-0.2-0.1-0.5-0.1-0.7-0.2s-0.5-0.1-0.7-0.2s-0.5-0.1-0.7-0.1c-0.1,0-0.2-0.1-0.3-0.1c-0.1,0-0.2,0-0.3-0.1
					c-0.2,0-0.4-0.1-0.6-0.1s-0.4,0-0.5,0c-0.2,0-0.3,0-0.4,0s-0.2,0-0.3,0C1062.9,75.9,1062.9,75.9,1062.9,75.9z"/>
			</g>
		</g>
		<g id="XMLID_19_">
			<g id="XMLID_20_">
				<g>
					<g>
						<g>
							<defs>
								<circle id="SVGID_1_" cx="1066.6" cy="71.4" r="10.4"/>
							</defs>
							<clipPath id="SVGID_2_">
								<use xlink:href="#SVGID_1_"  style="overflow:visible;"/>
							</clipPath>
							<g id="XMLID_22_" class="st60">
								
									<linearGradient id="XMLID_53_" gradientUnits="userSpaceOnUse" x1="1052.4" y1="-123.6" x2="1078.3065" y2="-123.6" gradientTransform="matrix(1 0 0 1 0 202)">
									<stop  offset="0" style="stop-color:#109AD7"/>
									<stop  offset="1" style="stop-color:#056BA0"/>
								</linearGradient>
								<path id="XMLID_26_" class="st61" d="M1052.4,76.9c0,0,0.1-0.1,0.3-0.1c0.1-0.1,0.2-0.1,0.3-0.2c0.1-0.1,0.3-0.1,0.5-0.2
									c0.4-0.1,0.8-0.2,1.4-0.3c0.6-0.1,1.2-0.1,1.8,0.1c0.7,0.1,1.3,0.2,2.1,0.4c0.7,0.2,1.4,0.4,2.2,0.7
									c0.4,0.1,0.7,0.2,1.1,0.3c0.4,0.1,0.7,0.2,1.1,0.3c0.7,0.2,1.5,0.4,2.2,0.4c0.7,0.1,1.4,0.1,2.2,0c0.2-0.1,0.3-0.1,0.5-0.1
									c0.2-0.1,0.4-0.1,0.6-0.1c0.4-0.1,0.8-0.2,1.2-0.2c0.8-0.2,1.5-0.3,2.2-0.4s1.4-0.2,2.1-0.2s1.3,0.1,1.8,0.2s1,0.3,1.3,0.5
									s0.6,0.3,0.7,0.5c0.2,0.1,0.2,0.2,0.2,0.2s-0.1,0-0.3-0.1c-0.2-0.1-0.5-0.1-0.8-0.2s-0.8-0.1-1.2-0.1
									c-0.4,0.1-1,0.2-1.6,0.3c-0.6,0.2-1.2,0.3-1.9,0.6c-0.7,0.2-1.4,0.4-2.1,0.7c-0.4,0.1-0.8,0.2-1.2,0.3
									c-0.2,0.1-0.4,0.1-0.6,0.2s-0.4,0.1-0.7,0.2c-0.9,0.2-1.9,0.2-2.8,0.1s-1.8-0.3-2.6-0.6c-0.4-0.1-0.8-0.3-1.2-0.4
									c-0.4-0.2-0.8-0.3-1.1-0.5c-0.7-0.3-1.4-0.7-2-0.9c-0.6-0.2-1.2-0.6-1.8-0.8c-0.6-0.2-1.1-0.4-1.6-0.5s-0.9-0.2-1.3-0.2
									c-0.3,0-0.7-0.1-0.8,0C1052.6,76.9,1052.4,76.9,1052.4,76.9z"/>
								
									<linearGradient id="XMLID_54_" gradientUnits="userSpaceOnUse" x1="1054.5881" y1="-154.0935" x2="1075.0841" y2="-154.0935" gradientTransform="matrix(0.9998 -1.820000e-002 1.820000e-002 0.9998 5.3186 249.774)">
									<stop  offset="0" style="stop-color:#83D2E7"/>
									<stop  offset="1" style="stop-color:#04B6DF"/>
								</linearGradient>
								<path id="XMLID_25_" class="st62" d="M1077.4,77.5c0,0-2.6-2.8-5.7-2.7c-3.1,0.1-3.5,1-6.5,1.1c-3.1,0.1-4-1.3-8.3-0.2
									c3.6,0.2,5.7,2,9,2.1C1070.9,77.8,1072.9,75.4,1077.4,77.5z"/>
							</g>
						</g>
					</g>
				</g>
			</g>
		</g>
		
			<linearGradient id="XMLID_55_" gradientUnits="userSpaceOnUse" x1="1061.1072" y1="-130.25" x2="1063.707" y2="-130.25" gradientTransform="matrix(1 0 0 1 0 202)">
			<stop  offset="0" style="stop-color:#109AD7"/>
			<stop  offset="1" style="stop-color:#056BA0"/>
		</linearGradient>
		<polygon id="XMLID_18_" class="st63" points="1063.6,68.1 1063.6,68.1 1061.1,75.4 1063.6,68.6 		"/>
		
			<linearGradient id="XMLID_58_" gradientUnits="userSpaceOnUse" x1="1066.8501" y1="-129.25" x2="1069.45" y2="-129.25" gradientTransform="matrix(1 0 0 1 0 202)">
			<stop  offset="0" style="stop-color:#109AD7"/>
			<stop  offset="1" style="stop-color:#056BA0"/>
		</linearGradient>
		<polygon id="XMLID_3_" class="st64" points="1069.4,69.1 1069.4,69.1 1066.9,76.4 1069.4,69.6 		"/>
	</g>
	<g id="XMLID_296_">
		
			<radialGradient id="XMLID_59_" cx="734.9623" cy="30.2658" r="16.6904" fx="722.3855" fy="41.238" gradientTransform="matrix(-0.7071 0.7071 0.7071 0.7071 1586.3173 -468.1925)" gradientUnits="userSpaceOnUse">
			<stop  offset="0" style="stop-color:#FFFFFF;stop-opacity:0"/>
			<stop  offset="0.857" style="stop-color:#FFFFFF;stop-opacity:0.857"/>
			<stop  offset="1" style="stop-color:#FFFFFF"/>
		</radialGradient>
		<circle id="XMLID_64_" class="st65" cx="1088.1" cy="72.9" r="14"/>
		<g id="XMLID_298_">
			
				<rect id="XMLID_63_" x="1099.6" y="83" transform="matrix(-0.707 0.7072 -0.7072 -0.707 1942.454 -631.1157)" class="st66" width="4.7" height="7.7"/>
			
				<rect id="XMLID_62_" x="1100.1" y="84.3" transform="matrix(-0.7076 0.7066 -0.7066 -0.7076 1941.3739 -627.0394)" class="st67" width="0.7" height="7.7"/>
			
				<rect id="XMLID_61_" x="1098.7" y="84.6" transform="matrix(0.7071 0.7072 -0.7072 0.7071 383.8784 -754.4773)" class="st67" width="7.7" height="2.9"/>
			
				<rect id="XMLID_56_" x="1099.4" y="85" transform="matrix(0.7071 0.7071 -0.7071 0.7071 383.6504 -755.0206)" class="st68" width="7.7" height="1.1"/>
			<path id="XMLID_306_" class="st69" d="M1079.4,64.3c4.9-4.9,12.8-4.9,17.7,0s4.9,12.8,0,17.7c-4.9,4.9-12.8,4.9-17.7,0
				C1074.4,77.2,1074.4,69.2,1079.4,64.3 M1076.6,61.6c-6.4,6.4-6.4,16.8,0,23.2c6.4,6.4,16.8,6.4,23.2,0c6.4-6.4,6.4-16.8,0-23.2
				C1093.4,55.2,1083.1,55.2,1076.6,61.6L1076.6,61.6z"/>
			<path id="XMLID_303_" class="st70" d="M1076.6,61.6c-6.4,6.4-6.4,16.8,0,23.2c6.4,6.4,16.8,6.4,23.2,0c6.4-6.4,6.4-16.8,0-23.2
				C1093.4,55.2,1083.1,55.2,1076.6,61.6z M1098.6,83.5c-5.7,5.7-14.9,5.7-20.6,0s-5.7-14.9,0-20.6s14.9-5.7,20.6,0
				C1104.1,68.6,1104.1,77.8,1098.6,83.5z"/>
			<path id="XMLID_50_" class="st71" d="M1101.4,90.6l16.2,16.2c1.1,1.1,2.9,1.1,4,0l0.1-0.1c1.1-1.1,1.1-2.9,0-4l-16.2-16.2
				L1101.4,90.6z"/>
			<path id="XMLID_49_" class="st72" d="M1101.9,90.2l-0.4,0.4l16.2,16.2c0.5,0.5,1,0.7,1.6,0.8L1101.9,90.2z"/>
			<path id="XMLID_47_" class="st72" d="M1103.4,88.7l18.2,18.2c0,0,0,0,0.1-0.1l0.1-0.1c1.1-1.1,1.1-2.9,0-4l-16.2-16.2
				L1103.4,88.7z"/>
			<path id="XMLID_33_" class="st73" d="M1104.6,87.4l17.9,17.9c0.2-0.9,0-2-0.7-2.7l-16.2-16.2L1104.6,87.4z"/>
		</g>
		<path id="XMLID_32_" class="st74" d="M1079.6,67.3c0,0,0-0.1,0.1-0.2s0.2-0.3,0.3-0.6c0.1-0.1,0.2-0.2,0.3-0.4
			c0.1-0.1,0.2-0.3,0.4-0.4c0.1-0.2,0.3-0.3,0.5-0.5s0.4-0.3,0.5-0.5c0.2-0.2,0.4-0.3,0.6-0.5c0.2-0.1,0.5-0.3,0.7-0.4
			c0.1-0.1,0.3-0.1,0.4-0.2s0.3-0.1,0.4-0.2c0.3-0.1,0.6-0.2,0.9-0.3c0.6-0.1,1.3-0.3,1.9-0.3c0.7-0.1,1.3,0,2,0
			c0.7,0.1,1.3,0.1,2,0.3c0.6,0.1,1.2,0.3,1.8,0.5c0.3,0.1,0.6,0.2,0.8,0.4c0.1,0.1,0.3,0.1,0.4,0.2s0.2,0.1,0.4,0.2
			s0.5,0.3,0.7,0.4s0.4,0.3,0.6,0.4s0.4,0.3,0.6,0.4s0.3,0.3,0.5,0.4c0.1,0.1,0.3,0.2,0.4,0.4c0.1,0.1,0.2,0.2,0.3,0.3
			c0.4,0.4,0.6,0.6,0.6,0.6l-0.1,0.2c0,0-0.2-0.2-0.7-0.5c-0.1-0.1-0.2-0.2-0.4-0.3c-0.1-0.1-0.3-0.2-0.4-0.3
			c-0.2-0.1-0.3-0.2-0.5-0.3s-0.4-0.2-0.6-0.3c-0.2-0.1-0.4-0.2-0.6-0.3s-0.5-0.2-0.7-0.3c-0.1,0-0.2-0.1-0.4-0.1
			c-0.1,0-0.3-0.1-0.4-0.1c-0.3-0.1-0.5-0.1-0.8-0.2c-0.6-0.1-1.1-0.2-1.7-0.2c-0.6-0.1-1.2,0-1.7,0c-0.6,0.1-1.2,0.1-1.7,0.3
			c-0.6,0.1-1.1,0.3-1.6,0.4c-0.3,0.1-0.5,0.2-0.7,0.2c-0.1,0-0.2,0.1-0.4,0.1c-0.1,0-0.2,0.1-0.4,0.1c-0.2,0.1-0.5,0.2-0.7,0.2
			c-0.2,0.1-0.4,0.2-0.6,0.3c-0.1,0-0.2,0.1-0.3,0.1s-0.2,0.1-0.3,0.1c-0.2,0.1-0.4,0.2-0.5,0.2c-0.2,0.1-0.3,0.1-0.5,0.2
			s-0.3,0.1-0.4,0.2c-0.3,0.1-0.5,0.2-0.6,0.3c-0.1,0.1-0.2,0.1-0.2,0.1L1079.6,67.3z"/>
	</g>
</g>
</svg>
