<?xml version="1.0" encoding="utf-8"?>
<!-- Generator: Adobe Illustrator 19.0.0, SVG Export Plug-In . SVG Version: 6.00 Build 0)  -->
<svg version="1.1" id="Camada_1" xmlns="http://www.w3.org/2000/svg" xmlns:xlink="http://www.w3.org/1999/xlink" x="0px" y="0px"
	 viewBox="0 0 100 100" style="enable-background:new 0 0 100 100;" xml:space="preserve">
<style type="text/css">
	.st0{fill:#8BD6F4;}
	.st1{fill:#33C4F3;}
	.st2{fill:#0889C5;}
	.st3{fill:#FFFFFF;}
	.st4{fill:url(#XMLID_12_);}
	.st5{fill:url(#XMLID_13_);}
	.st6{fill:url(#XMLID_14_);}
	.st7{fill:url(#XMLID_15_);}
	.st8{fill:url(#XMLID_17_);}
	.st9{fill:url(#XMLID_18_);}
	.st10{fill:url(#XMLID_19_);}
	.st11{clip-path:url(#XMLID_20_);}
	.st12{fill:url(#XMLID_21_);}
	.st13{fill:url(#XMLID_22_);}
	.st14{fill:url(#XMLID_23_);}
	.st15{fill:url(#XMLID_24_);}
</style>
<g id="XMLID_1_">
	<g id="XMLID_183_">
		<circle id="XMLID_185_" class="st0" cx="51.7" cy="49.4" r="46"/>
		<circle id="XMLID_184_" class="st1" cx="47.9" cy="45.6" r="41"/>
	</g>
	<circle id="XMLID_182_" class="st2" cx="47.9" cy="45.6" r="30.9"/>
	<circle id="XMLID_181_" class="st3" cx="48.4" cy="49.8" r="24.4"/>
	<g id="XMLID_159_">
		<g id="XMLID_160_">
			<g id="XMLID_163_">
				
					<linearGradient id="XMLID_12_" gradientUnits="userSpaceOnUse" x1="42.7583" y1="65.1688" x2="42.7583" y2="65.1688" gradientTransform="matrix(1 0 0 -1 0 102)">
					<stop  offset="0" style="stop-color:#0889C5"/>
					<stop  offset="1" style="stop-color:#8BD6F4"/>
				</linearGradient>
				<path id="XMLID_169_" class="st4" d="M42.8,36.9C42.8,36.9,42.8,36.7,42.8,36.9L42.8,36.9z"/>
				
					<linearGradient id="XMLID_13_" gradientUnits="userSpaceOnUse" x1="42.8363" y1="65.4018" x2="43.1549" y2="65.4018" gradientTransform="matrix(1 0 0 -1 0 102)">
					<stop  offset="0" style="stop-color:#0889C5"/>
					<stop  offset="1" style="stop-color:#8BD6F4"/>
				</linearGradient>
				<path id="XMLID_168_" class="st5" d="M42.9,36.7c0.1-0.1,0.3-0.1,0.3-0.3C43.2,36.6,43,36.6,42.9,36.7z"/>
				
					<linearGradient id="XMLID_14_" gradientUnits="userSpaceOnUse" x1="54.7887" y1="51.0459" x2="61.0502" y2="51.0459" gradientTransform="matrix(1 0 0 -1 0 102)">
					<stop  offset="0" style="stop-color:#099AD7"/>
					<stop  offset="0.2016" style="stop-color:#0F93CD"/>
					<stop  offset="0.5395" style="stop-color:#0E83BA"/>
					<stop  offset="0.9699" style="stop-color:#036CA0"/>
					<stop  offset="1" style="stop-color:#026A9F"/>
				</linearGradient>
				<path id="XMLID_97_" class="st6" d="M59,51.4c0.1,0,0.1-0.1,0.3-0.1c0.4-0.1,0.8-0.4,1-0.4c0.3,0,0.3-0.1,0.3-0.3
					c0-0.3-0.1-0.3-0.3-0.4c-0.1-0.1-0.4-0.3-0.4-0.5c-0.1-1.2-0.9-2-2-2c-1,0-2,0.9-2,2c0,0.3-0.4,0.4-0.5,0.5
					c-0.1,0.1-0.3,0.3-0.3,0.4c0,0,0.1,0.3,0.3,0.3c0.4,0,0.8,0.3,1.3,0.4h0.1c-1.2,0.4-2.1,1.6-2.1,2.9H55h0.4h5.2H61h0.1
					C61.1,53,60.2,51.8,59,51.4z M56,50.5c0.3-0.1,0.4-0.4,0.4-0.8c0-0.8,0.7-1.4,1.4-1.4c0.8,0,1.3,0.7,1.4,1.4
					c0,0.3,0.3,0.5,0.4,0.7c-0.3,0.1-0.5,0.1-0.8,0.3C58.5,50.8,58,51,57.7,51c-0.3,0-0.7-0.1-1-0.4C56.7,50.8,56.4,50.6,56,50.5z
					 M55.3,53.8c0.3-1.2,1.3-2.1,2.5-2.1c1.3,0,2.4,0.9,2.5,2.1H55.3z"/>
				
					<linearGradient id="XMLID_15_" gradientUnits="userSpaceOnUse" x1="42.8585" y1="52.8814" x2="49.1199" y2="52.8814" gradientTransform="matrix(1 0 0 -1 0 102)">
					<stop  offset="0" style="stop-color:#099AD7"/>
					<stop  offset="0.2016" style="stop-color:#0F93CD"/>
					<stop  offset="0.5395" style="stop-color:#0E83BA"/>
					<stop  offset="0.9699" style="stop-color:#036CA0"/>
					<stop  offset="1" style="stop-color:#026A9F"/>
				</linearGradient>
				<path id="XMLID_170_" class="st7" d="M47.1,49.4c0.1,0,0.1-0.1,0.3-0.1c0.4-0.1,0.8-0.4,1-0.4c0.3,0,0.3-0.1,0.3-0.3
					c0-0.3-0.1-0.3-0.3-0.4C48.3,48.1,48,48,48,47.7c-0.1-1-0.9-1.8-2-1.8c-1,0-2,0.9-2,2c0,0.3-0.4,0.4-0.5,0.5
					c-0.3,0.1-0.4,0.1-0.3,0.4c0,0,0.1,0.3,0.3,0.3c0.4,0,0.8,0.3,1.3,0.4H45c-1.2,0.4-2.1,1.6-2.1,2.9H43h0.4h5.2h0.4h0.1
					C49.2,51,48.3,49.8,47.1,49.4z M44.1,48.5c0.3-0.1,0.4-0.4,0.4-0.8c0-0.8,0.7-1.4,1.4-1.4s1.3,0.7,1.4,1.4
					c0,0.3,0.3,0.5,0.4,0.7c-0.3,0.1-0.5,0.1-0.8,0.3c-0.4,0.1-0.9,0.4-1.2,0.4c-0.3,0-0.7-0.1-1-0.4C44.7,48.8,44.5,48.7,44.1,48.5
					z M43.4,51.8c0.3-1.2,1.3-2.1,2.5-2.1c1.2,0,2.4,0.9,2.5,2.1H43.4z"/>
				<polygon id="XMLID_174_" class="st2" points="45.9,53.6 41.8,41.1 41.6,41.7 45.6,53.8 				"/>
				<polygon id="XMLID_234_" class="st2" points="59.4,56.1 55.3,43.5 55.1,44.2 59.1,56.3 				"/>
				
					<linearGradient id="XMLID_17_" gradientUnits="userSpaceOnUse" x1="30.2537" y1="49.9622" x2="67.622" y2="49.9622" gradientTransform="matrix(1 0 0 -1 0 102)">
					<stop  offset="0" style="stop-color:#0889C5"/>
					<stop  offset="1" style="stop-color:#8BD6F4"/>
				</linearGradient>
				<path id="XMLID_164_" class="st8" d="M60.2,52.7c0,0-22.5-0.3-30-7.6c0,0,2.9,5.8,14.3,7.6c0,0-6.3-0.4-10-2.5l1.2,2.5
					c0,0,3.4,1.7,3.8,4.9c0,0,4.9-1,11.5,0c6.7,1,9.8,2,11.5,0.9l2.6-3.8c0,0,2-0.9,2.4-2.6C67.7,52.1,64.1,52.7,60.2,52.7z
					 M40.1,57.1l-0.4-0.9c9.6-0.9,17.6,2,17.6,2C43.8,55.2,40.1,57.1,40.1,57.1z"/>
			</g>
			
				<linearGradient id="XMLID_18_" gradientUnits="userSpaceOnUse" x1="35.4899" y1="42.0944" x2="63.2515" y2="42.0944" gradientTransform="matrix(1 0 0 -1 0 102)">
				<stop  offset="0" style="stop-color:#0889C5"/>
				<stop  offset="1" style="stop-color:#8BD6F4"/>
			</linearGradient>
			<path id="XMLID_162_" class="st9" d="M35.5,59.9c0,0,0.4-0.3,1-0.5c0.8-0.3,1.8-0.7,3.1-0.9c0.7-0.1,1.4-0.3,2.2-0.3
				c0.8,0,1.6-0.1,2.5,0c0.8,0,1.7,0.1,2.6,0.3c0.9,0.1,1.8,0.3,2.6,0.5c0.9,0.3,1.7,0.4,2.6,0.7c0.8,0.3,1.7,0.4,2.5,0.5
				c0.8,0.1,1.6,0.4,2.4,0.4c0.4,0,0.8,0.1,1,0.1c0.4,0,0.7,0.1,1,0.1c0.3,0,0.7,0,0.9,0c0.3,0,0.5,0,0.8,0c0.5-0.1,0.9-0.3,1.3-0.4
				c0.4-0.1,0.7-0.4,0.8-0.5c0.1-0.1,0.3-0.1,0.3-0.1s-0.1,0.1-0.3,0.3c-0.1,0.1-0.4,0.4-0.7,0.7c-0.3,0.3-0.8,0.5-1.3,0.7
				c-0.5,0.1-1.2,0.3-1.8,0.3c-0.4,0-0.7,0-1,0c-0.4,0-0.8,0-1.2-0.1c-0.8,0-1.6-0.1-2.5-0.3c-0.8-0.1-1.7-0.3-2.5-0.5
				c-0.9-0.1-1.7-0.4-2.6-0.7c-0.9-0.1-1.7-0.4-2.6-0.5c-0.9-0.1-1.7-0.3-2.5-0.3s-1.6-0.1-2.4-0.1c-0.8,0-1.4,0-2.1,0.1
				c-1.3,0.1-2.4,0.3-3.1,0.5c-0.4,0.1-0.7,0.1-0.9,0.3C35.5,59.9,35.5,59.9,35.5,59.9z"/>
			
				<linearGradient id="XMLID_19_" gradientUnits="userSpaceOnUse" x1="39.9037" y1="40.1642" x2="59.1093" y2="40.1642" gradientTransform="matrix(1 0 0 -1 0 102)">
				<stop  offset="0" style="stop-color:#0889C5"/>
				<stop  offset="1" style="stop-color:#8BD6F4"/>
			</linearGradient>
			<path id="XMLID_161_" class="st10" d="M39.9,60.7c0,0,0.1,0,0.3,0s0.4-0.1,0.7-0.1s0.5-0.1,0.9-0.1c0.4,0,0.8-0.1,1.3-0.1
				c0.5,0,0.9,0,1.4,0c0.5,0,1,0,1.7,0.1c0.5,0,1.2,0.1,1.7,0.3c0.7,0.1,1.2,0.3,1.8,0.4c0.7,0.1,1.2,0.3,1.8,0.4
				c0.5,0.1,1.2,0.3,1.7,0.4c0.5,0.1,1,0.3,1.6,0.4c0.5,0.1,0.9,0.3,1.4,0.4c0.9,0.1,1.6,0.4,2.1,0.4c0.5,0.1,0.8,0.1,0.8,0.1
				s-0.3,0-0.8,0.1c-0.3,0-0.7,0-0.9,0c-0.4,0-0.8,0-1.3-0.1c-0.5,0-0.9-0.1-1.4-0.1c-0.5-0.1-1-0.1-1.6-0.3c-0.3,0-0.5-0.1-0.9-0.1
				c-0.3,0-0.5-0.1-0.9-0.1c-0.5-0.1-1.2-0.3-1.7-0.4c-0.5-0.1-1.2-0.3-1.7-0.4c-0.5-0.1-1.2-0.3-1.7-0.3c-0.3,0-0.5-0.1-0.8-0.1
				c-0.3,0-0.5,0-0.8-0.1c-0.5,0-1-0.1-1.4-0.1c-0.4,0-0.9,0-1.2,0c-0.4,0-0.7,0-0.9,0c-0.3,0-0.5,0-0.7,0
				C40,60.7,39.9,60.7,39.9,60.7z"/>
		</g>
	</g>
	<g id="XMLID_154_">
		<g id="XMLID_16_">
			<defs>
				<circle id="XMLID_2_" cx="48.5" cy="50.1" r="24.4"/>
			</defs>
			<clipPath id="XMLID_20_">
				<use xlink:href="#XMLID_2_"  style="overflow:visible;"/>
			</clipPath>
			<g id="XMLID_156_" class="st11">
				
					<linearGradient id="XMLID_21_" gradientUnits="userSpaceOnUse" x1="15.2264" y1="35.3538" x2="76.2038" y2="35.3538" gradientTransform="matrix(1 0 0 -1 0 102)">
					<stop  offset="0" style="stop-color:#099AD7"/>
					<stop  offset="1" style="stop-color:#026A9F"/>
				</linearGradient>
				<path id="XMLID_158_" class="st12" d="M15.2,63c0,0,0.3-0.1,0.7-0.3c0.3-0.1,0.5-0.3,0.8-0.4c0.3-0.1,0.7-0.3,1.2-0.4
					c0.9-0.3,2-0.5,3.3-0.7c1.3-0.1,2.8-0.1,4.3,0.1c1.6,0.1,3.1,0.5,4.9,0.9c1.7,0.4,3.4,1,5.1,1.6c0.9,0.3,1.7,0.5,2.6,0.8
					c0.9,0.3,1.7,0.5,2.6,0.8c1.7,0.5,3.5,0.9,5.2,1c1.7,0.3,3.4,0.1,5.1,0c0.4-0.1,0.8-0.1,1.2-0.3c0.5-0.1,0.9-0.1,1.4-0.3
					c0.9-0.1,1.8-0.4,2.8-0.5c1.8-0.4,3.5-0.7,5.2-0.9c1.7-0.3,3.4-0.4,5-0.4c1.6,0,3,0.1,4.3,0.4c1.3,0.3,2.4,0.8,3.1,1.2
					c0.8,0.4,1.3,0.8,1.7,1.2c0.4,0.3,0.5,0.4,0.5,0.4s-0.3,0-0.7-0.1c-0.4-0.1-1.2-0.3-2-0.4c-0.8-0.1-1.8-0.1-2.9-0.1
					c-1,0.1-2.4,0.4-3.7,0.7c-1.3,0.4-2.9,0.8-4.5,1.3c-1.6,0.5-3.3,1-5,1.6c-0.9,0.3-1.8,0.5-2.8,0.8c-0.4,0.1-0.9,0.3-1.3,0.4
					c-0.5,0.1-1,0.3-1.6,0.4c-2.2,0.4-4.5,0.5-6.6,0.3c-2.2-0.3-4.3-0.8-6.2-1.4c-0.9-0.3-2-0.7-2.8-1c-0.9-0.4-1.8-0.8-2.6-1.2
					c-1.7-0.8-3.3-1.6-4.7-2.2c-1.4-0.7-2.9-1.3-4.2-1.8c-1.3-0.5-2.5-0.9-3.7-1.2c-1.2-0.3-2.1-0.4-3-0.4c-0.8,0-1.6-0.1-2,0
					C15.5,63,15.2,63,15.2,63z"/>
				
					<linearGradient id="XMLID_22_" gradientUnits="userSpaceOnUse" x1="20.8067" y1="35.4298" x2="69.0489" y2="35.4298" gradientTransform="matrix(0.9998 -1.820000e-002 -1.820000e-002 -0.9998 5.6586 97.894)">
					<stop  offset="0" style="stop-color:#81D2E7"/>
					<stop  offset="1" style="stop-color:#02B6E0"/>
				</linearGradient>
				<path id="XMLID_157_" class="st13" d="M74.1,64.5c0,0-6.2-6.6-13.4-6.4c-7.3,0.1-8.1,2.4-15.3,2.5c-7.3,0.1-9.4-3-19.5-0.4
					c8.5,0.5,13.5,4.7,21.2,4.9C59,65.2,63.6,59.4,74.1,64.5z"/>
			</g>
		</g>
	</g>
	
		<linearGradient id="XMLID_23_" gradientUnits="userSpaceOnUse" x1="35.7407" y1="51.177" x2="41.8561" y2="51.177" gradientTransform="matrix(1 0 0 -1 0 102)">
		<stop  offset="0" style="stop-color:#099AD7"/>
		<stop  offset="1" style="stop-color:#026A9F"/>
	</linearGradient>
	<polygon id="XMLID_220_" class="st14" points="41.8,42.2 41.8,42.2 35.7,59.4 41.8,43.4 	"/>
	
		<linearGradient id="XMLID_24_" gradientUnits="userSpaceOnUse" x1="49.2597" y1="48.686" x2="55.375" y2="48.686" gradientTransform="matrix(1 0 0 -1 0 102)">
		<stop  offset="0" style="stop-color:#099AD7"/>
		<stop  offset="1" style="stop-color:#026A9F"/>
	</linearGradient>
	<polygon id="XMLID_238_" class="st15" points="55.3,44.7 55.3,44.7 49.3,61.9 55.3,45.9 	"/>
</g>
</svg>
